%TF.GenerationSoftware,KiCad,Pcbnew,8.0.4*%
%TF.CreationDate,2025-01-29T04:39:09+01:00*%
%TF.ProjectId,uconsole-expansion-card-template,75636f6e-736f-46c6-952d-657870616e73,0.1*%
%TF.SameCoordinates,Original*%
%TF.FileFunction,Legend,Top*%
%TF.FilePolarity,Positive*%
%FSLAX46Y46*%
G04 Gerber Fmt 4.6, Leading zero omitted, Abs format (unit mm)*
G04 Created by KiCad (PCBNEW 8.0.4) date 2025-01-29 04:39:09*
%MOMM*%
%LPD*%
G01*
G04 APERTURE LIST*
%ADD10C,0.100000*%
%ADD11C,0.050000*%
%ADD12C,0.120000*%
%ADD13C,0.150000*%
G04 APERTURE END LIST*
D10*
X109316931Y-85056014D02*
X109781217Y-85056014D01*
X109781217Y-85056014D02*
X109531217Y-85341728D01*
X109531217Y-85341728D02*
X109638360Y-85341728D01*
X109638360Y-85341728D02*
X109709789Y-85377442D01*
X109709789Y-85377442D02*
X109745503Y-85413157D01*
X109745503Y-85413157D02*
X109781217Y-85484585D01*
X109781217Y-85484585D02*
X109781217Y-85663157D01*
X109781217Y-85663157D02*
X109745503Y-85734585D01*
X109745503Y-85734585D02*
X109709789Y-85770300D01*
X109709789Y-85770300D02*
X109638360Y-85806014D01*
X109638360Y-85806014D02*
X109424074Y-85806014D01*
X109424074Y-85806014D02*
X109352646Y-85770300D01*
X109352646Y-85770300D02*
X109316931Y-85734585D01*
X110031217Y-85056014D02*
X110531217Y-85056014D01*
X110531217Y-85056014D02*
X110209789Y-85806014D01*
X109388360Y-122001014D02*
X109388360Y-121251014D01*
X109388360Y-121251014D02*
X109566931Y-121251014D01*
X109566931Y-121251014D02*
X109674074Y-121286728D01*
X109674074Y-121286728D02*
X109745503Y-121358157D01*
X109745503Y-121358157D02*
X109781217Y-121429585D01*
X109781217Y-121429585D02*
X109816931Y-121572442D01*
X109816931Y-121572442D02*
X109816931Y-121679585D01*
X109816931Y-121679585D02*
X109781217Y-121822442D01*
X109781217Y-121822442D02*
X109745503Y-121893871D01*
X109745503Y-121893871D02*
X109674074Y-121965300D01*
X109674074Y-121965300D02*
X109566931Y-122001014D01*
X109566931Y-122001014D02*
X109388360Y-122001014D01*
X110138360Y-121715300D02*
X110709789Y-121715300D01*
X110424074Y-122001014D02*
X110424074Y-121429585D01*
D11*
X113544874Y-91916595D02*
X113532970Y-91928500D01*
X113532970Y-91928500D02*
X113497255Y-91940404D01*
X113497255Y-91940404D02*
X113473446Y-91940404D01*
X113473446Y-91940404D02*
X113437732Y-91928500D01*
X113437732Y-91928500D02*
X113413922Y-91904690D01*
X113413922Y-91904690D02*
X113402017Y-91880880D01*
X113402017Y-91880880D02*
X113390113Y-91833261D01*
X113390113Y-91833261D02*
X113390113Y-91797547D01*
X113390113Y-91797547D02*
X113402017Y-91749928D01*
X113402017Y-91749928D02*
X113413922Y-91726119D01*
X113413922Y-91726119D02*
X113437732Y-91702309D01*
X113437732Y-91702309D02*
X113473446Y-91690404D01*
X113473446Y-91690404D02*
X113497255Y-91690404D01*
X113497255Y-91690404D02*
X113532970Y-91702309D01*
X113532970Y-91702309D02*
X113544874Y-91714214D01*
X113640113Y-91868976D02*
X113759160Y-91868976D01*
X113616303Y-91940404D02*
X113699636Y-91690404D01*
X113699636Y-91690404D02*
X113782970Y-91940404D01*
X113866303Y-91940404D02*
X113866303Y-91690404D01*
X113866303Y-91690404D02*
X113949637Y-91868976D01*
X113949637Y-91868976D02*
X114032970Y-91690404D01*
X114032970Y-91690404D02*
X114032970Y-91940404D01*
X114282970Y-91940404D02*
X114140113Y-91940404D01*
X114211541Y-91940404D02*
X114211541Y-91690404D01*
X114211541Y-91690404D02*
X114187732Y-91726119D01*
X114187732Y-91726119D02*
X114163922Y-91749928D01*
X114163922Y-91749928D02*
X114140113Y-91761833D01*
X114330589Y-91964214D02*
X114521065Y-91964214D01*
X114580588Y-91940404D02*
X114580588Y-91690404D01*
X114580588Y-91690404D02*
X114640112Y-91690404D01*
X114640112Y-91690404D02*
X114675826Y-91702309D01*
X114675826Y-91702309D02*
X114699636Y-91726119D01*
X114699636Y-91726119D02*
X114711541Y-91749928D01*
X114711541Y-91749928D02*
X114723445Y-91797547D01*
X114723445Y-91797547D02*
X114723445Y-91833261D01*
X114723445Y-91833261D02*
X114711541Y-91880880D01*
X114711541Y-91880880D02*
X114699636Y-91904690D01*
X114699636Y-91904690D02*
X114675826Y-91928500D01*
X114675826Y-91928500D02*
X114640112Y-91940404D01*
X114640112Y-91940404D02*
X114580588Y-91940404D01*
X114830588Y-91940404D02*
X114830588Y-91690404D01*
X114830588Y-91690404D02*
X114973445Y-91940404D01*
X114973445Y-91940404D02*
X114973445Y-91690404D01*
X115223446Y-91940404D02*
X115080589Y-91940404D01*
X115152017Y-91940404D02*
X115152017Y-91690404D01*
X115152017Y-91690404D02*
X115128208Y-91726119D01*
X115128208Y-91726119D02*
X115104398Y-91749928D01*
X115104398Y-91749928D02*
X115080589Y-91761833D01*
X113576281Y-108457362D02*
X113576281Y-108659743D01*
X113576281Y-108659743D02*
X113588186Y-108683553D01*
X113588186Y-108683553D02*
X113600091Y-108695458D01*
X113600091Y-108695458D02*
X113623900Y-108707362D01*
X113623900Y-108707362D02*
X113671519Y-108707362D01*
X113671519Y-108707362D02*
X113695329Y-108695458D01*
X113695329Y-108695458D02*
X113707234Y-108683553D01*
X113707234Y-108683553D02*
X113719138Y-108659743D01*
X113719138Y-108659743D02*
X113719138Y-108457362D01*
X113826282Y-108695458D02*
X113861996Y-108707362D01*
X113861996Y-108707362D02*
X113921520Y-108707362D01*
X113921520Y-108707362D02*
X113945329Y-108695458D01*
X113945329Y-108695458D02*
X113957234Y-108683553D01*
X113957234Y-108683553D02*
X113969139Y-108659743D01*
X113969139Y-108659743D02*
X113969139Y-108635934D01*
X113969139Y-108635934D02*
X113957234Y-108612124D01*
X113957234Y-108612124D02*
X113945329Y-108600219D01*
X113945329Y-108600219D02*
X113921520Y-108588315D01*
X113921520Y-108588315D02*
X113873901Y-108576410D01*
X113873901Y-108576410D02*
X113850091Y-108564505D01*
X113850091Y-108564505D02*
X113838186Y-108552600D01*
X113838186Y-108552600D02*
X113826282Y-108528791D01*
X113826282Y-108528791D02*
X113826282Y-108504981D01*
X113826282Y-108504981D02*
X113838186Y-108481172D01*
X113838186Y-108481172D02*
X113850091Y-108469267D01*
X113850091Y-108469267D02*
X113873901Y-108457362D01*
X113873901Y-108457362D02*
X113933424Y-108457362D01*
X113933424Y-108457362D02*
X113969139Y-108469267D01*
X114159615Y-108576410D02*
X114195329Y-108588315D01*
X114195329Y-108588315D02*
X114207234Y-108600219D01*
X114207234Y-108600219D02*
X114219138Y-108624029D01*
X114219138Y-108624029D02*
X114219138Y-108659743D01*
X114219138Y-108659743D02*
X114207234Y-108683553D01*
X114207234Y-108683553D02*
X114195329Y-108695458D01*
X114195329Y-108695458D02*
X114171519Y-108707362D01*
X114171519Y-108707362D02*
X114076281Y-108707362D01*
X114076281Y-108707362D02*
X114076281Y-108457362D01*
X114076281Y-108457362D02*
X114159615Y-108457362D01*
X114159615Y-108457362D02*
X114183424Y-108469267D01*
X114183424Y-108469267D02*
X114195329Y-108481172D01*
X114195329Y-108481172D02*
X114207234Y-108504981D01*
X114207234Y-108504981D02*
X114207234Y-108528791D01*
X114207234Y-108528791D02*
X114195329Y-108552600D01*
X114195329Y-108552600D02*
X114183424Y-108564505D01*
X114183424Y-108564505D02*
X114159615Y-108576410D01*
X114159615Y-108576410D02*
X114076281Y-108576410D01*
X114302472Y-108457362D02*
X114457234Y-108457362D01*
X114457234Y-108457362D02*
X114373900Y-108552600D01*
X114373900Y-108552600D02*
X114409615Y-108552600D01*
X114409615Y-108552600D02*
X114433424Y-108564505D01*
X114433424Y-108564505D02*
X114445329Y-108576410D01*
X114445329Y-108576410D02*
X114457234Y-108600219D01*
X114457234Y-108600219D02*
X114457234Y-108659743D01*
X114457234Y-108659743D02*
X114445329Y-108683553D01*
X114445329Y-108683553D02*
X114433424Y-108695458D01*
X114433424Y-108695458D02*
X114409615Y-108707362D01*
X114409615Y-108707362D02*
X114338186Y-108707362D01*
X114338186Y-108707362D02*
X114314377Y-108695458D01*
X114314377Y-108695458D02*
X114302472Y-108683553D01*
X114504853Y-108731172D02*
X114695329Y-108731172D01*
X114754852Y-108707362D02*
X114754852Y-108457362D01*
X114754852Y-108457362D02*
X114814376Y-108457362D01*
X114814376Y-108457362D02*
X114850090Y-108469267D01*
X114850090Y-108469267D02*
X114873900Y-108493077D01*
X114873900Y-108493077D02*
X114885805Y-108516886D01*
X114885805Y-108516886D02*
X114897709Y-108564505D01*
X114897709Y-108564505D02*
X114897709Y-108600219D01*
X114897709Y-108600219D02*
X114885805Y-108647838D01*
X114885805Y-108647838D02*
X114873900Y-108671648D01*
X114873900Y-108671648D02*
X114850090Y-108695458D01*
X114850090Y-108695458D02*
X114814376Y-108707362D01*
X114814376Y-108707362D02*
X114754852Y-108707362D01*
X115004852Y-108612124D02*
X115195329Y-108612124D01*
D10*
X109388360Y-117048014D02*
X109388360Y-116298014D01*
X109388360Y-116298014D02*
X109566931Y-116298014D01*
X109566931Y-116298014D02*
X109674074Y-116333728D01*
X109674074Y-116333728D02*
X109745503Y-116405157D01*
X109745503Y-116405157D02*
X109781217Y-116476585D01*
X109781217Y-116476585D02*
X109816931Y-116619442D01*
X109816931Y-116619442D02*
X109816931Y-116726585D01*
X109816931Y-116726585D02*
X109781217Y-116869442D01*
X109781217Y-116869442D02*
X109745503Y-116940871D01*
X109745503Y-116940871D02*
X109674074Y-117012300D01*
X109674074Y-117012300D02*
X109566931Y-117048014D01*
X109566931Y-117048014D02*
X109388360Y-117048014D01*
X110138360Y-116762300D02*
X110709789Y-116762300D01*
D12*
X82363769Y-87530624D02*
X82363769Y-87221100D01*
X82363769Y-87221100D02*
X82554245Y-87387767D01*
X82554245Y-87387767D02*
X82554245Y-87316338D01*
X82554245Y-87316338D02*
X82578055Y-87268719D01*
X82578055Y-87268719D02*
X82601864Y-87244910D01*
X82601864Y-87244910D02*
X82649483Y-87221100D01*
X82649483Y-87221100D02*
X82768531Y-87221100D01*
X82768531Y-87221100D02*
X82816150Y-87244910D01*
X82816150Y-87244910D02*
X82839960Y-87268719D01*
X82839960Y-87268719D02*
X82863769Y-87316338D01*
X82863769Y-87316338D02*
X82863769Y-87459195D01*
X82863769Y-87459195D02*
X82839960Y-87506814D01*
X82839960Y-87506814D02*
X82816150Y-87530624D01*
X82363769Y-86911577D02*
X82363769Y-86863958D01*
X82363769Y-86863958D02*
X82387579Y-86816339D01*
X82387579Y-86816339D02*
X82411388Y-86792529D01*
X82411388Y-86792529D02*
X82459007Y-86768720D01*
X82459007Y-86768720D02*
X82554245Y-86744910D01*
X82554245Y-86744910D02*
X82673293Y-86744910D01*
X82673293Y-86744910D02*
X82768531Y-86768720D01*
X82768531Y-86768720D02*
X82816150Y-86792529D01*
X82816150Y-86792529D02*
X82839960Y-86816339D01*
X82839960Y-86816339D02*
X82863769Y-86863958D01*
X82863769Y-86863958D02*
X82863769Y-86911577D01*
X82863769Y-86911577D02*
X82839960Y-86959196D01*
X82839960Y-86959196D02*
X82816150Y-86983005D01*
X82816150Y-86983005D02*
X82768531Y-87006815D01*
X82768531Y-87006815D02*
X82673293Y-87030624D01*
X82673293Y-87030624D02*
X82554245Y-87030624D01*
X82554245Y-87030624D02*
X82459007Y-87006815D01*
X82459007Y-87006815D02*
X82411388Y-86983005D01*
X82411388Y-86983005D02*
X82387579Y-86959196D01*
X82387579Y-86959196D02*
X82363769Y-86911577D01*
X82863769Y-112748100D02*
X82863769Y-113033814D01*
X82863769Y-112890957D02*
X82363769Y-112890957D01*
X82363769Y-112890957D02*
X82435198Y-112938576D01*
X82435198Y-112938576D02*
X82482817Y-112986195D01*
X82482817Y-112986195D02*
X82506626Y-113033814D01*
X82363769Y-112438577D02*
X82363769Y-112390958D01*
X82363769Y-112390958D02*
X82387579Y-112343339D01*
X82387579Y-112343339D02*
X82411388Y-112319529D01*
X82411388Y-112319529D02*
X82459007Y-112295720D01*
X82459007Y-112295720D02*
X82554245Y-112271910D01*
X82554245Y-112271910D02*
X82673293Y-112271910D01*
X82673293Y-112271910D02*
X82768531Y-112295720D01*
X82768531Y-112295720D02*
X82816150Y-112319529D01*
X82816150Y-112319529D02*
X82839960Y-112343339D01*
X82839960Y-112343339D02*
X82863769Y-112390958D01*
X82863769Y-112390958D02*
X82863769Y-112438577D01*
X82863769Y-112438577D02*
X82839960Y-112486196D01*
X82839960Y-112486196D02*
X82816150Y-112510005D01*
X82816150Y-112510005D02*
X82768531Y-112533815D01*
X82768531Y-112533815D02*
X82673293Y-112557624D01*
X82673293Y-112557624D02*
X82554245Y-112557624D01*
X82554245Y-112557624D02*
X82459007Y-112533815D01*
X82459007Y-112533815D02*
X82411388Y-112510005D01*
X82411388Y-112510005D02*
X82387579Y-112486196D01*
X82387579Y-112486196D02*
X82363769Y-112438577D01*
D10*
X109709789Y-76416014D02*
X109709789Y-76916014D01*
X109531217Y-76130300D02*
X109352646Y-76666014D01*
X109352646Y-76666014D02*
X109816931Y-76666014D01*
X110424075Y-76416014D02*
X110424075Y-76916014D01*
X110245503Y-76130300D02*
X110066932Y-76666014D01*
X110066932Y-76666014D02*
X110531217Y-76666014D01*
X109816931Y-114635014D02*
X109566931Y-114277871D01*
X109388360Y-114635014D02*
X109388360Y-113885014D01*
X109388360Y-113885014D02*
X109674074Y-113885014D01*
X109674074Y-113885014D02*
X109745503Y-113920728D01*
X109745503Y-113920728D02*
X109781217Y-113956442D01*
X109781217Y-113956442D02*
X109816931Y-114027871D01*
X109816931Y-114027871D02*
X109816931Y-114135014D01*
X109816931Y-114135014D02*
X109781217Y-114206442D01*
X109781217Y-114206442D02*
X109745503Y-114242157D01*
X109745503Y-114242157D02*
X109674074Y-114277871D01*
X109674074Y-114277871D02*
X109388360Y-114277871D01*
X110138360Y-114635014D02*
X110138360Y-113885014D01*
X110138360Y-113885014D02*
X110424074Y-113885014D01*
X110424074Y-113885014D02*
X110495503Y-113920728D01*
X110495503Y-113920728D02*
X110531217Y-113956442D01*
X110531217Y-113956442D02*
X110566931Y-114027871D01*
X110566931Y-114027871D02*
X110566931Y-114135014D01*
X110566931Y-114135014D02*
X110531217Y-114206442D01*
X110531217Y-114206442D02*
X110495503Y-114242157D01*
X110495503Y-114242157D02*
X110424074Y-114277871D01*
X110424074Y-114277871D02*
X110138360Y-114277871D01*
X109388360Y-110952014D02*
X109388360Y-110202014D01*
X109388360Y-110202014D02*
X109566931Y-110202014D01*
X109566931Y-110202014D02*
X109674074Y-110237728D01*
X109674074Y-110237728D02*
X109745503Y-110309157D01*
X109745503Y-110309157D02*
X109781217Y-110380585D01*
X109781217Y-110380585D02*
X109816931Y-110523442D01*
X109816931Y-110523442D02*
X109816931Y-110630585D01*
X109816931Y-110630585D02*
X109781217Y-110773442D01*
X109781217Y-110773442D02*
X109745503Y-110844871D01*
X109745503Y-110844871D02*
X109674074Y-110916300D01*
X109674074Y-110916300D02*
X109566931Y-110952014D01*
X109566931Y-110952014D02*
X109388360Y-110952014D01*
X110138360Y-110952014D02*
X110138360Y-110202014D01*
X110138360Y-110202014D02*
X110424074Y-110202014D01*
X110424074Y-110202014D02*
X110495503Y-110237728D01*
X110495503Y-110237728D02*
X110531217Y-110273442D01*
X110531217Y-110273442D02*
X110566931Y-110344871D01*
X110566931Y-110344871D02*
X110566931Y-110452014D01*
X110566931Y-110452014D02*
X110531217Y-110523442D01*
X110531217Y-110523442D02*
X110495503Y-110559157D01*
X110495503Y-110559157D02*
X110424074Y-110594871D01*
X110424074Y-110594871D02*
X110138360Y-110594871D01*
X110816931Y-110202014D02*
X111281217Y-110202014D01*
X111281217Y-110202014D02*
X111031217Y-110487728D01*
X111031217Y-110487728D02*
X111138360Y-110487728D01*
X111138360Y-110487728D02*
X111209789Y-110523442D01*
X111209789Y-110523442D02*
X111245503Y-110559157D01*
X111245503Y-110559157D02*
X111281217Y-110630585D01*
X111281217Y-110630585D02*
X111281217Y-110809157D01*
X111281217Y-110809157D02*
X111245503Y-110880585D01*
X111245503Y-110880585D02*
X111209789Y-110916300D01*
X111209789Y-110916300D02*
X111138360Y-110952014D01*
X111138360Y-110952014D02*
X110924074Y-110952014D01*
X110924074Y-110952014D02*
X110852646Y-110916300D01*
X110852646Y-110916300D02*
X110816931Y-110880585D01*
X109388360Y-103332014D02*
X109388360Y-102582014D01*
X109388360Y-102582014D02*
X109566931Y-102582014D01*
X109566931Y-102582014D02*
X109674074Y-102617728D01*
X109674074Y-102617728D02*
X109745503Y-102689157D01*
X109745503Y-102689157D02*
X109781217Y-102760585D01*
X109781217Y-102760585D02*
X109816931Y-102903442D01*
X109816931Y-102903442D02*
X109816931Y-103010585D01*
X109816931Y-103010585D02*
X109781217Y-103153442D01*
X109781217Y-103153442D02*
X109745503Y-103224871D01*
X109745503Y-103224871D02*
X109674074Y-103296300D01*
X109674074Y-103296300D02*
X109566931Y-103332014D01*
X109566931Y-103332014D02*
X109388360Y-103332014D01*
X110138360Y-103332014D02*
X110138360Y-102582014D01*
X110138360Y-102582014D02*
X110424074Y-102582014D01*
X110424074Y-102582014D02*
X110495503Y-102617728D01*
X110495503Y-102617728D02*
X110531217Y-102653442D01*
X110531217Y-102653442D02*
X110566931Y-102724871D01*
X110566931Y-102724871D02*
X110566931Y-102832014D01*
X110566931Y-102832014D02*
X110531217Y-102903442D01*
X110531217Y-102903442D02*
X110495503Y-102939157D01*
X110495503Y-102939157D02*
X110424074Y-102974871D01*
X110424074Y-102974871D02*
X110138360Y-102974871D01*
X111281217Y-103332014D02*
X110852646Y-103332014D01*
X111066931Y-103332014D02*
X111066931Y-102582014D01*
X111066931Y-102582014D02*
X110995503Y-102689157D01*
X110995503Y-102689157D02*
X110924074Y-102760585D01*
X110924074Y-102760585D02*
X110852646Y-102796300D01*
X109316931Y-91406014D02*
X109781217Y-91406014D01*
X109781217Y-91406014D02*
X109531217Y-91691728D01*
X109531217Y-91691728D02*
X109638360Y-91691728D01*
X109638360Y-91691728D02*
X109709789Y-91727442D01*
X109709789Y-91727442D02*
X109745503Y-91763157D01*
X109745503Y-91763157D02*
X109781217Y-91834585D01*
X109781217Y-91834585D02*
X109781217Y-92013157D01*
X109781217Y-92013157D02*
X109745503Y-92084585D01*
X109745503Y-92084585D02*
X109709789Y-92120300D01*
X109709789Y-92120300D02*
X109638360Y-92156014D01*
X109638360Y-92156014D02*
X109424074Y-92156014D01*
X109424074Y-92156014D02*
X109352646Y-92120300D01*
X109352646Y-92120300D02*
X109316931Y-92084585D01*
X110066932Y-91477442D02*
X110102646Y-91441728D01*
X110102646Y-91441728D02*
X110174075Y-91406014D01*
X110174075Y-91406014D02*
X110352646Y-91406014D01*
X110352646Y-91406014D02*
X110424075Y-91441728D01*
X110424075Y-91441728D02*
X110459789Y-91477442D01*
X110459789Y-91477442D02*
X110495503Y-91548871D01*
X110495503Y-91548871D02*
X110495503Y-91620300D01*
X110495503Y-91620300D02*
X110459789Y-91727442D01*
X110459789Y-91727442D02*
X110031217Y-92156014D01*
X110031217Y-92156014D02*
X110495503Y-92156014D01*
D11*
X113544874Y-89528995D02*
X113532970Y-89540900D01*
X113532970Y-89540900D02*
X113497255Y-89552804D01*
X113497255Y-89552804D02*
X113473446Y-89552804D01*
X113473446Y-89552804D02*
X113437732Y-89540900D01*
X113437732Y-89540900D02*
X113413922Y-89517090D01*
X113413922Y-89517090D02*
X113402017Y-89493280D01*
X113402017Y-89493280D02*
X113390113Y-89445661D01*
X113390113Y-89445661D02*
X113390113Y-89409947D01*
X113390113Y-89409947D02*
X113402017Y-89362328D01*
X113402017Y-89362328D02*
X113413922Y-89338519D01*
X113413922Y-89338519D02*
X113437732Y-89314709D01*
X113437732Y-89314709D02*
X113473446Y-89302804D01*
X113473446Y-89302804D02*
X113497255Y-89302804D01*
X113497255Y-89302804D02*
X113532970Y-89314709D01*
X113532970Y-89314709D02*
X113544874Y-89326614D01*
X113640113Y-89481376D02*
X113759160Y-89481376D01*
X113616303Y-89552804D02*
X113699636Y-89302804D01*
X113699636Y-89302804D02*
X113782970Y-89552804D01*
X113866303Y-89552804D02*
X113866303Y-89302804D01*
X113866303Y-89302804D02*
X113949637Y-89481376D01*
X113949637Y-89481376D02*
X114032970Y-89302804D01*
X114032970Y-89302804D02*
X114032970Y-89552804D01*
X114282970Y-89552804D02*
X114140113Y-89552804D01*
X114211541Y-89552804D02*
X114211541Y-89302804D01*
X114211541Y-89302804D02*
X114187732Y-89338519D01*
X114187732Y-89338519D02*
X114163922Y-89362328D01*
X114163922Y-89362328D02*
X114140113Y-89374233D01*
X114330589Y-89576614D02*
X114521065Y-89576614D01*
X114580588Y-89552804D02*
X114580588Y-89302804D01*
X114580588Y-89302804D02*
X114640112Y-89302804D01*
X114640112Y-89302804D02*
X114675826Y-89314709D01*
X114675826Y-89314709D02*
X114699636Y-89338519D01*
X114699636Y-89338519D02*
X114711541Y-89362328D01*
X114711541Y-89362328D02*
X114723445Y-89409947D01*
X114723445Y-89409947D02*
X114723445Y-89445661D01*
X114723445Y-89445661D02*
X114711541Y-89493280D01*
X114711541Y-89493280D02*
X114699636Y-89517090D01*
X114699636Y-89517090D02*
X114675826Y-89540900D01*
X114675826Y-89540900D02*
X114640112Y-89552804D01*
X114640112Y-89552804D02*
X114580588Y-89552804D01*
X114830588Y-89552804D02*
X114830588Y-89302804D01*
X114830588Y-89302804D02*
X114973445Y-89552804D01*
X114973445Y-89552804D02*
X114973445Y-89302804D01*
X115140112Y-89302804D02*
X115163922Y-89302804D01*
X115163922Y-89302804D02*
X115187731Y-89314709D01*
X115187731Y-89314709D02*
X115199636Y-89326614D01*
X115199636Y-89326614D02*
X115211541Y-89350423D01*
X115211541Y-89350423D02*
X115223446Y-89398042D01*
X115223446Y-89398042D02*
X115223446Y-89457566D01*
X115223446Y-89457566D02*
X115211541Y-89505185D01*
X115211541Y-89505185D02*
X115199636Y-89528995D01*
X115199636Y-89528995D02*
X115187731Y-89540900D01*
X115187731Y-89540900D02*
X115163922Y-89552804D01*
X115163922Y-89552804D02*
X115140112Y-89552804D01*
X115140112Y-89552804D02*
X115116303Y-89540900D01*
X115116303Y-89540900D02*
X115104398Y-89528995D01*
X115104398Y-89528995D02*
X115092493Y-89505185D01*
X115092493Y-89505185D02*
X115080589Y-89457566D01*
X115080589Y-89457566D02*
X115080589Y-89398042D01*
X115080589Y-89398042D02*
X115092493Y-89350423D01*
X115092493Y-89350423D02*
X115104398Y-89326614D01*
X115104398Y-89326614D02*
X115116303Y-89314709D01*
X115116303Y-89314709D02*
X115140112Y-89302804D01*
D10*
X109745503Y-125684014D02*
X109388360Y-125684014D01*
X109388360Y-125684014D02*
X109388360Y-124934014D01*
X109995503Y-125684014D02*
X109995503Y-124934014D01*
X109995503Y-124934014D02*
X110281217Y-124934014D01*
X110281217Y-124934014D02*
X110352646Y-124969728D01*
X110352646Y-124969728D02*
X110388360Y-125005442D01*
X110388360Y-125005442D02*
X110424074Y-125076871D01*
X110424074Y-125076871D02*
X110424074Y-125184014D01*
X110424074Y-125184014D02*
X110388360Y-125255442D01*
X110388360Y-125255442D02*
X110352646Y-125291157D01*
X110352646Y-125291157D02*
X110281217Y-125326871D01*
X110281217Y-125326871D02*
X109995503Y-125326871D01*
X109316931Y-93946014D02*
X109781217Y-93946014D01*
X109781217Y-93946014D02*
X109531217Y-94231728D01*
X109531217Y-94231728D02*
X109638360Y-94231728D01*
X109638360Y-94231728D02*
X109709789Y-94267442D01*
X109709789Y-94267442D02*
X109745503Y-94303157D01*
X109745503Y-94303157D02*
X109781217Y-94374585D01*
X109781217Y-94374585D02*
X109781217Y-94553157D01*
X109781217Y-94553157D02*
X109745503Y-94624585D01*
X109745503Y-94624585D02*
X109709789Y-94660300D01*
X109709789Y-94660300D02*
X109638360Y-94696014D01*
X109638360Y-94696014D02*
X109424074Y-94696014D01*
X109424074Y-94696014D02*
X109352646Y-94660300D01*
X109352646Y-94660300D02*
X109316931Y-94624585D01*
X110245503Y-93946014D02*
X110316932Y-93946014D01*
X110316932Y-93946014D02*
X110388360Y-93981728D01*
X110388360Y-93981728D02*
X110424075Y-94017442D01*
X110424075Y-94017442D02*
X110459789Y-94088871D01*
X110459789Y-94088871D02*
X110495503Y-94231728D01*
X110495503Y-94231728D02*
X110495503Y-94410300D01*
X110495503Y-94410300D02*
X110459789Y-94553157D01*
X110459789Y-94553157D02*
X110424075Y-94624585D01*
X110424075Y-94624585D02*
X110388360Y-94660300D01*
X110388360Y-94660300D02*
X110316932Y-94696014D01*
X110316932Y-94696014D02*
X110245503Y-94696014D01*
X110245503Y-94696014D02*
X110174075Y-94660300D01*
X110174075Y-94660300D02*
X110138360Y-94624585D01*
X110138360Y-94624585D02*
X110102646Y-94553157D01*
X110102646Y-94553157D02*
X110066932Y-94410300D01*
X110066932Y-94410300D02*
X110066932Y-94231728D01*
X110066932Y-94231728D02*
X110102646Y-94088871D01*
X110102646Y-94088871D02*
X110138360Y-94017442D01*
X110138360Y-94017442D02*
X110174075Y-93981728D01*
X110174075Y-93981728D02*
X110245503Y-93946014D01*
X109316931Y-92676014D02*
X109781217Y-92676014D01*
X109781217Y-92676014D02*
X109531217Y-92961728D01*
X109531217Y-92961728D02*
X109638360Y-92961728D01*
X109638360Y-92961728D02*
X109709789Y-92997442D01*
X109709789Y-92997442D02*
X109745503Y-93033157D01*
X109745503Y-93033157D02*
X109781217Y-93104585D01*
X109781217Y-93104585D02*
X109781217Y-93283157D01*
X109781217Y-93283157D02*
X109745503Y-93354585D01*
X109745503Y-93354585D02*
X109709789Y-93390300D01*
X109709789Y-93390300D02*
X109638360Y-93426014D01*
X109638360Y-93426014D02*
X109424074Y-93426014D01*
X109424074Y-93426014D02*
X109352646Y-93390300D01*
X109352646Y-93390300D02*
X109316931Y-93354585D01*
X110495503Y-93426014D02*
X110066932Y-93426014D01*
X110281217Y-93426014D02*
X110281217Y-92676014D01*
X110281217Y-92676014D02*
X110209789Y-92783157D01*
X110209789Y-92783157D02*
X110138360Y-92854585D01*
X110138360Y-92854585D02*
X110066932Y-92890300D01*
X109316931Y-83786014D02*
X109781217Y-83786014D01*
X109781217Y-83786014D02*
X109531217Y-84071728D01*
X109531217Y-84071728D02*
X109638360Y-84071728D01*
X109638360Y-84071728D02*
X109709789Y-84107442D01*
X109709789Y-84107442D02*
X109745503Y-84143157D01*
X109745503Y-84143157D02*
X109781217Y-84214585D01*
X109781217Y-84214585D02*
X109781217Y-84393157D01*
X109781217Y-84393157D02*
X109745503Y-84464585D01*
X109745503Y-84464585D02*
X109709789Y-84500300D01*
X109709789Y-84500300D02*
X109638360Y-84536014D01*
X109638360Y-84536014D02*
X109424074Y-84536014D01*
X109424074Y-84536014D02*
X109352646Y-84500300D01*
X109352646Y-84500300D02*
X109316931Y-84464585D01*
X110209789Y-84107442D02*
X110138360Y-84071728D01*
X110138360Y-84071728D02*
X110102646Y-84036014D01*
X110102646Y-84036014D02*
X110066932Y-83964585D01*
X110066932Y-83964585D02*
X110066932Y-83928871D01*
X110066932Y-83928871D02*
X110102646Y-83857442D01*
X110102646Y-83857442D02*
X110138360Y-83821728D01*
X110138360Y-83821728D02*
X110209789Y-83786014D01*
X110209789Y-83786014D02*
X110352646Y-83786014D01*
X110352646Y-83786014D02*
X110424075Y-83821728D01*
X110424075Y-83821728D02*
X110459789Y-83857442D01*
X110459789Y-83857442D02*
X110495503Y-83928871D01*
X110495503Y-83928871D02*
X110495503Y-83964585D01*
X110495503Y-83964585D02*
X110459789Y-84036014D01*
X110459789Y-84036014D02*
X110424075Y-84071728D01*
X110424075Y-84071728D02*
X110352646Y-84107442D01*
X110352646Y-84107442D02*
X110209789Y-84107442D01*
X110209789Y-84107442D02*
X110138360Y-84143157D01*
X110138360Y-84143157D02*
X110102646Y-84178871D01*
X110102646Y-84178871D02*
X110066932Y-84250300D01*
X110066932Y-84250300D02*
X110066932Y-84393157D01*
X110066932Y-84393157D02*
X110102646Y-84464585D01*
X110102646Y-84464585D02*
X110138360Y-84500300D01*
X110138360Y-84500300D02*
X110209789Y-84536014D01*
X110209789Y-84536014D02*
X110352646Y-84536014D01*
X110352646Y-84536014D02*
X110424075Y-84500300D01*
X110424075Y-84500300D02*
X110459789Y-84464585D01*
X110459789Y-84464585D02*
X110495503Y-84393157D01*
X110495503Y-84393157D02*
X110495503Y-84250300D01*
X110495503Y-84250300D02*
X110459789Y-84178871D01*
X110459789Y-84178871D02*
X110424075Y-84143157D01*
X110424075Y-84143157D02*
X110352646Y-84107442D01*
D11*
X113656017Y-106879604D02*
X113656017Y-107081985D01*
X113656017Y-107081985D02*
X113667922Y-107105795D01*
X113667922Y-107105795D02*
X113679827Y-107117700D01*
X113679827Y-107117700D02*
X113703636Y-107129604D01*
X113703636Y-107129604D02*
X113751255Y-107129604D01*
X113751255Y-107129604D02*
X113775065Y-107117700D01*
X113775065Y-107117700D02*
X113786970Y-107105795D01*
X113786970Y-107105795D02*
X113798874Y-107081985D01*
X113798874Y-107081985D02*
X113798874Y-106879604D01*
X113906018Y-107117700D02*
X113941732Y-107129604D01*
X113941732Y-107129604D02*
X114001256Y-107129604D01*
X114001256Y-107129604D02*
X114025065Y-107117700D01*
X114025065Y-107117700D02*
X114036970Y-107105795D01*
X114036970Y-107105795D02*
X114048875Y-107081985D01*
X114048875Y-107081985D02*
X114048875Y-107058176D01*
X114048875Y-107058176D02*
X114036970Y-107034366D01*
X114036970Y-107034366D02*
X114025065Y-107022461D01*
X114025065Y-107022461D02*
X114001256Y-107010557D01*
X114001256Y-107010557D02*
X113953637Y-106998652D01*
X113953637Y-106998652D02*
X113929827Y-106986747D01*
X113929827Y-106986747D02*
X113917922Y-106974842D01*
X113917922Y-106974842D02*
X113906018Y-106951033D01*
X113906018Y-106951033D02*
X113906018Y-106927223D01*
X113906018Y-106927223D02*
X113917922Y-106903414D01*
X113917922Y-106903414D02*
X113929827Y-106891509D01*
X113929827Y-106891509D02*
X113953637Y-106879604D01*
X113953637Y-106879604D02*
X114013160Y-106879604D01*
X114013160Y-106879604D02*
X114048875Y-106891509D01*
X114239351Y-106998652D02*
X114275065Y-107010557D01*
X114275065Y-107010557D02*
X114286970Y-107022461D01*
X114286970Y-107022461D02*
X114298874Y-107046271D01*
X114298874Y-107046271D02*
X114298874Y-107081985D01*
X114298874Y-107081985D02*
X114286970Y-107105795D01*
X114286970Y-107105795D02*
X114275065Y-107117700D01*
X114275065Y-107117700D02*
X114251255Y-107129604D01*
X114251255Y-107129604D02*
X114156017Y-107129604D01*
X114156017Y-107129604D02*
X114156017Y-106879604D01*
X114156017Y-106879604D02*
X114239351Y-106879604D01*
X114239351Y-106879604D02*
X114263160Y-106891509D01*
X114263160Y-106891509D02*
X114275065Y-106903414D01*
X114275065Y-106903414D02*
X114286970Y-106927223D01*
X114286970Y-106927223D02*
X114286970Y-106951033D01*
X114286970Y-106951033D02*
X114275065Y-106974842D01*
X114275065Y-106974842D02*
X114263160Y-106986747D01*
X114263160Y-106986747D02*
X114239351Y-106998652D01*
X114239351Y-106998652D02*
X114156017Y-106998652D01*
X114513160Y-106962938D02*
X114513160Y-107129604D01*
X114453636Y-106867700D02*
X114394113Y-107046271D01*
X114394113Y-107046271D02*
X114548874Y-107046271D01*
X114584589Y-107153414D02*
X114775065Y-107153414D01*
X114834588Y-107129604D02*
X114834588Y-106879604D01*
X114834588Y-106879604D02*
X114894112Y-106879604D01*
X114894112Y-106879604D02*
X114929826Y-106891509D01*
X114929826Y-106891509D02*
X114953636Y-106915319D01*
X114953636Y-106915319D02*
X114965541Y-106939128D01*
X114965541Y-106939128D02*
X114977445Y-106986747D01*
X114977445Y-106986747D02*
X114977445Y-107022461D01*
X114977445Y-107022461D02*
X114965541Y-107070080D01*
X114965541Y-107070080D02*
X114953636Y-107093890D01*
X114953636Y-107093890D02*
X114929826Y-107117700D01*
X114929826Y-107117700D02*
X114894112Y-107129604D01*
X114894112Y-107129604D02*
X114834588Y-107129604D01*
X115084588Y-107034366D02*
X115275065Y-107034366D01*
X115179826Y-107129604D02*
X115179826Y-106939128D01*
D10*
X109816931Y-104530585D02*
X109781217Y-104566300D01*
X109781217Y-104566300D02*
X109674074Y-104602014D01*
X109674074Y-104602014D02*
X109602646Y-104602014D01*
X109602646Y-104602014D02*
X109495503Y-104566300D01*
X109495503Y-104566300D02*
X109424074Y-104494871D01*
X109424074Y-104494871D02*
X109388360Y-104423442D01*
X109388360Y-104423442D02*
X109352646Y-104280585D01*
X109352646Y-104280585D02*
X109352646Y-104173442D01*
X109352646Y-104173442D02*
X109388360Y-104030585D01*
X109388360Y-104030585D02*
X109424074Y-103959157D01*
X109424074Y-103959157D02*
X109495503Y-103887728D01*
X109495503Y-103887728D02*
X109602646Y-103852014D01*
X109602646Y-103852014D02*
X109674074Y-103852014D01*
X109674074Y-103852014D02*
X109781217Y-103887728D01*
X109781217Y-103887728D02*
X109816931Y-103923442D01*
X110138360Y-104602014D02*
X110138360Y-103852014D01*
X110138360Y-103852014D02*
X110566931Y-104602014D01*
X110566931Y-104602014D02*
X110566931Y-103852014D01*
X109351373Y-108482067D02*
X109351373Y-107732067D01*
X109351373Y-107732067D02*
X109529944Y-107732067D01*
X109529944Y-107732067D02*
X109637087Y-107767781D01*
X109637087Y-107767781D02*
X109708516Y-107839210D01*
X109708516Y-107839210D02*
X109744230Y-107910638D01*
X109744230Y-107910638D02*
X109779944Y-108053495D01*
X109779944Y-108053495D02*
X109779944Y-108160638D01*
X109779944Y-108160638D02*
X109744230Y-108303495D01*
X109744230Y-108303495D02*
X109708516Y-108374924D01*
X109708516Y-108374924D02*
X109637087Y-108446353D01*
X109637087Y-108446353D02*
X109529944Y-108482067D01*
X109529944Y-108482067D02*
X109351373Y-108482067D01*
X110101373Y-108482067D02*
X110101373Y-107732067D01*
X110101373Y-107732067D02*
X110387087Y-107732067D01*
X110387087Y-107732067D02*
X110458516Y-107767781D01*
X110458516Y-107767781D02*
X110494230Y-107803495D01*
X110494230Y-107803495D02*
X110529944Y-107874924D01*
X110529944Y-107874924D02*
X110529944Y-107982067D01*
X110529944Y-107982067D02*
X110494230Y-108053495D01*
X110494230Y-108053495D02*
X110458516Y-108089210D01*
X110458516Y-108089210D02*
X110387087Y-108124924D01*
X110387087Y-108124924D02*
X110101373Y-108124924D01*
X110815659Y-107803495D02*
X110851373Y-107767781D01*
X110851373Y-107767781D02*
X110922802Y-107732067D01*
X110922802Y-107732067D02*
X111101373Y-107732067D01*
X111101373Y-107732067D02*
X111172802Y-107767781D01*
X111172802Y-107767781D02*
X111208516Y-107803495D01*
X111208516Y-107803495D02*
X111244230Y-107874924D01*
X111244230Y-107874924D02*
X111244230Y-107946353D01*
X111244230Y-107946353D02*
X111208516Y-108053495D01*
X111208516Y-108053495D02*
X110779944Y-108482067D01*
X110779944Y-108482067D02*
X111244230Y-108482067D01*
D11*
X114701370Y-90889509D02*
X114677560Y-90877604D01*
X114677560Y-90877604D02*
X114641846Y-90877604D01*
X114641846Y-90877604D02*
X114606132Y-90889509D01*
X114606132Y-90889509D02*
X114582322Y-90913319D01*
X114582322Y-90913319D02*
X114570417Y-90937128D01*
X114570417Y-90937128D02*
X114558513Y-90984747D01*
X114558513Y-90984747D02*
X114558513Y-91020461D01*
X114558513Y-91020461D02*
X114570417Y-91068080D01*
X114570417Y-91068080D02*
X114582322Y-91091890D01*
X114582322Y-91091890D02*
X114606132Y-91115700D01*
X114606132Y-91115700D02*
X114641846Y-91127604D01*
X114641846Y-91127604D02*
X114665655Y-91127604D01*
X114665655Y-91127604D02*
X114701370Y-91115700D01*
X114701370Y-91115700D02*
X114713274Y-91103795D01*
X114713274Y-91103795D02*
X114713274Y-91020461D01*
X114713274Y-91020461D02*
X114665655Y-91020461D01*
X114820417Y-91127604D02*
X114820417Y-90877604D01*
X114820417Y-90877604D02*
X114963274Y-91127604D01*
X114963274Y-91127604D02*
X114963274Y-90877604D01*
X115082322Y-91127604D02*
X115082322Y-90877604D01*
X115082322Y-90877604D02*
X115141846Y-90877604D01*
X115141846Y-90877604D02*
X115177560Y-90889509D01*
X115177560Y-90889509D02*
X115201370Y-90913319D01*
X115201370Y-90913319D02*
X115213275Y-90937128D01*
X115213275Y-90937128D02*
X115225179Y-90984747D01*
X115225179Y-90984747D02*
X115225179Y-91020461D01*
X115225179Y-91020461D02*
X115213275Y-91068080D01*
X115213275Y-91068080D02*
X115201370Y-91091890D01*
X115201370Y-91091890D02*
X115177560Y-91115700D01*
X115177560Y-91115700D02*
X115141846Y-91127604D01*
X115141846Y-91127604D02*
X115082322Y-91127604D01*
X113544874Y-92729395D02*
X113532970Y-92741300D01*
X113532970Y-92741300D02*
X113497255Y-92753204D01*
X113497255Y-92753204D02*
X113473446Y-92753204D01*
X113473446Y-92753204D02*
X113437732Y-92741300D01*
X113437732Y-92741300D02*
X113413922Y-92717490D01*
X113413922Y-92717490D02*
X113402017Y-92693680D01*
X113402017Y-92693680D02*
X113390113Y-92646061D01*
X113390113Y-92646061D02*
X113390113Y-92610347D01*
X113390113Y-92610347D02*
X113402017Y-92562728D01*
X113402017Y-92562728D02*
X113413922Y-92538919D01*
X113413922Y-92538919D02*
X113437732Y-92515109D01*
X113437732Y-92515109D02*
X113473446Y-92503204D01*
X113473446Y-92503204D02*
X113497255Y-92503204D01*
X113497255Y-92503204D02*
X113532970Y-92515109D01*
X113532970Y-92515109D02*
X113544874Y-92527014D01*
X113640113Y-92681776D02*
X113759160Y-92681776D01*
X113616303Y-92753204D02*
X113699636Y-92503204D01*
X113699636Y-92503204D02*
X113782970Y-92753204D01*
X113866303Y-92753204D02*
X113866303Y-92503204D01*
X113866303Y-92503204D02*
X113949637Y-92681776D01*
X113949637Y-92681776D02*
X114032970Y-92503204D01*
X114032970Y-92503204D02*
X114032970Y-92753204D01*
X114282970Y-92753204D02*
X114140113Y-92753204D01*
X114211541Y-92753204D02*
X114211541Y-92503204D01*
X114211541Y-92503204D02*
X114187732Y-92538919D01*
X114187732Y-92538919D02*
X114163922Y-92562728D01*
X114163922Y-92562728D02*
X114140113Y-92574633D01*
X114330589Y-92777014D02*
X114521065Y-92777014D01*
X114580588Y-92753204D02*
X114580588Y-92503204D01*
X114580588Y-92503204D02*
X114640112Y-92503204D01*
X114640112Y-92503204D02*
X114675826Y-92515109D01*
X114675826Y-92515109D02*
X114699636Y-92538919D01*
X114699636Y-92538919D02*
X114711541Y-92562728D01*
X114711541Y-92562728D02*
X114723445Y-92610347D01*
X114723445Y-92610347D02*
X114723445Y-92646061D01*
X114723445Y-92646061D02*
X114711541Y-92693680D01*
X114711541Y-92693680D02*
X114699636Y-92717490D01*
X114699636Y-92717490D02*
X114675826Y-92741300D01*
X114675826Y-92741300D02*
X114640112Y-92753204D01*
X114640112Y-92753204D02*
X114580588Y-92753204D01*
X114830588Y-92753204D02*
X114830588Y-92503204D01*
X114830588Y-92503204D02*
X114925826Y-92503204D01*
X114925826Y-92503204D02*
X114949636Y-92515109D01*
X114949636Y-92515109D02*
X114961541Y-92527014D01*
X114961541Y-92527014D02*
X114973445Y-92550823D01*
X114973445Y-92550823D02*
X114973445Y-92586538D01*
X114973445Y-92586538D02*
X114961541Y-92610347D01*
X114961541Y-92610347D02*
X114949636Y-92622252D01*
X114949636Y-92622252D02*
X114925826Y-92634157D01*
X114925826Y-92634157D02*
X114830588Y-92634157D01*
X115211541Y-92753204D02*
X115068684Y-92753204D01*
X115140112Y-92753204D02*
X115140112Y-92503204D01*
X115140112Y-92503204D02*
X115116303Y-92538919D01*
X115116303Y-92538919D02*
X115092493Y-92562728D01*
X115092493Y-92562728D02*
X115068684Y-92574633D01*
D10*
X109388360Y-118318014D02*
X109388360Y-117568014D01*
X109388360Y-117568014D02*
X109566931Y-117568014D01*
X109566931Y-117568014D02*
X109674074Y-117603728D01*
X109674074Y-117603728D02*
X109745503Y-117675157D01*
X109745503Y-117675157D02*
X109781217Y-117746585D01*
X109781217Y-117746585D02*
X109816931Y-117889442D01*
X109816931Y-117889442D02*
X109816931Y-117996585D01*
X109816931Y-117996585D02*
X109781217Y-118139442D01*
X109781217Y-118139442D02*
X109745503Y-118210871D01*
X109745503Y-118210871D02*
X109674074Y-118282300D01*
X109674074Y-118282300D02*
X109566931Y-118318014D01*
X109566931Y-118318014D02*
X109388360Y-118318014D01*
X110138360Y-118032300D02*
X110709789Y-118032300D01*
X110424074Y-118318014D02*
X110424074Y-117746585D01*
D11*
X113605217Y-109318004D02*
X113605217Y-109520385D01*
X113605217Y-109520385D02*
X113617122Y-109544195D01*
X113617122Y-109544195D02*
X113629027Y-109556100D01*
X113629027Y-109556100D02*
X113652836Y-109568004D01*
X113652836Y-109568004D02*
X113700455Y-109568004D01*
X113700455Y-109568004D02*
X113724265Y-109556100D01*
X113724265Y-109556100D02*
X113736170Y-109544195D01*
X113736170Y-109544195D02*
X113748074Y-109520385D01*
X113748074Y-109520385D02*
X113748074Y-109318004D01*
X113855218Y-109556100D02*
X113890932Y-109568004D01*
X113890932Y-109568004D02*
X113950456Y-109568004D01*
X113950456Y-109568004D02*
X113974265Y-109556100D01*
X113974265Y-109556100D02*
X113986170Y-109544195D01*
X113986170Y-109544195D02*
X113998075Y-109520385D01*
X113998075Y-109520385D02*
X113998075Y-109496576D01*
X113998075Y-109496576D02*
X113986170Y-109472766D01*
X113986170Y-109472766D02*
X113974265Y-109460861D01*
X113974265Y-109460861D02*
X113950456Y-109448957D01*
X113950456Y-109448957D02*
X113902837Y-109437052D01*
X113902837Y-109437052D02*
X113879027Y-109425147D01*
X113879027Y-109425147D02*
X113867122Y-109413242D01*
X113867122Y-109413242D02*
X113855218Y-109389433D01*
X113855218Y-109389433D02*
X113855218Y-109365623D01*
X113855218Y-109365623D02*
X113867122Y-109341814D01*
X113867122Y-109341814D02*
X113879027Y-109329909D01*
X113879027Y-109329909D02*
X113902837Y-109318004D01*
X113902837Y-109318004D02*
X113962360Y-109318004D01*
X113962360Y-109318004D02*
X113998075Y-109329909D01*
X114188551Y-109437052D02*
X114224265Y-109448957D01*
X114224265Y-109448957D02*
X114236170Y-109460861D01*
X114236170Y-109460861D02*
X114248074Y-109484671D01*
X114248074Y-109484671D02*
X114248074Y-109520385D01*
X114248074Y-109520385D02*
X114236170Y-109544195D01*
X114236170Y-109544195D02*
X114224265Y-109556100D01*
X114224265Y-109556100D02*
X114200455Y-109568004D01*
X114200455Y-109568004D02*
X114105217Y-109568004D01*
X114105217Y-109568004D02*
X114105217Y-109318004D01*
X114105217Y-109318004D02*
X114188551Y-109318004D01*
X114188551Y-109318004D02*
X114212360Y-109329909D01*
X114212360Y-109329909D02*
X114224265Y-109341814D01*
X114224265Y-109341814D02*
X114236170Y-109365623D01*
X114236170Y-109365623D02*
X114236170Y-109389433D01*
X114236170Y-109389433D02*
X114224265Y-109413242D01*
X114224265Y-109413242D02*
X114212360Y-109425147D01*
X114212360Y-109425147D02*
X114188551Y-109437052D01*
X114188551Y-109437052D02*
X114105217Y-109437052D01*
X114331408Y-109318004D02*
X114486170Y-109318004D01*
X114486170Y-109318004D02*
X114402836Y-109413242D01*
X114402836Y-109413242D02*
X114438551Y-109413242D01*
X114438551Y-109413242D02*
X114462360Y-109425147D01*
X114462360Y-109425147D02*
X114474265Y-109437052D01*
X114474265Y-109437052D02*
X114486170Y-109460861D01*
X114486170Y-109460861D02*
X114486170Y-109520385D01*
X114486170Y-109520385D02*
X114474265Y-109544195D01*
X114474265Y-109544195D02*
X114462360Y-109556100D01*
X114462360Y-109556100D02*
X114438551Y-109568004D01*
X114438551Y-109568004D02*
X114367122Y-109568004D01*
X114367122Y-109568004D02*
X114343313Y-109556100D01*
X114343313Y-109556100D02*
X114331408Y-109544195D01*
X114533789Y-109591814D02*
X114724265Y-109591814D01*
X114783788Y-109568004D02*
X114783788Y-109318004D01*
X114783788Y-109318004D02*
X114843312Y-109318004D01*
X114843312Y-109318004D02*
X114879026Y-109329909D01*
X114879026Y-109329909D02*
X114902836Y-109353719D01*
X114902836Y-109353719D02*
X114914741Y-109377528D01*
X114914741Y-109377528D02*
X114926645Y-109425147D01*
X114926645Y-109425147D02*
X114926645Y-109460861D01*
X114926645Y-109460861D02*
X114914741Y-109508480D01*
X114914741Y-109508480D02*
X114902836Y-109532290D01*
X114902836Y-109532290D02*
X114879026Y-109556100D01*
X114879026Y-109556100D02*
X114843312Y-109568004D01*
X114843312Y-109568004D02*
X114783788Y-109568004D01*
X115033788Y-109472766D02*
X115224265Y-109472766D01*
X115129026Y-109568004D02*
X115129026Y-109377528D01*
X114316417Y-102208366D02*
X114506894Y-102208366D01*
X114411655Y-102303604D02*
X114411655Y-102113128D01*
X114602132Y-102053604D02*
X114756894Y-102053604D01*
X114756894Y-102053604D02*
X114673560Y-102148842D01*
X114673560Y-102148842D02*
X114709275Y-102148842D01*
X114709275Y-102148842D02*
X114733084Y-102160747D01*
X114733084Y-102160747D02*
X114744989Y-102172652D01*
X114744989Y-102172652D02*
X114756894Y-102196461D01*
X114756894Y-102196461D02*
X114756894Y-102255985D01*
X114756894Y-102255985D02*
X114744989Y-102279795D01*
X114744989Y-102279795D02*
X114733084Y-102291700D01*
X114733084Y-102291700D02*
X114709275Y-102303604D01*
X114709275Y-102303604D02*
X114637846Y-102303604D01*
X114637846Y-102303604D02*
X114614037Y-102291700D01*
X114614037Y-102291700D02*
X114602132Y-102279795D01*
X114840227Y-102136938D02*
X114899751Y-102303604D01*
X114899751Y-102303604D02*
X114959274Y-102136938D01*
X115030703Y-102053604D02*
X115185465Y-102053604D01*
X115185465Y-102053604D02*
X115102131Y-102148842D01*
X115102131Y-102148842D02*
X115137846Y-102148842D01*
X115137846Y-102148842D02*
X115161655Y-102160747D01*
X115161655Y-102160747D02*
X115173560Y-102172652D01*
X115173560Y-102172652D02*
X115185465Y-102196461D01*
X115185465Y-102196461D02*
X115185465Y-102255985D01*
X115185465Y-102255985D02*
X115173560Y-102279795D01*
X115173560Y-102279795D02*
X115161655Y-102291700D01*
X115161655Y-102291700D02*
X115137846Y-102303604D01*
X115137846Y-102303604D02*
X115066417Y-102303604D01*
X115066417Y-102303604D02*
X115042608Y-102291700D01*
X115042608Y-102291700D02*
X115030703Y-102279795D01*
D10*
X109316931Y-87596014D02*
X109781217Y-87596014D01*
X109781217Y-87596014D02*
X109531217Y-87881728D01*
X109531217Y-87881728D02*
X109638360Y-87881728D01*
X109638360Y-87881728D02*
X109709789Y-87917442D01*
X109709789Y-87917442D02*
X109745503Y-87953157D01*
X109745503Y-87953157D02*
X109781217Y-88024585D01*
X109781217Y-88024585D02*
X109781217Y-88203157D01*
X109781217Y-88203157D02*
X109745503Y-88274585D01*
X109745503Y-88274585D02*
X109709789Y-88310300D01*
X109709789Y-88310300D02*
X109638360Y-88346014D01*
X109638360Y-88346014D02*
X109424074Y-88346014D01*
X109424074Y-88346014D02*
X109352646Y-88310300D01*
X109352646Y-88310300D02*
X109316931Y-88274585D01*
X110459789Y-87596014D02*
X110102646Y-87596014D01*
X110102646Y-87596014D02*
X110066932Y-87953157D01*
X110066932Y-87953157D02*
X110102646Y-87917442D01*
X110102646Y-87917442D02*
X110174075Y-87881728D01*
X110174075Y-87881728D02*
X110352646Y-87881728D01*
X110352646Y-87881728D02*
X110424075Y-87917442D01*
X110424075Y-87917442D02*
X110459789Y-87953157D01*
X110459789Y-87953157D02*
X110495503Y-88024585D01*
X110495503Y-88024585D02*
X110495503Y-88203157D01*
X110495503Y-88203157D02*
X110459789Y-88274585D01*
X110459789Y-88274585D02*
X110424075Y-88310300D01*
X110424075Y-88310300D02*
X110352646Y-88346014D01*
X110352646Y-88346014D02*
X110174075Y-88346014D01*
X110174075Y-88346014D02*
X110102646Y-88310300D01*
X110102646Y-88310300D02*
X110066932Y-88274585D01*
X109388360Y-100919014D02*
X109388360Y-100169014D01*
X109388360Y-100169014D02*
X109566931Y-100169014D01*
X109566931Y-100169014D02*
X109674074Y-100204728D01*
X109674074Y-100204728D02*
X109745503Y-100276157D01*
X109745503Y-100276157D02*
X109781217Y-100347585D01*
X109781217Y-100347585D02*
X109816931Y-100490442D01*
X109816931Y-100490442D02*
X109816931Y-100597585D01*
X109816931Y-100597585D02*
X109781217Y-100740442D01*
X109781217Y-100740442D02*
X109745503Y-100811871D01*
X109745503Y-100811871D02*
X109674074Y-100883300D01*
X109674074Y-100883300D02*
X109566931Y-100919014D01*
X109566931Y-100919014D02*
X109388360Y-100919014D01*
X110138360Y-100919014D02*
X110138360Y-100169014D01*
X110138360Y-100169014D02*
X110424074Y-100169014D01*
X110424074Y-100169014D02*
X110495503Y-100204728D01*
X110495503Y-100204728D02*
X110531217Y-100240442D01*
X110531217Y-100240442D02*
X110566931Y-100311871D01*
X110566931Y-100311871D02*
X110566931Y-100419014D01*
X110566931Y-100419014D02*
X110531217Y-100490442D01*
X110531217Y-100490442D02*
X110495503Y-100526157D01*
X110495503Y-100526157D02*
X110424074Y-100561871D01*
X110424074Y-100561871D02*
X110138360Y-100561871D01*
X111031217Y-100169014D02*
X111102646Y-100169014D01*
X111102646Y-100169014D02*
X111174074Y-100204728D01*
X111174074Y-100204728D02*
X111209789Y-100240442D01*
X111209789Y-100240442D02*
X111245503Y-100311871D01*
X111245503Y-100311871D02*
X111281217Y-100454728D01*
X111281217Y-100454728D02*
X111281217Y-100633300D01*
X111281217Y-100633300D02*
X111245503Y-100776157D01*
X111245503Y-100776157D02*
X111209789Y-100847585D01*
X111209789Y-100847585D02*
X111174074Y-100883300D01*
X111174074Y-100883300D02*
X111102646Y-100919014D01*
X111102646Y-100919014D02*
X111031217Y-100919014D01*
X111031217Y-100919014D02*
X110959789Y-100883300D01*
X110959789Y-100883300D02*
X110924074Y-100847585D01*
X110924074Y-100847585D02*
X110888360Y-100776157D01*
X110888360Y-100776157D02*
X110852646Y-100633300D01*
X110852646Y-100633300D02*
X110852646Y-100454728D01*
X110852646Y-100454728D02*
X110888360Y-100311871D01*
X110888360Y-100311871D02*
X110924074Y-100240442D01*
X110924074Y-100240442D02*
X110959789Y-100204728D01*
X110959789Y-100204728D02*
X111031217Y-100169014D01*
D11*
X114701370Y-88501909D02*
X114677560Y-88490004D01*
X114677560Y-88490004D02*
X114641846Y-88490004D01*
X114641846Y-88490004D02*
X114606132Y-88501909D01*
X114606132Y-88501909D02*
X114582322Y-88525719D01*
X114582322Y-88525719D02*
X114570417Y-88549528D01*
X114570417Y-88549528D02*
X114558513Y-88597147D01*
X114558513Y-88597147D02*
X114558513Y-88632861D01*
X114558513Y-88632861D02*
X114570417Y-88680480D01*
X114570417Y-88680480D02*
X114582322Y-88704290D01*
X114582322Y-88704290D02*
X114606132Y-88728100D01*
X114606132Y-88728100D02*
X114641846Y-88740004D01*
X114641846Y-88740004D02*
X114665655Y-88740004D01*
X114665655Y-88740004D02*
X114701370Y-88728100D01*
X114701370Y-88728100D02*
X114713274Y-88716195D01*
X114713274Y-88716195D02*
X114713274Y-88632861D01*
X114713274Y-88632861D02*
X114665655Y-88632861D01*
X114820417Y-88740004D02*
X114820417Y-88490004D01*
X114820417Y-88490004D02*
X114963274Y-88740004D01*
X114963274Y-88740004D02*
X114963274Y-88490004D01*
X115082322Y-88740004D02*
X115082322Y-88490004D01*
X115082322Y-88490004D02*
X115141846Y-88490004D01*
X115141846Y-88490004D02*
X115177560Y-88501909D01*
X115177560Y-88501909D02*
X115201370Y-88525719D01*
X115201370Y-88525719D02*
X115213275Y-88549528D01*
X115213275Y-88549528D02*
X115225179Y-88597147D01*
X115225179Y-88597147D02*
X115225179Y-88632861D01*
X115225179Y-88632861D02*
X115213275Y-88680480D01*
X115213275Y-88680480D02*
X115201370Y-88704290D01*
X115201370Y-88704290D02*
X115177560Y-88728100D01*
X115177560Y-88728100D02*
X115141846Y-88740004D01*
X115141846Y-88740004D02*
X115082322Y-88740004D01*
X113748074Y-94354995D02*
X113736170Y-94366900D01*
X113736170Y-94366900D02*
X113700455Y-94378804D01*
X113700455Y-94378804D02*
X113676646Y-94378804D01*
X113676646Y-94378804D02*
X113640932Y-94366900D01*
X113640932Y-94366900D02*
X113617122Y-94343090D01*
X113617122Y-94343090D02*
X113605217Y-94319280D01*
X113605217Y-94319280D02*
X113593313Y-94271661D01*
X113593313Y-94271661D02*
X113593313Y-94235947D01*
X113593313Y-94235947D02*
X113605217Y-94188328D01*
X113605217Y-94188328D02*
X113617122Y-94164519D01*
X113617122Y-94164519D02*
X113640932Y-94140709D01*
X113640932Y-94140709D02*
X113676646Y-94128804D01*
X113676646Y-94128804D02*
X113700455Y-94128804D01*
X113700455Y-94128804D02*
X113736170Y-94140709D01*
X113736170Y-94140709D02*
X113748074Y-94152614D01*
X113843313Y-94307376D02*
X113962360Y-94307376D01*
X113819503Y-94378804D02*
X113902836Y-94128804D01*
X113902836Y-94128804D02*
X113986170Y-94378804D01*
X114069503Y-94378804D02*
X114069503Y-94128804D01*
X114069503Y-94128804D02*
X114152837Y-94307376D01*
X114152837Y-94307376D02*
X114236170Y-94128804D01*
X114236170Y-94128804D02*
X114236170Y-94378804D01*
X114486170Y-94378804D02*
X114343313Y-94378804D01*
X114414741Y-94378804D02*
X114414741Y-94128804D01*
X114414741Y-94128804D02*
X114390932Y-94164519D01*
X114390932Y-94164519D02*
X114367122Y-94188328D01*
X114367122Y-94188328D02*
X114343313Y-94200233D01*
X114533789Y-94402614D02*
X114724265Y-94402614D01*
X114926645Y-94354995D02*
X114914741Y-94366900D01*
X114914741Y-94366900D02*
X114879026Y-94378804D01*
X114879026Y-94378804D02*
X114855217Y-94378804D01*
X114855217Y-94378804D02*
X114819503Y-94366900D01*
X114819503Y-94366900D02*
X114795693Y-94343090D01*
X114795693Y-94343090D02*
X114783788Y-94319280D01*
X114783788Y-94319280D02*
X114771884Y-94271661D01*
X114771884Y-94271661D02*
X114771884Y-94235947D01*
X114771884Y-94235947D02*
X114783788Y-94188328D01*
X114783788Y-94188328D02*
X114795693Y-94164519D01*
X114795693Y-94164519D02*
X114819503Y-94140709D01*
X114819503Y-94140709D02*
X114855217Y-94128804D01*
X114855217Y-94128804D02*
X114879026Y-94128804D01*
X114879026Y-94128804D02*
X114914741Y-94140709D01*
X114914741Y-94140709D02*
X114926645Y-94152614D01*
X115033788Y-94378804D02*
X115033788Y-94128804D01*
X115033788Y-94128804D02*
X115176645Y-94378804D01*
X115176645Y-94378804D02*
X115176645Y-94128804D01*
D12*
X82389169Y-119071110D02*
X82389169Y-119309205D01*
X82389169Y-119309205D02*
X82627264Y-119333014D01*
X82627264Y-119333014D02*
X82603455Y-119309205D01*
X82603455Y-119309205D02*
X82579645Y-119261586D01*
X82579645Y-119261586D02*
X82579645Y-119142538D01*
X82579645Y-119142538D02*
X82603455Y-119094919D01*
X82603455Y-119094919D02*
X82627264Y-119071110D01*
X82627264Y-119071110D02*
X82674883Y-119047300D01*
X82674883Y-119047300D02*
X82793931Y-119047300D01*
X82793931Y-119047300D02*
X82841550Y-119071110D01*
X82841550Y-119071110D02*
X82865360Y-119094919D01*
X82865360Y-119094919D02*
X82889169Y-119142538D01*
X82889169Y-119142538D02*
X82889169Y-119261586D01*
X82889169Y-119261586D02*
X82865360Y-119309205D01*
X82865360Y-119309205D02*
X82841550Y-119333014D01*
D10*
X109388360Y-107142014D02*
X109388360Y-106392014D01*
X109388360Y-106392014D02*
X109566931Y-106392014D01*
X109566931Y-106392014D02*
X109674074Y-106427728D01*
X109674074Y-106427728D02*
X109745503Y-106499157D01*
X109745503Y-106499157D02*
X109781217Y-106570585D01*
X109781217Y-106570585D02*
X109816931Y-106713442D01*
X109816931Y-106713442D02*
X109816931Y-106820585D01*
X109816931Y-106820585D02*
X109781217Y-106963442D01*
X109781217Y-106963442D02*
X109745503Y-107034871D01*
X109745503Y-107034871D02*
X109674074Y-107106300D01*
X109674074Y-107106300D02*
X109566931Y-107142014D01*
X109566931Y-107142014D02*
X109388360Y-107142014D01*
X110138360Y-107142014D02*
X110138360Y-106392014D01*
X110138360Y-106392014D02*
X110566931Y-107142014D01*
X110566931Y-107142014D02*
X110566931Y-106392014D01*
X110888360Y-106463442D02*
X110924074Y-106427728D01*
X110924074Y-106427728D02*
X110995503Y-106392014D01*
X110995503Y-106392014D02*
X111174074Y-106392014D01*
X111174074Y-106392014D02*
X111245503Y-106427728D01*
X111245503Y-106427728D02*
X111281217Y-106463442D01*
X111281217Y-106463442D02*
X111316931Y-106534871D01*
X111316931Y-106534871D02*
X111316931Y-106606300D01*
X111316931Y-106606300D02*
X111281217Y-106713442D01*
X111281217Y-106713442D02*
X110852645Y-107142014D01*
X110852645Y-107142014D02*
X111316931Y-107142014D01*
D11*
X114701370Y-93277109D02*
X114677560Y-93265204D01*
X114677560Y-93265204D02*
X114641846Y-93265204D01*
X114641846Y-93265204D02*
X114606132Y-93277109D01*
X114606132Y-93277109D02*
X114582322Y-93300919D01*
X114582322Y-93300919D02*
X114570417Y-93324728D01*
X114570417Y-93324728D02*
X114558513Y-93372347D01*
X114558513Y-93372347D02*
X114558513Y-93408061D01*
X114558513Y-93408061D02*
X114570417Y-93455680D01*
X114570417Y-93455680D02*
X114582322Y-93479490D01*
X114582322Y-93479490D02*
X114606132Y-93503300D01*
X114606132Y-93503300D02*
X114641846Y-93515204D01*
X114641846Y-93515204D02*
X114665655Y-93515204D01*
X114665655Y-93515204D02*
X114701370Y-93503300D01*
X114701370Y-93503300D02*
X114713274Y-93491395D01*
X114713274Y-93491395D02*
X114713274Y-93408061D01*
X114713274Y-93408061D02*
X114665655Y-93408061D01*
X114820417Y-93515204D02*
X114820417Y-93265204D01*
X114820417Y-93265204D02*
X114963274Y-93515204D01*
X114963274Y-93515204D02*
X114963274Y-93265204D01*
X115082322Y-93515204D02*
X115082322Y-93265204D01*
X115082322Y-93265204D02*
X115141846Y-93265204D01*
X115141846Y-93265204D02*
X115177560Y-93277109D01*
X115177560Y-93277109D02*
X115201370Y-93300919D01*
X115201370Y-93300919D02*
X115213275Y-93324728D01*
X115213275Y-93324728D02*
X115225179Y-93372347D01*
X115225179Y-93372347D02*
X115225179Y-93408061D01*
X115225179Y-93408061D02*
X115213275Y-93455680D01*
X115213275Y-93455680D02*
X115201370Y-93479490D01*
X115201370Y-93479490D02*
X115177560Y-93503300D01*
X115177560Y-93503300D02*
X115141846Y-93515204D01*
X115141846Y-93515204D02*
X115082322Y-93515204D01*
D12*
X82411388Y-100181414D02*
X82387579Y-100157605D01*
X82387579Y-100157605D02*
X82363769Y-100109986D01*
X82363769Y-100109986D02*
X82363769Y-99990938D01*
X82363769Y-99990938D02*
X82387579Y-99943319D01*
X82387579Y-99943319D02*
X82411388Y-99919510D01*
X82411388Y-99919510D02*
X82459007Y-99895700D01*
X82459007Y-99895700D02*
X82506626Y-99895700D01*
X82506626Y-99895700D02*
X82578055Y-99919510D01*
X82578055Y-99919510D02*
X82863769Y-100205224D01*
X82863769Y-100205224D02*
X82863769Y-99895700D01*
X82363769Y-99586177D02*
X82363769Y-99538558D01*
X82363769Y-99538558D02*
X82387579Y-99490939D01*
X82387579Y-99490939D02*
X82411388Y-99467129D01*
X82411388Y-99467129D02*
X82459007Y-99443320D01*
X82459007Y-99443320D02*
X82554245Y-99419510D01*
X82554245Y-99419510D02*
X82673293Y-99419510D01*
X82673293Y-99419510D02*
X82768531Y-99443320D01*
X82768531Y-99443320D02*
X82816150Y-99467129D01*
X82816150Y-99467129D02*
X82839960Y-99490939D01*
X82839960Y-99490939D02*
X82863769Y-99538558D01*
X82863769Y-99538558D02*
X82863769Y-99586177D01*
X82863769Y-99586177D02*
X82839960Y-99633796D01*
X82839960Y-99633796D02*
X82816150Y-99657605D01*
X82816150Y-99657605D02*
X82768531Y-99681415D01*
X82768531Y-99681415D02*
X82673293Y-99705224D01*
X82673293Y-99705224D02*
X82554245Y-99705224D01*
X82554245Y-99705224D02*
X82459007Y-99681415D01*
X82459007Y-99681415D02*
X82411388Y-99657605D01*
X82411388Y-99657605D02*
X82387579Y-99633796D01*
X82387579Y-99633796D02*
X82363769Y-99586177D01*
D11*
X114650570Y-107704309D02*
X114626760Y-107692404D01*
X114626760Y-107692404D02*
X114591046Y-107692404D01*
X114591046Y-107692404D02*
X114555332Y-107704309D01*
X114555332Y-107704309D02*
X114531522Y-107728119D01*
X114531522Y-107728119D02*
X114519617Y-107751928D01*
X114519617Y-107751928D02*
X114507713Y-107799547D01*
X114507713Y-107799547D02*
X114507713Y-107835261D01*
X114507713Y-107835261D02*
X114519617Y-107882880D01*
X114519617Y-107882880D02*
X114531522Y-107906690D01*
X114531522Y-107906690D02*
X114555332Y-107930500D01*
X114555332Y-107930500D02*
X114591046Y-107942404D01*
X114591046Y-107942404D02*
X114614855Y-107942404D01*
X114614855Y-107942404D02*
X114650570Y-107930500D01*
X114650570Y-107930500D02*
X114662474Y-107918595D01*
X114662474Y-107918595D02*
X114662474Y-107835261D01*
X114662474Y-107835261D02*
X114614855Y-107835261D01*
X114769617Y-107942404D02*
X114769617Y-107692404D01*
X114769617Y-107692404D02*
X114912474Y-107942404D01*
X114912474Y-107942404D02*
X114912474Y-107692404D01*
X115031522Y-107942404D02*
X115031522Y-107692404D01*
X115031522Y-107692404D02*
X115091046Y-107692404D01*
X115091046Y-107692404D02*
X115126760Y-107704309D01*
X115126760Y-107704309D02*
X115150570Y-107728119D01*
X115150570Y-107728119D02*
X115162475Y-107751928D01*
X115162475Y-107751928D02*
X115174379Y-107799547D01*
X115174379Y-107799547D02*
X115174379Y-107835261D01*
X115174379Y-107835261D02*
X115162475Y-107882880D01*
X115162475Y-107882880D02*
X115150570Y-107906690D01*
X115150570Y-107906690D02*
X115126760Y-107930500D01*
X115126760Y-107930500D02*
X115091046Y-107942404D01*
X115091046Y-107942404D02*
X115031522Y-107942404D01*
D10*
X109709789Y-81496014D02*
X109709789Y-81996014D01*
X109531217Y-81210300D02*
X109352646Y-81746014D01*
X109352646Y-81746014D02*
X109816931Y-81746014D01*
X110245503Y-81246014D02*
X110316932Y-81246014D01*
X110316932Y-81246014D02*
X110388360Y-81281728D01*
X110388360Y-81281728D02*
X110424075Y-81317442D01*
X110424075Y-81317442D02*
X110459789Y-81388871D01*
X110459789Y-81388871D02*
X110495503Y-81531728D01*
X110495503Y-81531728D02*
X110495503Y-81710300D01*
X110495503Y-81710300D02*
X110459789Y-81853157D01*
X110459789Y-81853157D02*
X110424075Y-81924585D01*
X110424075Y-81924585D02*
X110388360Y-81960300D01*
X110388360Y-81960300D02*
X110316932Y-81996014D01*
X110316932Y-81996014D02*
X110245503Y-81996014D01*
X110245503Y-81996014D02*
X110174075Y-81960300D01*
X110174075Y-81960300D02*
X110138360Y-81924585D01*
X110138360Y-81924585D02*
X110102646Y-81853157D01*
X110102646Y-81853157D02*
X110066932Y-81710300D01*
X110066932Y-81710300D02*
X110066932Y-81531728D01*
X110066932Y-81531728D02*
X110102646Y-81388871D01*
X110102646Y-81388871D02*
X110138360Y-81317442D01*
X110138360Y-81317442D02*
X110174075Y-81281728D01*
X110174075Y-81281728D02*
X110245503Y-81246014D01*
X109388360Y-102062014D02*
X109388360Y-101312014D01*
X109388360Y-101312014D02*
X109566931Y-101312014D01*
X109566931Y-101312014D02*
X109674074Y-101347728D01*
X109674074Y-101347728D02*
X109745503Y-101419157D01*
X109745503Y-101419157D02*
X109781217Y-101490585D01*
X109781217Y-101490585D02*
X109816931Y-101633442D01*
X109816931Y-101633442D02*
X109816931Y-101740585D01*
X109816931Y-101740585D02*
X109781217Y-101883442D01*
X109781217Y-101883442D02*
X109745503Y-101954871D01*
X109745503Y-101954871D02*
X109674074Y-102026300D01*
X109674074Y-102026300D02*
X109566931Y-102062014D01*
X109566931Y-102062014D02*
X109388360Y-102062014D01*
X110138360Y-102062014D02*
X110138360Y-101312014D01*
X110138360Y-101312014D02*
X110566931Y-102062014D01*
X110566931Y-102062014D02*
X110566931Y-101312014D01*
X111316931Y-102062014D02*
X110888360Y-102062014D01*
X111102645Y-102062014D02*
X111102645Y-101312014D01*
X111102645Y-101312014D02*
X111031217Y-101419157D01*
X111031217Y-101419157D02*
X110959788Y-101490585D01*
X110959788Y-101490585D02*
X110888360Y-101526300D01*
X109388360Y-99522014D02*
X109388360Y-98772014D01*
X109388360Y-98772014D02*
X109566931Y-98772014D01*
X109566931Y-98772014D02*
X109674074Y-98807728D01*
X109674074Y-98807728D02*
X109745503Y-98879157D01*
X109745503Y-98879157D02*
X109781217Y-98950585D01*
X109781217Y-98950585D02*
X109816931Y-99093442D01*
X109816931Y-99093442D02*
X109816931Y-99200585D01*
X109816931Y-99200585D02*
X109781217Y-99343442D01*
X109781217Y-99343442D02*
X109745503Y-99414871D01*
X109745503Y-99414871D02*
X109674074Y-99486300D01*
X109674074Y-99486300D02*
X109566931Y-99522014D01*
X109566931Y-99522014D02*
X109388360Y-99522014D01*
X110138360Y-99522014D02*
X110138360Y-98772014D01*
X110138360Y-98772014D02*
X110566931Y-99522014D01*
X110566931Y-99522014D02*
X110566931Y-98772014D01*
X111066931Y-98772014D02*
X111138360Y-98772014D01*
X111138360Y-98772014D02*
X111209788Y-98807728D01*
X111209788Y-98807728D02*
X111245503Y-98843442D01*
X111245503Y-98843442D02*
X111281217Y-98914871D01*
X111281217Y-98914871D02*
X111316931Y-99057728D01*
X111316931Y-99057728D02*
X111316931Y-99236300D01*
X111316931Y-99236300D02*
X111281217Y-99379157D01*
X111281217Y-99379157D02*
X111245503Y-99450585D01*
X111245503Y-99450585D02*
X111209788Y-99486300D01*
X111209788Y-99486300D02*
X111138360Y-99522014D01*
X111138360Y-99522014D02*
X111066931Y-99522014D01*
X111066931Y-99522014D02*
X110995503Y-99486300D01*
X110995503Y-99486300D02*
X110959788Y-99450585D01*
X110959788Y-99450585D02*
X110924074Y-99379157D01*
X110924074Y-99379157D02*
X110888360Y-99236300D01*
X110888360Y-99236300D02*
X110888360Y-99057728D01*
X110888360Y-99057728D02*
X110924074Y-98914871D01*
X110924074Y-98914871D02*
X110959788Y-98843442D01*
X110959788Y-98843442D02*
X110995503Y-98807728D01*
X110995503Y-98807728D02*
X111066931Y-98772014D01*
X109816931Y-105800585D02*
X109781217Y-105836300D01*
X109781217Y-105836300D02*
X109674074Y-105872014D01*
X109674074Y-105872014D02*
X109602646Y-105872014D01*
X109602646Y-105872014D02*
X109495503Y-105836300D01*
X109495503Y-105836300D02*
X109424074Y-105764871D01*
X109424074Y-105764871D02*
X109388360Y-105693442D01*
X109388360Y-105693442D02*
X109352646Y-105550585D01*
X109352646Y-105550585D02*
X109352646Y-105443442D01*
X109352646Y-105443442D02*
X109388360Y-105300585D01*
X109388360Y-105300585D02*
X109424074Y-105229157D01*
X109424074Y-105229157D02*
X109495503Y-105157728D01*
X109495503Y-105157728D02*
X109602646Y-105122014D01*
X109602646Y-105122014D02*
X109674074Y-105122014D01*
X109674074Y-105122014D02*
X109781217Y-105157728D01*
X109781217Y-105157728D02*
X109816931Y-105193442D01*
X110138360Y-105872014D02*
X110138360Y-105122014D01*
X110138360Y-105122014D02*
X110424074Y-105122014D01*
X110424074Y-105122014D02*
X110495503Y-105157728D01*
X110495503Y-105157728D02*
X110531217Y-105193442D01*
X110531217Y-105193442D02*
X110566931Y-105264871D01*
X110566931Y-105264871D02*
X110566931Y-105372014D01*
X110566931Y-105372014D02*
X110531217Y-105443442D01*
X110531217Y-105443442D02*
X110495503Y-105479157D01*
X110495503Y-105479157D02*
X110424074Y-105514871D01*
X110424074Y-105514871D02*
X110138360Y-105514871D01*
D11*
X114316417Y-101446366D02*
X114506894Y-101446366D01*
X114411655Y-101541604D02*
X114411655Y-101351128D01*
X114602132Y-101291604D02*
X114756894Y-101291604D01*
X114756894Y-101291604D02*
X114673560Y-101386842D01*
X114673560Y-101386842D02*
X114709275Y-101386842D01*
X114709275Y-101386842D02*
X114733084Y-101398747D01*
X114733084Y-101398747D02*
X114744989Y-101410652D01*
X114744989Y-101410652D02*
X114756894Y-101434461D01*
X114756894Y-101434461D02*
X114756894Y-101493985D01*
X114756894Y-101493985D02*
X114744989Y-101517795D01*
X114744989Y-101517795D02*
X114733084Y-101529700D01*
X114733084Y-101529700D02*
X114709275Y-101541604D01*
X114709275Y-101541604D02*
X114637846Y-101541604D01*
X114637846Y-101541604D02*
X114614037Y-101529700D01*
X114614037Y-101529700D02*
X114602132Y-101517795D01*
X114840227Y-101374938D02*
X114899751Y-101541604D01*
X114899751Y-101541604D02*
X114959274Y-101374938D01*
X115030703Y-101291604D02*
X115185465Y-101291604D01*
X115185465Y-101291604D02*
X115102131Y-101386842D01*
X115102131Y-101386842D02*
X115137846Y-101386842D01*
X115137846Y-101386842D02*
X115161655Y-101398747D01*
X115161655Y-101398747D02*
X115173560Y-101410652D01*
X115173560Y-101410652D02*
X115185465Y-101434461D01*
X115185465Y-101434461D02*
X115185465Y-101493985D01*
X115185465Y-101493985D02*
X115173560Y-101517795D01*
X115173560Y-101517795D02*
X115161655Y-101529700D01*
X115161655Y-101529700D02*
X115137846Y-101541604D01*
X115137846Y-101541604D02*
X115066417Y-101541604D01*
X115066417Y-101541604D02*
X115042608Y-101529700D01*
X115042608Y-101529700D02*
X115030703Y-101517795D01*
D13*
X94196123Y-127826619D02*
X93719933Y-127826619D01*
X93719933Y-127826619D02*
X93672314Y-128302809D01*
X93672314Y-128302809D02*
X93719933Y-128255190D01*
X93719933Y-128255190D02*
X93815171Y-128207571D01*
X93815171Y-128207571D02*
X94053266Y-128207571D01*
X94053266Y-128207571D02*
X94148504Y-128255190D01*
X94148504Y-128255190D02*
X94196123Y-128302809D01*
X94196123Y-128302809D02*
X94243742Y-128398047D01*
X94243742Y-128398047D02*
X94243742Y-128636142D01*
X94243742Y-128636142D02*
X94196123Y-128731380D01*
X94196123Y-128731380D02*
X94148504Y-128779000D01*
X94148504Y-128779000D02*
X94053266Y-128826619D01*
X94053266Y-128826619D02*
X93815171Y-128826619D01*
X93815171Y-128826619D02*
X93719933Y-128779000D01*
X93719933Y-128779000D02*
X93672314Y-128731380D01*
X94529457Y-127826619D02*
X94862790Y-128826619D01*
X94862790Y-128826619D02*
X95196123Y-127826619D01*
D10*
X109709789Y-80226014D02*
X109709789Y-80726014D01*
X109531217Y-79940300D02*
X109352646Y-80476014D01*
X109352646Y-80476014D02*
X109816931Y-80476014D01*
X110495503Y-80726014D02*
X110066932Y-80726014D01*
X110281217Y-80726014D02*
X110281217Y-79976014D01*
X110281217Y-79976014D02*
X110209789Y-80083157D01*
X110209789Y-80083157D02*
X110138360Y-80154585D01*
X110138360Y-80154585D02*
X110066932Y-80190300D01*
D12*
X82838369Y-124076500D02*
X82838369Y-124362214D01*
X82838369Y-124219357D02*
X82338369Y-124219357D01*
X82338369Y-124219357D02*
X82409798Y-124266976D01*
X82409798Y-124266976D02*
X82457417Y-124314595D01*
X82457417Y-124314595D02*
X82481226Y-124362214D01*
D11*
X114599770Y-110091909D02*
X114575960Y-110080004D01*
X114575960Y-110080004D02*
X114540246Y-110080004D01*
X114540246Y-110080004D02*
X114504532Y-110091909D01*
X114504532Y-110091909D02*
X114480722Y-110115719D01*
X114480722Y-110115719D02*
X114468817Y-110139528D01*
X114468817Y-110139528D02*
X114456913Y-110187147D01*
X114456913Y-110187147D02*
X114456913Y-110222861D01*
X114456913Y-110222861D02*
X114468817Y-110270480D01*
X114468817Y-110270480D02*
X114480722Y-110294290D01*
X114480722Y-110294290D02*
X114504532Y-110318100D01*
X114504532Y-110318100D02*
X114540246Y-110330004D01*
X114540246Y-110330004D02*
X114564055Y-110330004D01*
X114564055Y-110330004D02*
X114599770Y-110318100D01*
X114599770Y-110318100D02*
X114611674Y-110306195D01*
X114611674Y-110306195D02*
X114611674Y-110222861D01*
X114611674Y-110222861D02*
X114564055Y-110222861D01*
X114718817Y-110330004D02*
X114718817Y-110080004D01*
X114718817Y-110080004D02*
X114861674Y-110330004D01*
X114861674Y-110330004D02*
X114861674Y-110080004D01*
X114980722Y-110330004D02*
X114980722Y-110080004D01*
X114980722Y-110080004D02*
X115040246Y-110080004D01*
X115040246Y-110080004D02*
X115075960Y-110091909D01*
X115075960Y-110091909D02*
X115099770Y-110115719D01*
X115099770Y-110115719D02*
X115111675Y-110139528D01*
X115111675Y-110139528D02*
X115123579Y-110187147D01*
X115123579Y-110187147D02*
X115123579Y-110222861D01*
X115123579Y-110222861D02*
X115111675Y-110270480D01*
X115111675Y-110270480D02*
X115099770Y-110294290D01*
X115099770Y-110294290D02*
X115075960Y-110318100D01*
X115075960Y-110318100D02*
X115040246Y-110330004D01*
X115040246Y-110330004D02*
X114980722Y-110330004D01*
X113498240Y-96691982D02*
X113486336Y-96703887D01*
X113486336Y-96703887D02*
X113450621Y-96715791D01*
X113450621Y-96715791D02*
X113426812Y-96715791D01*
X113426812Y-96715791D02*
X113391098Y-96703887D01*
X113391098Y-96703887D02*
X113367288Y-96680077D01*
X113367288Y-96680077D02*
X113355383Y-96656267D01*
X113355383Y-96656267D02*
X113343479Y-96608648D01*
X113343479Y-96608648D02*
X113343479Y-96572934D01*
X113343479Y-96572934D02*
X113355383Y-96525315D01*
X113355383Y-96525315D02*
X113367288Y-96501506D01*
X113367288Y-96501506D02*
X113391098Y-96477696D01*
X113391098Y-96477696D02*
X113426812Y-96465791D01*
X113426812Y-96465791D02*
X113450621Y-96465791D01*
X113450621Y-96465791D02*
X113486336Y-96477696D01*
X113486336Y-96477696D02*
X113498240Y-96489601D01*
X113593479Y-96644363D02*
X113712526Y-96644363D01*
X113569669Y-96715791D02*
X113653002Y-96465791D01*
X113653002Y-96465791D02*
X113736336Y-96715791D01*
X113819669Y-96715791D02*
X113819669Y-96465791D01*
X113819669Y-96465791D02*
X113903003Y-96644363D01*
X113903003Y-96644363D02*
X113986336Y-96465791D01*
X113986336Y-96465791D02*
X113986336Y-96715791D01*
X114236336Y-96715791D02*
X114093479Y-96715791D01*
X114164907Y-96715791D02*
X114164907Y-96465791D01*
X114164907Y-96465791D02*
X114141098Y-96501506D01*
X114141098Y-96501506D02*
X114117288Y-96525315D01*
X114117288Y-96525315D02*
X114093479Y-96537220D01*
X114283955Y-96739601D02*
X114474431Y-96739601D01*
X114533954Y-96715791D02*
X114533954Y-96465791D01*
X114533954Y-96465791D02*
X114593478Y-96465791D01*
X114593478Y-96465791D02*
X114629192Y-96477696D01*
X114629192Y-96477696D02*
X114653002Y-96501506D01*
X114653002Y-96501506D02*
X114664907Y-96525315D01*
X114664907Y-96525315D02*
X114676811Y-96572934D01*
X114676811Y-96572934D02*
X114676811Y-96608648D01*
X114676811Y-96608648D02*
X114664907Y-96656267D01*
X114664907Y-96656267D02*
X114653002Y-96680077D01*
X114653002Y-96680077D02*
X114629192Y-96703887D01*
X114629192Y-96703887D02*
X114593478Y-96715791D01*
X114593478Y-96715791D02*
X114533954Y-96715791D01*
X114783954Y-96715791D02*
X114783954Y-96465791D01*
X114783954Y-96465791D02*
X114926811Y-96715791D01*
X114926811Y-96715791D02*
X114926811Y-96465791D01*
X115033955Y-96489601D02*
X115045859Y-96477696D01*
X115045859Y-96477696D02*
X115069669Y-96465791D01*
X115069669Y-96465791D02*
X115129193Y-96465791D01*
X115129193Y-96465791D02*
X115153002Y-96477696D01*
X115153002Y-96477696D02*
X115164907Y-96489601D01*
X115164907Y-96489601D02*
X115176812Y-96513410D01*
X115176812Y-96513410D02*
X115176812Y-96537220D01*
X115176812Y-96537220D02*
X115164907Y-96572934D01*
X115164907Y-96572934D02*
X115022050Y-96715791D01*
X115022050Y-96715791D02*
X115176812Y-96715791D01*
D10*
X109316931Y-82516014D02*
X109781217Y-82516014D01*
X109781217Y-82516014D02*
X109531217Y-82801728D01*
X109531217Y-82801728D02*
X109638360Y-82801728D01*
X109638360Y-82801728D02*
X109709789Y-82837442D01*
X109709789Y-82837442D02*
X109745503Y-82873157D01*
X109745503Y-82873157D02*
X109781217Y-82944585D01*
X109781217Y-82944585D02*
X109781217Y-83123157D01*
X109781217Y-83123157D02*
X109745503Y-83194585D01*
X109745503Y-83194585D02*
X109709789Y-83230300D01*
X109709789Y-83230300D02*
X109638360Y-83266014D01*
X109638360Y-83266014D02*
X109424074Y-83266014D01*
X109424074Y-83266014D02*
X109352646Y-83230300D01*
X109352646Y-83230300D02*
X109316931Y-83194585D01*
X110138360Y-83266014D02*
X110281217Y-83266014D01*
X110281217Y-83266014D02*
X110352646Y-83230300D01*
X110352646Y-83230300D02*
X110388360Y-83194585D01*
X110388360Y-83194585D02*
X110459789Y-83087442D01*
X110459789Y-83087442D02*
X110495503Y-82944585D01*
X110495503Y-82944585D02*
X110495503Y-82658871D01*
X110495503Y-82658871D02*
X110459789Y-82587442D01*
X110459789Y-82587442D02*
X110424075Y-82551728D01*
X110424075Y-82551728D02*
X110352646Y-82516014D01*
X110352646Y-82516014D02*
X110209789Y-82516014D01*
X110209789Y-82516014D02*
X110138360Y-82551728D01*
X110138360Y-82551728D02*
X110102646Y-82587442D01*
X110102646Y-82587442D02*
X110066932Y-82658871D01*
X110066932Y-82658871D02*
X110066932Y-82837442D01*
X110066932Y-82837442D02*
X110102646Y-82908871D01*
X110102646Y-82908871D02*
X110138360Y-82944585D01*
X110138360Y-82944585D02*
X110209789Y-82980300D01*
X110209789Y-82980300D02*
X110352646Y-82980300D01*
X110352646Y-82980300D02*
X110424075Y-82944585D01*
X110424075Y-82944585D02*
X110459789Y-82908871D01*
X110459789Y-82908871D02*
X110495503Y-82837442D01*
X109388360Y-109682014D02*
X109388360Y-108932014D01*
X109388360Y-108932014D02*
X109566931Y-108932014D01*
X109566931Y-108932014D02*
X109674074Y-108967728D01*
X109674074Y-108967728D02*
X109745503Y-109039157D01*
X109745503Y-109039157D02*
X109781217Y-109110585D01*
X109781217Y-109110585D02*
X109816931Y-109253442D01*
X109816931Y-109253442D02*
X109816931Y-109360585D01*
X109816931Y-109360585D02*
X109781217Y-109503442D01*
X109781217Y-109503442D02*
X109745503Y-109574871D01*
X109745503Y-109574871D02*
X109674074Y-109646300D01*
X109674074Y-109646300D02*
X109566931Y-109682014D01*
X109566931Y-109682014D02*
X109388360Y-109682014D01*
X110138360Y-109682014D02*
X110138360Y-108932014D01*
X110138360Y-108932014D02*
X110566931Y-109682014D01*
X110566931Y-109682014D02*
X110566931Y-108932014D01*
X110852645Y-108932014D02*
X111316931Y-108932014D01*
X111316931Y-108932014D02*
X111066931Y-109217728D01*
X111066931Y-109217728D02*
X111174074Y-109217728D01*
X111174074Y-109217728D02*
X111245503Y-109253442D01*
X111245503Y-109253442D02*
X111281217Y-109289157D01*
X111281217Y-109289157D02*
X111316931Y-109360585D01*
X111316931Y-109360585D02*
X111316931Y-109539157D01*
X111316931Y-109539157D02*
X111281217Y-109610585D01*
X111281217Y-109610585D02*
X111245503Y-109646300D01*
X111245503Y-109646300D02*
X111174074Y-109682014D01*
X111174074Y-109682014D02*
X110959788Y-109682014D01*
X110959788Y-109682014D02*
X110888360Y-109646300D01*
X110888360Y-109646300D02*
X110852645Y-109610585D01*
X109709789Y-75146014D02*
X109709789Y-75646014D01*
X109531217Y-74860300D02*
X109352646Y-75396014D01*
X109352646Y-75396014D02*
X109816931Y-75396014D01*
X110459789Y-74896014D02*
X110102646Y-74896014D01*
X110102646Y-74896014D02*
X110066932Y-75253157D01*
X110066932Y-75253157D02*
X110102646Y-75217442D01*
X110102646Y-75217442D02*
X110174075Y-75181728D01*
X110174075Y-75181728D02*
X110352646Y-75181728D01*
X110352646Y-75181728D02*
X110424075Y-75217442D01*
X110424075Y-75217442D02*
X110459789Y-75253157D01*
X110459789Y-75253157D02*
X110495503Y-75324585D01*
X110495503Y-75324585D02*
X110495503Y-75503157D01*
X110495503Y-75503157D02*
X110459789Y-75574585D01*
X110459789Y-75574585D02*
X110424075Y-75610300D01*
X110424075Y-75610300D02*
X110352646Y-75646014D01*
X110352646Y-75646014D02*
X110174075Y-75646014D01*
X110174075Y-75646014D02*
X110102646Y-75610300D01*
X110102646Y-75610300D02*
X110066932Y-75574585D01*
D13*
X103368800Y-73569038D02*
X103273562Y-73521419D01*
X103273562Y-73521419D02*
X103130705Y-73521419D01*
X103130705Y-73521419D02*
X102987848Y-73569038D01*
X102987848Y-73569038D02*
X102892610Y-73664276D01*
X102892610Y-73664276D02*
X102844991Y-73759514D01*
X102844991Y-73759514D02*
X102797372Y-73949990D01*
X102797372Y-73949990D02*
X102797372Y-74092847D01*
X102797372Y-74092847D02*
X102844991Y-74283323D01*
X102844991Y-74283323D02*
X102892610Y-74378561D01*
X102892610Y-74378561D02*
X102987848Y-74473800D01*
X102987848Y-74473800D02*
X103130705Y-74521419D01*
X103130705Y-74521419D02*
X103225943Y-74521419D01*
X103225943Y-74521419D02*
X103368800Y-74473800D01*
X103368800Y-74473800D02*
X103416419Y-74426180D01*
X103416419Y-74426180D02*
X103416419Y-74092847D01*
X103416419Y-74092847D02*
X103225943Y-74092847D01*
X103844991Y-74521419D02*
X103844991Y-73521419D01*
X103844991Y-73521419D02*
X104225943Y-73521419D01*
X104225943Y-73521419D02*
X104321181Y-73569038D01*
X104321181Y-73569038D02*
X104368800Y-73616657D01*
X104368800Y-73616657D02*
X104416419Y-73711895D01*
X104416419Y-73711895D02*
X104416419Y-73854752D01*
X104416419Y-73854752D02*
X104368800Y-73949990D01*
X104368800Y-73949990D02*
X104321181Y-73997609D01*
X104321181Y-73997609D02*
X104225943Y-74045228D01*
X104225943Y-74045228D02*
X103844991Y-74045228D01*
X104844991Y-74521419D02*
X104844991Y-73521419D01*
X105511657Y-73521419D02*
X105702133Y-73521419D01*
X105702133Y-73521419D02*
X105797371Y-73569038D01*
X105797371Y-73569038D02*
X105892609Y-73664276D01*
X105892609Y-73664276D02*
X105940228Y-73854752D01*
X105940228Y-73854752D02*
X105940228Y-74188085D01*
X105940228Y-74188085D02*
X105892609Y-74378561D01*
X105892609Y-74378561D02*
X105797371Y-74473800D01*
X105797371Y-74473800D02*
X105702133Y-74521419D01*
X105702133Y-74521419D02*
X105511657Y-74521419D01*
X105511657Y-74521419D02*
X105416419Y-74473800D01*
X105416419Y-74473800D02*
X105321181Y-74378561D01*
X105321181Y-74378561D02*
X105273562Y-74188085D01*
X105273562Y-74188085D02*
X105273562Y-73854752D01*
X105273562Y-73854752D02*
X105321181Y-73664276D01*
X105321181Y-73664276D02*
X105416419Y-73569038D01*
X105416419Y-73569038D02*
X105511657Y-73521419D01*
D11*
X113847313Y-111080100D02*
X113883027Y-111092004D01*
X113883027Y-111092004D02*
X113942551Y-111092004D01*
X113942551Y-111092004D02*
X113966360Y-111080100D01*
X113966360Y-111080100D02*
X113978265Y-111068195D01*
X113978265Y-111068195D02*
X113990170Y-111044385D01*
X113990170Y-111044385D02*
X113990170Y-111020576D01*
X113990170Y-111020576D02*
X113978265Y-110996766D01*
X113978265Y-110996766D02*
X113966360Y-110984861D01*
X113966360Y-110984861D02*
X113942551Y-110972957D01*
X113942551Y-110972957D02*
X113894932Y-110961052D01*
X113894932Y-110961052D02*
X113871122Y-110949147D01*
X113871122Y-110949147D02*
X113859217Y-110937242D01*
X113859217Y-110937242D02*
X113847313Y-110913433D01*
X113847313Y-110913433D02*
X113847313Y-110889623D01*
X113847313Y-110889623D02*
X113859217Y-110865814D01*
X113859217Y-110865814D02*
X113871122Y-110853909D01*
X113871122Y-110853909D02*
X113894932Y-110842004D01*
X113894932Y-110842004D02*
X113954455Y-110842004D01*
X113954455Y-110842004D02*
X113990170Y-110853909D01*
X114097312Y-111092004D02*
X114097312Y-110842004D01*
X114097312Y-110842004D02*
X114192550Y-110842004D01*
X114192550Y-110842004D02*
X114216360Y-110853909D01*
X114216360Y-110853909D02*
X114228265Y-110865814D01*
X114228265Y-110865814D02*
X114240169Y-110889623D01*
X114240169Y-110889623D02*
X114240169Y-110925338D01*
X114240169Y-110925338D02*
X114228265Y-110949147D01*
X114228265Y-110949147D02*
X114216360Y-110961052D01*
X114216360Y-110961052D02*
X114192550Y-110972957D01*
X114192550Y-110972957D02*
X114097312Y-110972957D01*
X114347312Y-111092004D02*
X114347312Y-110842004D01*
X114490169Y-111092004D02*
X114383027Y-110949147D01*
X114490169Y-110842004D02*
X114347312Y-110984861D01*
X114537789Y-111115814D02*
X114728265Y-111115814D01*
X114906836Y-111092004D02*
X114787788Y-111092004D01*
X114787788Y-111092004D02*
X114787788Y-110842004D01*
X114990169Y-111092004D02*
X114990169Y-110842004D01*
X114990169Y-110842004D02*
X115133026Y-111092004D01*
X115133026Y-111092004D02*
X115133026Y-110842004D01*
X113544874Y-99130195D02*
X113532970Y-99142100D01*
X113532970Y-99142100D02*
X113497255Y-99154004D01*
X113497255Y-99154004D02*
X113473446Y-99154004D01*
X113473446Y-99154004D02*
X113437732Y-99142100D01*
X113437732Y-99142100D02*
X113413922Y-99118290D01*
X113413922Y-99118290D02*
X113402017Y-99094480D01*
X113402017Y-99094480D02*
X113390113Y-99046861D01*
X113390113Y-99046861D02*
X113390113Y-99011147D01*
X113390113Y-99011147D02*
X113402017Y-98963528D01*
X113402017Y-98963528D02*
X113413922Y-98939719D01*
X113413922Y-98939719D02*
X113437732Y-98915909D01*
X113437732Y-98915909D02*
X113473446Y-98904004D01*
X113473446Y-98904004D02*
X113497255Y-98904004D01*
X113497255Y-98904004D02*
X113532970Y-98915909D01*
X113532970Y-98915909D02*
X113544874Y-98927814D01*
X113640113Y-99082576D02*
X113759160Y-99082576D01*
X113616303Y-99154004D02*
X113699636Y-98904004D01*
X113699636Y-98904004D02*
X113782970Y-99154004D01*
X113866303Y-99154004D02*
X113866303Y-98904004D01*
X113866303Y-98904004D02*
X113949637Y-99082576D01*
X113949637Y-99082576D02*
X114032970Y-98904004D01*
X114032970Y-98904004D02*
X114032970Y-99154004D01*
X114282970Y-99154004D02*
X114140113Y-99154004D01*
X114211541Y-99154004D02*
X114211541Y-98904004D01*
X114211541Y-98904004D02*
X114187732Y-98939719D01*
X114187732Y-98939719D02*
X114163922Y-98963528D01*
X114163922Y-98963528D02*
X114140113Y-98975433D01*
X114330589Y-99177814D02*
X114521065Y-99177814D01*
X114580588Y-99154004D02*
X114580588Y-98904004D01*
X114580588Y-98904004D02*
X114640112Y-98904004D01*
X114640112Y-98904004D02*
X114675826Y-98915909D01*
X114675826Y-98915909D02*
X114699636Y-98939719D01*
X114699636Y-98939719D02*
X114711541Y-98963528D01*
X114711541Y-98963528D02*
X114723445Y-99011147D01*
X114723445Y-99011147D02*
X114723445Y-99046861D01*
X114723445Y-99046861D02*
X114711541Y-99094480D01*
X114711541Y-99094480D02*
X114699636Y-99118290D01*
X114699636Y-99118290D02*
X114675826Y-99142100D01*
X114675826Y-99142100D02*
X114640112Y-99154004D01*
X114640112Y-99154004D02*
X114580588Y-99154004D01*
X114830588Y-99154004D02*
X114830588Y-98904004D01*
X114830588Y-98904004D02*
X114973445Y-99154004D01*
X114973445Y-99154004D02*
X114973445Y-98904004D01*
X115068684Y-98904004D02*
X115223446Y-98904004D01*
X115223446Y-98904004D02*
X115140112Y-98999242D01*
X115140112Y-98999242D02*
X115175827Y-98999242D01*
X115175827Y-98999242D02*
X115199636Y-99011147D01*
X115199636Y-99011147D02*
X115211541Y-99023052D01*
X115211541Y-99023052D02*
X115223446Y-99046861D01*
X115223446Y-99046861D02*
X115223446Y-99106385D01*
X115223446Y-99106385D02*
X115211541Y-99130195D01*
X115211541Y-99130195D02*
X115199636Y-99142100D01*
X115199636Y-99142100D02*
X115175827Y-99154004D01*
X115175827Y-99154004D02*
X115104398Y-99154004D01*
X115104398Y-99154004D02*
X115080589Y-99142100D01*
X115080589Y-99142100D02*
X115068684Y-99130195D01*
D12*
X82363769Y-81155224D02*
X82363769Y-80845700D01*
X82363769Y-80845700D02*
X82554245Y-81012367D01*
X82554245Y-81012367D02*
X82554245Y-80940938D01*
X82554245Y-80940938D02*
X82578055Y-80893319D01*
X82578055Y-80893319D02*
X82601864Y-80869510D01*
X82601864Y-80869510D02*
X82649483Y-80845700D01*
X82649483Y-80845700D02*
X82768531Y-80845700D01*
X82768531Y-80845700D02*
X82816150Y-80869510D01*
X82816150Y-80869510D02*
X82839960Y-80893319D01*
X82839960Y-80893319D02*
X82863769Y-80940938D01*
X82863769Y-80940938D02*
X82863769Y-81083795D01*
X82863769Y-81083795D02*
X82839960Y-81131414D01*
X82839960Y-81131414D02*
X82816150Y-81155224D01*
X82363769Y-80393320D02*
X82363769Y-80631415D01*
X82363769Y-80631415D02*
X82601864Y-80655224D01*
X82601864Y-80655224D02*
X82578055Y-80631415D01*
X82578055Y-80631415D02*
X82554245Y-80583796D01*
X82554245Y-80583796D02*
X82554245Y-80464748D01*
X82554245Y-80464748D02*
X82578055Y-80417129D01*
X82578055Y-80417129D02*
X82601864Y-80393320D01*
X82601864Y-80393320D02*
X82649483Y-80369510D01*
X82649483Y-80369510D02*
X82768531Y-80369510D01*
X82768531Y-80369510D02*
X82816150Y-80393320D01*
X82816150Y-80393320D02*
X82839960Y-80417129D01*
X82839960Y-80417129D02*
X82863769Y-80464748D01*
X82863769Y-80464748D02*
X82863769Y-80583796D01*
X82863769Y-80583796D02*
X82839960Y-80631415D01*
X82839960Y-80631415D02*
X82816150Y-80655224D01*
D10*
X109316931Y-90136014D02*
X109781217Y-90136014D01*
X109781217Y-90136014D02*
X109531217Y-90421728D01*
X109531217Y-90421728D02*
X109638360Y-90421728D01*
X109638360Y-90421728D02*
X109709789Y-90457442D01*
X109709789Y-90457442D02*
X109745503Y-90493157D01*
X109745503Y-90493157D02*
X109781217Y-90564585D01*
X109781217Y-90564585D02*
X109781217Y-90743157D01*
X109781217Y-90743157D02*
X109745503Y-90814585D01*
X109745503Y-90814585D02*
X109709789Y-90850300D01*
X109709789Y-90850300D02*
X109638360Y-90886014D01*
X109638360Y-90886014D02*
X109424074Y-90886014D01*
X109424074Y-90886014D02*
X109352646Y-90850300D01*
X109352646Y-90850300D02*
X109316931Y-90814585D01*
X110031217Y-90136014D02*
X110495503Y-90136014D01*
X110495503Y-90136014D02*
X110245503Y-90421728D01*
X110245503Y-90421728D02*
X110352646Y-90421728D01*
X110352646Y-90421728D02*
X110424075Y-90457442D01*
X110424075Y-90457442D02*
X110459789Y-90493157D01*
X110459789Y-90493157D02*
X110495503Y-90564585D01*
X110495503Y-90564585D02*
X110495503Y-90743157D01*
X110495503Y-90743157D02*
X110459789Y-90814585D01*
X110459789Y-90814585D02*
X110424075Y-90850300D01*
X110424075Y-90850300D02*
X110352646Y-90886014D01*
X110352646Y-90886014D02*
X110138360Y-90886014D01*
X110138360Y-90886014D02*
X110066932Y-90850300D01*
X110066932Y-90850300D02*
X110031217Y-90814585D01*
D12*
X82838369Y-106321900D02*
X82838369Y-106607614D01*
X82838369Y-106464757D02*
X82338369Y-106464757D01*
X82338369Y-106464757D02*
X82409798Y-106512376D01*
X82409798Y-106512376D02*
X82457417Y-106559995D01*
X82457417Y-106559995D02*
X82481226Y-106607614D01*
X82338369Y-105869520D02*
X82338369Y-106107615D01*
X82338369Y-106107615D02*
X82576464Y-106131424D01*
X82576464Y-106131424D02*
X82552655Y-106107615D01*
X82552655Y-106107615D02*
X82528845Y-106059996D01*
X82528845Y-106059996D02*
X82528845Y-105940948D01*
X82528845Y-105940948D02*
X82552655Y-105893329D01*
X82552655Y-105893329D02*
X82576464Y-105869520D01*
X82576464Y-105869520D02*
X82624083Y-105845710D01*
X82624083Y-105845710D02*
X82743131Y-105845710D01*
X82743131Y-105845710D02*
X82790750Y-105869520D01*
X82790750Y-105869520D02*
X82814560Y-105893329D01*
X82814560Y-105893329D02*
X82838369Y-105940948D01*
X82838369Y-105940948D02*
X82838369Y-106059996D01*
X82838369Y-106059996D02*
X82814560Y-106107615D01*
X82814560Y-106107615D02*
X82790750Y-106131424D01*
D10*
X109388360Y-120731014D02*
X109388360Y-119981014D01*
X109388360Y-119981014D02*
X109566931Y-119981014D01*
X109566931Y-119981014D02*
X109674074Y-120016728D01*
X109674074Y-120016728D02*
X109745503Y-120088157D01*
X109745503Y-120088157D02*
X109781217Y-120159585D01*
X109781217Y-120159585D02*
X109816931Y-120302442D01*
X109816931Y-120302442D02*
X109816931Y-120409585D01*
X109816931Y-120409585D02*
X109781217Y-120552442D01*
X109781217Y-120552442D02*
X109745503Y-120623871D01*
X109745503Y-120623871D02*
X109674074Y-120695300D01*
X109674074Y-120695300D02*
X109566931Y-120731014D01*
X109566931Y-120731014D02*
X109388360Y-120731014D01*
X110138360Y-120445300D02*
X110709789Y-120445300D01*
D11*
X114701370Y-100490709D02*
X114677560Y-100478804D01*
X114677560Y-100478804D02*
X114641846Y-100478804D01*
X114641846Y-100478804D02*
X114606132Y-100490709D01*
X114606132Y-100490709D02*
X114582322Y-100514519D01*
X114582322Y-100514519D02*
X114570417Y-100538328D01*
X114570417Y-100538328D02*
X114558513Y-100585947D01*
X114558513Y-100585947D02*
X114558513Y-100621661D01*
X114558513Y-100621661D02*
X114570417Y-100669280D01*
X114570417Y-100669280D02*
X114582322Y-100693090D01*
X114582322Y-100693090D02*
X114606132Y-100716900D01*
X114606132Y-100716900D02*
X114641846Y-100728804D01*
X114641846Y-100728804D02*
X114665655Y-100728804D01*
X114665655Y-100728804D02*
X114701370Y-100716900D01*
X114701370Y-100716900D02*
X114713274Y-100704995D01*
X114713274Y-100704995D02*
X114713274Y-100621661D01*
X114713274Y-100621661D02*
X114665655Y-100621661D01*
X114820417Y-100728804D02*
X114820417Y-100478804D01*
X114820417Y-100478804D02*
X114963274Y-100728804D01*
X114963274Y-100728804D02*
X114963274Y-100478804D01*
X115082322Y-100728804D02*
X115082322Y-100478804D01*
X115082322Y-100478804D02*
X115141846Y-100478804D01*
X115141846Y-100478804D02*
X115177560Y-100490709D01*
X115177560Y-100490709D02*
X115201370Y-100514519D01*
X115201370Y-100514519D02*
X115213275Y-100538328D01*
X115213275Y-100538328D02*
X115225179Y-100585947D01*
X115225179Y-100585947D02*
X115225179Y-100621661D01*
X115225179Y-100621661D02*
X115213275Y-100669280D01*
X115213275Y-100669280D02*
X115201370Y-100693090D01*
X115201370Y-100693090D02*
X115177560Y-100716900D01*
X115177560Y-100716900D02*
X115141846Y-100728804D01*
X115141846Y-100728804D02*
X115082322Y-100728804D01*
X114701370Y-98052309D02*
X114677560Y-98040404D01*
X114677560Y-98040404D02*
X114641846Y-98040404D01*
X114641846Y-98040404D02*
X114606132Y-98052309D01*
X114606132Y-98052309D02*
X114582322Y-98076119D01*
X114582322Y-98076119D02*
X114570417Y-98099928D01*
X114570417Y-98099928D02*
X114558513Y-98147547D01*
X114558513Y-98147547D02*
X114558513Y-98183261D01*
X114558513Y-98183261D02*
X114570417Y-98230880D01*
X114570417Y-98230880D02*
X114582322Y-98254690D01*
X114582322Y-98254690D02*
X114606132Y-98278500D01*
X114606132Y-98278500D02*
X114641846Y-98290404D01*
X114641846Y-98290404D02*
X114665655Y-98290404D01*
X114665655Y-98290404D02*
X114701370Y-98278500D01*
X114701370Y-98278500D02*
X114713274Y-98266595D01*
X114713274Y-98266595D02*
X114713274Y-98183261D01*
X114713274Y-98183261D02*
X114665655Y-98183261D01*
X114820417Y-98290404D02*
X114820417Y-98040404D01*
X114820417Y-98040404D02*
X114963274Y-98290404D01*
X114963274Y-98290404D02*
X114963274Y-98040404D01*
X115082322Y-98290404D02*
X115082322Y-98040404D01*
X115082322Y-98040404D02*
X115141846Y-98040404D01*
X115141846Y-98040404D02*
X115177560Y-98052309D01*
X115177560Y-98052309D02*
X115201370Y-98076119D01*
X115201370Y-98076119D02*
X115213275Y-98099928D01*
X115213275Y-98099928D02*
X115225179Y-98147547D01*
X115225179Y-98147547D02*
X115225179Y-98183261D01*
X115225179Y-98183261D02*
X115213275Y-98230880D01*
X115213275Y-98230880D02*
X115201370Y-98254690D01*
X115201370Y-98254690D02*
X115177560Y-98278500D01*
X115177560Y-98278500D02*
X115141846Y-98290404D01*
X115141846Y-98290404D02*
X115082322Y-98290404D01*
D10*
X109316931Y-86326014D02*
X109781217Y-86326014D01*
X109781217Y-86326014D02*
X109531217Y-86611728D01*
X109531217Y-86611728D02*
X109638360Y-86611728D01*
X109638360Y-86611728D02*
X109709789Y-86647442D01*
X109709789Y-86647442D02*
X109745503Y-86683157D01*
X109745503Y-86683157D02*
X109781217Y-86754585D01*
X109781217Y-86754585D02*
X109781217Y-86933157D01*
X109781217Y-86933157D02*
X109745503Y-87004585D01*
X109745503Y-87004585D02*
X109709789Y-87040300D01*
X109709789Y-87040300D02*
X109638360Y-87076014D01*
X109638360Y-87076014D02*
X109424074Y-87076014D01*
X109424074Y-87076014D02*
X109352646Y-87040300D01*
X109352646Y-87040300D02*
X109316931Y-87004585D01*
X110424075Y-86326014D02*
X110281217Y-86326014D01*
X110281217Y-86326014D02*
X110209789Y-86361728D01*
X110209789Y-86361728D02*
X110174075Y-86397442D01*
X110174075Y-86397442D02*
X110102646Y-86504585D01*
X110102646Y-86504585D02*
X110066932Y-86647442D01*
X110066932Y-86647442D02*
X110066932Y-86933157D01*
X110066932Y-86933157D02*
X110102646Y-87004585D01*
X110102646Y-87004585D02*
X110138360Y-87040300D01*
X110138360Y-87040300D02*
X110209789Y-87076014D01*
X110209789Y-87076014D02*
X110352646Y-87076014D01*
X110352646Y-87076014D02*
X110424075Y-87040300D01*
X110424075Y-87040300D02*
X110459789Y-87004585D01*
X110459789Y-87004585D02*
X110495503Y-86933157D01*
X110495503Y-86933157D02*
X110495503Y-86754585D01*
X110495503Y-86754585D02*
X110459789Y-86683157D01*
X110459789Y-86683157D02*
X110424075Y-86647442D01*
X110424075Y-86647442D02*
X110352646Y-86611728D01*
X110352646Y-86611728D02*
X110209789Y-86611728D01*
X110209789Y-86611728D02*
X110138360Y-86647442D01*
X110138360Y-86647442D02*
X110102646Y-86683157D01*
X110102646Y-86683157D02*
X110066932Y-86754585D01*
D11*
X113494074Y-97504595D02*
X113482170Y-97516500D01*
X113482170Y-97516500D02*
X113446455Y-97528404D01*
X113446455Y-97528404D02*
X113422646Y-97528404D01*
X113422646Y-97528404D02*
X113386932Y-97516500D01*
X113386932Y-97516500D02*
X113363122Y-97492690D01*
X113363122Y-97492690D02*
X113351217Y-97468880D01*
X113351217Y-97468880D02*
X113339313Y-97421261D01*
X113339313Y-97421261D02*
X113339313Y-97385547D01*
X113339313Y-97385547D02*
X113351217Y-97337928D01*
X113351217Y-97337928D02*
X113363122Y-97314119D01*
X113363122Y-97314119D02*
X113386932Y-97290309D01*
X113386932Y-97290309D02*
X113422646Y-97278404D01*
X113422646Y-97278404D02*
X113446455Y-97278404D01*
X113446455Y-97278404D02*
X113482170Y-97290309D01*
X113482170Y-97290309D02*
X113494074Y-97302214D01*
X113589313Y-97456976D02*
X113708360Y-97456976D01*
X113565503Y-97528404D02*
X113648836Y-97278404D01*
X113648836Y-97278404D02*
X113732170Y-97528404D01*
X113815503Y-97528404D02*
X113815503Y-97278404D01*
X113815503Y-97278404D02*
X113898837Y-97456976D01*
X113898837Y-97456976D02*
X113982170Y-97278404D01*
X113982170Y-97278404D02*
X113982170Y-97528404D01*
X114232170Y-97528404D02*
X114089313Y-97528404D01*
X114160741Y-97528404D02*
X114160741Y-97278404D01*
X114160741Y-97278404D02*
X114136932Y-97314119D01*
X114136932Y-97314119D02*
X114113122Y-97337928D01*
X114113122Y-97337928D02*
X114089313Y-97349833D01*
X114279789Y-97552214D02*
X114470265Y-97552214D01*
X114529788Y-97528404D02*
X114529788Y-97278404D01*
X114529788Y-97278404D02*
X114589312Y-97278404D01*
X114589312Y-97278404D02*
X114625026Y-97290309D01*
X114625026Y-97290309D02*
X114648836Y-97314119D01*
X114648836Y-97314119D02*
X114660741Y-97337928D01*
X114660741Y-97337928D02*
X114672645Y-97385547D01*
X114672645Y-97385547D02*
X114672645Y-97421261D01*
X114672645Y-97421261D02*
X114660741Y-97468880D01*
X114660741Y-97468880D02*
X114648836Y-97492690D01*
X114648836Y-97492690D02*
X114625026Y-97516500D01*
X114625026Y-97516500D02*
X114589312Y-97528404D01*
X114589312Y-97528404D02*
X114529788Y-97528404D01*
X114779788Y-97528404D02*
X114779788Y-97278404D01*
X114779788Y-97278404D02*
X114922645Y-97528404D01*
X114922645Y-97528404D02*
X114922645Y-97278404D01*
X115029789Y-97302214D02*
X115041693Y-97290309D01*
X115041693Y-97290309D02*
X115065503Y-97278404D01*
X115065503Y-97278404D02*
X115125027Y-97278404D01*
X115125027Y-97278404D02*
X115148836Y-97290309D01*
X115148836Y-97290309D02*
X115160741Y-97302214D01*
X115160741Y-97302214D02*
X115172646Y-97326023D01*
X115172646Y-97326023D02*
X115172646Y-97349833D01*
X115172646Y-97349833D02*
X115160741Y-97385547D01*
X115160741Y-97385547D02*
X115017884Y-97528404D01*
X115017884Y-97528404D02*
X115172646Y-97528404D01*
X113798874Y-95167795D02*
X113786970Y-95179700D01*
X113786970Y-95179700D02*
X113751255Y-95191604D01*
X113751255Y-95191604D02*
X113727446Y-95191604D01*
X113727446Y-95191604D02*
X113691732Y-95179700D01*
X113691732Y-95179700D02*
X113667922Y-95155890D01*
X113667922Y-95155890D02*
X113656017Y-95132080D01*
X113656017Y-95132080D02*
X113644113Y-95084461D01*
X113644113Y-95084461D02*
X113644113Y-95048747D01*
X113644113Y-95048747D02*
X113656017Y-95001128D01*
X113656017Y-95001128D02*
X113667922Y-94977319D01*
X113667922Y-94977319D02*
X113691732Y-94953509D01*
X113691732Y-94953509D02*
X113727446Y-94941604D01*
X113727446Y-94941604D02*
X113751255Y-94941604D01*
X113751255Y-94941604D02*
X113786970Y-94953509D01*
X113786970Y-94953509D02*
X113798874Y-94965414D01*
X113894113Y-95120176D02*
X114013160Y-95120176D01*
X113870303Y-95191604D02*
X113953636Y-94941604D01*
X113953636Y-94941604D02*
X114036970Y-95191604D01*
X114120303Y-95191604D02*
X114120303Y-94941604D01*
X114120303Y-94941604D02*
X114203637Y-95120176D01*
X114203637Y-95120176D02*
X114286970Y-94941604D01*
X114286970Y-94941604D02*
X114286970Y-95191604D01*
X114536970Y-95191604D02*
X114394113Y-95191604D01*
X114465541Y-95191604D02*
X114465541Y-94941604D01*
X114465541Y-94941604D02*
X114441732Y-94977319D01*
X114441732Y-94977319D02*
X114417922Y-95001128D01*
X114417922Y-95001128D02*
X114394113Y-95013033D01*
X114584589Y-95215414D02*
X114775065Y-95215414D01*
X114977445Y-95167795D02*
X114965541Y-95179700D01*
X114965541Y-95179700D02*
X114929826Y-95191604D01*
X114929826Y-95191604D02*
X114906017Y-95191604D01*
X114906017Y-95191604D02*
X114870303Y-95179700D01*
X114870303Y-95179700D02*
X114846493Y-95155890D01*
X114846493Y-95155890D02*
X114834588Y-95132080D01*
X114834588Y-95132080D02*
X114822684Y-95084461D01*
X114822684Y-95084461D02*
X114822684Y-95048747D01*
X114822684Y-95048747D02*
X114834588Y-95001128D01*
X114834588Y-95001128D02*
X114846493Y-94977319D01*
X114846493Y-94977319D02*
X114870303Y-94953509D01*
X114870303Y-94953509D02*
X114906017Y-94941604D01*
X114906017Y-94941604D02*
X114929826Y-94941604D01*
X114929826Y-94941604D02*
X114965541Y-94953509D01*
X114965541Y-94953509D02*
X114977445Y-94965414D01*
X115084588Y-95191604D02*
X115084588Y-94941604D01*
X115084588Y-94941604D02*
X115179826Y-94941604D01*
X115179826Y-94941604D02*
X115203636Y-94953509D01*
X115203636Y-94953509D02*
X115215541Y-94965414D01*
X115215541Y-94965414D02*
X115227445Y-94989223D01*
X115227445Y-94989223D02*
X115227445Y-95024938D01*
X115227445Y-95024938D02*
X115215541Y-95048747D01*
X115215541Y-95048747D02*
X115203636Y-95060652D01*
X115203636Y-95060652D02*
X115179826Y-95072557D01*
X115179826Y-95072557D02*
X115084588Y-95072557D01*
D10*
X109745503Y-124287014D02*
X109388360Y-124287014D01*
X109388360Y-124287014D02*
X109388360Y-123537014D01*
X109995503Y-124287014D02*
X109995503Y-123537014D01*
X109995503Y-123537014D02*
X110424074Y-124287014D01*
X110424074Y-124287014D02*
X110424074Y-123537014D01*
D13*
X93499476Y-71791038D02*
X93404238Y-71743419D01*
X93404238Y-71743419D02*
X93261381Y-71743419D01*
X93261381Y-71743419D02*
X93118524Y-71791038D01*
X93118524Y-71791038D02*
X93023286Y-71886276D01*
X93023286Y-71886276D02*
X92975667Y-71981514D01*
X92975667Y-71981514D02*
X92928048Y-72171990D01*
X92928048Y-72171990D02*
X92928048Y-72314847D01*
X92928048Y-72314847D02*
X92975667Y-72505323D01*
X92975667Y-72505323D02*
X93023286Y-72600561D01*
X93023286Y-72600561D02*
X93118524Y-72695800D01*
X93118524Y-72695800D02*
X93261381Y-72743419D01*
X93261381Y-72743419D02*
X93356619Y-72743419D01*
X93356619Y-72743419D02*
X93499476Y-72695800D01*
X93499476Y-72695800D02*
X93547095Y-72648180D01*
X93547095Y-72648180D02*
X93547095Y-72314847D01*
X93547095Y-72314847D02*
X93356619Y-72314847D01*
X94547095Y-72743419D02*
X94213762Y-72267228D01*
X93975667Y-72743419D02*
X93975667Y-71743419D01*
X93975667Y-71743419D02*
X94356619Y-71743419D01*
X94356619Y-71743419D02*
X94451857Y-71791038D01*
X94451857Y-71791038D02*
X94499476Y-71838657D01*
X94499476Y-71838657D02*
X94547095Y-71933895D01*
X94547095Y-71933895D02*
X94547095Y-72076752D01*
X94547095Y-72076752D02*
X94499476Y-72171990D01*
X94499476Y-72171990D02*
X94451857Y-72219609D01*
X94451857Y-72219609D02*
X94356619Y-72267228D01*
X94356619Y-72267228D02*
X93975667Y-72267228D01*
X95166143Y-71743419D02*
X95356619Y-71743419D01*
X95356619Y-71743419D02*
X95451857Y-71791038D01*
X95451857Y-71791038D02*
X95547095Y-71886276D01*
X95547095Y-71886276D02*
X95594714Y-72076752D01*
X95594714Y-72076752D02*
X95594714Y-72410085D01*
X95594714Y-72410085D02*
X95547095Y-72600561D01*
X95547095Y-72600561D02*
X95451857Y-72695800D01*
X95451857Y-72695800D02*
X95356619Y-72743419D01*
X95356619Y-72743419D02*
X95166143Y-72743419D01*
X95166143Y-72743419D02*
X95070905Y-72695800D01*
X95070905Y-72695800D02*
X94975667Y-72600561D01*
X94975667Y-72600561D02*
X94928048Y-72410085D01*
X94928048Y-72410085D02*
X94928048Y-72076752D01*
X94928048Y-72076752D02*
X94975667Y-71886276D01*
X94975667Y-71886276D02*
X95070905Y-71791038D01*
X95070905Y-71791038D02*
X95166143Y-71743419D01*
X96023286Y-71743419D02*
X96023286Y-72552942D01*
X96023286Y-72552942D02*
X96070905Y-72648180D01*
X96070905Y-72648180D02*
X96118524Y-72695800D01*
X96118524Y-72695800D02*
X96213762Y-72743419D01*
X96213762Y-72743419D02*
X96404238Y-72743419D01*
X96404238Y-72743419D02*
X96499476Y-72695800D01*
X96499476Y-72695800D02*
X96547095Y-72648180D01*
X96547095Y-72648180D02*
X96594714Y-72552942D01*
X96594714Y-72552942D02*
X96594714Y-71743419D01*
X97070905Y-72743419D02*
X97070905Y-71743419D01*
X97070905Y-71743419D02*
X97642333Y-72743419D01*
X97642333Y-72743419D02*
X97642333Y-71743419D01*
X98118524Y-72743419D02*
X98118524Y-71743419D01*
X98118524Y-71743419D02*
X98356619Y-71743419D01*
X98356619Y-71743419D02*
X98499476Y-71791038D01*
X98499476Y-71791038D02*
X98594714Y-71886276D01*
X98594714Y-71886276D02*
X98642333Y-71981514D01*
X98642333Y-71981514D02*
X98689952Y-72171990D01*
X98689952Y-72171990D02*
X98689952Y-72314847D01*
X98689952Y-72314847D02*
X98642333Y-72505323D01*
X98642333Y-72505323D02*
X98594714Y-72600561D01*
X98594714Y-72600561D02*
X98499476Y-72695800D01*
X98499476Y-72695800D02*
X98356619Y-72743419D01*
X98356619Y-72743419D02*
X98118524Y-72743419D01*
D11*
X113544874Y-90290995D02*
X113532970Y-90302900D01*
X113532970Y-90302900D02*
X113497255Y-90314804D01*
X113497255Y-90314804D02*
X113473446Y-90314804D01*
X113473446Y-90314804D02*
X113437732Y-90302900D01*
X113437732Y-90302900D02*
X113413922Y-90279090D01*
X113413922Y-90279090D02*
X113402017Y-90255280D01*
X113402017Y-90255280D02*
X113390113Y-90207661D01*
X113390113Y-90207661D02*
X113390113Y-90171947D01*
X113390113Y-90171947D02*
X113402017Y-90124328D01*
X113402017Y-90124328D02*
X113413922Y-90100519D01*
X113413922Y-90100519D02*
X113437732Y-90076709D01*
X113437732Y-90076709D02*
X113473446Y-90064804D01*
X113473446Y-90064804D02*
X113497255Y-90064804D01*
X113497255Y-90064804D02*
X113532970Y-90076709D01*
X113532970Y-90076709D02*
X113544874Y-90088614D01*
X113640113Y-90243376D02*
X113759160Y-90243376D01*
X113616303Y-90314804D02*
X113699636Y-90064804D01*
X113699636Y-90064804D02*
X113782970Y-90314804D01*
X113866303Y-90314804D02*
X113866303Y-90064804D01*
X113866303Y-90064804D02*
X113949637Y-90243376D01*
X113949637Y-90243376D02*
X114032970Y-90064804D01*
X114032970Y-90064804D02*
X114032970Y-90314804D01*
X114282970Y-90314804D02*
X114140113Y-90314804D01*
X114211541Y-90314804D02*
X114211541Y-90064804D01*
X114211541Y-90064804D02*
X114187732Y-90100519D01*
X114187732Y-90100519D02*
X114163922Y-90124328D01*
X114163922Y-90124328D02*
X114140113Y-90136233D01*
X114330589Y-90338614D02*
X114521065Y-90338614D01*
X114580588Y-90314804D02*
X114580588Y-90064804D01*
X114580588Y-90064804D02*
X114640112Y-90064804D01*
X114640112Y-90064804D02*
X114675826Y-90076709D01*
X114675826Y-90076709D02*
X114699636Y-90100519D01*
X114699636Y-90100519D02*
X114711541Y-90124328D01*
X114711541Y-90124328D02*
X114723445Y-90171947D01*
X114723445Y-90171947D02*
X114723445Y-90207661D01*
X114723445Y-90207661D02*
X114711541Y-90255280D01*
X114711541Y-90255280D02*
X114699636Y-90279090D01*
X114699636Y-90279090D02*
X114675826Y-90302900D01*
X114675826Y-90302900D02*
X114640112Y-90314804D01*
X114640112Y-90314804D02*
X114580588Y-90314804D01*
X114830588Y-90314804D02*
X114830588Y-90064804D01*
X114830588Y-90064804D02*
X114925826Y-90064804D01*
X114925826Y-90064804D02*
X114949636Y-90076709D01*
X114949636Y-90076709D02*
X114961541Y-90088614D01*
X114961541Y-90088614D02*
X114973445Y-90112423D01*
X114973445Y-90112423D02*
X114973445Y-90148138D01*
X114973445Y-90148138D02*
X114961541Y-90171947D01*
X114961541Y-90171947D02*
X114949636Y-90183852D01*
X114949636Y-90183852D02*
X114925826Y-90195757D01*
X114925826Y-90195757D02*
X114830588Y-90195757D01*
X115128207Y-90064804D02*
X115152017Y-90064804D01*
X115152017Y-90064804D02*
X115175826Y-90076709D01*
X115175826Y-90076709D02*
X115187731Y-90088614D01*
X115187731Y-90088614D02*
X115199636Y-90112423D01*
X115199636Y-90112423D02*
X115211541Y-90160042D01*
X115211541Y-90160042D02*
X115211541Y-90219566D01*
X115211541Y-90219566D02*
X115199636Y-90267185D01*
X115199636Y-90267185D02*
X115187731Y-90290995D01*
X115187731Y-90290995D02*
X115175826Y-90302900D01*
X115175826Y-90302900D02*
X115152017Y-90314804D01*
X115152017Y-90314804D02*
X115128207Y-90314804D01*
X115128207Y-90314804D02*
X115104398Y-90302900D01*
X115104398Y-90302900D02*
X115092493Y-90290995D01*
X115092493Y-90290995D02*
X115080588Y-90267185D01*
X115080588Y-90267185D02*
X115068684Y-90219566D01*
X115068684Y-90219566D02*
X115068684Y-90160042D01*
X115068684Y-90160042D02*
X115080588Y-90112423D01*
X115080588Y-90112423D02*
X115092493Y-90088614D01*
X115092493Y-90088614D02*
X115104398Y-90076709D01*
X115104398Y-90076709D02*
X115128207Y-90064804D01*
D12*
X82411388Y-93856814D02*
X82387579Y-93833005D01*
X82387579Y-93833005D02*
X82363769Y-93785386D01*
X82363769Y-93785386D02*
X82363769Y-93666338D01*
X82363769Y-93666338D02*
X82387579Y-93618719D01*
X82387579Y-93618719D02*
X82411388Y-93594910D01*
X82411388Y-93594910D02*
X82459007Y-93571100D01*
X82459007Y-93571100D02*
X82506626Y-93571100D01*
X82506626Y-93571100D02*
X82578055Y-93594910D01*
X82578055Y-93594910D02*
X82863769Y-93880624D01*
X82863769Y-93880624D02*
X82863769Y-93571100D01*
X82363769Y-93118720D02*
X82363769Y-93356815D01*
X82363769Y-93356815D02*
X82601864Y-93380624D01*
X82601864Y-93380624D02*
X82578055Y-93356815D01*
X82578055Y-93356815D02*
X82554245Y-93309196D01*
X82554245Y-93309196D02*
X82554245Y-93190148D01*
X82554245Y-93190148D02*
X82578055Y-93142529D01*
X82578055Y-93142529D02*
X82601864Y-93118720D01*
X82601864Y-93118720D02*
X82649483Y-93094910D01*
X82649483Y-93094910D02*
X82768531Y-93094910D01*
X82768531Y-93094910D02*
X82816150Y-93118720D01*
X82816150Y-93118720D02*
X82839960Y-93142529D01*
X82839960Y-93142529D02*
X82863769Y-93190148D01*
X82863769Y-93190148D02*
X82863769Y-93309196D01*
X82863769Y-93309196D02*
X82839960Y-93356815D01*
X82839960Y-93356815D02*
X82816150Y-93380624D01*
D10*
X109352646Y-95287442D02*
X109388360Y-95251728D01*
X109388360Y-95251728D02*
X109459789Y-95216014D01*
X109459789Y-95216014D02*
X109638360Y-95216014D01*
X109638360Y-95216014D02*
X109709789Y-95251728D01*
X109709789Y-95251728D02*
X109745503Y-95287442D01*
X109745503Y-95287442D02*
X109781217Y-95358871D01*
X109781217Y-95358871D02*
X109781217Y-95430300D01*
X109781217Y-95430300D02*
X109745503Y-95537442D01*
X109745503Y-95537442D02*
X109316931Y-95966014D01*
X109316931Y-95966014D02*
X109781217Y-95966014D01*
X110138360Y-95966014D02*
X110281217Y-95966014D01*
X110281217Y-95966014D02*
X110352646Y-95930300D01*
X110352646Y-95930300D02*
X110388360Y-95894585D01*
X110388360Y-95894585D02*
X110459789Y-95787442D01*
X110459789Y-95787442D02*
X110495503Y-95644585D01*
X110495503Y-95644585D02*
X110495503Y-95358871D01*
X110495503Y-95358871D02*
X110459789Y-95287442D01*
X110459789Y-95287442D02*
X110424075Y-95251728D01*
X110424075Y-95251728D02*
X110352646Y-95216014D01*
X110352646Y-95216014D02*
X110209789Y-95216014D01*
X110209789Y-95216014D02*
X110138360Y-95251728D01*
X110138360Y-95251728D02*
X110102646Y-95287442D01*
X110102646Y-95287442D02*
X110066932Y-95358871D01*
X110066932Y-95358871D02*
X110066932Y-95537442D01*
X110066932Y-95537442D02*
X110102646Y-95608871D01*
X110102646Y-95608871D02*
X110138360Y-95644585D01*
X110138360Y-95644585D02*
X110209789Y-95680300D01*
X110209789Y-95680300D02*
X110352646Y-95680300D01*
X110352646Y-95680300D02*
X110424075Y-95644585D01*
X110424075Y-95644585D02*
X110459789Y-95608871D01*
X110459789Y-95608871D02*
X110495503Y-95537442D01*
X109352646Y-96557442D02*
X109388360Y-96521728D01*
X109388360Y-96521728D02*
X109459789Y-96486014D01*
X109459789Y-96486014D02*
X109638360Y-96486014D01*
X109638360Y-96486014D02*
X109709789Y-96521728D01*
X109709789Y-96521728D02*
X109745503Y-96557442D01*
X109745503Y-96557442D02*
X109781217Y-96628871D01*
X109781217Y-96628871D02*
X109781217Y-96700300D01*
X109781217Y-96700300D02*
X109745503Y-96807442D01*
X109745503Y-96807442D02*
X109316931Y-97236014D01*
X109316931Y-97236014D02*
X109781217Y-97236014D01*
X110209789Y-96807442D02*
X110138360Y-96771728D01*
X110138360Y-96771728D02*
X110102646Y-96736014D01*
X110102646Y-96736014D02*
X110066932Y-96664585D01*
X110066932Y-96664585D02*
X110066932Y-96628871D01*
X110066932Y-96628871D02*
X110102646Y-96557442D01*
X110102646Y-96557442D02*
X110138360Y-96521728D01*
X110138360Y-96521728D02*
X110209789Y-96486014D01*
X110209789Y-96486014D02*
X110352646Y-96486014D01*
X110352646Y-96486014D02*
X110424075Y-96521728D01*
X110424075Y-96521728D02*
X110459789Y-96557442D01*
X110459789Y-96557442D02*
X110495503Y-96628871D01*
X110495503Y-96628871D02*
X110495503Y-96664585D01*
X110495503Y-96664585D02*
X110459789Y-96736014D01*
X110459789Y-96736014D02*
X110424075Y-96771728D01*
X110424075Y-96771728D02*
X110352646Y-96807442D01*
X110352646Y-96807442D02*
X110209789Y-96807442D01*
X110209789Y-96807442D02*
X110138360Y-96843157D01*
X110138360Y-96843157D02*
X110102646Y-96878871D01*
X110102646Y-96878871D02*
X110066932Y-96950300D01*
X110066932Y-96950300D02*
X110066932Y-97093157D01*
X110066932Y-97093157D02*
X110102646Y-97164585D01*
X110102646Y-97164585D02*
X110138360Y-97200300D01*
X110138360Y-97200300D02*
X110209789Y-97236014D01*
X110209789Y-97236014D02*
X110352646Y-97236014D01*
X110352646Y-97236014D02*
X110424075Y-97200300D01*
X110424075Y-97200300D02*
X110459789Y-97164585D01*
X110459789Y-97164585D02*
X110495503Y-97093157D01*
X110495503Y-97093157D02*
X110495503Y-96950300D01*
X110495503Y-96950300D02*
X110459789Y-96878871D01*
X110459789Y-96878871D02*
X110424075Y-96843157D01*
X110424075Y-96843157D02*
X110352646Y-96807442D01*
X109709789Y-77686014D02*
X109709789Y-78186014D01*
X109531217Y-77400300D02*
X109352646Y-77936014D01*
X109352646Y-77936014D02*
X109816931Y-77936014D01*
X110031217Y-77436014D02*
X110495503Y-77436014D01*
X110495503Y-77436014D02*
X110245503Y-77721728D01*
X110245503Y-77721728D02*
X110352646Y-77721728D01*
X110352646Y-77721728D02*
X110424075Y-77757442D01*
X110424075Y-77757442D02*
X110459789Y-77793157D01*
X110459789Y-77793157D02*
X110495503Y-77864585D01*
X110495503Y-77864585D02*
X110495503Y-78043157D01*
X110495503Y-78043157D02*
X110459789Y-78114585D01*
X110459789Y-78114585D02*
X110424075Y-78150300D01*
X110424075Y-78150300D02*
X110352646Y-78186014D01*
X110352646Y-78186014D02*
X110138360Y-78186014D01*
X110138360Y-78186014D02*
X110066932Y-78150300D01*
X110066932Y-78150300D02*
X110031217Y-78114585D01*
D13*
X97863410Y-127775819D02*
X98482457Y-127775819D01*
X98482457Y-127775819D02*
X98149124Y-128156771D01*
X98149124Y-128156771D02*
X98291981Y-128156771D01*
X98291981Y-128156771D02*
X98387219Y-128204390D01*
X98387219Y-128204390D02*
X98434838Y-128252009D01*
X98434838Y-128252009D02*
X98482457Y-128347247D01*
X98482457Y-128347247D02*
X98482457Y-128585342D01*
X98482457Y-128585342D02*
X98434838Y-128680580D01*
X98434838Y-128680580D02*
X98387219Y-128728200D01*
X98387219Y-128728200D02*
X98291981Y-128775819D01*
X98291981Y-128775819D02*
X98006267Y-128775819D01*
X98006267Y-128775819D02*
X97911029Y-128728200D01*
X97911029Y-128728200D02*
X97863410Y-128680580D01*
X98911029Y-128680580D02*
X98958648Y-128728200D01*
X98958648Y-128728200D02*
X98911029Y-128775819D01*
X98911029Y-128775819D02*
X98863410Y-128728200D01*
X98863410Y-128728200D02*
X98911029Y-128680580D01*
X98911029Y-128680580D02*
X98911029Y-128775819D01*
X99291981Y-127775819D02*
X99911028Y-127775819D01*
X99911028Y-127775819D02*
X99577695Y-128156771D01*
X99577695Y-128156771D02*
X99720552Y-128156771D01*
X99720552Y-128156771D02*
X99815790Y-128204390D01*
X99815790Y-128204390D02*
X99863409Y-128252009D01*
X99863409Y-128252009D02*
X99911028Y-128347247D01*
X99911028Y-128347247D02*
X99911028Y-128585342D01*
X99911028Y-128585342D02*
X99863409Y-128680580D01*
X99863409Y-128680580D02*
X99815790Y-128728200D01*
X99815790Y-128728200D02*
X99720552Y-128775819D01*
X99720552Y-128775819D02*
X99434838Y-128775819D01*
X99434838Y-128775819D02*
X99339600Y-128728200D01*
X99339600Y-128728200D02*
X99291981Y-128680580D01*
X100196743Y-127775819D02*
X100530076Y-128775819D01*
X100530076Y-128775819D02*
X100863409Y-127775819D01*
D10*
X109816931Y-113238014D02*
X109566931Y-112880871D01*
X109388360Y-113238014D02*
X109388360Y-112488014D01*
X109388360Y-112488014D02*
X109674074Y-112488014D01*
X109674074Y-112488014D02*
X109745503Y-112523728D01*
X109745503Y-112523728D02*
X109781217Y-112559442D01*
X109781217Y-112559442D02*
X109816931Y-112630871D01*
X109816931Y-112630871D02*
X109816931Y-112738014D01*
X109816931Y-112738014D02*
X109781217Y-112809442D01*
X109781217Y-112809442D02*
X109745503Y-112845157D01*
X109745503Y-112845157D02*
X109674074Y-112880871D01*
X109674074Y-112880871D02*
X109388360Y-112880871D01*
X110138360Y-113238014D02*
X110138360Y-112488014D01*
X110138360Y-112488014D02*
X110566931Y-113238014D01*
X110566931Y-113238014D02*
X110566931Y-112488014D01*
D11*
X114623913Y-111969100D02*
X114659627Y-111981004D01*
X114659627Y-111981004D02*
X114719151Y-111981004D01*
X114719151Y-111981004D02*
X114742960Y-111969100D01*
X114742960Y-111969100D02*
X114754865Y-111957195D01*
X114754865Y-111957195D02*
X114766770Y-111933385D01*
X114766770Y-111933385D02*
X114766770Y-111909576D01*
X114766770Y-111909576D02*
X114754865Y-111885766D01*
X114754865Y-111885766D02*
X114742960Y-111873861D01*
X114742960Y-111873861D02*
X114719151Y-111861957D01*
X114719151Y-111861957D02*
X114671532Y-111850052D01*
X114671532Y-111850052D02*
X114647722Y-111838147D01*
X114647722Y-111838147D02*
X114635817Y-111826242D01*
X114635817Y-111826242D02*
X114623913Y-111802433D01*
X114623913Y-111802433D02*
X114623913Y-111778623D01*
X114623913Y-111778623D02*
X114635817Y-111754814D01*
X114635817Y-111754814D02*
X114647722Y-111742909D01*
X114647722Y-111742909D02*
X114671532Y-111731004D01*
X114671532Y-111731004D02*
X114731055Y-111731004D01*
X114731055Y-111731004D02*
X114766770Y-111742909D01*
X114873912Y-111981004D02*
X114873912Y-111731004D01*
X114873912Y-111731004D02*
X114969150Y-111731004D01*
X114969150Y-111731004D02*
X114992960Y-111742909D01*
X114992960Y-111742909D02*
X115004865Y-111754814D01*
X115004865Y-111754814D02*
X115016769Y-111778623D01*
X115016769Y-111778623D02*
X115016769Y-111814338D01*
X115016769Y-111814338D02*
X115004865Y-111838147D01*
X115004865Y-111838147D02*
X114992960Y-111850052D01*
X114992960Y-111850052D02*
X114969150Y-111861957D01*
X114969150Y-111861957D02*
X114873912Y-111861957D01*
X115123912Y-111981004D02*
X115123912Y-111731004D01*
X115266769Y-111981004D02*
X115159627Y-111838147D01*
X115266769Y-111731004D02*
X115123912Y-111873861D01*
X115314389Y-112004814D02*
X115504865Y-112004814D01*
X115683436Y-111981004D02*
X115564388Y-111981004D01*
X115564388Y-111981004D02*
X115564388Y-111731004D01*
X115766769Y-111981004D02*
X115766769Y-111731004D01*
X115766769Y-111731004D02*
X115862007Y-111731004D01*
X115862007Y-111731004D02*
X115885817Y-111742909D01*
X115885817Y-111742909D02*
X115897722Y-111754814D01*
X115897722Y-111754814D02*
X115909626Y-111778623D01*
X115909626Y-111778623D02*
X115909626Y-111814338D01*
X115909626Y-111814338D02*
X115897722Y-111838147D01*
X115897722Y-111838147D02*
X115885817Y-111850052D01*
X115885817Y-111850052D02*
X115862007Y-111861957D01*
X115862007Y-111861957D02*
X115766769Y-111861957D01*
X113544874Y-99892195D02*
X113532970Y-99904100D01*
X113532970Y-99904100D02*
X113497255Y-99916004D01*
X113497255Y-99916004D02*
X113473446Y-99916004D01*
X113473446Y-99916004D02*
X113437732Y-99904100D01*
X113437732Y-99904100D02*
X113413922Y-99880290D01*
X113413922Y-99880290D02*
X113402017Y-99856480D01*
X113402017Y-99856480D02*
X113390113Y-99808861D01*
X113390113Y-99808861D02*
X113390113Y-99773147D01*
X113390113Y-99773147D02*
X113402017Y-99725528D01*
X113402017Y-99725528D02*
X113413922Y-99701719D01*
X113413922Y-99701719D02*
X113437732Y-99677909D01*
X113437732Y-99677909D02*
X113473446Y-99666004D01*
X113473446Y-99666004D02*
X113497255Y-99666004D01*
X113497255Y-99666004D02*
X113532970Y-99677909D01*
X113532970Y-99677909D02*
X113544874Y-99689814D01*
X113640113Y-99844576D02*
X113759160Y-99844576D01*
X113616303Y-99916004D02*
X113699636Y-99666004D01*
X113699636Y-99666004D02*
X113782970Y-99916004D01*
X113866303Y-99916004D02*
X113866303Y-99666004D01*
X113866303Y-99666004D02*
X113949637Y-99844576D01*
X113949637Y-99844576D02*
X114032970Y-99666004D01*
X114032970Y-99666004D02*
X114032970Y-99916004D01*
X114282970Y-99916004D02*
X114140113Y-99916004D01*
X114211541Y-99916004D02*
X114211541Y-99666004D01*
X114211541Y-99666004D02*
X114187732Y-99701719D01*
X114187732Y-99701719D02*
X114163922Y-99725528D01*
X114163922Y-99725528D02*
X114140113Y-99737433D01*
X114330589Y-99939814D02*
X114521065Y-99939814D01*
X114580588Y-99916004D02*
X114580588Y-99666004D01*
X114580588Y-99666004D02*
X114640112Y-99666004D01*
X114640112Y-99666004D02*
X114675826Y-99677909D01*
X114675826Y-99677909D02*
X114699636Y-99701719D01*
X114699636Y-99701719D02*
X114711541Y-99725528D01*
X114711541Y-99725528D02*
X114723445Y-99773147D01*
X114723445Y-99773147D02*
X114723445Y-99808861D01*
X114723445Y-99808861D02*
X114711541Y-99856480D01*
X114711541Y-99856480D02*
X114699636Y-99880290D01*
X114699636Y-99880290D02*
X114675826Y-99904100D01*
X114675826Y-99904100D02*
X114640112Y-99916004D01*
X114640112Y-99916004D02*
X114580588Y-99916004D01*
X114830588Y-99916004D02*
X114830588Y-99666004D01*
X114830588Y-99666004D02*
X114925826Y-99666004D01*
X114925826Y-99666004D02*
X114949636Y-99677909D01*
X114949636Y-99677909D02*
X114961541Y-99689814D01*
X114961541Y-99689814D02*
X114973445Y-99713623D01*
X114973445Y-99713623D02*
X114973445Y-99749338D01*
X114973445Y-99749338D02*
X114961541Y-99773147D01*
X114961541Y-99773147D02*
X114949636Y-99785052D01*
X114949636Y-99785052D02*
X114925826Y-99796957D01*
X114925826Y-99796957D02*
X114830588Y-99796957D01*
X115056779Y-99666004D02*
X115211541Y-99666004D01*
X115211541Y-99666004D02*
X115128207Y-99761242D01*
X115128207Y-99761242D02*
X115163922Y-99761242D01*
X115163922Y-99761242D02*
X115187731Y-99773147D01*
X115187731Y-99773147D02*
X115199636Y-99785052D01*
X115199636Y-99785052D02*
X115211541Y-99808861D01*
X115211541Y-99808861D02*
X115211541Y-99868385D01*
X115211541Y-99868385D02*
X115199636Y-99892195D01*
X115199636Y-99892195D02*
X115187731Y-99904100D01*
X115187731Y-99904100D02*
X115163922Y-99916004D01*
X115163922Y-99916004D02*
X115092493Y-99916004D01*
X115092493Y-99916004D02*
X115068684Y-99904100D01*
X115068684Y-99904100D02*
X115056779Y-99892195D01*
D10*
X109316931Y-88866014D02*
X109781217Y-88866014D01*
X109781217Y-88866014D02*
X109531217Y-89151728D01*
X109531217Y-89151728D02*
X109638360Y-89151728D01*
X109638360Y-89151728D02*
X109709789Y-89187442D01*
X109709789Y-89187442D02*
X109745503Y-89223157D01*
X109745503Y-89223157D02*
X109781217Y-89294585D01*
X109781217Y-89294585D02*
X109781217Y-89473157D01*
X109781217Y-89473157D02*
X109745503Y-89544585D01*
X109745503Y-89544585D02*
X109709789Y-89580300D01*
X109709789Y-89580300D02*
X109638360Y-89616014D01*
X109638360Y-89616014D02*
X109424074Y-89616014D01*
X109424074Y-89616014D02*
X109352646Y-89580300D01*
X109352646Y-89580300D02*
X109316931Y-89544585D01*
X110424075Y-89116014D02*
X110424075Y-89616014D01*
X110245503Y-88830300D02*
X110066932Y-89366014D01*
X110066932Y-89366014D02*
X110531217Y-89366014D01*
D11*
X114650570Y-95715509D02*
X114626760Y-95703604D01*
X114626760Y-95703604D02*
X114591046Y-95703604D01*
X114591046Y-95703604D02*
X114555332Y-95715509D01*
X114555332Y-95715509D02*
X114531522Y-95739319D01*
X114531522Y-95739319D02*
X114519617Y-95763128D01*
X114519617Y-95763128D02*
X114507713Y-95810747D01*
X114507713Y-95810747D02*
X114507713Y-95846461D01*
X114507713Y-95846461D02*
X114519617Y-95894080D01*
X114519617Y-95894080D02*
X114531522Y-95917890D01*
X114531522Y-95917890D02*
X114555332Y-95941700D01*
X114555332Y-95941700D02*
X114591046Y-95953604D01*
X114591046Y-95953604D02*
X114614855Y-95953604D01*
X114614855Y-95953604D02*
X114650570Y-95941700D01*
X114650570Y-95941700D02*
X114662474Y-95929795D01*
X114662474Y-95929795D02*
X114662474Y-95846461D01*
X114662474Y-95846461D02*
X114614855Y-95846461D01*
X114769617Y-95953604D02*
X114769617Y-95703604D01*
X114769617Y-95703604D02*
X114912474Y-95953604D01*
X114912474Y-95953604D02*
X114912474Y-95703604D01*
X115031522Y-95953604D02*
X115031522Y-95703604D01*
X115031522Y-95703604D02*
X115091046Y-95703604D01*
X115091046Y-95703604D02*
X115126760Y-95715509D01*
X115126760Y-95715509D02*
X115150570Y-95739319D01*
X115150570Y-95739319D02*
X115162475Y-95763128D01*
X115162475Y-95763128D02*
X115174379Y-95810747D01*
X115174379Y-95810747D02*
X115174379Y-95846461D01*
X115174379Y-95846461D02*
X115162475Y-95894080D01*
X115162475Y-95894080D02*
X115150570Y-95917890D01*
X115150570Y-95917890D02*
X115126760Y-95941700D01*
X115126760Y-95941700D02*
X115091046Y-95953604D01*
X115091046Y-95953604D02*
X115031522Y-95953604D01*
X113656017Y-106016004D02*
X113656017Y-106218385D01*
X113656017Y-106218385D02*
X113667922Y-106242195D01*
X113667922Y-106242195D02*
X113679827Y-106254100D01*
X113679827Y-106254100D02*
X113703636Y-106266004D01*
X113703636Y-106266004D02*
X113751255Y-106266004D01*
X113751255Y-106266004D02*
X113775065Y-106254100D01*
X113775065Y-106254100D02*
X113786970Y-106242195D01*
X113786970Y-106242195D02*
X113798874Y-106218385D01*
X113798874Y-106218385D02*
X113798874Y-106016004D01*
X113906018Y-106254100D02*
X113941732Y-106266004D01*
X113941732Y-106266004D02*
X114001256Y-106266004D01*
X114001256Y-106266004D02*
X114025065Y-106254100D01*
X114025065Y-106254100D02*
X114036970Y-106242195D01*
X114036970Y-106242195D02*
X114048875Y-106218385D01*
X114048875Y-106218385D02*
X114048875Y-106194576D01*
X114048875Y-106194576D02*
X114036970Y-106170766D01*
X114036970Y-106170766D02*
X114025065Y-106158861D01*
X114025065Y-106158861D02*
X114001256Y-106146957D01*
X114001256Y-106146957D02*
X113953637Y-106135052D01*
X113953637Y-106135052D02*
X113929827Y-106123147D01*
X113929827Y-106123147D02*
X113917922Y-106111242D01*
X113917922Y-106111242D02*
X113906018Y-106087433D01*
X113906018Y-106087433D02*
X113906018Y-106063623D01*
X113906018Y-106063623D02*
X113917922Y-106039814D01*
X113917922Y-106039814D02*
X113929827Y-106027909D01*
X113929827Y-106027909D02*
X113953637Y-106016004D01*
X113953637Y-106016004D02*
X114013160Y-106016004D01*
X114013160Y-106016004D02*
X114048875Y-106027909D01*
X114239351Y-106135052D02*
X114275065Y-106146957D01*
X114275065Y-106146957D02*
X114286970Y-106158861D01*
X114286970Y-106158861D02*
X114298874Y-106182671D01*
X114298874Y-106182671D02*
X114298874Y-106218385D01*
X114298874Y-106218385D02*
X114286970Y-106242195D01*
X114286970Y-106242195D02*
X114275065Y-106254100D01*
X114275065Y-106254100D02*
X114251255Y-106266004D01*
X114251255Y-106266004D02*
X114156017Y-106266004D01*
X114156017Y-106266004D02*
X114156017Y-106016004D01*
X114156017Y-106016004D02*
X114239351Y-106016004D01*
X114239351Y-106016004D02*
X114263160Y-106027909D01*
X114263160Y-106027909D02*
X114275065Y-106039814D01*
X114275065Y-106039814D02*
X114286970Y-106063623D01*
X114286970Y-106063623D02*
X114286970Y-106087433D01*
X114286970Y-106087433D02*
X114275065Y-106111242D01*
X114275065Y-106111242D02*
X114263160Y-106123147D01*
X114263160Y-106123147D02*
X114239351Y-106135052D01*
X114239351Y-106135052D02*
X114156017Y-106135052D01*
X114513160Y-106099338D02*
X114513160Y-106266004D01*
X114453636Y-106004100D02*
X114394113Y-106182671D01*
X114394113Y-106182671D02*
X114548874Y-106182671D01*
X114584589Y-106289814D02*
X114775065Y-106289814D01*
X114834588Y-106266004D02*
X114834588Y-106016004D01*
X114834588Y-106016004D02*
X114894112Y-106016004D01*
X114894112Y-106016004D02*
X114929826Y-106027909D01*
X114929826Y-106027909D02*
X114953636Y-106051719D01*
X114953636Y-106051719D02*
X114965541Y-106075528D01*
X114965541Y-106075528D02*
X114977445Y-106123147D01*
X114977445Y-106123147D02*
X114977445Y-106158861D01*
X114977445Y-106158861D02*
X114965541Y-106206480D01*
X114965541Y-106206480D02*
X114953636Y-106230290D01*
X114953636Y-106230290D02*
X114929826Y-106254100D01*
X114929826Y-106254100D02*
X114894112Y-106266004D01*
X114894112Y-106266004D02*
X114834588Y-106266004D01*
X115084588Y-106170766D02*
X115275065Y-106170766D01*
D10*
X109709789Y-78956014D02*
X109709789Y-79456014D01*
X109531217Y-78670300D02*
X109352646Y-79206014D01*
X109352646Y-79206014D02*
X109816931Y-79206014D01*
X110066932Y-78777442D02*
X110102646Y-78741728D01*
X110102646Y-78741728D02*
X110174075Y-78706014D01*
X110174075Y-78706014D02*
X110352646Y-78706014D01*
X110352646Y-78706014D02*
X110424075Y-78741728D01*
X110424075Y-78741728D02*
X110459789Y-78777442D01*
X110459789Y-78777442D02*
X110495503Y-78848871D01*
X110495503Y-78848871D02*
X110495503Y-78920300D01*
X110495503Y-78920300D02*
X110459789Y-79027442D01*
X110459789Y-79027442D02*
X110031217Y-79456014D01*
X110031217Y-79456014D02*
X110495503Y-79456014D01*
D12*
X101771143Y-123243360D02*
X101899715Y-123290979D01*
X101899715Y-123290979D02*
X102114000Y-123290979D01*
X102114000Y-123290979D02*
X102199715Y-123243360D01*
X102199715Y-123243360D02*
X102242572Y-123195740D01*
X102242572Y-123195740D02*
X102285429Y-123100502D01*
X102285429Y-123100502D02*
X102285429Y-123005264D01*
X102285429Y-123005264D02*
X102242572Y-122910026D01*
X102242572Y-122910026D02*
X102199715Y-122862407D01*
X102199715Y-122862407D02*
X102114000Y-122814788D01*
X102114000Y-122814788D02*
X101942572Y-122767169D01*
X101942572Y-122767169D02*
X101856857Y-122719550D01*
X101856857Y-122719550D02*
X101814000Y-122671931D01*
X101814000Y-122671931D02*
X101771143Y-122576693D01*
X101771143Y-122576693D02*
X101771143Y-122481455D01*
X101771143Y-122481455D02*
X101814000Y-122386217D01*
X101814000Y-122386217D02*
X101856857Y-122338598D01*
X101856857Y-122338598D02*
X101942572Y-122290979D01*
X101942572Y-122290979D02*
X102156857Y-122290979D01*
X102156857Y-122290979D02*
X102285429Y-122338598D01*
X102671143Y-123290979D02*
X102671143Y-122290979D01*
X102671143Y-122290979D02*
X103014000Y-122290979D01*
X103014000Y-122290979D02*
X103099715Y-122338598D01*
X103099715Y-122338598D02*
X103142572Y-122386217D01*
X103142572Y-122386217D02*
X103185429Y-122481455D01*
X103185429Y-122481455D02*
X103185429Y-122624312D01*
X103185429Y-122624312D02*
X103142572Y-122719550D01*
X103142572Y-122719550D02*
X103099715Y-122767169D01*
X103099715Y-122767169D02*
X103014000Y-122814788D01*
X103014000Y-122814788D02*
X102671143Y-122814788D01*
X103571143Y-123290979D02*
X103571143Y-122290979D01*
X104085429Y-123290979D02*
X103699715Y-122719550D01*
X104085429Y-122290979D02*
X103571143Y-122862407D01*
X104256858Y-123386217D02*
X104942572Y-123386217D01*
X105585429Y-123290979D02*
X105156857Y-123290979D01*
X105156857Y-123290979D02*
X105156857Y-122290979D01*
X106356857Y-123290979D02*
X105842571Y-123290979D01*
X106099714Y-123290979D02*
X106099714Y-122290979D01*
X106099714Y-122290979D02*
X106014000Y-122433836D01*
X106014000Y-122433836D02*
X105928285Y-122529074D01*
X105928285Y-122529074D02*
X105842571Y-122576693D01*
D13*
X103329133Y-98327580D02*
X103281514Y-98375200D01*
X103281514Y-98375200D02*
X103138657Y-98422819D01*
X103138657Y-98422819D02*
X103043419Y-98422819D01*
X103043419Y-98422819D02*
X102900562Y-98375200D01*
X102900562Y-98375200D02*
X102805324Y-98279961D01*
X102805324Y-98279961D02*
X102757705Y-98184723D01*
X102757705Y-98184723D02*
X102710086Y-97994247D01*
X102710086Y-97994247D02*
X102710086Y-97851390D01*
X102710086Y-97851390D02*
X102757705Y-97660914D01*
X102757705Y-97660914D02*
X102805324Y-97565676D01*
X102805324Y-97565676D02*
X102900562Y-97470438D01*
X102900562Y-97470438D02*
X103043419Y-97422819D01*
X103043419Y-97422819D02*
X103138657Y-97422819D01*
X103138657Y-97422819D02*
X103281514Y-97470438D01*
X103281514Y-97470438D02*
X103329133Y-97518057D01*
X103710086Y-98137104D02*
X104186276Y-98137104D01*
X103614848Y-98422819D02*
X103948181Y-97422819D01*
X103948181Y-97422819D02*
X104281514Y-98422819D01*
X104614848Y-98422819D02*
X104614848Y-97422819D01*
X104614848Y-97422819D02*
X104948181Y-98137104D01*
X104948181Y-98137104D02*
X105281514Y-97422819D01*
X105281514Y-97422819D02*
X105281514Y-98422819D01*
X106281514Y-98422819D02*
X105710086Y-98422819D01*
X105995800Y-98422819D02*
X105995800Y-97422819D01*
X105995800Y-97422819D02*
X105900562Y-97565676D01*
X105900562Y-97565676D02*
X105805324Y-97660914D01*
X105805324Y-97660914D02*
X105710086Y-97708533D01*
D12*
X94154469Y-75685837D02*
X94154469Y-75590599D01*
X94154469Y-75590599D02*
X94130660Y-75542980D01*
X94130660Y-75542980D02*
X94106850Y-75519171D01*
X94106850Y-75519171D02*
X94035421Y-75471552D01*
X94035421Y-75471552D02*
X93940183Y-75447742D01*
X93940183Y-75447742D02*
X93749707Y-75447742D01*
X93749707Y-75447742D02*
X93702088Y-75471552D01*
X93702088Y-75471552D02*
X93678279Y-75495361D01*
X93678279Y-75495361D02*
X93654469Y-75542980D01*
X93654469Y-75542980D02*
X93654469Y-75638218D01*
X93654469Y-75638218D02*
X93678279Y-75685837D01*
X93678279Y-75685837D02*
X93702088Y-75709647D01*
X93702088Y-75709647D02*
X93749707Y-75733456D01*
X93749707Y-75733456D02*
X93868755Y-75733456D01*
X93868755Y-75733456D02*
X93916374Y-75709647D01*
X93916374Y-75709647D02*
X93940183Y-75685837D01*
X93940183Y-75685837D02*
X93963993Y-75638218D01*
X93963993Y-75638218D02*
X93963993Y-75542980D01*
X93963993Y-75542980D02*
X93940183Y-75495361D01*
X93940183Y-75495361D02*
X93916374Y-75471552D01*
X93916374Y-75471552D02*
X93868755Y-75447742D01*
X99386869Y-75889037D02*
X99386869Y-76174751D01*
X99386869Y-76031894D02*
X98886869Y-76031894D01*
X98886869Y-76031894D02*
X98958298Y-76079513D01*
X98958298Y-76079513D02*
X99005917Y-76127132D01*
X99005917Y-76127132D02*
X99029726Y-76174751D01*
X98886869Y-75722371D02*
X98886869Y-75412847D01*
X98886869Y-75412847D02*
X99077345Y-75579514D01*
X99077345Y-75579514D02*
X99077345Y-75508085D01*
X99077345Y-75508085D02*
X99101155Y-75460466D01*
X99101155Y-75460466D02*
X99124964Y-75436657D01*
X99124964Y-75436657D02*
X99172583Y-75412847D01*
X99172583Y-75412847D02*
X99291631Y-75412847D01*
X99291631Y-75412847D02*
X99339250Y-75436657D01*
X99339250Y-75436657D02*
X99363060Y-75460466D01*
X99363060Y-75460466D02*
X99386869Y-75508085D01*
X99386869Y-75508085D02*
X99386869Y-75650942D01*
X99386869Y-75650942D02*
X99363060Y-75698561D01*
X99363060Y-75698561D02*
X99339250Y-75722371D01*
X96745269Y-75812837D02*
X96745269Y-76098551D01*
X96745269Y-75955694D02*
X96245269Y-75955694D01*
X96245269Y-75955694D02*
X96316698Y-76003313D01*
X96316698Y-76003313D02*
X96364317Y-76050932D01*
X96364317Y-76050932D02*
X96388126Y-76098551D01*
X96745269Y-75336647D02*
X96745269Y-75622361D01*
X96745269Y-75479504D02*
X96245269Y-75479504D01*
X96245269Y-75479504D02*
X96316698Y-75527123D01*
X96316698Y-75527123D02*
X96364317Y-75574742D01*
X96364317Y-75574742D02*
X96388126Y-75622361D01*
X88701469Y-75496952D02*
X88701469Y-75735047D01*
X88701469Y-75735047D02*
X88939564Y-75758856D01*
X88939564Y-75758856D02*
X88915755Y-75735047D01*
X88915755Y-75735047D02*
X88891945Y-75687428D01*
X88891945Y-75687428D02*
X88891945Y-75568380D01*
X88891945Y-75568380D02*
X88915755Y-75520761D01*
X88915755Y-75520761D02*
X88939564Y-75496952D01*
X88939564Y-75496952D02*
X88987183Y-75473142D01*
X88987183Y-75473142D02*
X89106231Y-75473142D01*
X89106231Y-75473142D02*
X89153850Y-75496952D01*
X89153850Y-75496952D02*
X89177660Y-75520761D01*
X89177660Y-75520761D02*
X89201469Y-75568380D01*
X89201469Y-75568380D02*
X89201469Y-75687428D01*
X89201469Y-75687428D02*
X89177660Y-75735047D01*
X89177660Y-75735047D02*
X89153850Y-75758856D01*
X84146869Y-75422342D02*
X84146869Y-75708056D01*
X84146869Y-75565199D02*
X83646869Y-75565199D01*
X83646869Y-75565199D02*
X83718298Y-75612818D01*
X83718298Y-75612818D02*
X83765917Y-75660437D01*
X83765917Y-75660437D02*
X83789726Y-75708056D01*
X86237669Y-75808066D02*
X86237669Y-75498542D01*
X86237669Y-75498542D02*
X86428145Y-75665209D01*
X86428145Y-75665209D02*
X86428145Y-75593780D01*
X86428145Y-75593780D02*
X86451955Y-75546161D01*
X86451955Y-75546161D02*
X86475764Y-75522352D01*
X86475764Y-75522352D02*
X86523383Y-75498542D01*
X86523383Y-75498542D02*
X86642431Y-75498542D01*
X86642431Y-75498542D02*
X86690050Y-75522352D01*
X86690050Y-75522352D02*
X86713860Y-75546161D01*
X86713860Y-75546161D02*
X86737669Y-75593780D01*
X86737669Y-75593780D02*
X86737669Y-75736637D01*
X86737669Y-75736637D02*
X86713860Y-75784256D01*
X86713860Y-75784256D02*
X86690050Y-75808066D01*
D13*
X102503705Y-118631819D02*
X102503705Y-119441342D01*
X102503705Y-119441342D02*
X102551324Y-119536580D01*
X102551324Y-119536580D02*
X102598943Y-119584200D01*
X102598943Y-119584200D02*
X102694181Y-119631819D01*
X102694181Y-119631819D02*
X102884657Y-119631819D01*
X102884657Y-119631819D02*
X102979895Y-119584200D01*
X102979895Y-119584200D02*
X103027514Y-119536580D01*
X103027514Y-119536580D02*
X103075133Y-119441342D01*
X103075133Y-119441342D02*
X103075133Y-118631819D01*
X103503705Y-119584200D02*
X103646562Y-119631819D01*
X103646562Y-119631819D02*
X103884657Y-119631819D01*
X103884657Y-119631819D02*
X103979895Y-119584200D01*
X103979895Y-119584200D02*
X104027514Y-119536580D01*
X104027514Y-119536580D02*
X104075133Y-119441342D01*
X104075133Y-119441342D02*
X104075133Y-119346104D01*
X104075133Y-119346104D02*
X104027514Y-119250866D01*
X104027514Y-119250866D02*
X103979895Y-119203247D01*
X103979895Y-119203247D02*
X103884657Y-119155628D01*
X103884657Y-119155628D02*
X103694181Y-119108009D01*
X103694181Y-119108009D02*
X103598943Y-119060390D01*
X103598943Y-119060390D02*
X103551324Y-119012771D01*
X103551324Y-119012771D02*
X103503705Y-118917533D01*
X103503705Y-118917533D02*
X103503705Y-118822295D01*
X103503705Y-118822295D02*
X103551324Y-118727057D01*
X103551324Y-118727057D02*
X103598943Y-118679438D01*
X103598943Y-118679438D02*
X103694181Y-118631819D01*
X103694181Y-118631819D02*
X103932276Y-118631819D01*
X103932276Y-118631819D02*
X104075133Y-118679438D01*
X104837038Y-119108009D02*
X104979895Y-119155628D01*
X104979895Y-119155628D02*
X105027514Y-119203247D01*
X105027514Y-119203247D02*
X105075133Y-119298485D01*
X105075133Y-119298485D02*
X105075133Y-119441342D01*
X105075133Y-119441342D02*
X105027514Y-119536580D01*
X105027514Y-119536580D02*
X104979895Y-119584200D01*
X104979895Y-119584200D02*
X104884657Y-119631819D01*
X104884657Y-119631819D02*
X104503705Y-119631819D01*
X104503705Y-119631819D02*
X104503705Y-118631819D01*
X104503705Y-118631819D02*
X104837038Y-118631819D01*
X104837038Y-118631819D02*
X104932276Y-118679438D01*
X104932276Y-118679438D02*
X104979895Y-118727057D01*
X104979895Y-118727057D02*
X105027514Y-118822295D01*
X105027514Y-118822295D02*
X105027514Y-118917533D01*
X105027514Y-118917533D02*
X104979895Y-119012771D01*
X104979895Y-119012771D02*
X104932276Y-119060390D01*
X104932276Y-119060390D02*
X104837038Y-119108009D01*
X104837038Y-119108009D02*
X104503705Y-119108009D01*
X105408467Y-118631819D02*
X106027514Y-118631819D01*
X106027514Y-118631819D02*
X105694181Y-119012771D01*
X105694181Y-119012771D02*
X105837038Y-119012771D01*
X105837038Y-119012771D02*
X105932276Y-119060390D01*
X105932276Y-119060390D02*
X105979895Y-119108009D01*
X105979895Y-119108009D02*
X106027514Y-119203247D01*
X106027514Y-119203247D02*
X106027514Y-119441342D01*
X106027514Y-119441342D02*
X105979895Y-119536580D01*
X105979895Y-119536580D02*
X105932276Y-119584200D01*
X105932276Y-119584200D02*
X105837038Y-119631819D01*
X105837038Y-119631819D02*
X105551324Y-119631819D01*
X105551324Y-119631819D02*
X105456086Y-119584200D01*
X105456086Y-119584200D02*
X105408467Y-119536580D01*
D12*
X101736228Y-112295960D02*
X101864800Y-112343579D01*
X101864800Y-112343579D02*
X102079085Y-112343579D01*
X102079085Y-112343579D02*
X102164800Y-112295960D01*
X102164800Y-112295960D02*
X102207657Y-112248340D01*
X102207657Y-112248340D02*
X102250514Y-112153102D01*
X102250514Y-112153102D02*
X102250514Y-112057864D01*
X102250514Y-112057864D02*
X102207657Y-111962626D01*
X102207657Y-111962626D02*
X102164800Y-111915007D01*
X102164800Y-111915007D02*
X102079085Y-111867388D01*
X102079085Y-111867388D02*
X101907657Y-111819769D01*
X101907657Y-111819769D02*
X101821942Y-111772150D01*
X101821942Y-111772150D02*
X101779085Y-111724531D01*
X101779085Y-111724531D02*
X101736228Y-111629293D01*
X101736228Y-111629293D02*
X101736228Y-111534055D01*
X101736228Y-111534055D02*
X101779085Y-111438817D01*
X101779085Y-111438817D02*
X101821942Y-111391198D01*
X101821942Y-111391198D02*
X101907657Y-111343579D01*
X101907657Y-111343579D02*
X102121942Y-111343579D01*
X102121942Y-111343579D02*
X102250514Y-111391198D01*
X102636228Y-112343579D02*
X102636228Y-111343579D01*
X102636228Y-111343579D02*
X102979085Y-111343579D01*
X102979085Y-111343579D02*
X103064800Y-111391198D01*
X103064800Y-111391198D02*
X103107657Y-111438817D01*
X103107657Y-111438817D02*
X103150514Y-111534055D01*
X103150514Y-111534055D02*
X103150514Y-111676912D01*
X103150514Y-111676912D02*
X103107657Y-111772150D01*
X103107657Y-111772150D02*
X103064800Y-111819769D01*
X103064800Y-111819769D02*
X102979085Y-111867388D01*
X102979085Y-111867388D02*
X102636228Y-111867388D01*
X103536228Y-112343579D02*
X103536228Y-111343579D01*
X104050514Y-112343579D02*
X103664800Y-111772150D01*
X104050514Y-111343579D02*
X103536228Y-111915007D01*
X104221943Y-112438817D02*
X104907657Y-112438817D01*
X105636228Y-112343579D02*
X105336228Y-111867388D01*
X105121942Y-112343579D02*
X105121942Y-111343579D01*
X105121942Y-111343579D02*
X105464799Y-111343579D01*
X105464799Y-111343579D02*
X105550514Y-111391198D01*
X105550514Y-111391198D02*
X105593371Y-111438817D01*
X105593371Y-111438817D02*
X105636228Y-111534055D01*
X105636228Y-111534055D02*
X105636228Y-111676912D01*
X105636228Y-111676912D02*
X105593371Y-111772150D01*
X105593371Y-111772150D02*
X105550514Y-111819769D01*
X105550514Y-111819769D02*
X105464799Y-111867388D01*
X105464799Y-111867388D02*
X105121942Y-111867388D01*
X106493371Y-112343579D02*
X105979085Y-112343579D01*
X106236228Y-112343579D02*
X106236228Y-111343579D01*
X106236228Y-111343579D02*
X106150514Y-111486436D01*
X106150514Y-111486436D02*
X106064799Y-111581674D01*
X106064799Y-111581674D02*
X105979085Y-111629293D01*
X91292269Y-75782666D02*
X91292269Y-75449333D01*
X91292269Y-75449333D02*
X91792269Y-75663618D01*
D13*
X102503705Y-114948819D02*
X102503705Y-115758342D01*
X102503705Y-115758342D02*
X102551324Y-115853580D01*
X102551324Y-115853580D02*
X102598943Y-115901200D01*
X102598943Y-115901200D02*
X102694181Y-115948819D01*
X102694181Y-115948819D02*
X102884657Y-115948819D01*
X102884657Y-115948819D02*
X102979895Y-115901200D01*
X102979895Y-115901200D02*
X103027514Y-115853580D01*
X103027514Y-115853580D02*
X103075133Y-115758342D01*
X103075133Y-115758342D02*
X103075133Y-114948819D01*
X103503705Y-115901200D02*
X103646562Y-115948819D01*
X103646562Y-115948819D02*
X103884657Y-115948819D01*
X103884657Y-115948819D02*
X103979895Y-115901200D01*
X103979895Y-115901200D02*
X104027514Y-115853580D01*
X104027514Y-115853580D02*
X104075133Y-115758342D01*
X104075133Y-115758342D02*
X104075133Y-115663104D01*
X104075133Y-115663104D02*
X104027514Y-115567866D01*
X104027514Y-115567866D02*
X103979895Y-115520247D01*
X103979895Y-115520247D02*
X103884657Y-115472628D01*
X103884657Y-115472628D02*
X103694181Y-115425009D01*
X103694181Y-115425009D02*
X103598943Y-115377390D01*
X103598943Y-115377390D02*
X103551324Y-115329771D01*
X103551324Y-115329771D02*
X103503705Y-115234533D01*
X103503705Y-115234533D02*
X103503705Y-115139295D01*
X103503705Y-115139295D02*
X103551324Y-115044057D01*
X103551324Y-115044057D02*
X103598943Y-114996438D01*
X103598943Y-114996438D02*
X103694181Y-114948819D01*
X103694181Y-114948819D02*
X103932276Y-114948819D01*
X103932276Y-114948819D02*
X104075133Y-114996438D01*
X104837038Y-115425009D02*
X104979895Y-115472628D01*
X104979895Y-115472628D02*
X105027514Y-115520247D01*
X105027514Y-115520247D02*
X105075133Y-115615485D01*
X105075133Y-115615485D02*
X105075133Y-115758342D01*
X105075133Y-115758342D02*
X105027514Y-115853580D01*
X105027514Y-115853580D02*
X104979895Y-115901200D01*
X104979895Y-115901200D02*
X104884657Y-115948819D01*
X104884657Y-115948819D02*
X104503705Y-115948819D01*
X104503705Y-115948819D02*
X104503705Y-114948819D01*
X104503705Y-114948819D02*
X104837038Y-114948819D01*
X104837038Y-114948819D02*
X104932276Y-114996438D01*
X104932276Y-114996438D02*
X104979895Y-115044057D01*
X104979895Y-115044057D02*
X105027514Y-115139295D01*
X105027514Y-115139295D02*
X105027514Y-115234533D01*
X105027514Y-115234533D02*
X104979895Y-115329771D01*
X104979895Y-115329771D02*
X104932276Y-115377390D01*
X104932276Y-115377390D02*
X104837038Y-115425009D01*
X104837038Y-115425009D02*
X104503705Y-115425009D01*
X105932276Y-115282152D02*
X105932276Y-115948819D01*
X105694181Y-114901200D02*
X105456086Y-115615485D01*
X105456086Y-115615485D02*
X106075133Y-115615485D01*
D12*
%TO.C,5V1*%
X90197600Y-127322800D02*
X90197600Y-126212800D01*
X90957600Y-127322800D02*
X90197600Y-127322800D01*
X91717600Y-125102800D02*
X96732600Y-125102800D01*
X91717600Y-125649329D02*
X91717600Y-125102800D01*
X91717600Y-127322800D02*
X91717600Y-126776271D01*
X91717600Y-127322800D02*
X96732600Y-127322800D01*
X96732600Y-125905270D02*
X96732600Y-125102800D01*
X96732600Y-127322800D02*
X96732600Y-126520330D01*
%TO.C,SPK_L1*%
X102529200Y-123758000D02*
X106529200Y-123758000D01*
X102529200Y-124278000D02*
X102529200Y-123758000D01*
X102529200Y-125028000D02*
X106529200Y-125028000D01*
X102529200Y-125548000D02*
X102529200Y-125028000D01*
X106529200Y-123323000D02*
X107649200Y-123323000D01*
X106529200Y-124278000D02*
X102529200Y-124278000D01*
X106529200Y-125128000D02*
X102529200Y-125128000D01*
X106529200Y-125248000D02*
X102529200Y-125248000D01*
X106529200Y-125368000D02*
X102529200Y-125368000D01*
X106529200Y-125488000D02*
X102529200Y-125488000D01*
X106529200Y-125548000D02*
X102529200Y-125548000D01*
X106529200Y-125983000D02*
X106529200Y-123323000D01*
X107329200Y-124653000D02*
X106529200Y-124653000D01*
X107329200Y-125983000D02*
X106529200Y-125983000D01*
X107649200Y-123323000D02*
X107649200Y-123398323D01*
X108849200Y-125288000D02*
X108849200Y-126048000D01*
X108849200Y-126048000D02*
X108089200Y-126048000D01*
%TO.C,CAM1*%
X102517200Y-98876400D02*
X106517200Y-98876400D01*
X102517200Y-99396400D02*
X102517200Y-98876400D01*
X102517200Y-100146400D02*
X106517200Y-100146400D01*
X102517200Y-100666400D02*
X102517200Y-100146400D01*
X102517200Y-101416400D02*
X106517200Y-101416400D01*
X102517200Y-101936400D02*
X102517200Y-101416400D01*
X102517200Y-102686400D02*
X106517200Y-102686400D01*
X102517200Y-103206400D02*
X102517200Y-102686400D01*
X102517200Y-103956400D02*
X106517200Y-103956400D01*
X102517200Y-104476400D02*
X102517200Y-103956400D01*
X102517200Y-105226400D02*
X106517200Y-105226400D01*
X102517200Y-105746400D02*
X102517200Y-105226400D01*
X102517200Y-106496400D02*
X106517200Y-106496400D01*
X102517200Y-107016400D02*
X102517200Y-106496400D01*
X102517200Y-107766400D02*
X106517200Y-107766400D01*
X102517200Y-108286400D02*
X102517200Y-107766400D01*
X102517200Y-109036400D02*
X106517200Y-109036400D01*
X102517200Y-109556400D02*
X102517200Y-109036400D01*
X102517200Y-110306400D02*
X106517200Y-110306400D01*
X102517200Y-110826400D02*
X102517200Y-110306400D01*
X106517200Y-98441400D02*
X107637200Y-98441400D01*
X106517200Y-99396400D02*
X102517200Y-99396400D01*
X106517200Y-100666400D02*
X102517200Y-100666400D01*
X106517200Y-101936400D02*
X102517200Y-101936400D01*
X106517200Y-103206400D02*
X102517200Y-103206400D01*
X106517200Y-104476400D02*
X102517200Y-104476400D01*
X106517200Y-105746400D02*
X102517200Y-105746400D01*
X106517200Y-107016400D02*
X102517200Y-107016400D01*
X106517200Y-108286400D02*
X102517200Y-108286400D01*
X106517200Y-109556400D02*
X102517200Y-109556400D01*
X106517200Y-110406400D02*
X102517200Y-110406400D01*
X106517200Y-110526400D02*
X102517200Y-110526400D01*
X106517200Y-110646400D02*
X102517200Y-110646400D01*
X106517200Y-110766400D02*
X102517200Y-110766400D01*
X106517200Y-110826400D02*
X102517200Y-110826400D01*
X106517200Y-111261400D02*
X106517200Y-98441400D01*
X107317200Y-109931400D02*
X106517200Y-109931400D01*
X107317200Y-111261400D02*
X106517200Y-111261400D01*
X107637200Y-98441400D02*
X107637200Y-98516723D01*
X107637200Y-99771400D02*
X106517200Y-99771400D01*
X107637200Y-99786723D02*
X107637200Y-99756077D01*
X107637200Y-101041400D02*
X106517200Y-101041400D01*
X107637200Y-101056723D02*
X107637200Y-101026077D01*
X107637200Y-102311400D02*
X106517200Y-102311400D01*
X107637200Y-102326723D02*
X107637200Y-102296077D01*
X107637200Y-103581400D02*
X106517200Y-103581400D01*
X107637200Y-103596723D02*
X107637200Y-103566077D01*
X107637200Y-104851400D02*
X106517200Y-104851400D01*
X107637200Y-104866723D02*
X107637200Y-104836077D01*
X107637200Y-106121400D02*
X106517200Y-106121400D01*
X107637200Y-106136723D02*
X107637200Y-106106077D01*
X107637200Y-107391400D02*
X106517200Y-107391400D01*
X107637200Y-107406723D02*
X107637200Y-107376077D01*
X107637200Y-108661400D02*
X106517200Y-108661400D01*
X107637200Y-108676723D02*
X107637200Y-108646077D01*
X108837200Y-110566400D02*
X108837200Y-111326400D01*
X108837200Y-111326400D02*
X108077200Y-111326400D01*
%TO.C,GROUND1*%
X90242200Y-73097000D02*
X90242200Y-73899470D01*
X90242200Y-74514530D02*
X90242200Y-75317000D01*
X99067200Y-73097000D02*
X90242200Y-73097000D01*
X99067200Y-73097000D02*
X99067200Y-73643529D01*
X99067200Y-74770471D02*
X99067200Y-75317000D01*
X99067200Y-75317000D02*
X90242200Y-75317000D01*
X99827200Y-73097000D02*
X100587200Y-73097000D01*
X100587200Y-73097000D02*
X100587200Y-74207000D01*
%TO.C,9*%
X93182600Y-76282200D02*
X93182600Y-124662200D01*
X93182600Y-76282200D02*
X93825070Y-76282200D01*
X93182600Y-124662200D02*
X93825070Y-124662200D01*
X94440130Y-76282200D02*
X94642600Y-76282200D01*
X94440130Y-124662200D02*
X95095070Y-124662200D01*
X95402600Y-76217200D02*
X96352600Y-76217200D01*
X95710130Y-124662200D02*
X96352600Y-124662200D01*
X96162600Y-77612200D02*
X96352600Y-77612200D01*
X96352600Y-76217200D02*
X96352600Y-76977200D01*
X96352600Y-77612200D02*
X96352600Y-124662200D01*
%TO.C,13*%
X98262600Y-76267200D02*
X98262600Y-124647200D01*
X98262600Y-76267200D02*
X98905070Y-76267200D01*
X98262600Y-124647200D02*
X98905070Y-124647200D01*
X99520130Y-76267200D02*
X99722600Y-76267200D01*
X99520130Y-124647200D02*
X100175070Y-124647200D01*
X100482600Y-76202200D02*
X101432600Y-76202200D01*
X100790130Y-124647200D02*
X101432600Y-124647200D01*
X101242600Y-77597200D02*
X101432600Y-77597200D01*
X101432600Y-76202200D02*
X101432600Y-76962200D01*
X101432600Y-77597200D02*
X101432600Y-124647200D01*
%TO.C,11*%
X95722600Y-76267200D02*
X95722600Y-124647200D01*
X95722600Y-76267200D02*
X96365070Y-76267200D01*
X95722600Y-124647200D02*
X96365070Y-124647200D01*
X96980130Y-76267200D02*
X97182600Y-76267200D01*
X96980130Y-124647200D02*
X97635070Y-124647200D01*
X97942600Y-76202200D02*
X98892600Y-76202200D01*
X98250130Y-124647200D02*
X98892600Y-124647200D01*
X98702600Y-77597200D02*
X98892600Y-77597200D01*
X98892600Y-76202200D02*
X98892600Y-76962200D01*
X98892600Y-77597200D02*
X98892600Y-124647200D01*
%TO.C,GPIO1*%
X102517200Y-74924200D02*
X106517200Y-74924200D01*
X102517200Y-75444200D02*
X102517200Y-74924200D01*
X102517200Y-76194200D02*
X106517200Y-76194200D01*
X102517200Y-76714200D02*
X102517200Y-76194200D01*
X102517200Y-77464200D02*
X106517200Y-77464200D01*
X102517200Y-77984200D02*
X102517200Y-77464200D01*
X102517200Y-78734200D02*
X106517200Y-78734200D01*
X102517200Y-79254200D02*
X102517200Y-78734200D01*
X102517200Y-80004200D02*
X106517200Y-80004200D01*
X102517200Y-80524200D02*
X102517200Y-80004200D01*
X102517200Y-81274200D02*
X106517200Y-81274200D01*
X102517200Y-81794200D02*
X102517200Y-81274200D01*
X102517200Y-82544200D02*
X106517200Y-82544200D01*
X102517200Y-83064200D02*
X102517200Y-82544200D01*
X102517200Y-83814200D02*
X106517200Y-83814200D01*
X102517200Y-84334200D02*
X102517200Y-83814200D01*
X102517200Y-85084200D02*
X106517200Y-85084200D01*
X102517200Y-85604200D02*
X102517200Y-85084200D01*
X102517200Y-86354200D02*
X106517200Y-86354200D01*
X102517200Y-86874200D02*
X102517200Y-86354200D01*
X102517200Y-87624200D02*
X106517200Y-87624200D01*
X102517200Y-88144200D02*
X102517200Y-87624200D01*
X102517200Y-88894200D02*
X106517200Y-88894200D01*
X102517200Y-89414200D02*
X102517200Y-88894200D01*
X102517200Y-90164200D02*
X106517200Y-90164200D01*
X102517200Y-90684200D02*
X102517200Y-90164200D01*
X102517200Y-91434200D02*
X106517200Y-91434200D01*
X102517200Y-91954200D02*
X102517200Y-91434200D01*
X102517200Y-92704200D02*
X106517200Y-92704200D01*
X102517200Y-93224200D02*
X102517200Y-92704200D01*
X102517200Y-93974200D02*
X106517200Y-93974200D01*
X102517200Y-94494200D02*
X102517200Y-93974200D01*
X102517200Y-95244200D02*
X106517200Y-95244200D01*
X102517200Y-95764200D02*
X102517200Y-95244200D01*
X102517200Y-96514200D02*
X106517200Y-96514200D01*
X102517200Y-97034200D02*
X102517200Y-96514200D01*
X106517200Y-74489200D02*
X107637200Y-74489200D01*
X106517200Y-75444200D02*
X102517200Y-75444200D01*
X106517200Y-76714200D02*
X102517200Y-76714200D01*
X106517200Y-77984200D02*
X102517200Y-77984200D01*
X106517200Y-79254200D02*
X102517200Y-79254200D01*
X106517200Y-80524200D02*
X102517200Y-80524200D01*
X106517200Y-81794200D02*
X102517200Y-81794200D01*
X106517200Y-83064200D02*
X102517200Y-83064200D01*
X106517200Y-84334200D02*
X102517200Y-84334200D01*
X106517200Y-85604200D02*
X102517200Y-85604200D01*
X106517200Y-86874200D02*
X102517200Y-86874200D01*
X106517200Y-88144200D02*
X102517200Y-88144200D01*
X106517200Y-89414200D02*
X102517200Y-89414200D01*
X106517200Y-90684200D02*
X102517200Y-90684200D01*
X106517200Y-91954200D02*
X102517200Y-91954200D01*
X106517200Y-93224200D02*
X102517200Y-93224200D01*
X106517200Y-94494200D02*
X102517200Y-94494200D01*
X106517200Y-95764200D02*
X102517200Y-95764200D01*
X106517200Y-96614200D02*
X102517200Y-96614200D01*
X106517200Y-96734200D02*
X102517200Y-96734200D01*
X106517200Y-96854200D02*
X102517200Y-96854200D01*
X106517200Y-96974200D02*
X102517200Y-96974200D01*
X106517200Y-97034200D02*
X102517200Y-97034200D01*
X106517200Y-97469200D02*
X106517200Y-74489200D01*
X107317200Y-96139200D02*
X106517200Y-96139200D01*
X107317200Y-97469200D02*
X106517200Y-97469200D01*
X107637200Y-74489200D02*
X107637200Y-74564523D01*
X107637200Y-75819200D02*
X106517200Y-75819200D01*
X107637200Y-75834523D02*
X107637200Y-75803877D01*
X107637200Y-77089200D02*
X106517200Y-77089200D01*
X107637200Y-77104523D02*
X107637200Y-77073877D01*
X107637200Y-78359200D02*
X106517200Y-78359200D01*
X107637200Y-78374523D02*
X107637200Y-78343877D01*
X107637200Y-79629200D02*
X106517200Y-79629200D01*
X107637200Y-79644523D02*
X107637200Y-79613877D01*
X107637200Y-80899200D02*
X106517200Y-80899200D01*
X107637200Y-80914523D02*
X107637200Y-80883877D01*
X107637200Y-82169200D02*
X106517200Y-82169200D01*
X107637200Y-82184523D02*
X107637200Y-82153877D01*
X107637200Y-83439200D02*
X106517200Y-83439200D01*
X107637200Y-83454523D02*
X107637200Y-83423877D01*
X107637200Y-84709200D02*
X106517200Y-84709200D01*
X107637200Y-84724523D02*
X107637200Y-84693877D01*
X107637200Y-85979200D02*
X106517200Y-85979200D01*
X107637200Y-85994523D02*
X107637200Y-85963877D01*
X107637200Y-87249200D02*
X106517200Y-87249200D01*
X107637200Y-87264523D02*
X107637200Y-87233877D01*
X107637200Y-88519200D02*
X106517200Y-88519200D01*
X107637200Y-88534523D02*
X107637200Y-88503877D01*
X107637200Y-89789200D02*
X106517200Y-89789200D01*
X107637200Y-89804523D02*
X107637200Y-89773877D01*
X107637200Y-91059200D02*
X106517200Y-91059200D01*
X107637200Y-91074523D02*
X107637200Y-91043877D01*
X107637200Y-92329200D02*
X106517200Y-92329200D01*
X107637200Y-92344523D02*
X107637200Y-92313877D01*
X107637200Y-93599200D02*
X106517200Y-93599200D01*
X107637200Y-93614523D02*
X107637200Y-93583877D01*
X107637200Y-94869200D02*
X106517200Y-94869200D01*
X107637200Y-94884523D02*
X107637200Y-94853877D01*
X108837200Y-96774200D02*
X108837200Y-97534200D01*
X108837200Y-97534200D02*
X108077200Y-97534200D01*
%TO.C,5*%
X88102600Y-76267200D02*
X88102600Y-124647200D01*
X88102600Y-76267200D02*
X88745070Y-76267200D01*
X88102600Y-124647200D02*
X88745070Y-124647200D01*
X89360130Y-76267200D02*
X89562600Y-76267200D01*
X89360130Y-124647200D02*
X90015070Y-124647200D01*
X90322600Y-76202200D02*
X91272600Y-76202200D01*
X90630130Y-124647200D02*
X91272600Y-124647200D01*
X91082600Y-77597200D02*
X91272600Y-77597200D01*
X91272600Y-76202200D02*
X91272600Y-76962200D01*
X91272600Y-77597200D02*
X91272600Y-124647200D01*
%TO.C,1*%
X83032600Y-76282200D02*
X83032600Y-124662200D01*
X83032600Y-76282200D02*
X83675070Y-76282200D01*
X83032600Y-124662200D02*
X83675070Y-124662200D01*
X84290130Y-76282200D02*
X84492600Y-76282200D01*
X84290130Y-124662200D02*
X84945070Y-124662200D01*
X85252600Y-76217200D02*
X86202600Y-76217200D01*
X85560130Y-124662200D02*
X86202600Y-124662200D01*
X86012600Y-77612200D02*
X86202600Y-77612200D01*
X86202600Y-76217200D02*
X86202600Y-76977200D01*
X86202600Y-77612200D02*
X86202600Y-124662200D01*
%TO.C,3*%
X85562600Y-76267200D02*
X85562600Y-124647200D01*
X85562600Y-76267200D02*
X86205070Y-76267200D01*
X85562600Y-124647200D02*
X86205070Y-124647200D01*
X86820130Y-76267200D02*
X87022600Y-76267200D01*
X86820130Y-124647200D02*
X87475070Y-124647200D01*
X87782600Y-76202200D02*
X88732600Y-76202200D01*
X88090130Y-124647200D02*
X88732600Y-124647200D01*
X88542600Y-77597200D02*
X88732600Y-77597200D01*
X88732600Y-76202200D02*
X88732600Y-76962200D01*
X88732600Y-77597200D02*
X88732600Y-124647200D01*
%TO.C,USB3*%
X102529200Y-120100400D02*
X106529200Y-120100400D01*
X102529200Y-120620400D02*
X102529200Y-120100400D01*
X102529200Y-121370400D02*
X106529200Y-121370400D01*
X102529200Y-121890400D02*
X102529200Y-121370400D01*
X106529200Y-119665400D02*
X107649200Y-119665400D01*
X106529200Y-120620400D02*
X102529200Y-120620400D01*
X106529200Y-121470400D02*
X102529200Y-121470400D01*
X106529200Y-121590400D02*
X102529200Y-121590400D01*
X106529200Y-121710400D02*
X102529200Y-121710400D01*
X106529200Y-121830400D02*
X102529200Y-121830400D01*
X106529200Y-121890400D02*
X102529200Y-121890400D01*
X106529200Y-122325400D02*
X106529200Y-119665400D01*
X107329200Y-120995400D02*
X106529200Y-120995400D01*
X107329200Y-122325400D02*
X106529200Y-122325400D01*
X107649200Y-119665400D02*
X107649200Y-119740723D01*
X108849200Y-121630400D02*
X108849200Y-122390400D01*
X108849200Y-122390400D02*
X108089200Y-122390400D01*
%TO.C,SPK_R1*%
X102529200Y-112759800D02*
X106529200Y-112759800D01*
X102529200Y-113279800D02*
X102529200Y-112759800D01*
X102529200Y-114029800D02*
X106529200Y-114029800D01*
X102529200Y-114549800D02*
X102529200Y-114029800D01*
X106529200Y-112324800D02*
X107649200Y-112324800D01*
X106529200Y-113279800D02*
X102529200Y-113279800D01*
X106529200Y-114129800D02*
X102529200Y-114129800D01*
X106529200Y-114249800D02*
X102529200Y-114249800D01*
X106529200Y-114369800D02*
X102529200Y-114369800D01*
X106529200Y-114489800D02*
X102529200Y-114489800D01*
X106529200Y-114549800D02*
X102529200Y-114549800D01*
X106529200Y-114984800D02*
X106529200Y-112324800D01*
X107329200Y-113654800D02*
X106529200Y-113654800D01*
X107329200Y-114984800D02*
X106529200Y-114984800D01*
X107649200Y-112324800D02*
X107649200Y-112400123D01*
X108849200Y-114289800D02*
X108849200Y-115049800D01*
X108849200Y-115049800D02*
X108089200Y-115049800D01*
%TO.C,7*%
X90642600Y-76282200D02*
X90642600Y-124662200D01*
X90642600Y-76282200D02*
X91285070Y-76282200D01*
X90642600Y-124662200D02*
X91285070Y-124662200D01*
X91900130Y-76282200D02*
X92102600Y-76282200D01*
X91900130Y-124662200D02*
X92555070Y-124662200D01*
X92862600Y-76217200D02*
X93812600Y-76217200D01*
X93170130Y-124662200D02*
X93812600Y-124662200D01*
X93622600Y-77612200D02*
X93812600Y-77612200D01*
X93812600Y-76217200D02*
X93812600Y-76977200D01*
X93812600Y-77612200D02*
X93812600Y-124662200D01*
%TO.C,3V1*%
X97817600Y-127322800D02*
X97817600Y-126212800D01*
X98577600Y-127322800D02*
X97817600Y-127322800D01*
X99337600Y-125102800D02*
X100542600Y-125102800D01*
X99337600Y-125649329D02*
X99337600Y-125102800D01*
X99337600Y-127322800D02*
X99337600Y-126776271D01*
X99337600Y-127322800D02*
X100542600Y-127322800D01*
X100542600Y-125905270D02*
X100542600Y-125102800D01*
X100542600Y-127322800D02*
X100542600Y-126520330D01*
%TO.C,USB4*%
X102529200Y-116417400D02*
X106529200Y-116417400D01*
X102529200Y-116937400D02*
X102529200Y-116417400D01*
X102529200Y-117687400D02*
X106529200Y-117687400D01*
X102529200Y-118207400D02*
X102529200Y-117687400D01*
X106529200Y-115982400D02*
X107649200Y-115982400D01*
X106529200Y-116937400D02*
X102529200Y-116937400D01*
X106529200Y-117787400D02*
X102529200Y-117787400D01*
X106529200Y-117907400D02*
X102529200Y-117907400D01*
X106529200Y-118027400D02*
X102529200Y-118027400D01*
X106529200Y-118147400D02*
X102529200Y-118147400D01*
X106529200Y-118207400D02*
X102529200Y-118207400D01*
X106529200Y-118642400D02*
X106529200Y-115982400D01*
X107329200Y-117312400D02*
X106529200Y-117312400D01*
X107329200Y-118642400D02*
X106529200Y-118642400D01*
X107649200Y-115982400D02*
X107649200Y-116057723D01*
X108849200Y-117947400D02*
X108849200Y-118707400D01*
X108849200Y-118707400D02*
X108089200Y-118707400D01*
%TD*%
M02*
