%TF.GenerationSoftware,KiCad,Pcbnew,8.0.4*%
%TF.CreationDate,2025-01-30T01:36:05+01:00*%
%TF.ProjectId,uconsole-expansion-card-template,75636f6e-736f-46c6-952d-657870616e73,0.1*%
%TF.SameCoordinates,Original*%
%TF.FileFunction,Soldermask,Bot*%
%TF.FilePolarity,Negative*%
%FSLAX46Y46*%
G04 Gerber Fmt 4.6, Leading zero omitted, Abs format (unit mm)*
G04 Created by KiCad (PCBNEW 8.0.4) date 2025-01-30 01:36:05*
%MOMM*%
%LPD*%
G01*
G04 APERTURE LIST*
G04 Aperture macros list*
%AMRoundRect*
0 Rectangle with rounded corners*
0 $1 Rounding radius*
0 $2 $3 $4 $5 $6 $7 $8 $9 X,Y pos of 4 corners*
0 Add a 4 corners polygon primitive as box body*
4,1,4,$2,$3,$4,$5,$6,$7,$8,$9,$2,$3,0*
0 Add four circle primitives for the rounded corners*
1,1,$1+$1,$2,$3*
1,1,$1+$1,$4,$5*
1,1,$1+$1,$6,$7*
1,1,$1+$1,$8,$9*
0 Add four rect primitives between the rounded corners*
20,1,$1+$1,$2,$3,$4,$5,0*
20,1,$1+$1,$4,$5,$6,$7,0*
20,1,$1+$1,$6,$7,$8,$9,0*
20,1,$1+$1,$8,$9,$2,$3,0*%
G04 Aperture macros list end*
%ADD10C,0.100000*%
%ADD11R,1.000000X1.000000*%
%ADD12O,1.000000X1.000000*%
%ADD13C,5.000000*%
%ADD14R,2.300000X0.600000*%
%ADD15RoundRect,0.250000X0.250000X0.750000X-0.250000X0.750000X-0.250000X-0.750000X0.250000X-0.750000X0*%
G04 APERTURE END LIST*
%TO.C,U1*%
D10*
X115380400Y-86284000D02*
X118530000Y-86284000D01*
X118530000Y-113462000D01*
X115380400Y-113462000D01*
X115380400Y-86284000D01*
G36*
X115380400Y-86284000D02*
G01*
X118530000Y-86284000D01*
X118530000Y-113462000D01*
X115380400Y-113462000D01*
X115380400Y-86284000D01*
G37*
%TD*%
D11*
%TO.C,5V1*%
X90957600Y-126212800D03*
D12*
X92227600Y-126212800D03*
X93497600Y-126212800D03*
X94767600Y-126212800D03*
X96037600Y-126212800D03*
%TD*%
D13*
%TO.C,H1*%
X89128800Y-67488000D03*
%TD*%
D11*
%TO.C,SPK_L1*%
X108089200Y-125288000D03*
D12*
X108089200Y-124018000D03*
%TD*%
D11*
%TO.C,CAM1*%
X108077200Y-110566400D03*
D12*
X108077200Y-109296400D03*
X108077200Y-108026400D03*
X108077200Y-106756400D03*
X108077200Y-105486400D03*
X108077200Y-104216400D03*
X108077200Y-102946400D03*
X108077200Y-101676400D03*
X108077200Y-100406400D03*
X108077200Y-99136400D03*
%TD*%
D11*
%TO.C,GROUND1*%
X99827200Y-74207000D03*
D12*
X98557200Y-74207000D03*
X97287200Y-74207000D03*
X96017200Y-74207000D03*
X94747200Y-74207000D03*
X93477200Y-74207000D03*
X92207200Y-74207000D03*
X90937200Y-74207000D03*
%TD*%
D11*
%TO.C,9*%
X95402600Y-76977200D03*
D12*
X94132600Y-76977200D03*
X95402600Y-78247200D03*
X94132600Y-78247200D03*
X95402600Y-79517200D03*
X94132600Y-79517200D03*
X95402600Y-80787200D03*
X94132600Y-80787200D03*
X95402600Y-82057200D03*
X94132600Y-82057200D03*
X95402600Y-83327200D03*
X94132600Y-83327200D03*
X95402600Y-84597200D03*
X94132600Y-84597200D03*
X95402600Y-85867200D03*
X94132600Y-85867200D03*
X95402600Y-87137200D03*
X94132600Y-87137200D03*
X95402600Y-88407200D03*
X94132600Y-88407200D03*
X95402600Y-89677200D03*
X94132600Y-89677200D03*
X95402600Y-90947200D03*
X94132600Y-90947200D03*
X95402600Y-92217200D03*
X94132600Y-92217200D03*
X95402600Y-93487200D03*
X94132600Y-93487200D03*
X95402600Y-94757200D03*
X94132600Y-94757200D03*
X95402600Y-96027200D03*
X94132600Y-96027200D03*
X95402600Y-97297200D03*
X94132600Y-97297200D03*
X95402600Y-98567200D03*
X94132600Y-98567200D03*
X95402600Y-99837200D03*
X94132600Y-99837200D03*
X95402600Y-101107200D03*
X94132600Y-101107200D03*
X95402600Y-102377200D03*
X94132600Y-102377200D03*
X95402600Y-103647200D03*
X94132600Y-103647200D03*
X95402600Y-104917200D03*
X94132600Y-104917200D03*
X95402600Y-106187200D03*
X94132600Y-106187200D03*
X95402600Y-107457200D03*
X94132600Y-107457200D03*
X95402600Y-108727200D03*
X94132600Y-108727200D03*
X95402600Y-109997200D03*
X94132600Y-109997200D03*
X95402600Y-111267200D03*
X94132600Y-111267200D03*
X95402600Y-112537200D03*
X94132600Y-112537200D03*
X95402600Y-113807200D03*
X94132600Y-113807200D03*
X95402600Y-115077200D03*
X94132600Y-115077200D03*
X95402600Y-116347200D03*
X94132600Y-116347200D03*
X95402600Y-117617200D03*
X94132600Y-117617200D03*
X95402600Y-118887200D03*
X94132600Y-118887200D03*
X95402600Y-120157200D03*
X94132600Y-120157200D03*
X95402600Y-121427200D03*
X94132600Y-121427200D03*
X95402600Y-122697200D03*
X94132600Y-122697200D03*
X95402600Y-123967200D03*
X94132600Y-123967200D03*
%TD*%
D11*
%TO.C,13*%
X100482600Y-76962200D03*
D12*
X99212600Y-76962200D03*
X100482600Y-78232200D03*
X99212600Y-78232200D03*
X100482600Y-79502200D03*
X99212600Y-79502200D03*
X100482600Y-80772200D03*
X99212600Y-80772200D03*
X100482600Y-82042200D03*
X99212600Y-82042200D03*
X100482600Y-83312200D03*
X99212600Y-83312200D03*
X100482600Y-84582200D03*
X99212600Y-84582200D03*
X100482600Y-85852200D03*
X99212600Y-85852200D03*
X100482600Y-87122200D03*
X99212600Y-87122200D03*
X100482600Y-88392200D03*
X99212600Y-88392200D03*
X100482600Y-89662200D03*
X99212600Y-89662200D03*
X100482600Y-90932200D03*
X99212600Y-90932200D03*
X100482600Y-92202200D03*
X99212600Y-92202200D03*
X100482600Y-93472200D03*
X99212600Y-93472200D03*
X100482600Y-94742200D03*
X99212600Y-94742200D03*
X100482600Y-96012200D03*
X99212600Y-96012200D03*
X100482600Y-97282200D03*
X99212600Y-97282200D03*
X100482600Y-98552200D03*
X99212600Y-98552200D03*
X100482600Y-99822200D03*
X99212600Y-99822200D03*
X100482600Y-101092200D03*
X99212600Y-101092200D03*
X100482600Y-102362200D03*
X99212600Y-102362200D03*
X100482600Y-103632200D03*
X99212600Y-103632200D03*
X100482600Y-104902200D03*
X99212600Y-104902200D03*
X100482600Y-106172200D03*
X99212600Y-106172200D03*
X100482600Y-107442200D03*
X99212600Y-107442200D03*
X100482600Y-108712200D03*
X99212600Y-108712200D03*
X100482600Y-109982200D03*
X99212600Y-109982200D03*
X100482600Y-111252200D03*
X99212600Y-111252200D03*
X100482600Y-112522200D03*
X99212600Y-112522200D03*
X100482600Y-113792200D03*
X99212600Y-113792200D03*
X100482600Y-115062200D03*
X99212600Y-115062200D03*
X100482600Y-116332200D03*
X99212600Y-116332200D03*
X100482600Y-117602200D03*
X99212600Y-117602200D03*
X100482600Y-118872200D03*
X99212600Y-118872200D03*
X100482600Y-120142200D03*
X99212600Y-120142200D03*
X100482600Y-121412200D03*
X99212600Y-121412200D03*
X100482600Y-122682200D03*
X99212600Y-122682200D03*
X100482600Y-123952200D03*
X99212600Y-123952200D03*
%TD*%
D14*
%TO.C,U1*%
X116485000Y-111380000D03*
X116485000Y-110580000D03*
X116485000Y-109780000D03*
X116485000Y-108980000D03*
X116485000Y-108180000D03*
X116485000Y-107380000D03*
X116485000Y-106580000D03*
X116485000Y-105780000D03*
X116485000Y-101780000D03*
X116485000Y-100980000D03*
X116485000Y-100180000D03*
X116485000Y-99380000D03*
X116485000Y-98580000D03*
X116485000Y-97780000D03*
X116485000Y-96980000D03*
X116485000Y-96180000D03*
X116485000Y-95380000D03*
X116485000Y-94580000D03*
X116485000Y-93780000D03*
X116485000Y-92980000D03*
X116485000Y-92180000D03*
X116485000Y-91380000D03*
X116485000Y-90580000D03*
X116485000Y-89780000D03*
X116485000Y-88980000D03*
X116485000Y-88180000D03*
%TD*%
D11*
%TO.C,11*%
X97942600Y-76962200D03*
D12*
X96672600Y-76962200D03*
X97942600Y-78232200D03*
X96672600Y-78232200D03*
X97942600Y-79502200D03*
X96672600Y-79502200D03*
X97942600Y-80772200D03*
X96672600Y-80772200D03*
X97942600Y-82042200D03*
X96672600Y-82042200D03*
X97942600Y-83312200D03*
X96672600Y-83312200D03*
X97942600Y-84582200D03*
X96672600Y-84582200D03*
X97942600Y-85852200D03*
X96672600Y-85852200D03*
X97942600Y-87122200D03*
X96672600Y-87122200D03*
X97942600Y-88392200D03*
X96672600Y-88392200D03*
X97942600Y-89662200D03*
X96672600Y-89662200D03*
X97942600Y-90932200D03*
X96672600Y-90932200D03*
X97942600Y-92202200D03*
X96672600Y-92202200D03*
X97942600Y-93472200D03*
X96672600Y-93472200D03*
X97942600Y-94742200D03*
X96672600Y-94742200D03*
X97942600Y-96012200D03*
X96672600Y-96012200D03*
X97942600Y-97282200D03*
X96672600Y-97282200D03*
X97942600Y-98552200D03*
X96672600Y-98552200D03*
X97942600Y-99822200D03*
X96672600Y-99822200D03*
X97942600Y-101092200D03*
X96672600Y-101092200D03*
X97942600Y-102362200D03*
X96672600Y-102362200D03*
X97942600Y-103632200D03*
X96672600Y-103632200D03*
X97942600Y-104902200D03*
X96672600Y-104902200D03*
X97942600Y-106172200D03*
X96672600Y-106172200D03*
X97942600Y-107442200D03*
X96672600Y-107442200D03*
X97942600Y-108712200D03*
X96672600Y-108712200D03*
X97942600Y-109982200D03*
X96672600Y-109982200D03*
X97942600Y-111252200D03*
X96672600Y-111252200D03*
X97942600Y-112522200D03*
X96672600Y-112522200D03*
X97942600Y-113792200D03*
X96672600Y-113792200D03*
X97942600Y-115062200D03*
X96672600Y-115062200D03*
X97942600Y-116332200D03*
X96672600Y-116332200D03*
X97942600Y-117602200D03*
X96672600Y-117602200D03*
X97942600Y-118872200D03*
X96672600Y-118872200D03*
X97942600Y-120142200D03*
X96672600Y-120142200D03*
X97942600Y-121412200D03*
X96672600Y-121412200D03*
X97942600Y-122682200D03*
X96672600Y-122682200D03*
X97942600Y-123952200D03*
X96672600Y-123952200D03*
%TD*%
D11*
%TO.C,GPIO1*%
X108077200Y-96774200D03*
D12*
X108077200Y-95504200D03*
X108077200Y-94234200D03*
X108077200Y-92964200D03*
X108077200Y-91694200D03*
X108077200Y-90424200D03*
X108077200Y-89154200D03*
X108077200Y-87884200D03*
X108077200Y-86614200D03*
X108077200Y-85344200D03*
X108077200Y-84074200D03*
X108077200Y-82804200D03*
X108077200Y-81534200D03*
X108077200Y-80264200D03*
X108077200Y-78994200D03*
X108077200Y-77724200D03*
X108077200Y-76454200D03*
X108077200Y-75184200D03*
%TD*%
D11*
%TO.C,5*%
X90322600Y-76962200D03*
D12*
X89052600Y-76962200D03*
X90322600Y-78232200D03*
X89052600Y-78232200D03*
X90322600Y-79502200D03*
X89052600Y-79502200D03*
X90322600Y-80772200D03*
X89052600Y-80772200D03*
X90322600Y-82042200D03*
X89052600Y-82042200D03*
X90322600Y-83312200D03*
X89052600Y-83312200D03*
X90322600Y-84582200D03*
X89052600Y-84582200D03*
X90322600Y-85852200D03*
X89052600Y-85852200D03*
X90322600Y-87122200D03*
X89052600Y-87122200D03*
X90322600Y-88392200D03*
X89052600Y-88392200D03*
X90322600Y-89662200D03*
X89052600Y-89662200D03*
X90322600Y-90932200D03*
X89052600Y-90932200D03*
X90322600Y-92202200D03*
X89052600Y-92202200D03*
X90322600Y-93472200D03*
X89052600Y-93472200D03*
X90322600Y-94742200D03*
X89052600Y-94742200D03*
X90322600Y-96012200D03*
X89052600Y-96012200D03*
X90322600Y-97282200D03*
X89052600Y-97282200D03*
X90322600Y-98552200D03*
X89052600Y-98552200D03*
X90322600Y-99822200D03*
X89052600Y-99822200D03*
X90322600Y-101092200D03*
X89052600Y-101092200D03*
X90322600Y-102362200D03*
X89052600Y-102362200D03*
X90322600Y-103632200D03*
X89052600Y-103632200D03*
X90322600Y-104902200D03*
X89052600Y-104902200D03*
X90322600Y-106172200D03*
X89052600Y-106172200D03*
X90322600Y-107442200D03*
X89052600Y-107442200D03*
X90322600Y-108712200D03*
X89052600Y-108712200D03*
X90322600Y-109982200D03*
X89052600Y-109982200D03*
X90322600Y-111252200D03*
X89052600Y-111252200D03*
X90322600Y-112522200D03*
X89052600Y-112522200D03*
X90322600Y-113792200D03*
X89052600Y-113792200D03*
X90322600Y-115062200D03*
X89052600Y-115062200D03*
X90322600Y-116332200D03*
X89052600Y-116332200D03*
X90322600Y-117602200D03*
X89052600Y-117602200D03*
X90322600Y-118872200D03*
X89052600Y-118872200D03*
X90322600Y-120142200D03*
X89052600Y-120142200D03*
X90322600Y-121412200D03*
X89052600Y-121412200D03*
X90322600Y-122682200D03*
X89052600Y-122682200D03*
X90322600Y-123952200D03*
X89052600Y-123952200D03*
%TD*%
D11*
%TO.C,1*%
X85252600Y-76977200D03*
D12*
X83982600Y-76977200D03*
X85252600Y-78247200D03*
X83982600Y-78247200D03*
X85252600Y-79517200D03*
X83982600Y-79517200D03*
X85252600Y-80787200D03*
X83982600Y-80787200D03*
X85252600Y-82057200D03*
X83982600Y-82057200D03*
X85252600Y-83327200D03*
X83982600Y-83327200D03*
X85252600Y-84597200D03*
X83982600Y-84597200D03*
X85252600Y-85867200D03*
X83982600Y-85867200D03*
X85252600Y-87137200D03*
X83982600Y-87137200D03*
X85252600Y-88407200D03*
X83982600Y-88407200D03*
X85252600Y-89677200D03*
X83982600Y-89677200D03*
X85252600Y-90947200D03*
X83982600Y-90947200D03*
X85252600Y-92217200D03*
X83982600Y-92217200D03*
X85252600Y-93487200D03*
X83982600Y-93487200D03*
X85252600Y-94757200D03*
X83982600Y-94757200D03*
X85252600Y-96027200D03*
X83982600Y-96027200D03*
X85252600Y-97297200D03*
X83982600Y-97297200D03*
X85252600Y-98567200D03*
X83982600Y-98567200D03*
X85252600Y-99837200D03*
X83982600Y-99837200D03*
X85252600Y-101107200D03*
X83982600Y-101107200D03*
X85252600Y-102377200D03*
X83982600Y-102377200D03*
X85252600Y-103647200D03*
X83982600Y-103647200D03*
X85252600Y-104917200D03*
X83982600Y-104917200D03*
X85252600Y-106187200D03*
X83982600Y-106187200D03*
X85252600Y-107457200D03*
X83982600Y-107457200D03*
X85252600Y-108727200D03*
X83982600Y-108727200D03*
X85252600Y-109997200D03*
X83982600Y-109997200D03*
X85252600Y-111267200D03*
X83982600Y-111267200D03*
X85252600Y-112537200D03*
X83982600Y-112537200D03*
X85252600Y-113807200D03*
X83982600Y-113807200D03*
X85252600Y-115077200D03*
X83982600Y-115077200D03*
X85252600Y-116347200D03*
X83982600Y-116347200D03*
X85252600Y-117617200D03*
X83982600Y-117617200D03*
X85252600Y-118887200D03*
X83982600Y-118887200D03*
X85252600Y-120157200D03*
X83982600Y-120157200D03*
X85252600Y-121427200D03*
X83982600Y-121427200D03*
X85252600Y-122697200D03*
X83982600Y-122697200D03*
X85252600Y-123967200D03*
X83982600Y-123967200D03*
%TD*%
D11*
%TO.C,3*%
X87782600Y-76962200D03*
D12*
X86512600Y-76962200D03*
X87782600Y-78232200D03*
X86512600Y-78232200D03*
X87782600Y-79502200D03*
X86512600Y-79502200D03*
X87782600Y-80772200D03*
X86512600Y-80772200D03*
X87782600Y-82042200D03*
X86512600Y-82042200D03*
X87782600Y-83312200D03*
X86512600Y-83312200D03*
X87782600Y-84582200D03*
X86512600Y-84582200D03*
X87782600Y-85852200D03*
X86512600Y-85852200D03*
X87782600Y-87122200D03*
X86512600Y-87122200D03*
X87782600Y-88392200D03*
X86512600Y-88392200D03*
X87782600Y-89662200D03*
X86512600Y-89662200D03*
X87782600Y-90932200D03*
X86512600Y-90932200D03*
X87782600Y-92202200D03*
X86512600Y-92202200D03*
X87782600Y-93472200D03*
X86512600Y-93472200D03*
X87782600Y-94742200D03*
X86512600Y-94742200D03*
X87782600Y-96012200D03*
X86512600Y-96012200D03*
X87782600Y-97282200D03*
X86512600Y-97282200D03*
X87782600Y-98552200D03*
X86512600Y-98552200D03*
X87782600Y-99822200D03*
X86512600Y-99822200D03*
X87782600Y-101092200D03*
X86512600Y-101092200D03*
X87782600Y-102362200D03*
X86512600Y-102362200D03*
X87782600Y-103632200D03*
X86512600Y-103632200D03*
X87782600Y-104902200D03*
X86512600Y-104902200D03*
X87782600Y-106172200D03*
X86512600Y-106172200D03*
X87782600Y-107442200D03*
X86512600Y-107442200D03*
X87782600Y-108712200D03*
X86512600Y-108712200D03*
X87782600Y-109982200D03*
X86512600Y-109982200D03*
X87782600Y-111252200D03*
X86512600Y-111252200D03*
X87782600Y-112522200D03*
X86512600Y-112522200D03*
X87782600Y-113792200D03*
X86512600Y-113792200D03*
X87782600Y-115062200D03*
X86512600Y-115062200D03*
X87782600Y-116332200D03*
X86512600Y-116332200D03*
X87782600Y-117602200D03*
X86512600Y-117602200D03*
X87782600Y-118872200D03*
X86512600Y-118872200D03*
X87782600Y-120142200D03*
X86512600Y-120142200D03*
X87782600Y-121412200D03*
X86512600Y-121412200D03*
X87782600Y-122682200D03*
X86512600Y-122682200D03*
X87782600Y-123952200D03*
X86512600Y-123952200D03*
%TD*%
D11*
%TO.C,USB3*%
X108089200Y-121630400D03*
D12*
X108089200Y-120360400D03*
%TD*%
D11*
%TO.C,SPK_R1*%
X108089200Y-114289800D03*
D12*
X108089200Y-113019800D03*
%TD*%
D11*
%TO.C,7*%
X92862600Y-76977200D03*
D12*
X91592600Y-76977200D03*
X92862600Y-78247200D03*
X91592600Y-78247200D03*
X92862600Y-79517200D03*
X91592600Y-79517200D03*
X92862600Y-80787200D03*
X91592600Y-80787200D03*
X92862600Y-82057200D03*
X91592600Y-82057200D03*
X92862600Y-83327200D03*
X91592600Y-83327200D03*
X92862600Y-84597200D03*
X91592600Y-84597200D03*
X92862600Y-85867200D03*
X91592600Y-85867200D03*
X92862600Y-87137200D03*
X91592600Y-87137200D03*
X92862600Y-88407200D03*
X91592600Y-88407200D03*
X92862600Y-89677200D03*
X91592600Y-89677200D03*
X92862600Y-90947200D03*
X91592600Y-90947200D03*
X92862600Y-92217200D03*
X91592600Y-92217200D03*
X92862600Y-93487200D03*
X91592600Y-93487200D03*
X92862600Y-94757200D03*
X91592600Y-94757200D03*
X92862600Y-96027200D03*
X91592600Y-96027200D03*
X92862600Y-97297200D03*
X91592600Y-97297200D03*
X92862600Y-98567200D03*
X91592600Y-98567200D03*
X92862600Y-99837200D03*
X91592600Y-99837200D03*
X92862600Y-101107200D03*
X91592600Y-101107200D03*
X92862600Y-102377200D03*
X91592600Y-102377200D03*
X92862600Y-103647200D03*
X91592600Y-103647200D03*
X92862600Y-104917200D03*
X91592600Y-104917200D03*
X92862600Y-106187200D03*
X91592600Y-106187200D03*
X92862600Y-107457200D03*
X91592600Y-107457200D03*
X92862600Y-108727200D03*
X91592600Y-108727200D03*
X92862600Y-109997200D03*
X91592600Y-109997200D03*
X92862600Y-111267200D03*
X91592600Y-111267200D03*
X92862600Y-112537200D03*
X91592600Y-112537200D03*
X92862600Y-113807200D03*
X91592600Y-113807200D03*
X92862600Y-115077200D03*
X91592600Y-115077200D03*
X92862600Y-116347200D03*
X91592600Y-116347200D03*
X92862600Y-117617200D03*
X91592600Y-117617200D03*
X92862600Y-118887200D03*
X91592600Y-118887200D03*
X92862600Y-120157200D03*
X91592600Y-120157200D03*
X92862600Y-121427200D03*
X91592600Y-121427200D03*
X92862600Y-122697200D03*
X91592600Y-122697200D03*
X92862600Y-123967200D03*
X91592600Y-123967200D03*
%TD*%
D13*
%TO.C,H2*%
X89115000Y-132500000D03*
%TD*%
D11*
%TO.C,3V1*%
X98577600Y-126212800D03*
D12*
X99847600Y-126212800D03*
%TD*%
D11*
%TO.C,USB4*%
X108089200Y-117947400D03*
D12*
X108089200Y-116677400D03*
%TD*%
D15*
%TO.C,U3*%
X109965000Y-131000000D03*
X109965000Y-134000000D03*
X95195000Y-134000000D03*
X95195000Y-131000000D03*
%TD*%
%TO.C,U2*%
X109965000Y-66000000D03*
X109965000Y-69000000D03*
X95195000Y-69000000D03*
X95195000Y-66000000D03*
%TD*%
M02*
