%TF.GenerationSoftware,KiCad,Pcbnew,8.0.4*%
%TF.CreationDate,2025-01-29T04:39:09+01:00*%
%TF.ProjectId,uconsole-expansion-card-template,75636f6e-736f-46c6-952d-657870616e73,0.1*%
%TF.SameCoordinates,Original*%
%TF.FileFunction,Copper,L2,Bot*%
%TF.FilePolarity,Positive*%
%FSLAX46Y46*%
G04 Gerber Fmt 4.6, Leading zero omitted, Abs format (unit mm)*
G04 Created by KiCad (PCBNEW 8.0.4) date 2025-01-29 04:39:09*
%MOMM*%
%LPD*%
G01*
G04 APERTURE LIST*
G04 Aperture macros list*
%AMRoundRect*
0 Rectangle with rounded corners*
0 $1 Rounding radius*
0 $2 $3 $4 $5 $6 $7 $8 $9 X,Y pos of 4 corners*
0 Add a 4 corners polygon primitive as box body*
4,1,4,$2,$3,$4,$5,$6,$7,$8,$9,$2,$3,0*
0 Add four circle primitives for the rounded corners*
1,1,$1+$1,$2,$3*
1,1,$1+$1,$4,$5*
1,1,$1+$1,$6,$7*
1,1,$1+$1,$8,$9*
0 Add four rect primitives between the rounded corners*
20,1,$1+$1,$2,$3,$4,$5,0*
20,1,$1+$1,$4,$5,$6,$7,0*
20,1,$1+$1,$6,$7,$8,$9,0*
20,1,$1+$1,$8,$9,$2,$3,0*%
G04 Aperture macros list end*
%TA.AperFunction,ComponentPad*%
%ADD10R,1.000000X1.000000*%
%TD*%
%TA.AperFunction,ComponentPad*%
%ADD11O,1.000000X1.000000*%
%TD*%
%TA.AperFunction,ConnectorPad*%
%ADD12R,2.300000X0.600000*%
%TD*%
%TA.AperFunction,ConnectorPad*%
%ADD13RoundRect,0.250000X0.250000X0.750000X-0.250000X0.750000X-0.250000X-0.750000X0.250000X-0.750000X0*%
%TD*%
%TA.AperFunction,ViaPad*%
%ADD14C,0.800000*%
%TD*%
%TA.AperFunction,Conductor*%
%ADD15C,0.200000*%
%TD*%
%TA.AperFunction,Conductor*%
%ADD16C,0.500000*%
%TD*%
%TA.AperFunction,Conductor*%
%ADD17C,0.250000*%
%TD*%
%TA.AperFunction,Conductor*%
%ADD18C,0.300000*%
%TD*%
G04 APERTURE END LIST*
D10*
%TO.P,5V1,1,Pin_1*%
%TO.N,+5V*%
X90957600Y-126212800D03*
D11*
%TO.P,5V1,2,Pin_2*%
X92227600Y-126212800D03*
%TO.P,5V1,3,Pin_3*%
X93497600Y-126212800D03*
%TO.P,5V1,4,Pin_4*%
X94767600Y-126212800D03*
%TO.P,5V1,5,Pin_5*%
X96037600Y-126212800D03*
%TD*%
D10*
%TO.P,SPK_L1,1,Pin_1*%
%TO.N,/SPEAKER_LP*%
X108089200Y-125288000D03*
D11*
%TO.P,SPK_L1,2,Pin_2*%
%TO.N,/SPEAKER_LN*%
X108089200Y-124018000D03*
%TD*%
D10*
%TO.P,CAM1,1,Pin_1*%
%TO.N,/CAM1_DP3*%
X108077200Y-110566400D03*
D11*
%TO.P,CAM1,2,Pin_2*%
%TO.N,/CAM1_DN3*%
X108077200Y-109296400D03*
%TO.P,CAM1,3,Pin_3*%
%TO.N,/CAM1_DP2*%
X108077200Y-108026400D03*
%TO.P,CAM1,4,Pin_4*%
%TO.N,/CAM1_DN2*%
X108077200Y-106756400D03*
%TO.P,CAM1,5,Pin_5*%
%TO.N,/CAM1_CP*%
X108077200Y-105486400D03*
%TO.P,CAM1,6,Pin_6*%
%TO.N,/CAM1_CN*%
X108077200Y-104216400D03*
%TO.P,CAM1,7,Pin_7*%
%TO.N,/CAM1_DP1*%
X108077200Y-102946400D03*
%TO.P,CAM1,8,Pin_8*%
%TO.N,/CAM1_DN1*%
X108077200Y-101676400D03*
%TO.P,CAM1,9,Pin_9*%
%TO.N,/CAM1_DP0*%
X108077200Y-100406400D03*
%TO.P,CAM1,10,Pin_10*%
%TO.N,/CAM1_DN0*%
X108077200Y-99136400D03*
%TD*%
D10*
%TO.P,GROUND1,1,Pin_1*%
%TO.N,GND*%
X99827200Y-74207000D03*
D11*
%TO.P,GROUND1,2,Pin_2*%
X98557200Y-74207000D03*
%TO.P,GROUND1,3,Pin_3*%
X97287200Y-74207000D03*
%TO.P,GROUND1,4,Pin_4*%
X96017200Y-74207000D03*
%TO.P,GROUND1,5,Pin_5*%
X94747200Y-74207000D03*
%TO.P,GROUND1,6,Pin_6*%
X93477200Y-74207000D03*
%TO.P,GROUND1,7,Pin_7*%
X92207200Y-74207000D03*
%TO.P,GROUND1,8,Pin_8*%
X90937200Y-74207000D03*
%TD*%
D10*
%TO.P,9,1*%
%TO.N,N/C*%
X95402600Y-76977200D03*
D11*
%TO.P,9,2*%
X94132600Y-76977200D03*
%TO.P,9,3*%
X95402600Y-78247200D03*
%TO.P,9,4*%
X94132600Y-78247200D03*
%TO.P,9,5*%
X95402600Y-79517200D03*
%TO.P,9,6*%
X94132600Y-79517200D03*
%TO.P,9,7*%
X95402600Y-80787200D03*
%TO.P,9,8*%
X94132600Y-80787200D03*
%TO.P,9,9*%
X95402600Y-82057200D03*
%TO.P,9,10*%
X94132600Y-82057200D03*
%TO.P,9,11*%
X95402600Y-83327200D03*
%TO.P,9,12*%
X94132600Y-83327200D03*
%TO.P,9,13*%
X95402600Y-84597200D03*
%TO.P,9,14*%
X94132600Y-84597200D03*
%TO.P,9,15*%
X95402600Y-85867200D03*
%TO.P,9,16*%
X94132600Y-85867200D03*
%TO.P,9,17*%
X95402600Y-87137200D03*
%TO.P,9,18*%
X94132600Y-87137200D03*
%TO.P,9,19*%
X95402600Y-88407200D03*
%TO.P,9,20*%
X94132600Y-88407200D03*
%TO.P,9,21*%
X95402600Y-89677200D03*
%TO.P,9,22*%
X94132600Y-89677200D03*
%TO.P,9,23*%
X95402600Y-90947200D03*
%TO.P,9,24*%
X94132600Y-90947200D03*
%TO.P,9,25*%
X95402600Y-92217200D03*
%TO.P,9,26*%
X94132600Y-92217200D03*
%TO.P,9,27*%
X95402600Y-93487200D03*
%TO.P,9,28*%
X94132600Y-93487200D03*
%TO.P,9,29*%
X95402600Y-94757200D03*
%TO.P,9,30*%
X94132600Y-94757200D03*
%TO.P,9,31*%
X95402600Y-96027200D03*
%TO.P,9,32*%
X94132600Y-96027200D03*
%TO.P,9,33*%
X95402600Y-97297200D03*
%TO.P,9,34*%
X94132600Y-97297200D03*
%TO.P,9,35*%
X95402600Y-98567200D03*
%TO.P,9,36*%
X94132600Y-98567200D03*
%TO.P,9,37*%
X95402600Y-99837200D03*
%TO.P,9,38*%
X94132600Y-99837200D03*
%TO.P,9,39*%
X95402600Y-101107200D03*
%TO.P,9,40*%
X94132600Y-101107200D03*
%TO.P,9,41*%
X95402600Y-102377200D03*
%TO.P,9,42*%
X94132600Y-102377200D03*
%TO.P,9,43*%
X95402600Y-103647200D03*
%TO.P,9,44*%
X94132600Y-103647200D03*
%TO.P,9,45*%
X95402600Y-104917200D03*
%TO.P,9,46*%
X94132600Y-104917200D03*
%TO.P,9,47*%
X95402600Y-106187200D03*
%TO.P,9,48*%
X94132600Y-106187200D03*
%TO.P,9,49*%
X95402600Y-107457200D03*
%TO.P,9,50*%
X94132600Y-107457200D03*
%TO.P,9,51*%
X95402600Y-108727200D03*
%TO.P,9,52*%
X94132600Y-108727200D03*
%TO.P,9,53*%
X95402600Y-109997200D03*
%TO.P,9,54*%
X94132600Y-109997200D03*
%TO.P,9,55*%
X95402600Y-111267200D03*
%TO.P,9,56*%
X94132600Y-111267200D03*
%TO.P,9,57*%
X95402600Y-112537200D03*
%TO.P,9,58*%
X94132600Y-112537200D03*
%TO.P,9,59*%
X95402600Y-113807200D03*
%TO.P,9,60*%
X94132600Y-113807200D03*
%TO.P,9,61*%
X95402600Y-115077200D03*
%TO.P,9,62*%
X94132600Y-115077200D03*
%TO.P,9,63*%
X95402600Y-116347200D03*
%TO.P,9,64*%
X94132600Y-116347200D03*
%TO.P,9,65*%
X95402600Y-117617200D03*
%TO.P,9,66*%
X94132600Y-117617200D03*
%TO.P,9,67*%
X95402600Y-118887200D03*
%TO.P,9,68*%
X94132600Y-118887200D03*
%TO.P,9,69*%
X95402600Y-120157200D03*
%TO.P,9,70*%
X94132600Y-120157200D03*
%TO.P,9,71*%
X95402600Y-121427200D03*
%TO.P,9,72*%
X94132600Y-121427200D03*
%TO.P,9,73*%
X95402600Y-122697200D03*
%TO.P,9,74*%
X94132600Y-122697200D03*
%TO.P,9,75*%
X95402600Y-123967200D03*
%TO.P,9,76*%
X94132600Y-123967200D03*
%TD*%
D10*
%TO.P,13,1*%
%TO.N,N/C*%
X100482600Y-76962200D03*
D11*
%TO.P,13,2*%
X99212600Y-76962200D03*
%TO.P,13,3*%
X100482600Y-78232200D03*
%TO.P,13,4*%
X99212600Y-78232200D03*
%TO.P,13,5*%
X100482600Y-79502200D03*
%TO.P,13,6*%
X99212600Y-79502200D03*
%TO.P,13,7*%
X100482600Y-80772200D03*
%TO.P,13,8*%
X99212600Y-80772200D03*
%TO.P,13,9*%
X100482600Y-82042200D03*
%TO.P,13,10*%
X99212600Y-82042200D03*
%TO.P,13,11*%
X100482600Y-83312200D03*
%TO.P,13,12*%
X99212600Y-83312200D03*
%TO.P,13,13*%
X100482600Y-84582200D03*
%TO.P,13,14*%
X99212600Y-84582200D03*
%TO.P,13,15*%
X100482600Y-85852200D03*
%TO.P,13,16*%
X99212600Y-85852200D03*
%TO.P,13,17*%
X100482600Y-87122200D03*
%TO.P,13,18*%
X99212600Y-87122200D03*
%TO.P,13,19*%
X100482600Y-88392200D03*
%TO.P,13,20*%
X99212600Y-88392200D03*
%TO.P,13,21*%
X100482600Y-89662200D03*
%TO.P,13,22*%
X99212600Y-89662200D03*
%TO.P,13,23*%
X100482600Y-90932200D03*
%TO.P,13,24*%
X99212600Y-90932200D03*
%TO.P,13,25*%
X100482600Y-92202200D03*
%TO.P,13,26*%
X99212600Y-92202200D03*
%TO.P,13,27*%
X100482600Y-93472200D03*
%TO.P,13,28*%
X99212600Y-93472200D03*
%TO.P,13,29*%
X100482600Y-94742200D03*
%TO.P,13,30*%
X99212600Y-94742200D03*
%TO.P,13,31*%
X100482600Y-96012200D03*
%TO.P,13,32*%
X99212600Y-96012200D03*
%TO.P,13,33*%
X100482600Y-97282200D03*
%TO.P,13,34*%
X99212600Y-97282200D03*
%TO.P,13,35*%
X100482600Y-98552200D03*
%TO.P,13,36*%
X99212600Y-98552200D03*
%TO.P,13,37*%
X100482600Y-99822200D03*
%TO.P,13,38*%
X99212600Y-99822200D03*
%TO.P,13,39*%
X100482600Y-101092200D03*
%TO.P,13,40*%
X99212600Y-101092200D03*
%TO.P,13,41*%
X100482600Y-102362200D03*
%TO.P,13,42*%
X99212600Y-102362200D03*
%TO.P,13,43*%
X100482600Y-103632200D03*
%TO.P,13,44*%
X99212600Y-103632200D03*
%TO.P,13,45*%
X100482600Y-104902200D03*
%TO.P,13,46*%
X99212600Y-104902200D03*
%TO.P,13,47*%
X100482600Y-106172200D03*
%TO.P,13,48*%
X99212600Y-106172200D03*
%TO.P,13,49*%
X100482600Y-107442200D03*
%TO.P,13,50*%
X99212600Y-107442200D03*
%TO.P,13,51*%
X100482600Y-108712200D03*
%TO.P,13,52*%
X99212600Y-108712200D03*
%TO.P,13,53*%
X100482600Y-109982200D03*
%TO.P,13,54*%
X99212600Y-109982200D03*
%TO.P,13,55*%
X100482600Y-111252200D03*
%TO.P,13,56*%
X99212600Y-111252200D03*
%TO.P,13,57*%
X100482600Y-112522200D03*
%TO.P,13,58*%
X99212600Y-112522200D03*
%TO.P,13,59*%
X100482600Y-113792200D03*
%TO.P,13,60*%
X99212600Y-113792200D03*
%TO.P,13,61*%
X100482600Y-115062200D03*
%TO.P,13,62*%
X99212600Y-115062200D03*
%TO.P,13,63*%
X100482600Y-116332200D03*
%TO.P,13,64*%
X99212600Y-116332200D03*
%TO.P,13,65*%
X100482600Y-117602200D03*
%TO.P,13,66*%
X99212600Y-117602200D03*
%TO.P,13,67*%
X100482600Y-118872200D03*
%TO.P,13,68*%
X99212600Y-118872200D03*
%TO.P,13,69*%
X100482600Y-120142200D03*
%TO.P,13,70*%
X99212600Y-120142200D03*
%TO.P,13,71*%
X100482600Y-121412200D03*
%TO.P,13,72*%
X99212600Y-121412200D03*
%TO.P,13,73*%
X100482600Y-122682200D03*
%TO.P,13,74*%
X99212600Y-122682200D03*
%TO.P,13,75*%
X100482600Y-123952200D03*
%TO.P,13,76*%
X99212600Y-123952200D03*
%TD*%
D12*
%TO.P,U1,2,5V*%
%TO.N,+5V*%
X116485000Y-111380000D03*
%TO.P,U1,4,5V*%
X116485000Y-110580000D03*
%TO.P,U1,6,5V*%
X116485000Y-109780000D03*
%TO.P,U1,8,5V*%
X116485000Y-108980000D03*
%TO.P,U1,10,5V*%
X116485000Y-108180000D03*
%TO.P,U1,12,GND*%
%TO.N,GND*%
X116485000Y-107380000D03*
%TO.P,U1,14,SPK_RP*%
%TO.N,/SPEAKER_RP*%
X116485000Y-106580000D03*
%TO.P,U1,16,SPK_RN*%
%TO.N,/SPEAKER_RN*%
X116485000Y-105780000D03*
%TO.P,U1,18,GPIO28*%
%TO.N,/GPIO28*%
X116485000Y-101780000D03*
%TO.P,U1,20,GPIO29*%
%TO.N,/GPIO29*%
X116485000Y-100980000D03*
%TO.P,U1,22,GPIO30*%
%TO.N,/GPIO30*%
X116485000Y-100180000D03*
%TO.P,U1,24,GPIO31*%
%TO.N,/GPIO31*%
X116485000Y-99380000D03*
%TO.P,U1,26,GPIO32*%
%TO.N,/GPIO32*%
X116485000Y-98580000D03*
%TO.P,U1,28,GPIO33*%
%TO.N,/GPIO33*%
X116485000Y-97780000D03*
%TO.P,U1,30,GPIO34*%
%TO.N,/GPIO34*%
X116485000Y-96980000D03*
%TO.P,U1,32,GPIO35*%
%TO.N,/GPIO35*%
X116485000Y-96180000D03*
%TO.P,U1,34,GPIO36*%
%TO.N,/GPIO36*%
X116485000Y-95380000D03*
%TO.P,U1,36,GPIO37*%
%TO.N,/GPIO37*%
X116485000Y-94580000D03*
%TO.P,U1,38,GPIO38*%
%TO.N,/GPIO38*%
X116485000Y-93780000D03*
%TO.P,U1,40,GPIO39*%
%TO.N,/GPIO39*%
X116485000Y-92980000D03*
%TO.P,U1,42,GPIO40*%
%TO.N,/GPIO40*%
X116485000Y-92180000D03*
%TO.P,U1,44,GPIO41*%
%TO.N,/GPIO41*%
X116485000Y-91380000D03*
%TO.P,U1,46,GPIO42*%
%TO.N,/GPIO42*%
X116485000Y-90580000D03*
%TO.P,U1,48,GPIO43*%
%TO.N,/GPIO43*%
X116485000Y-89780000D03*
%TO.P,U1,50,GPIO44*%
%TO.N,/GPIO44*%
X116485000Y-88980000D03*
%TO.P,U1,52,GPIO45*%
%TO.N,/GPIO45*%
X116485000Y-88180000D03*
%TD*%
D10*
%TO.P,11,1*%
%TO.N,N/C*%
X97942600Y-76962200D03*
D11*
%TO.P,11,2*%
X96672600Y-76962200D03*
%TO.P,11,3*%
X97942600Y-78232200D03*
%TO.P,11,4*%
X96672600Y-78232200D03*
%TO.P,11,5*%
X97942600Y-79502200D03*
%TO.P,11,6*%
X96672600Y-79502200D03*
%TO.P,11,7*%
X97942600Y-80772200D03*
%TO.P,11,8*%
X96672600Y-80772200D03*
%TO.P,11,9*%
X97942600Y-82042200D03*
%TO.P,11,10*%
X96672600Y-82042200D03*
%TO.P,11,11*%
X97942600Y-83312200D03*
%TO.P,11,12*%
X96672600Y-83312200D03*
%TO.P,11,13*%
X97942600Y-84582200D03*
%TO.P,11,14*%
X96672600Y-84582200D03*
%TO.P,11,15*%
X97942600Y-85852200D03*
%TO.P,11,16*%
X96672600Y-85852200D03*
%TO.P,11,17*%
X97942600Y-87122200D03*
%TO.P,11,18*%
X96672600Y-87122200D03*
%TO.P,11,19*%
X97942600Y-88392200D03*
%TO.P,11,20*%
X96672600Y-88392200D03*
%TO.P,11,21*%
X97942600Y-89662200D03*
%TO.P,11,22*%
X96672600Y-89662200D03*
%TO.P,11,23*%
X97942600Y-90932200D03*
%TO.P,11,24*%
X96672600Y-90932200D03*
%TO.P,11,25*%
X97942600Y-92202200D03*
%TO.P,11,26*%
X96672600Y-92202200D03*
%TO.P,11,27*%
X97942600Y-93472200D03*
%TO.P,11,28*%
X96672600Y-93472200D03*
%TO.P,11,29*%
X97942600Y-94742200D03*
%TO.P,11,30*%
X96672600Y-94742200D03*
%TO.P,11,31*%
X97942600Y-96012200D03*
%TO.P,11,32*%
X96672600Y-96012200D03*
%TO.P,11,33*%
X97942600Y-97282200D03*
%TO.P,11,34*%
X96672600Y-97282200D03*
%TO.P,11,35*%
X97942600Y-98552200D03*
%TO.P,11,36*%
X96672600Y-98552200D03*
%TO.P,11,37*%
X97942600Y-99822200D03*
%TO.P,11,38*%
X96672600Y-99822200D03*
%TO.P,11,39*%
X97942600Y-101092200D03*
%TO.P,11,40*%
X96672600Y-101092200D03*
%TO.P,11,41*%
X97942600Y-102362200D03*
%TO.P,11,42*%
X96672600Y-102362200D03*
%TO.P,11,43*%
X97942600Y-103632200D03*
%TO.P,11,44*%
X96672600Y-103632200D03*
%TO.P,11,45*%
X97942600Y-104902200D03*
%TO.P,11,46*%
X96672600Y-104902200D03*
%TO.P,11,47*%
X97942600Y-106172200D03*
%TO.P,11,48*%
X96672600Y-106172200D03*
%TO.P,11,49*%
X97942600Y-107442200D03*
%TO.P,11,50*%
X96672600Y-107442200D03*
%TO.P,11,51*%
X97942600Y-108712200D03*
%TO.P,11,52*%
X96672600Y-108712200D03*
%TO.P,11,53*%
X97942600Y-109982200D03*
%TO.P,11,54*%
X96672600Y-109982200D03*
%TO.P,11,55*%
X97942600Y-111252200D03*
%TO.P,11,56*%
X96672600Y-111252200D03*
%TO.P,11,57*%
X97942600Y-112522200D03*
%TO.P,11,58*%
X96672600Y-112522200D03*
%TO.P,11,59*%
X97942600Y-113792200D03*
%TO.P,11,60*%
X96672600Y-113792200D03*
%TO.P,11,61*%
X97942600Y-115062200D03*
%TO.P,11,62*%
X96672600Y-115062200D03*
%TO.P,11,63*%
X97942600Y-116332200D03*
%TO.P,11,64*%
X96672600Y-116332200D03*
%TO.P,11,65*%
X97942600Y-117602200D03*
%TO.P,11,66*%
X96672600Y-117602200D03*
%TO.P,11,67*%
X97942600Y-118872200D03*
%TO.P,11,68*%
X96672600Y-118872200D03*
%TO.P,11,69*%
X97942600Y-120142200D03*
%TO.P,11,70*%
X96672600Y-120142200D03*
%TO.P,11,71*%
X97942600Y-121412200D03*
%TO.P,11,72*%
X96672600Y-121412200D03*
%TO.P,11,73*%
X97942600Y-122682200D03*
%TO.P,11,74*%
X96672600Y-122682200D03*
%TO.P,11,75*%
X97942600Y-123952200D03*
%TO.P,11,76*%
X96672600Y-123952200D03*
%TD*%
D10*
%TO.P,GPIO1,1,Pin_1*%
%TO.N,/GPIO28*%
X108077200Y-96774200D03*
D11*
%TO.P,GPIO1,2,Pin_2*%
%TO.N,/GPIO29*%
X108077200Y-95504200D03*
%TO.P,GPIO1,3,Pin_3*%
%TO.N,/GPIO30*%
X108077200Y-94234200D03*
%TO.P,GPIO1,4,Pin_4*%
%TO.N,/GPIO31*%
X108077200Y-92964200D03*
%TO.P,GPIO1,5,Pin_5*%
%TO.N,/GPIO32*%
X108077200Y-91694200D03*
%TO.P,GPIO1,6,Pin_6*%
%TO.N,/GPIO33*%
X108077200Y-90424200D03*
%TO.P,GPIO1,7,Pin_7*%
%TO.N,/GPIO34*%
X108077200Y-89154200D03*
%TO.P,GPIO1,8,Pin_8*%
%TO.N,/GPIO35*%
X108077200Y-87884200D03*
%TO.P,GPIO1,9,Pin_9*%
%TO.N,/GPIO36*%
X108077200Y-86614200D03*
%TO.P,GPIO1,10,Pin_10*%
%TO.N,/GPIO37*%
X108077200Y-85344200D03*
%TO.P,GPIO1,11,Pin_11*%
%TO.N,/GPIO38*%
X108077200Y-84074200D03*
%TO.P,GPIO1,12,Pin_12*%
%TO.N,/GPIO39*%
X108077200Y-82804200D03*
%TO.P,GPIO1,13,Pin_13*%
%TO.N,/GPIO40*%
X108077200Y-81534200D03*
%TO.P,GPIO1,14,Pin_14*%
%TO.N,/GPIO41*%
X108077200Y-80264200D03*
%TO.P,GPIO1,15,Pin_15*%
%TO.N,/GPIO42*%
X108077200Y-78994200D03*
%TO.P,GPIO1,16,Pin_16*%
%TO.N,/GPIO43*%
X108077200Y-77724200D03*
%TO.P,GPIO1,17,Pin_17*%
%TO.N,/GPIO44*%
X108077200Y-76454200D03*
%TO.P,GPIO1,18,Pin_18*%
%TO.N,/GPIO45*%
X108077200Y-75184200D03*
%TD*%
D10*
%TO.P,5,1*%
%TO.N,N/C*%
X90322600Y-76962200D03*
D11*
%TO.P,5,2*%
X89052600Y-76962200D03*
%TO.P,5,3*%
X90322600Y-78232200D03*
%TO.P,5,4*%
X89052600Y-78232200D03*
%TO.P,5,5*%
X90322600Y-79502200D03*
%TO.P,5,6*%
X89052600Y-79502200D03*
%TO.P,5,7*%
X90322600Y-80772200D03*
%TO.P,5,8*%
X89052600Y-80772200D03*
%TO.P,5,9*%
X90322600Y-82042200D03*
%TO.P,5,10*%
X89052600Y-82042200D03*
%TO.P,5,11*%
X90322600Y-83312200D03*
%TO.P,5,12*%
X89052600Y-83312200D03*
%TO.P,5,13*%
X90322600Y-84582200D03*
%TO.P,5,14*%
X89052600Y-84582200D03*
%TO.P,5,15*%
X90322600Y-85852200D03*
%TO.P,5,16*%
X89052600Y-85852200D03*
%TO.P,5,17*%
X90322600Y-87122200D03*
%TO.P,5,18*%
X89052600Y-87122200D03*
%TO.P,5,19*%
X90322600Y-88392200D03*
%TO.P,5,20*%
X89052600Y-88392200D03*
%TO.P,5,21*%
X90322600Y-89662200D03*
%TO.P,5,22*%
X89052600Y-89662200D03*
%TO.P,5,23*%
X90322600Y-90932200D03*
%TO.P,5,24*%
X89052600Y-90932200D03*
%TO.P,5,25*%
X90322600Y-92202200D03*
%TO.P,5,26*%
X89052600Y-92202200D03*
%TO.P,5,27*%
X90322600Y-93472200D03*
%TO.P,5,28*%
X89052600Y-93472200D03*
%TO.P,5,29*%
X90322600Y-94742200D03*
%TO.P,5,30*%
X89052600Y-94742200D03*
%TO.P,5,31*%
X90322600Y-96012200D03*
%TO.P,5,32*%
X89052600Y-96012200D03*
%TO.P,5,33*%
X90322600Y-97282200D03*
%TO.P,5,34*%
X89052600Y-97282200D03*
%TO.P,5,35*%
X90322600Y-98552200D03*
%TO.P,5,36*%
X89052600Y-98552200D03*
%TO.P,5,37*%
X90322600Y-99822200D03*
%TO.P,5,38*%
X89052600Y-99822200D03*
%TO.P,5,39*%
X90322600Y-101092200D03*
%TO.P,5,40*%
X89052600Y-101092200D03*
%TO.P,5,41*%
X90322600Y-102362200D03*
%TO.P,5,42*%
X89052600Y-102362200D03*
%TO.P,5,43*%
X90322600Y-103632200D03*
%TO.P,5,44*%
X89052600Y-103632200D03*
%TO.P,5,45*%
X90322600Y-104902200D03*
%TO.P,5,46*%
X89052600Y-104902200D03*
%TO.P,5,47*%
X90322600Y-106172200D03*
%TO.P,5,48*%
X89052600Y-106172200D03*
%TO.P,5,49*%
X90322600Y-107442200D03*
%TO.P,5,50*%
X89052600Y-107442200D03*
%TO.P,5,51*%
X90322600Y-108712200D03*
%TO.P,5,52*%
X89052600Y-108712200D03*
%TO.P,5,53*%
X90322600Y-109982200D03*
%TO.P,5,54*%
X89052600Y-109982200D03*
%TO.P,5,55*%
X90322600Y-111252200D03*
%TO.P,5,56*%
X89052600Y-111252200D03*
%TO.P,5,57*%
X90322600Y-112522200D03*
%TO.P,5,58*%
X89052600Y-112522200D03*
%TO.P,5,59*%
X90322600Y-113792200D03*
%TO.P,5,60*%
X89052600Y-113792200D03*
%TO.P,5,61*%
X90322600Y-115062200D03*
%TO.P,5,62*%
X89052600Y-115062200D03*
%TO.P,5,63*%
X90322600Y-116332200D03*
%TO.P,5,64*%
X89052600Y-116332200D03*
%TO.P,5,65*%
X90322600Y-117602200D03*
%TO.P,5,66*%
X89052600Y-117602200D03*
%TO.P,5,67*%
X90322600Y-118872200D03*
%TO.P,5,68*%
X89052600Y-118872200D03*
%TO.P,5,69*%
X90322600Y-120142200D03*
%TO.P,5,70*%
X89052600Y-120142200D03*
%TO.P,5,71*%
X90322600Y-121412200D03*
%TO.P,5,72*%
X89052600Y-121412200D03*
%TO.P,5,73*%
X90322600Y-122682200D03*
%TO.P,5,74*%
X89052600Y-122682200D03*
%TO.P,5,75*%
X90322600Y-123952200D03*
%TO.P,5,76*%
X89052600Y-123952200D03*
%TD*%
D10*
%TO.P,1,1*%
%TO.N,N/C*%
X85252600Y-76977200D03*
D11*
%TO.P,1,2*%
X83982600Y-76977200D03*
%TO.P,1,3*%
X85252600Y-78247200D03*
%TO.P,1,4*%
X83982600Y-78247200D03*
%TO.P,1,5*%
X85252600Y-79517200D03*
%TO.P,1,6*%
X83982600Y-79517200D03*
%TO.P,1,7*%
X85252600Y-80787200D03*
%TO.P,1,8*%
X83982600Y-80787200D03*
%TO.P,1,9*%
X85252600Y-82057200D03*
%TO.P,1,10*%
X83982600Y-82057200D03*
%TO.P,1,11*%
X85252600Y-83327200D03*
%TO.P,1,12*%
X83982600Y-83327200D03*
%TO.P,1,13*%
X85252600Y-84597200D03*
%TO.P,1,14*%
X83982600Y-84597200D03*
%TO.P,1,15*%
X85252600Y-85867200D03*
%TO.P,1,16*%
X83982600Y-85867200D03*
%TO.P,1,17*%
X85252600Y-87137200D03*
%TO.P,1,18*%
X83982600Y-87137200D03*
%TO.P,1,19*%
X85252600Y-88407200D03*
%TO.P,1,20*%
X83982600Y-88407200D03*
%TO.P,1,21*%
X85252600Y-89677200D03*
%TO.P,1,22*%
X83982600Y-89677200D03*
%TO.P,1,23*%
X85252600Y-90947200D03*
%TO.P,1,24*%
X83982600Y-90947200D03*
%TO.P,1,25*%
X85252600Y-92217200D03*
%TO.P,1,26*%
X83982600Y-92217200D03*
%TO.P,1,27*%
X85252600Y-93487200D03*
%TO.P,1,28*%
X83982600Y-93487200D03*
%TO.P,1,29*%
X85252600Y-94757200D03*
%TO.P,1,30*%
X83982600Y-94757200D03*
%TO.P,1,31*%
X85252600Y-96027200D03*
%TO.P,1,32*%
X83982600Y-96027200D03*
%TO.P,1,33*%
X85252600Y-97297200D03*
%TO.P,1,34*%
X83982600Y-97297200D03*
%TO.P,1,35*%
X85252600Y-98567200D03*
%TO.P,1,36*%
X83982600Y-98567200D03*
%TO.P,1,37*%
X85252600Y-99837200D03*
%TO.P,1,38*%
X83982600Y-99837200D03*
%TO.P,1,39*%
X85252600Y-101107200D03*
%TO.P,1,40*%
X83982600Y-101107200D03*
%TO.P,1,41*%
X85252600Y-102377200D03*
%TO.P,1,42*%
X83982600Y-102377200D03*
%TO.P,1,43*%
X85252600Y-103647200D03*
%TO.P,1,44*%
X83982600Y-103647200D03*
%TO.P,1,45*%
X85252600Y-104917200D03*
%TO.P,1,46*%
X83982600Y-104917200D03*
%TO.P,1,47*%
X85252600Y-106187200D03*
%TO.P,1,48*%
X83982600Y-106187200D03*
%TO.P,1,49*%
X85252600Y-107457200D03*
%TO.P,1,50*%
X83982600Y-107457200D03*
%TO.P,1,51*%
X85252600Y-108727200D03*
%TO.P,1,52*%
X83982600Y-108727200D03*
%TO.P,1,53*%
X85252600Y-109997200D03*
%TO.P,1,54*%
X83982600Y-109997200D03*
%TO.P,1,55*%
X85252600Y-111267200D03*
%TO.P,1,56*%
X83982600Y-111267200D03*
%TO.P,1,57*%
X85252600Y-112537200D03*
%TO.P,1,58*%
X83982600Y-112537200D03*
%TO.P,1,59*%
X85252600Y-113807200D03*
%TO.P,1,60*%
X83982600Y-113807200D03*
%TO.P,1,61*%
X85252600Y-115077200D03*
%TO.P,1,62*%
X83982600Y-115077200D03*
%TO.P,1,63*%
X85252600Y-116347200D03*
%TO.P,1,64*%
X83982600Y-116347200D03*
%TO.P,1,65*%
X85252600Y-117617200D03*
%TO.P,1,66*%
X83982600Y-117617200D03*
%TO.P,1,67*%
X85252600Y-118887200D03*
%TO.P,1,68*%
X83982600Y-118887200D03*
%TO.P,1,69*%
X85252600Y-120157200D03*
%TO.P,1,70*%
X83982600Y-120157200D03*
%TO.P,1,71*%
X85252600Y-121427200D03*
%TO.P,1,72*%
X83982600Y-121427200D03*
%TO.P,1,73*%
X85252600Y-122697200D03*
%TO.P,1,74*%
X83982600Y-122697200D03*
%TO.P,1,75*%
X85252600Y-123967200D03*
%TO.P,1,76*%
X83982600Y-123967200D03*
%TD*%
D10*
%TO.P,3,1*%
%TO.N,N/C*%
X87782600Y-76962200D03*
D11*
%TO.P,3,2*%
X86512600Y-76962200D03*
%TO.P,3,3*%
X87782600Y-78232200D03*
%TO.P,3,4*%
X86512600Y-78232200D03*
%TO.P,3,5*%
X87782600Y-79502200D03*
%TO.P,3,6*%
X86512600Y-79502200D03*
%TO.P,3,7*%
X87782600Y-80772200D03*
%TO.P,3,8*%
X86512600Y-80772200D03*
%TO.P,3,9*%
X87782600Y-82042200D03*
%TO.P,3,10*%
X86512600Y-82042200D03*
%TO.P,3,11*%
X87782600Y-83312200D03*
%TO.P,3,12*%
X86512600Y-83312200D03*
%TO.P,3,13*%
X87782600Y-84582200D03*
%TO.P,3,14*%
X86512600Y-84582200D03*
%TO.P,3,15*%
X87782600Y-85852200D03*
%TO.P,3,16*%
X86512600Y-85852200D03*
%TO.P,3,17*%
X87782600Y-87122200D03*
%TO.P,3,18*%
X86512600Y-87122200D03*
%TO.P,3,19*%
X87782600Y-88392200D03*
%TO.P,3,20*%
X86512600Y-88392200D03*
%TO.P,3,21*%
X87782600Y-89662200D03*
%TO.P,3,22*%
X86512600Y-89662200D03*
%TO.P,3,23*%
X87782600Y-90932200D03*
%TO.P,3,24*%
X86512600Y-90932200D03*
%TO.P,3,25*%
X87782600Y-92202200D03*
%TO.P,3,26*%
X86512600Y-92202200D03*
%TO.P,3,27*%
X87782600Y-93472200D03*
%TO.P,3,28*%
X86512600Y-93472200D03*
%TO.P,3,29*%
X87782600Y-94742200D03*
%TO.P,3,30*%
X86512600Y-94742200D03*
%TO.P,3,31*%
X87782600Y-96012200D03*
%TO.P,3,32*%
X86512600Y-96012200D03*
%TO.P,3,33*%
X87782600Y-97282200D03*
%TO.P,3,34*%
X86512600Y-97282200D03*
%TO.P,3,35*%
X87782600Y-98552200D03*
%TO.P,3,36*%
X86512600Y-98552200D03*
%TO.P,3,37*%
X87782600Y-99822200D03*
%TO.P,3,38*%
X86512600Y-99822200D03*
%TO.P,3,39*%
X87782600Y-101092200D03*
%TO.P,3,40*%
X86512600Y-101092200D03*
%TO.P,3,41*%
X87782600Y-102362200D03*
%TO.P,3,42*%
X86512600Y-102362200D03*
%TO.P,3,43*%
X87782600Y-103632200D03*
%TO.P,3,44*%
X86512600Y-103632200D03*
%TO.P,3,45*%
X87782600Y-104902200D03*
%TO.P,3,46*%
X86512600Y-104902200D03*
%TO.P,3,47*%
X87782600Y-106172200D03*
%TO.P,3,48*%
X86512600Y-106172200D03*
%TO.P,3,49*%
X87782600Y-107442200D03*
%TO.P,3,50*%
X86512600Y-107442200D03*
%TO.P,3,51*%
X87782600Y-108712200D03*
%TO.P,3,52*%
X86512600Y-108712200D03*
%TO.P,3,53*%
X87782600Y-109982200D03*
%TO.P,3,54*%
X86512600Y-109982200D03*
%TO.P,3,55*%
X87782600Y-111252200D03*
%TO.P,3,56*%
X86512600Y-111252200D03*
%TO.P,3,57*%
X87782600Y-112522200D03*
%TO.P,3,58*%
X86512600Y-112522200D03*
%TO.P,3,59*%
X87782600Y-113792200D03*
%TO.P,3,60*%
X86512600Y-113792200D03*
%TO.P,3,61*%
X87782600Y-115062200D03*
%TO.P,3,62*%
X86512600Y-115062200D03*
%TO.P,3,63*%
X87782600Y-116332200D03*
%TO.P,3,64*%
X86512600Y-116332200D03*
%TO.P,3,65*%
X87782600Y-117602200D03*
%TO.P,3,66*%
X86512600Y-117602200D03*
%TO.P,3,67*%
X87782600Y-118872200D03*
%TO.P,3,68*%
X86512600Y-118872200D03*
%TO.P,3,69*%
X87782600Y-120142200D03*
%TO.P,3,70*%
X86512600Y-120142200D03*
%TO.P,3,71*%
X87782600Y-121412200D03*
%TO.P,3,72*%
X86512600Y-121412200D03*
%TO.P,3,73*%
X87782600Y-122682200D03*
%TO.P,3,74*%
X86512600Y-122682200D03*
%TO.P,3,75*%
X87782600Y-123952200D03*
%TO.P,3,76*%
X86512600Y-123952200D03*
%TD*%
D10*
%TO.P,USB3,1,Pin_1*%
%TO.N,/USB3_D+*%
X108089200Y-121630400D03*
D11*
%TO.P,USB3,2,Pin_2*%
%TO.N,/USB3_D-*%
X108089200Y-120360400D03*
%TD*%
D10*
%TO.P,SPK_R1,1,Pin_1*%
%TO.N,/SPEAKER_RP*%
X108089200Y-114289800D03*
D11*
%TO.P,SPK_R1,2,Pin_2*%
%TO.N,/SPEAKER_RN*%
X108089200Y-113019800D03*
%TD*%
D10*
%TO.P,7,1*%
%TO.N,N/C*%
X92862600Y-76977200D03*
D11*
%TO.P,7,2*%
X91592600Y-76977200D03*
%TO.P,7,3*%
X92862600Y-78247200D03*
%TO.P,7,4*%
X91592600Y-78247200D03*
%TO.P,7,5*%
X92862600Y-79517200D03*
%TO.P,7,6*%
X91592600Y-79517200D03*
%TO.P,7,7*%
X92862600Y-80787200D03*
%TO.P,7,8*%
X91592600Y-80787200D03*
%TO.P,7,9*%
X92862600Y-82057200D03*
%TO.P,7,10*%
X91592600Y-82057200D03*
%TO.P,7,11*%
X92862600Y-83327200D03*
%TO.P,7,12*%
X91592600Y-83327200D03*
%TO.P,7,13*%
X92862600Y-84597200D03*
%TO.P,7,14*%
X91592600Y-84597200D03*
%TO.P,7,15*%
X92862600Y-85867200D03*
%TO.P,7,16*%
X91592600Y-85867200D03*
%TO.P,7,17*%
X92862600Y-87137200D03*
%TO.P,7,18*%
X91592600Y-87137200D03*
%TO.P,7,19*%
X92862600Y-88407200D03*
%TO.P,7,20*%
X91592600Y-88407200D03*
%TO.P,7,21*%
X92862600Y-89677200D03*
%TO.P,7,22*%
X91592600Y-89677200D03*
%TO.P,7,23*%
X92862600Y-90947200D03*
%TO.P,7,24*%
X91592600Y-90947200D03*
%TO.P,7,25*%
X92862600Y-92217200D03*
%TO.P,7,26*%
X91592600Y-92217200D03*
%TO.P,7,27*%
X92862600Y-93487200D03*
%TO.P,7,28*%
X91592600Y-93487200D03*
%TO.P,7,29*%
X92862600Y-94757200D03*
%TO.P,7,30*%
X91592600Y-94757200D03*
%TO.P,7,31*%
X92862600Y-96027200D03*
%TO.P,7,32*%
X91592600Y-96027200D03*
%TO.P,7,33*%
X92862600Y-97297200D03*
%TO.P,7,34*%
X91592600Y-97297200D03*
%TO.P,7,35*%
X92862600Y-98567200D03*
%TO.P,7,36*%
X91592600Y-98567200D03*
%TO.P,7,37*%
X92862600Y-99837200D03*
%TO.P,7,38*%
X91592600Y-99837200D03*
%TO.P,7,39*%
X92862600Y-101107200D03*
%TO.P,7,40*%
X91592600Y-101107200D03*
%TO.P,7,41*%
X92862600Y-102377200D03*
%TO.P,7,42*%
X91592600Y-102377200D03*
%TO.P,7,43*%
X92862600Y-103647200D03*
%TO.P,7,44*%
X91592600Y-103647200D03*
%TO.P,7,45*%
X92862600Y-104917200D03*
%TO.P,7,46*%
X91592600Y-104917200D03*
%TO.P,7,47*%
X92862600Y-106187200D03*
%TO.P,7,48*%
X91592600Y-106187200D03*
%TO.P,7,49*%
X92862600Y-107457200D03*
%TO.P,7,50*%
X91592600Y-107457200D03*
%TO.P,7,51*%
X92862600Y-108727200D03*
%TO.P,7,52*%
X91592600Y-108727200D03*
%TO.P,7,53*%
X92862600Y-109997200D03*
%TO.P,7,54*%
X91592600Y-109997200D03*
%TO.P,7,55*%
X92862600Y-111267200D03*
%TO.P,7,56*%
X91592600Y-111267200D03*
%TO.P,7,57*%
X92862600Y-112537200D03*
%TO.P,7,58*%
X91592600Y-112537200D03*
%TO.P,7,59*%
X92862600Y-113807200D03*
%TO.P,7,60*%
X91592600Y-113807200D03*
%TO.P,7,61*%
X92862600Y-115077200D03*
%TO.P,7,62*%
X91592600Y-115077200D03*
%TO.P,7,63*%
X92862600Y-116347200D03*
%TO.P,7,64*%
X91592600Y-116347200D03*
%TO.P,7,65*%
X92862600Y-117617200D03*
%TO.P,7,66*%
X91592600Y-117617200D03*
%TO.P,7,67*%
X92862600Y-118887200D03*
%TO.P,7,68*%
X91592600Y-118887200D03*
%TO.P,7,69*%
X92862600Y-120157200D03*
%TO.P,7,70*%
X91592600Y-120157200D03*
%TO.P,7,71*%
X92862600Y-121427200D03*
%TO.P,7,72*%
X91592600Y-121427200D03*
%TO.P,7,73*%
X92862600Y-122697200D03*
%TO.P,7,74*%
X91592600Y-122697200D03*
%TO.P,7,75*%
X92862600Y-123967200D03*
%TO.P,7,76*%
X91592600Y-123967200D03*
%TD*%
D10*
%TO.P,3V1,1,Pin_1*%
%TO.N,+3V3*%
X98577600Y-126212800D03*
D11*
%TO.P,3V1,2,Pin_2*%
X99847600Y-126212800D03*
%TD*%
D10*
%TO.P,USB4,1,Pin_1*%
%TO.N,/USB4_D+*%
X108089200Y-117947400D03*
D11*
%TO.P,USB4,2,Pin_2*%
%TO.N,/USB4_D-*%
X108089200Y-116677400D03*
%TD*%
D13*
%TO.P,U3,1,P1*%
%TO.N,/SPEAKER_LP*%
X109965000Y-131000000D03*
%TO.P,U3,2,N1*%
%TO.N,/SPEAKER_LN*%
X109965000Y-134000000D03*
%TO.P,U3,3,P2*%
%TO.N,/SPEAKER_LP*%
X95195000Y-134000000D03*
%TO.P,U3,4,N2*%
%TO.N,/SPEAKER_LN*%
X95195000Y-131000000D03*
%TD*%
%TO.P,U2,1,P1*%
%TO.N,/SPEAKER_RP*%
X109965000Y-66000000D03*
%TO.P,U2,2,N1*%
%TO.N,/SPEAKER_RN*%
X109965000Y-69000000D03*
%TO.P,U2,3,P2*%
%TO.N,/SPEAKER_RP*%
X95195000Y-69000000D03*
%TO.P,U2,4,N2*%
%TO.N,/SPEAKER_RN*%
X95195000Y-66000000D03*
%TD*%
D14*
%TO.N,/SPEAKER_LP*%
X109390828Y-126302400D03*
X105994402Y-135243400D03*
X106949190Y-125288000D03*
%TO.N,/SPEAKER_LN*%
X105995809Y-132900000D03*
X109296400Y-124028400D03*
X106908772Y-124003000D03*
%TO.N,/SPEAKER_RP*%
X109271000Y-114300200D03*
X101737043Y-70623800D03*
X106985000Y-114274800D03*
%TO.N,/SPEAKER_RN*%
X107530000Y-66984653D03*
X103690084Y-70623800D03*
X107010400Y-113004800D03*
X109296400Y-113004800D03*
%TO.N,/CAM1_DP3*%
X106959602Y-110566400D03*
X110409347Y-108859947D03*
%TO.N,/CAM1_DN3*%
X106934200Y-109296400D03*
X109182425Y-109030025D03*
%TO.N,/CAM1_DN2*%
X109236992Y-106493792D03*
X106959600Y-106756400D03*
%TO.N,/CAM1_CP*%
X109297379Y-105495615D03*
X106934204Y-105486400D03*
%TO.N,/CAM1_CN*%
X109093200Y-103759200D03*
X106934200Y-104216400D03*
%TO.N,/CAM1_DP1*%
X109219613Y-102642837D03*
X106934200Y-102921000D03*
%TO.N,/CAM1_DN1*%
X109275800Y-100787480D03*
X106908800Y-101676400D03*
%TO.N,/CAM1_DP0*%
X106934200Y-100406400D03*
X105740400Y-100406400D03*
%TO.N,/CAM1_DN0*%
X104289597Y-99111003D03*
X106934200Y-99136400D03*
X105910118Y-99201518D03*
%TO.N,+5V*%
X96089178Y-127534378D03*
X99238000Y-136068000D03*
X97161605Y-127635467D03*
X92507000Y-127584400D03*
X100508000Y-136068000D03*
X93548402Y-127508206D03*
X101778000Y-136068000D03*
X105130800Y-127838400D03*
X94771068Y-127486268D03*
X104254501Y-135877501D03*
%TO.N,GND*%
X95478800Y-72999800D03*
X101723637Y-115768081D03*
X112495652Y-99346362D03*
X100508000Y-75285800D03*
X103276603Y-75311206D03*
X94183400Y-73025200D03*
X110363212Y-97057915D03*
X111371365Y-104578365D03*
X106197602Y-74549200D03*
X97891800Y-73279200D03*
X110685873Y-99937564D03*
X92888000Y-72974398D03*
X110326000Y-123317200D03*
X96723400Y-72974398D03*
X112154600Y-107793849D03*
X105740400Y-73482396D03*
X99257278Y-75288145D03*
X102644669Y-114328669D03*
X105740400Y-74523800D03*
X105740398Y-72441000D03*
X91643400Y-72999800D03*
X104292600Y-100381002D03*
X105207000Y-119278600D03*
%TO.N,+3V3*%
X99492000Y-127660600D03*
X112306409Y-106237008D03*
X100990600Y-127609800D03*
X114325600Y-106096000D03*
%TO.N,/GPIO28*%
X106197602Y-96139200D03*
X106959600Y-96774200D03*
%TO.N,/GPIO29*%
X107000378Y-95414200D03*
X106212402Y-94869200D03*
%TO.N,/GPIO30*%
X107011134Y-94144200D03*
X106223002Y-93599200D03*
%TO.N,/GPIO31*%
X106223000Y-92329200D03*
X107042739Y-92874200D03*
%TO.N,/GPIO32*%
X106223004Y-91059200D03*
X107050290Y-91604200D03*
%TO.N,/GPIO33*%
X106223002Y-89789200D03*
X107014087Y-90334200D03*
%TO.N,/GPIO34*%
X107004793Y-89064200D03*
X106223004Y-88519200D03*
%TO.N,/GPIO35*%
X106223004Y-87249200D03*
X107010131Y-87794200D03*
%TO.N,/GPIO36*%
X107002753Y-86524200D03*
X106212402Y-85979200D03*
%TO.N,/GPIO37*%
X107061866Y-85254200D03*
X106273804Y-84709200D03*
%TO.N,/GPIO38*%
X107105854Y-83984200D03*
X106273802Y-83439200D03*
%TO.N,/GPIO39*%
X107010400Y-82714200D03*
X106248402Y-82169200D03*
%TO.N,/GPIO40*%
X107011986Y-81444200D03*
X106223002Y-80899200D03*
%TO.N,/GPIO41*%
X106961619Y-80174200D03*
X106172202Y-79629200D03*
%TO.N,/GPIO42*%
X106197602Y-78384600D03*
X107002995Y-78904200D03*
%TO.N,/GPIO43*%
X106197602Y-77114600D03*
X106986114Y-77659600D03*
%TO.N,/GPIO44*%
X106197602Y-75844600D03*
X106996411Y-76389600D03*
%TO.N,/GPIO45*%
X106959600Y-75184200D03*
X106963308Y-73906005D03*
%TO.N,/USB3_D-*%
X109136325Y-119963762D03*
X106959600Y-120345400D03*
%TO.N,/USB3_D+*%
X106959600Y-121640800D03*
X109220200Y-121666200D03*
%TO.N,/USB4_D-*%
X109169396Y-116544423D03*
X107015053Y-116556147D03*
%TO.N,/USB4_D+*%
X109207500Y-117945100D03*
X106883400Y-117957800D03*
%TO.N,/CAM1_DP2*%
X106934198Y-108026400D03*
X109373250Y-107849250D03*
%TD*%
D15*
%TO.N,/SPEAKER_LP*%
X110765000Y-134984744D02*
X110449744Y-135300000D01*
X95195000Y-134000000D02*
X96296300Y-135101300D01*
X105852302Y-135101300D02*
X105994402Y-135243400D01*
X109965000Y-131000000D02*
X110765000Y-131800000D01*
X96296300Y-135101300D02*
X105852302Y-135101300D01*
X110449744Y-135300000D02*
X106051002Y-135300000D01*
X106051002Y-135300000D02*
X105994402Y-135243400D01*
X110765000Y-131800000D02*
X110765000Y-134984744D01*
X106949190Y-125288000D02*
X108089200Y-125288000D01*
%TO.N,/SPEAKER_LN*%
X109965000Y-134000000D02*
X109465000Y-134500000D01*
X104859809Y-134036000D02*
X105995809Y-132900000D01*
X107595809Y-134500000D02*
X105995809Y-132900000D01*
X98231000Y-134036000D02*
X104859809Y-134036000D01*
X106908772Y-124003000D02*
X108074200Y-124003000D01*
X108074200Y-124003000D02*
X108089200Y-124018000D01*
X95195000Y-131000000D02*
X98231000Y-134036000D01*
X109465000Y-134500000D02*
X107595809Y-134500000D01*
%TO.N,/SPEAKER_RP*%
X115397236Y-106580000D02*
X116485000Y-106580000D01*
X95695000Y-68500000D02*
X95195000Y-69000000D01*
X109245600Y-114274800D02*
X106985000Y-114274800D01*
X103316200Y-72202957D02*
X101737043Y-70623800D01*
X94395000Y-64965000D02*
X94395000Y-68200000D01*
X110166800Y-111810436D02*
X115397236Y-106580000D01*
X110166800Y-113419800D02*
X110166800Y-111810436D01*
X106985000Y-114274800D02*
X106908800Y-114274800D01*
X101821000Y-74684000D02*
X103316200Y-73188800D01*
X109271000Y-114300200D02*
X109281400Y-114289800D01*
X108665000Y-64700000D02*
X94660000Y-64700000D01*
X99638727Y-68500000D02*
X95695000Y-68500000D01*
X109271000Y-114300200D02*
X109245600Y-114274800D01*
X103316200Y-73188800D02*
X103316200Y-72202957D01*
X106908800Y-114274800D02*
X101821000Y-109187000D01*
X94395000Y-68200000D02*
X95195000Y-69000000D01*
X109296800Y-114289800D02*
X110166800Y-113419800D01*
X94660000Y-64700000D02*
X94395000Y-64965000D01*
X109281400Y-114289800D02*
X109296800Y-114289800D01*
X101658227Y-70519500D02*
X99638727Y-68500000D01*
X109965000Y-66000000D02*
X108665000Y-64700000D01*
X101821000Y-109187000D02*
X101821000Y-74684000D01*
%TO.N,/SPEAKER_RN*%
X107949653Y-66984653D02*
X107530000Y-66984653D01*
X106223000Y-113004800D02*
X107010400Y-113004800D01*
X95195000Y-66000000D02*
X96179653Y-66984653D01*
X115025600Y-106386600D02*
X115025600Y-105889400D01*
X103716200Y-70649916D02*
X103716200Y-73354486D01*
X103716200Y-73354486D02*
X102221000Y-74849686D01*
X109296400Y-113004800D02*
X109296400Y-112115800D01*
X96179653Y-66984653D02*
X107530000Y-66984653D01*
X115135000Y-105780000D02*
X116485000Y-105780000D01*
X109296400Y-112115800D02*
X115025600Y-106386600D01*
X103690084Y-70623800D02*
X103716200Y-70649916D01*
X102221000Y-109002800D02*
X106223000Y-113004800D01*
X109296400Y-113004800D02*
X107010400Y-113004800D01*
X109965000Y-69000000D02*
X107949653Y-66984653D01*
X115025600Y-105889400D02*
X115135000Y-105780000D01*
X102221000Y-74849686D02*
X102221000Y-109002800D01*
%TO.N,/CAM1_DP0*%
X105740400Y-100406400D02*
X106934200Y-100406400D01*
X106934200Y-100406400D02*
X108077200Y-100406400D01*
%TO.N,/CAM1_DN0*%
X108077200Y-99136400D02*
X105975236Y-99136400D01*
X106934200Y-99136400D02*
X108077200Y-99136400D01*
X105910118Y-99201518D02*
X104380112Y-99201518D01*
X105975236Y-99136400D02*
X105910118Y-99201518D01*
X104380112Y-99201518D02*
X104289597Y-99111003D01*
D16*
%TO.N,+5V*%
X113436600Y-137084000D02*
X113436600Y-112979400D01*
X105130800Y-127838400D02*
X105233632Y-127863800D01*
X111887200Y-136677600D02*
X101828800Y-136677600D01*
X111764800Y-135707800D02*
X111379200Y-136093400D01*
X104254501Y-136004501D02*
X104254501Y-135877501D01*
X99212600Y-136042600D02*
X99238000Y-136068000D01*
X105182832Y-127863800D02*
X105130800Y-127838400D01*
X100508000Y-136068000D02*
X100482600Y-136042600D01*
X101828800Y-136677600D02*
X101752600Y-136753800D01*
X112319000Y-112598400D02*
X112319000Y-136245800D01*
X100482600Y-136601400D02*
X100508000Y-136068000D01*
X112268200Y-137287200D02*
X101168400Y-137287200D01*
X112877800Y-136677600D02*
X112268200Y-137287200D01*
X97260467Y-127635467D02*
X97161605Y-127635467D01*
X100152400Y-137896800D02*
X112623800Y-137896800D01*
X111858000Y-132893000D02*
X111858000Y-132893000D01*
X94771061Y-127486275D02*
X94771068Y-127486268D01*
X104292600Y-136042600D02*
X104254501Y-136004501D01*
X101168400Y-137287200D02*
X100482600Y-136601400D01*
X116485000Y-108980000D02*
X115175400Y-108980000D01*
X115211449Y-108180000D02*
X116485000Y-108180000D01*
X115086700Y-110580000D02*
X112877800Y-112788900D01*
X112877800Y-112788900D02*
X112877800Y-136677600D01*
X112319000Y-136245800D02*
X111887200Y-136677600D01*
X116485000Y-110580000D02*
X115086700Y-110580000D01*
X101752600Y-136753800D02*
X101778000Y-136068000D01*
X96075610Y-127720610D02*
X96075610Y-127547946D01*
X115036000Y-111380000D02*
X116485000Y-111380000D01*
X99238000Y-136068000D02*
X99212600Y-136957000D01*
X96075610Y-127547946D02*
X96089178Y-127534378D01*
X111201400Y-127863800D02*
X111201400Y-112190049D01*
X116485000Y-109780000D02*
X115137400Y-109780000D01*
X111379200Y-136093400D02*
X104470400Y-136093400D01*
X111764800Y-112390600D02*
X111764800Y-135707800D01*
X113436600Y-112979400D02*
X115036000Y-111380000D01*
X101778000Y-136068000D02*
X101752600Y-136042600D01*
X105208232Y-127863800D02*
X105182832Y-127863800D01*
X115137400Y-109780000D02*
X112319000Y-112598400D01*
X93443396Y-127403200D02*
X93548402Y-127508206D01*
X105233632Y-127863800D02*
X111201400Y-127863800D01*
X99212600Y-136957000D02*
X100152400Y-137896800D01*
X115175400Y-108980000D02*
X111764800Y-112390600D01*
X104470400Y-136093400D02*
X104254501Y-135877501D01*
X112623800Y-137896800D02*
X113436600Y-137084000D01*
X94771061Y-127686061D02*
X94771061Y-127486275D01*
X111201400Y-112190049D02*
X115211449Y-108180000D01*
X97306534Y-127681534D02*
X97260467Y-127635467D01*
D17*
%TO.N,GND*%
X108944909Y-98196600D02*
X110685873Y-99937564D01*
X102743200Y-114401800D02*
X102717800Y-114401800D01*
X101307600Y-73342200D02*
X101307600Y-114210800D01*
X110363212Y-97057915D02*
X109808727Y-97612400D01*
X104724400Y-75539800D02*
X105740400Y-74523800D01*
X111371365Y-104578365D02*
X111469200Y-104676200D01*
X102717800Y-114401800D02*
X102644669Y-114328669D01*
X109808727Y-97612400D02*
X104724400Y-97612400D01*
X111469200Y-108825400D02*
X108839200Y-111455400D01*
X105403095Y-98196600D02*
X105389295Y-98210400D01*
X111041090Y-97891800D02*
X104267200Y-97891800D01*
X115198277Y-107380000D02*
X110591800Y-111986477D01*
X106197600Y-98196600D02*
X108944909Y-98196600D01*
X105207000Y-119251444D02*
X105207000Y-119278600D01*
X110591800Y-115138400D02*
X103479800Y-115138400D01*
X105740398Y-72441000D02*
X103835400Y-74345998D01*
X112495652Y-99346362D02*
X111041090Y-97891800D01*
X104292600Y-109804400D02*
X104292600Y-100381002D01*
X105961895Y-98196600D02*
X106197600Y-98196600D01*
X106011240Y-112192000D02*
X108610600Y-112192000D01*
X104267200Y-74955596D02*
X105740400Y-73482396D01*
X112154600Y-108648000D02*
X112154600Y-107793849D01*
X102670069Y-114328669D02*
X102644669Y-114328669D01*
X111469200Y-104676200D02*
X111469200Y-108825400D01*
X103835400Y-74345998D02*
X103835400Y-98210400D01*
X101244600Y-73279200D02*
X101307600Y-73342200D01*
X105943600Y-111455400D02*
X104292600Y-109804400D01*
X101307600Y-114210800D02*
X102805600Y-115708800D01*
X102743200Y-114401800D02*
X102670069Y-114328669D01*
X104724400Y-97612400D02*
X104724400Y-75539800D01*
X103276603Y-109457363D02*
X106011240Y-112192000D01*
X103276603Y-75311206D02*
X103276603Y-109457363D01*
X103479800Y-115138400D02*
X102743200Y-114401800D01*
X110591800Y-111986477D02*
X110591800Y-115138400D01*
X104267200Y-97891800D02*
X104267200Y-74955596D01*
X102805600Y-115708800D02*
X110626400Y-115708800D01*
X108610600Y-112192000D02*
X112154600Y-108648000D01*
X116485000Y-107380000D02*
X115198277Y-107380000D01*
X97891800Y-73279200D02*
X101244600Y-73279200D01*
X110626400Y-115708800D02*
X110626400Y-123016800D01*
X103835400Y-98210400D02*
X105389295Y-98210400D01*
X108839200Y-111455400D02*
X105943600Y-111455400D01*
X106197600Y-98196600D02*
X105403095Y-98196600D01*
X110626400Y-123016800D02*
X110326000Y-123317200D01*
X101723637Y-115768081D02*
X105207000Y-119251444D01*
D18*
%TO.N,+3V3*%
X100812800Y-127609800D02*
X100990600Y-127609800D01*
X114184592Y-106237008D02*
X112306409Y-106237008D01*
X114325600Y-106096000D02*
X114184592Y-106237008D01*
D17*
%TO.N,/GPIO28*%
X108077200Y-96799600D02*
X108975698Y-95901102D01*
X108975698Y-95901102D02*
X108102600Y-96774200D01*
X115085000Y-101780000D02*
X116485000Y-101780000D01*
X108975698Y-95901102D02*
X110231705Y-95901102D01*
X110231705Y-95901102D02*
X113210000Y-98879397D01*
X106959600Y-96774200D02*
X106832602Y-96774200D01*
X108077200Y-96774200D02*
X106959600Y-96774200D01*
X113210000Y-98879397D02*
X113210000Y-99142588D01*
X113210000Y-99142588D02*
X114110000Y-100042588D01*
X114110000Y-100042588D02*
X114110000Y-100805000D01*
X106832602Y-96774200D02*
X106197602Y-96139200D01*
X108102600Y-96774200D02*
X106959600Y-96774200D01*
X114110000Y-100805000D02*
X115085000Y-101780000D01*
%TO.N,/GPIO29*%
X116485000Y-100980000D02*
X115085000Y-100980000D01*
X115085000Y-100980000D02*
X114560000Y-100455000D01*
X113660000Y-98693001D02*
X110418101Y-95451102D01*
X113660000Y-98956192D02*
X113660000Y-98693001D01*
X108077200Y-95504200D02*
X107090378Y-95504200D01*
X106212402Y-94869200D02*
X106757402Y-95414200D01*
X108155698Y-95451102D02*
X108077200Y-95529600D01*
X114560000Y-100455000D02*
X114560000Y-99856192D01*
X106757402Y-95414200D02*
X107000378Y-95414200D01*
X107037280Y-95451102D02*
X107000378Y-95414200D01*
X110418101Y-95451102D02*
X107037280Y-95451102D01*
X107090378Y-95504200D02*
X107000378Y-95414200D01*
X114560000Y-99856192D02*
X113660000Y-98956192D01*
X110418101Y-95451102D02*
X108155698Y-95451102D01*
%TO.N,/GPIO30*%
X109874740Y-94259600D02*
X107126534Y-94259600D01*
X114110000Y-98494860D02*
X109874740Y-94259600D01*
X114110000Y-98769796D02*
X114110000Y-98494860D01*
X107101134Y-94234200D02*
X107011134Y-94144200D01*
X106223002Y-93599200D02*
X106768002Y-94144200D01*
X115010000Y-100105000D02*
X115010000Y-99669796D01*
X107126534Y-94259600D02*
X107011134Y-94144200D01*
X115010000Y-99669796D02*
X114110000Y-98769796D01*
X115085000Y-100180000D02*
X115010000Y-100105000D01*
X108077200Y-94234200D02*
X107101134Y-94234200D01*
X106768002Y-94144200D02*
X107011134Y-94144200D01*
X116485000Y-100180000D02*
X115085000Y-100180000D01*
%TO.N,/GPIO31*%
X107132739Y-92964200D02*
X107042739Y-92874200D01*
X106768000Y-92874200D02*
X107042739Y-92874200D01*
X109241135Y-92989600D02*
X108077200Y-92989600D01*
X115356600Y-99380000D02*
X114560000Y-98583400D01*
X106223000Y-92329200D02*
X106768000Y-92874200D01*
X114560000Y-98308465D02*
X109241135Y-92989600D01*
X114560000Y-98583400D02*
X114560000Y-98308465D01*
X108077200Y-92964200D02*
X107132739Y-92964200D01*
X116485000Y-99380000D02*
X115356600Y-99380000D01*
%TO.N,/GPIO32*%
X114094433Y-97206502D02*
X114094433Y-97202037D01*
X110334869Y-93442473D02*
X110330404Y-93442473D01*
X115192996Y-98580000D02*
X115010000Y-98397004D01*
X107140290Y-91694200D02*
X107050290Y-91604200D01*
X116485000Y-98580000D02*
X115192996Y-98580000D01*
X108607531Y-91719600D02*
X108077200Y-91719600D01*
X115010000Y-98397004D02*
X115010000Y-98122069D01*
X115010000Y-98122069D02*
X114094433Y-97206502D01*
X106768004Y-91604200D02*
X107050290Y-91604200D01*
X114094433Y-97202037D02*
X110334869Y-93442473D01*
X106223004Y-91059200D02*
X106768004Y-91604200D01*
X110330404Y-93442473D02*
X108607531Y-91719600D01*
X108077200Y-91694200D02*
X107140290Y-91694200D01*
%TO.N,/GPIO33*%
X108077200Y-90424200D02*
X107104087Y-90424200D01*
X115304327Y-97780000D02*
X114544433Y-97020106D01*
X114544433Y-97020106D02*
X114544433Y-97015641D01*
X106768002Y-90334200D02*
X107014087Y-90334200D01*
X116485000Y-97780000D02*
X115304327Y-97780000D01*
X110516800Y-92992473D02*
X108077200Y-90552873D01*
X108077200Y-90552873D02*
X108077200Y-90449600D01*
X114544433Y-97015641D02*
X110521265Y-92992473D01*
X110521265Y-92992473D02*
X110516800Y-92992473D01*
X107104087Y-90424200D02*
X107014087Y-90334200D01*
X106223002Y-89789200D02*
X106768002Y-90334200D01*
%TO.N,/GPIO34*%
X110703196Y-92542473D02*
X108876800Y-90716077D01*
X108077200Y-89179600D02*
X108077200Y-89179600D01*
X106223004Y-88519200D02*
X106768004Y-89064200D01*
X114994433Y-96833710D02*
X114994433Y-96829245D01*
X108077200Y-89154200D02*
X107094793Y-89154200D01*
X107094793Y-89154200D02*
X107004793Y-89064200D01*
X108426800Y-89632473D02*
X108426800Y-89529200D01*
X114994433Y-96829245D02*
X110707661Y-92542473D01*
X108876800Y-90716077D02*
X108876800Y-90082473D01*
X110707661Y-92542473D02*
X110703196Y-92542473D01*
X116485000Y-96980000D02*
X115140723Y-96980000D01*
X106768004Y-89064200D02*
X107004793Y-89064200D01*
X115140723Y-96980000D02*
X114994433Y-96833710D01*
X108876800Y-90082473D02*
X108426800Y-89632473D01*
X108426800Y-89529200D02*
X108077200Y-89179600D01*
%TO.N,/GPIO35*%
X108876800Y-88812473D02*
X108077200Y-88012873D01*
X110889592Y-92092473D02*
X109326800Y-90529681D01*
X109326800Y-89896077D02*
X108876800Y-89446077D01*
X109326800Y-90529681D02*
X109326800Y-89896077D01*
X107100131Y-87884200D02*
X107010131Y-87794200D01*
X110894057Y-92092473D02*
X110889592Y-92092473D01*
X108077200Y-87884200D02*
X107100131Y-87884200D01*
X108876800Y-89446077D02*
X108876800Y-88812473D01*
X114981584Y-96180000D02*
X110894057Y-92092473D01*
X108077200Y-88012873D02*
X108077200Y-87909600D01*
X106223004Y-87249200D02*
X106768004Y-87794200D01*
X116485000Y-96180000D02*
X114981584Y-96180000D01*
X108077200Y-87909600D02*
X108077200Y-87909600D01*
X106768004Y-87794200D02*
X107010131Y-87794200D01*
%TO.N,/GPIO36*%
X111080453Y-91642473D02*
X111075988Y-91642473D01*
X109326800Y-88626077D02*
X108876800Y-88176077D01*
X106757402Y-86524200D02*
X107002753Y-86524200D01*
X114817980Y-95380000D02*
X111080453Y-91642473D01*
X108077200Y-86639600D02*
X108077200Y-86639600D01*
X109776800Y-89709681D02*
X109326800Y-89259681D01*
X109776800Y-90343285D02*
X109776800Y-89709681D01*
X107092753Y-86614200D02*
X107002753Y-86524200D01*
X109326800Y-89259681D02*
X109326800Y-88626077D01*
X111075988Y-91642473D02*
X109776800Y-90343285D01*
X106212402Y-85979200D02*
X106757402Y-86524200D01*
X108077200Y-86742873D02*
X108077200Y-86639600D01*
X108077200Y-86614200D02*
X107092753Y-86614200D01*
X108876800Y-87542473D02*
X108077200Y-86742873D01*
X108876800Y-88176077D02*
X108876800Y-87542473D01*
X116485000Y-95380000D02*
X114817980Y-95380000D01*
%TO.N,/GPIO37*%
X107151866Y-85344200D02*
X107061866Y-85254200D01*
X109326800Y-87989681D02*
X109326800Y-87356077D01*
X108876800Y-86272473D02*
X108077200Y-85472873D01*
X109776800Y-89073285D02*
X109776800Y-88439681D01*
X109326800Y-87356077D02*
X108876800Y-86906077D01*
X110226800Y-89523285D02*
X109776800Y-89073285D01*
X108077200Y-85472873D02*
X108077200Y-85369600D01*
X111262384Y-91192473D02*
X110226800Y-90156889D01*
X116485000Y-94580000D02*
X114654376Y-94580000D01*
X106273804Y-84709200D02*
X106818804Y-85254200D01*
X106818804Y-85254200D02*
X107061866Y-85254200D01*
X108077200Y-85344200D02*
X107151866Y-85344200D01*
X114654376Y-94580000D02*
X111266849Y-91192473D01*
X109776800Y-88439681D02*
X109326800Y-87989681D01*
X111266849Y-91192473D02*
X111262384Y-91192473D01*
X110226800Y-90156889D02*
X110226800Y-89523285D01*
X108876800Y-86906077D02*
X108876800Y-86272473D01*
%TO.N,/GPIO38*%
X108876800Y-85636077D02*
X108876800Y-85002473D01*
X108077200Y-84202873D02*
X108077200Y-84099600D01*
X106818802Y-83984200D02*
X107105854Y-83984200D01*
X116485000Y-93780000D02*
X114490772Y-93780000D01*
X106273802Y-83439200D02*
X106818802Y-83984200D01*
X109326800Y-86086077D02*
X108876800Y-85636077D01*
X107195854Y-84074200D02*
X107105854Y-83984200D01*
X110676800Y-89966028D02*
X110676800Y-89336889D01*
X108077200Y-84074200D02*
X107195854Y-84074200D01*
X110226800Y-88886889D02*
X110226800Y-88253285D01*
X109776800Y-87803285D02*
X109776800Y-87169681D01*
X108876800Y-85002473D02*
X108077200Y-84202873D01*
X114490772Y-93780000D02*
X110676800Y-89966028D01*
X109326800Y-86719681D02*
X109326800Y-86086077D01*
X108077200Y-84099600D02*
X108077200Y-84099600D01*
X109776800Y-87169681D02*
X109326800Y-86719681D01*
X110676800Y-89336889D02*
X110226800Y-88886889D01*
X110226800Y-88253285D02*
X109776800Y-87803285D01*
%TO.N,/GPIO39*%
X110676800Y-88700493D02*
X110676800Y-88066889D01*
X108876800Y-84366077D02*
X108876800Y-83732473D01*
X108876800Y-83732473D02*
X108051800Y-82907473D01*
X106248402Y-82169200D02*
X106793402Y-82714200D01*
X110226800Y-87616889D02*
X110226800Y-86983285D01*
X108051800Y-82804200D02*
X108077200Y-82829600D01*
X108051800Y-82907473D02*
X108051800Y-82804200D01*
X110676800Y-88066889D02*
X110226800Y-87616889D01*
X109776800Y-85899681D02*
X109326800Y-85449681D01*
X114406307Y-92980000D02*
X111126800Y-89700493D01*
X108077200Y-82804200D02*
X107100400Y-82804200D01*
X109326800Y-85449681D02*
X109326800Y-84816077D01*
X111126800Y-89700493D02*
X111126800Y-89150493D01*
X107100400Y-82804200D02*
X107010400Y-82714200D01*
X106793402Y-82714200D02*
X107010400Y-82714200D01*
X109776800Y-86533285D02*
X109776800Y-85899681D01*
X116485000Y-92980000D02*
X114406307Y-92980000D01*
X111126800Y-89150493D02*
X110676800Y-88700493D01*
X109326800Y-84816077D02*
X108876800Y-84366077D01*
X110226800Y-86983285D02*
X109776800Y-86533285D01*
%TO.N,/GPIO40*%
X106768002Y-81444200D02*
X107011986Y-81444200D01*
X110226800Y-86346889D02*
X110226800Y-85713285D01*
X111126800Y-88514097D02*
X111126800Y-87880493D01*
X114242703Y-92180000D02*
X111576800Y-89514097D01*
X109326800Y-84179681D02*
X109326800Y-83546077D01*
X107101986Y-81534200D02*
X107011986Y-81444200D01*
X111576800Y-89514097D02*
X111576800Y-88964097D01*
X108444664Y-82030336D02*
X108426800Y-82012473D01*
X108876800Y-82462473D02*
X108444664Y-82030336D01*
X108426800Y-82012473D02*
X108426800Y-81883800D01*
X110676800Y-87430493D02*
X110676800Y-86796889D01*
X111126800Y-87880493D02*
X110676800Y-87430493D01*
X109776800Y-84629681D02*
X109326800Y-84179681D01*
X109776800Y-85263285D02*
X109776800Y-84629681D01*
X116485000Y-92180000D02*
X114242703Y-92180000D01*
X110226800Y-85713285D02*
X109776800Y-85263285D01*
X110676800Y-86796889D02*
X110226800Y-86346889D01*
X108426800Y-81883800D02*
X108077200Y-81534200D01*
X108444664Y-82030336D02*
X108077200Y-81662873D01*
X108077200Y-81662873D02*
X108077200Y-81559600D01*
X108876800Y-83096077D02*
X108876800Y-82462473D01*
X108077200Y-81534200D02*
X107101986Y-81534200D01*
X109326800Y-83546077D02*
X108876800Y-83096077D01*
X111576800Y-88964097D02*
X111126800Y-88514097D01*
X106223002Y-80899200D02*
X106768002Y-81444200D01*
%TO.N,/GPIO41*%
X109326800Y-82276077D02*
X108876800Y-81826077D01*
X108077200Y-80392873D02*
X108077200Y-80289600D01*
X112026800Y-88777701D02*
X111576800Y-88327701D01*
X108406563Y-80722237D02*
X108406563Y-80593563D01*
X110226800Y-84443285D02*
X109776800Y-83993285D01*
X111576800Y-87694097D02*
X111126800Y-87244097D01*
X116485000Y-91380000D02*
X114079099Y-91380000D01*
X110676800Y-85526889D02*
X110226800Y-85076889D01*
X114079099Y-91380000D02*
X112026800Y-89327701D01*
X107051619Y-80264200D02*
X106961619Y-80174200D01*
X111576800Y-88327701D02*
X111576800Y-87694097D01*
X110226800Y-85076889D02*
X110226800Y-84443285D01*
X108876800Y-81192473D02*
X108406563Y-80722237D01*
X108077200Y-80264200D02*
X107051619Y-80264200D01*
X111126800Y-87244097D02*
X111126800Y-86610493D01*
X109326800Y-82909681D02*
X109326800Y-82276077D01*
X111126800Y-86610493D02*
X110676800Y-86160493D01*
X109776800Y-83993285D02*
X109776800Y-83359681D01*
X112026800Y-89327701D02*
X112026800Y-88777701D01*
X108406563Y-80593563D02*
X108077200Y-80264200D01*
X110676800Y-86160493D02*
X110676800Y-85526889D01*
X108406563Y-80722237D02*
X108077200Y-80392873D01*
X108876800Y-81826077D02*
X108876800Y-81192473D01*
X109776800Y-83359681D02*
X109326800Y-82909681D01*
X106717202Y-80174200D02*
X106961619Y-80174200D01*
X106172202Y-79629200D02*
X106717202Y-80174200D01*
%TO.N,/GPIO42*%
X111576800Y-86424097D02*
X111126800Y-85974097D01*
X112476800Y-88591305D02*
X112026800Y-88141305D01*
X110676800Y-84890493D02*
X110676800Y-84256889D01*
X110676800Y-84256889D02*
X110226800Y-83806889D01*
X108495464Y-79541136D02*
X108077200Y-79122873D01*
X109776800Y-82723285D02*
X109776800Y-82089681D01*
X108077200Y-79122873D02*
X108077200Y-79019600D01*
X112026800Y-88141305D02*
X112026800Y-87507701D01*
X108495464Y-79541136D02*
X107858528Y-78904200D01*
X111126800Y-85340493D02*
X110676800Y-84890493D01*
X113915495Y-90580000D02*
X112476800Y-89141305D01*
X111576800Y-87057701D02*
X111576800Y-86424097D01*
X109326800Y-81639681D02*
X109326800Y-81006077D01*
X116485000Y-90580000D02*
X113915495Y-90580000D01*
X109326800Y-81006077D02*
X108876800Y-80556077D01*
X110226800Y-83806889D02*
X110226800Y-83173285D01*
X112476800Y-89141305D02*
X112476800Y-88591305D01*
X106197602Y-78384600D02*
X106717202Y-78904200D01*
X109776800Y-82089681D02*
X109326800Y-81639681D01*
X108876800Y-80556077D02*
X108876800Y-79922473D01*
X111126800Y-85974097D02*
X111126800Y-85340493D01*
X106717202Y-78904200D02*
X107002995Y-78904200D01*
X110226800Y-83173285D02*
X109776800Y-82723285D01*
X108876800Y-79922473D02*
X108495464Y-79541136D01*
X107858528Y-78904200D02*
X107002995Y-78904200D01*
X112026800Y-87507701D02*
X111576800Y-87057701D01*
%TO.N,/GPIO43*%
X111576800Y-85154097D02*
X111126800Y-84704097D01*
X112926800Y-88404909D02*
X112476800Y-87954909D01*
X108876800Y-78652473D02*
X108520864Y-78296536D01*
X109776800Y-81453285D02*
X109776800Y-80819681D01*
X108520864Y-78296536D02*
X107883928Y-77659600D01*
X116485000Y-89780000D02*
X113751891Y-89780000D01*
X108520864Y-78296536D02*
X108077200Y-77852873D01*
X112026800Y-86871305D02*
X112026800Y-86237701D01*
X106742602Y-77659600D02*
X106986114Y-77659600D01*
X110676800Y-82986889D02*
X110226800Y-82536889D01*
X111576800Y-85787701D02*
X111576800Y-85154097D01*
X110226800Y-81903285D02*
X109776800Y-81453285D01*
X111126800Y-84070493D02*
X110676800Y-83620493D01*
X108876800Y-79286077D02*
X108876800Y-78652473D01*
X110676800Y-83620493D02*
X110676800Y-82986889D01*
X109326800Y-79736077D02*
X108876800Y-79286077D01*
X107883928Y-77659600D02*
X106986114Y-77659600D01*
X109326800Y-80369681D02*
X109326800Y-79736077D01*
X112026800Y-86237701D02*
X111576800Y-85787701D01*
X113751891Y-89780000D02*
X112926800Y-88954909D01*
X110226800Y-82536889D02*
X110226800Y-81903285D01*
X106197602Y-77114600D02*
X106742602Y-77659600D01*
X111126800Y-84704097D02*
X111126800Y-84070493D01*
X108077200Y-77852873D02*
X108077200Y-77749600D01*
X109776800Y-80819681D02*
X109326800Y-80369681D01*
X112476800Y-87321305D02*
X112026800Y-86871305D01*
X112926800Y-88954909D02*
X112926800Y-88404909D01*
X112476800Y-87954909D02*
X112476800Y-87321305D01*
%TO.N,/GPIO44*%
X108876800Y-77382473D02*
X108419264Y-76924936D01*
X112026800Y-85601305D02*
X112026800Y-84967701D01*
X111126800Y-82800493D02*
X110676800Y-82350493D01*
X109776800Y-80183285D02*
X109776800Y-79549681D01*
X109326800Y-79099681D02*
X109326800Y-78466077D01*
X112476800Y-86051305D02*
X112026800Y-85601305D01*
X109326800Y-78466077D02*
X108876800Y-78016077D01*
X111126800Y-83434097D02*
X111126800Y-82800493D01*
X110226800Y-80633285D02*
X109776800Y-80183285D01*
X108419264Y-76924936D02*
X108419264Y-76796264D01*
X113376800Y-88630000D02*
X113376800Y-88218513D01*
X109776800Y-79549681D02*
X109326800Y-79099681D01*
X112026800Y-84967701D02*
X111576800Y-84517701D01*
X110676800Y-81716889D02*
X110226800Y-81266889D01*
X110226800Y-81266889D02*
X110226800Y-80633285D01*
X107061011Y-76454200D02*
X106996411Y-76389600D01*
X111576800Y-84517701D02*
X111576800Y-83884097D01*
X112926800Y-87768513D02*
X112926800Y-87134909D01*
X108419264Y-76924936D02*
X108077200Y-76582873D01*
X112926800Y-87134909D02*
X112476800Y-86684909D01*
X110676800Y-82350493D02*
X110676800Y-81716889D01*
X112476800Y-86684909D02*
X112476800Y-86051305D01*
X106742602Y-76389600D02*
X106996411Y-76389600D01*
X111576800Y-83884097D02*
X111126800Y-83434097D01*
X108077200Y-76454200D02*
X107061011Y-76454200D01*
X106197602Y-75844600D02*
X106742602Y-76389600D01*
X108876800Y-78016077D02*
X108876800Y-77382473D01*
X108077200Y-76582873D02*
X108077200Y-76479600D01*
X108419264Y-76796264D02*
X108077200Y-76454200D01*
X113376800Y-88218513D02*
X112926800Y-87768513D01*
X116485000Y-88980000D02*
X113726800Y-88980000D01*
X113726800Y-88980000D02*
X113376800Y-88630000D01*
%TO.N,/GPIO45*%
X110226800Y-79363285D02*
X109776800Y-78913285D01*
X106963308Y-74164492D02*
X106959600Y-74168200D01*
X106963308Y-73906005D02*
X106963308Y-74164492D01*
X111576800Y-83247701D02*
X111576800Y-82614097D01*
X108077200Y-75209600D02*
X108077200Y-75209600D01*
X109326800Y-77829681D02*
X109326800Y-76459200D01*
X106959600Y-73909713D02*
X106963308Y-73906005D01*
X112926800Y-86498513D02*
X112926800Y-85864909D01*
X111126800Y-82164097D02*
X111126800Y-81530493D01*
X109776800Y-78913285D02*
X109776800Y-78279681D01*
X113826800Y-88180000D02*
X113826800Y-88032117D01*
X109326800Y-76459200D02*
X108051800Y-75184200D01*
X108051800Y-75184200D02*
X106959600Y-75184200D01*
X112926800Y-85864909D02*
X112476800Y-85414909D01*
X112476800Y-84781305D02*
X112026800Y-84331305D01*
X109776800Y-78279681D02*
X109326800Y-77829681D01*
X113826800Y-88032117D02*
X113376800Y-87582117D01*
X111576800Y-82614097D02*
X111126800Y-82164097D01*
X111126800Y-81530493D02*
X110676800Y-81080493D01*
X116485000Y-88180000D02*
X113826800Y-88180000D01*
X113376800Y-87582117D02*
X113376800Y-86948513D01*
X113376800Y-86948513D02*
X112926800Y-86498513D01*
X112026800Y-83697701D02*
X111576800Y-83247701D01*
X110676800Y-80446889D02*
X110226800Y-79996889D01*
X112026800Y-84331305D02*
X112026800Y-83697701D01*
X110226800Y-79996889D02*
X110226800Y-79363285D01*
X110676800Y-81080493D02*
X110676800Y-80446889D01*
X106959600Y-75184200D02*
X106959600Y-73909713D01*
X112476800Y-85414909D02*
X112476800Y-84781305D01*
D15*
%TO.N,/USB3_D-*%
X108074200Y-120345400D02*
X108089200Y-120360400D01*
X106959600Y-120345400D02*
X108074200Y-120345400D01*
%TO.N,/USB3_D+*%
X108089200Y-121630400D02*
X106970000Y-121630400D01*
X106970000Y-121630400D02*
X106959600Y-121640800D01*
%TO.N,/USB4_D-*%
X107015053Y-116556147D02*
X107967947Y-116556147D01*
X107967947Y-116556147D02*
X108089200Y-116677400D01*
%TO.N,/USB4_D+*%
X108078800Y-117957800D02*
X108089200Y-117947400D01*
X106883400Y-117957800D02*
X108078800Y-117957800D01*
%TD*%
M02*
