M48
; DRILL file {KiCad 8.0.4} date 2025-01-28T00:25:06+0100
; FORMAT={-:-/ absolute / metric / decimal}
; #@! TF.CreationDate,2025-01-28T00:25:06+01:00
; #@! TF.GenerationSoftware,Kicad,Pcbnew,8.0.4
; #@! TF.FileFunction,Plated,1,2,PTH
FMAT,2
METRIC
; #@! TA.AperFunction,Plated,PTH,ViaDrill
T1C0.400
; #@! TA.AperFunction,Plated,PTH,ComponentDrill
T2C0.650
; #@! TA.AperFunction,Plated,PTH,ComponentDrill
T3C0.700
%
G90
G05
T1
X91.643Y-73.0
X92.507Y-127.584
X92.888Y-72.974
X93.548Y-127.508
X94.183Y-73.025
X94.771Y-127.486
X95.479Y-73.0
X96.089Y-127.534
X96.723Y-72.974
X97.162Y-127.635
X97.892Y-73.279
X99.238Y-136.068
X99.257Y-75.288
X99.492Y-127.661
X100.508Y-75.286
X100.508Y-136.068
X100.991Y-127.61
X101.724Y-115.768
X101.737Y-70.624
X101.778Y-136.068
X102.645Y-114.329
X103.277Y-75.311
X103.69Y-70.624
X104.255Y-135.878
X104.29Y-99.111
X104.293Y-100.381
X105.131Y-127.838
X105.207Y-119.279
X105.74Y-72.441
X105.74Y-73.482
X105.74Y-74.524
X105.74Y-100.406
X105.91Y-99.202
X105.994Y-135.243
X105.996Y-132.9
X106.172Y-79.629
X106.198Y-74.549
X106.198Y-75.845
X106.198Y-77.115
X106.198Y-78.385
X106.198Y-96.139
X106.212Y-85.979
X106.212Y-94.869
X106.223Y-92.329
X106.223Y-80.899
X106.223Y-89.789
X106.223Y-93.599
X106.223Y-87.249
X106.223Y-88.519
X106.223Y-91.059
X106.248Y-82.169
X106.274Y-83.439
X106.274Y-84.709
X106.883Y-117.958
X106.909Y-124.003
X106.909Y-101.676
X106.934Y-108.026
X106.934Y-99.136
X106.934Y-100.406
X106.934Y-102.921
X106.934Y-104.216
X106.934Y-109.296
X106.934Y-105.486
X106.949Y-125.288
X106.96Y-75.184
X106.96Y-96.774
X106.96Y-106.756
X106.96Y-120.345
X106.96Y-121.641
X106.96Y-110.566
X106.962Y-80.174
X106.963Y-73.906
X106.985Y-114.275
X106.986Y-77.66
X106.996Y-76.39
X107.0Y-95.414
X107.003Y-86.524
X107.003Y-78.904
X107.005Y-89.064
X107.01Y-87.794
X107.01Y-82.714
X107.01Y-113.005
X107.011Y-94.144
X107.012Y-81.444
X107.014Y-90.334
X107.015Y-116.556
X107.043Y-92.874
X107.05Y-91.604
X107.062Y-85.254
X107.106Y-83.984
X107.53Y-66.985
X109.093Y-103.759
X109.136Y-119.964
X109.169Y-116.544
X109.182Y-109.03
X109.207Y-117.945
X109.22Y-102.643
X109.22Y-121.666
X109.237Y-106.494
X109.271Y-114.3
X109.276Y-100.787
X109.296Y-113.005
X109.296Y-124.028
X109.297Y-105.496
X109.373Y-107.849
X109.391Y-126.302
X110.326Y-123.317
X110.363Y-97.058
X110.409Y-108.86
X110.686Y-99.938
X111.371Y-104.578
X112.155Y-107.794
X112.306Y-106.237
X112.496Y-99.346
X114.326Y-106.096
T2
X90.937Y-74.207
X90.958Y-126.213
X92.207Y-74.207
X92.228Y-126.213
X93.477Y-74.207
X93.498Y-126.213
X94.747Y-74.207
X94.768Y-126.213
X96.017Y-74.207
X96.038Y-126.213
X97.287Y-74.207
X98.557Y-74.207
X98.578Y-126.213
X99.827Y-74.207
X99.848Y-126.213
X108.077Y-75.184
X108.077Y-76.454
X108.077Y-77.724
X108.077Y-78.994
X108.077Y-80.264
X108.077Y-81.534
X108.077Y-82.804
X108.077Y-84.074
X108.077Y-85.344
X108.077Y-86.614
X108.077Y-87.884
X108.077Y-89.154
X108.077Y-90.424
X108.077Y-91.694
X108.077Y-92.964
X108.077Y-94.234
X108.077Y-95.504
X108.077Y-96.774
X108.077Y-99.136
X108.077Y-100.406
X108.077Y-101.676
X108.077Y-102.946
X108.077Y-104.216
X108.077Y-105.486
X108.077Y-106.756
X108.077Y-108.026
X108.077Y-109.296
X108.077Y-110.566
X108.089Y-113.02
X108.089Y-114.29
X108.089Y-116.677
X108.089Y-117.947
X108.089Y-120.36
X108.089Y-121.63
X108.089Y-124.018
X108.089Y-125.288
T3
X83.983Y-76.977
X83.983Y-78.247
X83.983Y-79.517
X83.983Y-80.787
X83.983Y-82.057
X83.983Y-83.327
X83.983Y-84.597
X83.983Y-85.867
X83.983Y-87.137
X83.983Y-88.407
X83.983Y-89.677
X83.983Y-90.947
X83.983Y-92.217
X83.983Y-93.487
X83.983Y-94.757
X83.983Y-96.027
X83.983Y-97.297
X83.983Y-98.567
X83.983Y-99.837
X83.983Y-101.107
X83.983Y-102.377
X83.983Y-103.647
X83.983Y-104.917
X83.983Y-106.187
X83.983Y-107.457
X83.983Y-108.727
X83.983Y-109.997
X83.983Y-111.267
X83.983Y-112.537
X83.983Y-113.807
X83.983Y-115.077
X83.983Y-116.347
X83.983Y-117.617
X83.983Y-118.887
X83.983Y-120.157
X83.983Y-121.427
X83.983Y-122.697
X83.983Y-123.967
X85.253Y-76.977
X85.253Y-78.247
X85.253Y-79.517
X85.253Y-80.787
X85.253Y-82.057
X85.253Y-83.327
X85.253Y-84.597
X85.253Y-85.867
X85.253Y-87.137
X85.253Y-88.407
X85.253Y-89.677
X85.253Y-90.947
X85.253Y-92.217
X85.253Y-93.487
X85.253Y-94.757
X85.253Y-96.027
X85.253Y-97.297
X85.253Y-98.567
X85.253Y-99.837
X85.253Y-101.107
X85.253Y-102.377
X85.253Y-103.647
X85.253Y-104.917
X85.253Y-106.187
X85.253Y-107.457
X85.253Y-108.727
X85.253Y-109.997
X85.253Y-111.267
X85.253Y-112.537
X85.253Y-113.807
X85.253Y-115.077
X85.253Y-116.347
X85.253Y-117.617
X85.253Y-118.887
X85.253Y-120.157
X85.253Y-121.427
X85.253Y-122.697
X85.253Y-123.967
X86.513Y-76.962
X86.513Y-78.232
X86.513Y-79.502
X86.513Y-80.772
X86.513Y-82.042
X86.513Y-83.312
X86.513Y-84.582
X86.513Y-85.852
X86.513Y-87.122
X86.513Y-88.392
X86.513Y-89.662
X86.513Y-90.932
X86.513Y-92.202
X86.513Y-93.472
X86.513Y-94.742
X86.513Y-96.012
X86.513Y-97.282
X86.513Y-98.552
X86.513Y-99.822
X86.513Y-101.092
X86.513Y-102.362
X86.513Y-103.632
X86.513Y-104.902
X86.513Y-106.172
X86.513Y-107.442
X86.513Y-108.712
X86.513Y-109.982
X86.513Y-111.252
X86.513Y-112.522
X86.513Y-113.792
X86.513Y-115.062
X86.513Y-116.332
X86.513Y-117.602
X86.513Y-118.872
X86.513Y-120.142
X86.513Y-121.412
X86.513Y-122.682
X86.513Y-123.952
X87.783Y-76.962
X87.783Y-78.232
X87.783Y-79.502
X87.783Y-80.772
X87.783Y-82.042
X87.783Y-83.312
X87.783Y-84.582
X87.783Y-85.852
X87.783Y-87.122
X87.783Y-88.392
X87.783Y-89.662
X87.783Y-90.932
X87.783Y-92.202
X87.783Y-93.472
X87.783Y-94.742
X87.783Y-96.012
X87.783Y-97.282
X87.783Y-98.552
X87.783Y-99.822
X87.783Y-101.092
X87.783Y-102.362
X87.783Y-103.632
X87.783Y-104.902
X87.783Y-106.172
X87.783Y-107.442
X87.783Y-108.712
X87.783Y-109.982
X87.783Y-111.252
X87.783Y-112.522
X87.783Y-113.792
X87.783Y-115.062
X87.783Y-116.332
X87.783Y-117.602
X87.783Y-118.872
X87.783Y-120.142
X87.783Y-121.412
X87.783Y-122.682
X87.783Y-123.952
X89.053Y-76.962
X89.053Y-78.232
X89.053Y-79.502
X89.053Y-80.772
X89.053Y-82.042
X89.053Y-83.312
X89.053Y-84.582
X89.053Y-85.852
X89.053Y-87.122
X89.053Y-88.392
X89.053Y-89.662
X89.053Y-90.932
X89.053Y-92.202
X89.053Y-93.472
X89.053Y-94.742
X89.053Y-96.012
X89.053Y-97.282
X89.053Y-98.552
X89.053Y-99.822
X89.053Y-101.092
X89.053Y-102.362
X89.053Y-103.632
X89.053Y-104.902
X89.053Y-106.172
X89.053Y-107.442
X89.053Y-108.712
X89.053Y-109.982
X89.053Y-111.252
X89.053Y-112.522
X89.053Y-113.792
X89.053Y-115.062
X89.053Y-116.332
X89.053Y-117.602
X89.053Y-118.872
X89.053Y-120.142
X89.053Y-121.412
X89.053Y-122.682
X89.053Y-123.952
X90.323Y-76.962
X90.323Y-78.232
X90.323Y-79.502
X90.323Y-80.772
X90.323Y-82.042
X90.323Y-83.312
X90.323Y-84.582
X90.323Y-85.852
X90.323Y-87.122
X90.323Y-88.392
X90.323Y-89.662
X90.323Y-90.932
X90.323Y-92.202
X90.323Y-93.472
X90.323Y-94.742
X90.323Y-96.012
X90.323Y-97.282
X90.323Y-98.552
X90.323Y-99.822
X90.323Y-101.092
X90.323Y-102.362
X90.323Y-103.632
X90.323Y-104.902
X90.323Y-106.172
X90.323Y-107.442
X90.323Y-108.712
X90.323Y-109.982
X90.323Y-111.252
X90.323Y-112.522
X90.323Y-113.792
X90.323Y-115.062
X90.323Y-116.332
X90.323Y-117.602
X90.323Y-118.872
X90.323Y-120.142
X90.323Y-121.412
X90.323Y-122.682
X90.323Y-123.952
X91.593Y-76.977
X91.593Y-78.247
X91.593Y-79.517
X91.593Y-80.787
X91.593Y-82.057
X91.593Y-83.327
X91.593Y-84.597
X91.593Y-85.867
X91.593Y-87.137
X91.593Y-88.407
X91.593Y-89.677
X91.593Y-90.947
X91.593Y-92.217
X91.593Y-93.487
X91.593Y-94.757
X91.593Y-96.027
X91.593Y-97.297
X91.593Y-98.567
X91.593Y-99.837
X91.593Y-101.107
X91.593Y-102.377
X91.593Y-103.647
X91.593Y-104.917
X91.593Y-106.187
X91.593Y-107.457
X91.593Y-108.727
X91.593Y-109.997
X91.593Y-111.267
X91.593Y-112.537
X91.593Y-113.807
X91.593Y-115.077
X91.593Y-116.347
X91.593Y-117.617
X91.593Y-118.887
X91.593Y-120.157
X91.593Y-121.427
X91.593Y-122.697
X91.593Y-123.967
X92.863Y-76.977
X92.863Y-78.247
X92.863Y-79.517
X92.863Y-80.787
X92.863Y-82.057
X92.863Y-83.327
X92.863Y-84.597
X92.863Y-85.867
X92.863Y-87.137
X92.863Y-88.407
X92.863Y-89.677
X92.863Y-90.947
X92.863Y-92.217
X92.863Y-93.487
X92.863Y-94.757
X92.863Y-96.027
X92.863Y-97.297
X92.863Y-98.567
X92.863Y-99.837
X92.863Y-101.107
X92.863Y-102.377
X92.863Y-103.647
X92.863Y-104.917
X92.863Y-106.187
X92.863Y-107.457
X92.863Y-108.727
X92.863Y-109.997
X92.863Y-111.267
X92.863Y-112.537
X92.863Y-113.807
X92.863Y-115.077
X92.863Y-116.347
X92.863Y-117.617
X92.863Y-118.887
X92.863Y-120.157
X92.863Y-121.427
X92.863Y-122.697
X92.863Y-123.967
X94.133Y-76.977
X94.133Y-78.247
X94.133Y-79.517
X94.133Y-80.787
X94.133Y-82.057
X94.133Y-83.327
X94.133Y-84.597
X94.133Y-85.867
X94.133Y-87.137
X94.133Y-88.407
X94.133Y-89.677
X94.133Y-90.947
X94.133Y-92.217
X94.133Y-93.487
X94.133Y-94.757
X94.133Y-96.027
X94.133Y-97.297
X94.133Y-98.567
X94.133Y-99.837
X94.133Y-101.107
X94.133Y-102.377
X94.133Y-103.647
X94.133Y-104.917
X94.133Y-106.187
X94.133Y-107.457
X94.133Y-108.727
X94.133Y-109.997
X94.133Y-111.267
X94.133Y-112.537
X94.133Y-113.807
X94.133Y-115.077
X94.133Y-116.347
X94.133Y-117.617
X94.133Y-118.887
X94.133Y-120.157
X94.133Y-121.427
X94.133Y-122.697
X94.133Y-123.967
X95.403Y-76.977
X95.403Y-78.247
X95.403Y-79.517
X95.403Y-80.787
X95.403Y-82.057
X95.403Y-83.327
X95.403Y-84.597
X95.403Y-85.867
X95.403Y-87.137
X95.403Y-88.407
X95.403Y-89.677
X95.403Y-90.947
X95.403Y-92.217
X95.403Y-93.487
X95.403Y-94.757
X95.403Y-96.027
X95.403Y-97.297
X95.403Y-98.567
X95.403Y-99.837
X95.403Y-101.107
X95.403Y-102.377
X95.403Y-103.647
X95.403Y-104.917
X95.403Y-106.187
X95.403Y-107.457
X95.403Y-108.727
X95.403Y-109.997
X95.403Y-111.267
X95.403Y-112.537
X95.403Y-113.807
X95.403Y-115.077
X95.403Y-116.347
X95.403Y-117.617
X95.403Y-118.887
X95.403Y-120.157
X95.403Y-121.427
X95.403Y-122.697
X95.403Y-123.967
X96.673Y-76.962
X96.673Y-78.232
X96.673Y-79.502
X96.673Y-80.772
X96.673Y-82.042
X96.673Y-83.312
X96.673Y-84.582
X96.673Y-85.852
X96.673Y-87.122
X96.673Y-88.392
X96.673Y-89.662
X96.673Y-90.932
X96.673Y-92.202
X96.673Y-93.472
X96.673Y-94.742
X96.673Y-96.012
X96.673Y-97.282
X96.673Y-98.552
X96.673Y-99.822
X96.673Y-101.092
X96.673Y-102.362
X96.673Y-103.632
X96.673Y-104.902
X96.673Y-106.172
X96.673Y-107.442
X96.673Y-108.712
X96.673Y-109.982
X96.673Y-111.252
X96.673Y-112.522
X96.673Y-113.792
X96.673Y-115.062
X96.673Y-116.332
X96.673Y-117.602
X96.673Y-118.872
X96.673Y-120.142
X96.673Y-121.412
X96.673Y-122.682
X96.673Y-123.952
X97.943Y-76.962
X97.943Y-78.232
X97.943Y-79.502
X97.943Y-80.772
X97.943Y-82.042
X97.943Y-83.312
X97.943Y-84.582
X97.943Y-85.852
X97.943Y-87.122
X97.943Y-88.392
X97.943Y-89.662
X97.943Y-90.932
X97.943Y-92.202
X97.943Y-93.472
X97.943Y-94.742
X97.943Y-96.012
X97.943Y-97.282
X97.943Y-98.552
X97.943Y-99.822
X97.943Y-101.092
X97.943Y-102.362
X97.943Y-103.632
X97.943Y-104.902
X97.943Y-106.172
X97.943Y-107.442
X97.943Y-108.712
X97.943Y-109.982
X97.943Y-111.252
X97.943Y-112.522
X97.943Y-113.792
X97.943Y-115.062
X97.943Y-116.332
X97.943Y-117.602
X97.943Y-118.872
X97.943Y-120.142
X97.943Y-121.412
X97.943Y-122.682
X97.943Y-123.952
X99.213Y-76.962
X99.213Y-78.232
X99.213Y-79.502
X99.213Y-80.772
X99.213Y-82.042
X99.213Y-83.312
X99.213Y-84.582
X99.213Y-85.852
X99.213Y-87.122
X99.213Y-88.392
X99.213Y-89.662
X99.213Y-90.932
X99.213Y-92.202
X99.213Y-93.472
X99.213Y-94.742
X99.213Y-96.012
X99.213Y-97.282
X99.213Y-98.552
X99.213Y-99.822
X99.213Y-101.092
X99.213Y-102.362
X99.213Y-103.632
X99.213Y-104.902
X99.213Y-106.172
X99.213Y-107.442
X99.213Y-108.712
X99.213Y-109.982
X99.213Y-111.252
X99.213Y-112.522
X99.213Y-113.792
X99.213Y-115.062
X99.213Y-116.332
X99.213Y-117.602
X99.213Y-118.872
X99.213Y-120.142
X99.213Y-121.412
X99.213Y-122.682
X99.213Y-123.952
X100.483Y-76.962
X100.483Y-78.232
X100.483Y-79.502
X100.483Y-80.772
X100.483Y-82.042
X100.483Y-83.312
X100.483Y-84.582
X100.483Y-85.852
X100.483Y-87.122
X100.483Y-88.392
X100.483Y-89.662
X100.483Y-90.932
X100.483Y-92.202
X100.483Y-93.472
X100.483Y-94.742
X100.483Y-96.012
X100.483Y-97.282
X100.483Y-98.552
X100.483Y-99.822
X100.483Y-101.092
X100.483Y-102.362
X100.483Y-103.632
X100.483Y-104.902
X100.483Y-106.172
X100.483Y-107.442
X100.483Y-108.712
X100.483Y-109.982
X100.483Y-111.252
X100.483Y-112.522
X100.483Y-113.792
X100.483Y-115.062
X100.483Y-116.332
X100.483Y-117.602
X100.483Y-118.872
X100.483Y-120.142
X100.483Y-121.412
X100.483Y-122.682
X100.483Y-123.952
M30
