%TF.GenerationSoftware,KiCad,Pcbnew,8.0.4*%
%TF.CreationDate,2025-01-30T01:36:08+01:00*%
%TF.ProjectId,uconsole-expansion-card-template,75636f6e-736f-46c6-952d-657870616e73,0.1*%
%TF.SameCoordinates,Original*%
%TF.FileFunction,Drillmap*%
%TF.FilePolarity,Positive*%
%FSLAX45Y45*%
G04 Gerber Fmt 4.5, Leading zero omitted, Abs format (unit mm)*
G04 Created by KiCad (PCBNEW 8.0.4) date 2025-01-30 01:36:08*
%MOMM*%
%LPD*%
G01*
G04 APERTURE LIST*
%ADD10C,0.200000*%
%ADD11C,0.100000*%
G04 APERTURE END LIST*
D10*
X11688500Y-8715000D02*
G75*
G02*
X11788500Y-8815000I0J-100000D01*
G01*
X8361500Y-6150000D02*
X11261500Y-6150000D01*
X8361500Y-13850000D02*
G75*
G02*
X8211500Y-13700000I0J150000D01*
G01*
X11788500Y-11185000D02*
G75*
G02*
X11688500Y-11285000I-100000J0D01*
G01*
X11688500Y-11285000D02*
X11461500Y-11285000D01*
X11411500Y-6300000D02*
X11411500Y-8665000D01*
X11411500Y-11335000D02*
X11411500Y-13700000D01*
X11788500Y-8815000D02*
X11788500Y-10258000D01*
X11261500Y-13850000D02*
X8361500Y-13850000D01*
X8211500Y-13700000D02*
X8211500Y-6300000D01*
X11788500Y-10258000D02*
G75*
G02*
X11738500Y-10308000I-50000J0D01*
G01*
X11488500Y-10458000D02*
G75*
G02*
X11488500Y-10308000I0J75000D01*
G01*
X11411500Y-11335000D02*
G75*
G02*
X11461500Y-11285000I50000J0D01*
G01*
X11488500Y-10308000D02*
X11738500Y-10308000D01*
X11738500Y-10458000D02*
G75*
G02*
X11788500Y-10508000I0J-50000D01*
G01*
X11411500Y-13700000D02*
G75*
G02*
X11261500Y-13850000I-150000J0D01*
G01*
X11788500Y-10508000D02*
X11788500Y-11185000D01*
X11461500Y-8715000D02*
G75*
G02*
X11411500Y-8665000I0J50000D01*
G01*
X11461500Y-8715000D02*
X11688500Y-8715000D01*
X11738500Y-10458000D02*
X11488500Y-10458000D01*
X11261500Y-6150000D02*
G75*
G02*
X11411500Y-6300000I0J-150000D01*
G01*
X8211500Y-6300000D02*
G75*
G02*
X8361500Y-6150000I150000J0D01*
G01*
D11*
X9144340Y-7279980D02*
X9184340Y-7319980D01*
X9184340Y-7279980D02*
X9144340Y-7319980D01*
X9230700Y-12738440D02*
X9270700Y-12778440D01*
X9270700Y-12738440D02*
X9230700Y-12778440D01*
X9268800Y-7277440D02*
X9308800Y-7317440D01*
X9308800Y-7277440D02*
X9268800Y-7317440D01*
X9334840Y-12730821D02*
X9374840Y-12770821D01*
X9374840Y-12730821D02*
X9334840Y-12770821D01*
X9398340Y-7282520D02*
X9438340Y-7322520D01*
X9438340Y-7282520D02*
X9398340Y-7322520D01*
X9457107Y-12728627D02*
X9497107Y-12768627D01*
X9497107Y-12728627D02*
X9457107Y-12768627D01*
X9527880Y-7279980D02*
X9567880Y-7319980D01*
X9567880Y-7279980D02*
X9527880Y-7319980D01*
X9588918Y-12733438D02*
X9628918Y-12773438D01*
X9628918Y-12733438D02*
X9588918Y-12773438D01*
X9652340Y-7277440D02*
X9692340Y-7317440D01*
X9692340Y-7277440D02*
X9652340Y-7317440D01*
X9696161Y-12743547D02*
X9736161Y-12783547D01*
X9736161Y-12743547D02*
X9696161Y-12783547D01*
X9769180Y-7307920D02*
X9809180Y-7347920D01*
X9809180Y-7307920D02*
X9769180Y-7347920D01*
X9903800Y-13586800D02*
X9943800Y-13626800D01*
X9943800Y-13586800D02*
X9903800Y-13626800D01*
X9905728Y-7508814D02*
X9945728Y-7548814D01*
X9945728Y-7508814D02*
X9905728Y-7548814D01*
X9929200Y-12746060D02*
X9969200Y-12786060D01*
X9969200Y-12746060D02*
X9929200Y-12786060D01*
X10030800Y-7508580D02*
X10070800Y-7548580D01*
X10070800Y-7508580D02*
X10030800Y-7548580D01*
X10030800Y-13586800D02*
X10070800Y-13626800D01*
X10070800Y-13586800D02*
X10030800Y-13626800D01*
X10079060Y-12740980D02*
X10119060Y-12780980D01*
X10119060Y-12740980D02*
X10079060Y-12780980D01*
X10152364Y-11556808D02*
X10192364Y-11596808D01*
X10192364Y-11556808D02*
X10152364Y-11596808D01*
X10153704Y-7042380D02*
X10193704Y-7082380D01*
X10193704Y-7042380D02*
X10153704Y-7082380D01*
X10157800Y-13586800D02*
X10197800Y-13626800D01*
X10197800Y-13586800D02*
X10157800Y-13626800D01*
X10244467Y-11412867D02*
X10284467Y-11452867D01*
X10284467Y-11412867D02*
X10244467Y-11452867D01*
X10307660Y-7511121D02*
X10347660Y-7551121D01*
X10347660Y-7511121D02*
X10307660Y-7551121D01*
X10349008Y-7042380D02*
X10389008Y-7082380D01*
X10389008Y-7042380D02*
X10349008Y-7082380D01*
X10405450Y-13567750D02*
X10445450Y-13607750D01*
X10445450Y-13567750D02*
X10405450Y-13607750D01*
X10408960Y-9891100D02*
X10448960Y-9931100D01*
X10448960Y-9891100D02*
X10408960Y-9931100D01*
X10409260Y-10018100D02*
X10449260Y-10058100D01*
X10449260Y-10018100D02*
X10409260Y-10058100D01*
X10493080Y-12763840D02*
X10533080Y-12803840D01*
X10533080Y-12763840D02*
X10493080Y-12803840D01*
X10500700Y-11907860D02*
X10540700Y-11947860D01*
X10540700Y-11907860D02*
X10500700Y-11947860D01*
X10554040Y-7224100D02*
X10594040Y-7264100D01*
X10594040Y-7224100D02*
X10554040Y-7264100D01*
X10554040Y-7328240D02*
X10594040Y-7368240D01*
X10594040Y-7328240D02*
X10554040Y-7368240D01*
X10554040Y-7432380D02*
X10594040Y-7472380D01*
X10594040Y-7432380D02*
X10554040Y-7472380D01*
X10554040Y-10020640D02*
X10594040Y-10060640D01*
X10594040Y-10020640D02*
X10554040Y-10060640D01*
X10571012Y-9900152D02*
X10611012Y-9940152D01*
X10611012Y-9900152D02*
X10571012Y-9940152D01*
X10579440Y-13504340D02*
X10619440Y-13544340D01*
X10619440Y-13504340D02*
X10579440Y-13544340D01*
X10579581Y-13270000D02*
X10619581Y-13310000D01*
X10619581Y-13270000D02*
X10579581Y-13310000D01*
X10597220Y-7942920D02*
X10637220Y-7982920D01*
X10637220Y-7942920D02*
X10597220Y-7982920D01*
X10599760Y-7434920D02*
X10639760Y-7474920D01*
X10639760Y-7434920D02*
X10599760Y-7474920D01*
X10599760Y-7564460D02*
X10639760Y-7604460D01*
X10639760Y-7564460D02*
X10599760Y-7604460D01*
X10599760Y-7691460D02*
X10639760Y-7731460D01*
X10639760Y-7691460D02*
X10599760Y-7731460D01*
X10599760Y-7818460D02*
X10639760Y-7858460D01*
X10639760Y-7818460D02*
X10599760Y-7858460D01*
X10599760Y-9593920D02*
X10639760Y-9633920D01*
X10639760Y-9593920D02*
X10599760Y-9633920D01*
X10601240Y-8577920D02*
X10641240Y-8617920D01*
X10641240Y-8577920D02*
X10601240Y-8617920D01*
X10601240Y-9466920D02*
X10641240Y-9506920D01*
X10641240Y-9466920D02*
X10601240Y-9506920D01*
X10602300Y-9212920D02*
X10642300Y-9252920D01*
X10642300Y-9212920D02*
X10602300Y-9252920D01*
X10602300Y-8069920D02*
X10642300Y-8109920D01*
X10642300Y-8069920D02*
X10602300Y-8109920D01*
X10602300Y-8958920D02*
X10642300Y-8998920D01*
X10642300Y-8958920D02*
X10602300Y-8998920D01*
X10602300Y-9339920D02*
X10642300Y-9379920D01*
X10642300Y-9339920D02*
X10602300Y-9379920D01*
X10602300Y-8704920D02*
X10642300Y-8744920D01*
X10642300Y-8704920D02*
X10602300Y-8744920D01*
X10602300Y-8831920D02*
X10642300Y-8871920D01*
X10642300Y-8831920D02*
X10602300Y-8871920D01*
X10602300Y-9085920D02*
X10642300Y-9125920D01*
X10642300Y-9085920D02*
X10602300Y-9125920D01*
X10604840Y-8196920D02*
X10644840Y-8236920D01*
X10644840Y-8196920D02*
X10604840Y-8236920D01*
X10607380Y-8323920D02*
X10647380Y-8363920D01*
X10647380Y-8323920D02*
X10607380Y-8363920D01*
X10607380Y-8450920D02*
X10647380Y-8490920D01*
X10647380Y-8450920D02*
X10607380Y-8490920D01*
X10668340Y-11775780D02*
X10708340Y-11815780D01*
X10708340Y-11775780D02*
X10668340Y-11815780D01*
X10670877Y-12380300D02*
X10710877Y-12420300D01*
X10710877Y-12380300D02*
X10670877Y-12420300D01*
X10670880Y-10147640D02*
X10710880Y-10187640D01*
X10710880Y-10147640D02*
X10670880Y-10187640D01*
X10673420Y-10782640D02*
X10713420Y-10822640D01*
X10713420Y-10782640D02*
X10673420Y-10822640D01*
X10673420Y-9893640D02*
X10713420Y-9933640D01*
X10713420Y-9893640D02*
X10673420Y-9933640D01*
X10673420Y-10020640D02*
X10713420Y-10060640D01*
X10713420Y-10020640D02*
X10673420Y-10060640D01*
X10673420Y-10272100D02*
X10713420Y-10312100D01*
X10713420Y-10272100D02*
X10673420Y-10312100D01*
X10673420Y-10401640D02*
X10713420Y-10441640D01*
X10713420Y-10401640D02*
X10673420Y-10441640D01*
X10673420Y-10909640D02*
X10713420Y-10949640D01*
X10713420Y-10909640D02*
X10673420Y-10949640D01*
X10673420Y-10528640D02*
X10713420Y-10568640D01*
X10713420Y-10528640D02*
X10673420Y-10568640D01*
X10674919Y-12508800D02*
X10714919Y-12548800D01*
X10714919Y-12508800D02*
X10674919Y-12548800D01*
X10675960Y-7498420D02*
X10715960Y-7538420D01*
X10715960Y-7498420D02*
X10675960Y-7538420D01*
X10675960Y-9657420D02*
X10715960Y-9697420D01*
X10715960Y-9657420D02*
X10675960Y-9697420D01*
X10675960Y-10655640D02*
X10715960Y-10695640D01*
X10715960Y-10655640D02*
X10675960Y-10695640D01*
X10675960Y-12014540D02*
X10715960Y-12054540D01*
X10715960Y-12014540D02*
X10675960Y-12054540D01*
X10675960Y-12144080D02*
X10715960Y-12184080D01*
X10715960Y-12144080D02*
X10675960Y-12184080D01*
X10675960Y-11036640D02*
X10715960Y-11076640D01*
X10715960Y-11036640D02*
X10675960Y-11076640D01*
X10676162Y-7997420D02*
X10716162Y-8037420D01*
X10716162Y-7997420D02*
X10676162Y-8037420D01*
X10676331Y-7370600D02*
X10716331Y-7410600D01*
X10716331Y-7370600D02*
X10676331Y-7410600D01*
X10678500Y-11407480D02*
X10718500Y-11447480D01*
X10718500Y-11407480D02*
X10678500Y-11447480D01*
X10678611Y-7745960D02*
X10718611Y-7785960D01*
X10718611Y-7745960D02*
X10678611Y-7785960D01*
X10679641Y-7618960D02*
X10719641Y-7658960D01*
X10719641Y-7618960D02*
X10679641Y-7658960D01*
X10680038Y-9521420D02*
X10720038Y-9561420D01*
X10720038Y-9521420D02*
X10680038Y-9561420D01*
X10680275Y-8632420D02*
X10720275Y-8672420D01*
X10720275Y-8632420D02*
X10680275Y-8672420D01*
X10680300Y-7870420D02*
X10720300Y-7910420D01*
X10720300Y-7870420D02*
X10680300Y-7910420D01*
X10680479Y-8886420D02*
X10720479Y-8926420D01*
X10720479Y-8886420D02*
X10680479Y-8926420D01*
X10681013Y-8759420D02*
X10721013Y-8799420D01*
X10721013Y-8759420D02*
X10681013Y-8799420D01*
X10681040Y-8251420D02*
X10721040Y-8291420D01*
X10721040Y-8251420D02*
X10681040Y-8291420D01*
X10681040Y-11280480D02*
X10721040Y-11320480D01*
X10721040Y-11280480D02*
X10681040Y-11320480D01*
X10681113Y-9394420D02*
X10721113Y-9434420D01*
X10721113Y-9394420D02*
X10681113Y-9434420D01*
X10681199Y-8124420D02*
X10721199Y-8164420D01*
X10721199Y-8124420D02*
X10681199Y-8164420D01*
X10681409Y-9013420D02*
X10721409Y-9053420D01*
X10721409Y-9013420D02*
X10681409Y-9053420D01*
X10681505Y-11635615D02*
X10721505Y-11675615D01*
X10721505Y-11635615D02*
X10681505Y-11675615D01*
X10684274Y-9267420D02*
X10724274Y-9307420D01*
X10724274Y-9267420D02*
X10684274Y-9307420D01*
X10685029Y-9140420D02*
X10725029Y-9180420D01*
X10725029Y-9140420D02*
X10685029Y-9180420D01*
X10686187Y-8505420D02*
X10726187Y-8545420D01*
X10726187Y-8505420D02*
X10686187Y-8545420D01*
X10690585Y-8378420D02*
X10730585Y-8418420D01*
X10730585Y-8378420D02*
X10690585Y-8418420D01*
X10733000Y-6678465D02*
X10773000Y-6718465D01*
X10773000Y-6678465D02*
X10733000Y-6718465D01*
X10889320Y-10355920D02*
X10929320Y-10395920D01*
X10929320Y-10355920D02*
X10889320Y-10395920D01*
X10893633Y-11976376D02*
X10933633Y-12016376D01*
X10933633Y-11976376D02*
X10893633Y-12016376D01*
X10896940Y-11634442D02*
X10936940Y-11674442D01*
X10936940Y-11634442D02*
X10896940Y-11674442D01*
X10898243Y-10883003D02*
X10938243Y-10923003D01*
X10938243Y-10883003D02*
X10898243Y-10923003D01*
X10900750Y-11774510D02*
X10940750Y-11814510D01*
X10940750Y-11774510D02*
X10900750Y-11814510D01*
X10901961Y-10244284D02*
X10941961Y-10284284D01*
X10941961Y-10244284D02*
X10901961Y-10284284D01*
X10902020Y-12146620D02*
X10942020Y-12186620D01*
X10942020Y-12146620D02*
X10902020Y-12186620D01*
X10903699Y-10629379D02*
X10943699Y-10669379D01*
X10943699Y-10629379D02*
X10903699Y-10669379D01*
X10907100Y-11410020D02*
X10947100Y-11450020D01*
X10947100Y-11410020D02*
X10907100Y-11450020D01*
X10907580Y-10058748D02*
X10947580Y-10098748D01*
X10947580Y-10058748D02*
X10907580Y-10098748D01*
X10909640Y-11280480D02*
X10949640Y-11320480D01*
X10949640Y-11280480D02*
X10909640Y-11320480D01*
X10909640Y-12382840D02*
X10949640Y-12422840D01*
X10949640Y-12382840D02*
X10909640Y-12422840D01*
X10909738Y-10529562D02*
X10949738Y-10569562D01*
X10949738Y-10529562D02*
X10909738Y-10569562D01*
X10917325Y-10764925D02*
X10957325Y-10804925D01*
X10957325Y-10764925D02*
X10917325Y-10804925D01*
X10919083Y-12610240D02*
X10959083Y-12650240D01*
X10959083Y-12610240D02*
X10919083Y-12650240D01*
X11012600Y-12311720D02*
X11052600Y-12351720D01*
X11052600Y-12311720D02*
X11012600Y-12351720D01*
X11016321Y-9685792D02*
X11056321Y-9725792D01*
X11056321Y-9685792D02*
X11016321Y-9725792D01*
X11020935Y-10865995D02*
X11060935Y-10905995D01*
X11060935Y-10865995D02*
X11020935Y-10905995D01*
X11048587Y-9973756D02*
X11088587Y-10013756D01*
X11088587Y-9973756D02*
X11048587Y-10013756D01*
X11117137Y-10437837D02*
X11157137Y-10477837D01*
X11157137Y-10437837D02*
X11117137Y-10477837D01*
X11195460Y-10759385D02*
X11235460Y-10799385D01*
X11235460Y-10759385D02*
X11195460Y-10799385D01*
X11210641Y-10603701D02*
X11250641Y-10643701D01*
X11250641Y-10603701D02*
X11210641Y-10643701D01*
X11229565Y-9914636D02*
X11269565Y-9954636D01*
X11269565Y-9914636D02*
X11229565Y-9954636D01*
X11412560Y-10589600D02*
X11452560Y-10629600D01*
X11452560Y-10589600D02*
X11412560Y-10629600D01*
X9126220Y-7420700D02*
G75*
G02*
X9061220Y-7420700I-32500J0D01*
G01*
X9061220Y-7420700D02*
G75*
G02*
X9126220Y-7420700I32500J0D01*
G01*
X9128260Y-12621280D02*
G75*
G02*
X9063260Y-12621280I-32500J0D01*
G01*
X9063260Y-12621280D02*
G75*
G02*
X9128260Y-12621280I32500J0D01*
G01*
X9253220Y-7420700D02*
G75*
G02*
X9188220Y-7420700I-32500J0D01*
G01*
X9188220Y-7420700D02*
G75*
G02*
X9253220Y-7420700I32500J0D01*
G01*
X9255260Y-12621280D02*
G75*
G02*
X9190260Y-12621280I-32500J0D01*
G01*
X9190260Y-12621280D02*
G75*
G02*
X9255260Y-12621280I32500J0D01*
G01*
X9380220Y-7420700D02*
G75*
G02*
X9315220Y-7420700I-32500J0D01*
G01*
X9315220Y-7420700D02*
G75*
G02*
X9380220Y-7420700I32500J0D01*
G01*
X9382260Y-12621280D02*
G75*
G02*
X9317260Y-12621280I-32500J0D01*
G01*
X9317260Y-12621280D02*
G75*
G02*
X9382260Y-12621280I32500J0D01*
G01*
X9507220Y-7420700D02*
G75*
G02*
X9442220Y-7420700I-32500J0D01*
G01*
X9442220Y-7420700D02*
G75*
G02*
X9507220Y-7420700I32500J0D01*
G01*
X9509260Y-12621280D02*
G75*
G02*
X9444260Y-12621280I-32500J0D01*
G01*
X9444260Y-12621280D02*
G75*
G02*
X9509260Y-12621280I32500J0D01*
G01*
X9634220Y-7420700D02*
G75*
G02*
X9569220Y-7420700I-32500J0D01*
G01*
X9569220Y-7420700D02*
G75*
G02*
X9634220Y-7420700I32500J0D01*
G01*
X9636260Y-12621280D02*
G75*
G02*
X9571260Y-12621280I-32500J0D01*
G01*
X9571260Y-12621280D02*
G75*
G02*
X9636260Y-12621280I32500J0D01*
G01*
X9761220Y-7420700D02*
G75*
G02*
X9696220Y-7420700I-32500J0D01*
G01*
X9696220Y-7420700D02*
G75*
G02*
X9761220Y-7420700I32500J0D01*
G01*
X9888220Y-7420700D02*
G75*
G02*
X9823220Y-7420700I-32500J0D01*
G01*
X9823220Y-7420700D02*
G75*
G02*
X9888220Y-7420700I32500J0D01*
G01*
X9890260Y-12621280D02*
G75*
G02*
X9825260Y-12621280I-32500J0D01*
G01*
X9825260Y-12621280D02*
G75*
G02*
X9890260Y-12621280I32500J0D01*
G01*
X10015220Y-7420700D02*
G75*
G02*
X9950220Y-7420700I-32500J0D01*
G01*
X9950220Y-7420700D02*
G75*
G02*
X10015220Y-7420700I32500J0D01*
G01*
X10017260Y-12621280D02*
G75*
G02*
X9952260Y-12621280I-32500J0D01*
G01*
X9952260Y-12621280D02*
G75*
G02*
X10017260Y-12621280I32500J0D01*
G01*
X10840220Y-7518420D02*
G75*
G02*
X10775220Y-7518420I-32500J0D01*
G01*
X10775220Y-7518420D02*
G75*
G02*
X10840220Y-7518420I32500J0D01*
G01*
X10840220Y-7645420D02*
G75*
G02*
X10775220Y-7645420I-32500J0D01*
G01*
X10775220Y-7645420D02*
G75*
G02*
X10840220Y-7645420I32500J0D01*
G01*
X10840220Y-7772420D02*
G75*
G02*
X10775220Y-7772420I-32500J0D01*
G01*
X10775220Y-7772420D02*
G75*
G02*
X10840220Y-7772420I32500J0D01*
G01*
X10840220Y-7899420D02*
G75*
G02*
X10775220Y-7899420I-32500J0D01*
G01*
X10775220Y-7899420D02*
G75*
G02*
X10840220Y-7899420I32500J0D01*
G01*
X10840220Y-8026420D02*
G75*
G02*
X10775220Y-8026420I-32500J0D01*
G01*
X10775220Y-8026420D02*
G75*
G02*
X10840220Y-8026420I32500J0D01*
G01*
X10840220Y-8153420D02*
G75*
G02*
X10775220Y-8153420I-32500J0D01*
G01*
X10775220Y-8153420D02*
G75*
G02*
X10840220Y-8153420I32500J0D01*
G01*
X10840220Y-8280420D02*
G75*
G02*
X10775220Y-8280420I-32500J0D01*
G01*
X10775220Y-8280420D02*
G75*
G02*
X10840220Y-8280420I32500J0D01*
G01*
X10840220Y-8407420D02*
G75*
G02*
X10775220Y-8407420I-32500J0D01*
G01*
X10775220Y-8407420D02*
G75*
G02*
X10840220Y-8407420I32500J0D01*
G01*
X10840220Y-8534420D02*
G75*
G02*
X10775220Y-8534420I-32500J0D01*
G01*
X10775220Y-8534420D02*
G75*
G02*
X10840220Y-8534420I32500J0D01*
G01*
X10840220Y-8661420D02*
G75*
G02*
X10775220Y-8661420I-32500J0D01*
G01*
X10775220Y-8661420D02*
G75*
G02*
X10840220Y-8661420I32500J0D01*
G01*
X10840220Y-8788420D02*
G75*
G02*
X10775220Y-8788420I-32500J0D01*
G01*
X10775220Y-8788420D02*
G75*
G02*
X10840220Y-8788420I32500J0D01*
G01*
X10840220Y-8915420D02*
G75*
G02*
X10775220Y-8915420I-32500J0D01*
G01*
X10775220Y-8915420D02*
G75*
G02*
X10840220Y-8915420I32500J0D01*
G01*
X10840220Y-9042420D02*
G75*
G02*
X10775220Y-9042420I-32500J0D01*
G01*
X10775220Y-9042420D02*
G75*
G02*
X10840220Y-9042420I32500J0D01*
G01*
X10840220Y-9169420D02*
G75*
G02*
X10775220Y-9169420I-32500J0D01*
G01*
X10775220Y-9169420D02*
G75*
G02*
X10840220Y-9169420I32500J0D01*
G01*
X10840220Y-9296420D02*
G75*
G02*
X10775220Y-9296420I-32500J0D01*
G01*
X10775220Y-9296420D02*
G75*
G02*
X10840220Y-9296420I32500J0D01*
G01*
X10840220Y-9423420D02*
G75*
G02*
X10775220Y-9423420I-32500J0D01*
G01*
X10775220Y-9423420D02*
G75*
G02*
X10840220Y-9423420I32500J0D01*
G01*
X10840220Y-9550420D02*
G75*
G02*
X10775220Y-9550420I-32500J0D01*
G01*
X10775220Y-9550420D02*
G75*
G02*
X10840220Y-9550420I32500J0D01*
G01*
X10840220Y-9677420D02*
G75*
G02*
X10775220Y-9677420I-32500J0D01*
G01*
X10775220Y-9677420D02*
G75*
G02*
X10840220Y-9677420I32500J0D01*
G01*
X10840220Y-9913640D02*
G75*
G02*
X10775220Y-9913640I-32500J0D01*
G01*
X10775220Y-9913640D02*
G75*
G02*
X10840220Y-9913640I32500J0D01*
G01*
X10840220Y-10040640D02*
G75*
G02*
X10775220Y-10040640I-32500J0D01*
G01*
X10775220Y-10040640D02*
G75*
G02*
X10840220Y-10040640I32500J0D01*
G01*
X10840220Y-10167640D02*
G75*
G02*
X10775220Y-10167640I-32500J0D01*
G01*
X10775220Y-10167640D02*
G75*
G02*
X10840220Y-10167640I32500J0D01*
G01*
X10840220Y-10294640D02*
G75*
G02*
X10775220Y-10294640I-32500J0D01*
G01*
X10775220Y-10294640D02*
G75*
G02*
X10840220Y-10294640I32500J0D01*
G01*
X10840220Y-10421640D02*
G75*
G02*
X10775220Y-10421640I-32500J0D01*
G01*
X10775220Y-10421640D02*
G75*
G02*
X10840220Y-10421640I32500J0D01*
G01*
X10840220Y-10548640D02*
G75*
G02*
X10775220Y-10548640I-32500J0D01*
G01*
X10775220Y-10548640D02*
G75*
G02*
X10840220Y-10548640I32500J0D01*
G01*
X10840220Y-10675640D02*
G75*
G02*
X10775220Y-10675640I-32500J0D01*
G01*
X10775220Y-10675640D02*
G75*
G02*
X10840220Y-10675640I32500J0D01*
G01*
X10840220Y-10802640D02*
G75*
G02*
X10775220Y-10802640I-32500J0D01*
G01*
X10775220Y-10802640D02*
G75*
G02*
X10840220Y-10802640I32500J0D01*
G01*
X10840220Y-10929640D02*
G75*
G02*
X10775220Y-10929640I-32500J0D01*
G01*
X10775220Y-10929640D02*
G75*
G02*
X10840220Y-10929640I32500J0D01*
G01*
X10840220Y-11056640D02*
G75*
G02*
X10775220Y-11056640I-32500J0D01*
G01*
X10775220Y-11056640D02*
G75*
G02*
X10840220Y-11056640I32500J0D01*
G01*
X10841420Y-11301980D02*
G75*
G02*
X10776420Y-11301980I-32500J0D01*
G01*
X10776420Y-11301980D02*
G75*
G02*
X10841420Y-11301980I32500J0D01*
G01*
X10841420Y-11428980D02*
G75*
G02*
X10776420Y-11428980I-32500J0D01*
G01*
X10776420Y-11428980D02*
G75*
G02*
X10841420Y-11428980I32500J0D01*
G01*
X10841420Y-11667740D02*
G75*
G02*
X10776420Y-11667740I-32500J0D01*
G01*
X10776420Y-11667740D02*
G75*
G02*
X10841420Y-11667740I32500J0D01*
G01*
X10841420Y-11794740D02*
G75*
G02*
X10776420Y-11794740I-32500J0D01*
G01*
X10776420Y-11794740D02*
G75*
G02*
X10841420Y-11794740I32500J0D01*
G01*
X10841420Y-12036040D02*
G75*
G02*
X10776420Y-12036040I-32500J0D01*
G01*
X10776420Y-12036040D02*
G75*
G02*
X10841420Y-12036040I32500J0D01*
G01*
X10841420Y-12163040D02*
G75*
G02*
X10776420Y-12163040I-32500J0D01*
G01*
X10776420Y-12163040D02*
G75*
G02*
X10841420Y-12163040I32500J0D01*
G01*
X10841420Y-12401800D02*
G75*
G02*
X10776420Y-12401800I-32500J0D01*
G01*
X10776420Y-12401800D02*
G75*
G02*
X10841420Y-12401800I32500J0D01*
G01*
X10841420Y-12528800D02*
G75*
G02*
X10776420Y-12528800I-32500J0D01*
G01*
X10776420Y-12528800D02*
G75*
G02*
X10841420Y-12528800I32500J0D01*
G01*
X8398260Y-7662720D02*
X8398260Y-7732720D01*
X8363260Y-7697720D02*
X8433260Y-7697720D01*
X8398260Y-7789720D02*
X8398260Y-7859720D01*
X8363260Y-7824720D02*
X8433260Y-7824720D01*
X8398260Y-7916720D02*
X8398260Y-7986720D01*
X8363260Y-7951720D02*
X8433260Y-7951720D01*
X8398260Y-8043720D02*
X8398260Y-8113720D01*
X8363260Y-8078720D02*
X8433260Y-8078720D01*
X8398260Y-8170720D02*
X8398260Y-8240720D01*
X8363260Y-8205720D02*
X8433260Y-8205720D01*
X8398260Y-8297720D02*
X8398260Y-8367720D01*
X8363260Y-8332720D02*
X8433260Y-8332720D01*
X8398260Y-8424720D02*
X8398260Y-8494720D01*
X8363260Y-8459720D02*
X8433260Y-8459720D01*
X8398260Y-8551720D02*
X8398260Y-8621720D01*
X8363260Y-8586720D02*
X8433260Y-8586720D01*
X8398260Y-8678720D02*
X8398260Y-8748720D01*
X8363260Y-8713720D02*
X8433260Y-8713720D01*
X8398260Y-8805720D02*
X8398260Y-8875720D01*
X8363260Y-8840720D02*
X8433260Y-8840720D01*
X8398260Y-8932720D02*
X8398260Y-9002720D01*
X8363260Y-8967720D02*
X8433260Y-8967720D01*
X8398260Y-9059720D02*
X8398260Y-9129720D01*
X8363260Y-9094720D02*
X8433260Y-9094720D01*
X8398260Y-9186720D02*
X8398260Y-9256720D01*
X8363260Y-9221720D02*
X8433260Y-9221720D01*
X8398260Y-9313720D02*
X8398260Y-9383720D01*
X8363260Y-9348720D02*
X8433260Y-9348720D01*
X8398260Y-9440720D02*
X8398260Y-9510720D01*
X8363260Y-9475720D02*
X8433260Y-9475720D01*
X8398260Y-9567720D02*
X8398260Y-9637720D01*
X8363260Y-9602720D02*
X8433260Y-9602720D01*
X8398260Y-9694720D02*
X8398260Y-9764720D01*
X8363260Y-9729720D02*
X8433260Y-9729720D01*
X8398260Y-9821720D02*
X8398260Y-9891720D01*
X8363260Y-9856720D02*
X8433260Y-9856720D01*
X8398260Y-9948720D02*
X8398260Y-10018720D01*
X8363260Y-9983720D02*
X8433260Y-9983720D01*
X8398260Y-10075720D02*
X8398260Y-10145720D01*
X8363260Y-10110720D02*
X8433260Y-10110720D01*
X8398260Y-10202720D02*
X8398260Y-10272720D01*
X8363260Y-10237720D02*
X8433260Y-10237720D01*
X8398260Y-10329720D02*
X8398260Y-10399720D01*
X8363260Y-10364720D02*
X8433260Y-10364720D01*
X8398260Y-10456720D02*
X8398260Y-10526720D01*
X8363260Y-10491720D02*
X8433260Y-10491720D01*
X8398260Y-10583720D02*
X8398260Y-10653720D01*
X8363260Y-10618720D02*
X8433260Y-10618720D01*
X8398260Y-10710720D02*
X8398260Y-10780720D01*
X8363260Y-10745720D02*
X8433260Y-10745720D01*
X8398260Y-10837720D02*
X8398260Y-10907720D01*
X8363260Y-10872720D02*
X8433260Y-10872720D01*
X8398260Y-10964720D02*
X8398260Y-11034720D01*
X8363260Y-10999720D02*
X8433260Y-10999720D01*
X8398260Y-11091720D02*
X8398260Y-11161720D01*
X8363260Y-11126720D02*
X8433260Y-11126720D01*
X8398260Y-11218720D02*
X8398260Y-11288720D01*
X8363260Y-11253720D02*
X8433260Y-11253720D01*
X8398260Y-11345720D02*
X8398260Y-11415720D01*
X8363260Y-11380720D02*
X8433260Y-11380720D01*
X8398260Y-11472720D02*
X8398260Y-11542720D01*
X8363260Y-11507720D02*
X8433260Y-11507720D01*
X8398260Y-11599720D02*
X8398260Y-11669720D01*
X8363260Y-11634720D02*
X8433260Y-11634720D01*
X8398260Y-11726720D02*
X8398260Y-11796720D01*
X8363260Y-11761720D02*
X8433260Y-11761720D01*
X8398260Y-11853720D02*
X8398260Y-11923720D01*
X8363260Y-11888720D02*
X8433260Y-11888720D01*
X8398260Y-11980720D02*
X8398260Y-12050720D01*
X8363260Y-12015720D02*
X8433260Y-12015720D01*
X8398260Y-12107720D02*
X8398260Y-12177720D01*
X8363260Y-12142720D02*
X8433260Y-12142720D01*
X8398260Y-12234720D02*
X8398260Y-12304720D01*
X8363260Y-12269720D02*
X8433260Y-12269720D01*
X8398260Y-12361720D02*
X8398260Y-12431720D01*
X8363260Y-12396720D02*
X8433260Y-12396720D01*
X8525260Y-7662720D02*
X8525260Y-7732720D01*
X8490260Y-7697720D02*
X8560260Y-7697720D01*
X8525260Y-7789720D02*
X8525260Y-7859720D01*
X8490260Y-7824720D02*
X8560260Y-7824720D01*
X8525260Y-7916720D02*
X8525260Y-7986720D01*
X8490260Y-7951720D02*
X8560260Y-7951720D01*
X8525260Y-8043720D02*
X8525260Y-8113720D01*
X8490260Y-8078720D02*
X8560260Y-8078720D01*
X8525260Y-8170720D02*
X8525260Y-8240720D01*
X8490260Y-8205720D02*
X8560260Y-8205720D01*
X8525260Y-8297720D02*
X8525260Y-8367720D01*
X8490260Y-8332720D02*
X8560260Y-8332720D01*
X8525260Y-8424720D02*
X8525260Y-8494720D01*
X8490260Y-8459720D02*
X8560260Y-8459720D01*
X8525260Y-8551720D02*
X8525260Y-8621720D01*
X8490260Y-8586720D02*
X8560260Y-8586720D01*
X8525260Y-8678720D02*
X8525260Y-8748720D01*
X8490260Y-8713720D02*
X8560260Y-8713720D01*
X8525260Y-8805720D02*
X8525260Y-8875720D01*
X8490260Y-8840720D02*
X8560260Y-8840720D01*
X8525260Y-8932720D02*
X8525260Y-9002720D01*
X8490260Y-8967720D02*
X8560260Y-8967720D01*
X8525260Y-9059720D02*
X8525260Y-9129720D01*
X8490260Y-9094720D02*
X8560260Y-9094720D01*
X8525260Y-9186720D02*
X8525260Y-9256720D01*
X8490260Y-9221720D02*
X8560260Y-9221720D01*
X8525260Y-9313720D02*
X8525260Y-9383720D01*
X8490260Y-9348720D02*
X8560260Y-9348720D01*
X8525260Y-9440720D02*
X8525260Y-9510720D01*
X8490260Y-9475720D02*
X8560260Y-9475720D01*
X8525260Y-9567720D02*
X8525260Y-9637720D01*
X8490260Y-9602720D02*
X8560260Y-9602720D01*
X8525260Y-9694720D02*
X8525260Y-9764720D01*
X8490260Y-9729720D02*
X8560260Y-9729720D01*
X8525260Y-9821720D02*
X8525260Y-9891720D01*
X8490260Y-9856720D02*
X8560260Y-9856720D01*
X8525260Y-9948720D02*
X8525260Y-10018720D01*
X8490260Y-9983720D02*
X8560260Y-9983720D01*
X8525260Y-10075720D02*
X8525260Y-10145720D01*
X8490260Y-10110720D02*
X8560260Y-10110720D01*
X8525260Y-10202720D02*
X8525260Y-10272720D01*
X8490260Y-10237720D02*
X8560260Y-10237720D01*
X8525260Y-10329720D02*
X8525260Y-10399720D01*
X8490260Y-10364720D02*
X8560260Y-10364720D01*
X8525260Y-10456720D02*
X8525260Y-10526720D01*
X8490260Y-10491720D02*
X8560260Y-10491720D01*
X8525260Y-10583720D02*
X8525260Y-10653720D01*
X8490260Y-10618720D02*
X8560260Y-10618720D01*
X8525260Y-10710720D02*
X8525260Y-10780720D01*
X8490260Y-10745720D02*
X8560260Y-10745720D01*
X8525260Y-10837720D02*
X8525260Y-10907720D01*
X8490260Y-10872720D02*
X8560260Y-10872720D01*
X8525260Y-10964720D02*
X8525260Y-11034720D01*
X8490260Y-10999720D02*
X8560260Y-10999720D01*
X8525260Y-11091720D02*
X8525260Y-11161720D01*
X8490260Y-11126720D02*
X8560260Y-11126720D01*
X8525260Y-11218720D02*
X8525260Y-11288720D01*
X8490260Y-11253720D02*
X8560260Y-11253720D01*
X8525260Y-11345720D02*
X8525260Y-11415720D01*
X8490260Y-11380720D02*
X8560260Y-11380720D01*
X8525260Y-11472720D02*
X8525260Y-11542720D01*
X8490260Y-11507720D02*
X8560260Y-11507720D01*
X8525260Y-11599720D02*
X8525260Y-11669720D01*
X8490260Y-11634720D02*
X8560260Y-11634720D01*
X8525260Y-11726720D02*
X8525260Y-11796720D01*
X8490260Y-11761720D02*
X8560260Y-11761720D01*
X8525260Y-11853720D02*
X8525260Y-11923720D01*
X8490260Y-11888720D02*
X8560260Y-11888720D01*
X8525260Y-11980720D02*
X8525260Y-12050720D01*
X8490260Y-12015720D02*
X8560260Y-12015720D01*
X8525260Y-12107720D02*
X8525260Y-12177720D01*
X8490260Y-12142720D02*
X8560260Y-12142720D01*
X8525260Y-12234720D02*
X8525260Y-12304720D01*
X8490260Y-12269720D02*
X8560260Y-12269720D01*
X8525260Y-12361720D02*
X8525260Y-12431720D01*
X8490260Y-12396720D02*
X8560260Y-12396720D01*
X8651260Y-7661220D02*
X8651260Y-7731220D01*
X8616260Y-7696220D02*
X8686260Y-7696220D01*
X8651260Y-7788220D02*
X8651260Y-7858220D01*
X8616260Y-7823220D02*
X8686260Y-7823220D01*
X8651260Y-7915220D02*
X8651260Y-7985220D01*
X8616260Y-7950220D02*
X8686260Y-7950220D01*
X8651260Y-8042220D02*
X8651260Y-8112220D01*
X8616260Y-8077220D02*
X8686260Y-8077220D01*
X8651260Y-8169220D02*
X8651260Y-8239220D01*
X8616260Y-8204220D02*
X8686260Y-8204220D01*
X8651260Y-8296220D02*
X8651260Y-8366220D01*
X8616260Y-8331220D02*
X8686260Y-8331220D01*
X8651260Y-8423220D02*
X8651260Y-8493220D01*
X8616260Y-8458220D02*
X8686260Y-8458220D01*
X8651260Y-8550220D02*
X8651260Y-8620220D01*
X8616260Y-8585220D02*
X8686260Y-8585220D01*
X8651260Y-8677220D02*
X8651260Y-8747220D01*
X8616260Y-8712220D02*
X8686260Y-8712220D01*
X8651260Y-8804220D02*
X8651260Y-8874220D01*
X8616260Y-8839220D02*
X8686260Y-8839220D01*
X8651260Y-8931220D02*
X8651260Y-9001220D01*
X8616260Y-8966220D02*
X8686260Y-8966220D01*
X8651260Y-9058220D02*
X8651260Y-9128220D01*
X8616260Y-9093220D02*
X8686260Y-9093220D01*
X8651260Y-9185220D02*
X8651260Y-9255220D01*
X8616260Y-9220220D02*
X8686260Y-9220220D01*
X8651260Y-9312220D02*
X8651260Y-9382220D01*
X8616260Y-9347220D02*
X8686260Y-9347220D01*
X8651260Y-9439220D02*
X8651260Y-9509220D01*
X8616260Y-9474220D02*
X8686260Y-9474220D01*
X8651260Y-9566220D02*
X8651260Y-9636220D01*
X8616260Y-9601220D02*
X8686260Y-9601220D01*
X8651260Y-9693220D02*
X8651260Y-9763220D01*
X8616260Y-9728220D02*
X8686260Y-9728220D01*
X8651260Y-9820220D02*
X8651260Y-9890220D01*
X8616260Y-9855220D02*
X8686260Y-9855220D01*
X8651260Y-9947220D02*
X8651260Y-10017220D01*
X8616260Y-9982220D02*
X8686260Y-9982220D01*
X8651260Y-10074220D02*
X8651260Y-10144220D01*
X8616260Y-10109220D02*
X8686260Y-10109220D01*
X8651260Y-10201220D02*
X8651260Y-10271220D01*
X8616260Y-10236220D02*
X8686260Y-10236220D01*
X8651260Y-10328220D02*
X8651260Y-10398220D01*
X8616260Y-10363220D02*
X8686260Y-10363220D01*
X8651260Y-10455220D02*
X8651260Y-10525220D01*
X8616260Y-10490220D02*
X8686260Y-10490220D01*
X8651260Y-10582220D02*
X8651260Y-10652220D01*
X8616260Y-10617220D02*
X8686260Y-10617220D01*
X8651260Y-10709220D02*
X8651260Y-10779220D01*
X8616260Y-10744220D02*
X8686260Y-10744220D01*
X8651260Y-10836220D02*
X8651260Y-10906220D01*
X8616260Y-10871220D02*
X8686260Y-10871220D01*
X8651260Y-10963220D02*
X8651260Y-11033220D01*
X8616260Y-10998220D02*
X8686260Y-10998220D01*
X8651260Y-11090220D02*
X8651260Y-11160220D01*
X8616260Y-11125220D02*
X8686260Y-11125220D01*
X8651260Y-11217220D02*
X8651260Y-11287220D01*
X8616260Y-11252220D02*
X8686260Y-11252220D01*
X8651260Y-11344220D02*
X8651260Y-11414220D01*
X8616260Y-11379220D02*
X8686260Y-11379220D01*
X8651260Y-11471220D02*
X8651260Y-11541220D01*
X8616260Y-11506220D02*
X8686260Y-11506220D01*
X8651260Y-11598220D02*
X8651260Y-11668220D01*
X8616260Y-11633220D02*
X8686260Y-11633220D01*
X8651260Y-11725220D02*
X8651260Y-11795220D01*
X8616260Y-11760220D02*
X8686260Y-11760220D01*
X8651260Y-11852220D02*
X8651260Y-11922220D01*
X8616260Y-11887220D02*
X8686260Y-11887220D01*
X8651260Y-11979220D02*
X8651260Y-12049220D01*
X8616260Y-12014220D02*
X8686260Y-12014220D01*
X8651260Y-12106220D02*
X8651260Y-12176220D01*
X8616260Y-12141220D02*
X8686260Y-12141220D01*
X8651260Y-12233220D02*
X8651260Y-12303220D01*
X8616260Y-12268220D02*
X8686260Y-12268220D01*
X8651260Y-12360220D02*
X8651260Y-12430220D01*
X8616260Y-12395220D02*
X8686260Y-12395220D01*
X8778260Y-7661220D02*
X8778260Y-7731220D01*
X8743260Y-7696220D02*
X8813260Y-7696220D01*
X8778260Y-7788220D02*
X8778260Y-7858220D01*
X8743260Y-7823220D02*
X8813260Y-7823220D01*
X8778260Y-7915220D02*
X8778260Y-7985220D01*
X8743260Y-7950220D02*
X8813260Y-7950220D01*
X8778260Y-8042220D02*
X8778260Y-8112220D01*
X8743260Y-8077220D02*
X8813260Y-8077220D01*
X8778260Y-8169220D02*
X8778260Y-8239220D01*
X8743260Y-8204220D02*
X8813260Y-8204220D01*
X8778260Y-8296220D02*
X8778260Y-8366220D01*
X8743260Y-8331220D02*
X8813260Y-8331220D01*
X8778260Y-8423220D02*
X8778260Y-8493220D01*
X8743260Y-8458220D02*
X8813260Y-8458220D01*
X8778260Y-8550220D02*
X8778260Y-8620220D01*
X8743260Y-8585220D02*
X8813260Y-8585220D01*
X8778260Y-8677220D02*
X8778260Y-8747220D01*
X8743260Y-8712220D02*
X8813260Y-8712220D01*
X8778260Y-8804220D02*
X8778260Y-8874220D01*
X8743260Y-8839220D02*
X8813260Y-8839220D01*
X8778260Y-8931220D02*
X8778260Y-9001220D01*
X8743260Y-8966220D02*
X8813260Y-8966220D01*
X8778260Y-9058220D02*
X8778260Y-9128220D01*
X8743260Y-9093220D02*
X8813260Y-9093220D01*
X8778260Y-9185220D02*
X8778260Y-9255220D01*
X8743260Y-9220220D02*
X8813260Y-9220220D01*
X8778260Y-9312220D02*
X8778260Y-9382220D01*
X8743260Y-9347220D02*
X8813260Y-9347220D01*
X8778260Y-9439220D02*
X8778260Y-9509220D01*
X8743260Y-9474220D02*
X8813260Y-9474220D01*
X8778260Y-9566220D02*
X8778260Y-9636220D01*
X8743260Y-9601220D02*
X8813260Y-9601220D01*
X8778260Y-9693220D02*
X8778260Y-9763220D01*
X8743260Y-9728220D02*
X8813260Y-9728220D01*
X8778260Y-9820220D02*
X8778260Y-9890220D01*
X8743260Y-9855220D02*
X8813260Y-9855220D01*
X8778260Y-9947220D02*
X8778260Y-10017220D01*
X8743260Y-9982220D02*
X8813260Y-9982220D01*
X8778260Y-10074220D02*
X8778260Y-10144220D01*
X8743260Y-10109220D02*
X8813260Y-10109220D01*
X8778260Y-10201220D02*
X8778260Y-10271220D01*
X8743260Y-10236220D02*
X8813260Y-10236220D01*
X8778260Y-10328220D02*
X8778260Y-10398220D01*
X8743260Y-10363220D02*
X8813260Y-10363220D01*
X8778260Y-10455220D02*
X8778260Y-10525220D01*
X8743260Y-10490220D02*
X8813260Y-10490220D01*
X8778260Y-10582220D02*
X8778260Y-10652220D01*
X8743260Y-10617220D02*
X8813260Y-10617220D01*
X8778260Y-10709220D02*
X8778260Y-10779220D01*
X8743260Y-10744220D02*
X8813260Y-10744220D01*
X8778260Y-10836220D02*
X8778260Y-10906220D01*
X8743260Y-10871220D02*
X8813260Y-10871220D01*
X8778260Y-10963220D02*
X8778260Y-11033220D01*
X8743260Y-10998220D02*
X8813260Y-10998220D01*
X8778260Y-11090220D02*
X8778260Y-11160220D01*
X8743260Y-11125220D02*
X8813260Y-11125220D01*
X8778260Y-11217220D02*
X8778260Y-11287220D01*
X8743260Y-11252220D02*
X8813260Y-11252220D01*
X8778260Y-11344220D02*
X8778260Y-11414220D01*
X8743260Y-11379220D02*
X8813260Y-11379220D01*
X8778260Y-11471220D02*
X8778260Y-11541220D01*
X8743260Y-11506220D02*
X8813260Y-11506220D01*
X8778260Y-11598220D02*
X8778260Y-11668220D01*
X8743260Y-11633220D02*
X8813260Y-11633220D01*
X8778260Y-11725220D02*
X8778260Y-11795220D01*
X8743260Y-11760220D02*
X8813260Y-11760220D01*
X8778260Y-11852220D02*
X8778260Y-11922220D01*
X8743260Y-11887220D02*
X8813260Y-11887220D01*
X8778260Y-11979220D02*
X8778260Y-12049220D01*
X8743260Y-12014220D02*
X8813260Y-12014220D01*
X8778260Y-12106220D02*
X8778260Y-12176220D01*
X8743260Y-12141220D02*
X8813260Y-12141220D01*
X8778260Y-12233220D02*
X8778260Y-12303220D01*
X8743260Y-12268220D02*
X8813260Y-12268220D01*
X8778260Y-12360220D02*
X8778260Y-12430220D01*
X8743260Y-12395220D02*
X8813260Y-12395220D01*
X8905260Y-7661220D02*
X8905260Y-7731220D01*
X8870260Y-7696220D02*
X8940260Y-7696220D01*
X8905260Y-7788220D02*
X8905260Y-7858220D01*
X8870260Y-7823220D02*
X8940260Y-7823220D01*
X8905260Y-7915220D02*
X8905260Y-7985220D01*
X8870260Y-7950220D02*
X8940260Y-7950220D01*
X8905260Y-8042220D02*
X8905260Y-8112220D01*
X8870260Y-8077220D02*
X8940260Y-8077220D01*
X8905260Y-8169220D02*
X8905260Y-8239220D01*
X8870260Y-8204220D02*
X8940260Y-8204220D01*
X8905260Y-8296220D02*
X8905260Y-8366220D01*
X8870260Y-8331220D02*
X8940260Y-8331220D01*
X8905260Y-8423220D02*
X8905260Y-8493220D01*
X8870260Y-8458220D02*
X8940260Y-8458220D01*
X8905260Y-8550220D02*
X8905260Y-8620220D01*
X8870260Y-8585220D02*
X8940260Y-8585220D01*
X8905260Y-8677220D02*
X8905260Y-8747220D01*
X8870260Y-8712220D02*
X8940260Y-8712220D01*
X8905260Y-8804220D02*
X8905260Y-8874220D01*
X8870260Y-8839220D02*
X8940260Y-8839220D01*
X8905260Y-8931220D02*
X8905260Y-9001220D01*
X8870260Y-8966220D02*
X8940260Y-8966220D01*
X8905260Y-9058220D02*
X8905260Y-9128220D01*
X8870260Y-9093220D02*
X8940260Y-9093220D01*
X8905260Y-9185220D02*
X8905260Y-9255220D01*
X8870260Y-9220220D02*
X8940260Y-9220220D01*
X8905260Y-9312220D02*
X8905260Y-9382220D01*
X8870260Y-9347220D02*
X8940260Y-9347220D01*
X8905260Y-9439220D02*
X8905260Y-9509220D01*
X8870260Y-9474220D02*
X8940260Y-9474220D01*
X8905260Y-9566220D02*
X8905260Y-9636220D01*
X8870260Y-9601220D02*
X8940260Y-9601220D01*
X8905260Y-9693220D02*
X8905260Y-9763220D01*
X8870260Y-9728220D02*
X8940260Y-9728220D01*
X8905260Y-9820220D02*
X8905260Y-9890220D01*
X8870260Y-9855220D02*
X8940260Y-9855220D01*
X8905260Y-9947220D02*
X8905260Y-10017220D01*
X8870260Y-9982220D02*
X8940260Y-9982220D01*
X8905260Y-10074220D02*
X8905260Y-10144220D01*
X8870260Y-10109220D02*
X8940260Y-10109220D01*
X8905260Y-10201220D02*
X8905260Y-10271220D01*
X8870260Y-10236220D02*
X8940260Y-10236220D01*
X8905260Y-10328220D02*
X8905260Y-10398220D01*
X8870260Y-10363220D02*
X8940260Y-10363220D01*
X8905260Y-10455220D02*
X8905260Y-10525220D01*
X8870260Y-10490220D02*
X8940260Y-10490220D01*
X8905260Y-10582220D02*
X8905260Y-10652220D01*
X8870260Y-10617220D02*
X8940260Y-10617220D01*
X8905260Y-10709220D02*
X8905260Y-10779220D01*
X8870260Y-10744220D02*
X8940260Y-10744220D01*
X8905260Y-10836220D02*
X8905260Y-10906220D01*
X8870260Y-10871220D02*
X8940260Y-10871220D01*
X8905260Y-10963220D02*
X8905260Y-11033220D01*
X8870260Y-10998220D02*
X8940260Y-10998220D01*
X8905260Y-11090220D02*
X8905260Y-11160220D01*
X8870260Y-11125220D02*
X8940260Y-11125220D01*
X8905260Y-11217220D02*
X8905260Y-11287220D01*
X8870260Y-11252220D02*
X8940260Y-11252220D01*
X8905260Y-11344220D02*
X8905260Y-11414220D01*
X8870260Y-11379220D02*
X8940260Y-11379220D01*
X8905260Y-11471220D02*
X8905260Y-11541220D01*
X8870260Y-11506220D02*
X8940260Y-11506220D01*
X8905260Y-11598220D02*
X8905260Y-11668220D01*
X8870260Y-11633220D02*
X8940260Y-11633220D01*
X8905260Y-11725220D02*
X8905260Y-11795220D01*
X8870260Y-11760220D02*
X8940260Y-11760220D01*
X8905260Y-11852220D02*
X8905260Y-11922220D01*
X8870260Y-11887220D02*
X8940260Y-11887220D01*
X8905260Y-11979220D02*
X8905260Y-12049220D01*
X8870260Y-12014220D02*
X8940260Y-12014220D01*
X8905260Y-12106220D02*
X8905260Y-12176220D01*
X8870260Y-12141220D02*
X8940260Y-12141220D01*
X8905260Y-12233220D02*
X8905260Y-12303220D01*
X8870260Y-12268220D02*
X8940260Y-12268220D01*
X8905260Y-12360220D02*
X8905260Y-12430220D01*
X8870260Y-12395220D02*
X8940260Y-12395220D01*
X9032260Y-7661220D02*
X9032260Y-7731220D01*
X8997260Y-7696220D02*
X9067260Y-7696220D01*
X9032260Y-7788220D02*
X9032260Y-7858220D01*
X8997260Y-7823220D02*
X9067260Y-7823220D01*
X9032260Y-7915220D02*
X9032260Y-7985220D01*
X8997260Y-7950220D02*
X9067260Y-7950220D01*
X9032260Y-8042220D02*
X9032260Y-8112220D01*
X8997260Y-8077220D02*
X9067260Y-8077220D01*
X9032260Y-8169220D02*
X9032260Y-8239220D01*
X8997260Y-8204220D02*
X9067260Y-8204220D01*
X9032260Y-8296220D02*
X9032260Y-8366220D01*
X8997260Y-8331220D02*
X9067260Y-8331220D01*
X9032260Y-8423220D02*
X9032260Y-8493220D01*
X8997260Y-8458220D02*
X9067260Y-8458220D01*
X9032260Y-8550220D02*
X9032260Y-8620220D01*
X8997260Y-8585220D02*
X9067260Y-8585220D01*
X9032260Y-8677220D02*
X9032260Y-8747220D01*
X8997260Y-8712220D02*
X9067260Y-8712220D01*
X9032260Y-8804220D02*
X9032260Y-8874220D01*
X8997260Y-8839220D02*
X9067260Y-8839220D01*
X9032260Y-8931220D02*
X9032260Y-9001220D01*
X8997260Y-8966220D02*
X9067260Y-8966220D01*
X9032260Y-9058220D02*
X9032260Y-9128220D01*
X8997260Y-9093220D02*
X9067260Y-9093220D01*
X9032260Y-9185220D02*
X9032260Y-9255220D01*
X8997260Y-9220220D02*
X9067260Y-9220220D01*
X9032260Y-9312220D02*
X9032260Y-9382220D01*
X8997260Y-9347220D02*
X9067260Y-9347220D01*
X9032260Y-9439220D02*
X9032260Y-9509220D01*
X8997260Y-9474220D02*
X9067260Y-9474220D01*
X9032260Y-9566220D02*
X9032260Y-9636220D01*
X8997260Y-9601220D02*
X9067260Y-9601220D01*
X9032260Y-9693220D02*
X9032260Y-9763220D01*
X8997260Y-9728220D02*
X9067260Y-9728220D01*
X9032260Y-9820220D02*
X9032260Y-9890220D01*
X8997260Y-9855220D02*
X9067260Y-9855220D01*
X9032260Y-9947220D02*
X9032260Y-10017220D01*
X8997260Y-9982220D02*
X9067260Y-9982220D01*
X9032260Y-10074220D02*
X9032260Y-10144220D01*
X8997260Y-10109220D02*
X9067260Y-10109220D01*
X9032260Y-10201220D02*
X9032260Y-10271220D01*
X8997260Y-10236220D02*
X9067260Y-10236220D01*
X9032260Y-10328220D02*
X9032260Y-10398220D01*
X8997260Y-10363220D02*
X9067260Y-10363220D01*
X9032260Y-10455220D02*
X9032260Y-10525220D01*
X8997260Y-10490220D02*
X9067260Y-10490220D01*
X9032260Y-10582220D02*
X9032260Y-10652220D01*
X8997260Y-10617220D02*
X9067260Y-10617220D01*
X9032260Y-10709220D02*
X9032260Y-10779220D01*
X8997260Y-10744220D02*
X9067260Y-10744220D01*
X9032260Y-10836220D02*
X9032260Y-10906220D01*
X8997260Y-10871220D02*
X9067260Y-10871220D01*
X9032260Y-10963220D02*
X9032260Y-11033220D01*
X8997260Y-10998220D02*
X9067260Y-10998220D01*
X9032260Y-11090220D02*
X9032260Y-11160220D01*
X8997260Y-11125220D02*
X9067260Y-11125220D01*
X9032260Y-11217220D02*
X9032260Y-11287220D01*
X8997260Y-11252220D02*
X9067260Y-11252220D01*
X9032260Y-11344220D02*
X9032260Y-11414220D01*
X8997260Y-11379220D02*
X9067260Y-11379220D01*
X9032260Y-11471220D02*
X9032260Y-11541220D01*
X8997260Y-11506220D02*
X9067260Y-11506220D01*
X9032260Y-11598220D02*
X9032260Y-11668220D01*
X8997260Y-11633220D02*
X9067260Y-11633220D01*
X9032260Y-11725220D02*
X9032260Y-11795220D01*
X8997260Y-11760220D02*
X9067260Y-11760220D01*
X9032260Y-11852220D02*
X9032260Y-11922220D01*
X8997260Y-11887220D02*
X9067260Y-11887220D01*
X9032260Y-11979220D02*
X9032260Y-12049220D01*
X8997260Y-12014220D02*
X9067260Y-12014220D01*
X9032260Y-12106220D02*
X9032260Y-12176220D01*
X8997260Y-12141220D02*
X9067260Y-12141220D01*
X9032260Y-12233220D02*
X9032260Y-12303220D01*
X8997260Y-12268220D02*
X9067260Y-12268220D01*
X9032260Y-12360220D02*
X9032260Y-12430220D01*
X8997260Y-12395220D02*
X9067260Y-12395220D01*
X9159260Y-7662720D02*
X9159260Y-7732720D01*
X9124260Y-7697720D02*
X9194260Y-7697720D01*
X9159260Y-7789720D02*
X9159260Y-7859720D01*
X9124260Y-7824720D02*
X9194260Y-7824720D01*
X9159260Y-7916720D02*
X9159260Y-7986720D01*
X9124260Y-7951720D02*
X9194260Y-7951720D01*
X9159260Y-8043720D02*
X9159260Y-8113720D01*
X9124260Y-8078720D02*
X9194260Y-8078720D01*
X9159260Y-8170720D02*
X9159260Y-8240720D01*
X9124260Y-8205720D02*
X9194260Y-8205720D01*
X9159260Y-8297720D02*
X9159260Y-8367720D01*
X9124260Y-8332720D02*
X9194260Y-8332720D01*
X9159260Y-8424720D02*
X9159260Y-8494720D01*
X9124260Y-8459720D02*
X9194260Y-8459720D01*
X9159260Y-8551720D02*
X9159260Y-8621720D01*
X9124260Y-8586720D02*
X9194260Y-8586720D01*
X9159260Y-8678720D02*
X9159260Y-8748720D01*
X9124260Y-8713720D02*
X9194260Y-8713720D01*
X9159260Y-8805720D02*
X9159260Y-8875720D01*
X9124260Y-8840720D02*
X9194260Y-8840720D01*
X9159260Y-8932720D02*
X9159260Y-9002720D01*
X9124260Y-8967720D02*
X9194260Y-8967720D01*
X9159260Y-9059720D02*
X9159260Y-9129720D01*
X9124260Y-9094720D02*
X9194260Y-9094720D01*
X9159260Y-9186720D02*
X9159260Y-9256720D01*
X9124260Y-9221720D02*
X9194260Y-9221720D01*
X9159260Y-9313720D02*
X9159260Y-9383720D01*
X9124260Y-9348720D02*
X9194260Y-9348720D01*
X9159260Y-9440720D02*
X9159260Y-9510720D01*
X9124260Y-9475720D02*
X9194260Y-9475720D01*
X9159260Y-9567720D02*
X9159260Y-9637720D01*
X9124260Y-9602720D02*
X9194260Y-9602720D01*
X9159260Y-9694720D02*
X9159260Y-9764720D01*
X9124260Y-9729720D02*
X9194260Y-9729720D01*
X9159260Y-9821720D02*
X9159260Y-9891720D01*
X9124260Y-9856720D02*
X9194260Y-9856720D01*
X9159260Y-9948720D02*
X9159260Y-10018720D01*
X9124260Y-9983720D02*
X9194260Y-9983720D01*
X9159260Y-10075720D02*
X9159260Y-10145720D01*
X9124260Y-10110720D02*
X9194260Y-10110720D01*
X9159260Y-10202720D02*
X9159260Y-10272720D01*
X9124260Y-10237720D02*
X9194260Y-10237720D01*
X9159260Y-10329720D02*
X9159260Y-10399720D01*
X9124260Y-10364720D02*
X9194260Y-10364720D01*
X9159260Y-10456720D02*
X9159260Y-10526720D01*
X9124260Y-10491720D02*
X9194260Y-10491720D01*
X9159260Y-10583720D02*
X9159260Y-10653720D01*
X9124260Y-10618720D02*
X9194260Y-10618720D01*
X9159260Y-10710720D02*
X9159260Y-10780720D01*
X9124260Y-10745720D02*
X9194260Y-10745720D01*
X9159260Y-10837720D02*
X9159260Y-10907720D01*
X9124260Y-10872720D02*
X9194260Y-10872720D01*
X9159260Y-10964720D02*
X9159260Y-11034720D01*
X9124260Y-10999720D02*
X9194260Y-10999720D01*
X9159260Y-11091720D02*
X9159260Y-11161720D01*
X9124260Y-11126720D02*
X9194260Y-11126720D01*
X9159260Y-11218720D02*
X9159260Y-11288720D01*
X9124260Y-11253720D02*
X9194260Y-11253720D01*
X9159260Y-11345720D02*
X9159260Y-11415720D01*
X9124260Y-11380720D02*
X9194260Y-11380720D01*
X9159260Y-11472720D02*
X9159260Y-11542720D01*
X9124260Y-11507720D02*
X9194260Y-11507720D01*
X9159260Y-11599720D02*
X9159260Y-11669720D01*
X9124260Y-11634720D02*
X9194260Y-11634720D01*
X9159260Y-11726720D02*
X9159260Y-11796720D01*
X9124260Y-11761720D02*
X9194260Y-11761720D01*
X9159260Y-11853720D02*
X9159260Y-11923720D01*
X9124260Y-11888720D02*
X9194260Y-11888720D01*
X9159260Y-11980720D02*
X9159260Y-12050720D01*
X9124260Y-12015720D02*
X9194260Y-12015720D01*
X9159260Y-12107720D02*
X9159260Y-12177720D01*
X9124260Y-12142720D02*
X9194260Y-12142720D01*
X9159260Y-12234720D02*
X9159260Y-12304720D01*
X9124260Y-12269720D02*
X9194260Y-12269720D01*
X9159260Y-12361720D02*
X9159260Y-12431720D01*
X9124260Y-12396720D02*
X9194260Y-12396720D01*
X9286260Y-7662720D02*
X9286260Y-7732720D01*
X9251260Y-7697720D02*
X9321260Y-7697720D01*
X9286260Y-7789720D02*
X9286260Y-7859720D01*
X9251260Y-7824720D02*
X9321260Y-7824720D01*
X9286260Y-7916720D02*
X9286260Y-7986720D01*
X9251260Y-7951720D02*
X9321260Y-7951720D01*
X9286260Y-8043720D02*
X9286260Y-8113720D01*
X9251260Y-8078720D02*
X9321260Y-8078720D01*
X9286260Y-8170720D02*
X9286260Y-8240720D01*
X9251260Y-8205720D02*
X9321260Y-8205720D01*
X9286260Y-8297720D02*
X9286260Y-8367720D01*
X9251260Y-8332720D02*
X9321260Y-8332720D01*
X9286260Y-8424720D02*
X9286260Y-8494720D01*
X9251260Y-8459720D02*
X9321260Y-8459720D01*
X9286260Y-8551720D02*
X9286260Y-8621720D01*
X9251260Y-8586720D02*
X9321260Y-8586720D01*
X9286260Y-8678720D02*
X9286260Y-8748720D01*
X9251260Y-8713720D02*
X9321260Y-8713720D01*
X9286260Y-8805720D02*
X9286260Y-8875720D01*
X9251260Y-8840720D02*
X9321260Y-8840720D01*
X9286260Y-8932720D02*
X9286260Y-9002720D01*
X9251260Y-8967720D02*
X9321260Y-8967720D01*
X9286260Y-9059720D02*
X9286260Y-9129720D01*
X9251260Y-9094720D02*
X9321260Y-9094720D01*
X9286260Y-9186720D02*
X9286260Y-9256720D01*
X9251260Y-9221720D02*
X9321260Y-9221720D01*
X9286260Y-9313720D02*
X9286260Y-9383720D01*
X9251260Y-9348720D02*
X9321260Y-9348720D01*
X9286260Y-9440720D02*
X9286260Y-9510720D01*
X9251260Y-9475720D02*
X9321260Y-9475720D01*
X9286260Y-9567720D02*
X9286260Y-9637720D01*
X9251260Y-9602720D02*
X9321260Y-9602720D01*
X9286260Y-9694720D02*
X9286260Y-9764720D01*
X9251260Y-9729720D02*
X9321260Y-9729720D01*
X9286260Y-9821720D02*
X9286260Y-9891720D01*
X9251260Y-9856720D02*
X9321260Y-9856720D01*
X9286260Y-9948720D02*
X9286260Y-10018720D01*
X9251260Y-9983720D02*
X9321260Y-9983720D01*
X9286260Y-10075720D02*
X9286260Y-10145720D01*
X9251260Y-10110720D02*
X9321260Y-10110720D01*
X9286260Y-10202720D02*
X9286260Y-10272720D01*
X9251260Y-10237720D02*
X9321260Y-10237720D01*
X9286260Y-10329720D02*
X9286260Y-10399720D01*
X9251260Y-10364720D02*
X9321260Y-10364720D01*
X9286260Y-10456720D02*
X9286260Y-10526720D01*
X9251260Y-10491720D02*
X9321260Y-10491720D01*
X9286260Y-10583720D02*
X9286260Y-10653720D01*
X9251260Y-10618720D02*
X9321260Y-10618720D01*
X9286260Y-10710720D02*
X9286260Y-10780720D01*
X9251260Y-10745720D02*
X9321260Y-10745720D01*
X9286260Y-10837720D02*
X9286260Y-10907720D01*
X9251260Y-10872720D02*
X9321260Y-10872720D01*
X9286260Y-10964720D02*
X9286260Y-11034720D01*
X9251260Y-10999720D02*
X9321260Y-10999720D01*
X9286260Y-11091720D02*
X9286260Y-11161720D01*
X9251260Y-11126720D02*
X9321260Y-11126720D01*
X9286260Y-11218720D02*
X9286260Y-11288720D01*
X9251260Y-11253720D02*
X9321260Y-11253720D01*
X9286260Y-11345720D02*
X9286260Y-11415720D01*
X9251260Y-11380720D02*
X9321260Y-11380720D01*
X9286260Y-11472720D02*
X9286260Y-11542720D01*
X9251260Y-11507720D02*
X9321260Y-11507720D01*
X9286260Y-11599720D02*
X9286260Y-11669720D01*
X9251260Y-11634720D02*
X9321260Y-11634720D01*
X9286260Y-11726720D02*
X9286260Y-11796720D01*
X9251260Y-11761720D02*
X9321260Y-11761720D01*
X9286260Y-11853720D02*
X9286260Y-11923720D01*
X9251260Y-11888720D02*
X9321260Y-11888720D01*
X9286260Y-11980720D02*
X9286260Y-12050720D01*
X9251260Y-12015720D02*
X9321260Y-12015720D01*
X9286260Y-12107720D02*
X9286260Y-12177720D01*
X9251260Y-12142720D02*
X9321260Y-12142720D01*
X9286260Y-12234720D02*
X9286260Y-12304720D01*
X9251260Y-12269720D02*
X9321260Y-12269720D01*
X9286260Y-12361720D02*
X9286260Y-12431720D01*
X9251260Y-12396720D02*
X9321260Y-12396720D01*
X9413260Y-7662720D02*
X9413260Y-7732720D01*
X9378260Y-7697720D02*
X9448260Y-7697720D01*
X9413260Y-7789720D02*
X9413260Y-7859720D01*
X9378260Y-7824720D02*
X9448260Y-7824720D01*
X9413260Y-7916720D02*
X9413260Y-7986720D01*
X9378260Y-7951720D02*
X9448260Y-7951720D01*
X9413260Y-8043720D02*
X9413260Y-8113720D01*
X9378260Y-8078720D02*
X9448260Y-8078720D01*
X9413260Y-8170720D02*
X9413260Y-8240720D01*
X9378260Y-8205720D02*
X9448260Y-8205720D01*
X9413260Y-8297720D02*
X9413260Y-8367720D01*
X9378260Y-8332720D02*
X9448260Y-8332720D01*
X9413260Y-8424720D02*
X9413260Y-8494720D01*
X9378260Y-8459720D02*
X9448260Y-8459720D01*
X9413260Y-8551720D02*
X9413260Y-8621720D01*
X9378260Y-8586720D02*
X9448260Y-8586720D01*
X9413260Y-8678720D02*
X9413260Y-8748720D01*
X9378260Y-8713720D02*
X9448260Y-8713720D01*
X9413260Y-8805720D02*
X9413260Y-8875720D01*
X9378260Y-8840720D02*
X9448260Y-8840720D01*
X9413260Y-8932720D02*
X9413260Y-9002720D01*
X9378260Y-8967720D02*
X9448260Y-8967720D01*
X9413260Y-9059720D02*
X9413260Y-9129720D01*
X9378260Y-9094720D02*
X9448260Y-9094720D01*
X9413260Y-9186720D02*
X9413260Y-9256720D01*
X9378260Y-9221720D02*
X9448260Y-9221720D01*
X9413260Y-9313720D02*
X9413260Y-9383720D01*
X9378260Y-9348720D02*
X9448260Y-9348720D01*
X9413260Y-9440720D02*
X9413260Y-9510720D01*
X9378260Y-9475720D02*
X9448260Y-9475720D01*
X9413260Y-9567720D02*
X9413260Y-9637720D01*
X9378260Y-9602720D02*
X9448260Y-9602720D01*
X9413260Y-9694720D02*
X9413260Y-9764720D01*
X9378260Y-9729720D02*
X9448260Y-9729720D01*
X9413260Y-9821720D02*
X9413260Y-9891720D01*
X9378260Y-9856720D02*
X9448260Y-9856720D01*
X9413260Y-9948720D02*
X9413260Y-10018720D01*
X9378260Y-9983720D02*
X9448260Y-9983720D01*
X9413260Y-10075720D02*
X9413260Y-10145720D01*
X9378260Y-10110720D02*
X9448260Y-10110720D01*
X9413260Y-10202720D02*
X9413260Y-10272720D01*
X9378260Y-10237720D02*
X9448260Y-10237720D01*
X9413260Y-10329720D02*
X9413260Y-10399720D01*
X9378260Y-10364720D02*
X9448260Y-10364720D01*
X9413260Y-10456720D02*
X9413260Y-10526720D01*
X9378260Y-10491720D02*
X9448260Y-10491720D01*
X9413260Y-10583720D02*
X9413260Y-10653720D01*
X9378260Y-10618720D02*
X9448260Y-10618720D01*
X9413260Y-10710720D02*
X9413260Y-10780720D01*
X9378260Y-10745720D02*
X9448260Y-10745720D01*
X9413260Y-10837720D02*
X9413260Y-10907720D01*
X9378260Y-10872720D02*
X9448260Y-10872720D01*
X9413260Y-10964720D02*
X9413260Y-11034720D01*
X9378260Y-10999720D02*
X9448260Y-10999720D01*
X9413260Y-11091720D02*
X9413260Y-11161720D01*
X9378260Y-11126720D02*
X9448260Y-11126720D01*
X9413260Y-11218720D02*
X9413260Y-11288720D01*
X9378260Y-11253720D02*
X9448260Y-11253720D01*
X9413260Y-11345720D02*
X9413260Y-11415720D01*
X9378260Y-11380720D02*
X9448260Y-11380720D01*
X9413260Y-11472720D02*
X9413260Y-11542720D01*
X9378260Y-11507720D02*
X9448260Y-11507720D01*
X9413260Y-11599720D02*
X9413260Y-11669720D01*
X9378260Y-11634720D02*
X9448260Y-11634720D01*
X9413260Y-11726720D02*
X9413260Y-11796720D01*
X9378260Y-11761720D02*
X9448260Y-11761720D01*
X9413260Y-11853720D02*
X9413260Y-11923720D01*
X9378260Y-11888720D02*
X9448260Y-11888720D01*
X9413260Y-11980720D02*
X9413260Y-12050720D01*
X9378260Y-12015720D02*
X9448260Y-12015720D01*
X9413260Y-12107720D02*
X9413260Y-12177720D01*
X9378260Y-12142720D02*
X9448260Y-12142720D01*
X9413260Y-12234720D02*
X9413260Y-12304720D01*
X9378260Y-12269720D02*
X9448260Y-12269720D01*
X9413260Y-12361720D02*
X9413260Y-12431720D01*
X9378260Y-12396720D02*
X9448260Y-12396720D01*
X9540260Y-7662720D02*
X9540260Y-7732720D01*
X9505260Y-7697720D02*
X9575260Y-7697720D01*
X9540260Y-7789720D02*
X9540260Y-7859720D01*
X9505260Y-7824720D02*
X9575260Y-7824720D01*
X9540260Y-7916720D02*
X9540260Y-7986720D01*
X9505260Y-7951720D02*
X9575260Y-7951720D01*
X9540260Y-8043720D02*
X9540260Y-8113720D01*
X9505260Y-8078720D02*
X9575260Y-8078720D01*
X9540260Y-8170720D02*
X9540260Y-8240720D01*
X9505260Y-8205720D02*
X9575260Y-8205720D01*
X9540260Y-8297720D02*
X9540260Y-8367720D01*
X9505260Y-8332720D02*
X9575260Y-8332720D01*
X9540260Y-8424720D02*
X9540260Y-8494720D01*
X9505260Y-8459720D02*
X9575260Y-8459720D01*
X9540260Y-8551720D02*
X9540260Y-8621720D01*
X9505260Y-8586720D02*
X9575260Y-8586720D01*
X9540260Y-8678720D02*
X9540260Y-8748720D01*
X9505260Y-8713720D02*
X9575260Y-8713720D01*
X9540260Y-8805720D02*
X9540260Y-8875720D01*
X9505260Y-8840720D02*
X9575260Y-8840720D01*
X9540260Y-8932720D02*
X9540260Y-9002720D01*
X9505260Y-8967720D02*
X9575260Y-8967720D01*
X9540260Y-9059720D02*
X9540260Y-9129720D01*
X9505260Y-9094720D02*
X9575260Y-9094720D01*
X9540260Y-9186720D02*
X9540260Y-9256720D01*
X9505260Y-9221720D02*
X9575260Y-9221720D01*
X9540260Y-9313720D02*
X9540260Y-9383720D01*
X9505260Y-9348720D02*
X9575260Y-9348720D01*
X9540260Y-9440720D02*
X9540260Y-9510720D01*
X9505260Y-9475720D02*
X9575260Y-9475720D01*
X9540260Y-9567720D02*
X9540260Y-9637720D01*
X9505260Y-9602720D02*
X9575260Y-9602720D01*
X9540260Y-9694720D02*
X9540260Y-9764720D01*
X9505260Y-9729720D02*
X9575260Y-9729720D01*
X9540260Y-9821720D02*
X9540260Y-9891720D01*
X9505260Y-9856720D02*
X9575260Y-9856720D01*
X9540260Y-9948720D02*
X9540260Y-10018720D01*
X9505260Y-9983720D02*
X9575260Y-9983720D01*
X9540260Y-10075720D02*
X9540260Y-10145720D01*
X9505260Y-10110720D02*
X9575260Y-10110720D01*
X9540260Y-10202720D02*
X9540260Y-10272720D01*
X9505260Y-10237720D02*
X9575260Y-10237720D01*
X9540260Y-10329720D02*
X9540260Y-10399720D01*
X9505260Y-10364720D02*
X9575260Y-10364720D01*
X9540260Y-10456720D02*
X9540260Y-10526720D01*
X9505260Y-10491720D02*
X9575260Y-10491720D01*
X9540260Y-10583720D02*
X9540260Y-10653720D01*
X9505260Y-10618720D02*
X9575260Y-10618720D01*
X9540260Y-10710720D02*
X9540260Y-10780720D01*
X9505260Y-10745720D02*
X9575260Y-10745720D01*
X9540260Y-10837720D02*
X9540260Y-10907720D01*
X9505260Y-10872720D02*
X9575260Y-10872720D01*
X9540260Y-10964720D02*
X9540260Y-11034720D01*
X9505260Y-10999720D02*
X9575260Y-10999720D01*
X9540260Y-11091720D02*
X9540260Y-11161720D01*
X9505260Y-11126720D02*
X9575260Y-11126720D01*
X9540260Y-11218720D02*
X9540260Y-11288720D01*
X9505260Y-11253720D02*
X9575260Y-11253720D01*
X9540260Y-11345720D02*
X9540260Y-11415720D01*
X9505260Y-11380720D02*
X9575260Y-11380720D01*
X9540260Y-11472720D02*
X9540260Y-11542720D01*
X9505260Y-11507720D02*
X9575260Y-11507720D01*
X9540260Y-11599720D02*
X9540260Y-11669720D01*
X9505260Y-11634720D02*
X9575260Y-11634720D01*
X9540260Y-11726720D02*
X9540260Y-11796720D01*
X9505260Y-11761720D02*
X9575260Y-11761720D01*
X9540260Y-11853720D02*
X9540260Y-11923720D01*
X9505260Y-11888720D02*
X9575260Y-11888720D01*
X9540260Y-11980720D02*
X9540260Y-12050720D01*
X9505260Y-12015720D02*
X9575260Y-12015720D01*
X9540260Y-12107720D02*
X9540260Y-12177720D01*
X9505260Y-12142720D02*
X9575260Y-12142720D01*
X9540260Y-12234720D02*
X9540260Y-12304720D01*
X9505260Y-12269720D02*
X9575260Y-12269720D01*
X9540260Y-12361720D02*
X9540260Y-12431720D01*
X9505260Y-12396720D02*
X9575260Y-12396720D01*
X9667260Y-7661220D02*
X9667260Y-7731220D01*
X9632260Y-7696220D02*
X9702260Y-7696220D01*
X9667260Y-7788220D02*
X9667260Y-7858220D01*
X9632260Y-7823220D02*
X9702260Y-7823220D01*
X9667260Y-7915220D02*
X9667260Y-7985220D01*
X9632260Y-7950220D02*
X9702260Y-7950220D01*
X9667260Y-8042220D02*
X9667260Y-8112220D01*
X9632260Y-8077220D02*
X9702260Y-8077220D01*
X9667260Y-8169220D02*
X9667260Y-8239220D01*
X9632260Y-8204220D02*
X9702260Y-8204220D01*
X9667260Y-8296220D02*
X9667260Y-8366220D01*
X9632260Y-8331220D02*
X9702260Y-8331220D01*
X9667260Y-8423220D02*
X9667260Y-8493220D01*
X9632260Y-8458220D02*
X9702260Y-8458220D01*
X9667260Y-8550220D02*
X9667260Y-8620220D01*
X9632260Y-8585220D02*
X9702260Y-8585220D01*
X9667260Y-8677220D02*
X9667260Y-8747220D01*
X9632260Y-8712220D02*
X9702260Y-8712220D01*
X9667260Y-8804220D02*
X9667260Y-8874220D01*
X9632260Y-8839220D02*
X9702260Y-8839220D01*
X9667260Y-8931220D02*
X9667260Y-9001220D01*
X9632260Y-8966220D02*
X9702260Y-8966220D01*
X9667260Y-9058220D02*
X9667260Y-9128220D01*
X9632260Y-9093220D02*
X9702260Y-9093220D01*
X9667260Y-9185220D02*
X9667260Y-9255220D01*
X9632260Y-9220220D02*
X9702260Y-9220220D01*
X9667260Y-9312220D02*
X9667260Y-9382220D01*
X9632260Y-9347220D02*
X9702260Y-9347220D01*
X9667260Y-9439220D02*
X9667260Y-9509220D01*
X9632260Y-9474220D02*
X9702260Y-9474220D01*
X9667260Y-9566220D02*
X9667260Y-9636220D01*
X9632260Y-9601220D02*
X9702260Y-9601220D01*
X9667260Y-9693220D02*
X9667260Y-9763220D01*
X9632260Y-9728220D02*
X9702260Y-9728220D01*
X9667260Y-9820220D02*
X9667260Y-9890220D01*
X9632260Y-9855220D02*
X9702260Y-9855220D01*
X9667260Y-9947220D02*
X9667260Y-10017220D01*
X9632260Y-9982220D02*
X9702260Y-9982220D01*
X9667260Y-10074220D02*
X9667260Y-10144220D01*
X9632260Y-10109220D02*
X9702260Y-10109220D01*
X9667260Y-10201220D02*
X9667260Y-10271220D01*
X9632260Y-10236220D02*
X9702260Y-10236220D01*
X9667260Y-10328220D02*
X9667260Y-10398220D01*
X9632260Y-10363220D02*
X9702260Y-10363220D01*
X9667260Y-10455220D02*
X9667260Y-10525220D01*
X9632260Y-10490220D02*
X9702260Y-10490220D01*
X9667260Y-10582220D02*
X9667260Y-10652220D01*
X9632260Y-10617220D02*
X9702260Y-10617220D01*
X9667260Y-10709220D02*
X9667260Y-10779220D01*
X9632260Y-10744220D02*
X9702260Y-10744220D01*
X9667260Y-10836220D02*
X9667260Y-10906220D01*
X9632260Y-10871220D02*
X9702260Y-10871220D01*
X9667260Y-10963220D02*
X9667260Y-11033220D01*
X9632260Y-10998220D02*
X9702260Y-10998220D01*
X9667260Y-11090220D02*
X9667260Y-11160220D01*
X9632260Y-11125220D02*
X9702260Y-11125220D01*
X9667260Y-11217220D02*
X9667260Y-11287220D01*
X9632260Y-11252220D02*
X9702260Y-11252220D01*
X9667260Y-11344220D02*
X9667260Y-11414220D01*
X9632260Y-11379220D02*
X9702260Y-11379220D01*
X9667260Y-11471220D02*
X9667260Y-11541220D01*
X9632260Y-11506220D02*
X9702260Y-11506220D01*
X9667260Y-11598220D02*
X9667260Y-11668220D01*
X9632260Y-11633220D02*
X9702260Y-11633220D01*
X9667260Y-11725220D02*
X9667260Y-11795220D01*
X9632260Y-11760220D02*
X9702260Y-11760220D01*
X9667260Y-11852220D02*
X9667260Y-11922220D01*
X9632260Y-11887220D02*
X9702260Y-11887220D01*
X9667260Y-11979220D02*
X9667260Y-12049220D01*
X9632260Y-12014220D02*
X9702260Y-12014220D01*
X9667260Y-12106220D02*
X9667260Y-12176220D01*
X9632260Y-12141220D02*
X9702260Y-12141220D01*
X9667260Y-12233220D02*
X9667260Y-12303220D01*
X9632260Y-12268220D02*
X9702260Y-12268220D01*
X9667260Y-12360220D02*
X9667260Y-12430220D01*
X9632260Y-12395220D02*
X9702260Y-12395220D01*
X9794260Y-7661220D02*
X9794260Y-7731220D01*
X9759260Y-7696220D02*
X9829260Y-7696220D01*
X9794260Y-7788220D02*
X9794260Y-7858220D01*
X9759260Y-7823220D02*
X9829260Y-7823220D01*
X9794260Y-7915220D02*
X9794260Y-7985220D01*
X9759260Y-7950220D02*
X9829260Y-7950220D01*
X9794260Y-8042220D02*
X9794260Y-8112220D01*
X9759260Y-8077220D02*
X9829260Y-8077220D01*
X9794260Y-8169220D02*
X9794260Y-8239220D01*
X9759260Y-8204220D02*
X9829260Y-8204220D01*
X9794260Y-8296220D02*
X9794260Y-8366220D01*
X9759260Y-8331220D02*
X9829260Y-8331220D01*
X9794260Y-8423220D02*
X9794260Y-8493220D01*
X9759260Y-8458220D02*
X9829260Y-8458220D01*
X9794260Y-8550220D02*
X9794260Y-8620220D01*
X9759260Y-8585220D02*
X9829260Y-8585220D01*
X9794260Y-8677220D02*
X9794260Y-8747220D01*
X9759260Y-8712220D02*
X9829260Y-8712220D01*
X9794260Y-8804220D02*
X9794260Y-8874220D01*
X9759260Y-8839220D02*
X9829260Y-8839220D01*
X9794260Y-8931220D02*
X9794260Y-9001220D01*
X9759260Y-8966220D02*
X9829260Y-8966220D01*
X9794260Y-9058220D02*
X9794260Y-9128220D01*
X9759260Y-9093220D02*
X9829260Y-9093220D01*
X9794260Y-9185220D02*
X9794260Y-9255220D01*
X9759260Y-9220220D02*
X9829260Y-9220220D01*
X9794260Y-9312220D02*
X9794260Y-9382220D01*
X9759260Y-9347220D02*
X9829260Y-9347220D01*
X9794260Y-9439220D02*
X9794260Y-9509220D01*
X9759260Y-9474220D02*
X9829260Y-9474220D01*
X9794260Y-9566220D02*
X9794260Y-9636220D01*
X9759260Y-9601220D02*
X9829260Y-9601220D01*
X9794260Y-9693220D02*
X9794260Y-9763220D01*
X9759260Y-9728220D02*
X9829260Y-9728220D01*
X9794260Y-9820220D02*
X9794260Y-9890220D01*
X9759260Y-9855220D02*
X9829260Y-9855220D01*
X9794260Y-9947220D02*
X9794260Y-10017220D01*
X9759260Y-9982220D02*
X9829260Y-9982220D01*
X9794260Y-10074220D02*
X9794260Y-10144220D01*
X9759260Y-10109220D02*
X9829260Y-10109220D01*
X9794260Y-10201220D02*
X9794260Y-10271220D01*
X9759260Y-10236220D02*
X9829260Y-10236220D01*
X9794260Y-10328220D02*
X9794260Y-10398220D01*
X9759260Y-10363220D02*
X9829260Y-10363220D01*
X9794260Y-10455220D02*
X9794260Y-10525220D01*
X9759260Y-10490220D02*
X9829260Y-10490220D01*
X9794260Y-10582220D02*
X9794260Y-10652220D01*
X9759260Y-10617220D02*
X9829260Y-10617220D01*
X9794260Y-10709220D02*
X9794260Y-10779220D01*
X9759260Y-10744220D02*
X9829260Y-10744220D01*
X9794260Y-10836220D02*
X9794260Y-10906220D01*
X9759260Y-10871220D02*
X9829260Y-10871220D01*
X9794260Y-10963220D02*
X9794260Y-11033220D01*
X9759260Y-10998220D02*
X9829260Y-10998220D01*
X9794260Y-11090220D02*
X9794260Y-11160220D01*
X9759260Y-11125220D02*
X9829260Y-11125220D01*
X9794260Y-11217220D02*
X9794260Y-11287220D01*
X9759260Y-11252220D02*
X9829260Y-11252220D01*
X9794260Y-11344220D02*
X9794260Y-11414220D01*
X9759260Y-11379220D02*
X9829260Y-11379220D01*
X9794260Y-11471220D02*
X9794260Y-11541220D01*
X9759260Y-11506220D02*
X9829260Y-11506220D01*
X9794260Y-11598220D02*
X9794260Y-11668220D01*
X9759260Y-11633220D02*
X9829260Y-11633220D01*
X9794260Y-11725220D02*
X9794260Y-11795220D01*
X9759260Y-11760220D02*
X9829260Y-11760220D01*
X9794260Y-11852220D02*
X9794260Y-11922220D01*
X9759260Y-11887220D02*
X9829260Y-11887220D01*
X9794260Y-11979220D02*
X9794260Y-12049220D01*
X9759260Y-12014220D02*
X9829260Y-12014220D01*
X9794260Y-12106220D02*
X9794260Y-12176220D01*
X9759260Y-12141220D02*
X9829260Y-12141220D01*
X9794260Y-12233220D02*
X9794260Y-12303220D01*
X9759260Y-12268220D02*
X9829260Y-12268220D01*
X9794260Y-12360220D02*
X9794260Y-12430220D01*
X9759260Y-12395220D02*
X9829260Y-12395220D01*
X9921260Y-7661220D02*
X9921260Y-7731220D01*
X9886260Y-7696220D02*
X9956260Y-7696220D01*
X9921260Y-7788220D02*
X9921260Y-7858220D01*
X9886260Y-7823220D02*
X9956260Y-7823220D01*
X9921260Y-7915220D02*
X9921260Y-7985220D01*
X9886260Y-7950220D02*
X9956260Y-7950220D01*
X9921260Y-8042220D02*
X9921260Y-8112220D01*
X9886260Y-8077220D02*
X9956260Y-8077220D01*
X9921260Y-8169220D02*
X9921260Y-8239220D01*
X9886260Y-8204220D02*
X9956260Y-8204220D01*
X9921260Y-8296220D02*
X9921260Y-8366220D01*
X9886260Y-8331220D02*
X9956260Y-8331220D01*
X9921260Y-8423220D02*
X9921260Y-8493220D01*
X9886260Y-8458220D02*
X9956260Y-8458220D01*
X9921260Y-8550220D02*
X9921260Y-8620220D01*
X9886260Y-8585220D02*
X9956260Y-8585220D01*
X9921260Y-8677220D02*
X9921260Y-8747220D01*
X9886260Y-8712220D02*
X9956260Y-8712220D01*
X9921260Y-8804220D02*
X9921260Y-8874220D01*
X9886260Y-8839220D02*
X9956260Y-8839220D01*
X9921260Y-8931220D02*
X9921260Y-9001220D01*
X9886260Y-8966220D02*
X9956260Y-8966220D01*
X9921260Y-9058220D02*
X9921260Y-9128220D01*
X9886260Y-9093220D02*
X9956260Y-9093220D01*
X9921260Y-9185220D02*
X9921260Y-9255220D01*
X9886260Y-9220220D02*
X9956260Y-9220220D01*
X9921260Y-9312220D02*
X9921260Y-9382220D01*
X9886260Y-9347220D02*
X9956260Y-9347220D01*
X9921260Y-9439220D02*
X9921260Y-9509220D01*
X9886260Y-9474220D02*
X9956260Y-9474220D01*
X9921260Y-9566220D02*
X9921260Y-9636220D01*
X9886260Y-9601220D02*
X9956260Y-9601220D01*
X9921260Y-9693220D02*
X9921260Y-9763220D01*
X9886260Y-9728220D02*
X9956260Y-9728220D01*
X9921260Y-9820220D02*
X9921260Y-9890220D01*
X9886260Y-9855220D02*
X9956260Y-9855220D01*
X9921260Y-9947220D02*
X9921260Y-10017220D01*
X9886260Y-9982220D02*
X9956260Y-9982220D01*
X9921260Y-10074220D02*
X9921260Y-10144220D01*
X9886260Y-10109220D02*
X9956260Y-10109220D01*
X9921260Y-10201220D02*
X9921260Y-10271220D01*
X9886260Y-10236220D02*
X9956260Y-10236220D01*
X9921260Y-10328220D02*
X9921260Y-10398220D01*
X9886260Y-10363220D02*
X9956260Y-10363220D01*
X9921260Y-10455220D02*
X9921260Y-10525220D01*
X9886260Y-10490220D02*
X9956260Y-10490220D01*
X9921260Y-10582220D02*
X9921260Y-10652220D01*
X9886260Y-10617220D02*
X9956260Y-10617220D01*
X9921260Y-10709220D02*
X9921260Y-10779220D01*
X9886260Y-10744220D02*
X9956260Y-10744220D01*
X9921260Y-10836220D02*
X9921260Y-10906220D01*
X9886260Y-10871220D02*
X9956260Y-10871220D01*
X9921260Y-10963220D02*
X9921260Y-11033220D01*
X9886260Y-10998220D02*
X9956260Y-10998220D01*
X9921260Y-11090220D02*
X9921260Y-11160220D01*
X9886260Y-11125220D02*
X9956260Y-11125220D01*
X9921260Y-11217220D02*
X9921260Y-11287220D01*
X9886260Y-11252220D02*
X9956260Y-11252220D01*
X9921260Y-11344220D02*
X9921260Y-11414220D01*
X9886260Y-11379220D02*
X9956260Y-11379220D01*
X9921260Y-11471220D02*
X9921260Y-11541220D01*
X9886260Y-11506220D02*
X9956260Y-11506220D01*
X9921260Y-11598220D02*
X9921260Y-11668220D01*
X9886260Y-11633220D02*
X9956260Y-11633220D01*
X9921260Y-11725220D02*
X9921260Y-11795220D01*
X9886260Y-11760220D02*
X9956260Y-11760220D01*
X9921260Y-11852220D02*
X9921260Y-11922220D01*
X9886260Y-11887220D02*
X9956260Y-11887220D01*
X9921260Y-11979220D02*
X9921260Y-12049220D01*
X9886260Y-12014220D02*
X9956260Y-12014220D01*
X9921260Y-12106220D02*
X9921260Y-12176220D01*
X9886260Y-12141220D02*
X9956260Y-12141220D01*
X9921260Y-12233220D02*
X9921260Y-12303220D01*
X9886260Y-12268220D02*
X9956260Y-12268220D01*
X9921260Y-12360220D02*
X9921260Y-12430220D01*
X9886260Y-12395220D02*
X9956260Y-12395220D01*
X10048260Y-7661220D02*
X10048260Y-7731220D01*
X10013260Y-7696220D02*
X10083260Y-7696220D01*
X10048260Y-7788220D02*
X10048260Y-7858220D01*
X10013260Y-7823220D02*
X10083260Y-7823220D01*
X10048260Y-7915220D02*
X10048260Y-7985220D01*
X10013260Y-7950220D02*
X10083260Y-7950220D01*
X10048260Y-8042220D02*
X10048260Y-8112220D01*
X10013260Y-8077220D02*
X10083260Y-8077220D01*
X10048260Y-8169220D02*
X10048260Y-8239220D01*
X10013260Y-8204220D02*
X10083260Y-8204220D01*
X10048260Y-8296220D02*
X10048260Y-8366220D01*
X10013260Y-8331220D02*
X10083260Y-8331220D01*
X10048260Y-8423220D02*
X10048260Y-8493220D01*
X10013260Y-8458220D02*
X10083260Y-8458220D01*
X10048260Y-8550220D02*
X10048260Y-8620220D01*
X10013260Y-8585220D02*
X10083260Y-8585220D01*
X10048260Y-8677220D02*
X10048260Y-8747220D01*
X10013260Y-8712220D02*
X10083260Y-8712220D01*
X10048260Y-8804220D02*
X10048260Y-8874220D01*
X10013260Y-8839220D02*
X10083260Y-8839220D01*
X10048260Y-8931220D02*
X10048260Y-9001220D01*
X10013260Y-8966220D02*
X10083260Y-8966220D01*
X10048260Y-9058220D02*
X10048260Y-9128220D01*
X10013260Y-9093220D02*
X10083260Y-9093220D01*
X10048260Y-9185220D02*
X10048260Y-9255220D01*
X10013260Y-9220220D02*
X10083260Y-9220220D01*
X10048260Y-9312220D02*
X10048260Y-9382220D01*
X10013260Y-9347220D02*
X10083260Y-9347220D01*
X10048260Y-9439220D02*
X10048260Y-9509220D01*
X10013260Y-9474220D02*
X10083260Y-9474220D01*
X10048260Y-9566220D02*
X10048260Y-9636220D01*
X10013260Y-9601220D02*
X10083260Y-9601220D01*
X10048260Y-9693220D02*
X10048260Y-9763220D01*
X10013260Y-9728220D02*
X10083260Y-9728220D01*
X10048260Y-9820220D02*
X10048260Y-9890220D01*
X10013260Y-9855220D02*
X10083260Y-9855220D01*
X10048260Y-9947220D02*
X10048260Y-10017220D01*
X10013260Y-9982220D02*
X10083260Y-9982220D01*
X10048260Y-10074220D02*
X10048260Y-10144220D01*
X10013260Y-10109220D02*
X10083260Y-10109220D01*
X10048260Y-10201220D02*
X10048260Y-10271220D01*
X10013260Y-10236220D02*
X10083260Y-10236220D01*
X10048260Y-10328220D02*
X10048260Y-10398220D01*
X10013260Y-10363220D02*
X10083260Y-10363220D01*
X10048260Y-10455220D02*
X10048260Y-10525220D01*
X10013260Y-10490220D02*
X10083260Y-10490220D01*
X10048260Y-10582220D02*
X10048260Y-10652220D01*
X10013260Y-10617220D02*
X10083260Y-10617220D01*
X10048260Y-10709220D02*
X10048260Y-10779220D01*
X10013260Y-10744220D02*
X10083260Y-10744220D01*
X10048260Y-10836220D02*
X10048260Y-10906220D01*
X10013260Y-10871220D02*
X10083260Y-10871220D01*
X10048260Y-10963220D02*
X10048260Y-11033220D01*
X10013260Y-10998220D02*
X10083260Y-10998220D01*
X10048260Y-11090220D02*
X10048260Y-11160220D01*
X10013260Y-11125220D02*
X10083260Y-11125220D01*
X10048260Y-11217220D02*
X10048260Y-11287220D01*
X10013260Y-11252220D02*
X10083260Y-11252220D01*
X10048260Y-11344220D02*
X10048260Y-11414220D01*
X10013260Y-11379220D02*
X10083260Y-11379220D01*
X10048260Y-11471220D02*
X10048260Y-11541220D01*
X10013260Y-11506220D02*
X10083260Y-11506220D01*
X10048260Y-11598220D02*
X10048260Y-11668220D01*
X10013260Y-11633220D02*
X10083260Y-11633220D01*
X10048260Y-11725220D02*
X10048260Y-11795220D01*
X10013260Y-11760220D02*
X10083260Y-11760220D01*
X10048260Y-11852220D02*
X10048260Y-11922220D01*
X10013260Y-11887220D02*
X10083260Y-11887220D01*
X10048260Y-11979220D02*
X10048260Y-12049220D01*
X10013260Y-12014220D02*
X10083260Y-12014220D01*
X10048260Y-12106220D02*
X10048260Y-12176220D01*
X10013260Y-12141220D02*
X10083260Y-12141220D01*
X10048260Y-12233220D02*
X10048260Y-12303220D01*
X10013260Y-12268220D02*
X10083260Y-12268220D01*
X10048260Y-12360220D02*
X10048260Y-12430220D01*
X10013260Y-12395220D02*
X10083260Y-12395220D01*
D10*
X8462277Y-14171484D02*
X8462277Y-13971484D01*
X8462277Y-13971484D02*
X8509896Y-13971484D01*
X8509896Y-13971484D02*
X8538467Y-13981008D01*
X8538467Y-13981008D02*
X8557515Y-14000055D01*
X8557515Y-14000055D02*
X8567039Y-14019103D01*
X8567039Y-14019103D02*
X8576563Y-14057198D01*
X8576563Y-14057198D02*
X8576563Y-14085769D01*
X8576563Y-14085769D02*
X8567039Y-14123865D01*
X8567039Y-14123865D02*
X8557515Y-14142912D01*
X8557515Y-14142912D02*
X8538467Y-14161960D01*
X8538467Y-14161960D02*
X8509896Y-14171484D01*
X8509896Y-14171484D02*
X8462277Y-14171484D01*
X8662277Y-14171484D02*
X8662277Y-14038150D01*
X8662277Y-14076246D02*
X8671801Y-14057198D01*
X8671801Y-14057198D02*
X8681324Y-14047674D01*
X8681324Y-14047674D02*
X8700372Y-14038150D01*
X8700372Y-14038150D02*
X8719420Y-14038150D01*
X8786086Y-14171484D02*
X8786086Y-14038150D01*
X8786086Y-13971484D02*
X8776563Y-13981008D01*
X8776563Y-13981008D02*
X8786086Y-13990531D01*
X8786086Y-13990531D02*
X8795610Y-13981008D01*
X8795610Y-13981008D02*
X8786086Y-13971484D01*
X8786086Y-13971484D02*
X8786086Y-13990531D01*
X8909896Y-14171484D02*
X8890848Y-14161960D01*
X8890848Y-14161960D02*
X8881324Y-14142912D01*
X8881324Y-14142912D02*
X8881324Y-13971484D01*
X9014658Y-14171484D02*
X8995610Y-14161960D01*
X8995610Y-14161960D02*
X8986086Y-14142912D01*
X8986086Y-14142912D02*
X8986086Y-13971484D01*
X9243229Y-14171484D02*
X9243229Y-13971484D01*
X9243229Y-13971484D02*
X9309896Y-14114341D01*
X9309896Y-14114341D02*
X9376563Y-13971484D01*
X9376563Y-13971484D02*
X9376563Y-14171484D01*
X9557515Y-14171484D02*
X9557515Y-14066722D01*
X9557515Y-14066722D02*
X9547991Y-14047674D01*
X9547991Y-14047674D02*
X9528944Y-14038150D01*
X9528944Y-14038150D02*
X9490848Y-14038150D01*
X9490848Y-14038150D02*
X9471801Y-14047674D01*
X9557515Y-14161960D02*
X9538467Y-14171484D01*
X9538467Y-14171484D02*
X9490848Y-14171484D01*
X9490848Y-14171484D02*
X9471801Y-14161960D01*
X9471801Y-14161960D02*
X9462277Y-14142912D01*
X9462277Y-14142912D02*
X9462277Y-14123865D01*
X9462277Y-14123865D02*
X9471801Y-14104817D01*
X9471801Y-14104817D02*
X9490848Y-14095293D01*
X9490848Y-14095293D02*
X9538467Y-14095293D01*
X9538467Y-14095293D02*
X9557515Y-14085769D01*
X9652753Y-14038150D02*
X9652753Y-14238150D01*
X9652753Y-14047674D02*
X9671801Y-14038150D01*
X9671801Y-14038150D02*
X9709896Y-14038150D01*
X9709896Y-14038150D02*
X9728944Y-14047674D01*
X9728944Y-14047674D02*
X9738467Y-14057198D01*
X9738467Y-14057198D02*
X9747991Y-14076246D01*
X9747991Y-14076246D02*
X9747991Y-14133388D01*
X9747991Y-14133388D02*
X9738467Y-14152436D01*
X9738467Y-14152436D02*
X9728944Y-14161960D01*
X9728944Y-14161960D02*
X9709896Y-14171484D01*
X9709896Y-14171484D02*
X9671801Y-14171484D01*
X9671801Y-14171484D02*
X9652753Y-14161960D01*
X9833705Y-14152436D02*
X9843229Y-14161960D01*
X9843229Y-14161960D02*
X9833705Y-14171484D01*
X9833705Y-14171484D02*
X9824182Y-14161960D01*
X9824182Y-14161960D02*
X9833705Y-14152436D01*
X9833705Y-14152436D02*
X9833705Y-14171484D01*
X9833705Y-14047674D02*
X9843229Y-14057198D01*
X9843229Y-14057198D02*
X9833705Y-14066722D01*
X9833705Y-14066722D02*
X9824182Y-14057198D01*
X9824182Y-14057198D02*
X9833705Y-14047674D01*
X9833705Y-14047674D02*
X9833705Y-14066722D01*
D11*
X8161500Y-14480000D02*
X8201500Y-14520000D01*
X8201500Y-14480000D02*
X8161500Y-14520000D01*
D10*
X8500372Y-14391484D02*
X8519420Y-14391484D01*
X8519420Y-14391484D02*
X8538467Y-14401008D01*
X8538467Y-14401008D02*
X8547991Y-14410531D01*
X8547991Y-14410531D02*
X8557515Y-14429579D01*
X8557515Y-14429579D02*
X8567039Y-14467674D01*
X8567039Y-14467674D02*
X8567039Y-14515293D01*
X8567039Y-14515293D02*
X8557515Y-14553388D01*
X8557515Y-14553388D02*
X8547991Y-14572436D01*
X8547991Y-14572436D02*
X8538467Y-14581960D01*
X8538467Y-14581960D02*
X8519420Y-14591484D01*
X8519420Y-14591484D02*
X8500372Y-14591484D01*
X8500372Y-14591484D02*
X8481324Y-14581960D01*
X8481324Y-14581960D02*
X8471801Y-14572436D01*
X8471801Y-14572436D02*
X8462277Y-14553388D01*
X8462277Y-14553388D02*
X8452753Y-14515293D01*
X8452753Y-14515293D02*
X8452753Y-14467674D01*
X8452753Y-14467674D02*
X8462277Y-14429579D01*
X8462277Y-14429579D02*
X8471801Y-14410531D01*
X8471801Y-14410531D02*
X8481324Y-14401008D01*
X8481324Y-14401008D02*
X8500372Y-14391484D01*
X8652753Y-14572436D02*
X8662277Y-14581960D01*
X8662277Y-14581960D02*
X8652753Y-14591484D01*
X8652753Y-14591484D02*
X8643229Y-14581960D01*
X8643229Y-14581960D02*
X8652753Y-14572436D01*
X8652753Y-14572436D02*
X8652753Y-14591484D01*
X8833705Y-14458150D02*
X8833705Y-14591484D01*
X8786086Y-14381960D02*
X8738467Y-14524817D01*
X8738467Y-14524817D02*
X8862277Y-14524817D01*
X8976563Y-14391484D02*
X8995610Y-14391484D01*
X8995610Y-14391484D02*
X9014658Y-14401008D01*
X9014658Y-14401008D02*
X9024182Y-14410531D01*
X9024182Y-14410531D02*
X9033705Y-14429579D01*
X9033705Y-14429579D02*
X9043229Y-14467674D01*
X9043229Y-14467674D02*
X9043229Y-14515293D01*
X9043229Y-14515293D02*
X9033705Y-14553388D01*
X9033705Y-14553388D02*
X9024182Y-14572436D01*
X9024182Y-14572436D02*
X9014658Y-14581960D01*
X9014658Y-14581960D02*
X8995610Y-14591484D01*
X8995610Y-14591484D02*
X8976563Y-14591484D01*
X8976563Y-14591484D02*
X8957515Y-14581960D01*
X8957515Y-14581960D02*
X8947991Y-14572436D01*
X8947991Y-14572436D02*
X8938467Y-14553388D01*
X8938467Y-14553388D02*
X8928944Y-14515293D01*
X8928944Y-14515293D02*
X8928944Y-14467674D01*
X8928944Y-14467674D02*
X8938467Y-14429579D01*
X8938467Y-14429579D02*
X8947991Y-14410531D01*
X8947991Y-14410531D02*
X8957515Y-14401008D01*
X8957515Y-14401008D02*
X8976563Y-14391484D01*
X9167039Y-14391484D02*
X9186086Y-14391484D01*
X9186086Y-14391484D02*
X9205134Y-14401008D01*
X9205134Y-14401008D02*
X9214658Y-14410531D01*
X9214658Y-14410531D02*
X9224182Y-14429579D01*
X9224182Y-14429579D02*
X9233705Y-14467674D01*
X9233705Y-14467674D02*
X9233705Y-14515293D01*
X9233705Y-14515293D02*
X9224182Y-14553388D01*
X9224182Y-14553388D02*
X9214658Y-14572436D01*
X9214658Y-14572436D02*
X9205134Y-14581960D01*
X9205134Y-14581960D02*
X9186086Y-14591484D01*
X9186086Y-14591484D02*
X9167039Y-14591484D01*
X9167039Y-14591484D02*
X9147991Y-14581960D01*
X9147991Y-14581960D02*
X9138467Y-14572436D01*
X9138467Y-14572436D02*
X9128944Y-14553388D01*
X9128944Y-14553388D02*
X9119420Y-14515293D01*
X9119420Y-14515293D02*
X9119420Y-14467674D01*
X9119420Y-14467674D02*
X9128944Y-14429579D01*
X9128944Y-14429579D02*
X9138467Y-14410531D01*
X9138467Y-14410531D02*
X9147991Y-14401008D01*
X9147991Y-14401008D02*
X9167039Y-14391484D01*
X9319420Y-14591484D02*
X9319420Y-14458150D01*
X9319420Y-14477198D02*
X9328944Y-14467674D01*
X9328944Y-14467674D02*
X9347991Y-14458150D01*
X9347991Y-14458150D02*
X9376563Y-14458150D01*
X9376563Y-14458150D02*
X9395610Y-14467674D01*
X9395610Y-14467674D02*
X9405134Y-14486722D01*
X9405134Y-14486722D02*
X9405134Y-14591484D01*
X9405134Y-14486722D02*
X9414658Y-14467674D01*
X9414658Y-14467674D02*
X9433705Y-14458150D01*
X9433705Y-14458150D02*
X9462277Y-14458150D01*
X9462277Y-14458150D02*
X9481325Y-14467674D01*
X9481325Y-14467674D02*
X9490848Y-14486722D01*
X9490848Y-14486722D02*
X9490848Y-14591484D01*
X9586086Y-14591484D02*
X9586086Y-14458150D01*
X9586086Y-14477198D02*
X9595610Y-14467674D01*
X9595610Y-14467674D02*
X9614658Y-14458150D01*
X9614658Y-14458150D02*
X9643229Y-14458150D01*
X9643229Y-14458150D02*
X9662277Y-14467674D01*
X9662277Y-14467674D02*
X9671801Y-14486722D01*
X9671801Y-14486722D02*
X9671801Y-14591484D01*
X9671801Y-14486722D02*
X9681325Y-14467674D01*
X9681325Y-14467674D02*
X9700372Y-14458150D01*
X9700372Y-14458150D02*
X9728944Y-14458150D01*
X9728944Y-14458150D02*
X9747991Y-14467674D01*
X9747991Y-14467674D02*
X9757515Y-14486722D01*
X9757515Y-14486722D02*
X9757515Y-14591484D01*
X10147991Y-14381960D02*
X9976563Y-14639103D01*
X10405134Y-14391484D02*
X10424182Y-14391484D01*
X10424182Y-14391484D02*
X10443229Y-14401008D01*
X10443229Y-14401008D02*
X10452753Y-14410531D01*
X10452753Y-14410531D02*
X10462277Y-14429579D01*
X10462277Y-14429579D02*
X10471801Y-14467674D01*
X10471801Y-14467674D02*
X10471801Y-14515293D01*
X10471801Y-14515293D02*
X10462277Y-14553388D01*
X10462277Y-14553388D02*
X10452753Y-14572436D01*
X10452753Y-14572436D02*
X10443229Y-14581960D01*
X10443229Y-14581960D02*
X10424182Y-14591484D01*
X10424182Y-14591484D02*
X10405134Y-14591484D01*
X10405134Y-14591484D02*
X10386087Y-14581960D01*
X10386087Y-14581960D02*
X10376563Y-14572436D01*
X10376563Y-14572436D02*
X10367039Y-14553388D01*
X10367039Y-14553388D02*
X10357515Y-14515293D01*
X10357515Y-14515293D02*
X10357515Y-14467674D01*
X10357515Y-14467674D02*
X10367039Y-14429579D01*
X10367039Y-14429579D02*
X10376563Y-14410531D01*
X10376563Y-14410531D02*
X10386087Y-14401008D01*
X10386087Y-14401008D02*
X10405134Y-14391484D01*
X10557515Y-14572436D02*
X10567039Y-14581960D01*
X10567039Y-14581960D02*
X10557515Y-14591484D01*
X10557515Y-14591484D02*
X10547991Y-14581960D01*
X10547991Y-14581960D02*
X10557515Y-14572436D01*
X10557515Y-14572436D02*
X10557515Y-14591484D01*
X10690848Y-14391484D02*
X10709896Y-14391484D01*
X10709896Y-14391484D02*
X10728944Y-14401008D01*
X10728944Y-14401008D02*
X10738468Y-14410531D01*
X10738468Y-14410531D02*
X10747991Y-14429579D01*
X10747991Y-14429579D02*
X10757515Y-14467674D01*
X10757515Y-14467674D02*
X10757515Y-14515293D01*
X10757515Y-14515293D02*
X10747991Y-14553388D01*
X10747991Y-14553388D02*
X10738468Y-14572436D01*
X10738468Y-14572436D02*
X10728944Y-14581960D01*
X10728944Y-14581960D02*
X10709896Y-14591484D01*
X10709896Y-14591484D02*
X10690848Y-14591484D01*
X10690848Y-14591484D02*
X10671801Y-14581960D01*
X10671801Y-14581960D02*
X10662277Y-14572436D01*
X10662277Y-14572436D02*
X10652753Y-14553388D01*
X10652753Y-14553388D02*
X10643229Y-14515293D01*
X10643229Y-14515293D02*
X10643229Y-14467674D01*
X10643229Y-14467674D02*
X10652753Y-14429579D01*
X10652753Y-14429579D02*
X10662277Y-14410531D01*
X10662277Y-14410531D02*
X10671801Y-14401008D01*
X10671801Y-14401008D02*
X10690848Y-14391484D01*
X10947991Y-14591484D02*
X10833706Y-14591484D01*
X10890848Y-14591484D02*
X10890848Y-14391484D01*
X10890848Y-14391484D02*
X10871801Y-14420055D01*
X10871801Y-14420055D02*
X10852753Y-14439103D01*
X10852753Y-14439103D02*
X10833706Y-14448627D01*
X11128944Y-14391484D02*
X11033706Y-14391484D01*
X11033706Y-14391484D02*
X11024182Y-14486722D01*
X11024182Y-14486722D02*
X11033706Y-14477198D01*
X11033706Y-14477198D02*
X11052753Y-14467674D01*
X11052753Y-14467674D02*
X11100372Y-14467674D01*
X11100372Y-14467674D02*
X11119420Y-14477198D01*
X11119420Y-14477198D02*
X11128944Y-14486722D01*
X11128944Y-14486722D02*
X11138468Y-14505769D01*
X11138468Y-14505769D02*
X11138468Y-14553388D01*
X11138468Y-14553388D02*
X11128944Y-14572436D01*
X11128944Y-14572436D02*
X11119420Y-14581960D01*
X11119420Y-14581960D02*
X11100372Y-14591484D01*
X11100372Y-14591484D02*
X11052753Y-14591484D01*
X11052753Y-14591484D02*
X11033706Y-14581960D01*
X11033706Y-14581960D02*
X11024182Y-14572436D01*
X11205134Y-14391484D02*
X11338467Y-14391484D01*
X11338467Y-14391484D02*
X11252753Y-14591484D01*
X11405134Y-14391484D02*
X11405134Y-14429579D01*
X11481325Y-14391484D02*
X11481325Y-14429579D01*
X11776563Y-14667674D02*
X11767039Y-14658150D01*
X11767039Y-14658150D02*
X11747991Y-14629579D01*
X11747991Y-14629579D02*
X11738468Y-14610531D01*
X11738468Y-14610531D02*
X11728944Y-14581960D01*
X11728944Y-14581960D02*
X11719420Y-14534341D01*
X11719420Y-14534341D02*
X11719420Y-14496246D01*
X11719420Y-14496246D02*
X11728944Y-14448627D01*
X11728944Y-14448627D02*
X11738468Y-14420055D01*
X11738468Y-14420055D02*
X11747991Y-14401008D01*
X11747991Y-14401008D02*
X11767039Y-14372436D01*
X11767039Y-14372436D02*
X11776563Y-14362912D01*
X11957515Y-14591484D02*
X11843229Y-14591484D01*
X11900372Y-14591484D02*
X11900372Y-14391484D01*
X11900372Y-14391484D02*
X11881325Y-14420055D01*
X11881325Y-14420055D02*
X11862277Y-14439103D01*
X11862277Y-14439103D02*
X11843229Y-14448627D01*
X12147991Y-14591484D02*
X12033706Y-14591484D01*
X12090848Y-14591484D02*
X12090848Y-14391484D01*
X12090848Y-14391484D02*
X12071801Y-14420055D01*
X12071801Y-14420055D02*
X12052753Y-14439103D01*
X12052753Y-14439103D02*
X12033706Y-14448627D01*
X12328944Y-14391484D02*
X12233706Y-14391484D01*
X12233706Y-14391484D02*
X12224182Y-14486722D01*
X12224182Y-14486722D02*
X12233706Y-14477198D01*
X12233706Y-14477198D02*
X12252753Y-14467674D01*
X12252753Y-14467674D02*
X12300372Y-14467674D01*
X12300372Y-14467674D02*
X12319420Y-14477198D01*
X12319420Y-14477198D02*
X12328944Y-14486722D01*
X12328944Y-14486722D02*
X12338468Y-14505769D01*
X12338468Y-14505769D02*
X12338468Y-14553388D01*
X12338468Y-14553388D02*
X12328944Y-14572436D01*
X12328944Y-14572436D02*
X12319420Y-14581960D01*
X12319420Y-14581960D02*
X12300372Y-14591484D01*
X12300372Y-14591484D02*
X12252753Y-14591484D01*
X12252753Y-14591484D02*
X12233706Y-14581960D01*
X12233706Y-14581960D02*
X12224182Y-14572436D01*
X12576563Y-14591484D02*
X12576563Y-14391484D01*
X12662277Y-14591484D02*
X12662277Y-14486722D01*
X12662277Y-14486722D02*
X12652753Y-14467674D01*
X12652753Y-14467674D02*
X12633706Y-14458150D01*
X12633706Y-14458150D02*
X12605134Y-14458150D01*
X12605134Y-14458150D02*
X12586087Y-14467674D01*
X12586087Y-14467674D02*
X12576563Y-14477198D01*
X12786087Y-14591484D02*
X12767039Y-14581960D01*
X12767039Y-14581960D02*
X12757515Y-14572436D01*
X12757515Y-14572436D02*
X12747991Y-14553388D01*
X12747991Y-14553388D02*
X12747991Y-14496246D01*
X12747991Y-14496246D02*
X12757515Y-14477198D01*
X12757515Y-14477198D02*
X12767039Y-14467674D01*
X12767039Y-14467674D02*
X12786087Y-14458150D01*
X12786087Y-14458150D02*
X12814658Y-14458150D01*
X12814658Y-14458150D02*
X12833706Y-14467674D01*
X12833706Y-14467674D02*
X12843230Y-14477198D01*
X12843230Y-14477198D02*
X12852753Y-14496246D01*
X12852753Y-14496246D02*
X12852753Y-14553388D01*
X12852753Y-14553388D02*
X12843230Y-14572436D01*
X12843230Y-14572436D02*
X12833706Y-14581960D01*
X12833706Y-14581960D02*
X12814658Y-14591484D01*
X12814658Y-14591484D02*
X12786087Y-14591484D01*
X12967039Y-14591484D02*
X12947991Y-14581960D01*
X12947991Y-14581960D02*
X12938468Y-14562912D01*
X12938468Y-14562912D02*
X12938468Y-14391484D01*
X13119420Y-14581960D02*
X13100372Y-14591484D01*
X13100372Y-14591484D02*
X13062277Y-14591484D01*
X13062277Y-14591484D02*
X13043230Y-14581960D01*
X13043230Y-14581960D02*
X13033706Y-14562912D01*
X13033706Y-14562912D02*
X13033706Y-14486722D01*
X13033706Y-14486722D02*
X13043230Y-14467674D01*
X13043230Y-14467674D02*
X13062277Y-14458150D01*
X13062277Y-14458150D02*
X13100372Y-14458150D01*
X13100372Y-14458150D02*
X13119420Y-14467674D01*
X13119420Y-14467674D02*
X13128944Y-14486722D01*
X13128944Y-14486722D02*
X13128944Y-14505769D01*
X13128944Y-14505769D02*
X13033706Y-14524817D01*
X13205134Y-14581960D02*
X13224182Y-14591484D01*
X13224182Y-14591484D02*
X13262277Y-14591484D01*
X13262277Y-14591484D02*
X13281325Y-14581960D01*
X13281325Y-14581960D02*
X13290849Y-14562912D01*
X13290849Y-14562912D02*
X13290849Y-14553388D01*
X13290849Y-14553388D02*
X13281325Y-14534341D01*
X13281325Y-14534341D02*
X13262277Y-14524817D01*
X13262277Y-14524817D02*
X13233706Y-14524817D01*
X13233706Y-14524817D02*
X13214658Y-14515293D01*
X13214658Y-14515293D02*
X13205134Y-14496246D01*
X13205134Y-14496246D02*
X13205134Y-14486722D01*
X13205134Y-14486722D02*
X13214658Y-14467674D01*
X13214658Y-14467674D02*
X13233706Y-14458150D01*
X13233706Y-14458150D02*
X13262277Y-14458150D01*
X13262277Y-14458150D02*
X13281325Y-14467674D01*
X13357515Y-14667674D02*
X13367039Y-14658150D01*
X13367039Y-14658150D02*
X13386087Y-14629579D01*
X13386087Y-14629579D02*
X13395611Y-14610531D01*
X13395611Y-14610531D02*
X13405134Y-14581960D01*
X13405134Y-14581960D02*
X13414658Y-14534341D01*
X13414658Y-14534341D02*
X13414658Y-14496246D01*
X13414658Y-14496246D02*
X13405134Y-14448627D01*
X13405134Y-14448627D02*
X13395611Y-14420055D01*
X13395611Y-14420055D02*
X13386087Y-14401008D01*
X13386087Y-14401008D02*
X13367039Y-14372436D01*
X13367039Y-14372436D02*
X13357515Y-14362912D01*
D11*
X8201500Y-14764000D02*
G75*
G02*
X8136500Y-14764000I-32500J0D01*
G01*
X8136500Y-14764000D02*
G75*
G02*
X8201500Y-14764000I32500J0D01*
G01*
D10*
X8500372Y-14655484D02*
X8519420Y-14655484D01*
X8519420Y-14655484D02*
X8538467Y-14665008D01*
X8538467Y-14665008D02*
X8547991Y-14674531D01*
X8547991Y-14674531D02*
X8557515Y-14693579D01*
X8557515Y-14693579D02*
X8567039Y-14731674D01*
X8567039Y-14731674D02*
X8567039Y-14779293D01*
X8567039Y-14779293D02*
X8557515Y-14817388D01*
X8557515Y-14817388D02*
X8547991Y-14836436D01*
X8547991Y-14836436D02*
X8538467Y-14845960D01*
X8538467Y-14845960D02*
X8519420Y-14855484D01*
X8519420Y-14855484D02*
X8500372Y-14855484D01*
X8500372Y-14855484D02*
X8481324Y-14845960D01*
X8481324Y-14845960D02*
X8471801Y-14836436D01*
X8471801Y-14836436D02*
X8462277Y-14817388D01*
X8462277Y-14817388D02*
X8452753Y-14779293D01*
X8452753Y-14779293D02*
X8452753Y-14731674D01*
X8452753Y-14731674D02*
X8462277Y-14693579D01*
X8462277Y-14693579D02*
X8471801Y-14674531D01*
X8471801Y-14674531D02*
X8481324Y-14665008D01*
X8481324Y-14665008D02*
X8500372Y-14655484D01*
X8652753Y-14836436D02*
X8662277Y-14845960D01*
X8662277Y-14845960D02*
X8652753Y-14855484D01*
X8652753Y-14855484D02*
X8643229Y-14845960D01*
X8643229Y-14845960D02*
X8652753Y-14836436D01*
X8652753Y-14836436D02*
X8652753Y-14855484D01*
X8833705Y-14655484D02*
X8795610Y-14655484D01*
X8795610Y-14655484D02*
X8776563Y-14665008D01*
X8776563Y-14665008D02*
X8767039Y-14674531D01*
X8767039Y-14674531D02*
X8747991Y-14703103D01*
X8747991Y-14703103D02*
X8738467Y-14741198D01*
X8738467Y-14741198D02*
X8738467Y-14817388D01*
X8738467Y-14817388D02*
X8747991Y-14836436D01*
X8747991Y-14836436D02*
X8757515Y-14845960D01*
X8757515Y-14845960D02*
X8776563Y-14855484D01*
X8776563Y-14855484D02*
X8814658Y-14855484D01*
X8814658Y-14855484D02*
X8833705Y-14845960D01*
X8833705Y-14845960D02*
X8843229Y-14836436D01*
X8843229Y-14836436D02*
X8852753Y-14817388D01*
X8852753Y-14817388D02*
X8852753Y-14769769D01*
X8852753Y-14769769D02*
X8843229Y-14750722D01*
X8843229Y-14750722D02*
X8833705Y-14741198D01*
X8833705Y-14741198D02*
X8814658Y-14731674D01*
X8814658Y-14731674D02*
X8776563Y-14731674D01*
X8776563Y-14731674D02*
X8757515Y-14741198D01*
X8757515Y-14741198D02*
X8747991Y-14750722D01*
X8747991Y-14750722D02*
X8738467Y-14769769D01*
X9033705Y-14655484D02*
X8938467Y-14655484D01*
X8938467Y-14655484D02*
X8928944Y-14750722D01*
X8928944Y-14750722D02*
X8938467Y-14741198D01*
X8938467Y-14741198D02*
X8957515Y-14731674D01*
X8957515Y-14731674D02*
X9005134Y-14731674D01*
X9005134Y-14731674D02*
X9024182Y-14741198D01*
X9024182Y-14741198D02*
X9033705Y-14750722D01*
X9033705Y-14750722D02*
X9043229Y-14769769D01*
X9043229Y-14769769D02*
X9043229Y-14817388D01*
X9043229Y-14817388D02*
X9033705Y-14836436D01*
X9033705Y-14836436D02*
X9024182Y-14845960D01*
X9024182Y-14845960D02*
X9005134Y-14855484D01*
X9005134Y-14855484D02*
X8957515Y-14855484D01*
X8957515Y-14855484D02*
X8938467Y-14845960D01*
X8938467Y-14845960D02*
X8928944Y-14836436D01*
X9167039Y-14655484D02*
X9186086Y-14655484D01*
X9186086Y-14655484D02*
X9205134Y-14665008D01*
X9205134Y-14665008D02*
X9214658Y-14674531D01*
X9214658Y-14674531D02*
X9224182Y-14693579D01*
X9224182Y-14693579D02*
X9233705Y-14731674D01*
X9233705Y-14731674D02*
X9233705Y-14779293D01*
X9233705Y-14779293D02*
X9224182Y-14817388D01*
X9224182Y-14817388D02*
X9214658Y-14836436D01*
X9214658Y-14836436D02*
X9205134Y-14845960D01*
X9205134Y-14845960D02*
X9186086Y-14855484D01*
X9186086Y-14855484D02*
X9167039Y-14855484D01*
X9167039Y-14855484D02*
X9147991Y-14845960D01*
X9147991Y-14845960D02*
X9138467Y-14836436D01*
X9138467Y-14836436D02*
X9128944Y-14817388D01*
X9128944Y-14817388D02*
X9119420Y-14779293D01*
X9119420Y-14779293D02*
X9119420Y-14731674D01*
X9119420Y-14731674D02*
X9128944Y-14693579D01*
X9128944Y-14693579D02*
X9138467Y-14674531D01*
X9138467Y-14674531D02*
X9147991Y-14665008D01*
X9147991Y-14665008D02*
X9167039Y-14655484D01*
X9319420Y-14855484D02*
X9319420Y-14722150D01*
X9319420Y-14741198D02*
X9328944Y-14731674D01*
X9328944Y-14731674D02*
X9347991Y-14722150D01*
X9347991Y-14722150D02*
X9376563Y-14722150D01*
X9376563Y-14722150D02*
X9395610Y-14731674D01*
X9395610Y-14731674D02*
X9405134Y-14750722D01*
X9405134Y-14750722D02*
X9405134Y-14855484D01*
X9405134Y-14750722D02*
X9414658Y-14731674D01*
X9414658Y-14731674D02*
X9433705Y-14722150D01*
X9433705Y-14722150D02*
X9462277Y-14722150D01*
X9462277Y-14722150D02*
X9481325Y-14731674D01*
X9481325Y-14731674D02*
X9490848Y-14750722D01*
X9490848Y-14750722D02*
X9490848Y-14855484D01*
X9586086Y-14855484D02*
X9586086Y-14722150D01*
X9586086Y-14741198D02*
X9595610Y-14731674D01*
X9595610Y-14731674D02*
X9614658Y-14722150D01*
X9614658Y-14722150D02*
X9643229Y-14722150D01*
X9643229Y-14722150D02*
X9662277Y-14731674D01*
X9662277Y-14731674D02*
X9671801Y-14750722D01*
X9671801Y-14750722D02*
X9671801Y-14855484D01*
X9671801Y-14750722D02*
X9681325Y-14731674D01*
X9681325Y-14731674D02*
X9700372Y-14722150D01*
X9700372Y-14722150D02*
X9728944Y-14722150D01*
X9728944Y-14722150D02*
X9747991Y-14731674D01*
X9747991Y-14731674D02*
X9757515Y-14750722D01*
X9757515Y-14750722D02*
X9757515Y-14855484D01*
X10147991Y-14645960D02*
X9976563Y-14903103D01*
X10405134Y-14655484D02*
X10424182Y-14655484D01*
X10424182Y-14655484D02*
X10443229Y-14665008D01*
X10443229Y-14665008D02*
X10452753Y-14674531D01*
X10452753Y-14674531D02*
X10462277Y-14693579D01*
X10462277Y-14693579D02*
X10471801Y-14731674D01*
X10471801Y-14731674D02*
X10471801Y-14779293D01*
X10471801Y-14779293D02*
X10462277Y-14817388D01*
X10462277Y-14817388D02*
X10452753Y-14836436D01*
X10452753Y-14836436D02*
X10443229Y-14845960D01*
X10443229Y-14845960D02*
X10424182Y-14855484D01*
X10424182Y-14855484D02*
X10405134Y-14855484D01*
X10405134Y-14855484D02*
X10386087Y-14845960D01*
X10386087Y-14845960D02*
X10376563Y-14836436D01*
X10376563Y-14836436D02*
X10367039Y-14817388D01*
X10367039Y-14817388D02*
X10357515Y-14779293D01*
X10357515Y-14779293D02*
X10357515Y-14731674D01*
X10357515Y-14731674D02*
X10367039Y-14693579D01*
X10367039Y-14693579D02*
X10376563Y-14674531D01*
X10376563Y-14674531D02*
X10386087Y-14665008D01*
X10386087Y-14665008D02*
X10405134Y-14655484D01*
X10557515Y-14836436D02*
X10567039Y-14845960D01*
X10567039Y-14845960D02*
X10557515Y-14855484D01*
X10557515Y-14855484D02*
X10547991Y-14845960D01*
X10547991Y-14845960D02*
X10557515Y-14836436D01*
X10557515Y-14836436D02*
X10557515Y-14855484D01*
X10690848Y-14655484D02*
X10709896Y-14655484D01*
X10709896Y-14655484D02*
X10728944Y-14665008D01*
X10728944Y-14665008D02*
X10738468Y-14674531D01*
X10738468Y-14674531D02*
X10747991Y-14693579D01*
X10747991Y-14693579D02*
X10757515Y-14731674D01*
X10757515Y-14731674D02*
X10757515Y-14779293D01*
X10757515Y-14779293D02*
X10747991Y-14817388D01*
X10747991Y-14817388D02*
X10738468Y-14836436D01*
X10738468Y-14836436D02*
X10728944Y-14845960D01*
X10728944Y-14845960D02*
X10709896Y-14855484D01*
X10709896Y-14855484D02*
X10690848Y-14855484D01*
X10690848Y-14855484D02*
X10671801Y-14845960D01*
X10671801Y-14845960D02*
X10662277Y-14836436D01*
X10662277Y-14836436D02*
X10652753Y-14817388D01*
X10652753Y-14817388D02*
X10643229Y-14779293D01*
X10643229Y-14779293D02*
X10643229Y-14731674D01*
X10643229Y-14731674D02*
X10652753Y-14693579D01*
X10652753Y-14693579D02*
X10662277Y-14674531D01*
X10662277Y-14674531D02*
X10671801Y-14665008D01*
X10671801Y-14665008D02*
X10690848Y-14655484D01*
X10833706Y-14674531D02*
X10843229Y-14665008D01*
X10843229Y-14665008D02*
X10862277Y-14655484D01*
X10862277Y-14655484D02*
X10909896Y-14655484D01*
X10909896Y-14655484D02*
X10928944Y-14665008D01*
X10928944Y-14665008D02*
X10938468Y-14674531D01*
X10938468Y-14674531D02*
X10947991Y-14693579D01*
X10947991Y-14693579D02*
X10947991Y-14712627D01*
X10947991Y-14712627D02*
X10938468Y-14741198D01*
X10938468Y-14741198D02*
X10824182Y-14855484D01*
X10824182Y-14855484D02*
X10947991Y-14855484D01*
X11128944Y-14655484D02*
X11033706Y-14655484D01*
X11033706Y-14655484D02*
X11024182Y-14750722D01*
X11024182Y-14750722D02*
X11033706Y-14741198D01*
X11033706Y-14741198D02*
X11052753Y-14731674D01*
X11052753Y-14731674D02*
X11100372Y-14731674D01*
X11100372Y-14731674D02*
X11119420Y-14741198D01*
X11119420Y-14741198D02*
X11128944Y-14750722D01*
X11128944Y-14750722D02*
X11138468Y-14769769D01*
X11138468Y-14769769D02*
X11138468Y-14817388D01*
X11138468Y-14817388D02*
X11128944Y-14836436D01*
X11128944Y-14836436D02*
X11119420Y-14845960D01*
X11119420Y-14845960D02*
X11100372Y-14855484D01*
X11100372Y-14855484D02*
X11052753Y-14855484D01*
X11052753Y-14855484D02*
X11033706Y-14845960D01*
X11033706Y-14845960D02*
X11024182Y-14836436D01*
X11309896Y-14655484D02*
X11271801Y-14655484D01*
X11271801Y-14655484D02*
X11252753Y-14665008D01*
X11252753Y-14665008D02*
X11243229Y-14674531D01*
X11243229Y-14674531D02*
X11224182Y-14703103D01*
X11224182Y-14703103D02*
X11214658Y-14741198D01*
X11214658Y-14741198D02*
X11214658Y-14817388D01*
X11214658Y-14817388D02*
X11224182Y-14836436D01*
X11224182Y-14836436D02*
X11233706Y-14845960D01*
X11233706Y-14845960D02*
X11252753Y-14855484D01*
X11252753Y-14855484D02*
X11290848Y-14855484D01*
X11290848Y-14855484D02*
X11309896Y-14845960D01*
X11309896Y-14845960D02*
X11319420Y-14836436D01*
X11319420Y-14836436D02*
X11328944Y-14817388D01*
X11328944Y-14817388D02*
X11328944Y-14769769D01*
X11328944Y-14769769D02*
X11319420Y-14750722D01*
X11319420Y-14750722D02*
X11309896Y-14741198D01*
X11309896Y-14741198D02*
X11290848Y-14731674D01*
X11290848Y-14731674D02*
X11252753Y-14731674D01*
X11252753Y-14731674D02*
X11233706Y-14741198D01*
X11233706Y-14741198D02*
X11224182Y-14750722D01*
X11224182Y-14750722D02*
X11214658Y-14769769D01*
X11405134Y-14655484D02*
X11405134Y-14693579D01*
X11481325Y-14655484D02*
X11481325Y-14693579D01*
X11776563Y-14931674D02*
X11767039Y-14922150D01*
X11767039Y-14922150D02*
X11747991Y-14893579D01*
X11747991Y-14893579D02*
X11738468Y-14874531D01*
X11738468Y-14874531D02*
X11728944Y-14845960D01*
X11728944Y-14845960D02*
X11719420Y-14798341D01*
X11719420Y-14798341D02*
X11719420Y-14760246D01*
X11719420Y-14760246D02*
X11728944Y-14712627D01*
X11728944Y-14712627D02*
X11738468Y-14684055D01*
X11738468Y-14684055D02*
X11747991Y-14665008D01*
X11747991Y-14665008D02*
X11767039Y-14636436D01*
X11767039Y-14636436D02*
X11776563Y-14626912D01*
X11947991Y-14655484D02*
X11852753Y-14655484D01*
X11852753Y-14655484D02*
X11843229Y-14750722D01*
X11843229Y-14750722D02*
X11852753Y-14741198D01*
X11852753Y-14741198D02*
X11871801Y-14731674D01*
X11871801Y-14731674D02*
X11919420Y-14731674D01*
X11919420Y-14731674D02*
X11938468Y-14741198D01*
X11938468Y-14741198D02*
X11947991Y-14750722D01*
X11947991Y-14750722D02*
X11957515Y-14769769D01*
X11957515Y-14769769D02*
X11957515Y-14817388D01*
X11957515Y-14817388D02*
X11947991Y-14836436D01*
X11947991Y-14836436D02*
X11938468Y-14845960D01*
X11938468Y-14845960D02*
X11919420Y-14855484D01*
X11919420Y-14855484D02*
X11871801Y-14855484D01*
X11871801Y-14855484D02*
X11852753Y-14845960D01*
X11852753Y-14845960D02*
X11843229Y-14836436D01*
X12147991Y-14855484D02*
X12033706Y-14855484D01*
X12090848Y-14855484D02*
X12090848Y-14655484D01*
X12090848Y-14655484D02*
X12071801Y-14684055D01*
X12071801Y-14684055D02*
X12052753Y-14703103D01*
X12052753Y-14703103D02*
X12033706Y-14712627D01*
X12386087Y-14855484D02*
X12386087Y-14655484D01*
X12471801Y-14855484D02*
X12471801Y-14750722D01*
X12471801Y-14750722D02*
X12462277Y-14731674D01*
X12462277Y-14731674D02*
X12443230Y-14722150D01*
X12443230Y-14722150D02*
X12414658Y-14722150D01*
X12414658Y-14722150D02*
X12395610Y-14731674D01*
X12395610Y-14731674D02*
X12386087Y-14741198D01*
X12595610Y-14855484D02*
X12576563Y-14845960D01*
X12576563Y-14845960D02*
X12567039Y-14836436D01*
X12567039Y-14836436D02*
X12557515Y-14817388D01*
X12557515Y-14817388D02*
X12557515Y-14760246D01*
X12557515Y-14760246D02*
X12567039Y-14741198D01*
X12567039Y-14741198D02*
X12576563Y-14731674D01*
X12576563Y-14731674D02*
X12595610Y-14722150D01*
X12595610Y-14722150D02*
X12624182Y-14722150D01*
X12624182Y-14722150D02*
X12643230Y-14731674D01*
X12643230Y-14731674D02*
X12652753Y-14741198D01*
X12652753Y-14741198D02*
X12662277Y-14760246D01*
X12662277Y-14760246D02*
X12662277Y-14817388D01*
X12662277Y-14817388D02*
X12652753Y-14836436D01*
X12652753Y-14836436D02*
X12643230Y-14845960D01*
X12643230Y-14845960D02*
X12624182Y-14855484D01*
X12624182Y-14855484D02*
X12595610Y-14855484D01*
X12776563Y-14855484D02*
X12757515Y-14845960D01*
X12757515Y-14845960D02*
X12747991Y-14826912D01*
X12747991Y-14826912D02*
X12747991Y-14655484D01*
X12928944Y-14845960D02*
X12909896Y-14855484D01*
X12909896Y-14855484D02*
X12871801Y-14855484D01*
X12871801Y-14855484D02*
X12852753Y-14845960D01*
X12852753Y-14845960D02*
X12843230Y-14826912D01*
X12843230Y-14826912D02*
X12843230Y-14750722D01*
X12843230Y-14750722D02*
X12852753Y-14731674D01*
X12852753Y-14731674D02*
X12871801Y-14722150D01*
X12871801Y-14722150D02*
X12909896Y-14722150D01*
X12909896Y-14722150D02*
X12928944Y-14731674D01*
X12928944Y-14731674D02*
X12938468Y-14750722D01*
X12938468Y-14750722D02*
X12938468Y-14769769D01*
X12938468Y-14769769D02*
X12843230Y-14788817D01*
X13014658Y-14845960D02*
X13033706Y-14855484D01*
X13033706Y-14855484D02*
X13071801Y-14855484D01*
X13071801Y-14855484D02*
X13090849Y-14845960D01*
X13090849Y-14845960D02*
X13100372Y-14826912D01*
X13100372Y-14826912D02*
X13100372Y-14817388D01*
X13100372Y-14817388D02*
X13090849Y-14798341D01*
X13090849Y-14798341D02*
X13071801Y-14788817D01*
X13071801Y-14788817D02*
X13043230Y-14788817D01*
X13043230Y-14788817D02*
X13024182Y-14779293D01*
X13024182Y-14779293D02*
X13014658Y-14760246D01*
X13014658Y-14760246D02*
X13014658Y-14750722D01*
X13014658Y-14750722D02*
X13024182Y-14731674D01*
X13024182Y-14731674D02*
X13043230Y-14722150D01*
X13043230Y-14722150D02*
X13071801Y-14722150D01*
X13071801Y-14722150D02*
X13090849Y-14731674D01*
X13167039Y-14931674D02*
X13176563Y-14922150D01*
X13176563Y-14922150D02*
X13195611Y-14893579D01*
X13195611Y-14893579D02*
X13205134Y-14874531D01*
X13205134Y-14874531D02*
X13214658Y-14845960D01*
X13214658Y-14845960D02*
X13224182Y-14798341D01*
X13224182Y-14798341D02*
X13224182Y-14760246D01*
X13224182Y-14760246D02*
X13214658Y-14712627D01*
X13214658Y-14712627D02*
X13205134Y-14684055D01*
X13205134Y-14684055D02*
X13195611Y-14665008D01*
X13195611Y-14665008D02*
X13176563Y-14636436D01*
X13176563Y-14636436D02*
X13167039Y-14626912D01*
D11*
X8166500Y-14993000D02*
X8166500Y-15063000D01*
X8131500Y-15028000D02*
X8201500Y-15028000D01*
D10*
X8500372Y-14919484D02*
X8519420Y-14919484D01*
X8519420Y-14919484D02*
X8538467Y-14929008D01*
X8538467Y-14929008D02*
X8547991Y-14938531D01*
X8547991Y-14938531D02*
X8557515Y-14957579D01*
X8557515Y-14957579D02*
X8567039Y-14995674D01*
X8567039Y-14995674D02*
X8567039Y-15043293D01*
X8567039Y-15043293D02*
X8557515Y-15081388D01*
X8557515Y-15081388D02*
X8547991Y-15100436D01*
X8547991Y-15100436D02*
X8538467Y-15109960D01*
X8538467Y-15109960D02*
X8519420Y-15119484D01*
X8519420Y-15119484D02*
X8500372Y-15119484D01*
X8500372Y-15119484D02*
X8481324Y-15109960D01*
X8481324Y-15109960D02*
X8471801Y-15100436D01*
X8471801Y-15100436D02*
X8462277Y-15081388D01*
X8462277Y-15081388D02*
X8452753Y-15043293D01*
X8452753Y-15043293D02*
X8452753Y-14995674D01*
X8452753Y-14995674D02*
X8462277Y-14957579D01*
X8462277Y-14957579D02*
X8471801Y-14938531D01*
X8471801Y-14938531D02*
X8481324Y-14929008D01*
X8481324Y-14929008D02*
X8500372Y-14919484D01*
X8652753Y-15100436D02*
X8662277Y-15109960D01*
X8662277Y-15109960D02*
X8652753Y-15119484D01*
X8652753Y-15119484D02*
X8643229Y-15109960D01*
X8643229Y-15109960D02*
X8652753Y-15100436D01*
X8652753Y-15100436D02*
X8652753Y-15119484D01*
X8728944Y-14919484D02*
X8862277Y-14919484D01*
X8862277Y-14919484D02*
X8776563Y-15119484D01*
X8976563Y-14919484D02*
X8995610Y-14919484D01*
X8995610Y-14919484D02*
X9014658Y-14929008D01*
X9014658Y-14929008D02*
X9024182Y-14938531D01*
X9024182Y-14938531D02*
X9033705Y-14957579D01*
X9033705Y-14957579D02*
X9043229Y-14995674D01*
X9043229Y-14995674D02*
X9043229Y-15043293D01*
X9043229Y-15043293D02*
X9033705Y-15081388D01*
X9033705Y-15081388D02*
X9024182Y-15100436D01*
X9024182Y-15100436D02*
X9014658Y-15109960D01*
X9014658Y-15109960D02*
X8995610Y-15119484D01*
X8995610Y-15119484D02*
X8976563Y-15119484D01*
X8976563Y-15119484D02*
X8957515Y-15109960D01*
X8957515Y-15109960D02*
X8947991Y-15100436D01*
X8947991Y-15100436D02*
X8938467Y-15081388D01*
X8938467Y-15081388D02*
X8928944Y-15043293D01*
X8928944Y-15043293D02*
X8928944Y-14995674D01*
X8928944Y-14995674D02*
X8938467Y-14957579D01*
X8938467Y-14957579D02*
X8947991Y-14938531D01*
X8947991Y-14938531D02*
X8957515Y-14929008D01*
X8957515Y-14929008D02*
X8976563Y-14919484D01*
X9167039Y-14919484D02*
X9186086Y-14919484D01*
X9186086Y-14919484D02*
X9205134Y-14929008D01*
X9205134Y-14929008D02*
X9214658Y-14938531D01*
X9214658Y-14938531D02*
X9224182Y-14957579D01*
X9224182Y-14957579D02*
X9233705Y-14995674D01*
X9233705Y-14995674D02*
X9233705Y-15043293D01*
X9233705Y-15043293D02*
X9224182Y-15081388D01*
X9224182Y-15081388D02*
X9214658Y-15100436D01*
X9214658Y-15100436D02*
X9205134Y-15109960D01*
X9205134Y-15109960D02*
X9186086Y-15119484D01*
X9186086Y-15119484D02*
X9167039Y-15119484D01*
X9167039Y-15119484D02*
X9147991Y-15109960D01*
X9147991Y-15109960D02*
X9138467Y-15100436D01*
X9138467Y-15100436D02*
X9128944Y-15081388D01*
X9128944Y-15081388D02*
X9119420Y-15043293D01*
X9119420Y-15043293D02*
X9119420Y-14995674D01*
X9119420Y-14995674D02*
X9128944Y-14957579D01*
X9128944Y-14957579D02*
X9138467Y-14938531D01*
X9138467Y-14938531D02*
X9147991Y-14929008D01*
X9147991Y-14929008D02*
X9167039Y-14919484D01*
X9319420Y-15119484D02*
X9319420Y-14986150D01*
X9319420Y-15005198D02*
X9328944Y-14995674D01*
X9328944Y-14995674D02*
X9347991Y-14986150D01*
X9347991Y-14986150D02*
X9376563Y-14986150D01*
X9376563Y-14986150D02*
X9395610Y-14995674D01*
X9395610Y-14995674D02*
X9405134Y-15014722D01*
X9405134Y-15014722D02*
X9405134Y-15119484D01*
X9405134Y-15014722D02*
X9414658Y-14995674D01*
X9414658Y-14995674D02*
X9433705Y-14986150D01*
X9433705Y-14986150D02*
X9462277Y-14986150D01*
X9462277Y-14986150D02*
X9481325Y-14995674D01*
X9481325Y-14995674D02*
X9490848Y-15014722D01*
X9490848Y-15014722D02*
X9490848Y-15119484D01*
X9586086Y-15119484D02*
X9586086Y-14986150D01*
X9586086Y-15005198D02*
X9595610Y-14995674D01*
X9595610Y-14995674D02*
X9614658Y-14986150D01*
X9614658Y-14986150D02*
X9643229Y-14986150D01*
X9643229Y-14986150D02*
X9662277Y-14995674D01*
X9662277Y-14995674D02*
X9671801Y-15014722D01*
X9671801Y-15014722D02*
X9671801Y-15119484D01*
X9671801Y-15014722D02*
X9681325Y-14995674D01*
X9681325Y-14995674D02*
X9700372Y-14986150D01*
X9700372Y-14986150D02*
X9728944Y-14986150D01*
X9728944Y-14986150D02*
X9747991Y-14995674D01*
X9747991Y-14995674D02*
X9757515Y-15014722D01*
X9757515Y-15014722D02*
X9757515Y-15119484D01*
X10147991Y-14909960D02*
X9976563Y-15167103D01*
X10405134Y-14919484D02*
X10424182Y-14919484D01*
X10424182Y-14919484D02*
X10443229Y-14929008D01*
X10443229Y-14929008D02*
X10452753Y-14938531D01*
X10452753Y-14938531D02*
X10462277Y-14957579D01*
X10462277Y-14957579D02*
X10471801Y-14995674D01*
X10471801Y-14995674D02*
X10471801Y-15043293D01*
X10471801Y-15043293D02*
X10462277Y-15081388D01*
X10462277Y-15081388D02*
X10452753Y-15100436D01*
X10452753Y-15100436D02*
X10443229Y-15109960D01*
X10443229Y-15109960D02*
X10424182Y-15119484D01*
X10424182Y-15119484D02*
X10405134Y-15119484D01*
X10405134Y-15119484D02*
X10386087Y-15109960D01*
X10386087Y-15109960D02*
X10376563Y-15100436D01*
X10376563Y-15100436D02*
X10367039Y-15081388D01*
X10367039Y-15081388D02*
X10357515Y-15043293D01*
X10357515Y-15043293D02*
X10357515Y-14995674D01*
X10357515Y-14995674D02*
X10367039Y-14957579D01*
X10367039Y-14957579D02*
X10376563Y-14938531D01*
X10376563Y-14938531D02*
X10386087Y-14929008D01*
X10386087Y-14929008D02*
X10405134Y-14919484D01*
X10557515Y-15100436D02*
X10567039Y-15109960D01*
X10567039Y-15109960D02*
X10557515Y-15119484D01*
X10557515Y-15119484D02*
X10547991Y-15109960D01*
X10547991Y-15109960D02*
X10557515Y-15100436D01*
X10557515Y-15100436D02*
X10557515Y-15119484D01*
X10690848Y-14919484D02*
X10709896Y-14919484D01*
X10709896Y-14919484D02*
X10728944Y-14929008D01*
X10728944Y-14929008D02*
X10738468Y-14938531D01*
X10738468Y-14938531D02*
X10747991Y-14957579D01*
X10747991Y-14957579D02*
X10757515Y-14995674D01*
X10757515Y-14995674D02*
X10757515Y-15043293D01*
X10757515Y-15043293D02*
X10747991Y-15081388D01*
X10747991Y-15081388D02*
X10738468Y-15100436D01*
X10738468Y-15100436D02*
X10728944Y-15109960D01*
X10728944Y-15109960D02*
X10709896Y-15119484D01*
X10709896Y-15119484D02*
X10690848Y-15119484D01*
X10690848Y-15119484D02*
X10671801Y-15109960D01*
X10671801Y-15109960D02*
X10662277Y-15100436D01*
X10662277Y-15100436D02*
X10652753Y-15081388D01*
X10652753Y-15081388D02*
X10643229Y-15043293D01*
X10643229Y-15043293D02*
X10643229Y-14995674D01*
X10643229Y-14995674D02*
X10652753Y-14957579D01*
X10652753Y-14957579D02*
X10662277Y-14938531D01*
X10662277Y-14938531D02*
X10671801Y-14929008D01*
X10671801Y-14929008D02*
X10690848Y-14919484D01*
X10833706Y-14938531D02*
X10843229Y-14929008D01*
X10843229Y-14929008D02*
X10862277Y-14919484D01*
X10862277Y-14919484D02*
X10909896Y-14919484D01*
X10909896Y-14919484D02*
X10928944Y-14929008D01*
X10928944Y-14929008D02*
X10938468Y-14938531D01*
X10938468Y-14938531D02*
X10947991Y-14957579D01*
X10947991Y-14957579D02*
X10947991Y-14976627D01*
X10947991Y-14976627D02*
X10938468Y-15005198D01*
X10938468Y-15005198D02*
X10824182Y-15119484D01*
X10824182Y-15119484D02*
X10947991Y-15119484D01*
X11014658Y-14919484D02*
X11147991Y-14919484D01*
X11147991Y-14919484D02*
X11062277Y-15119484D01*
X11309896Y-14919484D02*
X11271801Y-14919484D01*
X11271801Y-14919484D02*
X11252753Y-14929008D01*
X11252753Y-14929008D02*
X11243229Y-14938531D01*
X11243229Y-14938531D02*
X11224182Y-14967103D01*
X11224182Y-14967103D02*
X11214658Y-15005198D01*
X11214658Y-15005198D02*
X11214658Y-15081388D01*
X11214658Y-15081388D02*
X11224182Y-15100436D01*
X11224182Y-15100436D02*
X11233706Y-15109960D01*
X11233706Y-15109960D02*
X11252753Y-15119484D01*
X11252753Y-15119484D02*
X11290848Y-15119484D01*
X11290848Y-15119484D02*
X11309896Y-15109960D01*
X11309896Y-15109960D02*
X11319420Y-15100436D01*
X11319420Y-15100436D02*
X11328944Y-15081388D01*
X11328944Y-15081388D02*
X11328944Y-15033769D01*
X11328944Y-15033769D02*
X11319420Y-15014722D01*
X11319420Y-15014722D02*
X11309896Y-15005198D01*
X11309896Y-15005198D02*
X11290848Y-14995674D01*
X11290848Y-14995674D02*
X11252753Y-14995674D01*
X11252753Y-14995674D02*
X11233706Y-15005198D01*
X11233706Y-15005198D02*
X11224182Y-15014722D01*
X11224182Y-15014722D02*
X11214658Y-15033769D01*
X11405134Y-14919484D02*
X11405134Y-14957579D01*
X11481325Y-14919484D02*
X11481325Y-14957579D01*
X11776563Y-15195674D02*
X11767039Y-15186150D01*
X11767039Y-15186150D02*
X11747991Y-15157579D01*
X11747991Y-15157579D02*
X11738468Y-15138531D01*
X11738468Y-15138531D02*
X11728944Y-15109960D01*
X11728944Y-15109960D02*
X11719420Y-15062341D01*
X11719420Y-15062341D02*
X11719420Y-15024246D01*
X11719420Y-15024246D02*
X11728944Y-14976627D01*
X11728944Y-14976627D02*
X11738468Y-14948055D01*
X11738468Y-14948055D02*
X11747991Y-14929008D01*
X11747991Y-14929008D02*
X11767039Y-14900436D01*
X11767039Y-14900436D02*
X11776563Y-14890912D01*
X11947991Y-14919484D02*
X11852753Y-14919484D01*
X11852753Y-14919484D02*
X11843229Y-15014722D01*
X11843229Y-15014722D02*
X11852753Y-15005198D01*
X11852753Y-15005198D02*
X11871801Y-14995674D01*
X11871801Y-14995674D02*
X11919420Y-14995674D01*
X11919420Y-14995674D02*
X11938468Y-15005198D01*
X11938468Y-15005198D02*
X11947991Y-15014722D01*
X11947991Y-15014722D02*
X11957515Y-15033769D01*
X11957515Y-15033769D02*
X11957515Y-15081388D01*
X11957515Y-15081388D02*
X11947991Y-15100436D01*
X11947991Y-15100436D02*
X11938468Y-15109960D01*
X11938468Y-15109960D02*
X11919420Y-15119484D01*
X11919420Y-15119484D02*
X11871801Y-15119484D01*
X11871801Y-15119484D02*
X11852753Y-15109960D01*
X11852753Y-15109960D02*
X11843229Y-15100436D01*
X12024182Y-14919484D02*
X12147991Y-14919484D01*
X12147991Y-14919484D02*
X12081325Y-14995674D01*
X12081325Y-14995674D02*
X12109896Y-14995674D01*
X12109896Y-14995674D02*
X12128944Y-15005198D01*
X12128944Y-15005198D02*
X12138468Y-15014722D01*
X12138468Y-15014722D02*
X12147991Y-15033769D01*
X12147991Y-15033769D02*
X12147991Y-15081388D01*
X12147991Y-15081388D02*
X12138468Y-15100436D01*
X12138468Y-15100436D02*
X12128944Y-15109960D01*
X12128944Y-15109960D02*
X12109896Y-15119484D01*
X12109896Y-15119484D02*
X12052753Y-15119484D01*
X12052753Y-15119484D02*
X12033706Y-15109960D01*
X12033706Y-15109960D02*
X12024182Y-15100436D01*
X12224182Y-14938531D02*
X12233706Y-14929008D01*
X12233706Y-14929008D02*
X12252753Y-14919484D01*
X12252753Y-14919484D02*
X12300372Y-14919484D01*
X12300372Y-14919484D02*
X12319420Y-14929008D01*
X12319420Y-14929008D02*
X12328944Y-14938531D01*
X12328944Y-14938531D02*
X12338468Y-14957579D01*
X12338468Y-14957579D02*
X12338468Y-14976627D01*
X12338468Y-14976627D02*
X12328944Y-15005198D01*
X12328944Y-15005198D02*
X12214658Y-15119484D01*
X12214658Y-15119484D02*
X12338468Y-15119484D01*
X12576563Y-15119484D02*
X12576563Y-14919484D01*
X12662277Y-15119484D02*
X12662277Y-15014722D01*
X12662277Y-15014722D02*
X12652753Y-14995674D01*
X12652753Y-14995674D02*
X12633706Y-14986150D01*
X12633706Y-14986150D02*
X12605134Y-14986150D01*
X12605134Y-14986150D02*
X12586087Y-14995674D01*
X12586087Y-14995674D02*
X12576563Y-15005198D01*
X12786087Y-15119484D02*
X12767039Y-15109960D01*
X12767039Y-15109960D02*
X12757515Y-15100436D01*
X12757515Y-15100436D02*
X12747991Y-15081388D01*
X12747991Y-15081388D02*
X12747991Y-15024246D01*
X12747991Y-15024246D02*
X12757515Y-15005198D01*
X12757515Y-15005198D02*
X12767039Y-14995674D01*
X12767039Y-14995674D02*
X12786087Y-14986150D01*
X12786087Y-14986150D02*
X12814658Y-14986150D01*
X12814658Y-14986150D02*
X12833706Y-14995674D01*
X12833706Y-14995674D02*
X12843230Y-15005198D01*
X12843230Y-15005198D02*
X12852753Y-15024246D01*
X12852753Y-15024246D02*
X12852753Y-15081388D01*
X12852753Y-15081388D02*
X12843230Y-15100436D01*
X12843230Y-15100436D02*
X12833706Y-15109960D01*
X12833706Y-15109960D02*
X12814658Y-15119484D01*
X12814658Y-15119484D02*
X12786087Y-15119484D01*
X12967039Y-15119484D02*
X12947991Y-15109960D01*
X12947991Y-15109960D02*
X12938468Y-15090912D01*
X12938468Y-15090912D02*
X12938468Y-14919484D01*
X13119420Y-15109960D02*
X13100372Y-15119484D01*
X13100372Y-15119484D02*
X13062277Y-15119484D01*
X13062277Y-15119484D02*
X13043230Y-15109960D01*
X13043230Y-15109960D02*
X13033706Y-15090912D01*
X13033706Y-15090912D02*
X13033706Y-15014722D01*
X13033706Y-15014722D02*
X13043230Y-14995674D01*
X13043230Y-14995674D02*
X13062277Y-14986150D01*
X13062277Y-14986150D02*
X13100372Y-14986150D01*
X13100372Y-14986150D02*
X13119420Y-14995674D01*
X13119420Y-14995674D02*
X13128944Y-15014722D01*
X13128944Y-15014722D02*
X13128944Y-15033769D01*
X13128944Y-15033769D02*
X13033706Y-15052817D01*
X13205134Y-15109960D02*
X13224182Y-15119484D01*
X13224182Y-15119484D02*
X13262277Y-15119484D01*
X13262277Y-15119484D02*
X13281325Y-15109960D01*
X13281325Y-15109960D02*
X13290849Y-15090912D01*
X13290849Y-15090912D02*
X13290849Y-15081388D01*
X13290849Y-15081388D02*
X13281325Y-15062341D01*
X13281325Y-15062341D02*
X13262277Y-15052817D01*
X13262277Y-15052817D02*
X13233706Y-15052817D01*
X13233706Y-15052817D02*
X13214658Y-15043293D01*
X13214658Y-15043293D02*
X13205134Y-15024246D01*
X13205134Y-15024246D02*
X13205134Y-15014722D01*
X13205134Y-15014722D02*
X13214658Y-14995674D01*
X13214658Y-14995674D02*
X13233706Y-14986150D01*
X13233706Y-14986150D02*
X13262277Y-14986150D01*
X13262277Y-14986150D02*
X13281325Y-14995674D01*
X13357515Y-15195674D02*
X13367039Y-15186150D01*
X13367039Y-15186150D02*
X13386087Y-15157579D01*
X13386087Y-15157579D02*
X13395611Y-15138531D01*
X13395611Y-15138531D02*
X13405134Y-15109960D01*
X13405134Y-15109960D02*
X13414658Y-15062341D01*
X13414658Y-15062341D02*
X13414658Y-15024246D01*
X13414658Y-15024246D02*
X13405134Y-14976627D01*
X13405134Y-14976627D02*
X13395611Y-14948055D01*
X13395611Y-14948055D02*
X13386087Y-14929008D01*
X13386087Y-14929008D02*
X13367039Y-14900436D01*
X13367039Y-14900436D02*
X13357515Y-14890912D01*
M02*
