%TF.GenerationSoftware,KiCad,Pcbnew,8.0.4*%
%TF.CreationDate,2025-01-29T04:39:09+01:00*%
%TF.ProjectId,uconsole-expansion-card-template,75636f6e-736f-46c6-952d-657870616e73,0.1*%
%TF.SameCoordinates,Original*%
%TF.FileFunction,Copper,L1,Top*%
%TF.FilePolarity,Positive*%
%FSLAX46Y46*%
G04 Gerber Fmt 4.6, Leading zero omitted, Abs format (unit mm)*
G04 Created by KiCad (PCBNEW 8.0.4) date 2025-01-29 04:39:09*
%MOMM*%
%LPD*%
G01*
G04 APERTURE LIST*
%TA.AperFunction,ComponentPad*%
%ADD10R,1.000000X1.000000*%
%TD*%
%TA.AperFunction,ComponentPad*%
%ADD11O,1.000000X1.000000*%
%TD*%
%TA.AperFunction,ConnectorPad*%
%ADD12R,2.300000X0.600000*%
%TD*%
%TA.AperFunction,ViaPad*%
%ADD13C,0.800000*%
%TD*%
%TA.AperFunction,Conductor*%
%ADD14C,0.200000*%
%TD*%
%TA.AperFunction,Conductor*%
%ADD15C,0.500000*%
%TD*%
%TA.AperFunction,Conductor*%
%ADD16C,0.250000*%
%TD*%
%TA.AperFunction,Conductor*%
%ADD17C,0.300000*%
%TD*%
G04 APERTURE END LIST*
D10*
%TO.P,5V1,1,Pin_1*%
%TO.N,+5V*%
X90957600Y-126212800D03*
D11*
%TO.P,5V1,2,Pin_2*%
X92227600Y-126212800D03*
%TO.P,5V1,3,Pin_3*%
X93497600Y-126212800D03*
%TO.P,5V1,4,Pin_4*%
X94767600Y-126212800D03*
%TO.P,5V1,5,Pin_5*%
X96037600Y-126212800D03*
%TD*%
D10*
%TO.P,SPK_L1,1,Pin_1*%
%TO.N,/SPEAKER_LP*%
X108089200Y-125288000D03*
D11*
%TO.P,SPK_L1,2,Pin_2*%
%TO.N,/SPEAKER_LN*%
X108089200Y-124018000D03*
%TD*%
D10*
%TO.P,CAM1,1,Pin_1*%
%TO.N,/CAM1_DP3*%
X108077200Y-110566400D03*
D11*
%TO.P,CAM1,2,Pin_2*%
%TO.N,/CAM1_DN3*%
X108077200Y-109296400D03*
%TO.P,CAM1,3,Pin_3*%
%TO.N,/CAM1_DP2*%
X108077200Y-108026400D03*
%TO.P,CAM1,4,Pin_4*%
%TO.N,/CAM1_DN2*%
X108077200Y-106756400D03*
%TO.P,CAM1,5,Pin_5*%
%TO.N,/CAM1_CP*%
X108077200Y-105486400D03*
%TO.P,CAM1,6,Pin_6*%
%TO.N,/CAM1_CN*%
X108077200Y-104216400D03*
%TO.P,CAM1,7,Pin_7*%
%TO.N,/CAM1_DP1*%
X108077200Y-102946400D03*
%TO.P,CAM1,8,Pin_8*%
%TO.N,/CAM1_DN1*%
X108077200Y-101676400D03*
%TO.P,CAM1,9,Pin_9*%
%TO.N,/CAM1_DP0*%
X108077200Y-100406400D03*
%TO.P,CAM1,10,Pin_10*%
%TO.N,/CAM1_DN0*%
X108077200Y-99136400D03*
%TD*%
D10*
%TO.P,GROUND1,1,Pin_1*%
%TO.N,GND*%
X99827200Y-74207000D03*
D11*
%TO.P,GROUND1,2,Pin_2*%
X98557200Y-74207000D03*
%TO.P,GROUND1,3,Pin_3*%
X97287200Y-74207000D03*
%TO.P,GROUND1,4,Pin_4*%
X96017200Y-74207000D03*
%TO.P,GROUND1,5,Pin_5*%
X94747200Y-74207000D03*
%TO.P,GROUND1,6,Pin_6*%
X93477200Y-74207000D03*
%TO.P,GROUND1,7,Pin_7*%
X92207200Y-74207000D03*
%TO.P,GROUND1,8,Pin_8*%
X90937200Y-74207000D03*
%TD*%
D10*
%TO.P,9,1*%
%TO.N,N/C*%
X95402600Y-76977200D03*
D11*
%TO.P,9,2*%
X94132600Y-76977200D03*
%TO.P,9,3*%
X95402600Y-78247200D03*
%TO.P,9,4*%
X94132600Y-78247200D03*
%TO.P,9,5*%
X95402600Y-79517200D03*
%TO.P,9,6*%
X94132600Y-79517200D03*
%TO.P,9,7*%
X95402600Y-80787200D03*
%TO.P,9,8*%
X94132600Y-80787200D03*
%TO.P,9,9*%
X95402600Y-82057200D03*
%TO.P,9,10*%
X94132600Y-82057200D03*
%TO.P,9,11*%
X95402600Y-83327200D03*
%TO.P,9,12*%
X94132600Y-83327200D03*
%TO.P,9,13*%
X95402600Y-84597200D03*
%TO.P,9,14*%
X94132600Y-84597200D03*
%TO.P,9,15*%
X95402600Y-85867200D03*
%TO.P,9,16*%
X94132600Y-85867200D03*
%TO.P,9,17*%
X95402600Y-87137200D03*
%TO.P,9,18*%
X94132600Y-87137200D03*
%TO.P,9,19*%
X95402600Y-88407200D03*
%TO.P,9,20*%
X94132600Y-88407200D03*
%TO.P,9,21*%
X95402600Y-89677200D03*
%TO.P,9,22*%
X94132600Y-89677200D03*
%TO.P,9,23*%
X95402600Y-90947200D03*
%TO.P,9,24*%
X94132600Y-90947200D03*
%TO.P,9,25*%
X95402600Y-92217200D03*
%TO.P,9,26*%
X94132600Y-92217200D03*
%TO.P,9,27*%
X95402600Y-93487200D03*
%TO.P,9,28*%
X94132600Y-93487200D03*
%TO.P,9,29*%
X95402600Y-94757200D03*
%TO.P,9,30*%
X94132600Y-94757200D03*
%TO.P,9,31*%
X95402600Y-96027200D03*
%TO.P,9,32*%
X94132600Y-96027200D03*
%TO.P,9,33*%
X95402600Y-97297200D03*
%TO.P,9,34*%
X94132600Y-97297200D03*
%TO.P,9,35*%
X95402600Y-98567200D03*
%TO.P,9,36*%
X94132600Y-98567200D03*
%TO.P,9,37*%
X95402600Y-99837200D03*
%TO.P,9,38*%
X94132600Y-99837200D03*
%TO.P,9,39*%
X95402600Y-101107200D03*
%TO.P,9,40*%
X94132600Y-101107200D03*
%TO.P,9,41*%
X95402600Y-102377200D03*
%TO.P,9,42*%
X94132600Y-102377200D03*
%TO.P,9,43*%
X95402600Y-103647200D03*
%TO.P,9,44*%
X94132600Y-103647200D03*
%TO.P,9,45*%
X95402600Y-104917200D03*
%TO.P,9,46*%
X94132600Y-104917200D03*
%TO.P,9,47*%
X95402600Y-106187200D03*
%TO.P,9,48*%
X94132600Y-106187200D03*
%TO.P,9,49*%
X95402600Y-107457200D03*
%TO.P,9,50*%
X94132600Y-107457200D03*
%TO.P,9,51*%
X95402600Y-108727200D03*
%TO.P,9,52*%
X94132600Y-108727200D03*
%TO.P,9,53*%
X95402600Y-109997200D03*
%TO.P,9,54*%
X94132600Y-109997200D03*
%TO.P,9,55*%
X95402600Y-111267200D03*
%TO.P,9,56*%
X94132600Y-111267200D03*
%TO.P,9,57*%
X95402600Y-112537200D03*
%TO.P,9,58*%
X94132600Y-112537200D03*
%TO.P,9,59*%
X95402600Y-113807200D03*
%TO.P,9,60*%
X94132600Y-113807200D03*
%TO.P,9,61*%
X95402600Y-115077200D03*
%TO.P,9,62*%
X94132600Y-115077200D03*
%TO.P,9,63*%
X95402600Y-116347200D03*
%TO.P,9,64*%
X94132600Y-116347200D03*
%TO.P,9,65*%
X95402600Y-117617200D03*
%TO.P,9,66*%
X94132600Y-117617200D03*
%TO.P,9,67*%
X95402600Y-118887200D03*
%TO.P,9,68*%
X94132600Y-118887200D03*
%TO.P,9,69*%
X95402600Y-120157200D03*
%TO.P,9,70*%
X94132600Y-120157200D03*
%TO.P,9,71*%
X95402600Y-121427200D03*
%TO.P,9,72*%
X94132600Y-121427200D03*
%TO.P,9,73*%
X95402600Y-122697200D03*
%TO.P,9,74*%
X94132600Y-122697200D03*
%TO.P,9,75*%
X95402600Y-123967200D03*
%TO.P,9,76*%
X94132600Y-123967200D03*
%TD*%
D10*
%TO.P,13,1*%
%TO.N,N/C*%
X100482600Y-76962200D03*
D11*
%TO.P,13,2*%
X99212600Y-76962200D03*
%TO.P,13,3*%
X100482600Y-78232200D03*
%TO.P,13,4*%
X99212600Y-78232200D03*
%TO.P,13,5*%
X100482600Y-79502200D03*
%TO.P,13,6*%
X99212600Y-79502200D03*
%TO.P,13,7*%
X100482600Y-80772200D03*
%TO.P,13,8*%
X99212600Y-80772200D03*
%TO.P,13,9*%
X100482600Y-82042200D03*
%TO.P,13,10*%
X99212600Y-82042200D03*
%TO.P,13,11*%
X100482600Y-83312200D03*
%TO.P,13,12*%
X99212600Y-83312200D03*
%TO.P,13,13*%
X100482600Y-84582200D03*
%TO.P,13,14*%
X99212600Y-84582200D03*
%TO.P,13,15*%
X100482600Y-85852200D03*
%TO.P,13,16*%
X99212600Y-85852200D03*
%TO.P,13,17*%
X100482600Y-87122200D03*
%TO.P,13,18*%
X99212600Y-87122200D03*
%TO.P,13,19*%
X100482600Y-88392200D03*
%TO.P,13,20*%
X99212600Y-88392200D03*
%TO.P,13,21*%
X100482600Y-89662200D03*
%TO.P,13,22*%
X99212600Y-89662200D03*
%TO.P,13,23*%
X100482600Y-90932200D03*
%TO.P,13,24*%
X99212600Y-90932200D03*
%TO.P,13,25*%
X100482600Y-92202200D03*
%TO.P,13,26*%
X99212600Y-92202200D03*
%TO.P,13,27*%
X100482600Y-93472200D03*
%TO.P,13,28*%
X99212600Y-93472200D03*
%TO.P,13,29*%
X100482600Y-94742200D03*
%TO.P,13,30*%
X99212600Y-94742200D03*
%TO.P,13,31*%
X100482600Y-96012200D03*
%TO.P,13,32*%
X99212600Y-96012200D03*
%TO.P,13,33*%
X100482600Y-97282200D03*
%TO.P,13,34*%
X99212600Y-97282200D03*
%TO.P,13,35*%
X100482600Y-98552200D03*
%TO.P,13,36*%
X99212600Y-98552200D03*
%TO.P,13,37*%
X100482600Y-99822200D03*
%TO.P,13,38*%
X99212600Y-99822200D03*
%TO.P,13,39*%
X100482600Y-101092200D03*
%TO.P,13,40*%
X99212600Y-101092200D03*
%TO.P,13,41*%
X100482600Y-102362200D03*
%TO.P,13,42*%
X99212600Y-102362200D03*
%TO.P,13,43*%
X100482600Y-103632200D03*
%TO.P,13,44*%
X99212600Y-103632200D03*
%TO.P,13,45*%
X100482600Y-104902200D03*
%TO.P,13,46*%
X99212600Y-104902200D03*
%TO.P,13,47*%
X100482600Y-106172200D03*
%TO.P,13,48*%
X99212600Y-106172200D03*
%TO.P,13,49*%
X100482600Y-107442200D03*
%TO.P,13,50*%
X99212600Y-107442200D03*
%TO.P,13,51*%
X100482600Y-108712200D03*
%TO.P,13,52*%
X99212600Y-108712200D03*
%TO.P,13,53*%
X100482600Y-109982200D03*
%TO.P,13,54*%
X99212600Y-109982200D03*
%TO.P,13,55*%
X100482600Y-111252200D03*
%TO.P,13,56*%
X99212600Y-111252200D03*
%TO.P,13,57*%
X100482600Y-112522200D03*
%TO.P,13,58*%
X99212600Y-112522200D03*
%TO.P,13,59*%
X100482600Y-113792200D03*
%TO.P,13,60*%
X99212600Y-113792200D03*
%TO.P,13,61*%
X100482600Y-115062200D03*
%TO.P,13,62*%
X99212600Y-115062200D03*
%TO.P,13,63*%
X100482600Y-116332200D03*
%TO.P,13,64*%
X99212600Y-116332200D03*
%TO.P,13,65*%
X100482600Y-117602200D03*
%TO.P,13,66*%
X99212600Y-117602200D03*
%TO.P,13,67*%
X100482600Y-118872200D03*
%TO.P,13,68*%
X99212600Y-118872200D03*
%TO.P,13,69*%
X100482600Y-120142200D03*
%TO.P,13,70*%
X99212600Y-120142200D03*
%TO.P,13,71*%
X100482600Y-121412200D03*
%TO.P,13,72*%
X99212600Y-121412200D03*
%TO.P,13,73*%
X100482600Y-122682200D03*
%TO.P,13,74*%
X99212600Y-122682200D03*
%TO.P,13,75*%
X100482600Y-123952200D03*
%TO.P,13,76*%
X99212600Y-123952200D03*
%TD*%
D12*
%TO.P,U1,1,SPK_LP*%
%TO.N,/SPEAKER_LP*%
X116485000Y-111780000D03*
%TO.P,U1,3,SPK_LN*%
%TO.N,/SPEAKER_LN*%
X116485000Y-110980000D03*
%TO.P,U1,5,GND*%
%TO.N,GND*%
X116485000Y-110180000D03*
%TO.P,U1,7,USB3_DP*%
%TO.N,/USB3_D+*%
X116485000Y-109380000D03*
%TO.P,U1,9,USB3_DM*%
%TO.N,/USB3_D-*%
X116485000Y-108580000D03*
%TO.P,U1,11,GND*%
%TO.N,GND*%
X116485000Y-107780000D03*
%TO.P,U1,13,USB4_DP*%
%TO.N,/USB4_D+*%
X116485000Y-106980000D03*
%TO.P,U1,15,USB4_DM*%
%TO.N,/USB4_D-*%
X116485000Y-106180000D03*
%TO.P,U1,17,3V3*%
%TO.N,+3V3*%
X116485000Y-102180000D03*
%TO.P,U1,19,3V3*%
X116485000Y-101380000D03*
%TO.P,U1,21,GND*%
%TO.N,GND*%
X116485000Y-100580000D03*
%TO.P,U1,23,CAM1_DP3*%
%TO.N,/CAM1_DP3*%
X116485000Y-99780000D03*
%TO.P,U1,25,CAM1_DN3*%
%TO.N,/CAM1_DN3*%
X116485000Y-98980000D03*
%TO.P,U1,27,GND*%
%TO.N,GND*%
X116485000Y-98180000D03*
%TO.P,U1,29,CAM1_DP2*%
%TO.N,/CAM1_DP2*%
X116485000Y-97380000D03*
%TO.P,U1,31,CAM1_DN2*%
%TO.N,/CAM1_DN2*%
X116485000Y-96580000D03*
%TO.P,U1,33,GND*%
%TO.N,GND*%
X116485000Y-95780000D03*
%TO.P,U1,35,CAM1_CP*%
%TO.N,/CAM1_CP*%
X116485000Y-94980000D03*
%TO.P,U1,37,CAM1_CN*%
%TO.N,/CAM1_CN*%
X116485000Y-94180000D03*
%TO.P,U1,39,GND*%
%TO.N,GND*%
X116485000Y-93380000D03*
%TO.P,U1,41,CAM1_DP1*%
%TO.N,/CAM1_DP1*%
X116485000Y-92580000D03*
%TO.P,U1,43,CAM1_DN1*%
%TO.N,/CAM1_DN1*%
X116485000Y-91780000D03*
%TO.P,U1,45,GND*%
%TO.N,GND*%
X116485000Y-90980000D03*
%TO.P,U1,47,CAM1_DP0*%
%TO.N,/CAM1_DP0*%
X116485000Y-90180000D03*
%TO.P,U1,49,CAM1_DN0*%
%TO.N,/CAM1_DN0*%
X116485000Y-89380000D03*
%TO.P,U1,51,GND*%
%TO.N,GND*%
X116485000Y-88580000D03*
%TD*%
D10*
%TO.P,11,1*%
%TO.N,N/C*%
X97942600Y-76962200D03*
D11*
%TO.P,11,2*%
X96672600Y-76962200D03*
%TO.P,11,3*%
X97942600Y-78232200D03*
%TO.P,11,4*%
X96672600Y-78232200D03*
%TO.P,11,5*%
X97942600Y-79502200D03*
%TO.P,11,6*%
X96672600Y-79502200D03*
%TO.P,11,7*%
X97942600Y-80772200D03*
%TO.P,11,8*%
X96672600Y-80772200D03*
%TO.P,11,9*%
X97942600Y-82042200D03*
%TO.P,11,10*%
X96672600Y-82042200D03*
%TO.P,11,11*%
X97942600Y-83312200D03*
%TO.P,11,12*%
X96672600Y-83312200D03*
%TO.P,11,13*%
X97942600Y-84582200D03*
%TO.P,11,14*%
X96672600Y-84582200D03*
%TO.P,11,15*%
X97942600Y-85852200D03*
%TO.P,11,16*%
X96672600Y-85852200D03*
%TO.P,11,17*%
X97942600Y-87122200D03*
%TO.P,11,18*%
X96672600Y-87122200D03*
%TO.P,11,19*%
X97942600Y-88392200D03*
%TO.P,11,20*%
X96672600Y-88392200D03*
%TO.P,11,21*%
X97942600Y-89662200D03*
%TO.P,11,22*%
X96672600Y-89662200D03*
%TO.P,11,23*%
X97942600Y-90932200D03*
%TO.P,11,24*%
X96672600Y-90932200D03*
%TO.P,11,25*%
X97942600Y-92202200D03*
%TO.P,11,26*%
X96672600Y-92202200D03*
%TO.P,11,27*%
X97942600Y-93472200D03*
%TO.P,11,28*%
X96672600Y-93472200D03*
%TO.P,11,29*%
X97942600Y-94742200D03*
%TO.P,11,30*%
X96672600Y-94742200D03*
%TO.P,11,31*%
X97942600Y-96012200D03*
%TO.P,11,32*%
X96672600Y-96012200D03*
%TO.P,11,33*%
X97942600Y-97282200D03*
%TO.P,11,34*%
X96672600Y-97282200D03*
%TO.P,11,35*%
X97942600Y-98552200D03*
%TO.P,11,36*%
X96672600Y-98552200D03*
%TO.P,11,37*%
X97942600Y-99822200D03*
%TO.P,11,38*%
X96672600Y-99822200D03*
%TO.P,11,39*%
X97942600Y-101092200D03*
%TO.P,11,40*%
X96672600Y-101092200D03*
%TO.P,11,41*%
X97942600Y-102362200D03*
%TO.P,11,42*%
X96672600Y-102362200D03*
%TO.P,11,43*%
X97942600Y-103632200D03*
%TO.P,11,44*%
X96672600Y-103632200D03*
%TO.P,11,45*%
X97942600Y-104902200D03*
%TO.P,11,46*%
X96672600Y-104902200D03*
%TO.P,11,47*%
X97942600Y-106172200D03*
%TO.P,11,48*%
X96672600Y-106172200D03*
%TO.P,11,49*%
X97942600Y-107442200D03*
%TO.P,11,50*%
X96672600Y-107442200D03*
%TO.P,11,51*%
X97942600Y-108712200D03*
%TO.P,11,52*%
X96672600Y-108712200D03*
%TO.P,11,53*%
X97942600Y-109982200D03*
%TO.P,11,54*%
X96672600Y-109982200D03*
%TO.P,11,55*%
X97942600Y-111252200D03*
%TO.P,11,56*%
X96672600Y-111252200D03*
%TO.P,11,57*%
X97942600Y-112522200D03*
%TO.P,11,58*%
X96672600Y-112522200D03*
%TO.P,11,59*%
X97942600Y-113792200D03*
%TO.P,11,60*%
X96672600Y-113792200D03*
%TO.P,11,61*%
X97942600Y-115062200D03*
%TO.P,11,62*%
X96672600Y-115062200D03*
%TO.P,11,63*%
X97942600Y-116332200D03*
%TO.P,11,64*%
X96672600Y-116332200D03*
%TO.P,11,65*%
X97942600Y-117602200D03*
%TO.P,11,66*%
X96672600Y-117602200D03*
%TO.P,11,67*%
X97942600Y-118872200D03*
%TO.P,11,68*%
X96672600Y-118872200D03*
%TO.P,11,69*%
X97942600Y-120142200D03*
%TO.P,11,70*%
X96672600Y-120142200D03*
%TO.P,11,71*%
X97942600Y-121412200D03*
%TO.P,11,72*%
X96672600Y-121412200D03*
%TO.P,11,73*%
X97942600Y-122682200D03*
%TO.P,11,74*%
X96672600Y-122682200D03*
%TO.P,11,75*%
X97942600Y-123952200D03*
%TO.P,11,76*%
X96672600Y-123952200D03*
%TD*%
D10*
%TO.P,GPIO1,1,Pin_1*%
%TO.N,/GPIO28*%
X108077200Y-96774200D03*
D11*
%TO.P,GPIO1,2,Pin_2*%
%TO.N,/GPIO29*%
X108077200Y-95504200D03*
%TO.P,GPIO1,3,Pin_3*%
%TO.N,/GPIO30*%
X108077200Y-94234200D03*
%TO.P,GPIO1,4,Pin_4*%
%TO.N,/GPIO31*%
X108077200Y-92964200D03*
%TO.P,GPIO1,5,Pin_5*%
%TO.N,/GPIO32*%
X108077200Y-91694200D03*
%TO.P,GPIO1,6,Pin_6*%
%TO.N,/GPIO33*%
X108077200Y-90424200D03*
%TO.P,GPIO1,7,Pin_7*%
%TO.N,/GPIO34*%
X108077200Y-89154200D03*
%TO.P,GPIO1,8,Pin_8*%
%TO.N,/GPIO35*%
X108077200Y-87884200D03*
%TO.P,GPIO1,9,Pin_9*%
%TO.N,/GPIO36*%
X108077200Y-86614200D03*
%TO.P,GPIO1,10,Pin_10*%
%TO.N,/GPIO37*%
X108077200Y-85344200D03*
%TO.P,GPIO1,11,Pin_11*%
%TO.N,/GPIO38*%
X108077200Y-84074200D03*
%TO.P,GPIO1,12,Pin_12*%
%TO.N,/GPIO39*%
X108077200Y-82804200D03*
%TO.P,GPIO1,13,Pin_13*%
%TO.N,/GPIO40*%
X108077200Y-81534200D03*
%TO.P,GPIO1,14,Pin_14*%
%TO.N,/GPIO41*%
X108077200Y-80264200D03*
%TO.P,GPIO1,15,Pin_15*%
%TO.N,/GPIO42*%
X108077200Y-78994200D03*
%TO.P,GPIO1,16,Pin_16*%
%TO.N,/GPIO43*%
X108077200Y-77724200D03*
%TO.P,GPIO1,17,Pin_17*%
%TO.N,/GPIO44*%
X108077200Y-76454200D03*
%TO.P,GPIO1,18,Pin_18*%
%TO.N,/GPIO45*%
X108077200Y-75184200D03*
%TD*%
D10*
%TO.P,5,1*%
%TO.N,N/C*%
X90322600Y-76962200D03*
D11*
%TO.P,5,2*%
X89052600Y-76962200D03*
%TO.P,5,3*%
X90322600Y-78232200D03*
%TO.P,5,4*%
X89052600Y-78232200D03*
%TO.P,5,5*%
X90322600Y-79502200D03*
%TO.P,5,6*%
X89052600Y-79502200D03*
%TO.P,5,7*%
X90322600Y-80772200D03*
%TO.P,5,8*%
X89052600Y-80772200D03*
%TO.P,5,9*%
X90322600Y-82042200D03*
%TO.P,5,10*%
X89052600Y-82042200D03*
%TO.P,5,11*%
X90322600Y-83312200D03*
%TO.P,5,12*%
X89052600Y-83312200D03*
%TO.P,5,13*%
X90322600Y-84582200D03*
%TO.P,5,14*%
X89052600Y-84582200D03*
%TO.P,5,15*%
X90322600Y-85852200D03*
%TO.P,5,16*%
X89052600Y-85852200D03*
%TO.P,5,17*%
X90322600Y-87122200D03*
%TO.P,5,18*%
X89052600Y-87122200D03*
%TO.P,5,19*%
X90322600Y-88392200D03*
%TO.P,5,20*%
X89052600Y-88392200D03*
%TO.P,5,21*%
X90322600Y-89662200D03*
%TO.P,5,22*%
X89052600Y-89662200D03*
%TO.P,5,23*%
X90322600Y-90932200D03*
%TO.P,5,24*%
X89052600Y-90932200D03*
%TO.P,5,25*%
X90322600Y-92202200D03*
%TO.P,5,26*%
X89052600Y-92202200D03*
%TO.P,5,27*%
X90322600Y-93472200D03*
%TO.P,5,28*%
X89052600Y-93472200D03*
%TO.P,5,29*%
X90322600Y-94742200D03*
%TO.P,5,30*%
X89052600Y-94742200D03*
%TO.P,5,31*%
X90322600Y-96012200D03*
%TO.P,5,32*%
X89052600Y-96012200D03*
%TO.P,5,33*%
X90322600Y-97282200D03*
%TO.P,5,34*%
X89052600Y-97282200D03*
%TO.P,5,35*%
X90322600Y-98552200D03*
%TO.P,5,36*%
X89052600Y-98552200D03*
%TO.P,5,37*%
X90322600Y-99822200D03*
%TO.P,5,38*%
X89052600Y-99822200D03*
%TO.P,5,39*%
X90322600Y-101092200D03*
%TO.P,5,40*%
X89052600Y-101092200D03*
%TO.P,5,41*%
X90322600Y-102362200D03*
%TO.P,5,42*%
X89052600Y-102362200D03*
%TO.P,5,43*%
X90322600Y-103632200D03*
%TO.P,5,44*%
X89052600Y-103632200D03*
%TO.P,5,45*%
X90322600Y-104902200D03*
%TO.P,5,46*%
X89052600Y-104902200D03*
%TO.P,5,47*%
X90322600Y-106172200D03*
%TO.P,5,48*%
X89052600Y-106172200D03*
%TO.P,5,49*%
X90322600Y-107442200D03*
%TO.P,5,50*%
X89052600Y-107442200D03*
%TO.P,5,51*%
X90322600Y-108712200D03*
%TO.P,5,52*%
X89052600Y-108712200D03*
%TO.P,5,53*%
X90322600Y-109982200D03*
%TO.P,5,54*%
X89052600Y-109982200D03*
%TO.P,5,55*%
X90322600Y-111252200D03*
%TO.P,5,56*%
X89052600Y-111252200D03*
%TO.P,5,57*%
X90322600Y-112522200D03*
%TO.P,5,58*%
X89052600Y-112522200D03*
%TO.P,5,59*%
X90322600Y-113792200D03*
%TO.P,5,60*%
X89052600Y-113792200D03*
%TO.P,5,61*%
X90322600Y-115062200D03*
%TO.P,5,62*%
X89052600Y-115062200D03*
%TO.P,5,63*%
X90322600Y-116332200D03*
%TO.P,5,64*%
X89052600Y-116332200D03*
%TO.P,5,65*%
X90322600Y-117602200D03*
%TO.P,5,66*%
X89052600Y-117602200D03*
%TO.P,5,67*%
X90322600Y-118872200D03*
%TO.P,5,68*%
X89052600Y-118872200D03*
%TO.P,5,69*%
X90322600Y-120142200D03*
%TO.P,5,70*%
X89052600Y-120142200D03*
%TO.P,5,71*%
X90322600Y-121412200D03*
%TO.P,5,72*%
X89052600Y-121412200D03*
%TO.P,5,73*%
X90322600Y-122682200D03*
%TO.P,5,74*%
X89052600Y-122682200D03*
%TO.P,5,75*%
X90322600Y-123952200D03*
%TO.P,5,76*%
X89052600Y-123952200D03*
%TD*%
D10*
%TO.P,1,1*%
%TO.N,N/C*%
X85252600Y-76977200D03*
D11*
%TO.P,1,2*%
X83982600Y-76977200D03*
%TO.P,1,3*%
X85252600Y-78247200D03*
%TO.P,1,4*%
X83982600Y-78247200D03*
%TO.P,1,5*%
X85252600Y-79517200D03*
%TO.P,1,6*%
X83982600Y-79517200D03*
%TO.P,1,7*%
X85252600Y-80787200D03*
%TO.P,1,8*%
X83982600Y-80787200D03*
%TO.P,1,9*%
X85252600Y-82057200D03*
%TO.P,1,10*%
X83982600Y-82057200D03*
%TO.P,1,11*%
X85252600Y-83327200D03*
%TO.P,1,12*%
X83982600Y-83327200D03*
%TO.P,1,13*%
X85252600Y-84597200D03*
%TO.P,1,14*%
X83982600Y-84597200D03*
%TO.P,1,15*%
X85252600Y-85867200D03*
%TO.P,1,16*%
X83982600Y-85867200D03*
%TO.P,1,17*%
X85252600Y-87137200D03*
%TO.P,1,18*%
X83982600Y-87137200D03*
%TO.P,1,19*%
X85252600Y-88407200D03*
%TO.P,1,20*%
X83982600Y-88407200D03*
%TO.P,1,21*%
X85252600Y-89677200D03*
%TO.P,1,22*%
X83982600Y-89677200D03*
%TO.P,1,23*%
X85252600Y-90947200D03*
%TO.P,1,24*%
X83982600Y-90947200D03*
%TO.P,1,25*%
X85252600Y-92217200D03*
%TO.P,1,26*%
X83982600Y-92217200D03*
%TO.P,1,27*%
X85252600Y-93487200D03*
%TO.P,1,28*%
X83982600Y-93487200D03*
%TO.P,1,29*%
X85252600Y-94757200D03*
%TO.P,1,30*%
X83982600Y-94757200D03*
%TO.P,1,31*%
X85252600Y-96027200D03*
%TO.P,1,32*%
X83982600Y-96027200D03*
%TO.P,1,33*%
X85252600Y-97297200D03*
%TO.P,1,34*%
X83982600Y-97297200D03*
%TO.P,1,35*%
X85252600Y-98567200D03*
%TO.P,1,36*%
X83982600Y-98567200D03*
%TO.P,1,37*%
X85252600Y-99837200D03*
%TO.P,1,38*%
X83982600Y-99837200D03*
%TO.P,1,39*%
X85252600Y-101107200D03*
%TO.P,1,40*%
X83982600Y-101107200D03*
%TO.P,1,41*%
X85252600Y-102377200D03*
%TO.P,1,42*%
X83982600Y-102377200D03*
%TO.P,1,43*%
X85252600Y-103647200D03*
%TO.P,1,44*%
X83982600Y-103647200D03*
%TO.P,1,45*%
X85252600Y-104917200D03*
%TO.P,1,46*%
X83982600Y-104917200D03*
%TO.P,1,47*%
X85252600Y-106187200D03*
%TO.P,1,48*%
X83982600Y-106187200D03*
%TO.P,1,49*%
X85252600Y-107457200D03*
%TO.P,1,50*%
X83982600Y-107457200D03*
%TO.P,1,51*%
X85252600Y-108727200D03*
%TO.P,1,52*%
X83982600Y-108727200D03*
%TO.P,1,53*%
X85252600Y-109997200D03*
%TO.P,1,54*%
X83982600Y-109997200D03*
%TO.P,1,55*%
X85252600Y-111267200D03*
%TO.P,1,56*%
X83982600Y-111267200D03*
%TO.P,1,57*%
X85252600Y-112537200D03*
%TO.P,1,58*%
X83982600Y-112537200D03*
%TO.P,1,59*%
X85252600Y-113807200D03*
%TO.P,1,60*%
X83982600Y-113807200D03*
%TO.P,1,61*%
X85252600Y-115077200D03*
%TO.P,1,62*%
X83982600Y-115077200D03*
%TO.P,1,63*%
X85252600Y-116347200D03*
%TO.P,1,64*%
X83982600Y-116347200D03*
%TO.P,1,65*%
X85252600Y-117617200D03*
%TO.P,1,66*%
X83982600Y-117617200D03*
%TO.P,1,67*%
X85252600Y-118887200D03*
%TO.P,1,68*%
X83982600Y-118887200D03*
%TO.P,1,69*%
X85252600Y-120157200D03*
%TO.P,1,70*%
X83982600Y-120157200D03*
%TO.P,1,71*%
X85252600Y-121427200D03*
%TO.P,1,72*%
X83982600Y-121427200D03*
%TO.P,1,73*%
X85252600Y-122697200D03*
%TO.P,1,74*%
X83982600Y-122697200D03*
%TO.P,1,75*%
X85252600Y-123967200D03*
%TO.P,1,76*%
X83982600Y-123967200D03*
%TD*%
D10*
%TO.P,3,1*%
%TO.N,N/C*%
X87782600Y-76962200D03*
D11*
%TO.P,3,2*%
X86512600Y-76962200D03*
%TO.P,3,3*%
X87782600Y-78232200D03*
%TO.P,3,4*%
X86512600Y-78232200D03*
%TO.P,3,5*%
X87782600Y-79502200D03*
%TO.P,3,6*%
X86512600Y-79502200D03*
%TO.P,3,7*%
X87782600Y-80772200D03*
%TO.P,3,8*%
X86512600Y-80772200D03*
%TO.P,3,9*%
X87782600Y-82042200D03*
%TO.P,3,10*%
X86512600Y-82042200D03*
%TO.P,3,11*%
X87782600Y-83312200D03*
%TO.P,3,12*%
X86512600Y-83312200D03*
%TO.P,3,13*%
X87782600Y-84582200D03*
%TO.P,3,14*%
X86512600Y-84582200D03*
%TO.P,3,15*%
X87782600Y-85852200D03*
%TO.P,3,16*%
X86512600Y-85852200D03*
%TO.P,3,17*%
X87782600Y-87122200D03*
%TO.P,3,18*%
X86512600Y-87122200D03*
%TO.P,3,19*%
X87782600Y-88392200D03*
%TO.P,3,20*%
X86512600Y-88392200D03*
%TO.P,3,21*%
X87782600Y-89662200D03*
%TO.P,3,22*%
X86512600Y-89662200D03*
%TO.P,3,23*%
X87782600Y-90932200D03*
%TO.P,3,24*%
X86512600Y-90932200D03*
%TO.P,3,25*%
X87782600Y-92202200D03*
%TO.P,3,26*%
X86512600Y-92202200D03*
%TO.P,3,27*%
X87782600Y-93472200D03*
%TO.P,3,28*%
X86512600Y-93472200D03*
%TO.P,3,29*%
X87782600Y-94742200D03*
%TO.P,3,30*%
X86512600Y-94742200D03*
%TO.P,3,31*%
X87782600Y-96012200D03*
%TO.P,3,32*%
X86512600Y-96012200D03*
%TO.P,3,33*%
X87782600Y-97282200D03*
%TO.P,3,34*%
X86512600Y-97282200D03*
%TO.P,3,35*%
X87782600Y-98552200D03*
%TO.P,3,36*%
X86512600Y-98552200D03*
%TO.P,3,37*%
X87782600Y-99822200D03*
%TO.P,3,38*%
X86512600Y-99822200D03*
%TO.P,3,39*%
X87782600Y-101092200D03*
%TO.P,3,40*%
X86512600Y-101092200D03*
%TO.P,3,41*%
X87782600Y-102362200D03*
%TO.P,3,42*%
X86512600Y-102362200D03*
%TO.P,3,43*%
X87782600Y-103632200D03*
%TO.P,3,44*%
X86512600Y-103632200D03*
%TO.P,3,45*%
X87782600Y-104902200D03*
%TO.P,3,46*%
X86512600Y-104902200D03*
%TO.P,3,47*%
X87782600Y-106172200D03*
%TO.P,3,48*%
X86512600Y-106172200D03*
%TO.P,3,49*%
X87782600Y-107442200D03*
%TO.P,3,50*%
X86512600Y-107442200D03*
%TO.P,3,51*%
X87782600Y-108712200D03*
%TO.P,3,52*%
X86512600Y-108712200D03*
%TO.P,3,53*%
X87782600Y-109982200D03*
%TO.P,3,54*%
X86512600Y-109982200D03*
%TO.P,3,55*%
X87782600Y-111252200D03*
%TO.P,3,56*%
X86512600Y-111252200D03*
%TO.P,3,57*%
X87782600Y-112522200D03*
%TO.P,3,58*%
X86512600Y-112522200D03*
%TO.P,3,59*%
X87782600Y-113792200D03*
%TO.P,3,60*%
X86512600Y-113792200D03*
%TO.P,3,61*%
X87782600Y-115062200D03*
%TO.P,3,62*%
X86512600Y-115062200D03*
%TO.P,3,63*%
X87782600Y-116332200D03*
%TO.P,3,64*%
X86512600Y-116332200D03*
%TO.P,3,65*%
X87782600Y-117602200D03*
%TO.P,3,66*%
X86512600Y-117602200D03*
%TO.P,3,67*%
X87782600Y-118872200D03*
%TO.P,3,68*%
X86512600Y-118872200D03*
%TO.P,3,69*%
X87782600Y-120142200D03*
%TO.P,3,70*%
X86512600Y-120142200D03*
%TO.P,3,71*%
X87782600Y-121412200D03*
%TO.P,3,72*%
X86512600Y-121412200D03*
%TO.P,3,73*%
X87782600Y-122682200D03*
%TO.P,3,74*%
X86512600Y-122682200D03*
%TO.P,3,75*%
X87782600Y-123952200D03*
%TO.P,3,76*%
X86512600Y-123952200D03*
%TD*%
D10*
%TO.P,USB3,1,Pin_1*%
%TO.N,/USB3_D+*%
X108089200Y-121630400D03*
D11*
%TO.P,USB3,2,Pin_2*%
%TO.N,/USB3_D-*%
X108089200Y-120360400D03*
%TD*%
D10*
%TO.P,SPK_R1,1,Pin_1*%
%TO.N,/SPEAKER_RP*%
X108089200Y-114289800D03*
D11*
%TO.P,SPK_R1,2,Pin_2*%
%TO.N,/SPEAKER_RN*%
X108089200Y-113019800D03*
%TD*%
D10*
%TO.P,7,1*%
%TO.N,N/C*%
X92862600Y-76977200D03*
D11*
%TO.P,7,2*%
X91592600Y-76977200D03*
%TO.P,7,3*%
X92862600Y-78247200D03*
%TO.P,7,4*%
X91592600Y-78247200D03*
%TO.P,7,5*%
X92862600Y-79517200D03*
%TO.P,7,6*%
X91592600Y-79517200D03*
%TO.P,7,7*%
X92862600Y-80787200D03*
%TO.P,7,8*%
X91592600Y-80787200D03*
%TO.P,7,9*%
X92862600Y-82057200D03*
%TO.P,7,10*%
X91592600Y-82057200D03*
%TO.P,7,11*%
X92862600Y-83327200D03*
%TO.P,7,12*%
X91592600Y-83327200D03*
%TO.P,7,13*%
X92862600Y-84597200D03*
%TO.P,7,14*%
X91592600Y-84597200D03*
%TO.P,7,15*%
X92862600Y-85867200D03*
%TO.P,7,16*%
X91592600Y-85867200D03*
%TO.P,7,17*%
X92862600Y-87137200D03*
%TO.P,7,18*%
X91592600Y-87137200D03*
%TO.P,7,19*%
X92862600Y-88407200D03*
%TO.P,7,20*%
X91592600Y-88407200D03*
%TO.P,7,21*%
X92862600Y-89677200D03*
%TO.P,7,22*%
X91592600Y-89677200D03*
%TO.P,7,23*%
X92862600Y-90947200D03*
%TO.P,7,24*%
X91592600Y-90947200D03*
%TO.P,7,25*%
X92862600Y-92217200D03*
%TO.P,7,26*%
X91592600Y-92217200D03*
%TO.P,7,27*%
X92862600Y-93487200D03*
%TO.P,7,28*%
X91592600Y-93487200D03*
%TO.P,7,29*%
X92862600Y-94757200D03*
%TO.P,7,30*%
X91592600Y-94757200D03*
%TO.P,7,31*%
X92862600Y-96027200D03*
%TO.P,7,32*%
X91592600Y-96027200D03*
%TO.P,7,33*%
X92862600Y-97297200D03*
%TO.P,7,34*%
X91592600Y-97297200D03*
%TO.P,7,35*%
X92862600Y-98567200D03*
%TO.P,7,36*%
X91592600Y-98567200D03*
%TO.P,7,37*%
X92862600Y-99837200D03*
%TO.P,7,38*%
X91592600Y-99837200D03*
%TO.P,7,39*%
X92862600Y-101107200D03*
%TO.P,7,40*%
X91592600Y-101107200D03*
%TO.P,7,41*%
X92862600Y-102377200D03*
%TO.P,7,42*%
X91592600Y-102377200D03*
%TO.P,7,43*%
X92862600Y-103647200D03*
%TO.P,7,44*%
X91592600Y-103647200D03*
%TO.P,7,45*%
X92862600Y-104917200D03*
%TO.P,7,46*%
X91592600Y-104917200D03*
%TO.P,7,47*%
X92862600Y-106187200D03*
%TO.P,7,48*%
X91592600Y-106187200D03*
%TO.P,7,49*%
X92862600Y-107457200D03*
%TO.P,7,50*%
X91592600Y-107457200D03*
%TO.P,7,51*%
X92862600Y-108727200D03*
%TO.P,7,52*%
X91592600Y-108727200D03*
%TO.P,7,53*%
X92862600Y-109997200D03*
%TO.P,7,54*%
X91592600Y-109997200D03*
%TO.P,7,55*%
X92862600Y-111267200D03*
%TO.P,7,56*%
X91592600Y-111267200D03*
%TO.P,7,57*%
X92862600Y-112537200D03*
%TO.P,7,58*%
X91592600Y-112537200D03*
%TO.P,7,59*%
X92862600Y-113807200D03*
%TO.P,7,60*%
X91592600Y-113807200D03*
%TO.P,7,61*%
X92862600Y-115077200D03*
%TO.P,7,62*%
X91592600Y-115077200D03*
%TO.P,7,63*%
X92862600Y-116347200D03*
%TO.P,7,64*%
X91592600Y-116347200D03*
%TO.P,7,65*%
X92862600Y-117617200D03*
%TO.P,7,66*%
X91592600Y-117617200D03*
%TO.P,7,67*%
X92862600Y-118887200D03*
%TO.P,7,68*%
X91592600Y-118887200D03*
%TO.P,7,69*%
X92862600Y-120157200D03*
%TO.P,7,70*%
X91592600Y-120157200D03*
%TO.P,7,71*%
X92862600Y-121427200D03*
%TO.P,7,72*%
X91592600Y-121427200D03*
%TO.P,7,73*%
X92862600Y-122697200D03*
%TO.P,7,74*%
X91592600Y-122697200D03*
%TO.P,7,75*%
X92862600Y-123967200D03*
%TO.P,7,76*%
X91592600Y-123967200D03*
%TD*%
D10*
%TO.P,3V1,1,Pin_1*%
%TO.N,+3V3*%
X98577600Y-126212800D03*
D11*
%TO.P,3V1,2,Pin_2*%
X99847600Y-126212800D03*
%TD*%
D10*
%TO.P,USB4,1,Pin_1*%
%TO.N,/USB4_D+*%
X108089200Y-117947400D03*
D11*
%TO.P,USB4,2,Pin_2*%
%TO.N,/USB4_D-*%
X108089200Y-116677400D03*
%TD*%
D13*
%TO.N,/SPEAKER_LP*%
X109390828Y-126302400D03*
X105994402Y-135243400D03*
X106949190Y-125288000D03*
%TO.N,/SPEAKER_LN*%
X105995809Y-132900000D03*
X109296400Y-124028400D03*
X106908772Y-124003000D03*
%TO.N,/SPEAKER_RP*%
X109271000Y-114300200D03*
X101737043Y-70623800D03*
X106985000Y-114274800D03*
%TO.N,/SPEAKER_RN*%
X107530000Y-66984653D03*
X103690084Y-70623800D03*
X107010400Y-113004800D03*
X109296400Y-113004800D03*
%TO.N,/CAM1_DP3*%
X106959602Y-110566400D03*
X110409347Y-108859947D03*
%TO.N,/CAM1_DN3*%
X106934200Y-109296400D03*
X109182425Y-109030025D03*
%TO.N,/CAM1_DN2*%
X109236992Y-106493792D03*
X106959600Y-106756400D03*
%TO.N,/CAM1_CP*%
X109297379Y-105495615D03*
X106934204Y-105486400D03*
%TO.N,/CAM1_CN*%
X109093200Y-103759200D03*
X106934200Y-104216400D03*
%TO.N,/CAM1_DP1*%
X109219613Y-102642837D03*
X106934200Y-102921000D03*
%TO.N,/CAM1_DN1*%
X109275800Y-100787480D03*
X106908800Y-101676400D03*
%TO.N,/CAM1_DP0*%
X106934200Y-100406400D03*
X105740400Y-100406400D03*
%TO.N,/CAM1_DN0*%
X104289597Y-99111003D03*
X106934200Y-99136400D03*
X105910118Y-99201518D03*
%TO.N,+5V*%
X96089178Y-127534378D03*
X99238000Y-136068000D03*
X97161605Y-127635467D03*
X92507000Y-127584400D03*
X100508000Y-136068000D03*
X93548402Y-127508206D03*
X101778000Y-136068000D03*
X105130800Y-127838400D03*
X94771068Y-127486268D03*
X104254501Y-135877501D03*
%TO.N,GND*%
X95478800Y-72999800D03*
X101723637Y-115768081D03*
X112495652Y-99346362D03*
X100508000Y-75285800D03*
X103276603Y-75311206D03*
X94183400Y-73025200D03*
X110363212Y-97057915D03*
X111371365Y-104578365D03*
X106197602Y-74549200D03*
X97891800Y-73279200D03*
X110685873Y-99937564D03*
X92888000Y-72974398D03*
X110326000Y-123317200D03*
X96723400Y-72974398D03*
X112154600Y-107793849D03*
X105740400Y-73482396D03*
X99257278Y-75288145D03*
X102644669Y-114328669D03*
X105740400Y-74523800D03*
X105740398Y-72441000D03*
X91643400Y-72999800D03*
X104292600Y-100381002D03*
X105207000Y-119278600D03*
%TO.N,+3V3*%
X99492000Y-127660600D03*
X112306409Y-106237008D03*
X100990600Y-127609800D03*
X114325600Y-106096000D03*
%TO.N,/GPIO28*%
X106197602Y-96139200D03*
X106959600Y-96774200D03*
%TO.N,/GPIO29*%
X107000378Y-95414200D03*
X106212402Y-94869200D03*
%TO.N,/GPIO30*%
X107011134Y-94144200D03*
X106223002Y-93599200D03*
%TO.N,/GPIO31*%
X106223000Y-92329200D03*
X107042739Y-92874200D03*
%TO.N,/GPIO32*%
X106223004Y-91059200D03*
X107050290Y-91604200D03*
%TO.N,/GPIO33*%
X106223002Y-89789200D03*
X107014087Y-90334200D03*
%TO.N,/GPIO34*%
X107004793Y-89064200D03*
X106223004Y-88519200D03*
%TO.N,/GPIO35*%
X106223004Y-87249200D03*
X107010131Y-87794200D03*
%TO.N,/GPIO36*%
X107002753Y-86524200D03*
X106212402Y-85979200D03*
%TO.N,/GPIO37*%
X107061866Y-85254200D03*
X106273804Y-84709200D03*
%TO.N,/GPIO38*%
X107105854Y-83984200D03*
X106273802Y-83439200D03*
%TO.N,/GPIO39*%
X107010400Y-82714200D03*
X106248402Y-82169200D03*
%TO.N,/GPIO40*%
X107011986Y-81444200D03*
X106223002Y-80899200D03*
%TO.N,/GPIO41*%
X106961619Y-80174200D03*
X106172202Y-79629200D03*
%TO.N,/GPIO42*%
X106197602Y-78384600D03*
X107002995Y-78904200D03*
%TO.N,/GPIO43*%
X106197602Y-77114600D03*
X106986114Y-77659600D03*
%TO.N,/GPIO44*%
X106197602Y-75844600D03*
X106996411Y-76389600D03*
%TO.N,/GPIO45*%
X106959600Y-75184200D03*
X106963308Y-73906005D03*
%TO.N,/USB3_D-*%
X109136325Y-119963762D03*
X106959600Y-120345400D03*
%TO.N,/USB3_D+*%
X106959600Y-121640800D03*
X109220200Y-121666200D03*
%TO.N,/USB4_D-*%
X109169396Y-116544423D03*
X107015053Y-116556147D03*
%TO.N,/USB4_D+*%
X109207500Y-117945100D03*
X106883400Y-117957800D03*
%TO.N,/CAM1_DP2*%
X106934198Y-108026400D03*
X109373250Y-107849250D03*
%TD*%
D14*
%TO.N,/SPEAKER_LP*%
X109390828Y-126302400D02*
X109103600Y-126302400D01*
X113664200Y-112574000D02*
X113664200Y-122029028D01*
X108089200Y-126302400D02*
X106949190Y-126302400D01*
X113664200Y-122029028D02*
X109390828Y-126302400D01*
X114458200Y-111780000D02*
X113664200Y-112574000D01*
X106949190Y-126302400D02*
X106949190Y-125288000D01*
X108102600Y-126289000D02*
X108089200Y-126302400D01*
X106781800Y-125298400D02*
X106792200Y-125288000D01*
X108089200Y-126302400D02*
X109390828Y-126302400D01*
X108089200Y-126302400D02*
X108089200Y-133148602D01*
X108089200Y-133148602D02*
X105994402Y-135243400D01*
X116485000Y-111780000D02*
X114458200Y-111780000D01*
X109103600Y-126302400D02*
X108089200Y-125288000D01*
X106792200Y-125288000D02*
X106949190Y-125288000D01*
%TO.N,/SPEAKER_LN*%
X109296400Y-124028400D02*
X109336000Y-124068000D01*
X108099600Y-124028400D02*
X108089200Y-124018000D01*
X109256800Y-124068000D02*
X109296400Y-124028400D01*
X114665440Y-110980000D02*
X116485000Y-110980000D01*
X105842000Y-132746191D02*
X105842000Y-125069772D01*
X113264200Y-121863350D02*
X113264200Y-112381240D01*
X113264200Y-112381240D02*
X114665440Y-110980000D01*
X109336000Y-124068000D02*
X111059550Y-124068000D01*
X105995809Y-132900000D02*
X105842000Y-132746191D01*
X111059550Y-124068000D02*
X113264200Y-121863350D01*
X106908772Y-124003000D02*
X106973772Y-124068000D01*
X106973772Y-124068000D02*
X109256800Y-124068000D01*
X109296400Y-124028400D02*
X108099600Y-124028400D01*
X105842000Y-125069772D02*
X106908772Y-124003000D01*
%TO.N,/SPEAKER_RP*%
X108099600Y-114300200D02*
X108089200Y-114289800D01*
X107000000Y-114289800D02*
X106985000Y-114274800D01*
X109271000Y-114300200D02*
X108099600Y-114300200D01*
X108089200Y-114289800D02*
X107000000Y-114289800D01*
%TO.N,/SPEAKER_RN*%
X107025400Y-113019800D02*
X107010400Y-113004800D01*
X105907250Y-70623800D02*
X103690084Y-70623800D01*
X108089200Y-113019800D02*
X107025400Y-113019800D01*
X109296400Y-113004800D02*
X108104200Y-113004800D01*
X107772400Y-66878400D02*
X107772400Y-68758650D01*
X107772400Y-68758650D02*
X105907250Y-70623800D01*
X108104200Y-113004800D02*
X108089200Y-113019800D01*
%TO.N,/CAM1_DP3*%
X106756400Y-110566400D02*
X106959602Y-110566400D01*
X112522200Y-102665324D02*
X112522200Y-104983167D01*
X108077200Y-110566400D02*
X108702894Y-110566400D01*
X108077200Y-110617200D02*
X108501800Y-110192600D01*
X108702894Y-110566400D02*
X110409347Y-108859947D01*
X110954600Y-108314694D02*
X110409347Y-108859947D01*
X108077200Y-110566400D02*
X106959602Y-110566400D01*
X115407524Y-99780000D02*
X112522200Y-102665324D01*
X116485000Y-99780000D02*
X115407524Y-99780000D01*
X110954600Y-106550767D02*
X110954600Y-108314694D01*
X112522200Y-104983167D02*
X110954600Y-106550767D01*
%TO.N,/CAM1_DN3*%
X108865250Y-109347200D02*
X109182425Y-109030025D01*
X116485000Y-98980000D02*
X115135000Y-98980000D01*
X115135000Y-98980000D02*
X114614400Y-99500600D01*
X106731000Y-109296400D02*
X106934200Y-109296400D01*
X108077200Y-109296400D02*
X106934200Y-109296400D01*
X112121200Y-102500640D02*
X112121200Y-104818480D01*
X108077200Y-109347200D02*
X108865250Y-109347200D01*
X110522088Y-106417592D02*
X110522088Y-107690362D01*
X114614400Y-99500600D02*
X114614400Y-100007440D01*
X110522088Y-107690362D02*
X109182425Y-109030025D01*
X112121200Y-104818480D02*
X110522088Y-106417592D01*
X114614400Y-100007440D02*
X112121200Y-102500640D01*
%TO.N,/CAM1_DN2*%
X113208000Y-99623964D02*
X110871200Y-101960764D01*
X110271365Y-105526785D02*
X109304358Y-106493792D01*
X116485000Y-96580000D02*
X115366613Y-96580000D01*
X115366613Y-96580000D02*
X113208000Y-98738613D01*
X110271365Y-104086521D02*
X110271365Y-105526785D01*
X109304358Y-106493792D02*
X109236992Y-106493792D01*
X110871200Y-101960764D02*
X110871200Y-103486686D01*
X108077200Y-106807200D02*
X108923584Y-106807200D01*
X108077200Y-106756400D02*
X106959600Y-106756400D01*
X108923584Y-106807200D02*
X109236992Y-106493792D01*
X113208000Y-98738613D02*
X113208000Y-99623964D01*
X110871200Y-103486686D02*
X110271365Y-104086521D01*
%TO.N,/CAM1_CP*%
X113035600Y-97708930D02*
X113035600Y-97079400D01*
X110464800Y-101765882D02*
X111785600Y-100445082D01*
X112819200Y-97925329D02*
X112870000Y-97874530D01*
X111785600Y-98958929D02*
X112819200Y-97925329D01*
X113035600Y-97079400D02*
X115135000Y-94980000D01*
X109869400Y-103922802D02*
X110464800Y-103327402D01*
X110464800Y-103327402D02*
X110464800Y-101765882D01*
X108077200Y-105486400D02*
X106934204Y-105486400D01*
X115135000Y-94980000D02*
X116485000Y-94980000D01*
X109297379Y-105495615D02*
X109869400Y-104923594D01*
X109255794Y-105537200D02*
X108077200Y-105537200D01*
X109297379Y-105495615D02*
X109255794Y-105537200D01*
X109869400Y-104923594D02*
X109869400Y-103922802D01*
X111785600Y-100445082D02*
X111785600Y-98958929D01*
X112870000Y-97874530D02*
X113035600Y-97708930D01*
%TO.N,/CAM1_CN*%
X112635600Y-97543244D02*
X111385600Y-98793244D01*
X111385600Y-100279396D02*
X110058400Y-101606596D01*
X113101240Y-94180000D02*
X112635600Y-94645640D01*
X108077200Y-104216400D02*
X106934200Y-104216400D01*
X116485000Y-94180000D02*
X113101240Y-94180000D01*
X109093200Y-103759200D02*
X108534400Y-103759200D01*
X110058400Y-102794000D02*
X109093200Y-103759200D01*
X108534400Y-103759200D02*
X108077200Y-104216400D01*
X110058400Y-101606596D02*
X110058400Y-102794000D01*
X112635600Y-94645640D02*
X112635600Y-97543244D01*
X111385600Y-98793244D02*
X111385600Y-100279396D01*
%TO.N,/CAM1_DP1*%
X110535600Y-98441163D02*
X110535600Y-99097886D01*
X109975800Y-101123510D02*
X109219613Y-101879697D01*
X113490600Y-92580000D02*
X111785600Y-94285000D01*
X108865250Y-102997200D02*
X109219613Y-102642837D01*
X110535600Y-99097886D02*
X109975800Y-99657686D01*
X111785600Y-94285000D02*
X111785600Y-97191163D01*
X109975800Y-99657686D02*
X109975800Y-101123510D01*
X106959600Y-102946400D02*
X106934200Y-102921000D01*
X116485000Y-92580000D02*
X113490600Y-92580000D01*
X111785600Y-97191163D02*
X110535600Y-98441163D01*
X108077200Y-102997200D02*
X108865250Y-102997200D01*
X106934200Y-102921000D02*
X106908800Y-102946400D01*
X108077200Y-102946400D02*
X106959600Y-102946400D01*
X109219613Y-101879697D02*
X109219613Y-102642837D01*
%TO.N,/CAM1_DN1*%
X111385600Y-97025477D02*
X111385600Y-94100800D01*
X111385600Y-94100800D02*
X113706400Y-91780000D01*
X108077200Y-101676400D02*
X106908800Y-101676400D01*
X109275800Y-99135277D02*
X111385600Y-97025477D01*
X113706400Y-91780000D02*
X116485000Y-91780000D01*
X109275800Y-100787480D02*
X108336080Y-101727200D01*
X108336080Y-101727200D02*
X108077200Y-101727200D01*
X109275800Y-100787480D02*
X109275800Y-99135277D01*
%TO.N,/CAM1_DP0*%
X116485000Y-90180000D02*
X114087200Y-90180000D01*
X105740400Y-100406400D02*
X108077200Y-100406400D01*
X106052086Y-98069600D02*
X105145000Y-98976686D01*
X114087200Y-90180000D02*
X109347200Y-94920000D01*
X105145000Y-99811000D02*
X105740400Y-100406400D01*
X109347200Y-97815600D02*
X109093200Y-98069600D01*
X109347200Y-94920000D02*
X109347200Y-97815600D01*
X105145000Y-98976686D02*
X105145000Y-99811000D01*
X109093200Y-98069600D02*
X106052086Y-98069600D01*
%TO.N,/CAM1_DN0*%
X108636000Y-97663200D02*
X105737400Y-97663200D01*
X105737400Y-97663200D02*
X104289597Y-99111003D01*
X105740400Y-99238000D02*
X105776882Y-99201518D01*
X107715200Y-98469600D02*
X106642036Y-98469600D01*
X108077200Y-98831600D02*
X108077200Y-99136400D01*
X108877200Y-97422000D02*
X108636000Y-97663200D01*
X106642036Y-98469600D02*
X105910118Y-99201518D01*
X105776882Y-99201518D02*
X105910118Y-99201518D01*
X107772400Y-98526800D02*
X107715200Y-98469600D01*
X108877200Y-94565571D02*
X108877200Y-97422000D01*
X116485000Y-89380000D02*
X114062771Y-89380000D01*
X106934200Y-99136400D02*
X105975236Y-99136400D01*
X107772400Y-98481996D02*
X107772400Y-98526800D01*
X105975236Y-99136400D02*
X105910118Y-99201518D01*
X114062771Y-89380000D02*
X108877200Y-94565571D01*
X107772400Y-98526800D02*
X108077200Y-98831600D01*
D15*
%TO.N,+5V*%
X100508000Y-134518600D02*
X93548402Y-127559002D01*
X92227600Y-126212800D02*
X93523006Y-127508206D01*
X93497600Y-126212800D02*
X94771068Y-127486268D01*
X92329200Y-127584400D02*
X92507000Y-127584400D01*
X100508000Y-136068000D02*
X100508000Y-134518600D01*
X105130800Y-127838400D02*
X101981200Y-130988000D01*
X94767600Y-126212800D02*
X96089178Y-127534378D01*
X101778000Y-136068000D02*
X101778000Y-134493200D01*
X100514138Y-130988000D02*
X97161605Y-127635467D01*
X93523006Y-127508206D02*
X93548402Y-127508206D01*
X101778000Y-134493200D02*
X94771068Y-127486268D01*
X90957600Y-126212800D02*
X92329200Y-127584400D01*
X96037600Y-126212800D02*
X96037600Y-126511462D01*
X99238000Y-134315400D02*
X92507000Y-127584400D01*
X96089178Y-127585178D02*
X96089178Y-127534378D01*
X104254501Y-135877501D02*
X104254501Y-135750501D01*
X93548402Y-127559002D02*
X93548402Y-127508206D01*
X104254501Y-135750501D02*
X96089178Y-127585178D01*
X96037600Y-126511462D02*
X97161605Y-127635467D01*
X101981200Y-130988000D02*
X100514138Y-130988000D01*
X99238000Y-136068000D02*
X99238000Y-134315400D01*
D16*
%TO.N,GND*%
X99238000Y-75307423D02*
X99238000Y-76137200D01*
X101181600Y-76137200D02*
X101723637Y-76679237D01*
X112210600Y-94469600D02*
X112210600Y-97367203D01*
X114864400Y-110180000D02*
X112839200Y-112205200D01*
X108890000Y-71348800D02*
X93294400Y-71348800D01*
X110363212Y-94513588D02*
X113896800Y-90980000D01*
X113300200Y-93380000D02*
X112210600Y-94469600D01*
X116485000Y-100580000D02*
X115232848Y-100580000D01*
X99257278Y-75288145D02*
X99238000Y-75307423D01*
X116485000Y-107780000D02*
X115185000Y-107780000D01*
X97028198Y-72669600D02*
X96723400Y-72974398D01*
X101723637Y-76679237D02*
X101723637Y-115768081D01*
X101723637Y-115768081D02*
X101752600Y-115797044D01*
X94747200Y-73731400D02*
X95478800Y-72999800D01*
X96017200Y-74207000D02*
X96017200Y-73680598D01*
X93477200Y-74207000D02*
X93477200Y-73731400D01*
X108890000Y-88580000D02*
X108890000Y-71348800D01*
X112495652Y-99346362D02*
X112495652Y-98849919D01*
X113460600Y-97404400D02*
X115085000Y-95780000D01*
X98557200Y-74588067D02*
X99257278Y-75288145D01*
X90937200Y-73706000D02*
X91643400Y-72999800D01*
X110388600Y-123317200D02*
X110326000Y-123317200D01*
X100634997Y-72669600D02*
X97028198Y-72669600D01*
X104978398Y-71679000D02*
X94183398Y-71679000D01*
X116485000Y-93380000D02*
X113300200Y-93380000D01*
X112839205Y-117075544D02*
X112839205Y-120803995D01*
X94183398Y-71679000D02*
X92888000Y-72974398D01*
X103276603Y-75311206D02*
X100634997Y-72669600D01*
X97891800Y-73602400D02*
X97891800Y-73279200D01*
X93294400Y-71348800D02*
X91643400Y-72999800D01*
X108899305Y-119278600D02*
X105207000Y-119278600D01*
X110363212Y-97057915D02*
X110363212Y-94513588D01*
X102717800Y-114255538D02*
X102644669Y-114328669D01*
X105740398Y-72441000D02*
X104978398Y-71679000D01*
X115232848Y-100580000D02*
X113031409Y-102781439D01*
X114933340Y-98180000D02*
X116485000Y-98180000D01*
X113031409Y-102781439D02*
X113031409Y-106917040D01*
X105740400Y-74523800D02*
X103556000Y-72339400D01*
X99827200Y-74207000D02*
X99827200Y-74605000D01*
X112839200Y-112205200D02*
X112839200Y-117075539D01*
X94747200Y-74207000D02*
X94747200Y-73731400D01*
X112839200Y-117075539D02*
X112839205Y-117075544D01*
X112839205Y-120803995D02*
X110326000Y-123317200D01*
X113896800Y-90980000D02*
X116485000Y-90980000D01*
X114046200Y-99974599D02*
X114046200Y-99067140D01*
X115185000Y-107780000D02*
X111582400Y-111382600D01*
X92207200Y-74207000D02*
X92207200Y-73655198D01*
X116485000Y-88580000D02*
X108890000Y-88580000D01*
X111696200Y-102324599D02*
X114046200Y-99974599D01*
X110960600Y-98617203D02*
X110960600Y-99662837D01*
X105740400Y-73482396D02*
X104267204Y-72009200D01*
X100508000Y-75285800D02*
X101727200Y-75285800D01*
X104267204Y-72009200D02*
X95199400Y-72009200D01*
X97287200Y-74207000D02*
X97891800Y-73602400D01*
X113031409Y-106917040D02*
X112154600Y-107793849D01*
X115085000Y-95780000D02*
X116485000Y-95780000D01*
X92207200Y-73655198D02*
X92888000Y-72974398D01*
X111696200Y-103846927D02*
X111696200Y-102324599D01*
X111371365Y-104578365D02*
X111371365Y-104171762D01*
X112495652Y-98849919D02*
X113460600Y-97884971D01*
X112495652Y-99346362D02*
X112495652Y-99346360D01*
X111371365Y-104171762D02*
X111696200Y-103846927D01*
X99827200Y-74605000D02*
X100508000Y-75285800D01*
X110591800Y-123114000D02*
X110388600Y-123317200D01*
X103556000Y-72339400D02*
X96139200Y-72339400D01*
X96017200Y-73680598D02*
X96723400Y-72974398D01*
X111582400Y-111382600D02*
X111582400Y-116595505D01*
X99238000Y-76137200D02*
X101181600Y-76137200D01*
X113460600Y-97884971D02*
X113460600Y-97404400D01*
X112495652Y-99346360D02*
X112471400Y-99322108D01*
X93477200Y-73731400D02*
X94183400Y-73025200D01*
X110960600Y-99662837D02*
X110685873Y-99937564D01*
X114046200Y-99067140D02*
X114933340Y-98180000D01*
X112210600Y-97367203D02*
X110960600Y-98617203D01*
X102717800Y-76276400D02*
X102717800Y-114255538D01*
X111582400Y-116595505D02*
X108899305Y-119278600D01*
X90937200Y-74207000D02*
X90937200Y-73706000D01*
X111371365Y-104578365D02*
X111275443Y-104578365D01*
X101727200Y-75285800D02*
X102717800Y-76276400D01*
X96139200Y-72339400D02*
X95478800Y-72999800D01*
X116485000Y-110180000D02*
X114864400Y-110180000D01*
X98557200Y-74207000D02*
X98557200Y-74588067D01*
X95199400Y-72009200D02*
X94183400Y-73025200D01*
D17*
%TO.N,+3V3*%
X99492000Y-127660600D02*
X99492000Y-127127200D01*
X108985461Y-111430000D02*
X111404600Y-109010861D01*
X106629400Y-112166600D02*
X108846319Y-112166600D01*
X111404600Y-107138817D02*
X112306409Y-106237008D01*
X100990600Y-127609800D02*
X100990600Y-127355800D01*
X100990600Y-127355800D02*
X99847600Y-126212800D01*
X113506409Y-103028991D02*
X115155400Y-101380000D01*
X97485400Y-125095200D02*
X100990600Y-125095200D01*
X116485000Y-102180000D02*
X115035000Y-102180000D01*
X102578800Y-123507000D02*
X102578800Y-115455200D01*
X115035000Y-102180000D02*
X113980497Y-103234503D01*
X115155400Y-101380000D02*
X116485000Y-101380000D01*
X102578800Y-115455200D02*
X106604000Y-111430000D01*
X100990600Y-127609800D02*
X103124200Y-125476200D01*
X108846319Y-112166600D02*
X113506409Y-107506510D01*
X113980497Y-105750897D02*
X114325600Y-106096000D01*
X103124200Y-125476200D02*
X103124200Y-115671800D01*
X111404600Y-109010861D02*
X111404600Y-107138817D01*
X98247400Y-127660600D02*
X97485400Y-126898600D01*
X100990600Y-125095200D02*
X102578800Y-123507000D01*
X97485400Y-126898600D02*
X97485400Y-125095200D01*
X106604000Y-111430000D02*
X108985461Y-111430000D01*
X113980497Y-103234503D02*
X113980497Y-105750897D01*
X103124200Y-115671800D02*
X106629400Y-112166600D01*
X99492000Y-127127200D02*
X98577600Y-126212800D01*
X113506409Y-107506510D02*
X113506409Y-103028991D01*
X99492000Y-127660600D02*
X98247400Y-127660600D01*
D16*
%TO.N,/GPIO28*%
X108356600Y-96799600D02*
X108382000Y-96825000D01*
X107467600Y-96139200D02*
X107467600Y-96164600D01*
X107467600Y-96164600D02*
X108077200Y-96774200D01*
X106197602Y-96139200D02*
X107467600Y-96139200D01*
X108051800Y-96774200D02*
X107112000Y-96774200D01*
%TO.N,/GPIO29*%
X107442200Y-94869200D02*
X108077200Y-95504200D01*
X108051800Y-95504200D02*
X107126800Y-95504200D01*
X108356600Y-95529600D02*
X108382000Y-95504200D01*
X106212402Y-94869200D02*
X107442200Y-94869200D01*
%TO.N,/GPIO30*%
X106223002Y-93599200D02*
X107493000Y-93599200D01*
X108331200Y-94259600D02*
X107112000Y-94259600D01*
X107493000Y-93599200D02*
X107518400Y-93573800D01*
X107112000Y-94259600D02*
X107137400Y-94234200D01*
X108077200Y-94132600D02*
X108077200Y-94234200D01*
X107213600Y-94259600D02*
X107112000Y-94259600D01*
X108051800Y-94234200D02*
X107137400Y-94234200D01*
X107518400Y-93573800D02*
X108077200Y-94132600D01*
%TO.N,/GPIO31*%
X107137398Y-92964202D02*
X107137398Y-92964200D01*
X108280400Y-92989600D02*
X107112000Y-92989600D01*
X106223000Y-92329200D02*
X107442200Y-92329200D01*
X108051800Y-92964200D02*
X107137398Y-92964200D01*
X107213600Y-92989600D02*
X107112000Y-92989600D01*
X107112000Y-92989600D02*
X107137398Y-92964202D01*
X107442200Y-92329200D02*
X108077200Y-92964200D01*
%TO.N,/GPIO32*%
X108051800Y-91694200D02*
X107137402Y-91694200D01*
X107442200Y-91059200D02*
X108077200Y-91694200D01*
X108255000Y-91770400D02*
X108178800Y-91694200D01*
X106223004Y-91059200D02*
X107442200Y-91059200D01*
X108178800Y-91694200D02*
X107137402Y-91694200D01*
X107188200Y-91694200D02*
X107137402Y-91694200D01*
X107213600Y-91719600D02*
X107188200Y-91694200D01*
%TO.N,/GPIO33*%
X106223002Y-89789200D02*
X107442200Y-89789200D01*
X107213600Y-90449600D02*
X107188200Y-90449600D01*
X108051800Y-90424200D02*
X107137400Y-90424200D01*
X107162800Y-90424200D02*
X107137400Y-90424200D01*
X108229600Y-90449600D02*
X107188200Y-90449600D01*
X107442200Y-89789200D02*
X108077200Y-90424200D01*
X107188200Y-90449600D02*
X107162800Y-90424200D01*
%TO.N,/GPIO34*%
X106223004Y-88519200D02*
X107442200Y-88519200D01*
X107162802Y-89179600D02*
X107137402Y-89154200D01*
X108051800Y-89154200D02*
X107137402Y-89154200D01*
X108229600Y-89179600D02*
X107162802Y-89179600D01*
X107442200Y-88519200D02*
X108077200Y-89154200D01*
%TO.N,/GPIO35*%
X106985002Y-87909600D02*
X107010402Y-87884200D01*
X106223004Y-87249200D02*
X107442200Y-87249200D01*
X107442200Y-87249200D02*
X108077200Y-87884200D01*
X107213600Y-87909600D02*
X106985002Y-87909600D01*
X108051800Y-87884200D02*
X107137402Y-87884200D01*
X108229600Y-87909600D02*
X106985002Y-87909600D01*
X107010402Y-87884200D02*
X107137402Y-87884200D01*
%TO.N,/GPIO36*%
X107442200Y-85979200D02*
X108077200Y-86614200D01*
X107010402Y-86614200D02*
X106985002Y-86639600D01*
X107126800Y-86614200D02*
X107010402Y-86614200D01*
X108229600Y-86639600D02*
X106985002Y-86639600D01*
X107213600Y-86639600D02*
X106985002Y-86639600D01*
X106212402Y-85979200D02*
X107442200Y-85979200D01*
X108051800Y-86614200D02*
X107126800Y-86614200D01*
%TO.N,/GPIO37*%
X108229600Y-85369600D02*
X108255000Y-85395000D01*
X107213600Y-85369600D02*
X108229600Y-85369600D01*
X108051800Y-85344200D02*
X107188202Y-85344200D01*
X107442200Y-84709200D02*
X108077200Y-85344200D01*
X106273804Y-84709200D02*
X107442200Y-84709200D01*
%TO.N,/GPIO38*%
X106273802Y-83439200D02*
X107442200Y-83439200D01*
X107442200Y-83439200D02*
X108077200Y-84074200D01*
X107213600Y-84099600D02*
X108255000Y-84099600D01*
X108051800Y-84074200D02*
X107188200Y-84074200D01*
%TO.N,/GPIO39*%
X106248402Y-82169200D02*
X107442200Y-82169200D01*
X108229600Y-82829600D02*
X108255000Y-82804200D01*
X107442200Y-82169200D02*
X108077200Y-82804200D01*
X107213600Y-82829600D02*
X108229600Y-82829600D01*
X108051800Y-82804200D02*
X107162800Y-82804200D01*
%TO.N,/GPIO40*%
X107442200Y-80899200D02*
X108077200Y-81534200D01*
X106223002Y-80899200D02*
X107442200Y-80899200D01*
X108229600Y-81559600D02*
X108255000Y-81534200D01*
X108051800Y-81534200D02*
X107137400Y-81534200D01*
X107213600Y-81559600D02*
X108229600Y-81559600D01*
%TO.N,/GPIO41*%
X107239000Y-80289600D02*
X108255000Y-80289600D01*
X108051800Y-80264200D02*
X107086600Y-80264200D01*
X107086600Y-80264200D02*
X107239000Y-80289600D01*
X107213600Y-80289600D02*
X107188200Y-80289600D01*
X107442200Y-79629200D02*
X108077200Y-80264200D01*
X106172202Y-79629200D02*
X107442200Y-79629200D01*
X107188200Y-80289600D02*
X107086600Y-80264200D01*
%TO.N,/GPIO42*%
X107137400Y-78994200D02*
X107112000Y-79019600D01*
X106197602Y-78384600D02*
X107467600Y-78384600D01*
X108051800Y-78994200D02*
X107137400Y-78994200D01*
X107112000Y-79019600D02*
X108255000Y-79019600D01*
X107467600Y-78384600D02*
X108077200Y-78994200D01*
%TO.N,/GPIO43*%
X107112000Y-77749600D02*
X108229600Y-77749600D01*
X107467600Y-77114600D02*
X108077200Y-77724200D01*
X106197602Y-77114600D02*
X107467600Y-77114600D01*
X108051800Y-77724200D02*
X107137400Y-77724200D01*
X107137400Y-77724200D02*
X107112000Y-77749600D01*
%TO.N,/GPIO44*%
X107112000Y-76479600D02*
X108255000Y-76479600D01*
X107416800Y-75895400D02*
X107518400Y-75895400D01*
X108051800Y-76454200D02*
X107137400Y-76454200D01*
X107137400Y-76454200D02*
X107112000Y-76479600D01*
X106262202Y-75909200D02*
X107403000Y-75909200D01*
X106197602Y-75844600D02*
X106262202Y-75909200D01*
X107403000Y-75909200D02*
X107416800Y-75895400D01*
X107518400Y-75895400D02*
X108077200Y-76454200D01*
%TO.N,/GPIO45*%
X106963308Y-73906005D02*
X106963308Y-74070308D01*
X106963308Y-74070308D02*
X108077200Y-75184200D01*
X108051800Y-75184200D02*
X107112000Y-75184200D01*
X107239000Y-75209600D02*
X108229600Y-75209600D01*
X107188200Y-75209600D02*
X107112000Y-75184200D01*
X107213600Y-75209600D02*
X107188200Y-75209600D01*
X107112000Y-75184200D02*
X107239000Y-75209600D01*
D14*
%TO.N,/USB3_D-*%
X112014200Y-111684000D02*
X112014200Y-117085887D01*
X107068000Y-119703600D02*
X108807000Y-119703600D01*
X106944600Y-120360400D02*
X106771400Y-120360400D01*
X106959600Y-120345400D02*
X106944600Y-120360400D01*
X116485000Y-108580000D02*
X115118200Y-108580000D01*
X108807000Y-119703600D02*
X109067162Y-119963762D01*
X108485838Y-119963762D02*
X108089200Y-120360400D01*
X109136325Y-119963762D02*
X108485838Y-119963762D01*
X112014200Y-117085887D02*
X109136325Y-119963762D01*
X109067162Y-119963762D02*
X109136325Y-119963762D01*
X115118200Y-108580000D02*
X112014200Y-111684000D01*
X106959600Y-120345400D02*
X106959600Y-119812000D01*
X106771400Y-120360400D02*
X106756400Y-120345400D01*
X106959600Y-119812000D02*
X107068000Y-119703600D01*
%TO.N,/USB3_D+*%
X109220200Y-122072600D02*
X108737600Y-122555200D01*
X116485000Y-109380000D02*
X115054800Y-109380000D01*
X112395200Y-118491200D02*
X109220200Y-121666200D01*
X112414200Y-117251573D02*
X112395200Y-117270572D01*
X106669800Y-121630400D02*
X106654800Y-121615400D01*
X109220200Y-121666200D02*
X108125000Y-121666200D01*
X112414200Y-112020600D02*
X112414200Y-117251573D01*
X108737600Y-122555200D02*
X107543800Y-122555200D01*
X106959600Y-121640800D02*
X106949200Y-121630400D01*
X107543800Y-122555200D02*
X106959600Y-121971000D01*
X108125000Y-121666200D02*
X108089200Y-121630400D01*
X106949200Y-121630400D02*
X106669800Y-121630400D01*
X112395200Y-117270572D02*
X112395200Y-118491200D01*
X109220200Y-121666200D02*
X109220200Y-122072600D01*
X115054800Y-109380000D02*
X112414200Y-112020600D01*
X106959600Y-121971000D02*
X106959600Y-121640800D01*
%TO.N,/USB4_D-*%
X106858000Y-116713200D02*
X107015053Y-116556147D01*
X110744200Y-114969619D02*
X109169396Y-116544423D01*
X116485000Y-106180000D02*
X115135000Y-106180000D01*
X109169396Y-116544423D02*
X108423773Y-115798800D01*
X115135000Y-106180000D02*
X115035000Y-106280000D01*
X109169396Y-116544423D02*
X108222177Y-116544423D01*
X107772400Y-115798800D02*
X107015053Y-116556147D01*
X110744200Y-110905115D02*
X110744200Y-114969619D01*
X115035000Y-106614315D02*
X110744200Y-110905115D01*
X115035000Y-106280000D02*
X115035000Y-106614315D01*
X108222177Y-116544423D02*
X108089200Y-116677400D01*
X108423773Y-115798800D02*
X107772400Y-115798800D01*
X106781800Y-116713200D02*
X106858000Y-116713200D01*
%TO.N,/USB4_D+*%
X109207500Y-117945100D02*
X108091500Y-117945100D01*
X115235000Y-106980000D02*
X111150600Y-111064400D01*
X106873000Y-117947400D02*
X106716000Y-117947400D01*
X108661400Y-118846800D02*
X107442200Y-118846800D01*
X106883400Y-117957800D02*
X106873000Y-117947400D01*
X111150600Y-116002000D02*
X109207500Y-117945100D01*
X106716000Y-117947400D02*
X106705600Y-117957800D01*
X109207500Y-117945100D02*
X109207500Y-118300700D01*
X116485000Y-106980000D02*
X115235000Y-106980000D01*
X106883400Y-118364200D02*
X107366000Y-118846800D01*
X109207500Y-118300700D02*
X108661400Y-118846800D01*
X107366000Y-118846800D02*
X107391400Y-118846800D01*
X106883400Y-117957800D02*
X106883400Y-118364200D01*
X108091500Y-117945100D02*
X108089200Y-117947400D01*
X111150600Y-111064400D02*
X111150600Y-116002000D01*
%TO.N,/CAM1_DP2*%
X110671365Y-105702630D02*
X110671365Y-104270721D01*
X110671365Y-104270721D02*
X111271200Y-103670886D01*
X108235282Y-107919118D02*
X108077200Y-108077200D01*
X113614400Y-98897898D02*
X115132298Y-97380000D01*
X110122088Y-107100412D02*
X110122088Y-106251907D01*
X108077200Y-108026400D02*
X106934198Y-108026400D01*
X113614400Y-99783250D02*
X113614400Y-98897898D01*
X111271200Y-103670886D02*
X111271200Y-102126450D01*
X110122088Y-106251907D02*
X110671365Y-105702630D01*
X109303382Y-107919118D02*
X108235282Y-107919118D01*
X109373250Y-107849250D02*
X109303382Y-107919118D01*
X111271200Y-102126450D02*
X113614400Y-99783250D01*
X109373250Y-107849250D02*
X110122088Y-107100412D01*
X115132298Y-97380000D02*
X116485000Y-97380000D01*
%TD*%
M02*
