%TF.GenerationSoftware,KiCad,Pcbnew,8.0.4*%
%TF.CreationDate,2025-01-31T00:42:38+01:00*%
%TF.ProjectId,uconsole-expansion-card-template,75636f6e-736f-46c6-952d-657870616e73,0.1*%
%TF.SameCoordinates,Original*%
%TF.FileFunction,Profile,NP*%
%FSLAX46Y46*%
G04 Gerber Fmt 4.6, Leading zero omitted, Abs format (unit mm)*
G04 Created by KiCad (PCBNEW 8.0.4) date 2025-01-31 00:42:38*
%MOMM*%
%LPD*%
G01*
G04 APERTURE LIST*
%TA.AperFunction,Profile*%
%ADD10C,0.200000*%
%TD*%
G04 APERTURE END LIST*
D10*
X116885000Y-87150000D02*
G75*
G02*
X117885000Y-88150000I0J-1000000D01*
G01*
X83615000Y-61500000D02*
X112615000Y-61500000D01*
X83615000Y-138500000D02*
G75*
G02*
X82115000Y-137000000I0J1500000D01*
G01*
X117885000Y-111850000D02*
G75*
G02*
X116885000Y-112850000I-1000000J0D01*
G01*
X116885000Y-112850000D02*
X114615000Y-112850000D01*
X114115000Y-63000000D02*
X114115000Y-86650000D01*
X114115000Y-113350000D02*
X114115000Y-137000000D01*
X117885000Y-88150000D02*
X117885000Y-102580000D01*
X112615000Y-138500000D02*
X83615000Y-138500000D01*
X82115000Y-137000000D02*
X82115000Y-63000000D01*
X117885000Y-102580000D02*
G75*
G02*
X117385000Y-103080000I-500000J0D01*
G01*
X114885000Y-104580000D02*
G75*
G02*
X114885000Y-103080000I0J750000D01*
G01*
X114115000Y-113350000D02*
G75*
G02*
X114615000Y-112850000I500000J0D01*
G01*
X114885000Y-103080000D02*
X117385000Y-103080000D01*
X117385000Y-104580000D02*
G75*
G02*
X117885000Y-105080000I0J-500000D01*
G01*
X114115000Y-137000000D02*
G75*
G02*
X112615000Y-138500000I-1500000J0D01*
G01*
X117885000Y-105080000D02*
X117885000Y-111850000D01*
X114615000Y-87150000D02*
G75*
G02*
X114115000Y-86650000I0J500000D01*
G01*
X114615000Y-87150000D02*
X116885000Y-87150000D01*
X117385000Y-104580000D02*
X114885000Y-104580000D01*
X112615000Y-61500000D02*
G75*
G02*
X114115000Y-63000000I0J-1500000D01*
G01*
X82115000Y-63000000D02*
G75*
G02*
X83615000Y-61500000I1500000J0D01*
G01*
M02*
