%TF.GenerationSoftware,KiCad,Pcbnew,8.0.4*%
%TF.CreationDate,2025-03-13T20:47:44+01:00*%
%TF.ProjectId,uconsole-expansion-card-template_1.27,75636f6e-736f-46c6-952d-657870616e73,0.1*%
%TF.SameCoordinates,Original*%
%TF.FileFunction,Soldermask,Bot*%
%TF.FilePolarity,Negative*%
%FSLAX46Y46*%
G04 Gerber Fmt 4.6, Leading zero omitted, Abs format (unit mm)*
G04 Created by KiCad (PCBNEW 8.0.4) date 2025-03-13 20:47:44*
%MOMM*%
%LPD*%
G01*
G04 APERTURE LIST*
G04 Aperture macros list*
%AMRoundRect*
0 Rectangle with rounded corners*
0 $1 Rounding radius*
0 $2 $3 $4 $5 $6 $7 $8 $9 X,Y pos of 4 corners*
0 Add a 4 corners polygon primitive as box body*
4,1,4,$2,$3,$4,$5,$6,$7,$8,$9,$2,$3,0*
0 Add four circle primitives for the rounded corners*
1,1,$1+$1,$2,$3*
1,1,$1+$1,$4,$5*
1,1,$1+$1,$6,$7*
1,1,$1+$1,$8,$9*
0 Add four rect primitives between the rounded corners*
20,1,$1+$1,$2,$3,$4,$5,0*
20,1,$1+$1,$4,$5,$6,$7,0*
20,1,$1+$1,$6,$7,$8,$9,0*
20,1,$1+$1,$8,$9,$2,$3,0*%
G04 Aperture macros list end*
%ADD10C,0.100000*%
%ADD11R,1.000000X1.000000*%
%ADD12C,5.000000*%
%ADD13R,2.300000X0.600000*%
%ADD14RoundRect,0.250000X0.250000X0.750000X-0.250000X0.750000X-0.250000X-0.750000X0.250000X-0.750000X0*%
G04 APERTURE END LIST*
%TO.C,U1*%
D10*
X115380400Y-86284000D02*
X118530000Y-86284000D01*
X118530000Y-113462000D01*
X115380400Y-113462000D01*
X115380400Y-86284000D01*
G36*
X115380400Y-86284000D02*
G01*
X118530000Y-86284000D01*
X118530000Y-113462000D01*
X115380400Y-113462000D01*
X115380400Y-86284000D01*
G37*
%TD*%
D11*
%TO.C,*%
X111017000Y-73711000D03*
%TD*%
%TO.C,*%
X86357000Y-81931000D03*
%TD*%
%TO.C,*%
X93190000Y-90150000D03*
%TD*%
%TO.C,*%
X94590000Y-118940000D03*
%TD*%
%TO.C,*%
X93190000Y-114810000D03*
%TD*%
%TO.C,*%
X95930000Y-97000000D03*
%TD*%
%TO.C,*%
X94590000Y-116200000D03*
%TD*%
%TO.C,*%
X104167000Y-80561000D03*
%TD*%
%TO.C,*%
X90480000Y-121680000D03*
%TD*%
%TO.C,*%
X90450000Y-114810000D03*
%TD*%
%TO.C,*%
X83630000Y-117570000D03*
%TD*%
%TO.C,*%
X84970000Y-97000000D03*
%TD*%
%TO.C,*%
X94590000Y-117570000D03*
%TD*%
%TO.C,*%
X98700000Y-125790000D03*
%TD*%
%TO.C,*%
X94560000Y-99740000D03*
%TD*%
%TO.C,*%
X109647000Y-73711000D03*
%TD*%
%TO.C,*%
X91850000Y-120310000D03*
%TD*%
%TO.C,*%
X84987000Y-75081000D03*
%TD*%
%TO.C,*%
X84970000Y-113440000D03*
%TD*%
%TO.C,*%
X101440000Y-117570000D03*
%TD*%
%TO.C,*%
X105537000Y-73711000D03*
%TD*%
%TO.C,*%
X83600000Y-97000000D03*
%TD*%
%TO.C,*%
X87727000Y-73711000D03*
%TD*%
%TO.C,*%
X84970000Y-114810000D03*
%TD*%
%TO.C,*%
X89080000Y-99740000D03*
%TD*%
%TO.C,*%
X93190000Y-88780000D03*
%TD*%
%TO.C,*%
X100070000Y-118940000D03*
%TD*%
%TO.C,*%
X90467000Y-75081000D03*
%TD*%
%TO.C,*%
X104180000Y-124420000D03*
%TD*%
%TO.C,*%
X108277000Y-76451000D03*
%TD*%
%TO.C,*%
X100057000Y-73711000D03*
%TD*%
%TO.C,*%
X94560000Y-101110000D03*
%TD*%
%TO.C,*%
X83617000Y-75081000D03*
%TD*%
%TO.C,*%
X94560000Y-90150000D03*
%TD*%
%TO.C,*%
X89110000Y-121680000D03*
%TD*%
%TO.C,*%
X91820000Y-95630000D03*
%TD*%
%TO.C,*%
X105537000Y-79191000D03*
%TD*%
%TO.C,*%
X91820000Y-102480000D03*
%TD*%
%TO.C,*%
X87710000Y-97000000D03*
%TD*%
%TO.C,*%
X105550000Y-118940000D03*
%TD*%
%TO.C,*%
X90450000Y-84670000D03*
%TD*%
%TO.C,*%
X102810000Y-120310000D03*
%TD*%
%TO.C,*%
X86370000Y-120310000D03*
%TD*%
%TO.C,*%
X104167000Y-81931000D03*
%TD*%
%TO.C,*%
X83600000Y-98370000D03*
%TD*%
%TO.C,*%
X112387000Y-80561000D03*
%TD*%
%TO.C,*%
X91837000Y-76451000D03*
%TD*%
%TO.C,*%
X84970000Y-102480000D03*
%TD*%
%TO.C,*%
X87740000Y-125790000D03*
%TD*%
%TO.C,*%
X94560000Y-105220000D03*
%TD*%
%TO.C,*%
X86340000Y-95630000D03*
%TD*%
%TO.C,*%
X93207000Y-79191000D03*
%TD*%
%TO.C,*%
X91837000Y-75081000D03*
%TD*%
%TO.C,*%
X105537000Y-77821000D03*
%TD*%
%TO.C,*%
X112387000Y-73711000D03*
%TD*%
%TO.C,*%
X83600000Y-109330000D03*
%TD*%
D12*
%TO.C,H1*%
X89128800Y-67488000D03*
%TD*%
D11*
%TO.C,*%
X86340000Y-83300000D03*
%TD*%
%TO.C,*%
X86370000Y-117570000D03*
%TD*%
%TO.C,*%
X90467000Y-81931000D03*
%TD*%
%TO.C,*%
X83600000Y-106590000D03*
%TD*%
%TO.C,*%
X91820000Y-107960000D03*
%TD*%
%TO.C,*%
X91820000Y-114810000D03*
%TD*%
%TO.C,*%
X93190000Y-110700000D03*
%TD*%
%TO.C,*%
X89097000Y-73711000D03*
%TD*%
%TO.C,*%
X93190000Y-107960000D03*
%TD*%
%TO.C,*%
X91820000Y-113440000D03*
%TD*%
%TO.C,*%
X104180000Y-121680000D03*
%TD*%
%TO.C,*%
X101440000Y-120310000D03*
%TD*%
%TO.C,*%
X112400000Y-125790000D03*
%TD*%
%TO.C,*%
X89080000Y-84670000D03*
%TD*%
%TO.C,*%
X86340000Y-110700000D03*
%TD*%
%TO.C,*%
X83600000Y-95630000D03*
%TD*%
%TO.C,*%
X89097000Y-75081000D03*
%TD*%
%TO.C,*%
X87710000Y-103850000D03*
%TD*%
%TO.C,*%
X108290000Y-117570000D03*
%TD*%
%TO.C,*%
X104167000Y-79191000D03*
%TD*%
%TO.C,*%
X95930000Y-103850000D03*
%TD*%
%TO.C,*%
X109660000Y-118940000D03*
%TD*%
%TO.C,*%
X94560000Y-112070000D03*
%TD*%
%TO.C,*%
X83630000Y-120310000D03*
%TD*%
%TO.C,*%
X95960000Y-124420000D03*
%TD*%
%TO.C,*%
X109647000Y-81931000D03*
%TD*%
%TO.C,*%
X111030000Y-116200000D03*
%TD*%
%TO.C,*%
X84987000Y-73711000D03*
%TD*%
%TO.C,*%
X90480000Y-120310000D03*
%TD*%
%TO.C,*%
X91820000Y-103850000D03*
%TD*%
%TO.C,*%
X106907000Y-79191000D03*
%TD*%
%TO.C,*%
X87727000Y-75081000D03*
%TD*%
%TO.C,*%
X95930000Y-99740000D03*
%TD*%
%TO.C,*%
X93190000Y-106590000D03*
%TD*%
%TO.C,*%
X89110000Y-117570000D03*
%TD*%
%TO.C,*%
X84970000Y-94260000D03*
%TD*%
%TO.C,*%
X87710000Y-87410000D03*
%TD*%
%TO.C,*%
X89097000Y-77821000D03*
%TD*%
%TO.C,*%
X94577000Y-80561000D03*
%TD*%
%TO.C,*%
X87710000Y-107960000D03*
%TD*%
%TO.C,*%
X83600000Y-107960000D03*
%TD*%
%TO.C,*%
X89110000Y-123050000D03*
%TD*%
%TO.C,*%
X95930000Y-109330000D03*
%TD*%
%TO.C,*%
X93190000Y-102480000D03*
%TD*%
%TO.C,*%
X94560000Y-113440000D03*
%TD*%
%TO.C,*%
X90450000Y-106590000D03*
%TD*%
%TO.C,*%
X98700000Y-117570000D03*
%TD*%
%TO.C,*%
X95930000Y-95630000D03*
%TD*%
%TO.C,*%
X90450000Y-83300000D03*
%TD*%
%TO.C,*%
X112400000Y-124420000D03*
%TD*%
%TO.C,*%
X83630000Y-121680000D03*
%TD*%
%TO.C,*%
X87710000Y-99740000D03*
%TD*%
%TO.C,*%
X84970000Y-92890000D03*
%TD*%
%TO.C,*%
X86340000Y-87410000D03*
%TD*%
%TO.C,*%
X101427000Y-79191000D03*
%TD*%
%TO.C,*%
X94560000Y-87410000D03*
%TD*%
%TO.C,*%
X93190000Y-97000000D03*
%TD*%
%TO.C,*%
X93220000Y-116200000D03*
%TD*%
%TO.C,*%
X95930000Y-84670000D03*
%TD*%
%TO.C,*%
X83600000Y-83300000D03*
%TD*%
%TO.C,*%
X111017000Y-79191000D03*
%TD*%
%TO.C,*%
X98687000Y-75081000D03*
%TD*%
%TO.C,12*%
X97330000Y-110698200D03*
%TD*%
%TO.C,*%
X86340000Y-97000000D03*
%TD*%
%TO.C,*%
X86340000Y-92890000D03*
%TD*%
%TO.C,*%
X91820000Y-98370000D03*
%TD*%
%TO.C,*%
X93190000Y-113440000D03*
%TD*%
%TO.C,*%
X91820000Y-88780000D03*
%TD*%
%TO.C,*%
X94560000Y-107960000D03*
%TD*%
%TO.C,*%
X100070000Y-125790000D03*
%TD*%
%TO.C,*%
X90450000Y-103850000D03*
%TD*%
%TO.C,*%
X87727000Y-76451000D03*
%TD*%
%TO.C,*%
X91820000Y-87410000D03*
%TD*%
%TO.C,*%
X83630000Y-118940000D03*
%TD*%
%TO.C,*%
X94560000Y-91520000D03*
%TD*%
%TO.C,*%
X109660000Y-125790000D03*
%TD*%
%TO.C,*%
X87710000Y-102480000D03*
%TD*%
%TO.C,*%
X100057000Y-80561000D03*
%TD*%
%TO.C,*%
X87727000Y-80561000D03*
%TD*%
%TO.C,*%
X111030000Y-120310000D03*
%TD*%
%TO.C,*%
X84970000Y-106590000D03*
%TD*%
%TO.C,*%
X87710000Y-83300000D03*
%TD*%
%TO.C,*%
X84987000Y-79191000D03*
%TD*%
%TO.C,*%
X95930000Y-110700000D03*
%TD*%
%TO.C,*%
X112387000Y-79191000D03*
%TD*%
%TO.C,*%
X89080000Y-92890000D03*
%TD*%
%TO.C,*%
X106920000Y-120310000D03*
%TD*%
%TO.C,*%
X94577000Y-81931000D03*
%TD*%
%TO.C,*%
X93190000Y-105220000D03*
%TD*%
%TO.C,*%
X86370000Y-116200000D03*
%TD*%
%TO.C,*%
X83600000Y-99740000D03*
%TD*%
%TO.C,*%
X87710000Y-92890000D03*
%TD*%
%TO.C,*%
X90467000Y-77821000D03*
%TD*%
%TO.C,*%
X84970000Y-83300000D03*
%TD*%
%TO.C,*%
X108290000Y-123050000D03*
%TD*%
%TO.C,*%
X93190000Y-91520000D03*
%TD*%
%TO.C,*%
X102797000Y-76451000D03*
%TD*%
%TO.C,*%
X104180000Y-120310000D03*
%TD*%
%TO.C,*%
X86340000Y-109330000D03*
%TD*%
%TO.C,*%
X83600000Y-84670000D03*
%TD*%
%TO.C,*%
X112387000Y-76451000D03*
%TD*%
%TO.C,*%
X83600000Y-87410000D03*
%TD*%
%TO.C,*%
X109647000Y-79191000D03*
%TD*%
%TO.C,*%
X94590000Y-124420000D03*
%TD*%
%TO.C,*%
X101440000Y-116200000D03*
%TD*%
%TO.C,*%
X86340000Y-101110000D03*
%TD*%
%TO.C,*%
X104167000Y-76451000D03*
%TD*%
%TO.C,*%
X90450000Y-99740000D03*
%TD*%
%TO.C,*%
X106920000Y-123050000D03*
%TD*%
%TO.C,*%
X105550000Y-117570000D03*
%TD*%
%TO.C,*%
X95947000Y-76451000D03*
%TD*%
%TO.C,*%
X84970000Y-103850000D03*
%TD*%
%TO.C,*%
X90450000Y-112070000D03*
%TD*%
%TO.C,*%
X97317000Y-80561000D03*
%TD*%
%TO.C,*%
X91850000Y-118940000D03*
%TD*%
%TO.C,*%
X91837000Y-73711000D03*
%TD*%
%TO.C,*%
X84987000Y-81931000D03*
%TD*%
%TO.C,*%
X102810000Y-125790000D03*
%TD*%
%TO.C,*%
X104180000Y-118940000D03*
%TD*%
%TO.C,*%
X93207000Y-80561000D03*
%TD*%
%TO.C,*%
X101427000Y-80561000D03*
%TD*%
%TO.C,*%
X101427000Y-77821000D03*
%TD*%
%TO.C,*%
X104180000Y-123050000D03*
%TD*%
%TO.C,*%
X86340000Y-94260000D03*
%TD*%
%TO.C,*%
X112400000Y-118940000D03*
%TD*%
%TO.C,*%
X94560000Y-106590000D03*
%TD*%
%TO.C,*%
X84987000Y-80561000D03*
%TD*%
%TO.C,*%
X111017000Y-80561000D03*
%TD*%
%TO.C,*%
X90480000Y-117570000D03*
%TD*%
%TO.C,*%
X87740000Y-117570000D03*
%TD*%
%TO.C,*%
X94560000Y-94260000D03*
%TD*%
%TO.C,*%
X106907000Y-75081000D03*
%TD*%
%TO.C,*%
X100057000Y-79191000D03*
%TD*%
%TO.C,*%
X94577000Y-75081000D03*
%TD*%
%TO.C,*%
X90450000Y-94260000D03*
%TD*%
%TO.C,*%
X105537000Y-75081000D03*
%TD*%
%TO.C,*%
X93220000Y-123050000D03*
%TD*%
%TO.C,*%
X94577000Y-79191000D03*
%TD*%
%TO.C,*%
X87740000Y-124420000D03*
%TD*%
%TO.C,*%
X89080000Y-105220000D03*
%TD*%
%TO.C,*%
X94590000Y-125790000D03*
%TD*%
%TO.C,*%
X105550000Y-125790000D03*
%TD*%
%TO.C,*%
X93220000Y-121680000D03*
%TD*%
%TO.C,*%
X95930000Y-113440000D03*
%TD*%
%TO.C,*%
X97317000Y-77821000D03*
%TD*%
%TO.C,*%
X83600000Y-103850000D03*
%TD*%
%TO.C,*%
X95930000Y-98370000D03*
%TD*%
%TO.C,*%
X87710000Y-91520000D03*
%TD*%
%TO.C,*%
X90450000Y-91520000D03*
%TD*%
%TO.C,*%
X91820000Y-101110000D03*
%TD*%
%TO.C,*%
X100070000Y-123050000D03*
%TD*%
%TO.C,*%
X101440000Y-121680000D03*
%TD*%
%TO.C,*%
X85000000Y-123050000D03*
%TD*%
%TO.C,*%
X95930000Y-114810000D03*
%TD*%
%TO.C,*%
X98687000Y-80561000D03*
%TD*%
%TO.C,*%
X90450000Y-97000000D03*
%TD*%
%TO.C,*%
X95930000Y-102480000D03*
%TD*%
%TO.C,*%
X84970000Y-86040000D03*
%TD*%
%TO.C,*%
X106920000Y-121680000D03*
%TD*%
%TO.C,10*%
X97330000Y-107958200D03*
%TD*%
%TO.C,*%
X108290000Y-125790000D03*
%TD*%
%TO.C,*%
X89080000Y-87410000D03*
%TD*%
%TO.C,*%
X93190000Y-98370000D03*
%TD*%
%TO.C,*%
X89110000Y-125790000D03*
%TD*%
%TO.C,*%
X89080000Y-103850000D03*
%TD*%
%TO.C,*%
X91820000Y-84670000D03*
%TD*%
%TO.C,*%
X91820000Y-105220000D03*
%TD*%
%TO.C,*%
X94590000Y-120310000D03*
%TD*%
%TO.C,*%
X83630000Y-123050000D03*
%TD*%
%TO.C,*%
X112400000Y-123050000D03*
%TD*%
%TO.C,*%
X106920000Y-117570000D03*
%TD*%
%TO.C,*%
X89097000Y-79191000D03*
%TD*%
%TO.C,*%
X105537000Y-76451000D03*
%TD*%
%TO.C,*%
X86340000Y-99740000D03*
%TD*%
%TO.C,*%
X97330000Y-120310000D03*
%TD*%
%TO.C,*%
X91820000Y-92890000D03*
%TD*%
%TO.C,*%
X106907000Y-81931000D03*
%TD*%
%TO.C,*%
X95930000Y-94260000D03*
%TD*%
%TO.C,*%
X108277000Y-79191000D03*
%TD*%
%TO.C,*%
X90467000Y-76451000D03*
%TD*%
%TO.C,*%
X86340000Y-105220000D03*
%TD*%
%TO.C,*%
X90450000Y-101110000D03*
%TD*%
%TO.C,*%
X102810000Y-124420000D03*
%TD*%
%TO.C,*%
X91820000Y-91520000D03*
%TD*%
%TO.C,*%
X91837000Y-79191000D03*
%TD*%
%TO.C,*%
X93190000Y-95630000D03*
%TD*%
%TO.C,*%
X97330000Y-117570000D03*
%TD*%
%TO.C,*%
X90450000Y-110700000D03*
%TD*%
%TO.C,*%
X84970000Y-110700000D03*
%TD*%
%TO.C,*%
X89110000Y-116200000D03*
%TD*%
%TO.C,*%
X91837000Y-77821000D03*
%TD*%
%TO.C,*%
X86340000Y-88780000D03*
%TD*%
%TO.C,*%
X97330000Y-124420000D03*
%TD*%
%TO.C,*%
X89080000Y-83300000D03*
%TD*%
%TO.C,*%
X94560000Y-109330000D03*
%TD*%
%TO.C,*%
X91850000Y-117570000D03*
%TD*%
%TO.C,*%
X108290000Y-116200000D03*
%TD*%
%TO.C,*%
X108277000Y-77821000D03*
%TD*%
%TO.C,*%
X97330000Y-125790000D03*
%TD*%
%TO.C,*%
X95960000Y-123050000D03*
%TD*%
%TO.C,*%
X109647000Y-80561000D03*
%TD*%
%TO.C,14*%
X97330000Y-113438200D03*
%TD*%
%TO.C,*%
X87727000Y-81931000D03*
%TD*%
%TO.C,*%
X90467000Y-73711000D03*
%TD*%
%TO.C,*%
X95960000Y-118940000D03*
%TD*%
%TO.C,*%
X94560000Y-98370000D03*
%TD*%
%TO.C,*%
X93207000Y-77821000D03*
%TD*%
%TO.C,*%
X100057000Y-76451000D03*
%TD*%
%TO.C,*%
X90480000Y-124420000D03*
%TD*%
%TO.C,*%
X111017000Y-81931000D03*
%TD*%
%TO.C,*%
X112400000Y-121680000D03*
%TD*%
%TO.C,*%
X97317000Y-73711000D03*
%TD*%
%TO.C,*%
X83600000Y-113440000D03*
%TD*%
%TO.C,*%
X109647000Y-77821000D03*
%TD*%
%TO.C,*%
X87740000Y-120310000D03*
%TD*%
%TO.C,*%
X89080000Y-94260000D03*
%TD*%
%TO.C,*%
X87740000Y-116200000D03*
%TD*%
%TO.C,*%
X97330000Y-123050000D03*
%TD*%
%TO.C,*%
X104167000Y-73711000D03*
%TD*%
%TO.C,*%
X112400000Y-116200000D03*
%TD*%
%TO.C,*%
X112400000Y-117570000D03*
%TD*%
%TO.C,*%
X91820000Y-109330000D03*
%TD*%
%TO.C,*%
X111017000Y-76451000D03*
%TD*%
%TO.C,*%
X106907000Y-73711000D03*
%TD*%
%TO.C,*%
X93190000Y-109330000D03*
%TD*%
%TO.C,*%
X86340000Y-98370000D03*
%TD*%
%TO.C,*%
X94560000Y-83300000D03*
%TD*%
%TO.C,*%
X109660000Y-124420000D03*
%TD*%
%TO.C,*%
X90450000Y-86040000D03*
%TD*%
%TO.C,*%
X91820000Y-86040000D03*
%TD*%
%TO.C,*%
X109660000Y-117570000D03*
%TD*%
%TO.C,*%
X87710000Y-84670000D03*
%TD*%
%TO.C,*%
X95930000Y-101110000D03*
%TD*%
%TO.C,*%
X89080000Y-91520000D03*
%TD*%
%TO.C,*%
X94560000Y-95630000D03*
%TD*%
%TO.C,*%
X111017000Y-77821000D03*
%TD*%
%TO.C,*%
X91837000Y-81931000D03*
%TD*%
%TO.C,*%
X95930000Y-112070000D03*
%TD*%
%TO.C,*%
X86357000Y-79191000D03*
%TD*%
%TO.C,*%
X83617000Y-73711000D03*
%TD*%
%TO.C,*%
X102797000Y-81931000D03*
%TD*%
%TO.C,*%
X95930000Y-91520000D03*
%TD*%
%TO.C,*%
X93220000Y-120310000D03*
%TD*%
%TO.C,*%
X87710000Y-112070000D03*
%TD*%
%TO.C,*%
X87727000Y-77821000D03*
%TD*%
%TO.C,*%
X95930000Y-105220000D03*
%TD*%
%TO.C,*%
X102810000Y-117570000D03*
%TD*%
%TO.C,*%
X105550000Y-121680000D03*
%TD*%
%TO.C,*%
X102797000Y-80561000D03*
%TD*%
%TO.C,*%
X86340000Y-84670000D03*
%TD*%
%TO.C,*%
X83617000Y-79191000D03*
%TD*%
%TO.C,13*%
X97330000Y-112068200D03*
%TD*%
%TO.C,*%
X89097000Y-81931000D03*
%TD*%
%TO.C,*%
X94560000Y-114810000D03*
%TD*%
%TO.C,*%
X111017000Y-75081000D03*
%TD*%
%TO.C,*%
X95960000Y-120310000D03*
%TD*%
%TO.C,*%
X83600000Y-88780000D03*
%TD*%
%TO.C,*%
X83600000Y-90150000D03*
%TD*%
%TO.C,*%
X90480000Y-125790000D03*
%TD*%
%TO.C,*%
X93207000Y-76451000D03*
%TD*%
%TO.C,*%
X98700000Y-118940000D03*
%TD*%
%TO.C,*%
X94590000Y-123050000D03*
%TD*%
%TO.C,*%
X86340000Y-112070000D03*
%TD*%
%TO.C,*%
X83617000Y-81931000D03*
%TD*%
%TO.C,*%
X85000000Y-117570000D03*
%TD*%
%TO.C,*%
X85000000Y-124420000D03*
%TD*%
%TO.C,*%
X83600000Y-102480000D03*
%TD*%
%TO.C,*%
X89080000Y-107960000D03*
%TD*%
%TO.C,*%
X83600000Y-86040000D03*
%TD*%
%TO.C,*%
X95947000Y-73711000D03*
%TD*%
%TO.C,*%
X89080000Y-109330000D03*
%TD*%
%TO.C,*%
X98700000Y-116200000D03*
%TD*%
%TO.C,*%
X94577000Y-77821000D03*
%TD*%
%TO.C,*%
X89080000Y-112070000D03*
%TD*%
%TO.C,*%
X89110000Y-120310000D03*
%TD*%
%TO.C,*%
X84987000Y-76451000D03*
%TD*%
%TO.C,*%
X95930000Y-106590000D03*
%TD*%
%TO.C,*%
X85000000Y-116200000D03*
%TD*%
%TO.C,*%
X86340000Y-106590000D03*
%TD*%
%TO.C,*%
X100070000Y-117570000D03*
%TD*%
%TO.C,*%
X84970000Y-87410000D03*
%TD*%
%TO.C,*%
X91820000Y-97000000D03*
%TD*%
%TO.C,*%
X93207000Y-73711000D03*
%TD*%
%TO.C,*%
X86340000Y-86040000D03*
%TD*%
%TO.C,*%
X97317000Y-75081000D03*
%TD*%
%TO.C,*%
X87710000Y-86040000D03*
%TD*%
%TO.C,*%
X86340000Y-91520000D03*
%TD*%
%TO.C,*%
X95960000Y-121680000D03*
%TD*%
%TO.C,*%
X108277000Y-73711000D03*
%TD*%
%TO.C,*%
X106920000Y-118940000D03*
%TD*%
%TO.C,*%
X90450000Y-113440000D03*
%TD*%
%TO.C,*%
X93190000Y-103850000D03*
%TD*%
%TO.C,*%
X90450000Y-105220000D03*
%TD*%
%TO.C,*%
X89080000Y-95630000D03*
%TD*%
%TO.C,*%
X90480000Y-116200000D03*
%TD*%
%TO.C,*%
X84970000Y-88780000D03*
%TD*%
%TO.C,*%
X108277000Y-75081000D03*
%TD*%
%TO.C,*%
X84970000Y-98370000D03*
%TD*%
%TO.C,*%
X100070000Y-124420000D03*
%TD*%
%TO.C,*%
X109660000Y-121680000D03*
%TD*%
%TO.C,*%
X93190000Y-101110000D03*
%TD*%
%TO.C,*%
X95947000Y-80561000D03*
%TD*%
%TO.C,*%
X93190000Y-86040000D03*
%TD*%
%TO.C,*%
X83617000Y-76451000D03*
%TD*%
%TO.C,*%
X105550000Y-124420000D03*
%TD*%
%TO.C,*%
X89080000Y-98370000D03*
%TD*%
%TO.C,*%
X93220000Y-124420000D03*
%TD*%
%TO.C,*%
X94560000Y-103850000D03*
%TD*%
%TO.C,*%
X84970000Y-99740000D03*
%TD*%
%TO.C,*%
X95960000Y-125790000D03*
%TD*%
%TO.C,*%
X95930000Y-87410000D03*
%TD*%
%TO.C,*%
X111030000Y-125790000D03*
%TD*%
%TO.C,*%
X100070000Y-121680000D03*
%TD*%
D13*
%TO.C,U1*%
X116485000Y-111380000D03*
X116485000Y-110580000D03*
X116485000Y-109780000D03*
X116485000Y-108980000D03*
X116485000Y-108180000D03*
X116485000Y-107380000D03*
X116485000Y-106580000D03*
X116485000Y-105780000D03*
X116485000Y-101780000D03*
X116485000Y-100980000D03*
X116485000Y-100180000D03*
X116485000Y-99380000D03*
X116485000Y-98580000D03*
X116485000Y-97780000D03*
X116485000Y-96980000D03*
X116485000Y-96180000D03*
X116485000Y-95380000D03*
X116485000Y-94580000D03*
X116485000Y-93780000D03*
X116485000Y-92980000D03*
X116485000Y-92180000D03*
X116485000Y-91380000D03*
X116485000Y-90580000D03*
X116485000Y-89780000D03*
X116485000Y-88980000D03*
X116485000Y-88180000D03*
%TD*%
D11*
%TO.C,9*%
X97330000Y-106564600D03*
%TD*%
%TO.C,*%
X109647000Y-76451000D03*
%TD*%
%TO.C,*%
X86340000Y-107960000D03*
%TD*%
%TO.C,*%
X100057000Y-75081000D03*
%TD*%
%TO.C,*%
X89097000Y-80561000D03*
%TD*%
%TO.C,*%
X104180000Y-116200000D03*
%TD*%
%TO.C,*%
X91820000Y-94260000D03*
%TD*%
%TO.C,*%
X100070000Y-120310000D03*
%TD*%
%TO.C,*%
X90450000Y-88780000D03*
%TD*%
%TO.C,*%
X86340000Y-113440000D03*
%TD*%
%TO.C,*%
X87710000Y-110700000D03*
%TD*%
%TO.C,*%
X83600000Y-91520000D03*
%TD*%
%TO.C,*%
X101427000Y-81931000D03*
%TD*%
%TO.C,*%
X106907000Y-76451000D03*
%TD*%
%TO.C,*%
X98700000Y-123050000D03*
%TD*%
%TO.C,*%
X84970000Y-84670000D03*
%TD*%
%TO.C,*%
X86340000Y-114810000D03*
%TD*%
%TO.C,*%
X89080000Y-110700000D03*
%TD*%
%TO.C,*%
X83630000Y-124420000D03*
%TD*%
%TO.C,*%
X94560000Y-88780000D03*
%TD*%
%TO.C,*%
X89080000Y-106590000D03*
%TD*%
%TO.C,*%
X85000000Y-120310000D03*
%TD*%
%TO.C,*%
X101440000Y-118940000D03*
%TD*%
%TO.C,*%
X97317000Y-79191000D03*
%TD*%
%TO.C,*%
X84970000Y-105220000D03*
%TD*%
%TO.C,*%
X95930000Y-107960000D03*
%TD*%
%TO.C,*%
X94560000Y-84670000D03*
%TD*%
%TO.C,*%
X105537000Y-80561000D03*
%TD*%
%TO.C,*%
X91820000Y-83300000D03*
%TD*%
%TO.C,*%
X91820000Y-112070000D03*
%TD*%
%TO.C,*%
X102797000Y-75081000D03*
%TD*%
%TO.C,*%
X89080000Y-97000000D03*
%TD*%
%TO.C,*%
X87710000Y-114810000D03*
%TD*%
%TO.C,*%
X102810000Y-123050000D03*
%TD*%
%TO.C,*%
X98687000Y-77821000D03*
%TD*%
%TO.C,*%
X94560000Y-86040000D03*
%TD*%
%TO.C,*%
X108290000Y-124420000D03*
%TD*%
%TO.C,*%
X109660000Y-116200000D03*
%TD*%
%TO.C,*%
X89110000Y-124420000D03*
%TD*%
%TO.C,*%
X83600000Y-105220000D03*
%TD*%
%TO.C,*%
X90450000Y-98370000D03*
%TD*%
%TO.C,*%
X95960000Y-116200000D03*
%TD*%
%TO.C,*%
X102797000Y-73711000D03*
%TD*%
%TO.C,*%
X94560000Y-97000000D03*
%TD*%
%TO.C,*%
X108277000Y-81931000D03*
%TD*%
%TO.C,*%
X101427000Y-73711000D03*
%TD*%
%TO.C,*%
X83600000Y-116200000D03*
%TD*%
%TO.C,*%
X90467000Y-79191000D03*
%TD*%
%TO.C,*%
X111030000Y-123050000D03*
%TD*%
%TO.C,*%
X94560000Y-110700000D03*
%TD*%
%TO.C,11*%
X97330000Y-109328200D03*
%TD*%
%TO.C,*%
X85000000Y-121680000D03*
%TD*%
%TO.C,*%
X111030000Y-117570000D03*
%TD*%
%TO.C,*%
X93190000Y-92890000D03*
%TD*%
%TO.C,*%
X84970000Y-91520000D03*
%TD*%
%TO.C,*%
X95947000Y-77821000D03*
%TD*%
%TO.C,*%
X86370000Y-125790000D03*
%TD*%
%TO.C,*%
X83600000Y-92890000D03*
%TD*%
%TO.C,*%
X84970000Y-101110000D03*
%TD*%
%TO.C,*%
X106907000Y-80561000D03*
%TD*%
%TO.C,*%
X94590000Y-121680000D03*
%TD*%
%TO.C,*%
X93190000Y-99740000D03*
%TD*%
%TO.C,*%
X87740000Y-118940000D03*
%TD*%
%TO.C,*%
X104167000Y-75081000D03*
%TD*%
%TO.C,*%
X86340000Y-90150000D03*
%TD*%
%TO.C,*%
X101440000Y-123050000D03*
%TD*%
%TO.C,*%
X98687000Y-79191000D03*
%TD*%
%TO.C,*%
X105550000Y-120310000D03*
%TD*%
%TO.C,*%
X91850000Y-121680000D03*
%TD*%
%TO.C,*%
X95947000Y-81931000D03*
%TD*%
%TO.C,*%
X95947000Y-79191000D03*
%TD*%
%TO.C,*%
X87710000Y-94260000D03*
%TD*%
%TO.C,*%
X98700000Y-120310000D03*
%TD*%
%TO.C,*%
X98687000Y-81931000D03*
%TD*%
%TO.C,*%
X86357000Y-77821000D03*
%TD*%
%TO.C,*%
X89080000Y-113440000D03*
%TD*%
%TO.C,*%
X93220000Y-125790000D03*
%TD*%
%TO.C,*%
X86357000Y-75081000D03*
%TD*%
%TO.C,*%
X90450000Y-90150000D03*
%TD*%
%TO.C,*%
X93190000Y-84670000D03*
%TD*%
%TO.C,15*%
X97330000Y-114808200D03*
%TD*%
%TO.C,*%
X87710000Y-113440000D03*
%TD*%
%TO.C,*%
X105550000Y-123050000D03*
%TD*%
%TO.C,*%
X104180000Y-117570000D03*
%TD*%
%TO.C,*%
X91820000Y-106590000D03*
%TD*%
%TO.C,*%
X95960000Y-117570000D03*
%TD*%
%TO.C,*%
X87740000Y-123050000D03*
%TD*%
%TO.C,*%
X83600000Y-112070000D03*
%TD*%
%TO.C,*%
X93207000Y-81931000D03*
%TD*%
%TO.C,*%
X83617000Y-77821000D03*
%TD*%
%TO.C,*%
X87710000Y-106590000D03*
%TD*%
%TO.C,*%
X109660000Y-120310000D03*
%TD*%
%TO.C,*%
X102810000Y-118940000D03*
%TD*%
%TO.C,*%
X91820000Y-99740000D03*
%TD*%
%TO.C,*%
X93220000Y-117570000D03*
%TD*%
%TO.C,*%
X101440000Y-124420000D03*
%TD*%
%TO.C,*%
X86340000Y-103850000D03*
%TD*%
%TO.C,*%
X98687000Y-73711000D03*
%TD*%
%TO.C,*%
X101440000Y-125790000D03*
%TD*%
%TO.C,*%
X108290000Y-121680000D03*
%TD*%
%TO.C,*%
X101427000Y-75081000D03*
%TD*%
%TO.C,*%
X104167000Y-77821000D03*
%TD*%
%TO.C,*%
X95930000Y-86040000D03*
%TD*%
%TO.C,*%
X89080000Y-101110000D03*
%TD*%
%TO.C,*%
X86357000Y-80561000D03*
%TD*%
%TO.C,*%
X108290000Y-120310000D03*
%TD*%
%TO.C,*%
X95930000Y-83300000D03*
%TD*%
%TO.C,*%
X85000000Y-125790000D03*
%TD*%
%TO.C,*%
X87710000Y-101110000D03*
%TD*%
%TO.C,*%
X90467000Y-80561000D03*
%TD*%
%TO.C,*%
X102797000Y-77821000D03*
%TD*%
%TO.C,*%
X90450000Y-87410000D03*
%TD*%
%TO.C,*%
X84970000Y-112070000D03*
%TD*%
%TO.C,*%
X85000000Y-118940000D03*
%TD*%
%TO.C,*%
X100057000Y-81931000D03*
%TD*%
%TO.C,*%
X91820000Y-110700000D03*
%TD*%
%TO.C,*%
X84970000Y-90150000D03*
%TD*%
%TO.C,*%
X95930000Y-88780000D03*
%TD*%
%TO.C,*%
X106920000Y-125790000D03*
%TD*%
%TO.C,*%
X105550000Y-116200000D03*
%TD*%
%TO.C,*%
X86357000Y-76451000D03*
%TD*%
%TO.C,*%
X89080000Y-88780000D03*
%TD*%
%TO.C,*%
X102797000Y-79191000D03*
%TD*%
%TO.C,*%
X98700000Y-121680000D03*
%TD*%
%TO.C,*%
X112400000Y-120310000D03*
%TD*%
%TO.C,*%
X111030000Y-118940000D03*
%TD*%
%TO.C,*%
X106920000Y-116200000D03*
%TD*%
%TO.C,*%
X111030000Y-121680000D03*
%TD*%
%TO.C,*%
X106907000Y-77821000D03*
%TD*%
%TO.C,*%
X90480000Y-123050000D03*
%TD*%
%TO.C,*%
X104180000Y-125790000D03*
%TD*%
%TO.C,*%
X101427000Y-76451000D03*
%TD*%
%TO.C,*%
X87710000Y-88780000D03*
%TD*%
%TO.C,*%
X93190000Y-87410000D03*
%TD*%
%TO.C,*%
X112387000Y-77821000D03*
%TD*%
%TO.C,*%
X90450000Y-102480000D03*
%TD*%
%TO.C,*%
X91820000Y-90150000D03*
%TD*%
%TO.C,*%
X90450000Y-107960000D03*
%TD*%
%TO.C,*%
X97330000Y-118940000D03*
%TD*%
%TO.C,*%
X93190000Y-112070000D03*
%TD*%
%TO.C,*%
X91850000Y-116200000D03*
%TD*%
%TO.C,*%
X87710000Y-95630000D03*
%TD*%
%TO.C,*%
X84987000Y-77821000D03*
%TD*%
%TO.C,*%
X97317000Y-76451000D03*
%TD*%
%TO.C,*%
X95947000Y-75081000D03*
%TD*%
%TO.C,*%
X89110000Y-118940000D03*
%TD*%
%TO.C,*%
X89080000Y-90150000D03*
%TD*%
%TO.C,*%
X87727000Y-79191000D03*
%TD*%
%TO.C,*%
X91850000Y-125790000D03*
%TD*%
%TO.C,*%
X89080000Y-102480000D03*
%TD*%
%TO.C,*%
X112387000Y-75081000D03*
%TD*%
%TO.C,*%
X93190000Y-94260000D03*
%TD*%
%TO.C,*%
X111030000Y-124420000D03*
%TD*%
%TO.C,*%
X83600000Y-114810000D03*
%TD*%
%TO.C,*%
X106920000Y-124420000D03*
%TD*%
%TO.C,*%
X84970000Y-109330000D03*
%TD*%
%TO.C,*%
X90480000Y-118940000D03*
%TD*%
%TO.C,*%
X108277000Y-80561000D03*
%TD*%
%TO.C,*%
X91850000Y-123050000D03*
%TD*%
%TO.C,*%
X97317000Y-81931000D03*
%TD*%
%TO.C,*%
X100057000Y-77821000D03*
%TD*%
%TO.C,*%
X86370000Y-123050000D03*
%TD*%
%TO.C,*%
X90450000Y-92890000D03*
%TD*%
%TO.C,*%
X87710000Y-98370000D03*
%TD*%
%TO.C,*%
X89080000Y-114810000D03*
%TD*%
%TO.C,*%
X112387000Y-81931000D03*
%TD*%
%TO.C,*%
X108290000Y-118940000D03*
%TD*%
%TO.C,*%
X94577000Y-73711000D03*
%TD*%
%TO.C,*%
X86370000Y-118940000D03*
%TD*%
%TO.C,*%
X95930000Y-92890000D03*
%TD*%
%TO.C,*%
X84970000Y-95630000D03*
%TD*%
%TO.C,*%
X93220000Y-118940000D03*
%TD*%
%TO.C,*%
X86340000Y-102480000D03*
%TD*%
%TO.C,*%
X91837000Y-80561000D03*
%TD*%
%TO.C,*%
X83600000Y-110700000D03*
%TD*%
%TO.C,*%
X90450000Y-109330000D03*
%TD*%
%TO.C,*%
X98687000Y-76451000D03*
%TD*%
%TO.C,*%
X95930000Y-90150000D03*
%TD*%
%TO.C,*%
X83630000Y-125790000D03*
%TD*%
D12*
%TO.C,H2*%
X89115000Y-132500000D03*
%TD*%
D11*
%TO.C,*%
X87710000Y-109330000D03*
%TD*%
%TO.C,*%
X105537000Y-81931000D03*
%TD*%
%TO.C,*%
X83617000Y-80561000D03*
%TD*%
%TO.C,*%
X93207000Y-75081000D03*
%TD*%
%TO.C,*%
X100070000Y-116200000D03*
%TD*%
%TO.C,*%
X91850000Y-124420000D03*
%TD*%
%TO.C,*%
X109660000Y-123050000D03*
%TD*%
%TO.C,*%
X90450000Y-95630000D03*
%TD*%
%TO.C,*%
X97330000Y-121680000D03*
%TD*%
%TO.C,*%
X94560000Y-102480000D03*
%TD*%
%TO.C,*%
X86370000Y-124420000D03*
%TD*%
%TO.C,*%
X94560000Y-92890000D03*
%TD*%
%TO.C,*%
X84970000Y-107960000D03*
%TD*%
%TO.C,*%
X86370000Y-121680000D03*
%TD*%
%TO.C,*%
X83600000Y-94260000D03*
%TD*%
%TO.C,*%
X97330000Y-116200000D03*
%TD*%
%TO.C,*%
X98700000Y-124420000D03*
%TD*%
%TO.C,*%
X93190000Y-83300000D03*
%TD*%
%TO.C,*%
X87740000Y-121680000D03*
%TD*%
%TO.C,*%
X109647000Y-75081000D03*
%TD*%
%TO.C,*%
X94577000Y-76451000D03*
%TD*%
%TO.C,*%
X102810000Y-121680000D03*
%TD*%
%TO.C,*%
X89097000Y-76451000D03*
%TD*%
%TO.C,*%
X86357000Y-73711000D03*
%TD*%
%TO.C,*%
X87710000Y-105220000D03*
%TD*%
%TO.C,*%
X102810000Y-116200000D03*
%TD*%
%TO.C,*%
X83600000Y-101110000D03*
%TD*%
%TO.C,*%
X89080000Y-86040000D03*
%TD*%
%TO.C,*%
X87710000Y-90150000D03*
%TD*%
D14*
%TO.C,U3*%
X109965000Y-131000000D03*
X109965000Y-134000000D03*
X95195000Y-134000000D03*
X95195000Y-131000000D03*
%TD*%
%TO.C,U2*%
X109965000Y-66000000D03*
X109965000Y-69000000D03*
X95195000Y-69000000D03*
X95195000Y-66000000D03*
%TD*%
M02*
