M48
; DRILL file {KiCad 8.0.4} date 2025-01-31T00:42:40+0100
; FORMAT={-:-/ absolute / metric / decimal}
; #@! TF.CreationDate,2025-01-31T00:42:40+01:00
; #@! TF.GenerationSoftware,Kicad,Pcbnew,8.0.4
; #@! TF.FileFunction,Plated,1,2,PTH
FMAT,2
METRIC
; #@! TA.AperFunction,Plated,PTH,ViaDrill
T1C0.400
; #@! TA.AperFunction,Plated,PTH,ComponentDrill
T2C0.650
%
G90
G05
T1
X99.132Y-88.585
X99.238Y-105.842
X99.873Y-106.858
X99.876Y-89.175
X100.508Y-89.967
X100.569Y-107.775
X101.261Y-108.425
X101.27Y-90.602
X102.032Y-91.491
X102.057Y-109.348
X102.794Y-92.253
X102.857Y-110.148
X103.646Y-93.105
X103.657Y-110.821
X104.445Y-93.777
X104.457Y-111.747
X105.276Y-94.731
X106.096Y-95.428
X106.858Y-96.19
X107.706Y-97.0
X108.446Y-97.71
X109.271Y-98.476
X110.083Y-99.262
X110.795Y-100.127
X111.684Y-100.889
X111.982Y-112.236
X112.446Y-104.572
X113.16Y-112.494
T2
X83.6Y-83.3
X83.6Y-84.67
X83.6Y-86.04
X83.6Y-87.41
X83.6Y-88.78
X83.6Y-90.15
X83.6Y-91.52
X83.6Y-92.89
X83.6Y-94.26
X83.6Y-95.63
X83.6Y-97.0
X83.6Y-98.37
X83.6Y-99.74
X83.6Y-101.11
X83.6Y-102.48
X83.6Y-103.85
X83.6Y-105.22
X83.6Y-106.59
X83.6Y-107.96
X83.6Y-109.33
X83.6Y-110.7
X83.6Y-112.07
X83.6Y-113.44
X83.6Y-114.81
X83.6Y-116.2
X83.617Y-73.711
X83.617Y-75.081
X83.617Y-76.451
X83.617Y-77.821
X83.617Y-79.191
X83.617Y-80.561
X83.617Y-81.931
X83.63Y-117.57
X83.63Y-118.94
X83.63Y-120.31
X83.63Y-121.68
X83.63Y-123.05
X83.63Y-124.42
X83.63Y-125.79
X84.97Y-83.3
X84.97Y-84.67
X84.97Y-86.04
X84.97Y-87.41
X84.97Y-88.78
X84.97Y-90.15
X84.97Y-91.52
X84.97Y-92.89
X84.97Y-94.26
X84.97Y-95.63
X84.97Y-97.0
X84.97Y-98.37
X84.97Y-99.74
X84.97Y-101.11
X84.97Y-102.48
X84.97Y-103.85
X84.97Y-105.22
X84.97Y-106.59
X84.97Y-107.96
X84.97Y-109.33
X84.97Y-110.7
X84.97Y-112.07
X84.97Y-113.44
X84.97Y-114.81
X84.987Y-73.711
X84.987Y-75.081
X84.987Y-76.451
X84.987Y-77.821
X84.987Y-79.191
X84.987Y-80.561
X84.987Y-81.931
X85.0Y-116.2
X85.0Y-117.57
X85.0Y-118.94
X85.0Y-120.31
X85.0Y-121.68
X85.0Y-123.05
X85.0Y-124.42
X85.0Y-125.79
X86.34Y-83.3
X86.34Y-84.67
X86.34Y-86.04
X86.34Y-87.41
X86.34Y-88.78
X86.34Y-90.15
X86.34Y-91.52
X86.34Y-92.89
X86.34Y-94.26
X86.34Y-95.63
X86.34Y-97.0
X86.34Y-98.37
X86.34Y-99.74
X86.34Y-101.11
X86.34Y-102.48
X86.34Y-103.85
X86.34Y-105.22
X86.34Y-106.59
X86.34Y-107.96
X86.34Y-109.33
X86.34Y-110.7
X86.34Y-112.07
X86.34Y-113.44
X86.34Y-114.81
X86.357Y-73.711
X86.357Y-75.081
X86.357Y-76.451
X86.357Y-77.821
X86.357Y-79.191
X86.357Y-80.561
X86.357Y-81.931
X86.37Y-116.2
X86.37Y-117.57
X86.37Y-118.94
X86.37Y-120.31
X86.37Y-121.68
X86.37Y-123.05
X86.37Y-124.42
X86.37Y-125.79
X87.71Y-83.3
X87.71Y-84.67
X87.71Y-86.04
X87.71Y-87.41
X87.71Y-88.78
X87.71Y-90.15
X87.71Y-91.52
X87.71Y-92.89
X87.71Y-94.26
X87.71Y-95.63
X87.71Y-97.0
X87.71Y-98.37
X87.71Y-99.74
X87.71Y-101.11
X87.71Y-102.48
X87.71Y-103.85
X87.71Y-105.22
X87.71Y-106.59
X87.71Y-107.96
X87.71Y-109.33
X87.71Y-110.7
X87.71Y-112.07
X87.71Y-113.44
X87.71Y-114.81
X87.727Y-73.711
X87.727Y-75.081
X87.727Y-76.451
X87.727Y-77.821
X87.727Y-79.191
X87.727Y-80.561
X87.727Y-81.931
X87.74Y-116.2
X87.74Y-117.57
X87.74Y-118.94
X87.74Y-120.31
X87.74Y-121.68
X87.74Y-123.05
X87.74Y-124.42
X87.74Y-125.79
X89.08Y-83.3
X89.08Y-84.67
X89.08Y-86.04
X89.08Y-87.41
X89.08Y-88.78
X89.08Y-90.15
X89.08Y-91.52
X89.08Y-92.89
X89.08Y-94.26
X89.08Y-95.63
X89.08Y-97.0
X89.08Y-98.37
X89.08Y-99.74
X89.08Y-101.11
X89.08Y-102.48
X89.08Y-103.85
X89.08Y-105.22
X89.08Y-106.59
X89.08Y-107.96
X89.08Y-109.33
X89.08Y-110.7
X89.08Y-112.07
X89.08Y-113.44
X89.08Y-114.81
X89.097Y-73.711
X89.097Y-75.081
X89.097Y-76.451
X89.097Y-77.821
X89.097Y-79.191
X89.097Y-80.561
X89.097Y-81.931
X89.11Y-116.2
X89.11Y-117.57
X89.11Y-118.94
X89.11Y-120.31
X89.11Y-121.68
X89.11Y-123.05
X89.11Y-124.42
X89.11Y-125.79
X90.45Y-83.3
X90.45Y-84.67
X90.45Y-86.04
X90.45Y-87.41
X90.45Y-88.78
X90.45Y-90.15
X90.45Y-91.52
X90.45Y-92.89
X90.45Y-94.26
X90.45Y-95.63
X90.45Y-97.0
X90.45Y-98.37
X90.45Y-99.74
X90.45Y-101.11
X90.45Y-102.48
X90.45Y-103.85
X90.45Y-105.22
X90.45Y-106.59
X90.45Y-107.96
X90.45Y-109.33
X90.45Y-110.7
X90.45Y-112.07
X90.45Y-113.44
X90.45Y-114.81
X90.467Y-73.711
X90.467Y-75.081
X90.467Y-76.451
X90.467Y-77.821
X90.467Y-79.191
X90.467Y-80.561
X90.467Y-81.931
X90.48Y-116.2
X90.48Y-117.57
X90.48Y-118.94
X90.48Y-120.31
X90.48Y-121.68
X90.48Y-123.05
X90.48Y-124.42
X90.48Y-125.79
X91.82Y-83.3
X91.82Y-84.67
X91.82Y-86.04
X91.82Y-87.41
X91.82Y-88.78
X91.82Y-90.15
X91.82Y-91.52
X91.82Y-92.89
X91.82Y-94.26
X91.82Y-95.63
X91.82Y-97.0
X91.82Y-98.37
X91.82Y-99.74
X91.82Y-101.11
X91.82Y-102.48
X91.82Y-103.85
X91.82Y-105.22
X91.82Y-106.59
X91.82Y-107.96
X91.82Y-109.33
X91.82Y-110.7
X91.82Y-112.07
X91.82Y-113.44
X91.82Y-114.81
X91.837Y-73.711
X91.837Y-75.081
X91.837Y-76.451
X91.837Y-77.821
X91.837Y-79.191
X91.837Y-80.561
X91.837Y-81.931
X91.85Y-116.2
X91.85Y-117.57
X91.85Y-118.94
X91.85Y-120.31
X91.85Y-121.68
X91.85Y-123.05
X91.85Y-124.42
X91.85Y-125.79
X93.19Y-83.3
X93.19Y-84.67
X93.19Y-86.04
X93.19Y-87.41
X93.19Y-88.78
X93.19Y-90.15
X93.19Y-91.52
X93.19Y-92.89
X93.19Y-94.26
X93.19Y-95.63
X93.19Y-97.0
X93.19Y-98.37
X93.19Y-99.74
X93.19Y-101.11
X93.19Y-102.48
X93.19Y-103.85
X93.19Y-105.22
X93.19Y-106.59
X93.19Y-107.96
X93.19Y-109.33
X93.19Y-110.7
X93.19Y-112.07
X93.19Y-113.44
X93.19Y-114.81
X93.207Y-73.711
X93.207Y-75.081
X93.207Y-76.451
X93.207Y-77.821
X93.207Y-79.191
X93.207Y-80.561
X93.207Y-81.931
X93.22Y-116.2
X93.22Y-117.57
X93.22Y-118.94
X93.22Y-120.31
X93.22Y-121.68
X93.22Y-123.05
X93.22Y-124.42
X93.22Y-125.79
X94.56Y-83.3
X94.56Y-84.67
X94.56Y-86.04
X94.56Y-87.41
X94.56Y-88.78
X94.56Y-90.15
X94.56Y-91.52
X94.56Y-92.89
X94.56Y-94.26
X94.56Y-95.63
X94.56Y-97.0
X94.56Y-98.37
X94.56Y-99.74
X94.56Y-101.11
X94.56Y-102.48
X94.56Y-103.85
X94.56Y-105.22
X94.56Y-106.59
X94.56Y-107.96
X94.56Y-109.33
X94.56Y-110.7
X94.56Y-112.07
X94.56Y-113.44
X94.56Y-114.81
X94.577Y-73.711
X94.577Y-75.081
X94.577Y-76.451
X94.577Y-77.821
X94.577Y-79.191
X94.577Y-80.561
X94.577Y-81.931
X94.59Y-116.2
X94.59Y-117.57
X94.59Y-118.94
X94.59Y-120.31
X94.59Y-121.68
X94.59Y-123.05
X94.59Y-124.42
X94.59Y-125.79
X95.93Y-83.3
X95.93Y-84.67
X95.93Y-86.04
X95.93Y-87.41
X95.93Y-88.78
X95.93Y-90.15
X95.93Y-91.52
X95.93Y-92.89
X95.93Y-94.26
X95.93Y-95.63
X95.93Y-97.0
X95.93Y-98.37
X95.93Y-99.74
X95.93Y-101.11
X95.93Y-102.48
X95.93Y-103.85
X95.93Y-105.22
X95.93Y-106.59
X95.93Y-107.96
X95.93Y-109.33
X95.93Y-110.7
X95.93Y-112.07
X95.93Y-113.44
X95.93Y-114.81
X95.947Y-73.711
X95.947Y-75.081
X95.947Y-76.451
X95.947Y-77.821
X95.947Y-79.191
X95.947Y-80.561
X95.947Y-81.931
X95.96Y-116.2
X95.96Y-117.57
X95.96Y-118.94
X95.96Y-120.31
X95.96Y-121.68
X95.96Y-123.05
X95.96Y-124.42
X95.96Y-125.79
X97.317Y-73.711
X97.317Y-75.081
X97.317Y-76.451
X97.317Y-77.821
X97.317Y-79.191
X97.317Y-80.561
X97.317Y-81.931
X97.33Y-116.2
X97.33Y-117.57
X97.33Y-118.94
X97.33Y-120.31
X97.33Y-121.68
X97.33Y-123.05
X97.33Y-124.42
X97.33Y-125.79
X98.687Y-73.711
X98.687Y-75.081
X98.687Y-76.451
X98.687Y-77.821
X98.687Y-79.191
X98.687Y-80.561
X98.687Y-81.931
X98.7Y-116.2
X98.7Y-117.57
X98.7Y-118.94
X98.7Y-120.31
X98.7Y-121.68
X98.7Y-123.05
X98.7Y-124.42
X98.7Y-125.79
X100.057Y-73.711
X100.057Y-75.081
X100.057Y-76.451
X100.057Y-77.821
X100.057Y-79.191
X100.057Y-80.561
X100.057Y-81.931
X100.07Y-116.2
X100.07Y-117.57
X100.07Y-118.94
X100.07Y-120.31
X100.07Y-121.68
X100.07Y-123.05
X100.07Y-124.42
X100.07Y-125.79
X101.427Y-73.711
X101.427Y-75.081
X101.427Y-76.451
X101.427Y-77.821
X101.427Y-79.191
X101.427Y-80.561
X101.427Y-81.931
X101.44Y-116.2
X101.44Y-117.57
X101.44Y-118.94
X101.44Y-120.31
X101.44Y-121.68
X101.44Y-123.05
X101.44Y-124.42
X101.44Y-125.79
X102.797Y-73.711
X102.797Y-75.081
X102.797Y-76.451
X102.797Y-77.821
X102.797Y-79.191
X102.797Y-80.561
X102.797Y-81.931
X102.81Y-116.2
X102.81Y-117.57
X102.81Y-118.94
X102.81Y-120.31
X102.81Y-121.68
X102.81Y-123.05
X102.81Y-124.42
X102.81Y-125.79
X104.167Y-73.711
X104.167Y-75.081
X104.167Y-76.451
X104.167Y-77.821
X104.167Y-79.191
X104.167Y-80.561
X104.167Y-81.931
X104.18Y-116.2
X104.18Y-117.57
X104.18Y-118.94
X104.18Y-120.31
X104.18Y-121.68
X104.18Y-123.05
X104.18Y-124.42
X104.18Y-125.79
X105.537Y-73.711
X105.537Y-75.081
X105.537Y-76.451
X105.537Y-77.821
X105.537Y-79.191
X105.537Y-80.561
X105.537Y-81.931
X105.55Y-116.2
X105.55Y-117.57
X105.55Y-118.94
X105.55Y-120.31
X105.55Y-121.68
X105.55Y-123.05
X105.55Y-124.42
X105.55Y-125.79
X106.907Y-73.711
X106.907Y-75.081
X106.907Y-76.451
X106.907Y-77.821
X106.907Y-79.191
X106.907Y-80.561
X106.907Y-81.931
X106.92Y-116.2
X106.92Y-117.57
X106.92Y-118.94
X106.92Y-120.31
X106.92Y-121.68
X106.92Y-123.05
X106.92Y-124.42
X106.92Y-125.79
X108.277Y-73.711
X108.277Y-75.081
X108.277Y-76.451
X108.277Y-77.821
X108.277Y-79.191
X108.277Y-80.561
X108.277Y-81.931
X108.29Y-116.2
X108.29Y-117.57
X108.29Y-118.94
X108.29Y-120.31
X108.29Y-121.68
X108.29Y-123.05
X108.29Y-124.42
X108.29Y-125.79
X109.647Y-73.711
X109.647Y-75.081
X109.647Y-76.451
X109.647Y-77.821
X109.647Y-79.191
X109.647Y-80.561
X109.647Y-81.931
X109.66Y-116.2
X109.66Y-117.57
X109.66Y-118.94
X109.66Y-120.31
X109.66Y-121.68
X109.66Y-123.05
X109.66Y-124.42
X109.66Y-125.79
X111.017Y-73.711
X111.017Y-75.081
X111.017Y-76.451
X111.017Y-77.821
X111.017Y-79.191
X111.017Y-80.561
X111.017Y-81.931
X111.03Y-116.2
X111.03Y-117.57
X111.03Y-118.94
X111.03Y-120.31
X111.03Y-121.68
X111.03Y-123.05
X111.03Y-124.42
X111.03Y-125.79
X112.387Y-73.711
X112.387Y-75.081
X112.387Y-76.451
X112.387Y-77.821
X112.387Y-79.191
X112.387Y-80.561
X112.387Y-81.931
X112.4Y-116.2
X112.4Y-117.57
X112.4Y-118.94
X112.4Y-120.31
X112.4Y-121.68
X112.4Y-123.05
X112.4Y-124.42
X112.4Y-125.79
M30
