%TF.GenerationSoftware,KiCad,Pcbnew,8.0.4*%
%TF.CreationDate,2025-03-13T20:47:44+01:00*%
%TF.ProjectId,uconsole-expansion-card-template_1.27,75636f6e-736f-46c6-952d-657870616e73,0.1*%
%TF.SameCoordinates,Original*%
%TF.FileFunction,Copper,L1,Top*%
%TF.FilePolarity,Positive*%
%FSLAX46Y46*%
G04 Gerber Fmt 4.6, Leading zero omitted, Abs format (unit mm)*
G04 Created by KiCad (PCBNEW 8.0.4) date 2025-03-13 20:47:44*
%MOMM*%
%LPD*%
G01*
G04 APERTURE LIST*
%TA.AperFunction,ComponentPad*%
%ADD10R,1.000000X1.000000*%
%TD*%
%TA.AperFunction,SMDPad,CuDef*%
%ADD11R,1.000000X1.000000*%
%TD*%
%TA.AperFunction,ConnectorPad*%
%ADD12R,2.300000X0.600000*%
%TD*%
%TA.AperFunction,ViaPad*%
%ADD13C,0.800000*%
%TD*%
%TA.AperFunction,Conductor*%
%ADD14C,0.200000*%
%TD*%
%TA.AperFunction,Conductor*%
%ADD15C,0.420000*%
%TD*%
%TA.AperFunction,Conductor*%
%ADD16C,0.250000*%
%TD*%
%TA.AperFunction,Conductor*%
%ADD17C,0.300000*%
%TD*%
G04 APERTURE END LIST*
D10*
%TO.P,,1*%
%TO.N,N/C*%
X111017000Y-73711000D03*
%TD*%
%TO.P,,1*%
%TO.N,N/C*%
X86357000Y-81931000D03*
%TD*%
%TO.P,,1*%
%TO.N,N/C*%
X93190000Y-90150000D03*
%TD*%
%TO.P,,1*%
%TO.N,N/C*%
X94590000Y-118940000D03*
%TD*%
%TO.P,,1*%
%TO.N,N/C*%
X93190000Y-114810000D03*
%TD*%
%TO.P,,1*%
%TO.N,N/C*%
X95930000Y-97000000D03*
%TD*%
%TO.P,,1*%
%TO.N,N/C*%
X94590000Y-116200000D03*
%TD*%
%TO.P,,1*%
%TO.N,N/C*%
X104167000Y-80561000D03*
%TD*%
%TO.P,,1*%
%TO.N,N/C*%
X90480000Y-121680000D03*
%TD*%
%TO.P,,1*%
%TO.N,N/C*%
X90450000Y-114810000D03*
%TD*%
%TO.P,,1*%
%TO.N,N/C*%
X83630000Y-117570000D03*
%TD*%
%TO.P,,1*%
%TO.N,N/C*%
X84970000Y-97000000D03*
%TD*%
%TO.P,,1*%
%TO.N,N/C*%
X94590000Y-117570000D03*
%TD*%
%TO.P,,1*%
%TO.N,N/C*%
X98700000Y-125790000D03*
%TD*%
%TO.P,,1*%
%TO.N,N/C*%
X94560000Y-99740000D03*
%TD*%
%TO.P,,1*%
%TO.N,N/C*%
X109647000Y-73711000D03*
%TD*%
D11*
%TO.P,,1*%
%TO.N,/SPEAKER_LP*%
X113335000Y-114224000D03*
%TD*%
D10*
%TO.P,,1*%
%TO.N,N/C*%
X91850000Y-120310000D03*
%TD*%
%TO.P,,1*%
%TO.N,N/C*%
X84987000Y-75081000D03*
%TD*%
%TO.P,,1*%
%TO.N,N/C*%
X84970000Y-113440000D03*
%TD*%
%TO.P,,1*%
%TO.N,N/C*%
X101440000Y-117570000D03*
%TD*%
%TO.P,,1*%
%TO.N,N/C*%
X105537000Y-73711000D03*
%TD*%
%TO.P,,1*%
%TO.N,N/C*%
X83600000Y-97000000D03*
%TD*%
%TO.P,,1*%
%TO.N,N/C*%
X87727000Y-73711000D03*
%TD*%
%TO.P,,1*%
%TO.N,N/C*%
X84970000Y-114810000D03*
%TD*%
%TO.P,,1*%
%TO.N,N/C*%
X89080000Y-99740000D03*
%TD*%
%TO.P,,1*%
%TO.N,N/C*%
X93190000Y-88780000D03*
%TD*%
%TO.P,,1*%
%TO.N,N/C*%
X100070000Y-118940000D03*
%TD*%
%TO.P,,1*%
%TO.N,N/C*%
X90467000Y-75081000D03*
%TD*%
%TO.P,,1*%
%TO.N,N/C*%
X104180000Y-124420000D03*
%TD*%
%TO.P,,1*%
%TO.N,N/C*%
X108277000Y-76451000D03*
%TD*%
%TO.P,,1*%
%TO.N,N/C*%
X100057000Y-73711000D03*
%TD*%
D11*
%TO.P,,1*%
%TO.N,/SPEAKER_RP*%
X100000000Y-114224000D03*
%TD*%
%TO.P,,1*%
%TO.N,+3V3*%
X97604000Y-84252000D03*
%TD*%
D10*
%TO.P,,1*%
%TO.N,N/C*%
X94560000Y-101110000D03*
%TD*%
%TO.P,,1*%
%TO.N,N/C*%
X83617000Y-75081000D03*
%TD*%
%TO.P,,1*%
%TO.N,N/C*%
X94560000Y-90150000D03*
%TD*%
%TO.P,,1*%
%TO.N,N/C*%
X89110000Y-121680000D03*
%TD*%
%TO.P,,1*%
%TO.N,N/C*%
X91820000Y-95630000D03*
%TD*%
%TO.P,,1*%
%TO.N,N/C*%
X105537000Y-79191000D03*
%TD*%
%TO.P,,1*%
%TO.N,N/C*%
X91820000Y-102480000D03*
%TD*%
%TO.P,,1*%
%TO.N,N/C*%
X87710000Y-97000000D03*
%TD*%
%TO.P,,1*%
%TO.N,N/C*%
X105550000Y-118940000D03*
%TD*%
%TO.P,,1*%
%TO.N,N/C*%
X90450000Y-84670000D03*
%TD*%
%TO.P,,1*%
%TO.N,N/C*%
X102810000Y-120310000D03*
%TD*%
%TO.P,,1*%
%TO.N,N/C*%
X86370000Y-120310000D03*
%TD*%
%TO.P,,1*%
%TO.N,N/C*%
X104167000Y-81931000D03*
%TD*%
%TO.P,,1*%
%TO.N,N/C*%
X83600000Y-98370000D03*
%TD*%
D11*
%TO.P,,1*%
%TO.N,/GPIO44*%
X98554000Y-104826000D03*
%TD*%
D10*
%TO.P,,1*%
%TO.N,N/C*%
X112387000Y-80561000D03*
%TD*%
%TO.P,,1*%
%TO.N,N/C*%
X91837000Y-76451000D03*
%TD*%
%TO.P,,1*%
%TO.N,N/C*%
X84970000Y-102480000D03*
%TD*%
%TO.P,,1*%
%TO.N,N/C*%
X87740000Y-125790000D03*
%TD*%
%TO.P,,1*%
%TO.N,N/C*%
X94560000Y-105220000D03*
%TD*%
%TO.P,,1*%
%TO.N,N/C*%
X86340000Y-95630000D03*
%TD*%
%TO.P,,1*%
%TO.N,N/C*%
X93207000Y-79191000D03*
%TD*%
%TO.P,,1*%
%TO.N,N/C*%
X91837000Y-75081000D03*
%TD*%
%TO.P,,1*%
%TO.N,N/C*%
X105537000Y-77821000D03*
%TD*%
%TO.P,,1*%
%TO.N,N/C*%
X112387000Y-73711000D03*
%TD*%
%TO.P,,1*%
%TO.N,N/C*%
X83600000Y-109330000D03*
%TD*%
%TO.P,,1*%
%TO.N,N/C*%
X86340000Y-83300000D03*
%TD*%
%TO.P,,1*%
%TO.N,N/C*%
X86370000Y-117570000D03*
%TD*%
%TO.P,,1*%
%TO.N,N/C*%
X90467000Y-81931000D03*
%TD*%
%TO.P,,1*%
%TO.N,N/C*%
X83600000Y-106590000D03*
%TD*%
%TO.P,,1*%
%TO.N,N/C*%
X91820000Y-107960000D03*
%TD*%
%TO.P,,1*%
%TO.N,N/C*%
X91820000Y-114810000D03*
%TD*%
D11*
%TO.P,7,1*%
%TO.N,/GPIO31*%
X110204000Y-103302000D03*
%TD*%
D10*
%TO.P,,1*%
%TO.N,N/C*%
X93190000Y-110700000D03*
%TD*%
%TO.P,,1*%
%TO.N,N/C*%
X89097000Y-73711000D03*
%TD*%
%TO.P,,1*%
%TO.N,N/C*%
X93190000Y-107960000D03*
%TD*%
%TO.P,,1*%
%TO.N,N/C*%
X91820000Y-113440000D03*
%TD*%
%TO.P,,1*%
%TO.N,N/C*%
X104180000Y-121680000D03*
%TD*%
%TO.P,,1*%
%TO.N,N/C*%
X101440000Y-120310000D03*
%TD*%
%TO.P,,1*%
%TO.N,N/C*%
X112400000Y-125790000D03*
%TD*%
%TO.P,,1*%
%TO.N,N/C*%
X89080000Y-84670000D03*
%TD*%
%TO.P,,1*%
%TO.N,N/C*%
X86340000Y-110700000D03*
%TD*%
%TO.P,,1*%
%TO.N,N/C*%
X83600000Y-95630000D03*
%TD*%
%TO.P,,1*%
%TO.N,N/C*%
X89097000Y-75081000D03*
%TD*%
%TO.P,,1*%
%TO.N,N/C*%
X87710000Y-103850000D03*
%TD*%
%TO.P,,1*%
%TO.N,N/C*%
X108290000Y-117570000D03*
%TD*%
%TO.P,,1*%
%TO.N,N/C*%
X104167000Y-79191000D03*
%TD*%
%TO.P,,1*%
%TO.N,N/C*%
X95930000Y-103850000D03*
%TD*%
%TO.P,,1*%
%TO.N,N/C*%
X109660000Y-118940000D03*
%TD*%
%TO.P,,1*%
%TO.N,N/C*%
X94560000Y-112070000D03*
%TD*%
%TO.P,,1*%
%TO.N,N/C*%
X83630000Y-120310000D03*
%TD*%
%TO.P,,1*%
%TO.N,N/C*%
X95960000Y-124420000D03*
%TD*%
%TO.P,,1*%
%TO.N,N/C*%
X109647000Y-81931000D03*
%TD*%
D11*
%TO.P,1,1*%
%TO.N,/GPIO42*%
X100354000Y-104826000D03*
%TD*%
D10*
%TO.P,,1*%
%TO.N,N/C*%
X111030000Y-116200000D03*
%TD*%
%TO.P,,1*%
%TO.N,N/C*%
X84987000Y-73711000D03*
%TD*%
%TO.P,,1*%
%TO.N,N/C*%
X90480000Y-120310000D03*
%TD*%
D11*
%TO.P,3,1*%
%TO.N,/GPIO38*%
X103954000Y-104826000D03*
%TD*%
%TO.P,7,1*%
%TO.N,/CAM1_DP0*%
X111154000Y-85776000D03*
%TD*%
D10*
%TO.P,,1*%
%TO.N,N/C*%
X91820000Y-103850000D03*
%TD*%
D11*
%TO.P,,1*%
%TO.N,/SPEAKER_RN*%
X99011000Y-112678000D03*
%TD*%
D10*
%TO.P,,1*%
%TO.N,N/C*%
X106907000Y-79191000D03*
%TD*%
%TO.P,,1*%
%TO.N,N/C*%
X87727000Y-75081000D03*
%TD*%
D11*
%TO.P,8,1*%
%TO.N,/GPIO29*%
X112004000Y-103302000D03*
%TD*%
D10*
%TO.P,,1*%
%TO.N,N/C*%
X95930000Y-99740000D03*
%TD*%
%TO.P,,1*%
%TO.N,N/C*%
X93190000Y-106590000D03*
%TD*%
%TO.P,,1*%
%TO.N,N/C*%
X89110000Y-117570000D03*
%TD*%
%TO.P,,1*%
%TO.N,N/C*%
X84970000Y-94260000D03*
%TD*%
D11*
%TO.P,3,1*%
%TO.N,/CAM1_DP2*%
X103004000Y-84252000D03*
%TD*%
D10*
%TO.P,,1*%
%TO.N,N/C*%
X87710000Y-87410000D03*
%TD*%
%TO.P,,1*%
%TO.N,N/C*%
X89097000Y-77821000D03*
%TD*%
D11*
%TO.P,,1*%
%TO.N,+5V*%
X101905000Y-114224000D03*
%TD*%
D10*
%TO.P,,1*%
%TO.N,N/C*%
X94577000Y-80561000D03*
%TD*%
D11*
%TO.P,,1*%
%TO.N,+5V*%
X103705000Y-114224000D03*
%TD*%
D10*
%TO.P,,1*%
%TO.N,N/C*%
X87710000Y-107960000D03*
%TD*%
%TO.P,,1*%
%TO.N,N/C*%
X83600000Y-107960000D03*
%TD*%
%TO.P,,1*%
%TO.N,N/C*%
X89110000Y-123050000D03*
%TD*%
%TO.P,,1*%
%TO.N,N/C*%
X95930000Y-109330000D03*
%TD*%
%TO.P,,1*%
%TO.N,N/C*%
X93190000Y-102480000D03*
%TD*%
%TO.P,,1*%
%TO.N,N/C*%
X94560000Y-113440000D03*
%TD*%
%TO.P,,1*%
%TO.N,N/C*%
X90450000Y-106590000D03*
%TD*%
D11*
%TO.P,,1*%
%TO.N,/USB3_D+*%
X110441000Y-112678000D03*
%TD*%
%TO.P,1,1*%
%TO.N,/CAM1_DP3*%
X100354000Y-85776000D03*
%TD*%
D10*
%TO.P,,1*%
%TO.N,N/C*%
X98700000Y-117570000D03*
%TD*%
%TO.P,,1*%
%TO.N,N/C*%
X95930000Y-95630000D03*
%TD*%
D11*
%TO.P,,1*%
%TO.N,GND*%
X108536000Y-112678000D03*
%TD*%
D10*
%TO.P,,1*%
%TO.N,N/C*%
X90450000Y-83300000D03*
%TD*%
%TO.P,,1*%
%TO.N,N/C*%
X112400000Y-124420000D03*
%TD*%
%TO.P,,1*%
%TO.N,N/C*%
X83630000Y-121680000D03*
%TD*%
D11*
%TO.P,4,1*%
%TO.N,/GPIO36*%
X105754000Y-104826000D03*
%TD*%
D10*
%TO.P,,1*%
%TO.N,N/C*%
X87710000Y-99740000D03*
%TD*%
%TO.P,,1*%
%TO.N,N/C*%
X84970000Y-92890000D03*
%TD*%
%TO.P,,1*%
%TO.N,N/C*%
X86340000Y-87410000D03*
%TD*%
D11*
%TO.P,5,1*%
%TO.N,/CAM1_CN*%
X106604000Y-84252000D03*
%TD*%
D10*
%TO.P,,1*%
%TO.N,N/C*%
X101427000Y-79191000D03*
%TD*%
%TO.P,,1*%
%TO.N,N/C*%
X94560000Y-87410000D03*
%TD*%
%TO.P,,1*%
%TO.N,N/C*%
X93190000Y-97000000D03*
%TD*%
%TO.P,,1*%
%TO.N,N/C*%
X93220000Y-116200000D03*
%TD*%
%TO.P,,1*%
%TO.N,N/C*%
X95930000Y-84670000D03*
%TD*%
%TO.P,,1*%
%TO.N,N/C*%
X83600000Y-83300000D03*
%TD*%
%TO.P,,1*%
%TO.N,N/C*%
X111017000Y-79191000D03*
%TD*%
%TO.P,,1*%
%TO.N,N/C*%
X98687000Y-75081000D03*
%TD*%
%TO.P,12,1*%
%TO.N,N/C*%
X97330000Y-110698200D03*
%TD*%
%TO.P,,1*%
%TO.N,N/C*%
X86340000Y-97000000D03*
%TD*%
D11*
%TO.P,5,1*%
%TO.N,GND*%
X107554000Y-85776000D03*
%TD*%
D10*
%TO.P,,1*%
%TO.N,N/C*%
X86340000Y-92890000D03*
%TD*%
%TO.P,,1*%
%TO.N,N/C*%
X91820000Y-98370000D03*
%TD*%
%TO.P,,1*%
%TO.N,N/C*%
X93190000Y-113440000D03*
%TD*%
%TO.P,,1*%
%TO.N,N/C*%
X91820000Y-88780000D03*
%TD*%
%TO.P,,1*%
%TO.N,N/C*%
X94560000Y-107960000D03*
%TD*%
%TO.P,,1*%
%TO.N,N/C*%
X100070000Y-125790000D03*
%TD*%
%TO.P,,1*%
%TO.N,N/C*%
X90450000Y-103850000D03*
%TD*%
%TO.P,,1*%
%TO.N,N/C*%
X87727000Y-76451000D03*
%TD*%
%TO.P,,1*%
%TO.N,N/C*%
X91820000Y-87410000D03*
%TD*%
%TO.P,,1*%
%TO.N,N/C*%
X83630000Y-118940000D03*
%TD*%
%TO.P,,1*%
%TO.N,N/C*%
X94560000Y-91520000D03*
%TD*%
%TO.P,,1*%
%TO.N,N/C*%
X109660000Y-125790000D03*
%TD*%
%TO.P,,1*%
%TO.N,N/C*%
X87710000Y-102480000D03*
%TD*%
%TO.P,,1*%
%TO.N,N/C*%
X100057000Y-80561000D03*
%TD*%
%TO.P,,1*%
%TO.N,N/C*%
X87727000Y-80561000D03*
%TD*%
%TO.P,,1*%
%TO.N,N/C*%
X111030000Y-120310000D03*
%TD*%
%TO.P,,1*%
%TO.N,N/C*%
X84970000Y-106590000D03*
%TD*%
%TO.P,,1*%
%TO.N,N/C*%
X87710000Y-83300000D03*
%TD*%
%TO.P,,1*%
%TO.N,N/C*%
X84987000Y-79191000D03*
%TD*%
%TO.P,,1*%
%TO.N,N/C*%
X95930000Y-110700000D03*
%TD*%
%TO.P,,1*%
%TO.N,N/C*%
X112387000Y-79191000D03*
%TD*%
%TO.P,,1*%
%TO.N,N/C*%
X89080000Y-92890000D03*
%TD*%
%TO.P,,1*%
%TO.N,N/C*%
X106920000Y-120310000D03*
%TD*%
%TO.P,,1*%
%TO.N,N/C*%
X94577000Y-81931000D03*
%TD*%
%TO.P,,1*%
%TO.N,N/C*%
X93190000Y-105220000D03*
%TD*%
%TO.P,,1*%
%TO.N,N/C*%
X86370000Y-116200000D03*
%TD*%
%TO.P,,1*%
%TO.N,N/C*%
X83600000Y-99740000D03*
%TD*%
%TO.P,,1*%
%TO.N,N/C*%
X87710000Y-92890000D03*
%TD*%
D11*
%TO.P,,1*%
%TO.N,GND*%
X100916000Y-112678000D03*
%TD*%
D10*
%TO.P,,1*%
%TO.N,N/C*%
X90467000Y-77821000D03*
%TD*%
%TO.P,,1*%
%TO.N,N/C*%
X84970000Y-83300000D03*
%TD*%
%TO.P,,1*%
%TO.N,N/C*%
X108290000Y-123050000D03*
%TD*%
%TO.P,,1*%
%TO.N,N/C*%
X93190000Y-91520000D03*
%TD*%
%TO.P,,1*%
%TO.N,N/C*%
X102797000Y-76451000D03*
%TD*%
%TO.P,,1*%
%TO.N,N/C*%
X104180000Y-120310000D03*
%TD*%
%TO.P,,1*%
%TO.N,N/C*%
X86340000Y-109330000D03*
%TD*%
D11*
%TO.P,,1*%
%TO.N,/USB4_D+*%
X107620000Y-114224000D03*
%TD*%
%TO.P,7,1*%
%TO.N,/GPIO30*%
X111154000Y-104826000D03*
%TD*%
D10*
%TO.P,,1*%
%TO.N,N/C*%
X83600000Y-84670000D03*
%TD*%
%TO.P,,1*%
%TO.N,N/C*%
X112387000Y-76451000D03*
%TD*%
%TO.P,,1*%
%TO.N,N/C*%
X83600000Y-87410000D03*
%TD*%
%TO.P,,1*%
%TO.N,N/C*%
X109647000Y-79191000D03*
%TD*%
%TO.P,,1*%
%TO.N,N/C*%
X94590000Y-124420000D03*
%TD*%
D11*
%TO.P,,1*%
%TO.N,+5V*%
X105505000Y-114224000D03*
%TD*%
D10*
%TO.P,,1*%
%TO.N,N/C*%
X101440000Y-116200000D03*
%TD*%
%TO.P,,1*%
%TO.N,N/C*%
X86340000Y-101110000D03*
%TD*%
%TO.P,,1*%
%TO.N,N/C*%
X104167000Y-76451000D03*
%TD*%
%TO.P,,1*%
%TO.N,N/C*%
X90450000Y-99740000D03*
%TD*%
%TO.P,,1*%
%TO.N,N/C*%
X106920000Y-123050000D03*
%TD*%
%TO.P,,1*%
%TO.N,N/C*%
X105550000Y-117570000D03*
%TD*%
%TO.P,,1*%
%TO.N,N/C*%
X95947000Y-76451000D03*
%TD*%
%TO.P,,1*%
%TO.N,N/C*%
X84970000Y-103850000D03*
%TD*%
%TO.P,,1*%
%TO.N,N/C*%
X90450000Y-112070000D03*
%TD*%
%TO.P,,1*%
%TO.N,N/C*%
X97317000Y-80561000D03*
%TD*%
%TO.P,,1*%
%TO.N,N/C*%
X91850000Y-118940000D03*
%TD*%
%TO.P,,1*%
%TO.N,N/C*%
X91837000Y-73711000D03*
%TD*%
D11*
%TO.P,2,1*%
%TO.N,/GPIO41*%
X101204000Y-103302000D03*
%TD*%
D10*
%TO.P,,1*%
%TO.N,N/C*%
X84987000Y-81931000D03*
%TD*%
%TO.P,,1*%
%TO.N,N/C*%
X102810000Y-125790000D03*
%TD*%
%TO.P,,1*%
%TO.N,N/C*%
X104180000Y-118940000D03*
%TD*%
%TO.P,,1*%
%TO.N,N/C*%
X93207000Y-80561000D03*
%TD*%
%TO.P,,1*%
%TO.N,N/C*%
X101427000Y-80561000D03*
%TD*%
%TO.P,,1*%
%TO.N,N/C*%
X101427000Y-77821000D03*
%TD*%
%TO.P,,1*%
%TO.N,N/C*%
X104180000Y-123050000D03*
%TD*%
%TO.P,,1*%
%TO.N,N/C*%
X86340000Y-94260000D03*
%TD*%
%TO.P,,1*%
%TO.N,N/C*%
X112400000Y-118940000D03*
%TD*%
%TO.P,,1*%
%TO.N,N/C*%
X94560000Y-106590000D03*
%TD*%
%TO.P,,1*%
%TO.N,N/C*%
X84987000Y-80561000D03*
%TD*%
%TO.P,,1*%
%TO.N,N/C*%
X111017000Y-80561000D03*
%TD*%
%TO.P,,1*%
%TO.N,N/C*%
X90480000Y-117570000D03*
%TD*%
%TO.P,,1*%
%TO.N,N/C*%
X87740000Y-117570000D03*
%TD*%
%TO.P,,1*%
%TO.N,N/C*%
X94560000Y-94260000D03*
%TD*%
%TO.P,,1*%
%TO.N,N/C*%
X106907000Y-75081000D03*
%TD*%
%TO.P,,1*%
%TO.N,N/C*%
X100057000Y-79191000D03*
%TD*%
%TO.P,,1*%
%TO.N,N/C*%
X94577000Y-75081000D03*
%TD*%
%TO.P,,1*%
%TO.N,N/C*%
X90450000Y-94260000D03*
%TD*%
%TO.P,,1*%
%TO.N,N/C*%
X105537000Y-75081000D03*
%TD*%
%TO.P,,1*%
%TO.N,N/C*%
X93220000Y-123050000D03*
%TD*%
%TO.P,,1*%
%TO.N,N/C*%
X94577000Y-79191000D03*
%TD*%
%TO.P,,1*%
%TO.N,N/C*%
X87740000Y-124420000D03*
%TD*%
%TO.P,,1*%
%TO.N,N/C*%
X89080000Y-105220000D03*
%TD*%
D11*
%TO.P,8,1*%
%TO.N,/GPIO28*%
X112954000Y-104826000D03*
%TD*%
D10*
%TO.P,,1*%
%TO.N,N/C*%
X94590000Y-125790000D03*
%TD*%
%TO.P,,1*%
%TO.N,N/C*%
X105550000Y-125790000D03*
%TD*%
%TO.P,,1*%
%TO.N,N/C*%
X93220000Y-121680000D03*
%TD*%
%TO.P,,1*%
%TO.N,N/C*%
X95930000Y-113440000D03*
%TD*%
%TO.P,,1*%
%TO.N,N/C*%
X97317000Y-77821000D03*
%TD*%
%TO.P,,1*%
%TO.N,N/C*%
X83600000Y-103850000D03*
%TD*%
%TO.P,,1*%
%TO.N,N/C*%
X95930000Y-98370000D03*
%TD*%
D11*
%TO.P,,1*%
%TO.N,+5V*%
X104726000Y-112678000D03*
%TD*%
D10*
%TO.P,,1*%
%TO.N,N/C*%
X87710000Y-91520000D03*
%TD*%
%TO.P,,1*%
%TO.N,N/C*%
X90450000Y-91520000D03*
%TD*%
%TO.P,,1*%
%TO.N,N/C*%
X91820000Y-101110000D03*
%TD*%
D11*
%TO.P,8,1*%
%TO.N,/CAM1_DN0*%
X112004000Y-84252000D03*
%TD*%
D10*
%TO.P,,1*%
%TO.N,N/C*%
X100070000Y-123050000D03*
%TD*%
%TO.P,,1*%
%TO.N,N/C*%
X101440000Y-121680000D03*
%TD*%
%TO.P,,1*%
%TO.N,N/C*%
X85000000Y-123050000D03*
%TD*%
%TO.P,,1*%
%TO.N,N/C*%
X95930000Y-114810000D03*
%TD*%
%TO.P,,1*%
%TO.N,N/C*%
X98687000Y-80561000D03*
%TD*%
%TO.P,,1*%
%TO.N,N/C*%
X90450000Y-97000000D03*
%TD*%
%TO.P,,1*%
%TO.N,N/C*%
X95930000Y-102480000D03*
%TD*%
%TO.P,,1*%
%TO.N,N/C*%
X84970000Y-86040000D03*
%TD*%
%TO.P,,1*%
%TO.N,N/C*%
X106920000Y-121680000D03*
%TD*%
D11*
%TO.P,4,1*%
%TO.N,/CAM1_CP*%
X105754000Y-85776000D03*
%TD*%
D10*
%TO.P,10,1*%
%TO.N,N/C*%
X97330000Y-107958200D03*
%TD*%
%TO.P,,1*%
%TO.N,N/C*%
X108290000Y-125790000D03*
%TD*%
%TO.P,,1*%
%TO.N,N/C*%
X89080000Y-87410000D03*
%TD*%
%TO.P,,1*%
%TO.N,N/C*%
X93190000Y-98370000D03*
%TD*%
%TO.P,,1*%
%TO.N,N/C*%
X89110000Y-125790000D03*
%TD*%
%TO.P,,1*%
%TO.N,N/C*%
X89080000Y-103850000D03*
%TD*%
%TO.P,,1*%
%TO.N,N/C*%
X91820000Y-84670000D03*
%TD*%
%TO.P,,1*%
%TO.N,N/C*%
X91820000Y-105220000D03*
%TD*%
%TO.P,,1*%
%TO.N,N/C*%
X94590000Y-120310000D03*
%TD*%
%TO.P,,1*%
%TO.N,N/C*%
X83630000Y-123050000D03*
%TD*%
%TO.P,,1*%
%TO.N,N/C*%
X112400000Y-123050000D03*
%TD*%
%TO.P,,1*%
%TO.N,N/C*%
X106920000Y-117570000D03*
%TD*%
D11*
%TO.P,2,1*%
%TO.N,GND*%
X102154000Y-85776000D03*
%TD*%
D10*
%TO.P,,1*%
%TO.N,N/C*%
X89097000Y-79191000D03*
%TD*%
%TO.P,,1*%
%TO.N,N/C*%
X105537000Y-76451000D03*
%TD*%
D11*
%TO.P,6,1*%
%TO.N,/GPIO32*%
X109354000Y-104826000D03*
%TD*%
D10*
%TO.P,,1*%
%TO.N,N/C*%
X86340000Y-99740000D03*
%TD*%
%TO.P,,1*%
%TO.N,N/C*%
X97330000Y-120310000D03*
%TD*%
%TO.P,,1*%
%TO.N,N/C*%
X91820000Y-92890000D03*
%TD*%
%TO.P,,1*%
%TO.N,N/C*%
X106907000Y-81931000D03*
%TD*%
%TO.P,,1*%
%TO.N,N/C*%
X95930000Y-94260000D03*
%TD*%
%TO.P,,1*%
%TO.N,N/C*%
X108277000Y-79191000D03*
%TD*%
%TO.P,,1*%
%TO.N,N/C*%
X90467000Y-76451000D03*
%TD*%
%TO.P,,1*%
%TO.N,N/C*%
X86340000Y-105220000D03*
%TD*%
%TO.P,,1*%
%TO.N,N/C*%
X90450000Y-101110000D03*
%TD*%
%TO.P,,1*%
%TO.N,N/C*%
X102810000Y-124420000D03*
%TD*%
%TO.P,,1*%
%TO.N,N/C*%
X91820000Y-91520000D03*
%TD*%
%TO.P,,1*%
%TO.N,N/C*%
X91837000Y-79191000D03*
%TD*%
%TO.P,,1*%
%TO.N,N/C*%
X93190000Y-95630000D03*
%TD*%
%TO.P,,1*%
%TO.N,N/C*%
X97330000Y-117570000D03*
%TD*%
%TO.P,,1*%
%TO.N,N/C*%
X90450000Y-110700000D03*
%TD*%
%TO.P,,1*%
%TO.N,N/C*%
X84970000Y-110700000D03*
%TD*%
%TO.P,,1*%
%TO.N,N/C*%
X89110000Y-116200000D03*
%TD*%
%TO.P,,1*%
%TO.N,N/C*%
X91837000Y-77821000D03*
%TD*%
%TO.P,,1*%
%TO.N,N/C*%
X86340000Y-88780000D03*
%TD*%
%TO.P,,1*%
%TO.N,N/C*%
X97330000Y-124420000D03*
%TD*%
%TO.P,,1*%
%TO.N,N/C*%
X89080000Y-83300000D03*
%TD*%
%TO.P,,1*%
%TO.N,N/C*%
X94560000Y-109330000D03*
%TD*%
%TO.P,,1*%
%TO.N,N/C*%
X91850000Y-117570000D03*
%TD*%
%TO.P,,1*%
%TO.N,N/C*%
X108290000Y-116200000D03*
%TD*%
%TO.P,,1*%
%TO.N,N/C*%
X108277000Y-77821000D03*
%TD*%
%TO.P,,1*%
%TO.N,N/C*%
X97330000Y-125790000D03*
%TD*%
%TO.P,,1*%
%TO.N,N/C*%
X95960000Y-123050000D03*
%TD*%
%TO.P,,1*%
%TO.N,N/C*%
X109647000Y-80561000D03*
%TD*%
%TO.P,14,1*%
%TO.N,N/C*%
X97330000Y-113438200D03*
%TD*%
%TO.P,,1*%
%TO.N,N/C*%
X87727000Y-81931000D03*
%TD*%
D11*
%TO.P,,1*%
%TO.N,/GPIO45*%
X97604000Y-103302000D03*
%TD*%
D10*
%TO.P,,1*%
%TO.N,N/C*%
X90467000Y-73711000D03*
%TD*%
%TO.P,,1*%
%TO.N,N/C*%
X95960000Y-118940000D03*
%TD*%
%TO.P,,1*%
%TO.N,N/C*%
X94560000Y-98370000D03*
%TD*%
%TO.P,,1*%
%TO.N,N/C*%
X93207000Y-77821000D03*
%TD*%
%TO.P,,1*%
%TO.N,N/C*%
X100057000Y-76451000D03*
%TD*%
%TO.P,,1*%
%TO.N,N/C*%
X90480000Y-124420000D03*
%TD*%
%TO.P,,1*%
%TO.N,N/C*%
X111017000Y-81931000D03*
%TD*%
%TO.P,,1*%
%TO.N,N/C*%
X112400000Y-121680000D03*
%TD*%
%TO.P,,1*%
%TO.N,N/C*%
X97317000Y-73711000D03*
%TD*%
%TO.P,,1*%
%TO.N,N/C*%
X83600000Y-113440000D03*
%TD*%
%TO.P,,1*%
%TO.N,N/C*%
X109647000Y-77821000D03*
%TD*%
%TO.P,,1*%
%TO.N,N/C*%
X87740000Y-120310000D03*
%TD*%
%TO.P,,1*%
%TO.N,N/C*%
X89080000Y-94260000D03*
%TD*%
%TO.P,,1*%
%TO.N,N/C*%
X87740000Y-116200000D03*
%TD*%
%TO.P,,1*%
%TO.N,N/C*%
X97330000Y-123050000D03*
%TD*%
%TO.P,,1*%
%TO.N,N/C*%
X104167000Y-73711000D03*
%TD*%
%TO.P,,1*%
%TO.N,N/C*%
X112400000Y-116200000D03*
%TD*%
%TO.P,,1*%
%TO.N,N/C*%
X112400000Y-117570000D03*
%TD*%
%TO.P,,1*%
%TO.N,N/C*%
X91820000Y-109330000D03*
%TD*%
%TO.P,,1*%
%TO.N,N/C*%
X111017000Y-76451000D03*
%TD*%
%TO.P,,1*%
%TO.N,N/C*%
X106907000Y-73711000D03*
%TD*%
%TO.P,,1*%
%TO.N,N/C*%
X93190000Y-109330000D03*
%TD*%
%TO.P,,1*%
%TO.N,N/C*%
X86340000Y-98370000D03*
%TD*%
D11*
%TO.P,,1*%
%TO.N,+3V3*%
X98554000Y-85776000D03*
%TD*%
D10*
%TO.P,,1*%
%TO.N,N/C*%
X94560000Y-83300000D03*
%TD*%
%TO.P,,1*%
%TO.N,N/C*%
X109660000Y-124420000D03*
%TD*%
%TO.P,,1*%
%TO.N,N/C*%
X90450000Y-86040000D03*
%TD*%
%TO.P,,1*%
%TO.N,N/C*%
X91820000Y-86040000D03*
%TD*%
%TO.P,,1*%
%TO.N,N/C*%
X109660000Y-117570000D03*
%TD*%
%TO.P,,1*%
%TO.N,N/C*%
X87710000Y-84670000D03*
%TD*%
%TO.P,,1*%
%TO.N,N/C*%
X95930000Y-101110000D03*
%TD*%
%TO.P,,1*%
%TO.N,N/C*%
X89080000Y-91520000D03*
%TD*%
%TO.P,,1*%
%TO.N,N/C*%
X94560000Y-95630000D03*
%TD*%
%TO.P,,1*%
%TO.N,N/C*%
X111017000Y-77821000D03*
%TD*%
%TO.P,,1*%
%TO.N,N/C*%
X91837000Y-81931000D03*
%TD*%
D11*
%TO.P,,1*%
%TO.N,/USB4_D-*%
X106631000Y-112678000D03*
%TD*%
D10*
%TO.P,,1*%
%TO.N,N/C*%
X95930000Y-112070000D03*
%TD*%
%TO.P,,1*%
%TO.N,N/C*%
X86357000Y-79191000D03*
%TD*%
%TO.P,,1*%
%TO.N,N/C*%
X83617000Y-73711000D03*
%TD*%
%TO.P,,1*%
%TO.N,N/C*%
X102797000Y-81931000D03*
%TD*%
%TO.P,,1*%
%TO.N,N/C*%
X95930000Y-91520000D03*
%TD*%
%TO.P,,1*%
%TO.N,N/C*%
X93220000Y-120310000D03*
%TD*%
%TO.P,,1*%
%TO.N,N/C*%
X87710000Y-112070000D03*
%TD*%
%TO.P,,1*%
%TO.N,N/C*%
X87727000Y-77821000D03*
%TD*%
%TO.P,,1*%
%TO.N,N/C*%
X95930000Y-105220000D03*
%TD*%
%TO.P,,1*%
%TO.N,N/C*%
X102810000Y-117570000D03*
%TD*%
%TO.P,,1*%
%TO.N,N/C*%
X105550000Y-121680000D03*
%TD*%
%TO.P,,1*%
%TO.N,N/C*%
X102797000Y-80561000D03*
%TD*%
%TO.P,,1*%
%TO.N,N/C*%
X86340000Y-84670000D03*
%TD*%
%TO.P,,1*%
%TO.N,N/C*%
X83617000Y-79191000D03*
%TD*%
%TO.P,13,1*%
%TO.N,N/C*%
X97330000Y-112068200D03*
%TD*%
%TO.P,,1*%
%TO.N,N/C*%
X89097000Y-81931000D03*
%TD*%
%TO.P,,1*%
%TO.N,N/C*%
X94560000Y-114810000D03*
%TD*%
%TO.P,,1*%
%TO.N,N/C*%
X111017000Y-75081000D03*
%TD*%
%TO.P,,1*%
%TO.N,N/C*%
X95960000Y-120310000D03*
%TD*%
%TO.P,,1*%
%TO.N,N/C*%
X83600000Y-88780000D03*
%TD*%
D11*
%TO.P,,1*%
%TO.N,/USB3_D-*%
X109525000Y-114224000D03*
%TD*%
D10*
%TO.P,,1*%
%TO.N,N/C*%
X83600000Y-90150000D03*
%TD*%
%TO.P,,1*%
%TO.N,N/C*%
X90480000Y-125790000D03*
%TD*%
%TO.P,,1*%
%TO.N,N/C*%
X93207000Y-76451000D03*
%TD*%
%TO.P,,1*%
%TO.N,N/C*%
X98700000Y-118940000D03*
%TD*%
%TO.P,,1*%
%TO.N,N/C*%
X94590000Y-123050000D03*
%TD*%
D11*
%TO.P,3,1*%
%TO.N,/GPIO39*%
X103004000Y-103302000D03*
%TD*%
D10*
%TO.P,,1*%
%TO.N,N/C*%
X86340000Y-112070000D03*
%TD*%
%TO.P,,1*%
%TO.N,N/C*%
X83617000Y-81931000D03*
%TD*%
%TO.P,,1*%
%TO.N,N/C*%
X85000000Y-117570000D03*
%TD*%
%TO.P,,1*%
%TO.N,N/C*%
X85000000Y-124420000D03*
%TD*%
%TO.P,,1*%
%TO.N,N/C*%
X83600000Y-102480000D03*
%TD*%
%TO.P,,1*%
%TO.N,N/C*%
X89080000Y-107960000D03*
%TD*%
%TO.P,,1*%
%TO.N,N/C*%
X83600000Y-86040000D03*
%TD*%
%TO.P,,1*%
%TO.N,N/C*%
X95947000Y-73711000D03*
%TD*%
%TO.P,,1*%
%TO.N,N/C*%
X89080000Y-109330000D03*
%TD*%
D11*
%TO.P,4,1*%
%TO.N,/GPIO37*%
X104804000Y-103302000D03*
%TD*%
D10*
%TO.P,,1*%
%TO.N,N/C*%
X98700000Y-116200000D03*
%TD*%
%TO.P,,1*%
%TO.N,N/C*%
X94577000Y-77821000D03*
%TD*%
%TO.P,,1*%
%TO.N,N/C*%
X89080000Y-112070000D03*
%TD*%
%TO.P,,1*%
%TO.N,N/C*%
X89110000Y-120310000D03*
%TD*%
%TO.P,,1*%
%TO.N,N/C*%
X84987000Y-76451000D03*
%TD*%
%TO.P,,1*%
%TO.N,N/C*%
X95930000Y-106590000D03*
%TD*%
%TO.P,,1*%
%TO.N,N/C*%
X85000000Y-116200000D03*
%TD*%
%TO.P,,1*%
%TO.N,N/C*%
X86340000Y-106590000D03*
%TD*%
%TO.P,,1*%
%TO.N,N/C*%
X100070000Y-117570000D03*
%TD*%
%TO.P,,1*%
%TO.N,N/C*%
X84970000Y-87410000D03*
%TD*%
%TO.P,,1*%
%TO.N,N/C*%
X91820000Y-97000000D03*
%TD*%
%TO.P,,1*%
%TO.N,N/C*%
X93207000Y-73711000D03*
%TD*%
%TO.P,,1*%
%TO.N,N/C*%
X86340000Y-86040000D03*
%TD*%
%TO.P,,1*%
%TO.N,N/C*%
X97317000Y-75081000D03*
%TD*%
%TO.P,,1*%
%TO.N,N/C*%
X87710000Y-86040000D03*
%TD*%
%TO.P,,1*%
%TO.N,N/C*%
X86340000Y-91520000D03*
%TD*%
%TO.P,,1*%
%TO.N,N/C*%
X95960000Y-121680000D03*
%TD*%
%TO.P,,1*%
%TO.N,N/C*%
X108277000Y-73711000D03*
%TD*%
%TO.P,,1*%
%TO.N,N/C*%
X106920000Y-118940000D03*
%TD*%
%TO.P,,1*%
%TO.N,N/C*%
X90450000Y-113440000D03*
%TD*%
%TO.P,,1*%
%TO.N,N/C*%
X93190000Y-103850000D03*
%TD*%
%TO.P,,1*%
%TO.N,N/C*%
X90450000Y-105220000D03*
%TD*%
%TO.P,,1*%
%TO.N,N/C*%
X89080000Y-95630000D03*
%TD*%
%TO.P,,1*%
%TO.N,N/C*%
X90480000Y-116200000D03*
%TD*%
%TO.P,,1*%
%TO.N,N/C*%
X84970000Y-88780000D03*
%TD*%
%TO.P,,1*%
%TO.N,N/C*%
X108277000Y-75081000D03*
%TD*%
%TO.P,,1*%
%TO.N,N/C*%
X84970000Y-98370000D03*
%TD*%
%TO.P,,1*%
%TO.N,N/C*%
X100070000Y-124420000D03*
%TD*%
%TO.P,,1*%
%TO.N,N/C*%
X109660000Y-121680000D03*
%TD*%
%TO.P,,1*%
%TO.N,N/C*%
X93190000Y-101110000D03*
%TD*%
%TO.P,,1*%
%TO.N,N/C*%
X95947000Y-80561000D03*
%TD*%
%TO.P,,1*%
%TO.N,N/C*%
X93190000Y-86040000D03*
%TD*%
%TO.P,,1*%
%TO.N,N/C*%
X83617000Y-76451000D03*
%TD*%
%TO.P,,1*%
%TO.N,N/C*%
X105550000Y-124420000D03*
%TD*%
%TO.P,,1*%
%TO.N,N/C*%
X89080000Y-98370000D03*
%TD*%
%TO.P,,1*%
%TO.N,N/C*%
X93220000Y-124420000D03*
%TD*%
%TO.P,,1*%
%TO.N,N/C*%
X94560000Y-103850000D03*
%TD*%
%TO.P,,1*%
%TO.N,N/C*%
X84970000Y-99740000D03*
%TD*%
%TO.P,,1*%
%TO.N,N/C*%
X95960000Y-125790000D03*
%TD*%
%TO.P,,1*%
%TO.N,N/C*%
X95930000Y-87410000D03*
%TD*%
%TO.P,,1*%
%TO.N,N/C*%
X111030000Y-125790000D03*
%TD*%
%TO.P,,1*%
%TO.N,N/C*%
X100070000Y-121680000D03*
%TD*%
D12*
%TO.P,U1,1,SPK_LP*%
%TO.N,/SPEAKER_LP*%
X116485000Y-111780000D03*
%TO.P,U1,3,SPK_LN*%
%TO.N,/SPEAKER_LN*%
X116485000Y-110980000D03*
%TO.P,U1,5,GND*%
%TO.N,GND*%
X116485000Y-110180000D03*
%TO.P,U1,7,USB3_DP*%
%TO.N,/USB3_D+*%
X116485000Y-109380000D03*
%TO.P,U1,9,USB3_DM*%
%TO.N,/USB3_D-*%
X116485000Y-108580000D03*
%TO.P,U1,11,GND*%
%TO.N,GND*%
X116485000Y-107780000D03*
%TO.P,U1,13,USB4_DP*%
%TO.N,/USB4_D+*%
X116485000Y-106980000D03*
%TO.P,U1,15,USB4_DM*%
%TO.N,/USB4_D-*%
X116485000Y-106180000D03*
%TO.P,U1,17,3V3*%
%TO.N,+3V3*%
X116485000Y-102180000D03*
%TO.P,U1,19,3V3*%
X116485000Y-101380000D03*
%TO.P,U1,21,GND*%
%TO.N,GND*%
X116485000Y-100580000D03*
%TO.P,U1,23,CAM1_DP3*%
%TO.N,/CAM1_DP3*%
X116485000Y-99780000D03*
%TO.P,U1,25,CAM1_DN3*%
%TO.N,/CAM1_DN3*%
X116485000Y-98980000D03*
%TO.P,U1,27,GND*%
%TO.N,GND*%
X116485000Y-98180000D03*
%TO.P,U1,29,CAM1_DP2*%
%TO.N,/CAM1_DP2*%
X116485000Y-97380000D03*
%TO.P,U1,31,CAM1_DN2*%
%TO.N,/CAM1_DN2*%
X116485000Y-96580000D03*
%TO.P,U1,33,GND*%
%TO.N,GND*%
X116485000Y-95780000D03*
%TO.P,U1,35,CAM1_CP*%
%TO.N,/CAM1_CP*%
X116485000Y-94980000D03*
%TO.P,U1,37,CAM1_CN*%
%TO.N,/CAM1_CN*%
X116485000Y-94180000D03*
%TO.P,U1,39,GND*%
%TO.N,GND*%
X116485000Y-93380000D03*
%TO.P,U1,41,CAM1_DP1*%
%TO.N,/CAM1_DP1*%
X116485000Y-92580000D03*
%TO.P,U1,43,CAM1_DN1*%
%TO.N,/CAM1_DN1*%
X116485000Y-91780000D03*
%TO.P,U1,45,GND*%
%TO.N,GND*%
X116485000Y-90980000D03*
%TO.P,U1,47,CAM1_DP0*%
%TO.N,/CAM1_DP0*%
X116485000Y-90180000D03*
%TO.P,U1,49,CAM1_DN0*%
%TO.N,/CAM1_DN0*%
X116485000Y-89380000D03*
%TO.P,U1,51,GND*%
%TO.N,GND*%
X116485000Y-88580000D03*
%TD*%
D10*
%TO.P,9,1*%
%TO.N,N/C*%
X97330000Y-106564600D03*
%TD*%
%TO.P,,1*%
%TO.N,N/C*%
X109647000Y-76451000D03*
%TD*%
%TO.P,,1*%
%TO.N,N/C*%
X86340000Y-107960000D03*
%TD*%
%TO.P,,1*%
%TO.N,N/C*%
X100057000Y-75081000D03*
%TD*%
%TO.P,,1*%
%TO.N,N/C*%
X89097000Y-80561000D03*
%TD*%
%TO.P,,1*%
%TO.N,N/C*%
X104180000Y-116200000D03*
%TD*%
%TO.P,,1*%
%TO.N,N/C*%
X91820000Y-94260000D03*
%TD*%
%TO.P,,1*%
%TO.N,N/C*%
X100070000Y-120310000D03*
%TD*%
%TO.P,,1*%
%TO.N,N/C*%
X90450000Y-88780000D03*
%TD*%
%TO.P,,1*%
%TO.N,N/C*%
X86340000Y-113440000D03*
%TD*%
%TO.P,,1*%
%TO.N,N/C*%
X87710000Y-110700000D03*
%TD*%
%TO.P,,1*%
%TO.N,N/C*%
X83600000Y-91520000D03*
%TD*%
%TO.P,,1*%
%TO.N,N/C*%
X101427000Y-81931000D03*
%TD*%
%TO.P,,1*%
%TO.N,N/C*%
X106907000Y-76451000D03*
%TD*%
%TO.P,,1*%
%TO.N,N/C*%
X98700000Y-123050000D03*
%TD*%
D11*
%TO.P,5,1*%
%TO.N,/GPIO34*%
X107554000Y-104826000D03*
%TD*%
D10*
%TO.P,,1*%
%TO.N,N/C*%
X84970000Y-84670000D03*
%TD*%
%TO.P,,1*%
%TO.N,N/C*%
X86340000Y-114810000D03*
%TD*%
%TO.P,,1*%
%TO.N,N/C*%
X89080000Y-110700000D03*
%TD*%
%TO.P,,1*%
%TO.N,N/C*%
X83630000Y-124420000D03*
%TD*%
D11*
%TO.P,2,1*%
%TO.N,/GPIO40*%
X102154000Y-104826000D03*
%TD*%
D10*
%TO.P,,1*%
%TO.N,N/C*%
X94560000Y-88780000D03*
%TD*%
%TO.P,,1*%
%TO.N,N/C*%
X89080000Y-106590000D03*
%TD*%
%TO.P,,1*%
%TO.N,N/C*%
X85000000Y-120310000D03*
%TD*%
%TO.P,,1*%
%TO.N,N/C*%
X101440000Y-118940000D03*
%TD*%
%TO.P,,1*%
%TO.N,N/C*%
X97317000Y-79191000D03*
%TD*%
%TO.P,,1*%
%TO.N,N/C*%
X84970000Y-105220000D03*
%TD*%
%TO.P,,1*%
%TO.N,N/C*%
X95930000Y-107960000D03*
%TD*%
%TO.P,,1*%
%TO.N,N/C*%
X94560000Y-84670000D03*
%TD*%
%TO.P,,1*%
%TO.N,N/C*%
X105537000Y-80561000D03*
%TD*%
%TO.P,,1*%
%TO.N,N/C*%
X91820000Y-83300000D03*
%TD*%
%TO.P,,1*%
%TO.N,N/C*%
X91820000Y-112070000D03*
%TD*%
%TO.P,,1*%
%TO.N,N/C*%
X102797000Y-75081000D03*
%TD*%
%TO.P,,1*%
%TO.N,N/C*%
X89080000Y-97000000D03*
%TD*%
%TO.P,,1*%
%TO.N,N/C*%
X87710000Y-114810000D03*
%TD*%
%TO.P,,1*%
%TO.N,N/C*%
X102810000Y-123050000D03*
%TD*%
%TO.P,,1*%
%TO.N,N/C*%
X98687000Y-77821000D03*
%TD*%
%TO.P,,1*%
%TO.N,N/C*%
X94560000Y-86040000D03*
%TD*%
%TO.P,,1*%
%TO.N,N/C*%
X108290000Y-124420000D03*
%TD*%
%TO.P,,1*%
%TO.N,N/C*%
X109660000Y-116200000D03*
%TD*%
%TO.P,,1*%
%TO.N,N/C*%
X89110000Y-124420000D03*
%TD*%
%TO.P,,1*%
%TO.N,N/C*%
X83600000Y-105220000D03*
%TD*%
%TO.P,,1*%
%TO.N,N/C*%
X90450000Y-98370000D03*
%TD*%
%TO.P,,1*%
%TO.N,N/C*%
X95960000Y-116200000D03*
%TD*%
%TO.P,,1*%
%TO.N,N/C*%
X102797000Y-73711000D03*
%TD*%
%TO.P,,1*%
%TO.N,N/C*%
X94560000Y-97000000D03*
%TD*%
%TO.P,,1*%
%TO.N,N/C*%
X108277000Y-81931000D03*
%TD*%
%TO.P,,1*%
%TO.N,N/C*%
X101427000Y-73711000D03*
%TD*%
%TO.P,,1*%
%TO.N,N/C*%
X83600000Y-116200000D03*
%TD*%
%TO.P,,1*%
%TO.N,N/C*%
X90467000Y-79191000D03*
%TD*%
%TO.P,,1*%
%TO.N,N/C*%
X111030000Y-123050000D03*
%TD*%
%TO.P,,1*%
%TO.N,N/C*%
X94560000Y-110700000D03*
%TD*%
%TO.P,11,1*%
%TO.N,N/C*%
X97330000Y-109328200D03*
%TD*%
%TO.P,,1*%
%TO.N,N/C*%
X85000000Y-121680000D03*
%TD*%
%TO.P,,1*%
%TO.N,N/C*%
X111030000Y-117570000D03*
%TD*%
%TO.P,,1*%
%TO.N,N/C*%
X93190000Y-92890000D03*
%TD*%
%TO.P,,1*%
%TO.N,N/C*%
X84970000Y-91520000D03*
%TD*%
%TO.P,,1*%
%TO.N,N/C*%
X95947000Y-77821000D03*
%TD*%
%TO.P,,1*%
%TO.N,N/C*%
X86370000Y-125790000D03*
%TD*%
D11*
%TO.P,1,1*%
%TO.N,/GPIO43*%
X99404000Y-103302000D03*
%TD*%
D10*
%TO.P,,1*%
%TO.N,N/C*%
X83600000Y-92890000D03*
%TD*%
D11*
%TO.P,6,1*%
%TO.N,/CAM1_DP1*%
X108404000Y-84252000D03*
%TD*%
D10*
%TO.P,,1*%
%TO.N,N/C*%
X84970000Y-101110000D03*
%TD*%
%TO.P,,1*%
%TO.N,N/C*%
X106907000Y-80561000D03*
%TD*%
D11*
%TO.P,8,1*%
%TO.N,GND*%
X112954000Y-85776000D03*
%TD*%
D10*
%TO.P,,1*%
%TO.N,N/C*%
X94590000Y-121680000D03*
%TD*%
%TO.P,,1*%
%TO.N,N/C*%
X93190000Y-99740000D03*
%TD*%
%TO.P,,1*%
%TO.N,N/C*%
X87740000Y-118940000D03*
%TD*%
%TO.P,,1*%
%TO.N,N/C*%
X104167000Y-75081000D03*
%TD*%
%TO.P,,1*%
%TO.N,N/C*%
X86340000Y-90150000D03*
%TD*%
%TO.P,,1*%
%TO.N,N/C*%
X101440000Y-123050000D03*
%TD*%
%TO.P,,1*%
%TO.N,N/C*%
X98687000Y-79191000D03*
%TD*%
%TO.P,,1*%
%TO.N,N/C*%
X105550000Y-120310000D03*
%TD*%
%TO.P,,1*%
%TO.N,N/C*%
X91850000Y-121680000D03*
%TD*%
%TO.P,,1*%
%TO.N,N/C*%
X95947000Y-81931000D03*
%TD*%
%TO.P,,1*%
%TO.N,N/C*%
X95947000Y-79191000D03*
%TD*%
%TO.P,,1*%
%TO.N,N/C*%
X87710000Y-94260000D03*
%TD*%
%TO.P,,1*%
%TO.N,N/C*%
X98700000Y-120310000D03*
%TD*%
%TO.P,,1*%
%TO.N,N/C*%
X98687000Y-81931000D03*
%TD*%
%TO.P,,1*%
%TO.N,N/C*%
X86357000Y-77821000D03*
%TD*%
%TO.P,,1*%
%TO.N,N/C*%
X89080000Y-113440000D03*
%TD*%
%TO.P,,1*%
%TO.N,N/C*%
X93220000Y-125790000D03*
%TD*%
%TO.P,,1*%
%TO.N,N/C*%
X86357000Y-75081000D03*
%TD*%
%TO.P,,1*%
%TO.N,N/C*%
X90450000Y-90150000D03*
%TD*%
D11*
%TO.P,,1*%
%TO.N,GND*%
X111430000Y-114224000D03*
%TD*%
D10*
%TO.P,,1*%
%TO.N,N/C*%
X93190000Y-84670000D03*
%TD*%
%TO.P,15,1*%
%TO.N,N/C*%
X97330000Y-114808200D03*
%TD*%
%TO.P,,1*%
%TO.N,N/C*%
X87710000Y-113440000D03*
%TD*%
%TO.P,,1*%
%TO.N,N/C*%
X105550000Y-123050000D03*
%TD*%
%TO.P,,1*%
%TO.N,N/C*%
X104180000Y-117570000D03*
%TD*%
%TO.P,,1*%
%TO.N,N/C*%
X91820000Y-106590000D03*
%TD*%
%TO.P,,1*%
%TO.N,N/C*%
X95960000Y-117570000D03*
%TD*%
%TO.P,,1*%
%TO.N,N/C*%
X87740000Y-123050000D03*
%TD*%
%TO.P,,1*%
%TO.N,N/C*%
X83600000Y-112070000D03*
%TD*%
%TO.P,,1*%
%TO.N,N/C*%
X93207000Y-81931000D03*
%TD*%
%TO.P,,1*%
%TO.N,N/C*%
X83617000Y-77821000D03*
%TD*%
%TO.P,,1*%
%TO.N,N/C*%
X87710000Y-106590000D03*
%TD*%
%TO.P,,1*%
%TO.N,N/C*%
X109660000Y-120310000D03*
%TD*%
%TO.P,,1*%
%TO.N,N/C*%
X102810000Y-118940000D03*
%TD*%
%TO.P,,1*%
%TO.N,N/C*%
X91820000Y-99740000D03*
%TD*%
D11*
%TO.P,4,1*%
%TO.N,GND*%
X104804000Y-84252000D03*
%TD*%
D10*
%TO.P,,1*%
%TO.N,N/C*%
X93220000Y-117570000D03*
%TD*%
%TO.P,,1*%
%TO.N,N/C*%
X101440000Y-124420000D03*
%TD*%
D11*
%TO.P,2,1*%
%TO.N,/CAM1_DN3*%
X101204000Y-84252000D03*
%TD*%
D10*
%TO.P,,1*%
%TO.N,N/C*%
X86340000Y-103850000D03*
%TD*%
%TO.P,,1*%
%TO.N,N/C*%
X98687000Y-73711000D03*
%TD*%
%TO.P,,1*%
%TO.N,N/C*%
X101440000Y-125790000D03*
%TD*%
%TO.P,,1*%
%TO.N,N/C*%
X108290000Y-121680000D03*
%TD*%
%TO.P,,1*%
%TO.N,N/C*%
X101427000Y-75081000D03*
%TD*%
D11*
%TO.P,,1*%
%TO.N,+5V*%
X102821000Y-112678000D03*
%TD*%
D10*
%TO.P,,1*%
%TO.N,N/C*%
X104167000Y-77821000D03*
%TD*%
%TO.P,,1*%
%TO.N,N/C*%
X95930000Y-86040000D03*
%TD*%
%TO.P,,1*%
%TO.N,N/C*%
X89080000Y-101110000D03*
%TD*%
D11*
%TO.P,6,1*%
%TO.N,/GPIO33*%
X108404000Y-103302000D03*
%TD*%
D10*
%TO.P,,1*%
%TO.N,N/C*%
X86357000Y-80561000D03*
%TD*%
%TO.P,,1*%
%TO.N,N/C*%
X108290000Y-120310000D03*
%TD*%
D11*
%TO.P,5,1*%
%TO.N,/GPIO35*%
X106604000Y-103302000D03*
%TD*%
D10*
%TO.P,,1*%
%TO.N,N/C*%
X95930000Y-83300000D03*
%TD*%
%TO.P,,1*%
%TO.N,N/C*%
X85000000Y-125790000D03*
%TD*%
%TO.P,,1*%
%TO.N,N/C*%
X87710000Y-101110000D03*
%TD*%
%TO.P,,1*%
%TO.N,N/C*%
X90467000Y-80561000D03*
%TD*%
%TO.P,,1*%
%TO.N,N/C*%
X102797000Y-77821000D03*
%TD*%
%TO.P,,1*%
%TO.N,N/C*%
X90450000Y-87410000D03*
%TD*%
%TO.P,,1*%
%TO.N,N/C*%
X84970000Y-112070000D03*
%TD*%
%TO.P,,1*%
%TO.N,N/C*%
X85000000Y-118940000D03*
%TD*%
%TO.P,,1*%
%TO.N,N/C*%
X100057000Y-81931000D03*
%TD*%
%TO.P,,1*%
%TO.N,N/C*%
X91820000Y-110700000D03*
%TD*%
%TO.P,,1*%
%TO.N,N/C*%
X84970000Y-90150000D03*
%TD*%
%TO.P,,1*%
%TO.N,N/C*%
X95930000Y-88780000D03*
%TD*%
%TO.P,,1*%
%TO.N,N/C*%
X106920000Y-125790000D03*
%TD*%
%TO.P,,1*%
%TO.N,N/C*%
X105550000Y-116200000D03*
%TD*%
%TO.P,,1*%
%TO.N,N/C*%
X86357000Y-76451000D03*
%TD*%
%TO.P,,1*%
%TO.N,N/C*%
X89080000Y-88780000D03*
%TD*%
D11*
%TO.P,3,1*%
%TO.N,/CAM1_DN2*%
X103954000Y-85776000D03*
%TD*%
D10*
%TO.P,,1*%
%TO.N,N/C*%
X102797000Y-79191000D03*
%TD*%
D11*
%TO.P,7,1*%
%TO.N,GND*%
X110204000Y-84252000D03*
%TD*%
D10*
%TO.P,,1*%
%TO.N,N/C*%
X98700000Y-121680000D03*
%TD*%
%TO.P,,1*%
%TO.N,N/C*%
X112400000Y-120310000D03*
%TD*%
%TO.P,,1*%
%TO.N,N/C*%
X111030000Y-118940000D03*
%TD*%
%TO.P,,1*%
%TO.N,N/C*%
X106920000Y-116200000D03*
%TD*%
%TO.P,,1*%
%TO.N,N/C*%
X111030000Y-121680000D03*
%TD*%
%TO.P,,1*%
%TO.N,N/C*%
X106907000Y-77821000D03*
%TD*%
%TO.P,,1*%
%TO.N,N/C*%
X90480000Y-123050000D03*
%TD*%
%TO.P,,1*%
%TO.N,N/C*%
X104180000Y-125790000D03*
%TD*%
%TO.P,,1*%
%TO.N,N/C*%
X101427000Y-76451000D03*
%TD*%
%TO.P,,1*%
%TO.N,N/C*%
X87710000Y-88780000D03*
%TD*%
%TO.P,,1*%
%TO.N,N/C*%
X93190000Y-87410000D03*
%TD*%
%TO.P,,1*%
%TO.N,N/C*%
X112387000Y-77821000D03*
%TD*%
%TO.P,,1*%
%TO.N,N/C*%
X90450000Y-102480000D03*
%TD*%
%TO.P,,1*%
%TO.N,N/C*%
X91820000Y-90150000D03*
%TD*%
%TO.P,,1*%
%TO.N,N/C*%
X90450000Y-107960000D03*
%TD*%
D11*
%TO.P,,1*%
%TO.N,/SPEAKER_LN*%
X112346000Y-112678000D03*
%TD*%
D10*
%TO.P,,1*%
%TO.N,N/C*%
X97330000Y-118940000D03*
%TD*%
%TO.P,,1*%
%TO.N,N/C*%
X93190000Y-112070000D03*
%TD*%
%TO.P,,1*%
%TO.N,N/C*%
X91850000Y-116200000D03*
%TD*%
%TO.P,,1*%
%TO.N,N/C*%
X87710000Y-95630000D03*
%TD*%
%TO.P,,1*%
%TO.N,N/C*%
X84987000Y-77821000D03*
%TD*%
%TO.P,,1*%
%TO.N,N/C*%
X97317000Y-76451000D03*
%TD*%
%TO.P,,1*%
%TO.N,N/C*%
X95947000Y-75081000D03*
%TD*%
%TO.P,,1*%
%TO.N,N/C*%
X89110000Y-118940000D03*
%TD*%
%TO.P,,1*%
%TO.N,N/C*%
X89080000Y-90150000D03*
%TD*%
%TO.P,,1*%
%TO.N,N/C*%
X87727000Y-79191000D03*
%TD*%
%TO.P,,1*%
%TO.N,N/C*%
X91850000Y-125790000D03*
%TD*%
%TO.P,,1*%
%TO.N,N/C*%
X89080000Y-102480000D03*
%TD*%
%TO.P,,1*%
%TO.N,N/C*%
X112387000Y-75081000D03*
%TD*%
%TO.P,,1*%
%TO.N,N/C*%
X93190000Y-94260000D03*
%TD*%
%TO.P,,1*%
%TO.N,N/C*%
X111030000Y-124420000D03*
%TD*%
%TO.P,,1*%
%TO.N,N/C*%
X83600000Y-114810000D03*
%TD*%
%TO.P,,1*%
%TO.N,N/C*%
X106920000Y-124420000D03*
%TD*%
%TO.P,,1*%
%TO.N,N/C*%
X84970000Y-109330000D03*
%TD*%
%TO.P,,1*%
%TO.N,N/C*%
X90480000Y-118940000D03*
%TD*%
%TO.P,,1*%
%TO.N,N/C*%
X108277000Y-80561000D03*
%TD*%
%TO.P,,1*%
%TO.N,N/C*%
X91850000Y-123050000D03*
%TD*%
%TO.P,,1*%
%TO.N,N/C*%
X97317000Y-81931000D03*
%TD*%
%TO.P,,1*%
%TO.N,N/C*%
X100057000Y-77821000D03*
%TD*%
%TO.P,,1*%
%TO.N,N/C*%
X86370000Y-123050000D03*
%TD*%
%TO.P,,1*%
%TO.N,N/C*%
X90450000Y-92890000D03*
%TD*%
%TO.P,,1*%
%TO.N,N/C*%
X87710000Y-98370000D03*
%TD*%
%TO.P,,1*%
%TO.N,N/C*%
X89080000Y-114810000D03*
%TD*%
%TO.P,,1*%
%TO.N,N/C*%
X112387000Y-81931000D03*
%TD*%
%TO.P,,1*%
%TO.N,N/C*%
X108290000Y-118940000D03*
%TD*%
%TO.P,,1*%
%TO.N,N/C*%
X94577000Y-73711000D03*
%TD*%
%TO.P,,1*%
%TO.N,N/C*%
X86370000Y-118940000D03*
%TD*%
%TO.P,,1*%
%TO.N,N/C*%
X95930000Y-92890000D03*
%TD*%
%TO.P,,1*%
%TO.N,N/C*%
X84970000Y-95630000D03*
%TD*%
%TO.P,,1*%
%TO.N,N/C*%
X93220000Y-118940000D03*
%TD*%
%TO.P,,1*%
%TO.N,N/C*%
X86340000Y-102480000D03*
%TD*%
%TO.P,,1*%
%TO.N,N/C*%
X91837000Y-80561000D03*
%TD*%
%TO.P,,1*%
%TO.N,N/C*%
X83600000Y-110700000D03*
%TD*%
%TO.P,,1*%
%TO.N,N/C*%
X90450000Y-109330000D03*
%TD*%
%TO.P,,1*%
%TO.N,N/C*%
X98687000Y-76451000D03*
%TD*%
%TO.P,,1*%
%TO.N,N/C*%
X95930000Y-90150000D03*
%TD*%
%TO.P,,1*%
%TO.N,N/C*%
X83630000Y-125790000D03*
%TD*%
%TO.P,,1*%
%TO.N,N/C*%
X87710000Y-109330000D03*
%TD*%
%TO.P,,1*%
%TO.N,N/C*%
X105537000Y-81931000D03*
%TD*%
%TO.P,,1*%
%TO.N,N/C*%
X83617000Y-80561000D03*
%TD*%
%TO.P,,1*%
%TO.N,N/C*%
X93207000Y-75081000D03*
%TD*%
%TO.P,,1*%
%TO.N,N/C*%
X100070000Y-116200000D03*
%TD*%
%TO.P,,1*%
%TO.N,N/C*%
X91850000Y-124420000D03*
%TD*%
D11*
%TO.P,1,1*%
%TO.N,GND*%
X99404000Y-84252000D03*
%TD*%
D10*
%TO.P,,1*%
%TO.N,N/C*%
X109660000Y-123050000D03*
%TD*%
%TO.P,,1*%
%TO.N,N/C*%
X90450000Y-95630000D03*
%TD*%
%TO.P,,1*%
%TO.N,N/C*%
X97330000Y-121680000D03*
%TD*%
%TO.P,,1*%
%TO.N,N/C*%
X94560000Y-102480000D03*
%TD*%
%TO.P,,1*%
%TO.N,N/C*%
X86370000Y-124420000D03*
%TD*%
%TO.P,,1*%
%TO.N,N/C*%
X94560000Y-92890000D03*
%TD*%
%TO.P,,1*%
%TO.N,N/C*%
X84970000Y-107960000D03*
%TD*%
%TO.P,,1*%
%TO.N,N/C*%
X86370000Y-121680000D03*
%TD*%
D11*
%TO.P,6,1*%
%TO.N,/CAM1_DN1*%
X109354000Y-85776000D03*
%TD*%
D10*
%TO.P,,1*%
%TO.N,N/C*%
X83600000Y-94260000D03*
%TD*%
%TO.P,,1*%
%TO.N,N/C*%
X97330000Y-116200000D03*
%TD*%
%TO.P,,1*%
%TO.N,N/C*%
X98700000Y-124420000D03*
%TD*%
%TO.P,,1*%
%TO.N,N/C*%
X93190000Y-83300000D03*
%TD*%
%TO.P,,1*%
%TO.N,N/C*%
X87740000Y-121680000D03*
%TD*%
%TO.P,,1*%
%TO.N,N/C*%
X109647000Y-75081000D03*
%TD*%
%TO.P,,1*%
%TO.N,N/C*%
X94577000Y-76451000D03*
%TD*%
%TO.P,,1*%
%TO.N,N/C*%
X102810000Y-121680000D03*
%TD*%
%TO.P,,1*%
%TO.N,N/C*%
X89097000Y-76451000D03*
%TD*%
%TO.P,,1*%
%TO.N,N/C*%
X86357000Y-73711000D03*
%TD*%
%TO.P,,1*%
%TO.N,N/C*%
X87710000Y-105220000D03*
%TD*%
%TO.P,,1*%
%TO.N,N/C*%
X102810000Y-116200000D03*
%TD*%
%TO.P,,1*%
%TO.N,N/C*%
X83600000Y-101110000D03*
%TD*%
%TO.P,,1*%
%TO.N,N/C*%
X89080000Y-86040000D03*
%TD*%
%TO.P,,1*%
%TO.N,N/C*%
X87710000Y-90150000D03*
%TD*%
D13*
%TO.N,/SPEAKER_LP*%
X113686909Y-112281467D03*
%TO.N,/SPEAKER_LN*%
X112446000Y-111556996D03*
%TO.N,+5V*%
X104952998Y-110794996D03*
X105742005Y-111429986D03*
X103937000Y-109906000D03*
X102948008Y-109144000D03*
X102185988Y-108382006D03*
%TO.N,GND*%
X101424001Y-107620001D03*
%TO.N,/GPIO28*%
X113208000Y-103302000D03*
%TO.N,/GPIO29*%
X111377498Y-101191448D03*
%TO.N,/GPIO30*%
X110705745Y-100519695D03*
%TO.N,/GPIO31*%
X110041965Y-99802103D03*
%TO.N,/GPIO32*%
X109172455Y-99002958D03*
%TO.N,/GPIO33*%
X108382000Y-98221994D03*
%TO.N,/GPIO34*%
X107620000Y-97460000D03*
%TO.N,/GPIO35*%
X106858000Y-96698000D03*
%TO.N,/GPIO36*%
X106096000Y-95936000D03*
%TO.N,/GPIO37*%
X105334000Y-95174000D03*
%TO.N,/GPIO38*%
X104572000Y-94412000D03*
%TO.N,/GPIO39*%
X103810000Y-93650000D03*
%TO.N,/GPIO40*%
X103048000Y-92888000D03*
%TO.N,/GPIO41*%
X102286000Y-92126000D03*
%TO.N,/GPIO42*%
X101524000Y-91364000D03*
%TO.N,/GPIO43*%
X100762000Y-90602000D03*
%TO.N,/GPIO44*%
X100000000Y-89840000D03*
%TO.N,/GPIO45*%
X99210460Y-88851540D03*
%TO.N,/SPEAKER_RN*%
X100181819Y-106046179D03*
%TO.N,/SPEAKER_RP*%
X101070008Y-106610457D03*
%TD*%
D14*
%TO.N,/SPEAKER_LP*%
X113332000Y-114202000D02*
X113332000Y-112636376D01*
X113686909Y-111845673D02*
X113686909Y-112281467D01*
X113332000Y-112636376D02*
X113686909Y-112281467D01*
X116893000Y-111758000D02*
X113874582Y-111758000D01*
X113774582Y-111758000D02*
X113686909Y-111845673D01*
%TO.N,/SPEAKER_LN*%
X112373000Y-111629996D02*
X112446000Y-111556996D01*
X116893000Y-110958000D02*
X113044996Y-110958000D01*
X113044996Y-110958000D02*
X112446000Y-111556996D01*
X112373000Y-112656000D02*
X112373000Y-111629996D01*
%TO.N,/CAM1_DP3*%
X116485000Y-99780000D02*
X113658000Y-99780000D01*
X100354000Y-86476000D02*
X100354000Y-85776000D01*
X113658000Y-99780000D02*
X100354000Y-86476000D01*
%TO.N,/CAM1_DN3*%
X101204000Y-86326000D02*
X101204000Y-84252000D01*
X116485000Y-98980000D02*
X113858000Y-98980000D01*
X113858000Y-98980000D02*
X101204000Y-86326000D01*
%TO.N,/CAM1_DN2*%
X103954000Y-86476000D02*
X103954000Y-85776000D01*
X116485000Y-96580000D02*
X114058000Y-96580000D01*
X114058000Y-96580000D02*
X103954000Y-86476000D01*
%TO.N,/CAM1_CP*%
X116485000Y-94980000D02*
X114258000Y-94980000D01*
X114258000Y-94980000D02*
X105754000Y-86476000D01*
X105754000Y-86476000D02*
X105754000Y-85776000D01*
%TO.N,/CAM1_CN*%
X116485000Y-94180000D02*
X114246000Y-94180000D01*
X114246000Y-94180000D02*
X106604000Y-86538000D01*
X106604000Y-86538000D02*
X106604000Y-84252000D01*
%TO.N,/CAM1_DP1*%
X116485000Y-92580000D02*
X114658000Y-92580000D01*
X114658000Y-92580000D02*
X108382000Y-86304000D01*
X108382000Y-84274000D02*
X108404000Y-84252000D01*
X108382000Y-86304000D02*
X108382000Y-84274000D01*
%TO.N,/CAM1_DN1*%
X109354000Y-86476000D02*
X109354000Y-85776000D01*
X116485000Y-91780000D02*
X114658000Y-91780000D01*
X114658000Y-91780000D02*
X109354000Y-86476000D01*
%TO.N,/CAM1_DP0*%
X111154000Y-86747975D02*
X111154000Y-85776000D01*
X116485000Y-90180000D02*
X114586025Y-90180000D01*
X114586025Y-90180000D02*
X111154000Y-86747975D01*
%TO.N,/CAM1_DN0*%
X114281000Y-89380000D02*
X112004000Y-87103000D01*
X116485000Y-89380000D02*
X114281000Y-89380000D01*
X112004000Y-87103000D02*
X112004000Y-84252000D01*
D15*
%TO.N,+5V*%
X101902000Y-114202000D02*
X101902000Y-108665994D01*
X102848000Y-109244008D02*
X102948008Y-109144000D01*
X101902000Y-108665994D02*
X102185988Y-108382006D01*
X105712000Y-111459991D02*
X105742005Y-111429986D01*
X102848000Y-112656000D02*
X102848000Y-109244008D01*
X105712000Y-114202000D02*
X105712000Y-111459991D01*
X104753000Y-112656000D02*
X104753000Y-110994994D01*
X103807000Y-110036000D02*
X103937000Y-109906000D01*
X104804012Y-110646010D02*
X104952998Y-110794996D01*
X105694011Y-111381992D02*
X105742005Y-111429986D01*
X103807000Y-114202000D02*
X103807000Y-110036000D01*
X105694011Y-111356001D02*
X105694011Y-111381992D01*
X104593994Y-110646010D02*
X104804012Y-110646010D01*
X104753000Y-110994994D02*
X104952998Y-110794996D01*
D16*
%TO.N,GND*%
X102154000Y-86526000D02*
X102154000Y-85776000D01*
X116485000Y-90980000D02*
X114602000Y-90980000D01*
X116485000Y-88580000D02*
X114234000Y-88580000D01*
X114408000Y-93380000D02*
X107554000Y-86526000D01*
X114234000Y-88580000D02*
X112954000Y-87300000D01*
X116485000Y-93380000D02*
X114408000Y-93380000D01*
X114602000Y-90980000D02*
X110204000Y-86582000D01*
X110204000Y-86582000D02*
X110204000Y-84252000D01*
X101677384Y-107752616D02*
X101544769Y-107620001D01*
X112711000Y-107758000D02*
X108563000Y-111906000D01*
X116485000Y-95780000D02*
X114208000Y-95780000D01*
X116485000Y-98180000D02*
X116400000Y-98095000D01*
X100943000Y-108101002D02*
X101424001Y-107620001D01*
X116485000Y-98180000D02*
X113808000Y-98180000D01*
X101544769Y-107620001D02*
X101424001Y-107620001D01*
X113808000Y-98180000D02*
X102154000Y-86526000D01*
X111427000Y-111240405D02*
X111427000Y-114202000D01*
X107554000Y-86526000D02*
X107554000Y-85776000D01*
X116485000Y-100580000D02*
X113608000Y-100580000D01*
X99404000Y-86376000D02*
X99404000Y-84252000D01*
X108563000Y-111906000D02*
X108563000Y-112656000D01*
X112509405Y-110158000D02*
X111427000Y-111240405D01*
X116893000Y-110158000D02*
X112509405Y-110158000D01*
X112954000Y-87300000D02*
X112954000Y-85776000D01*
X100943000Y-112656000D02*
X100943000Y-108101002D01*
X116893000Y-107758000D02*
X112711000Y-107758000D01*
X113608000Y-100580000D02*
X99404000Y-86376000D01*
X104804000Y-86376000D02*
X104804000Y-84252000D01*
X114208000Y-95780000D02*
X104804000Y-86376000D01*
D17*
%TO.N,+3V3*%
X98554000Y-86362000D02*
X98554000Y-85776000D01*
X98140870Y-86792000D02*
X113528870Y-102180000D01*
X97714000Y-86792000D02*
X98140870Y-86792000D01*
X113572000Y-101380000D02*
X98554000Y-86362000D01*
X116485000Y-101380000D02*
X113572000Y-101380000D01*
X97604000Y-86682000D02*
X97604000Y-84252000D01*
X113528870Y-102180000D02*
X116485000Y-102180000D01*
X97714000Y-86792000D02*
X97604000Y-86682000D01*
X116485000Y-101380000D02*
X116322000Y-101217000D01*
D16*
%TO.N,/GPIO28*%
X113208000Y-104572000D02*
X112954000Y-104826000D01*
X113208000Y-103302000D02*
X113208000Y-104572000D01*
%TO.N,/GPIO29*%
X112004000Y-103302000D02*
X112004000Y-101817950D01*
X111340990Y-100926990D02*
X111340990Y-101154940D01*
X112004000Y-101817950D02*
X111377498Y-101191448D01*
X111340990Y-101154940D02*
X111377498Y-101191448D01*
%TO.N,/GPIO30*%
X111154000Y-104826000D02*
X111154000Y-101922545D01*
X110702498Y-101471043D02*
X110702498Y-100522942D01*
X111154000Y-101922545D02*
X110702498Y-101471043D01*
X110702498Y-100522942D02*
X110705745Y-100519695D01*
%TO.N,/GPIO31*%
X110204000Y-103302000D02*
X110030745Y-103128745D01*
X110030745Y-99813323D02*
X110041965Y-99802103D01*
X110030745Y-103128745D02*
X110030745Y-99813323D01*
%TO.N,/GPIO32*%
X109354000Y-104826000D02*
X109354000Y-99184503D01*
X109354000Y-99184503D02*
X109172455Y-99002958D01*
%TO.N,/GPIO33*%
X108404000Y-103302000D02*
X108404000Y-98243994D01*
X108404000Y-98243994D02*
X108382000Y-98221994D01*
%TO.N,/GPIO34*%
X107554000Y-104826000D02*
X107554000Y-97526000D01*
X107554000Y-97526000D02*
X107620000Y-97460000D01*
%TO.N,/GPIO35*%
X106604000Y-103302000D02*
X106604000Y-96952000D01*
X106604000Y-96952000D02*
X106858000Y-96698000D01*
%TO.N,/GPIO36*%
X105754000Y-96278000D02*
X106096000Y-95936000D01*
X105754000Y-104826000D02*
X105754000Y-96278000D01*
%TO.N,/GPIO37*%
X104804000Y-95704000D02*
X105334000Y-95174000D01*
X104804000Y-103302000D02*
X104804000Y-95704000D01*
%TO.N,/GPIO38*%
X103954000Y-104826000D02*
X103954000Y-95030000D01*
X103954000Y-95030000D02*
X104572000Y-94412000D01*
%TO.N,/GPIO39*%
X103004000Y-103302000D02*
X103004000Y-94456000D01*
X103004000Y-94456000D02*
X103810000Y-93650000D01*
%TO.N,/GPIO40*%
X102154000Y-93782000D02*
X103048000Y-92888000D01*
X102154000Y-104826000D02*
X102154000Y-93782000D01*
%TO.N,/GPIO41*%
X101204000Y-103302000D02*
X101204000Y-93208000D01*
X101204000Y-93208000D02*
X102286000Y-92126000D01*
%TO.N,/GPIO42*%
X100354000Y-92534000D02*
X101524000Y-91364000D01*
X100354000Y-104826000D02*
X100354000Y-92534000D01*
%TO.N,/GPIO43*%
X99404000Y-103302000D02*
X99404000Y-91960000D01*
X99404000Y-91960000D02*
X100762000Y-90602000D01*
%TO.N,/GPIO44*%
X98554000Y-91286000D02*
X100000000Y-89840000D01*
X98554000Y-104826000D02*
X98554000Y-91286000D01*
%TO.N,/GPIO45*%
X97604000Y-103302000D02*
X97604000Y-90458000D01*
X97604000Y-90458000D02*
X99210460Y-88851540D01*
D14*
%TO.N,/USB4_D+*%
X112850974Y-106958000D02*
X107617000Y-112191974D01*
X114024000Y-106958000D02*
X112850974Y-106958000D01*
X107617000Y-112191974D02*
X107617000Y-114202000D01*
X116893000Y-106958000D02*
X113821000Y-106958000D01*
%TO.N,/USB4_D-*%
X116893000Y-106158000D02*
X113156000Y-106158000D01*
X113156000Y-106158000D02*
X106658000Y-112656000D01*
%TO.N,/USB3_D-*%
X109522000Y-112102000D02*
X109522000Y-114202000D01*
X116893000Y-108558000D02*
X113066000Y-108558000D01*
X113066000Y-108558000D02*
X109522000Y-112102000D01*
%TO.N,/SPEAKER_RN*%
X99038000Y-112656000D02*
X99038000Y-107089998D01*
X99038000Y-107089998D02*
X100054000Y-106073998D01*
%TO.N,/CAM1_DP2*%
X116485000Y-97380000D02*
X113890000Y-97380000D01*
X103004000Y-86494000D02*
X103004000Y-84252000D01*
X113890000Y-97380000D02*
X103004000Y-86494000D01*
%TO.N,/SPEAKER_RP*%
X99997000Y-114202000D02*
X99997000Y-107683465D01*
X99997000Y-107683465D02*
X101070008Y-106610457D01*
%TO.N,/USB3_D+*%
X110468000Y-111669075D02*
X110468000Y-112656000D01*
X116893000Y-109358000D02*
X112779075Y-109358000D01*
X112779075Y-109358000D02*
X110468000Y-111669075D01*
%TD*%
M02*
