%TF.GenerationSoftware,KiCad,Pcbnew,8.0.4*%
%TF.CreationDate,2025-03-13T20:47:44+01:00*%
%TF.ProjectId,uconsole-expansion-card-template_1.27,75636f6e-736f-46c6-952d-657870616e73,0.1*%
%TF.SameCoordinates,Original*%
%TF.FileFunction,Legend,Top*%
%TF.FilePolarity,Positive*%
%FSLAX46Y46*%
G04 Gerber Fmt 4.6, Leading zero omitted, Abs format (unit mm)*
G04 Created by KiCad (PCBNEW 8.0.4) date 2025-03-13 20:47:44*
%MOMM*%
%LPD*%
G01*
G04 APERTURE LIST*
%ADD10C,0.100000*%
%ADD11C,0.162500*%
G04 APERTURE END LIST*
D10*
X111752795Y-110721027D02*
X111783747Y-110659122D01*
X111783747Y-110659122D02*
X111783747Y-110566265D01*
X111783747Y-110566265D02*
X111752795Y-110473408D01*
X111752795Y-110473408D02*
X111690890Y-110411503D01*
X111690890Y-110411503D02*
X111628985Y-110380550D01*
X111628985Y-110380550D02*
X111505176Y-110349598D01*
X111505176Y-110349598D02*
X111412319Y-110349598D01*
X111412319Y-110349598D02*
X111288509Y-110380550D01*
X111288509Y-110380550D02*
X111226604Y-110411503D01*
X111226604Y-110411503D02*
X111164700Y-110473408D01*
X111164700Y-110473408D02*
X111133747Y-110566265D01*
X111133747Y-110566265D02*
X111133747Y-110628169D01*
X111133747Y-110628169D02*
X111164700Y-110721027D01*
X111164700Y-110721027D02*
X111195652Y-110751979D01*
X111195652Y-110751979D02*
X111412319Y-110751979D01*
X111412319Y-110751979D02*
X111412319Y-110628169D01*
X111133747Y-111030550D02*
X111783747Y-111030550D01*
X111783747Y-111030550D02*
X111133747Y-111401979D01*
X111133747Y-111401979D02*
X111783747Y-111401979D01*
X111133747Y-111711502D02*
X111783747Y-111711502D01*
X111783747Y-111711502D02*
X111783747Y-111866264D01*
X111783747Y-111866264D02*
X111752795Y-111959121D01*
X111752795Y-111959121D02*
X111690890Y-112021026D01*
X111690890Y-112021026D02*
X111628985Y-112051979D01*
X111628985Y-112051979D02*
X111505176Y-112082931D01*
X111505176Y-112082931D02*
X111412319Y-112082931D01*
X111412319Y-112082931D02*
X111288509Y-112051979D01*
X111288509Y-112051979D02*
X111226604Y-112021026D01*
X111226604Y-112021026D02*
X111164700Y-111959121D01*
X111164700Y-111959121D02*
X111133747Y-111866264D01*
X111133747Y-111866264D02*
X111133747Y-111711502D01*
X113069700Y-108444598D02*
X113038747Y-108537455D01*
X113038747Y-108537455D02*
X113038747Y-108692217D01*
X113038747Y-108692217D02*
X113069700Y-108754122D01*
X113069700Y-108754122D02*
X113100652Y-108785074D01*
X113100652Y-108785074D02*
X113162557Y-108816027D01*
X113162557Y-108816027D02*
X113224461Y-108816027D01*
X113224461Y-108816027D02*
X113286366Y-108785074D01*
X113286366Y-108785074D02*
X113317319Y-108754122D01*
X113317319Y-108754122D02*
X113348271Y-108692217D01*
X113348271Y-108692217D02*
X113379223Y-108568408D01*
X113379223Y-108568408D02*
X113410176Y-108506503D01*
X113410176Y-108506503D02*
X113441128Y-108475550D01*
X113441128Y-108475550D02*
X113503033Y-108444598D01*
X113503033Y-108444598D02*
X113564938Y-108444598D01*
X113564938Y-108444598D02*
X113626842Y-108475550D01*
X113626842Y-108475550D02*
X113657795Y-108506503D01*
X113657795Y-108506503D02*
X113688747Y-108568408D01*
X113688747Y-108568408D02*
X113688747Y-108723169D01*
X113688747Y-108723169D02*
X113657795Y-108816027D01*
X113038747Y-109094598D02*
X113688747Y-109094598D01*
X113688747Y-109094598D02*
X113688747Y-109342217D01*
X113688747Y-109342217D02*
X113657795Y-109404122D01*
X113657795Y-109404122D02*
X113626842Y-109435075D01*
X113626842Y-109435075D02*
X113564938Y-109466027D01*
X113564938Y-109466027D02*
X113472080Y-109466027D01*
X113472080Y-109466027D02*
X113410176Y-109435075D01*
X113410176Y-109435075D02*
X113379223Y-109404122D01*
X113379223Y-109404122D02*
X113348271Y-109342217D01*
X113348271Y-109342217D02*
X113348271Y-109094598D01*
X113038747Y-109744598D02*
X113688747Y-109744598D01*
X113038747Y-110116027D02*
X113410176Y-109837456D01*
X113688747Y-110116027D02*
X113317319Y-109744598D01*
X112976842Y-110239837D02*
X112976842Y-110735075D01*
X113038747Y-111199360D02*
X113038747Y-110889836D01*
X113038747Y-110889836D02*
X113688747Y-110889836D01*
X113038747Y-111416026D02*
X113688747Y-111416026D01*
X113688747Y-111416026D02*
X113688747Y-111663645D01*
X113688747Y-111663645D02*
X113657795Y-111725550D01*
X113657795Y-111725550D02*
X113626842Y-111756503D01*
X113626842Y-111756503D02*
X113564938Y-111787455D01*
X113564938Y-111787455D02*
X113472080Y-111787455D01*
X113472080Y-111787455D02*
X113410176Y-111756503D01*
X113410176Y-111756503D02*
X113379223Y-111725550D01*
X113379223Y-111725550D02*
X113348271Y-111663645D01*
X113348271Y-111663645D02*
X113348271Y-111416026D01*
X98718700Y-107047598D02*
X98687747Y-107140455D01*
X98687747Y-107140455D02*
X98687747Y-107295217D01*
X98687747Y-107295217D02*
X98718700Y-107357122D01*
X98718700Y-107357122D02*
X98749652Y-107388074D01*
X98749652Y-107388074D02*
X98811557Y-107419027D01*
X98811557Y-107419027D02*
X98873461Y-107419027D01*
X98873461Y-107419027D02*
X98935366Y-107388074D01*
X98935366Y-107388074D02*
X98966319Y-107357122D01*
X98966319Y-107357122D02*
X98997271Y-107295217D01*
X98997271Y-107295217D02*
X99028223Y-107171408D01*
X99028223Y-107171408D02*
X99059176Y-107109503D01*
X99059176Y-107109503D02*
X99090128Y-107078550D01*
X99090128Y-107078550D02*
X99152033Y-107047598D01*
X99152033Y-107047598D02*
X99213938Y-107047598D01*
X99213938Y-107047598D02*
X99275842Y-107078550D01*
X99275842Y-107078550D02*
X99306795Y-107109503D01*
X99306795Y-107109503D02*
X99337747Y-107171408D01*
X99337747Y-107171408D02*
X99337747Y-107326169D01*
X99337747Y-107326169D02*
X99306795Y-107419027D01*
X98687747Y-107697598D02*
X99337747Y-107697598D01*
X99337747Y-107697598D02*
X99337747Y-107945217D01*
X99337747Y-107945217D02*
X99306795Y-108007122D01*
X99306795Y-108007122D02*
X99275842Y-108038075D01*
X99275842Y-108038075D02*
X99213938Y-108069027D01*
X99213938Y-108069027D02*
X99121080Y-108069027D01*
X99121080Y-108069027D02*
X99059176Y-108038075D01*
X99059176Y-108038075D02*
X99028223Y-108007122D01*
X99028223Y-108007122D02*
X98997271Y-107945217D01*
X98997271Y-107945217D02*
X98997271Y-107697598D01*
X98687747Y-108347598D02*
X99337747Y-108347598D01*
X98687747Y-108719027D02*
X99059176Y-108440456D01*
X99337747Y-108719027D02*
X98966319Y-108347598D01*
X98625842Y-108842837D02*
X98625842Y-109338075D01*
X98687747Y-109864265D02*
X98997271Y-109647598D01*
X98687747Y-109492836D02*
X99337747Y-109492836D01*
X99337747Y-109492836D02*
X99337747Y-109740455D01*
X99337747Y-109740455D02*
X99306795Y-109802360D01*
X99306795Y-109802360D02*
X99275842Y-109833313D01*
X99275842Y-109833313D02*
X99213938Y-109864265D01*
X99213938Y-109864265D02*
X99121080Y-109864265D01*
X99121080Y-109864265D02*
X99059176Y-109833313D01*
X99059176Y-109833313D02*
X99028223Y-109802360D01*
X99028223Y-109802360D02*
X98997271Y-109740455D01*
X98997271Y-109740455D02*
X98997271Y-109492836D01*
X98687747Y-110142836D02*
X99337747Y-110142836D01*
X99337747Y-110142836D02*
X98687747Y-110514265D01*
X98687747Y-110514265D02*
X99337747Y-110514265D01*
X102872366Y-107078550D02*
X102872366Y-107573789D01*
X102624747Y-107326169D02*
X103119985Y-107326169D01*
X103274747Y-108192836D02*
X103274747Y-107883312D01*
X103274747Y-107883312D02*
X102965223Y-107852360D01*
X102965223Y-107852360D02*
X102996176Y-107883312D01*
X102996176Y-107883312D02*
X103027128Y-107945217D01*
X103027128Y-107945217D02*
X103027128Y-108099979D01*
X103027128Y-108099979D02*
X102996176Y-108161884D01*
X102996176Y-108161884D02*
X102965223Y-108192836D01*
X102965223Y-108192836D02*
X102903319Y-108223789D01*
X102903319Y-108223789D02*
X102748557Y-108223789D01*
X102748557Y-108223789D02*
X102686652Y-108192836D01*
X102686652Y-108192836D02*
X102655700Y-108161884D01*
X102655700Y-108161884D02*
X102624747Y-108099979D01*
X102624747Y-108099979D02*
X102624747Y-107945217D01*
X102624747Y-107945217D02*
X102655700Y-107883312D01*
X102655700Y-107883312D02*
X102686652Y-107852360D01*
X103274747Y-108409503D02*
X102624747Y-108626170D01*
X102624747Y-108626170D02*
X103274747Y-108842837D01*
X107942795Y-91925027D02*
X107973747Y-91863122D01*
X107973747Y-91863122D02*
X107973747Y-91770265D01*
X107973747Y-91770265D02*
X107942795Y-91677408D01*
X107942795Y-91677408D02*
X107880890Y-91615503D01*
X107880890Y-91615503D02*
X107818985Y-91584550D01*
X107818985Y-91584550D02*
X107695176Y-91553598D01*
X107695176Y-91553598D02*
X107602319Y-91553598D01*
X107602319Y-91553598D02*
X107478509Y-91584550D01*
X107478509Y-91584550D02*
X107416604Y-91615503D01*
X107416604Y-91615503D02*
X107354700Y-91677408D01*
X107354700Y-91677408D02*
X107323747Y-91770265D01*
X107323747Y-91770265D02*
X107323747Y-91832169D01*
X107323747Y-91832169D02*
X107354700Y-91925027D01*
X107354700Y-91925027D02*
X107385652Y-91955979D01*
X107385652Y-91955979D02*
X107602319Y-91955979D01*
X107602319Y-91955979D02*
X107602319Y-91832169D01*
X107323747Y-92234550D02*
X107973747Y-92234550D01*
X107973747Y-92234550D02*
X107323747Y-92605979D01*
X107323747Y-92605979D02*
X107973747Y-92605979D01*
X107323747Y-92915502D02*
X107973747Y-92915502D01*
X107973747Y-92915502D02*
X107973747Y-93070264D01*
X107973747Y-93070264D02*
X107942795Y-93163121D01*
X107942795Y-93163121D02*
X107880890Y-93225026D01*
X107880890Y-93225026D02*
X107818985Y-93255979D01*
X107818985Y-93255979D02*
X107695176Y-93286931D01*
X107695176Y-93286931D02*
X107602319Y-93286931D01*
X107602319Y-93286931D02*
X107478509Y-93255979D01*
X107478509Y-93255979D02*
X107416604Y-93225026D01*
X107416604Y-93225026D02*
X107354700Y-93163121D01*
X107354700Y-93163121D02*
X107323747Y-93070264D01*
X107323747Y-93070264D02*
X107323747Y-92915502D01*
X101338795Y-107419027D02*
X101369747Y-107357122D01*
X101369747Y-107357122D02*
X101369747Y-107264265D01*
X101369747Y-107264265D02*
X101338795Y-107171408D01*
X101338795Y-107171408D02*
X101276890Y-107109503D01*
X101276890Y-107109503D02*
X101214985Y-107078550D01*
X101214985Y-107078550D02*
X101091176Y-107047598D01*
X101091176Y-107047598D02*
X100998319Y-107047598D01*
X100998319Y-107047598D02*
X100874509Y-107078550D01*
X100874509Y-107078550D02*
X100812604Y-107109503D01*
X100812604Y-107109503D02*
X100750700Y-107171408D01*
X100750700Y-107171408D02*
X100719747Y-107264265D01*
X100719747Y-107264265D02*
X100719747Y-107326169D01*
X100719747Y-107326169D02*
X100750700Y-107419027D01*
X100750700Y-107419027D02*
X100781652Y-107449979D01*
X100781652Y-107449979D02*
X100998319Y-107449979D01*
X100998319Y-107449979D02*
X100998319Y-107326169D01*
X100719747Y-107728550D02*
X101369747Y-107728550D01*
X101369747Y-107728550D02*
X100719747Y-108099979D01*
X100719747Y-108099979D02*
X101369747Y-108099979D01*
X100719747Y-108409502D02*
X101369747Y-108409502D01*
X101369747Y-108409502D02*
X101369747Y-108564264D01*
X101369747Y-108564264D02*
X101338795Y-108657121D01*
X101338795Y-108657121D02*
X101276890Y-108719026D01*
X101276890Y-108719026D02*
X101214985Y-108749979D01*
X101214985Y-108749979D02*
X101091176Y-108780931D01*
X101091176Y-108780931D02*
X100998319Y-108780931D01*
X100998319Y-108780931D02*
X100874509Y-108749979D01*
X100874509Y-108749979D02*
X100812604Y-108719026D01*
X100812604Y-108719026D02*
X100750700Y-108657121D01*
X100750700Y-108657121D02*
X100719747Y-108564264D01*
X100719747Y-108564264D02*
X100719747Y-108409502D01*
X113276795Y-99672027D02*
X113307747Y-99610122D01*
X113307747Y-99610122D02*
X113307747Y-99517265D01*
X113307747Y-99517265D02*
X113276795Y-99424408D01*
X113276795Y-99424408D02*
X113214890Y-99362503D01*
X113214890Y-99362503D02*
X113152985Y-99331550D01*
X113152985Y-99331550D02*
X113029176Y-99300598D01*
X113029176Y-99300598D02*
X112936319Y-99300598D01*
X112936319Y-99300598D02*
X112812509Y-99331550D01*
X112812509Y-99331550D02*
X112750604Y-99362503D01*
X112750604Y-99362503D02*
X112688700Y-99424408D01*
X112688700Y-99424408D02*
X112657747Y-99517265D01*
X112657747Y-99517265D02*
X112657747Y-99579169D01*
X112657747Y-99579169D02*
X112688700Y-99672027D01*
X112688700Y-99672027D02*
X112719652Y-99702979D01*
X112719652Y-99702979D02*
X112936319Y-99702979D01*
X112936319Y-99702979D02*
X112936319Y-99579169D01*
X112657747Y-99981550D02*
X113307747Y-99981550D01*
X113307747Y-99981550D02*
X113307747Y-100229169D01*
X113307747Y-100229169D02*
X113276795Y-100291074D01*
X113276795Y-100291074D02*
X113245842Y-100322027D01*
X113245842Y-100322027D02*
X113183938Y-100352979D01*
X113183938Y-100352979D02*
X113091080Y-100352979D01*
X113091080Y-100352979D02*
X113029176Y-100322027D01*
X113029176Y-100322027D02*
X112998223Y-100291074D01*
X112998223Y-100291074D02*
X112967271Y-100229169D01*
X112967271Y-100229169D02*
X112967271Y-99981550D01*
X112657747Y-100631550D02*
X113307747Y-100631550D01*
X113307747Y-101064884D02*
X113307747Y-101188693D01*
X113307747Y-101188693D02*
X113276795Y-101250598D01*
X113276795Y-101250598D02*
X113214890Y-101312503D01*
X113214890Y-101312503D02*
X113091080Y-101343455D01*
X113091080Y-101343455D02*
X112874414Y-101343455D01*
X112874414Y-101343455D02*
X112750604Y-101312503D01*
X112750604Y-101312503D02*
X112688700Y-101250598D01*
X112688700Y-101250598D02*
X112657747Y-101188693D01*
X112657747Y-101188693D02*
X112657747Y-101064884D01*
X112657747Y-101064884D02*
X112688700Y-101002979D01*
X112688700Y-101002979D02*
X112750604Y-100941074D01*
X112750604Y-100941074D02*
X112874414Y-100910122D01*
X112874414Y-100910122D02*
X113091080Y-100910122D01*
X113091080Y-100910122D02*
X113214890Y-100941074D01*
X113214890Y-100941074D02*
X113276795Y-101002979D01*
X113276795Y-101002979D02*
X113307747Y-101064884D01*
X113245842Y-101591074D02*
X113276795Y-101622026D01*
X113276795Y-101622026D02*
X113307747Y-101683931D01*
X113307747Y-101683931D02*
X113307747Y-101838693D01*
X113307747Y-101838693D02*
X113276795Y-101900598D01*
X113276795Y-101900598D02*
X113245842Y-101931550D01*
X113245842Y-101931550D02*
X113183938Y-101962503D01*
X113183938Y-101962503D02*
X113122033Y-101962503D01*
X113122033Y-101962503D02*
X113029176Y-101931550D01*
X113029176Y-101931550D02*
X112657747Y-101560122D01*
X112657747Y-101560122D02*
X112657747Y-101962503D01*
X113029176Y-102333932D02*
X113060128Y-102272027D01*
X113060128Y-102272027D02*
X113091080Y-102241074D01*
X113091080Y-102241074D02*
X113152985Y-102210122D01*
X113152985Y-102210122D02*
X113183938Y-102210122D01*
X113183938Y-102210122D02*
X113245842Y-102241074D01*
X113245842Y-102241074D02*
X113276795Y-102272027D01*
X113276795Y-102272027D02*
X113307747Y-102333932D01*
X113307747Y-102333932D02*
X113307747Y-102457741D01*
X113307747Y-102457741D02*
X113276795Y-102519646D01*
X113276795Y-102519646D02*
X113245842Y-102550598D01*
X113245842Y-102550598D02*
X113183938Y-102581551D01*
X113183938Y-102581551D02*
X113152985Y-102581551D01*
X113152985Y-102581551D02*
X113091080Y-102550598D01*
X113091080Y-102550598D02*
X113060128Y-102519646D01*
X113060128Y-102519646D02*
X113029176Y-102457741D01*
X113029176Y-102457741D02*
X113029176Y-102333932D01*
X113029176Y-102333932D02*
X112998223Y-102272027D01*
X112998223Y-102272027D02*
X112967271Y-102241074D01*
X112967271Y-102241074D02*
X112905366Y-102210122D01*
X112905366Y-102210122D02*
X112781557Y-102210122D01*
X112781557Y-102210122D02*
X112719652Y-102241074D01*
X112719652Y-102241074D02*
X112688700Y-102272027D01*
X112688700Y-102272027D02*
X112657747Y-102333932D01*
X112657747Y-102333932D02*
X112657747Y-102457741D01*
X112657747Y-102457741D02*
X112688700Y-102519646D01*
X112688700Y-102519646D02*
X112719652Y-102550598D01*
X112719652Y-102550598D02*
X112781557Y-102581551D01*
X112781557Y-102581551D02*
X112905366Y-102581551D01*
X112905366Y-102581551D02*
X112967271Y-102550598D01*
X112967271Y-102550598D02*
X112998223Y-102519646D01*
X112998223Y-102519646D02*
X113029176Y-102457741D01*
X106957747Y-106951550D02*
X106431557Y-106951550D01*
X106431557Y-106951550D02*
X106369652Y-106982503D01*
X106369652Y-106982503D02*
X106338700Y-107013455D01*
X106338700Y-107013455D02*
X106307747Y-107075360D01*
X106307747Y-107075360D02*
X106307747Y-107199169D01*
X106307747Y-107199169D02*
X106338700Y-107261074D01*
X106338700Y-107261074D02*
X106369652Y-107292027D01*
X106369652Y-107292027D02*
X106431557Y-107322979D01*
X106431557Y-107322979D02*
X106957747Y-107322979D01*
X106338700Y-107601550D02*
X106307747Y-107694407D01*
X106307747Y-107694407D02*
X106307747Y-107849169D01*
X106307747Y-107849169D02*
X106338700Y-107911074D01*
X106338700Y-107911074D02*
X106369652Y-107942026D01*
X106369652Y-107942026D02*
X106431557Y-107972979D01*
X106431557Y-107972979D02*
X106493461Y-107972979D01*
X106493461Y-107972979D02*
X106555366Y-107942026D01*
X106555366Y-107942026D02*
X106586319Y-107911074D01*
X106586319Y-107911074D02*
X106617271Y-107849169D01*
X106617271Y-107849169D02*
X106648223Y-107725360D01*
X106648223Y-107725360D02*
X106679176Y-107663455D01*
X106679176Y-107663455D02*
X106710128Y-107632502D01*
X106710128Y-107632502D02*
X106772033Y-107601550D01*
X106772033Y-107601550D02*
X106833938Y-107601550D01*
X106833938Y-107601550D02*
X106895842Y-107632502D01*
X106895842Y-107632502D02*
X106926795Y-107663455D01*
X106926795Y-107663455D02*
X106957747Y-107725360D01*
X106957747Y-107725360D02*
X106957747Y-107880121D01*
X106957747Y-107880121D02*
X106926795Y-107972979D01*
X106648223Y-108468217D02*
X106617271Y-108561074D01*
X106617271Y-108561074D02*
X106586319Y-108592027D01*
X106586319Y-108592027D02*
X106524414Y-108622979D01*
X106524414Y-108622979D02*
X106431557Y-108622979D01*
X106431557Y-108622979D02*
X106369652Y-108592027D01*
X106369652Y-108592027D02*
X106338700Y-108561074D01*
X106338700Y-108561074D02*
X106307747Y-108499169D01*
X106307747Y-108499169D02*
X106307747Y-108251550D01*
X106307747Y-108251550D02*
X106957747Y-108251550D01*
X106957747Y-108251550D02*
X106957747Y-108468217D01*
X106957747Y-108468217D02*
X106926795Y-108530122D01*
X106926795Y-108530122D02*
X106895842Y-108561074D01*
X106895842Y-108561074D02*
X106833938Y-108592027D01*
X106833938Y-108592027D02*
X106772033Y-108592027D01*
X106772033Y-108592027D02*
X106710128Y-108561074D01*
X106710128Y-108561074D02*
X106679176Y-108530122D01*
X106679176Y-108530122D02*
X106648223Y-108468217D01*
X106648223Y-108468217D02*
X106648223Y-108251550D01*
X106741080Y-109180122D02*
X106307747Y-109180122D01*
X106988700Y-109025360D02*
X106524414Y-108870598D01*
X106524414Y-108870598D02*
X106524414Y-109272979D01*
X106245842Y-109365837D02*
X106245842Y-109861075D01*
X106307747Y-110015836D02*
X106957747Y-110015836D01*
X106957747Y-110015836D02*
X106957747Y-110170598D01*
X106957747Y-110170598D02*
X106926795Y-110263455D01*
X106926795Y-110263455D02*
X106864890Y-110325360D01*
X106864890Y-110325360D02*
X106802985Y-110356313D01*
X106802985Y-110356313D02*
X106679176Y-110387265D01*
X106679176Y-110387265D02*
X106586319Y-110387265D01*
X106586319Y-110387265D02*
X106462509Y-110356313D01*
X106462509Y-110356313D02*
X106400604Y-110325360D01*
X106400604Y-110325360D02*
X106338700Y-110263455D01*
X106338700Y-110263455D02*
X106307747Y-110170598D01*
X106307747Y-110170598D02*
X106307747Y-110015836D01*
X106555366Y-110665836D02*
X106555366Y-111161075D01*
X100703795Y-99672027D02*
X100734747Y-99610122D01*
X100734747Y-99610122D02*
X100734747Y-99517265D01*
X100734747Y-99517265D02*
X100703795Y-99424408D01*
X100703795Y-99424408D02*
X100641890Y-99362503D01*
X100641890Y-99362503D02*
X100579985Y-99331550D01*
X100579985Y-99331550D02*
X100456176Y-99300598D01*
X100456176Y-99300598D02*
X100363319Y-99300598D01*
X100363319Y-99300598D02*
X100239509Y-99331550D01*
X100239509Y-99331550D02*
X100177604Y-99362503D01*
X100177604Y-99362503D02*
X100115700Y-99424408D01*
X100115700Y-99424408D02*
X100084747Y-99517265D01*
X100084747Y-99517265D02*
X100084747Y-99579169D01*
X100084747Y-99579169D02*
X100115700Y-99672027D01*
X100115700Y-99672027D02*
X100146652Y-99702979D01*
X100146652Y-99702979D02*
X100363319Y-99702979D01*
X100363319Y-99702979D02*
X100363319Y-99579169D01*
X100084747Y-99981550D02*
X100734747Y-99981550D01*
X100734747Y-99981550D02*
X100734747Y-100229169D01*
X100734747Y-100229169D02*
X100703795Y-100291074D01*
X100703795Y-100291074D02*
X100672842Y-100322027D01*
X100672842Y-100322027D02*
X100610938Y-100352979D01*
X100610938Y-100352979D02*
X100518080Y-100352979D01*
X100518080Y-100352979D02*
X100456176Y-100322027D01*
X100456176Y-100322027D02*
X100425223Y-100291074D01*
X100425223Y-100291074D02*
X100394271Y-100229169D01*
X100394271Y-100229169D02*
X100394271Y-99981550D01*
X100084747Y-100631550D02*
X100734747Y-100631550D01*
X100734747Y-101064884D02*
X100734747Y-101188693D01*
X100734747Y-101188693D02*
X100703795Y-101250598D01*
X100703795Y-101250598D02*
X100641890Y-101312503D01*
X100641890Y-101312503D02*
X100518080Y-101343455D01*
X100518080Y-101343455D02*
X100301414Y-101343455D01*
X100301414Y-101343455D02*
X100177604Y-101312503D01*
X100177604Y-101312503D02*
X100115700Y-101250598D01*
X100115700Y-101250598D02*
X100084747Y-101188693D01*
X100084747Y-101188693D02*
X100084747Y-101064884D01*
X100084747Y-101064884D02*
X100115700Y-101002979D01*
X100115700Y-101002979D02*
X100177604Y-100941074D01*
X100177604Y-100941074D02*
X100301414Y-100910122D01*
X100301414Y-100910122D02*
X100518080Y-100910122D01*
X100518080Y-100910122D02*
X100641890Y-100941074D01*
X100641890Y-100941074D02*
X100703795Y-101002979D01*
X100703795Y-101002979D02*
X100734747Y-101064884D01*
X100518080Y-101900598D02*
X100084747Y-101900598D01*
X100765700Y-101745836D02*
X100301414Y-101591074D01*
X100301414Y-101591074D02*
X100301414Y-101993455D01*
X100672842Y-102210122D02*
X100703795Y-102241074D01*
X100703795Y-102241074D02*
X100734747Y-102302979D01*
X100734747Y-102302979D02*
X100734747Y-102457741D01*
X100734747Y-102457741D02*
X100703795Y-102519646D01*
X100703795Y-102519646D02*
X100672842Y-102550598D01*
X100672842Y-102550598D02*
X100610938Y-102581551D01*
X100610938Y-102581551D02*
X100549033Y-102581551D01*
X100549033Y-102581551D02*
X100456176Y-102550598D01*
X100456176Y-102550598D02*
X100084747Y-102179170D01*
X100084747Y-102179170D02*
X100084747Y-102581551D01*
X101592795Y-98275027D02*
X101623747Y-98213122D01*
X101623747Y-98213122D02*
X101623747Y-98120265D01*
X101623747Y-98120265D02*
X101592795Y-98027408D01*
X101592795Y-98027408D02*
X101530890Y-97965503D01*
X101530890Y-97965503D02*
X101468985Y-97934550D01*
X101468985Y-97934550D02*
X101345176Y-97903598D01*
X101345176Y-97903598D02*
X101252319Y-97903598D01*
X101252319Y-97903598D02*
X101128509Y-97934550D01*
X101128509Y-97934550D02*
X101066604Y-97965503D01*
X101066604Y-97965503D02*
X101004700Y-98027408D01*
X101004700Y-98027408D02*
X100973747Y-98120265D01*
X100973747Y-98120265D02*
X100973747Y-98182169D01*
X100973747Y-98182169D02*
X101004700Y-98275027D01*
X101004700Y-98275027D02*
X101035652Y-98305979D01*
X101035652Y-98305979D02*
X101252319Y-98305979D01*
X101252319Y-98305979D02*
X101252319Y-98182169D01*
X100973747Y-98584550D02*
X101623747Y-98584550D01*
X101623747Y-98584550D02*
X101623747Y-98832169D01*
X101623747Y-98832169D02*
X101592795Y-98894074D01*
X101592795Y-98894074D02*
X101561842Y-98925027D01*
X101561842Y-98925027D02*
X101499938Y-98955979D01*
X101499938Y-98955979D02*
X101407080Y-98955979D01*
X101407080Y-98955979D02*
X101345176Y-98925027D01*
X101345176Y-98925027D02*
X101314223Y-98894074D01*
X101314223Y-98894074D02*
X101283271Y-98832169D01*
X101283271Y-98832169D02*
X101283271Y-98584550D01*
X100973747Y-99234550D02*
X101623747Y-99234550D01*
X101623747Y-99667884D02*
X101623747Y-99791693D01*
X101623747Y-99791693D02*
X101592795Y-99853598D01*
X101592795Y-99853598D02*
X101530890Y-99915503D01*
X101530890Y-99915503D02*
X101407080Y-99946455D01*
X101407080Y-99946455D02*
X101190414Y-99946455D01*
X101190414Y-99946455D02*
X101066604Y-99915503D01*
X101066604Y-99915503D02*
X101004700Y-99853598D01*
X101004700Y-99853598D02*
X100973747Y-99791693D01*
X100973747Y-99791693D02*
X100973747Y-99667884D01*
X100973747Y-99667884D02*
X101004700Y-99605979D01*
X101004700Y-99605979D02*
X101066604Y-99544074D01*
X101066604Y-99544074D02*
X101190414Y-99513122D01*
X101190414Y-99513122D02*
X101407080Y-99513122D01*
X101407080Y-99513122D02*
X101530890Y-99544074D01*
X101530890Y-99544074D02*
X101592795Y-99605979D01*
X101592795Y-99605979D02*
X101623747Y-99667884D01*
X101407080Y-100503598D02*
X100973747Y-100503598D01*
X101654700Y-100348836D02*
X101190414Y-100194074D01*
X101190414Y-100194074D02*
X101190414Y-100596455D01*
X100973747Y-101184551D02*
X100973747Y-100813122D01*
X100973747Y-100998836D02*
X101623747Y-100998836D01*
X101623747Y-100998836D02*
X101530890Y-100936932D01*
X101530890Y-100936932D02*
X101468985Y-100875027D01*
X101468985Y-100875027D02*
X101438033Y-100813122D01*
X111498795Y-99799027D02*
X111529747Y-99737122D01*
X111529747Y-99737122D02*
X111529747Y-99644265D01*
X111529747Y-99644265D02*
X111498795Y-99551408D01*
X111498795Y-99551408D02*
X111436890Y-99489503D01*
X111436890Y-99489503D02*
X111374985Y-99458550D01*
X111374985Y-99458550D02*
X111251176Y-99427598D01*
X111251176Y-99427598D02*
X111158319Y-99427598D01*
X111158319Y-99427598D02*
X111034509Y-99458550D01*
X111034509Y-99458550D02*
X110972604Y-99489503D01*
X110972604Y-99489503D02*
X110910700Y-99551408D01*
X110910700Y-99551408D02*
X110879747Y-99644265D01*
X110879747Y-99644265D02*
X110879747Y-99706169D01*
X110879747Y-99706169D02*
X110910700Y-99799027D01*
X110910700Y-99799027D02*
X110941652Y-99829979D01*
X110941652Y-99829979D02*
X111158319Y-99829979D01*
X111158319Y-99829979D02*
X111158319Y-99706169D01*
X110879747Y-100108550D02*
X111529747Y-100108550D01*
X111529747Y-100108550D02*
X111529747Y-100356169D01*
X111529747Y-100356169D02*
X111498795Y-100418074D01*
X111498795Y-100418074D02*
X111467842Y-100449027D01*
X111467842Y-100449027D02*
X111405938Y-100479979D01*
X111405938Y-100479979D02*
X111313080Y-100479979D01*
X111313080Y-100479979D02*
X111251176Y-100449027D01*
X111251176Y-100449027D02*
X111220223Y-100418074D01*
X111220223Y-100418074D02*
X111189271Y-100356169D01*
X111189271Y-100356169D02*
X111189271Y-100108550D01*
X110879747Y-100758550D02*
X111529747Y-100758550D01*
X111529747Y-101191884D02*
X111529747Y-101315693D01*
X111529747Y-101315693D02*
X111498795Y-101377598D01*
X111498795Y-101377598D02*
X111436890Y-101439503D01*
X111436890Y-101439503D02*
X111313080Y-101470455D01*
X111313080Y-101470455D02*
X111096414Y-101470455D01*
X111096414Y-101470455D02*
X110972604Y-101439503D01*
X110972604Y-101439503D02*
X110910700Y-101377598D01*
X110910700Y-101377598D02*
X110879747Y-101315693D01*
X110879747Y-101315693D02*
X110879747Y-101191884D01*
X110879747Y-101191884D02*
X110910700Y-101129979D01*
X110910700Y-101129979D02*
X110972604Y-101068074D01*
X110972604Y-101068074D02*
X111096414Y-101037122D01*
X111096414Y-101037122D02*
X111313080Y-101037122D01*
X111313080Y-101037122D02*
X111436890Y-101068074D01*
X111436890Y-101068074D02*
X111498795Y-101129979D01*
X111498795Y-101129979D02*
X111529747Y-101191884D01*
X111529747Y-101687122D02*
X111529747Y-102089503D01*
X111529747Y-102089503D02*
X111282128Y-101872836D01*
X111282128Y-101872836D02*
X111282128Y-101965693D01*
X111282128Y-101965693D02*
X111251176Y-102027598D01*
X111251176Y-102027598D02*
X111220223Y-102058550D01*
X111220223Y-102058550D02*
X111158319Y-102089503D01*
X111158319Y-102089503D02*
X111003557Y-102089503D01*
X111003557Y-102089503D02*
X110941652Y-102058550D01*
X110941652Y-102058550D02*
X110910700Y-102027598D01*
X110910700Y-102027598D02*
X110879747Y-101965693D01*
X110879747Y-101965693D02*
X110879747Y-101779979D01*
X110879747Y-101779979D02*
X110910700Y-101718074D01*
X110910700Y-101718074D02*
X110941652Y-101687122D01*
X111529747Y-102491884D02*
X111529747Y-102553789D01*
X111529747Y-102553789D02*
X111498795Y-102615693D01*
X111498795Y-102615693D02*
X111467842Y-102646646D01*
X111467842Y-102646646D02*
X111405938Y-102677598D01*
X111405938Y-102677598D02*
X111282128Y-102708551D01*
X111282128Y-102708551D02*
X111127366Y-102708551D01*
X111127366Y-102708551D02*
X111003557Y-102677598D01*
X111003557Y-102677598D02*
X110941652Y-102646646D01*
X110941652Y-102646646D02*
X110910700Y-102615693D01*
X110910700Y-102615693D02*
X110879747Y-102553789D01*
X110879747Y-102553789D02*
X110879747Y-102491884D01*
X110879747Y-102491884D02*
X110910700Y-102429979D01*
X110910700Y-102429979D02*
X110941652Y-102399027D01*
X110941652Y-102399027D02*
X111003557Y-102368074D01*
X111003557Y-102368074D02*
X111127366Y-102337122D01*
X111127366Y-102337122D02*
X111282128Y-102337122D01*
X111282128Y-102337122D02*
X111405938Y-102368074D01*
X111405938Y-102368074D02*
X111467842Y-102399027D01*
X111467842Y-102399027D02*
X111498795Y-102429979D01*
X111498795Y-102429979D02*
X111529747Y-102491884D01*
X111830652Y-86875979D02*
X111799700Y-86845027D01*
X111799700Y-86845027D02*
X111768747Y-86752169D01*
X111768747Y-86752169D02*
X111768747Y-86690265D01*
X111768747Y-86690265D02*
X111799700Y-86597408D01*
X111799700Y-86597408D02*
X111861604Y-86535503D01*
X111861604Y-86535503D02*
X111923509Y-86504550D01*
X111923509Y-86504550D02*
X112047319Y-86473598D01*
X112047319Y-86473598D02*
X112140176Y-86473598D01*
X112140176Y-86473598D02*
X112263985Y-86504550D01*
X112263985Y-86504550D02*
X112325890Y-86535503D01*
X112325890Y-86535503D02*
X112387795Y-86597408D01*
X112387795Y-86597408D02*
X112418747Y-86690265D01*
X112418747Y-86690265D02*
X112418747Y-86752169D01*
X112418747Y-86752169D02*
X112387795Y-86845027D01*
X112387795Y-86845027D02*
X112356842Y-86875979D01*
X111954461Y-87123598D02*
X111954461Y-87433122D01*
X111768747Y-87061693D02*
X112418747Y-87278360D01*
X112418747Y-87278360D02*
X111768747Y-87495027D01*
X111768747Y-87711693D02*
X112418747Y-87711693D01*
X112418747Y-87711693D02*
X111954461Y-87928360D01*
X111954461Y-87928360D02*
X112418747Y-88145027D01*
X112418747Y-88145027D02*
X111768747Y-88145027D01*
X111768747Y-88795027D02*
X111768747Y-88423598D01*
X111768747Y-88609312D02*
X112418747Y-88609312D01*
X112418747Y-88609312D02*
X112325890Y-88547408D01*
X112325890Y-88547408D02*
X112263985Y-88485503D01*
X112263985Y-88485503D02*
X112233033Y-88423598D01*
X111706842Y-88918837D02*
X111706842Y-89414075D01*
X111768747Y-89568836D02*
X112418747Y-89568836D01*
X112418747Y-89568836D02*
X112418747Y-89723598D01*
X112418747Y-89723598D02*
X112387795Y-89816455D01*
X112387795Y-89816455D02*
X112325890Y-89878360D01*
X112325890Y-89878360D02*
X112263985Y-89909313D01*
X112263985Y-89909313D02*
X112140176Y-89940265D01*
X112140176Y-89940265D02*
X112047319Y-89940265D01*
X112047319Y-89940265D02*
X111923509Y-89909313D01*
X111923509Y-89909313D02*
X111861604Y-89878360D01*
X111861604Y-89878360D02*
X111799700Y-89816455D01*
X111799700Y-89816455D02*
X111768747Y-89723598D01*
X111768747Y-89723598D02*
X111768747Y-89568836D01*
X111768747Y-90218836D02*
X112418747Y-90218836D01*
X112418747Y-90218836D02*
X111768747Y-90590265D01*
X111768747Y-90590265D02*
X112418747Y-90590265D01*
X112418747Y-91023598D02*
X112418747Y-91085503D01*
X112418747Y-91085503D02*
X112387795Y-91147407D01*
X112387795Y-91147407D02*
X112356842Y-91178360D01*
X112356842Y-91178360D02*
X112294938Y-91209312D01*
X112294938Y-91209312D02*
X112171128Y-91240265D01*
X112171128Y-91240265D02*
X112016366Y-91240265D01*
X112016366Y-91240265D02*
X111892557Y-91209312D01*
X111892557Y-91209312D02*
X111830652Y-91178360D01*
X111830652Y-91178360D02*
X111799700Y-91147407D01*
X111799700Y-91147407D02*
X111768747Y-91085503D01*
X111768747Y-91085503D02*
X111768747Y-91023598D01*
X111768747Y-91023598D02*
X111799700Y-90961693D01*
X111799700Y-90961693D02*
X111830652Y-90930741D01*
X111830652Y-90930741D02*
X111892557Y-90899788D01*
X111892557Y-90899788D02*
X112016366Y-90868836D01*
X112016366Y-90868836D02*
X112171128Y-90868836D01*
X112171128Y-90868836D02*
X112294938Y-90899788D01*
X112294938Y-90899788D02*
X112356842Y-90930741D01*
X112356842Y-90930741D02*
X112387795Y-90961693D01*
X112387795Y-90961693D02*
X112418747Y-91023598D01*
X104650366Y-107078550D02*
X104650366Y-107573789D01*
X104402747Y-107326169D02*
X104897985Y-107326169D01*
X105052747Y-108192836D02*
X105052747Y-107883312D01*
X105052747Y-107883312D02*
X104743223Y-107852360D01*
X104743223Y-107852360D02*
X104774176Y-107883312D01*
X104774176Y-107883312D02*
X104805128Y-107945217D01*
X104805128Y-107945217D02*
X104805128Y-108099979D01*
X104805128Y-108099979D02*
X104774176Y-108161884D01*
X104774176Y-108161884D02*
X104743223Y-108192836D01*
X104743223Y-108192836D02*
X104681319Y-108223789D01*
X104681319Y-108223789D02*
X104526557Y-108223789D01*
X104526557Y-108223789D02*
X104464652Y-108192836D01*
X104464652Y-108192836D02*
X104433700Y-108161884D01*
X104433700Y-108161884D02*
X104402747Y-108099979D01*
X104402747Y-108099979D02*
X104402747Y-107945217D01*
X104402747Y-107945217D02*
X104433700Y-107883312D01*
X104433700Y-107883312D02*
X104464652Y-107852360D01*
X105052747Y-108409503D02*
X104402747Y-108626170D01*
X104402747Y-108626170D02*
X105052747Y-108842837D01*
X101983366Y-110253550D02*
X101983366Y-110748789D01*
X101735747Y-110501169D02*
X102230985Y-110501169D01*
X102385747Y-111367836D02*
X102385747Y-111058312D01*
X102385747Y-111058312D02*
X102076223Y-111027360D01*
X102076223Y-111027360D02*
X102107176Y-111058312D01*
X102107176Y-111058312D02*
X102138128Y-111120217D01*
X102138128Y-111120217D02*
X102138128Y-111274979D01*
X102138128Y-111274979D02*
X102107176Y-111336884D01*
X102107176Y-111336884D02*
X102076223Y-111367836D01*
X102076223Y-111367836D02*
X102014319Y-111398789D01*
X102014319Y-111398789D02*
X101859557Y-111398789D01*
X101859557Y-111398789D02*
X101797652Y-111367836D01*
X101797652Y-111367836D02*
X101766700Y-111336884D01*
X101766700Y-111336884D02*
X101735747Y-111274979D01*
X101735747Y-111274979D02*
X101735747Y-111120217D01*
X101735747Y-111120217D02*
X101766700Y-111058312D01*
X101766700Y-111058312D02*
X101797652Y-111027360D01*
X102385747Y-111584503D02*
X101735747Y-111801170D01*
X101735747Y-111801170D02*
X102385747Y-112017837D01*
X102481795Y-99672027D02*
X102512747Y-99610122D01*
X102512747Y-99610122D02*
X102512747Y-99517265D01*
X102512747Y-99517265D02*
X102481795Y-99424408D01*
X102481795Y-99424408D02*
X102419890Y-99362503D01*
X102419890Y-99362503D02*
X102357985Y-99331550D01*
X102357985Y-99331550D02*
X102234176Y-99300598D01*
X102234176Y-99300598D02*
X102141319Y-99300598D01*
X102141319Y-99300598D02*
X102017509Y-99331550D01*
X102017509Y-99331550D02*
X101955604Y-99362503D01*
X101955604Y-99362503D02*
X101893700Y-99424408D01*
X101893700Y-99424408D02*
X101862747Y-99517265D01*
X101862747Y-99517265D02*
X101862747Y-99579169D01*
X101862747Y-99579169D02*
X101893700Y-99672027D01*
X101893700Y-99672027D02*
X101924652Y-99702979D01*
X101924652Y-99702979D02*
X102141319Y-99702979D01*
X102141319Y-99702979D02*
X102141319Y-99579169D01*
X101862747Y-99981550D02*
X102512747Y-99981550D01*
X102512747Y-99981550D02*
X102512747Y-100229169D01*
X102512747Y-100229169D02*
X102481795Y-100291074D01*
X102481795Y-100291074D02*
X102450842Y-100322027D01*
X102450842Y-100322027D02*
X102388938Y-100352979D01*
X102388938Y-100352979D02*
X102296080Y-100352979D01*
X102296080Y-100352979D02*
X102234176Y-100322027D01*
X102234176Y-100322027D02*
X102203223Y-100291074D01*
X102203223Y-100291074D02*
X102172271Y-100229169D01*
X102172271Y-100229169D02*
X102172271Y-99981550D01*
X101862747Y-100631550D02*
X102512747Y-100631550D01*
X102512747Y-101064884D02*
X102512747Y-101188693D01*
X102512747Y-101188693D02*
X102481795Y-101250598D01*
X102481795Y-101250598D02*
X102419890Y-101312503D01*
X102419890Y-101312503D02*
X102296080Y-101343455D01*
X102296080Y-101343455D02*
X102079414Y-101343455D01*
X102079414Y-101343455D02*
X101955604Y-101312503D01*
X101955604Y-101312503D02*
X101893700Y-101250598D01*
X101893700Y-101250598D02*
X101862747Y-101188693D01*
X101862747Y-101188693D02*
X101862747Y-101064884D01*
X101862747Y-101064884D02*
X101893700Y-101002979D01*
X101893700Y-101002979D02*
X101955604Y-100941074D01*
X101955604Y-100941074D02*
X102079414Y-100910122D01*
X102079414Y-100910122D02*
X102296080Y-100910122D01*
X102296080Y-100910122D02*
X102419890Y-100941074D01*
X102419890Y-100941074D02*
X102481795Y-101002979D01*
X102481795Y-101002979D02*
X102512747Y-101064884D01*
X102296080Y-101900598D02*
X101862747Y-101900598D01*
X102543700Y-101745836D02*
X102079414Y-101591074D01*
X102079414Y-101591074D02*
X102079414Y-101993455D01*
X102512747Y-102364884D02*
X102512747Y-102426789D01*
X102512747Y-102426789D02*
X102481795Y-102488693D01*
X102481795Y-102488693D02*
X102450842Y-102519646D01*
X102450842Y-102519646D02*
X102388938Y-102550598D01*
X102388938Y-102550598D02*
X102265128Y-102581551D01*
X102265128Y-102581551D02*
X102110366Y-102581551D01*
X102110366Y-102581551D02*
X101986557Y-102550598D01*
X101986557Y-102550598D02*
X101924652Y-102519646D01*
X101924652Y-102519646D02*
X101893700Y-102488693D01*
X101893700Y-102488693D02*
X101862747Y-102426789D01*
X101862747Y-102426789D02*
X101862747Y-102364884D01*
X101862747Y-102364884D02*
X101893700Y-102302979D01*
X101893700Y-102302979D02*
X101924652Y-102272027D01*
X101924652Y-102272027D02*
X101986557Y-102241074D01*
X101986557Y-102241074D02*
X102110366Y-102210122D01*
X102110366Y-102210122D02*
X102265128Y-102210122D01*
X102265128Y-102210122D02*
X102388938Y-102241074D01*
X102388938Y-102241074D02*
X102450842Y-102272027D01*
X102450842Y-102272027D02*
X102481795Y-102302979D01*
X102481795Y-102302979D02*
X102512747Y-102364884D01*
X108274652Y-86875979D02*
X108243700Y-86845027D01*
X108243700Y-86845027D02*
X108212747Y-86752169D01*
X108212747Y-86752169D02*
X108212747Y-86690265D01*
X108212747Y-86690265D02*
X108243700Y-86597408D01*
X108243700Y-86597408D02*
X108305604Y-86535503D01*
X108305604Y-86535503D02*
X108367509Y-86504550D01*
X108367509Y-86504550D02*
X108491319Y-86473598D01*
X108491319Y-86473598D02*
X108584176Y-86473598D01*
X108584176Y-86473598D02*
X108707985Y-86504550D01*
X108707985Y-86504550D02*
X108769890Y-86535503D01*
X108769890Y-86535503D02*
X108831795Y-86597408D01*
X108831795Y-86597408D02*
X108862747Y-86690265D01*
X108862747Y-86690265D02*
X108862747Y-86752169D01*
X108862747Y-86752169D02*
X108831795Y-86845027D01*
X108831795Y-86845027D02*
X108800842Y-86875979D01*
X108398461Y-87123598D02*
X108398461Y-87433122D01*
X108212747Y-87061693D02*
X108862747Y-87278360D01*
X108862747Y-87278360D02*
X108212747Y-87495027D01*
X108212747Y-87711693D02*
X108862747Y-87711693D01*
X108862747Y-87711693D02*
X108398461Y-87928360D01*
X108398461Y-87928360D02*
X108862747Y-88145027D01*
X108862747Y-88145027D02*
X108212747Y-88145027D01*
X108212747Y-88795027D02*
X108212747Y-88423598D01*
X108212747Y-88609312D02*
X108862747Y-88609312D01*
X108862747Y-88609312D02*
X108769890Y-88547408D01*
X108769890Y-88547408D02*
X108707985Y-88485503D01*
X108707985Y-88485503D02*
X108677033Y-88423598D01*
X108150842Y-88918837D02*
X108150842Y-89414075D01*
X108212747Y-89568836D02*
X108862747Y-89568836D01*
X108862747Y-89568836D02*
X108862747Y-89723598D01*
X108862747Y-89723598D02*
X108831795Y-89816455D01*
X108831795Y-89816455D02*
X108769890Y-89878360D01*
X108769890Y-89878360D02*
X108707985Y-89909313D01*
X108707985Y-89909313D02*
X108584176Y-89940265D01*
X108584176Y-89940265D02*
X108491319Y-89940265D01*
X108491319Y-89940265D02*
X108367509Y-89909313D01*
X108367509Y-89909313D02*
X108305604Y-89878360D01*
X108305604Y-89878360D02*
X108243700Y-89816455D01*
X108243700Y-89816455D02*
X108212747Y-89723598D01*
X108212747Y-89723598D02*
X108212747Y-89568836D01*
X108212747Y-90218836D02*
X108862747Y-90218836D01*
X108862747Y-90218836D02*
X108862747Y-90466455D01*
X108862747Y-90466455D02*
X108831795Y-90528360D01*
X108831795Y-90528360D02*
X108800842Y-90559313D01*
X108800842Y-90559313D02*
X108738938Y-90590265D01*
X108738938Y-90590265D02*
X108646080Y-90590265D01*
X108646080Y-90590265D02*
X108584176Y-90559313D01*
X108584176Y-90559313D02*
X108553223Y-90528360D01*
X108553223Y-90528360D02*
X108522271Y-90466455D01*
X108522271Y-90466455D02*
X108522271Y-90218836D01*
X108212747Y-91209313D02*
X108212747Y-90837884D01*
X108212747Y-91023598D02*
X108862747Y-91023598D01*
X108862747Y-91023598D02*
X108769890Y-90961694D01*
X108769890Y-90961694D02*
X108707985Y-90899789D01*
X108707985Y-90899789D02*
X108677033Y-90837884D01*
X103370795Y-98275027D02*
X103401747Y-98213122D01*
X103401747Y-98213122D02*
X103401747Y-98120265D01*
X103401747Y-98120265D02*
X103370795Y-98027408D01*
X103370795Y-98027408D02*
X103308890Y-97965503D01*
X103308890Y-97965503D02*
X103246985Y-97934550D01*
X103246985Y-97934550D02*
X103123176Y-97903598D01*
X103123176Y-97903598D02*
X103030319Y-97903598D01*
X103030319Y-97903598D02*
X102906509Y-97934550D01*
X102906509Y-97934550D02*
X102844604Y-97965503D01*
X102844604Y-97965503D02*
X102782700Y-98027408D01*
X102782700Y-98027408D02*
X102751747Y-98120265D01*
X102751747Y-98120265D02*
X102751747Y-98182169D01*
X102751747Y-98182169D02*
X102782700Y-98275027D01*
X102782700Y-98275027D02*
X102813652Y-98305979D01*
X102813652Y-98305979D02*
X103030319Y-98305979D01*
X103030319Y-98305979D02*
X103030319Y-98182169D01*
X102751747Y-98584550D02*
X103401747Y-98584550D01*
X103401747Y-98584550D02*
X103401747Y-98832169D01*
X103401747Y-98832169D02*
X103370795Y-98894074D01*
X103370795Y-98894074D02*
X103339842Y-98925027D01*
X103339842Y-98925027D02*
X103277938Y-98955979D01*
X103277938Y-98955979D02*
X103185080Y-98955979D01*
X103185080Y-98955979D02*
X103123176Y-98925027D01*
X103123176Y-98925027D02*
X103092223Y-98894074D01*
X103092223Y-98894074D02*
X103061271Y-98832169D01*
X103061271Y-98832169D02*
X103061271Y-98584550D01*
X102751747Y-99234550D02*
X103401747Y-99234550D01*
X103401747Y-99667884D02*
X103401747Y-99791693D01*
X103401747Y-99791693D02*
X103370795Y-99853598D01*
X103370795Y-99853598D02*
X103308890Y-99915503D01*
X103308890Y-99915503D02*
X103185080Y-99946455D01*
X103185080Y-99946455D02*
X102968414Y-99946455D01*
X102968414Y-99946455D02*
X102844604Y-99915503D01*
X102844604Y-99915503D02*
X102782700Y-99853598D01*
X102782700Y-99853598D02*
X102751747Y-99791693D01*
X102751747Y-99791693D02*
X102751747Y-99667884D01*
X102751747Y-99667884D02*
X102782700Y-99605979D01*
X102782700Y-99605979D02*
X102844604Y-99544074D01*
X102844604Y-99544074D02*
X102968414Y-99513122D01*
X102968414Y-99513122D02*
X103185080Y-99513122D01*
X103185080Y-99513122D02*
X103308890Y-99544074D01*
X103308890Y-99544074D02*
X103370795Y-99605979D01*
X103370795Y-99605979D02*
X103401747Y-99667884D01*
X103401747Y-100163122D02*
X103401747Y-100565503D01*
X103401747Y-100565503D02*
X103154128Y-100348836D01*
X103154128Y-100348836D02*
X103154128Y-100441693D01*
X103154128Y-100441693D02*
X103123176Y-100503598D01*
X103123176Y-100503598D02*
X103092223Y-100534550D01*
X103092223Y-100534550D02*
X103030319Y-100565503D01*
X103030319Y-100565503D02*
X102875557Y-100565503D01*
X102875557Y-100565503D02*
X102813652Y-100534550D01*
X102813652Y-100534550D02*
X102782700Y-100503598D01*
X102782700Y-100503598D02*
X102751747Y-100441693D01*
X102751747Y-100441693D02*
X102751747Y-100255979D01*
X102751747Y-100255979D02*
X102782700Y-100194074D01*
X102782700Y-100194074D02*
X102813652Y-100163122D01*
X102751747Y-100875027D02*
X102751747Y-100998836D01*
X102751747Y-100998836D02*
X102782700Y-101060741D01*
X102782700Y-101060741D02*
X102813652Y-101091693D01*
X102813652Y-101091693D02*
X102906509Y-101153598D01*
X102906509Y-101153598D02*
X103030319Y-101184551D01*
X103030319Y-101184551D02*
X103277938Y-101184551D01*
X103277938Y-101184551D02*
X103339842Y-101153598D01*
X103339842Y-101153598D02*
X103370795Y-101122646D01*
X103370795Y-101122646D02*
X103401747Y-101060741D01*
X103401747Y-101060741D02*
X103401747Y-100936932D01*
X103401747Y-100936932D02*
X103370795Y-100875027D01*
X103370795Y-100875027D02*
X103339842Y-100844074D01*
X103339842Y-100844074D02*
X103277938Y-100813122D01*
X103277938Y-100813122D02*
X103123176Y-100813122D01*
X103123176Y-100813122D02*
X103061271Y-100844074D01*
X103061271Y-100844074D02*
X103030319Y-100875027D01*
X103030319Y-100875027D02*
X102999366Y-100936932D01*
X102999366Y-100936932D02*
X102999366Y-101060741D01*
X102999366Y-101060741D02*
X103030319Y-101122646D01*
X103030319Y-101122646D02*
X103061271Y-101153598D01*
X103061271Y-101153598D02*
X103123176Y-101184551D01*
X99734700Y-108444598D02*
X99703747Y-108537455D01*
X99703747Y-108537455D02*
X99703747Y-108692217D01*
X99703747Y-108692217D02*
X99734700Y-108754122D01*
X99734700Y-108754122D02*
X99765652Y-108785074D01*
X99765652Y-108785074D02*
X99827557Y-108816027D01*
X99827557Y-108816027D02*
X99889461Y-108816027D01*
X99889461Y-108816027D02*
X99951366Y-108785074D01*
X99951366Y-108785074D02*
X99982319Y-108754122D01*
X99982319Y-108754122D02*
X100013271Y-108692217D01*
X100013271Y-108692217D02*
X100044223Y-108568408D01*
X100044223Y-108568408D02*
X100075176Y-108506503D01*
X100075176Y-108506503D02*
X100106128Y-108475550D01*
X100106128Y-108475550D02*
X100168033Y-108444598D01*
X100168033Y-108444598D02*
X100229938Y-108444598D01*
X100229938Y-108444598D02*
X100291842Y-108475550D01*
X100291842Y-108475550D02*
X100322795Y-108506503D01*
X100322795Y-108506503D02*
X100353747Y-108568408D01*
X100353747Y-108568408D02*
X100353747Y-108723169D01*
X100353747Y-108723169D02*
X100322795Y-108816027D01*
X99703747Y-109094598D02*
X100353747Y-109094598D01*
X100353747Y-109094598D02*
X100353747Y-109342217D01*
X100353747Y-109342217D02*
X100322795Y-109404122D01*
X100322795Y-109404122D02*
X100291842Y-109435075D01*
X100291842Y-109435075D02*
X100229938Y-109466027D01*
X100229938Y-109466027D02*
X100137080Y-109466027D01*
X100137080Y-109466027D02*
X100075176Y-109435075D01*
X100075176Y-109435075D02*
X100044223Y-109404122D01*
X100044223Y-109404122D02*
X100013271Y-109342217D01*
X100013271Y-109342217D02*
X100013271Y-109094598D01*
X99703747Y-109744598D02*
X100353747Y-109744598D01*
X99703747Y-110116027D02*
X100075176Y-109837456D01*
X100353747Y-110116027D02*
X99982319Y-109744598D01*
X99641842Y-110239837D02*
X99641842Y-110735075D01*
X99703747Y-111261265D02*
X100013271Y-111044598D01*
X99703747Y-110889836D02*
X100353747Y-110889836D01*
X100353747Y-110889836D02*
X100353747Y-111137455D01*
X100353747Y-111137455D02*
X100322795Y-111199360D01*
X100322795Y-111199360D02*
X100291842Y-111230313D01*
X100291842Y-111230313D02*
X100229938Y-111261265D01*
X100229938Y-111261265D02*
X100137080Y-111261265D01*
X100137080Y-111261265D02*
X100075176Y-111230313D01*
X100075176Y-111230313D02*
X100044223Y-111199360D01*
X100044223Y-111199360D02*
X100013271Y-111137455D01*
X100013271Y-111137455D02*
X100013271Y-110889836D01*
X99703747Y-111539836D02*
X100353747Y-111539836D01*
X100353747Y-111539836D02*
X100353747Y-111787455D01*
X100353747Y-111787455D02*
X100322795Y-111849360D01*
X100322795Y-111849360D02*
X100291842Y-111880313D01*
X100291842Y-111880313D02*
X100229938Y-111911265D01*
X100229938Y-111911265D02*
X100137080Y-111911265D01*
X100137080Y-111911265D02*
X100075176Y-111880313D01*
X100075176Y-111880313D02*
X100044223Y-111849360D01*
X100044223Y-111849360D02*
X100013271Y-111787455D01*
X100013271Y-111787455D02*
X100013271Y-111539836D01*
X109695795Y-99672027D02*
X109726747Y-99610122D01*
X109726747Y-99610122D02*
X109726747Y-99517265D01*
X109726747Y-99517265D02*
X109695795Y-99424408D01*
X109695795Y-99424408D02*
X109633890Y-99362503D01*
X109633890Y-99362503D02*
X109571985Y-99331550D01*
X109571985Y-99331550D02*
X109448176Y-99300598D01*
X109448176Y-99300598D02*
X109355319Y-99300598D01*
X109355319Y-99300598D02*
X109231509Y-99331550D01*
X109231509Y-99331550D02*
X109169604Y-99362503D01*
X109169604Y-99362503D02*
X109107700Y-99424408D01*
X109107700Y-99424408D02*
X109076747Y-99517265D01*
X109076747Y-99517265D02*
X109076747Y-99579169D01*
X109076747Y-99579169D02*
X109107700Y-99672027D01*
X109107700Y-99672027D02*
X109138652Y-99702979D01*
X109138652Y-99702979D02*
X109355319Y-99702979D01*
X109355319Y-99702979D02*
X109355319Y-99579169D01*
X109076747Y-99981550D02*
X109726747Y-99981550D01*
X109726747Y-99981550D02*
X109726747Y-100229169D01*
X109726747Y-100229169D02*
X109695795Y-100291074D01*
X109695795Y-100291074D02*
X109664842Y-100322027D01*
X109664842Y-100322027D02*
X109602938Y-100352979D01*
X109602938Y-100352979D02*
X109510080Y-100352979D01*
X109510080Y-100352979D02*
X109448176Y-100322027D01*
X109448176Y-100322027D02*
X109417223Y-100291074D01*
X109417223Y-100291074D02*
X109386271Y-100229169D01*
X109386271Y-100229169D02*
X109386271Y-99981550D01*
X109076747Y-100631550D02*
X109726747Y-100631550D01*
X109726747Y-101064884D02*
X109726747Y-101188693D01*
X109726747Y-101188693D02*
X109695795Y-101250598D01*
X109695795Y-101250598D02*
X109633890Y-101312503D01*
X109633890Y-101312503D02*
X109510080Y-101343455D01*
X109510080Y-101343455D02*
X109293414Y-101343455D01*
X109293414Y-101343455D02*
X109169604Y-101312503D01*
X109169604Y-101312503D02*
X109107700Y-101250598D01*
X109107700Y-101250598D02*
X109076747Y-101188693D01*
X109076747Y-101188693D02*
X109076747Y-101064884D01*
X109076747Y-101064884D02*
X109107700Y-101002979D01*
X109107700Y-101002979D02*
X109169604Y-100941074D01*
X109169604Y-100941074D02*
X109293414Y-100910122D01*
X109293414Y-100910122D02*
X109510080Y-100910122D01*
X109510080Y-100910122D02*
X109633890Y-100941074D01*
X109633890Y-100941074D02*
X109695795Y-101002979D01*
X109695795Y-101002979D02*
X109726747Y-101064884D01*
X109726747Y-101560122D02*
X109726747Y-101962503D01*
X109726747Y-101962503D02*
X109479128Y-101745836D01*
X109479128Y-101745836D02*
X109479128Y-101838693D01*
X109479128Y-101838693D02*
X109448176Y-101900598D01*
X109448176Y-101900598D02*
X109417223Y-101931550D01*
X109417223Y-101931550D02*
X109355319Y-101962503D01*
X109355319Y-101962503D02*
X109200557Y-101962503D01*
X109200557Y-101962503D02*
X109138652Y-101931550D01*
X109138652Y-101931550D02*
X109107700Y-101900598D01*
X109107700Y-101900598D02*
X109076747Y-101838693D01*
X109076747Y-101838693D02*
X109076747Y-101652979D01*
X109076747Y-101652979D02*
X109107700Y-101591074D01*
X109107700Y-101591074D02*
X109138652Y-101560122D01*
X109664842Y-102210122D02*
X109695795Y-102241074D01*
X109695795Y-102241074D02*
X109726747Y-102302979D01*
X109726747Y-102302979D02*
X109726747Y-102457741D01*
X109726747Y-102457741D02*
X109695795Y-102519646D01*
X109695795Y-102519646D02*
X109664842Y-102550598D01*
X109664842Y-102550598D02*
X109602938Y-102581551D01*
X109602938Y-102581551D02*
X109541033Y-102581551D01*
X109541033Y-102581551D02*
X109448176Y-102550598D01*
X109448176Y-102550598D02*
X109076747Y-102179170D01*
X109076747Y-102179170D02*
X109076747Y-102581551D01*
X101035652Y-87002979D02*
X101004700Y-86972027D01*
X101004700Y-86972027D02*
X100973747Y-86879169D01*
X100973747Y-86879169D02*
X100973747Y-86817265D01*
X100973747Y-86817265D02*
X101004700Y-86724408D01*
X101004700Y-86724408D02*
X101066604Y-86662503D01*
X101066604Y-86662503D02*
X101128509Y-86631550D01*
X101128509Y-86631550D02*
X101252319Y-86600598D01*
X101252319Y-86600598D02*
X101345176Y-86600598D01*
X101345176Y-86600598D02*
X101468985Y-86631550D01*
X101468985Y-86631550D02*
X101530890Y-86662503D01*
X101530890Y-86662503D02*
X101592795Y-86724408D01*
X101592795Y-86724408D02*
X101623747Y-86817265D01*
X101623747Y-86817265D02*
X101623747Y-86879169D01*
X101623747Y-86879169D02*
X101592795Y-86972027D01*
X101592795Y-86972027D02*
X101561842Y-87002979D01*
X101159461Y-87250598D02*
X101159461Y-87560122D01*
X100973747Y-87188693D02*
X101623747Y-87405360D01*
X101623747Y-87405360D02*
X100973747Y-87622027D01*
X100973747Y-87838693D02*
X101623747Y-87838693D01*
X101623747Y-87838693D02*
X101159461Y-88055360D01*
X101159461Y-88055360D02*
X101623747Y-88272027D01*
X101623747Y-88272027D02*
X100973747Y-88272027D01*
X100973747Y-88922027D02*
X100973747Y-88550598D01*
X100973747Y-88736312D02*
X101623747Y-88736312D01*
X101623747Y-88736312D02*
X101530890Y-88674408D01*
X101530890Y-88674408D02*
X101468985Y-88612503D01*
X101468985Y-88612503D02*
X101438033Y-88550598D01*
X100911842Y-89045837D02*
X100911842Y-89541075D01*
X100973747Y-89695836D02*
X101623747Y-89695836D01*
X101623747Y-89695836D02*
X101623747Y-89850598D01*
X101623747Y-89850598D02*
X101592795Y-89943455D01*
X101592795Y-89943455D02*
X101530890Y-90005360D01*
X101530890Y-90005360D02*
X101468985Y-90036313D01*
X101468985Y-90036313D02*
X101345176Y-90067265D01*
X101345176Y-90067265D02*
X101252319Y-90067265D01*
X101252319Y-90067265D02*
X101128509Y-90036313D01*
X101128509Y-90036313D02*
X101066604Y-90005360D01*
X101066604Y-90005360D02*
X101004700Y-89943455D01*
X101004700Y-89943455D02*
X100973747Y-89850598D01*
X100973747Y-89850598D02*
X100973747Y-89695836D01*
X100973747Y-90345836D02*
X101623747Y-90345836D01*
X101623747Y-90345836D02*
X100973747Y-90717265D01*
X100973747Y-90717265D02*
X101623747Y-90717265D01*
X101623747Y-90964884D02*
X101623747Y-91367265D01*
X101623747Y-91367265D02*
X101376128Y-91150598D01*
X101376128Y-91150598D02*
X101376128Y-91243455D01*
X101376128Y-91243455D02*
X101345176Y-91305360D01*
X101345176Y-91305360D02*
X101314223Y-91336312D01*
X101314223Y-91336312D02*
X101252319Y-91367265D01*
X101252319Y-91367265D02*
X101097557Y-91367265D01*
X101097557Y-91367265D02*
X101035652Y-91336312D01*
X101035652Y-91336312D02*
X101004700Y-91305360D01*
X101004700Y-91305360D02*
X100973747Y-91243455D01*
X100973747Y-91243455D02*
X100973747Y-91057741D01*
X100973747Y-91057741D02*
X101004700Y-90995836D01*
X101004700Y-90995836D02*
X101035652Y-90964884D01*
X100146652Y-88907979D02*
X100115700Y-88877027D01*
X100115700Y-88877027D02*
X100084747Y-88784169D01*
X100084747Y-88784169D02*
X100084747Y-88722265D01*
X100084747Y-88722265D02*
X100115700Y-88629408D01*
X100115700Y-88629408D02*
X100177604Y-88567503D01*
X100177604Y-88567503D02*
X100239509Y-88536550D01*
X100239509Y-88536550D02*
X100363319Y-88505598D01*
X100363319Y-88505598D02*
X100456176Y-88505598D01*
X100456176Y-88505598D02*
X100579985Y-88536550D01*
X100579985Y-88536550D02*
X100641890Y-88567503D01*
X100641890Y-88567503D02*
X100703795Y-88629408D01*
X100703795Y-88629408D02*
X100734747Y-88722265D01*
X100734747Y-88722265D02*
X100734747Y-88784169D01*
X100734747Y-88784169D02*
X100703795Y-88877027D01*
X100703795Y-88877027D02*
X100672842Y-88907979D01*
X100270461Y-89155598D02*
X100270461Y-89465122D01*
X100084747Y-89093693D02*
X100734747Y-89310360D01*
X100734747Y-89310360D02*
X100084747Y-89527027D01*
X100084747Y-89743693D02*
X100734747Y-89743693D01*
X100734747Y-89743693D02*
X100270461Y-89960360D01*
X100270461Y-89960360D02*
X100734747Y-90177027D01*
X100734747Y-90177027D02*
X100084747Y-90177027D01*
X100084747Y-90827027D02*
X100084747Y-90455598D01*
X100084747Y-90641312D02*
X100734747Y-90641312D01*
X100734747Y-90641312D02*
X100641890Y-90579408D01*
X100641890Y-90579408D02*
X100579985Y-90517503D01*
X100579985Y-90517503D02*
X100549033Y-90455598D01*
X100022842Y-90950837D02*
X100022842Y-91446075D01*
X100084747Y-91600836D02*
X100734747Y-91600836D01*
X100734747Y-91600836D02*
X100734747Y-91755598D01*
X100734747Y-91755598D02*
X100703795Y-91848455D01*
X100703795Y-91848455D02*
X100641890Y-91910360D01*
X100641890Y-91910360D02*
X100579985Y-91941313D01*
X100579985Y-91941313D02*
X100456176Y-91972265D01*
X100456176Y-91972265D02*
X100363319Y-91972265D01*
X100363319Y-91972265D02*
X100239509Y-91941313D01*
X100239509Y-91941313D02*
X100177604Y-91910360D01*
X100177604Y-91910360D02*
X100115700Y-91848455D01*
X100115700Y-91848455D02*
X100084747Y-91755598D01*
X100084747Y-91755598D02*
X100084747Y-91600836D01*
X100084747Y-92250836D02*
X100734747Y-92250836D01*
X100734747Y-92250836D02*
X100734747Y-92498455D01*
X100734747Y-92498455D02*
X100703795Y-92560360D01*
X100703795Y-92560360D02*
X100672842Y-92591313D01*
X100672842Y-92591313D02*
X100610938Y-92622265D01*
X100610938Y-92622265D02*
X100518080Y-92622265D01*
X100518080Y-92622265D02*
X100456176Y-92591313D01*
X100456176Y-92591313D02*
X100425223Y-92560360D01*
X100425223Y-92560360D02*
X100394271Y-92498455D01*
X100394271Y-92498455D02*
X100394271Y-92250836D01*
X100734747Y-92838932D02*
X100734747Y-93241313D01*
X100734747Y-93241313D02*
X100487128Y-93024646D01*
X100487128Y-93024646D02*
X100487128Y-93117503D01*
X100487128Y-93117503D02*
X100456176Y-93179408D01*
X100456176Y-93179408D02*
X100425223Y-93210360D01*
X100425223Y-93210360D02*
X100363319Y-93241313D01*
X100363319Y-93241313D02*
X100208557Y-93241313D01*
X100208557Y-93241313D02*
X100146652Y-93210360D01*
X100146652Y-93210360D02*
X100115700Y-93179408D01*
X100115700Y-93179408D02*
X100084747Y-93117503D01*
X100084747Y-93117503D02*
X100084747Y-92931789D01*
X100084747Y-92931789D02*
X100115700Y-92869884D01*
X100115700Y-92869884D02*
X100146652Y-92838932D01*
X104259795Y-99672027D02*
X104290747Y-99610122D01*
X104290747Y-99610122D02*
X104290747Y-99517265D01*
X104290747Y-99517265D02*
X104259795Y-99424408D01*
X104259795Y-99424408D02*
X104197890Y-99362503D01*
X104197890Y-99362503D02*
X104135985Y-99331550D01*
X104135985Y-99331550D02*
X104012176Y-99300598D01*
X104012176Y-99300598D02*
X103919319Y-99300598D01*
X103919319Y-99300598D02*
X103795509Y-99331550D01*
X103795509Y-99331550D02*
X103733604Y-99362503D01*
X103733604Y-99362503D02*
X103671700Y-99424408D01*
X103671700Y-99424408D02*
X103640747Y-99517265D01*
X103640747Y-99517265D02*
X103640747Y-99579169D01*
X103640747Y-99579169D02*
X103671700Y-99672027D01*
X103671700Y-99672027D02*
X103702652Y-99702979D01*
X103702652Y-99702979D02*
X103919319Y-99702979D01*
X103919319Y-99702979D02*
X103919319Y-99579169D01*
X103640747Y-99981550D02*
X104290747Y-99981550D01*
X104290747Y-99981550D02*
X104290747Y-100229169D01*
X104290747Y-100229169D02*
X104259795Y-100291074D01*
X104259795Y-100291074D02*
X104228842Y-100322027D01*
X104228842Y-100322027D02*
X104166938Y-100352979D01*
X104166938Y-100352979D02*
X104074080Y-100352979D01*
X104074080Y-100352979D02*
X104012176Y-100322027D01*
X104012176Y-100322027D02*
X103981223Y-100291074D01*
X103981223Y-100291074D02*
X103950271Y-100229169D01*
X103950271Y-100229169D02*
X103950271Y-99981550D01*
X103640747Y-100631550D02*
X104290747Y-100631550D01*
X104290747Y-101064884D02*
X104290747Y-101188693D01*
X104290747Y-101188693D02*
X104259795Y-101250598D01*
X104259795Y-101250598D02*
X104197890Y-101312503D01*
X104197890Y-101312503D02*
X104074080Y-101343455D01*
X104074080Y-101343455D02*
X103857414Y-101343455D01*
X103857414Y-101343455D02*
X103733604Y-101312503D01*
X103733604Y-101312503D02*
X103671700Y-101250598D01*
X103671700Y-101250598D02*
X103640747Y-101188693D01*
X103640747Y-101188693D02*
X103640747Y-101064884D01*
X103640747Y-101064884D02*
X103671700Y-101002979D01*
X103671700Y-101002979D02*
X103733604Y-100941074D01*
X103733604Y-100941074D02*
X103857414Y-100910122D01*
X103857414Y-100910122D02*
X104074080Y-100910122D01*
X104074080Y-100910122D02*
X104197890Y-100941074D01*
X104197890Y-100941074D02*
X104259795Y-101002979D01*
X104259795Y-101002979D02*
X104290747Y-101064884D01*
X104290747Y-101560122D02*
X104290747Y-101962503D01*
X104290747Y-101962503D02*
X104043128Y-101745836D01*
X104043128Y-101745836D02*
X104043128Y-101838693D01*
X104043128Y-101838693D02*
X104012176Y-101900598D01*
X104012176Y-101900598D02*
X103981223Y-101931550D01*
X103981223Y-101931550D02*
X103919319Y-101962503D01*
X103919319Y-101962503D02*
X103764557Y-101962503D01*
X103764557Y-101962503D02*
X103702652Y-101931550D01*
X103702652Y-101931550D02*
X103671700Y-101900598D01*
X103671700Y-101900598D02*
X103640747Y-101838693D01*
X103640747Y-101838693D02*
X103640747Y-101652979D01*
X103640747Y-101652979D02*
X103671700Y-101591074D01*
X103671700Y-101591074D02*
X103702652Y-101560122D01*
X104012176Y-102333932D02*
X104043128Y-102272027D01*
X104043128Y-102272027D02*
X104074080Y-102241074D01*
X104074080Y-102241074D02*
X104135985Y-102210122D01*
X104135985Y-102210122D02*
X104166938Y-102210122D01*
X104166938Y-102210122D02*
X104228842Y-102241074D01*
X104228842Y-102241074D02*
X104259795Y-102272027D01*
X104259795Y-102272027D02*
X104290747Y-102333932D01*
X104290747Y-102333932D02*
X104290747Y-102457741D01*
X104290747Y-102457741D02*
X104259795Y-102519646D01*
X104259795Y-102519646D02*
X104228842Y-102550598D01*
X104228842Y-102550598D02*
X104166938Y-102581551D01*
X104166938Y-102581551D02*
X104135985Y-102581551D01*
X104135985Y-102581551D02*
X104074080Y-102550598D01*
X104074080Y-102550598D02*
X104043128Y-102519646D01*
X104043128Y-102519646D02*
X104012176Y-102457741D01*
X104012176Y-102457741D02*
X104012176Y-102333932D01*
X104012176Y-102333932D02*
X103981223Y-102272027D01*
X103981223Y-102272027D02*
X103950271Y-102241074D01*
X103950271Y-102241074D02*
X103888366Y-102210122D01*
X103888366Y-102210122D02*
X103764557Y-102210122D01*
X103764557Y-102210122D02*
X103702652Y-102241074D01*
X103702652Y-102241074D02*
X103671700Y-102272027D01*
X103671700Y-102272027D02*
X103640747Y-102333932D01*
X103640747Y-102333932D02*
X103640747Y-102457741D01*
X103640747Y-102457741D02*
X103671700Y-102519646D01*
X103671700Y-102519646D02*
X103702652Y-102550598D01*
X103702652Y-102550598D02*
X103764557Y-102581551D01*
X103764557Y-102581551D02*
X103888366Y-102581551D01*
X103888366Y-102581551D02*
X103950271Y-102550598D01*
X103950271Y-102550598D02*
X103981223Y-102519646D01*
X103981223Y-102519646D02*
X104012176Y-102457741D01*
X110814652Y-89034979D02*
X110783700Y-89004027D01*
X110783700Y-89004027D02*
X110752747Y-88911169D01*
X110752747Y-88911169D02*
X110752747Y-88849265D01*
X110752747Y-88849265D02*
X110783700Y-88756408D01*
X110783700Y-88756408D02*
X110845604Y-88694503D01*
X110845604Y-88694503D02*
X110907509Y-88663550D01*
X110907509Y-88663550D02*
X111031319Y-88632598D01*
X111031319Y-88632598D02*
X111124176Y-88632598D01*
X111124176Y-88632598D02*
X111247985Y-88663550D01*
X111247985Y-88663550D02*
X111309890Y-88694503D01*
X111309890Y-88694503D02*
X111371795Y-88756408D01*
X111371795Y-88756408D02*
X111402747Y-88849265D01*
X111402747Y-88849265D02*
X111402747Y-88911169D01*
X111402747Y-88911169D02*
X111371795Y-89004027D01*
X111371795Y-89004027D02*
X111340842Y-89034979D01*
X110938461Y-89282598D02*
X110938461Y-89592122D01*
X110752747Y-89220693D02*
X111402747Y-89437360D01*
X111402747Y-89437360D02*
X110752747Y-89654027D01*
X110752747Y-89870693D02*
X111402747Y-89870693D01*
X111402747Y-89870693D02*
X110938461Y-90087360D01*
X110938461Y-90087360D02*
X111402747Y-90304027D01*
X111402747Y-90304027D02*
X110752747Y-90304027D01*
X110752747Y-90954027D02*
X110752747Y-90582598D01*
X110752747Y-90768312D02*
X111402747Y-90768312D01*
X111402747Y-90768312D02*
X111309890Y-90706408D01*
X111309890Y-90706408D02*
X111247985Y-90644503D01*
X111247985Y-90644503D02*
X111217033Y-90582598D01*
X110690842Y-91077837D02*
X110690842Y-91573075D01*
X110752747Y-91727836D02*
X111402747Y-91727836D01*
X111402747Y-91727836D02*
X111402747Y-91882598D01*
X111402747Y-91882598D02*
X111371795Y-91975455D01*
X111371795Y-91975455D02*
X111309890Y-92037360D01*
X111309890Y-92037360D02*
X111247985Y-92068313D01*
X111247985Y-92068313D02*
X111124176Y-92099265D01*
X111124176Y-92099265D02*
X111031319Y-92099265D01*
X111031319Y-92099265D02*
X110907509Y-92068313D01*
X110907509Y-92068313D02*
X110845604Y-92037360D01*
X110845604Y-92037360D02*
X110783700Y-91975455D01*
X110783700Y-91975455D02*
X110752747Y-91882598D01*
X110752747Y-91882598D02*
X110752747Y-91727836D01*
X110752747Y-92377836D02*
X111402747Y-92377836D01*
X111402747Y-92377836D02*
X111402747Y-92625455D01*
X111402747Y-92625455D02*
X111371795Y-92687360D01*
X111371795Y-92687360D02*
X111340842Y-92718313D01*
X111340842Y-92718313D02*
X111278938Y-92749265D01*
X111278938Y-92749265D02*
X111186080Y-92749265D01*
X111186080Y-92749265D02*
X111124176Y-92718313D01*
X111124176Y-92718313D02*
X111093223Y-92687360D01*
X111093223Y-92687360D02*
X111062271Y-92625455D01*
X111062271Y-92625455D02*
X111062271Y-92377836D01*
X111402747Y-93151646D02*
X111402747Y-93213551D01*
X111402747Y-93213551D02*
X111371795Y-93275455D01*
X111371795Y-93275455D02*
X111340842Y-93306408D01*
X111340842Y-93306408D02*
X111278938Y-93337360D01*
X111278938Y-93337360D02*
X111155128Y-93368313D01*
X111155128Y-93368313D02*
X111000366Y-93368313D01*
X111000366Y-93368313D02*
X110876557Y-93337360D01*
X110876557Y-93337360D02*
X110814652Y-93306408D01*
X110814652Y-93306408D02*
X110783700Y-93275455D01*
X110783700Y-93275455D02*
X110752747Y-93213551D01*
X110752747Y-93213551D02*
X110752747Y-93151646D01*
X110752747Y-93151646D02*
X110783700Y-93089741D01*
X110783700Y-93089741D02*
X110814652Y-93058789D01*
X110814652Y-93058789D02*
X110876557Y-93027836D01*
X110876557Y-93027836D02*
X111000366Y-92996884D01*
X111000366Y-92996884D02*
X111155128Y-92996884D01*
X111155128Y-92996884D02*
X111278938Y-93027836D01*
X111278938Y-93027836D02*
X111340842Y-93058789D01*
X111340842Y-93058789D02*
X111371795Y-93089741D01*
X111371795Y-93089741D02*
X111402747Y-93151646D01*
X103761366Y-110253550D02*
X103761366Y-110748789D01*
X103513747Y-110501169D02*
X104008985Y-110501169D01*
X104163747Y-111367836D02*
X104163747Y-111058312D01*
X104163747Y-111058312D02*
X103854223Y-111027360D01*
X103854223Y-111027360D02*
X103885176Y-111058312D01*
X103885176Y-111058312D02*
X103916128Y-111120217D01*
X103916128Y-111120217D02*
X103916128Y-111274979D01*
X103916128Y-111274979D02*
X103885176Y-111336884D01*
X103885176Y-111336884D02*
X103854223Y-111367836D01*
X103854223Y-111367836D02*
X103792319Y-111398789D01*
X103792319Y-111398789D02*
X103637557Y-111398789D01*
X103637557Y-111398789D02*
X103575652Y-111367836D01*
X103575652Y-111367836D02*
X103544700Y-111336884D01*
X103544700Y-111336884D02*
X103513747Y-111274979D01*
X103513747Y-111274979D02*
X103513747Y-111120217D01*
X103513747Y-111120217D02*
X103544700Y-111058312D01*
X103544700Y-111058312D02*
X103575652Y-111027360D01*
X104163747Y-111584503D02*
X103513747Y-111801170D01*
X103513747Y-111801170D02*
X104163747Y-112017837D01*
X97909795Y-98275027D02*
X97940747Y-98213122D01*
X97940747Y-98213122D02*
X97940747Y-98120265D01*
X97940747Y-98120265D02*
X97909795Y-98027408D01*
X97909795Y-98027408D02*
X97847890Y-97965503D01*
X97847890Y-97965503D02*
X97785985Y-97934550D01*
X97785985Y-97934550D02*
X97662176Y-97903598D01*
X97662176Y-97903598D02*
X97569319Y-97903598D01*
X97569319Y-97903598D02*
X97445509Y-97934550D01*
X97445509Y-97934550D02*
X97383604Y-97965503D01*
X97383604Y-97965503D02*
X97321700Y-98027408D01*
X97321700Y-98027408D02*
X97290747Y-98120265D01*
X97290747Y-98120265D02*
X97290747Y-98182169D01*
X97290747Y-98182169D02*
X97321700Y-98275027D01*
X97321700Y-98275027D02*
X97352652Y-98305979D01*
X97352652Y-98305979D02*
X97569319Y-98305979D01*
X97569319Y-98305979D02*
X97569319Y-98182169D01*
X97290747Y-98584550D02*
X97940747Y-98584550D01*
X97940747Y-98584550D02*
X97940747Y-98832169D01*
X97940747Y-98832169D02*
X97909795Y-98894074D01*
X97909795Y-98894074D02*
X97878842Y-98925027D01*
X97878842Y-98925027D02*
X97816938Y-98955979D01*
X97816938Y-98955979D02*
X97724080Y-98955979D01*
X97724080Y-98955979D02*
X97662176Y-98925027D01*
X97662176Y-98925027D02*
X97631223Y-98894074D01*
X97631223Y-98894074D02*
X97600271Y-98832169D01*
X97600271Y-98832169D02*
X97600271Y-98584550D01*
X97290747Y-99234550D02*
X97940747Y-99234550D01*
X97940747Y-99667884D02*
X97940747Y-99791693D01*
X97940747Y-99791693D02*
X97909795Y-99853598D01*
X97909795Y-99853598D02*
X97847890Y-99915503D01*
X97847890Y-99915503D02*
X97724080Y-99946455D01*
X97724080Y-99946455D02*
X97507414Y-99946455D01*
X97507414Y-99946455D02*
X97383604Y-99915503D01*
X97383604Y-99915503D02*
X97321700Y-99853598D01*
X97321700Y-99853598D02*
X97290747Y-99791693D01*
X97290747Y-99791693D02*
X97290747Y-99667884D01*
X97290747Y-99667884D02*
X97321700Y-99605979D01*
X97321700Y-99605979D02*
X97383604Y-99544074D01*
X97383604Y-99544074D02*
X97507414Y-99513122D01*
X97507414Y-99513122D02*
X97724080Y-99513122D01*
X97724080Y-99513122D02*
X97847890Y-99544074D01*
X97847890Y-99544074D02*
X97909795Y-99605979D01*
X97909795Y-99605979D02*
X97940747Y-99667884D01*
X97724080Y-100503598D02*
X97290747Y-100503598D01*
X97971700Y-100348836D02*
X97507414Y-100194074D01*
X97507414Y-100194074D02*
X97507414Y-100596455D01*
X97940747Y-101153598D02*
X97940747Y-100844074D01*
X97940747Y-100844074D02*
X97631223Y-100813122D01*
X97631223Y-100813122D02*
X97662176Y-100844074D01*
X97662176Y-100844074D02*
X97693128Y-100905979D01*
X97693128Y-100905979D02*
X97693128Y-101060741D01*
X97693128Y-101060741D02*
X97662176Y-101122646D01*
X97662176Y-101122646D02*
X97631223Y-101153598D01*
X97631223Y-101153598D02*
X97569319Y-101184551D01*
X97569319Y-101184551D02*
X97414557Y-101184551D01*
X97414557Y-101184551D02*
X97352652Y-101153598D01*
X97352652Y-101153598D02*
X97321700Y-101122646D01*
X97321700Y-101122646D02*
X97290747Y-101060741D01*
X97290747Y-101060741D02*
X97290747Y-100905979D01*
X97290747Y-100905979D02*
X97321700Y-100844074D01*
X97321700Y-100844074D02*
X97352652Y-100813122D01*
X105148795Y-86972027D02*
X105179747Y-86910122D01*
X105179747Y-86910122D02*
X105179747Y-86817265D01*
X105179747Y-86817265D02*
X105148795Y-86724408D01*
X105148795Y-86724408D02*
X105086890Y-86662503D01*
X105086890Y-86662503D02*
X105024985Y-86631550D01*
X105024985Y-86631550D02*
X104901176Y-86600598D01*
X104901176Y-86600598D02*
X104808319Y-86600598D01*
X104808319Y-86600598D02*
X104684509Y-86631550D01*
X104684509Y-86631550D02*
X104622604Y-86662503D01*
X104622604Y-86662503D02*
X104560700Y-86724408D01*
X104560700Y-86724408D02*
X104529747Y-86817265D01*
X104529747Y-86817265D02*
X104529747Y-86879169D01*
X104529747Y-86879169D02*
X104560700Y-86972027D01*
X104560700Y-86972027D02*
X104591652Y-87002979D01*
X104591652Y-87002979D02*
X104808319Y-87002979D01*
X104808319Y-87002979D02*
X104808319Y-86879169D01*
X104529747Y-87281550D02*
X105179747Y-87281550D01*
X105179747Y-87281550D02*
X104529747Y-87652979D01*
X104529747Y-87652979D02*
X105179747Y-87652979D01*
X104529747Y-87962502D02*
X105179747Y-87962502D01*
X105179747Y-87962502D02*
X105179747Y-88117264D01*
X105179747Y-88117264D02*
X105148795Y-88210121D01*
X105148795Y-88210121D02*
X105086890Y-88272026D01*
X105086890Y-88272026D02*
X105024985Y-88302979D01*
X105024985Y-88302979D02*
X104901176Y-88333931D01*
X104901176Y-88333931D02*
X104808319Y-88333931D01*
X104808319Y-88333931D02*
X104684509Y-88302979D01*
X104684509Y-88302979D02*
X104622604Y-88272026D01*
X104622604Y-88272026D02*
X104560700Y-88210121D01*
X104560700Y-88210121D02*
X104529747Y-88117264D01*
X104529747Y-88117264D02*
X104529747Y-87962502D01*
X103702652Y-88907979D02*
X103671700Y-88877027D01*
X103671700Y-88877027D02*
X103640747Y-88784169D01*
X103640747Y-88784169D02*
X103640747Y-88722265D01*
X103640747Y-88722265D02*
X103671700Y-88629408D01*
X103671700Y-88629408D02*
X103733604Y-88567503D01*
X103733604Y-88567503D02*
X103795509Y-88536550D01*
X103795509Y-88536550D02*
X103919319Y-88505598D01*
X103919319Y-88505598D02*
X104012176Y-88505598D01*
X104012176Y-88505598D02*
X104135985Y-88536550D01*
X104135985Y-88536550D02*
X104197890Y-88567503D01*
X104197890Y-88567503D02*
X104259795Y-88629408D01*
X104259795Y-88629408D02*
X104290747Y-88722265D01*
X104290747Y-88722265D02*
X104290747Y-88784169D01*
X104290747Y-88784169D02*
X104259795Y-88877027D01*
X104259795Y-88877027D02*
X104228842Y-88907979D01*
X103826461Y-89155598D02*
X103826461Y-89465122D01*
X103640747Y-89093693D02*
X104290747Y-89310360D01*
X104290747Y-89310360D02*
X103640747Y-89527027D01*
X103640747Y-89743693D02*
X104290747Y-89743693D01*
X104290747Y-89743693D02*
X103826461Y-89960360D01*
X103826461Y-89960360D02*
X104290747Y-90177027D01*
X104290747Y-90177027D02*
X103640747Y-90177027D01*
X103640747Y-90827027D02*
X103640747Y-90455598D01*
X103640747Y-90641312D02*
X104290747Y-90641312D01*
X104290747Y-90641312D02*
X104197890Y-90579408D01*
X104197890Y-90579408D02*
X104135985Y-90517503D01*
X104135985Y-90517503D02*
X104105033Y-90455598D01*
X103578842Y-90950837D02*
X103578842Y-91446075D01*
X103640747Y-91600836D02*
X104290747Y-91600836D01*
X104290747Y-91600836D02*
X104290747Y-91755598D01*
X104290747Y-91755598D02*
X104259795Y-91848455D01*
X104259795Y-91848455D02*
X104197890Y-91910360D01*
X104197890Y-91910360D02*
X104135985Y-91941313D01*
X104135985Y-91941313D02*
X104012176Y-91972265D01*
X104012176Y-91972265D02*
X103919319Y-91972265D01*
X103919319Y-91972265D02*
X103795509Y-91941313D01*
X103795509Y-91941313D02*
X103733604Y-91910360D01*
X103733604Y-91910360D02*
X103671700Y-91848455D01*
X103671700Y-91848455D02*
X103640747Y-91755598D01*
X103640747Y-91755598D02*
X103640747Y-91600836D01*
X103640747Y-92250836D02*
X104290747Y-92250836D01*
X104290747Y-92250836D02*
X103640747Y-92622265D01*
X103640747Y-92622265D02*
X104290747Y-92622265D01*
X104228842Y-92900836D02*
X104259795Y-92931788D01*
X104259795Y-92931788D02*
X104290747Y-92993693D01*
X104290747Y-92993693D02*
X104290747Y-93148455D01*
X104290747Y-93148455D02*
X104259795Y-93210360D01*
X104259795Y-93210360D02*
X104228842Y-93241312D01*
X104228842Y-93241312D02*
X104166938Y-93272265D01*
X104166938Y-93272265D02*
X104105033Y-93272265D01*
X104105033Y-93272265D02*
X104012176Y-93241312D01*
X104012176Y-93241312D02*
X103640747Y-92869884D01*
X103640747Y-92869884D02*
X103640747Y-93272265D01*
X108958795Y-107292027D02*
X108989747Y-107230122D01*
X108989747Y-107230122D02*
X108989747Y-107137265D01*
X108989747Y-107137265D02*
X108958795Y-107044408D01*
X108958795Y-107044408D02*
X108896890Y-106982503D01*
X108896890Y-106982503D02*
X108834985Y-106951550D01*
X108834985Y-106951550D02*
X108711176Y-106920598D01*
X108711176Y-106920598D02*
X108618319Y-106920598D01*
X108618319Y-106920598D02*
X108494509Y-106951550D01*
X108494509Y-106951550D02*
X108432604Y-106982503D01*
X108432604Y-106982503D02*
X108370700Y-107044408D01*
X108370700Y-107044408D02*
X108339747Y-107137265D01*
X108339747Y-107137265D02*
X108339747Y-107199169D01*
X108339747Y-107199169D02*
X108370700Y-107292027D01*
X108370700Y-107292027D02*
X108401652Y-107322979D01*
X108401652Y-107322979D02*
X108618319Y-107322979D01*
X108618319Y-107322979D02*
X108618319Y-107199169D01*
X108339747Y-107601550D02*
X108989747Y-107601550D01*
X108989747Y-107601550D02*
X108339747Y-107972979D01*
X108339747Y-107972979D02*
X108989747Y-107972979D01*
X108339747Y-108282502D02*
X108989747Y-108282502D01*
X108989747Y-108282502D02*
X108989747Y-108437264D01*
X108989747Y-108437264D02*
X108958795Y-108530121D01*
X108958795Y-108530121D02*
X108896890Y-108592026D01*
X108896890Y-108592026D02*
X108834985Y-108622979D01*
X108834985Y-108622979D02*
X108711176Y-108653931D01*
X108711176Y-108653931D02*
X108618319Y-108653931D01*
X108618319Y-108653931D02*
X108494509Y-108622979D01*
X108494509Y-108622979D02*
X108432604Y-108592026D01*
X108432604Y-108592026D02*
X108370700Y-108530121D01*
X108370700Y-108530121D02*
X108339747Y-108437264D01*
X108339747Y-108437264D02*
X108339747Y-108282502D01*
X112180700Y-107428598D02*
X112149747Y-107521455D01*
X112149747Y-107521455D02*
X112149747Y-107676217D01*
X112149747Y-107676217D02*
X112180700Y-107738122D01*
X112180700Y-107738122D02*
X112211652Y-107769074D01*
X112211652Y-107769074D02*
X112273557Y-107800027D01*
X112273557Y-107800027D02*
X112335461Y-107800027D01*
X112335461Y-107800027D02*
X112397366Y-107769074D01*
X112397366Y-107769074D02*
X112428319Y-107738122D01*
X112428319Y-107738122D02*
X112459271Y-107676217D01*
X112459271Y-107676217D02*
X112490223Y-107552408D01*
X112490223Y-107552408D02*
X112521176Y-107490503D01*
X112521176Y-107490503D02*
X112552128Y-107459550D01*
X112552128Y-107459550D02*
X112614033Y-107428598D01*
X112614033Y-107428598D02*
X112675938Y-107428598D01*
X112675938Y-107428598D02*
X112737842Y-107459550D01*
X112737842Y-107459550D02*
X112768795Y-107490503D01*
X112768795Y-107490503D02*
X112799747Y-107552408D01*
X112799747Y-107552408D02*
X112799747Y-107707169D01*
X112799747Y-107707169D02*
X112768795Y-107800027D01*
X112149747Y-108078598D02*
X112799747Y-108078598D01*
X112799747Y-108078598D02*
X112799747Y-108326217D01*
X112799747Y-108326217D02*
X112768795Y-108388122D01*
X112768795Y-108388122D02*
X112737842Y-108419075D01*
X112737842Y-108419075D02*
X112675938Y-108450027D01*
X112675938Y-108450027D02*
X112583080Y-108450027D01*
X112583080Y-108450027D02*
X112521176Y-108419075D01*
X112521176Y-108419075D02*
X112490223Y-108388122D01*
X112490223Y-108388122D02*
X112459271Y-108326217D01*
X112459271Y-108326217D02*
X112459271Y-108078598D01*
X112149747Y-108728598D02*
X112799747Y-108728598D01*
X112149747Y-109100027D02*
X112521176Y-108821456D01*
X112799747Y-109100027D02*
X112428319Y-108728598D01*
X112087842Y-109223837D02*
X112087842Y-109719075D01*
X112149747Y-110183360D02*
X112149747Y-109873836D01*
X112149747Y-109873836D02*
X112799747Y-109873836D01*
X112149747Y-110400026D02*
X112799747Y-110400026D01*
X112799747Y-110400026D02*
X112149747Y-110771455D01*
X112149747Y-110771455D02*
X112799747Y-110771455D01*
X112387795Y-98275027D02*
X112418747Y-98213122D01*
X112418747Y-98213122D02*
X112418747Y-98120265D01*
X112418747Y-98120265D02*
X112387795Y-98027408D01*
X112387795Y-98027408D02*
X112325890Y-97965503D01*
X112325890Y-97965503D02*
X112263985Y-97934550D01*
X112263985Y-97934550D02*
X112140176Y-97903598D01*
X112140176Y-97903598D02*
X112047319Y-97903598D01*
X112047319Y-97903598D02*
X111923509Y-97934550D01*
X111923509Y-97934550D02*
X111861604Y-97965503D01*
X111861604Y-97965503D02*
X111799700Y-98027408D01*
X111799700Y-98027408D02*
X111768747Y-98120265D01*
X111768747Y-98120265D02*
X111768747Y-98182169D01*
X111768747Y-98182169D02*
X111799700Y-98275027D01*
X111799700Y-98275027D02*
X111830652Y-98305979D01*
X111830652Y-98305979D02*
X112047319Y-98305979D01*
X112047319Y-98305979D02*
X112047319Y-98182169D01*
X111768747Y-98584550D02*
X112418747Y-98584550D01*
X112418747Y-98584550D02*
X112418747Y-98832169D01*
X112418747Y-98832169D02*
X112387795Y-98894074D01*
X112387795Y-98894074D02*
X112356842Y-98925027D01*
X112356842Y-98925027D02*
X112294938Y-98955979D01*
X112294938Y-98955979D02*
X112202080Y-98955979D01*
X112202080Y-98955979D02*
X112140176Y-98925027D01*
X112140176Y-98925027D02*
X112109223Y-98894074D01*
X112109223Y-98894074D02*
X112078271Y-98832169D01*
X112078271Y-98832169D02*
X112078271Y-98584550D01*
X111768747Y-99234550D02*
X112418747Y-99234550D01*
X112418747Y-99667884D02*
X112418747Y-99791693D01*
X112418747Y-99791693D02*
X112387795Y-99853598D01*
X112387795Y-99853598D02*
X112325890Y-99915503D01*
X112325890Y-99915503D02*
X112202080Y-99946455D01*
X112202080Y-99946455D02*
X111985414Y-99946455D01*
X111985414Y-99946455D02*
X111861604Y-99915503D01*
X111861604Y-99915503D02*
X111799700Y-99853598D01*
X111799700Y-99853598D02*
X111768747Y-99791693D01*
X111768747Y-99791693D02*
X111768747Y-99667884D01*
X111768747Y-99667884D02*
X111799700Y-99605979D01*
X111799700Y-99605979D02*
X111861604Y-99544074D01*
X111861604Y-99544074D02*
X111985414Y-99513122D01*
X111985414Y-99513122D02*
X112202080Y-99513122D01*
X112202080Y-99513122D02*
X112325890Y-99544074D01*
X112325890Y-99544074D02*
X112387795Y-99605979D01*
X112387795Y-99605979D02*
X112418747Y-99667884D01*
X112356842Y-100194074D02*
X112387795Y-100225026D01*
X112387795Y-100225026D02*
X112418747Y-100286931D01*
X112418747Y-100286931D02*
X112418747Y-100441693D01*
X112418747Y-100441693D02*
X112387795Y-100503598D01*
X112387795Y-100503598D02*
X112356842Y-100534550D01*
X112356842Y-100534550D02*
X112294938Y-100565503D01*
X112294938Y-100565503D02*
X112233033Y-100565503D01*
X112233033Y-100565503D02*
X112140176Y-100534550D01*
X112140176Y-100534550D02*
X111768747Y-100163122D01*
X111768747Y-100163122D02*
X111768747Y-100565503D01*
X111768747Y-100875027D02*
X111768747Y-100998836D01*
X111768747Y-100998836D02*
X111799700Y-101060741D01*
X111799700Y-101060741D02*
X111830652Y-101091693D01*
X111830652Y-101091693D02*
X111923509Y-101153598D01*
X111923509Y-101153598D02*
X112047319Y-101184551D01*
X112047319Y-101184551D02*
X112294938Y-101184551D01*
X112294938Y-101184551D02*
X112356842Y-101153598D01*
X112356842Y-101153598D02*
X112387795Y-101122646D01*
X112387795Y-101122646D02*
X112418747Y-101060741D01*
X112418747Y-101060741D02*
X112418747Y-100936932D01*
X112418747Y-100936932D02*
X112387795Y-100875027D01*
X112387795Y-100875027D02*
X112356842Y-100844074D01*
X112356842Y-100844074D02*
X112294938Y-100813122D01*
X112294938Y-100813122D02*
X112140176Y-100813122D01*
X112140176Y-100813122D02*
X112078271Y-100844074D01*
X112078271Y-100844074D02*
X112047319Y-100875027D01*
X112047319Y-100875027D02*
X112016366Y-100936932D01*
X112016366Y-100936932D02*
X112016366Y-101060741D01*
X112016366Y-101060741D02*
X112047319Y-101122646D01*
X112047319Y-101122646D02*
X112078271Y-101153598D01*
X112078271Y-101153598D02*
X112140176Y-101184551D01*
D11*
X97541616Y-86672668D02*
X97541616Y-87167907D01*
X97293997Y-86920287D02*
X97789235Y-86920287D01*
X97943997Y-87415526D02*
X97943997Y-87817907D01*
X97943997Y-87817907D02*
X97696378Y-87601240D01*
X97696378Y-87601240D02*
X97696378Y-87694097D01*
X97696378Y-87694097D02*
X97665426Y-87756002D01*
X97665426Y-87756002D02*
X97634473Y-87786954D01*
X97634473Y-87786954D02*
X97572569Y-87817907D01*
X97572569Y-87817907D02*
X97417807Y-87817907D01*
X97417807Y-87817907D02*
X97355902Y-87786954D01*
X97355902Y-87786954D02*
X97324950Y-87756002D01*
X97324950Y-87756002D02*
X97293997Y-87694097D01*
X97293997Y-87694097D02*
X97293997Y-87508383D01*
X97293997Y-87508383D02*
X97324950Y-87446478D01*
X97324950Y-87446478D02*
X97355902Y-87415526D01*
X97355902Y-88096478D02*
X97324950Y-88127431D01*
X97324950Y-88127431D02*
X97293997Y-88096478D01*
X97293997Y-88096478D02*
X97324950Y-88065526D01*
X97324950Y-88065526D02*
X97355902Y-88096478D01*
X97355902Y-88096478D02*
X97293997Y-88096478D01*
X97943997Y-88344098D02*
X97943997Y-88746479D01*
X97943997Y-88746479D02*
X97696378Y-88529812D01*
X97696378Y-88529812D02*
X97696378Y-88622669D01*
X97696378Y-88622669D02*
X97665426Y-88684574D01*
X97665426Y-88684574D02*
X97634473Y-88715526D01*
X97634473Y-88715526D02*
X97572569Y-88746479D01*
X97572569Y-88746479D02*
X97417807Y-88746479D01*
X97417807Y-88746479D02*
X97355902Y-88715526D01*
X97355902Y-88715526D02*
X97324950Y-88684574D01*
X97324950Y-88684574D02*
X97293997Y-88622669D01*
X97293997Y-88622669D02*
X97293997Y-88436955D01*
X97293997Y-88436955D02*
X97324950Y-88375050D01*
X97324950Y-88375050D02*
X97355902Y-88344098D01*
X97943997Y-88932193D02*
X97293997Y-89148860D01*
X97293997Y-89148860D02*
X97943997Y-89365527D01*
D10*
X106926795Y-98275027D02*
X106957747Y-98213122D01*
X106957747Y-98213122D02*
X106957747Y-98120265D01*
X106957747Y-98120265D02*
X106926795Y-98027408D01*
X106926795Y-98027408D02*
X106864890Y-97965503D01*
X106864890Y-97965503D02*
X106802985Y-97934550D01*
X106802985Y-97934550D02*
X106679176Y-97903598D01*
X106679176Y-97903598D02*
X106586319Y-97903598D01*
X106586319Y-97903598D02*
X106462509Y-97934550D01*
X106462509Y-97934550D02*
X106400604Y-97965503D01*
X106400604Y-97965503D02*
X106338700Y-98027408D01*
X106338700Y-98027408D02*
X106307747Y-98120265D01*
X106307747Y-98120265D02*
X106307747Y-98182169D01*
X106307747Y-98182169D02*
X106338700Y-98275027D01*
X106338700Y-98275027D02*
X106369652Y-98305979D01*
X106369652Y-98305979D02*
X106586319Y-98305979D01*
X106586319Y-98305979D02*
X106586319Y-98182169D01*
X106307747Y-98584550D02*
X106957747Y-98584550D01*
X106957747Y-98584550D02*
X106957747Y-98832169D01*
X106957747Y-98832169D02*
X106926795Y-98894074D01*
X106926795Y-98894074D02*
X106895842Y-98925027D01*
X106895842Y-98925027D02*
X106833938Y-98955979D01*
X106833938Y-98955979D02*
X106741080Y-98955979D01*
X106741080Y-98955979D02*
X106679176Y-98925027D01*
X106679176Y-98925027D02*
X106648223Y-98894074D01*
X106648223Y-98894074D02*
X106617271Y-98832169D01*
X106617271Y-98832169D02*
X106617271Y-98584550D01*
X106307747Y-99234550D02*
X106957747Y-99234550D01*
X106957747Y-99667884D02*
X106957747Y-99791693D01*
X106957747Y-99791693D02*
X106926795Y-99853598D01*
X106926795Y-99853598D02*
X106864890Y-99915503D01*
X106864890Y-99915503D02*
X106741080Y-99946455D01*
X106741080Y-99946455D02*
X106524414Y-99946455D01*
X106524414Y-99946455D02*
X106400604Y-99915503D01*
X106400604Y-99915503D02*
X106338700Y-99853598D01*
X106338700Y-99853598D02*
X106307747Y-99791693D01*
X106307747Y-99791693D02*
X106307747Y-99667884D01*
X106307747Y-99667884D02*
X106338700Y-99605979D01*
X106338700Y-99605979D02*
X106400604Y-99544074D01*
X106400604Y-99544074D02*
X106524414Y-99513122D01*
X106524414Y-99513122D02*
X106741080Y-99513122D01*
X106741080Y-99513122D02*
X106864890Y-99544074D01*
X106864890Y-99544074D02*
X106926795Y-99605979D01*
X106926795Y-99605979D02*
X106957747Y-99667884D01*
X106957747Y-100163122D02*
X106957747Y-100565503D01*
X106957747Y-100565503D02*
X106710128Y-100348836D01*
X106710128Y-100348836D02*
X106710128Y-100441693D01*
X106710128Y-100441693D02*
X106679176Y-100503598D01*
X106679176Y-100503598D02*
X106648223Y-100534550D01*
X106648223Y-100534550D02*
X106586319Y-100565503D01*
X106586319Y-100565503D02*
X106431557Y-100565503D01*
X106431557Y-100565503D02*
X106369652Y-100534550D01*
X106369652Y-100534550D02*
X106338700Y-100503598D01*
X106338700Y-100503598D02*
X106307747Y-100441693D01*
X106307747Y-100441693D02*
X106307747Y-100255979D01*
X106307747Y-100255979D02*
X106338700Y-100194074D01*
X106338700Y-100194074D02*
X106369652Y-100163122D01*
X106957747Y-101153598D02*
X106957747Y-100844074D01*
X106957747Y-100844074D02*
X106648223Y-100813122D01*
X106648223Y-100813122D02*
X106679176Y-100844074D01*
X106679176Y-100844074D02*
X106710128Y-100905979D01*
X106710128Y-100905979D02*
X106710128Y-101060741D01*
X106710128Y-101060741D02*
X106679176Y-101122646D01*
X106679176Y-101122646D02*
X106648223Y-101153598D01*
X106648223Y-101153598D02*
X106586319Y-101184551D01*
X106586319Y-101184551D02*
X106431557Y-101184551D01*
X106431557Y-101184551D02*
X106369652Y-101153598D01*
X106369652Y-101153598D02*
X106338700Y-101122646D01*
X106338700Y-101122646D02*
X106307747Y-101060741D01*
X106307747Y-101060741D02*
X106307747Y-100905979D01*
X106307747Y-100905979D02*
X106338700Y-100844074D01*
X106338700Y-100844074D02*
X106369652Y-100813122D01*
X105148795Y-98275027D02*
X105179747Y-98213122D01*
X105179747Y-98213122D02*
X105179747Y-98120265D01*
X105179747Y-98120265D02*
X105148795Y-98027408D01*
X105148795Y-98027408D02*
X105086890Y-97965503D01*
X105086890Y-97965503D02*
X105024985Y-97934550D01*
X105024985Y-97934550D02*
X104901176Y-97903598D01*
X104901176Y-97903598D02*
X104808319Y-97903598D01*
X104808319Y-97903598D02*
X104684509Y-97934550D01*
X104684509Y-97934550D02*
X104622604Y-97965503D01*
X104622604Y-97965503D02*
X104560700Y-98027408D01*
X104560700Y-98027408D02*
X104529747Y-98120265D01*
X104529747Y-98120265D02*
X104529747Y-98182169D01*
X104529747Y-98182169D02*
X104560700Y-98275027D01*
X104560700Y-98275027D02*
X104591652Y-98305979D01*
X104591652Y-98305979D02*
X104808319Y-98305979D01*
X104808319Y-98305979D02*
X104808319Y-98182169D01*
X104529747Y-98584550D02*
X105179747Y-98584550D01*
X105179747Y-98584550D02*
X105179747Y-98832169D01*
X105179747Y-98832169D02*
X105148795Y-98894074D01*
X105148795Y-98894074D02*
X105117842Y-98925027D01*
X105117842Y-98925027D02*
X105055938Y-98955979D01*
X105055938Y-98955979D02*
X104963080Y-98955979D01*
X104963080Y-98955979D02*
X104901176Y-98925027D01*
X104901176Y-98925027D02*
X104870223Y-98894074D01*
X104870223Y-98894074D02*
X104839271Y-98832169D01*
X104839271Y-98832169D02*
X104839271Y-98584550D01*
X104529747Y-99234550D02*
X105179747Y-99234550D01*
X105179747Y-99667884D02*
X105179747Y-99791693D01*
X105179747Y-99791693D02*
X105148795Y-99853598D01*
X105148795Y-99853598D02*
X105086890Y-99915503D01*
X105086890Y-99915503D02*
X104963080Y-99946455D01*
X104963080Y-99946455D02*
X104746414Y-99946455D01*
X104746414Y-99946455D02*
X104622604Y-99915503D01*
X104622604Y-99915503D02*
X104560700Y-99853598D01*
X104560700Y-99853598D02*
X104529747Y-99791693D01*
X104529747Y-99791693D02*
X104529747Y-99667884D01*
X104529747Y-99667884D02*
X104560700Y-99605979D01*
X104560700Y-99605979D02*
X104622604Y-99544074D01*
X104622604Y-99544074D02*
X104746414Y-99513122D01*
X104746414Y-99513122D02*
X104963080Y-99513122D01*
X104963080Y-99513122D02*
X105086890Y-99544074D01*
X105086890Y-99544074D02*
X105148795Y-99605979D01*
X105148795Y-99605979D02*
X105179747Y-99667884D01*
X105179747Y-100163122D02*
X105179747Y-100565503D01*
X105179747Y-100565503D02*
X104932128Y-100348836D01*
X104932128Y-100348836D02*
X104932128Y-100441693D01*
X104932128Y-100441693D02*
X104901176Y-100503598D01*
X104901176Y-100503598D02*
X104870223Y-100534550D01*
X104870223Y-100534550D02*
X104808319Y-100565503D01*
X104808319Y-100565503D02*
X104653557Y-100565503D01*
X104653557Y-100565503D02*
X104591652Y-100534550D01*
X104591652Y-100534550D02*
X104560700Y-100503598D01*
X104560700Y-100503598D02*
X104529747Y-100441693D01*
X104529747Y-100441693D02*
X104529747Y-100255979D01*
X104529747Y-100255979D02*
X104560700Y-100194074D01*
X104560700Y-100194074D02*
X104591652Y-100163122D01*
X105179747Y-100782170D02*
X105179747Y-101215503D01*
X105179747Y-101215503D02*
X104529747Y-100936932D01*
X106037795Y-99672027D02*
X106068747Y-99610122D01*
X106068747Y-99610122D02*
X106068747Y-99517265D01*
X106068747Y-99517265D02*
X106037795Y-99424408D01*
X106037795Y-99424408D02*
X105975890Y-99362503D01*
X105975890Y-99362503D02*
X105913985Y-99331550D01*
X105913985Y-99331550D02*
X105790176Y-99300598D01*
X105790176Y-99300598D02*
X105697319Y-99300598D01*
X105697319Y-99300598D02*
X105573509Y-99331550D01*
X105573509Y-99331550D02*
X105511604Y-99362503D01*
X105511604Y-99362503D02*
X105449700Y-99424408D01*
X105449700Y-99424408D02*
X105418747Y-99517265D01*
X105418747Y-99517265D02*
X105418747Y-99579169D01*
X105418747Y-99579169D02*
X105449700Y-99672027D01*
X105449700Y-99672027D02*
X105480652Y-99702979D01*
X105480652Y-99702979D02*
X105697319Y-99702979D01*
X105697319Y-99702979D02*
X105697319Y-99579169D01*
X105418747Y-99981550D02*
X106068747Y-99981550D01*
X106068747Y-99981550D02*
X106068747Y-100229169D01*
X106068747Y-100229169D02*
X106037795Y-100291074D01*
X106037795Y-100291074D02*
X106006842Y-100322027D01*
X106006842Y-100322027D02*
X105944938Y-100352979D01*
X105944938Y-100352979D02*
X105852080Y-100352979D01*
X105852080Y-100352979D02*
X105790176Y-100322027D01*
X105790176Y-100322027D02*
X105759223Y-100291074D01*
X105759223Y-100291074D02*
X105728271Y-100229169D01*
X105728271Y-100229169D02*
X105728271Y-99981550D01*
X105418747Y-100631550D02*
X106068747Y-100631550D01*
X106068747Y-101064884D02*
X106068747Y-101188693D01*
X106068747Y-101188693D02*
X106037795Y-101250598D01*
X106037795Y-101250598D02*
X105975890Y-101312503D01*
X105975890Y-101312503D02*
X105852080Y-101343455D01*
X105852080Y-101343455D02*
X105635414Y-101343455D01*
X105635414Y-101343455D02*
X105511604Y-101312503D01*
X105511604Y-101312503D02*
X105449700Y-101250598D01*
X105449700Y-101250598D02*
X105418747Y-101188693D01*
X105418747Y-101188693D02*
X105418747Y-101064884D01*
X105418747Y-101064884D02*
X105449700Y-101002979D01*
X105449700Y-101002979D02*
X105511604Y-100941074D01*
X105511604Y-100941074D02*
X105635414Y-100910122D01*
X105635414Y-100910122D02*
X105852080Y-100910122D01*
X105852080Y-100910122D02*
X105975890Y-100941074D01*
X105975890Y-100941074D02*
X106037795Y-101002979D01*
X106037795Y-101002979D02*
X106068747Y-101064884D01*
X106068747Y-101560122D02*
X106068747Y-101962503D01*
X106068747Y-101962503D02*
X105821128Y-101745836D01*
X105821128Y-101745836D02*
X105821128Y-101838693D01*
X105821128Y-101838693D02*
X105790176Y-101900598D01*
X105790176Y-101900598D02*
X105759223Y-101931550D01*
X105759223Y-101931550D02*
X105697319Y-101962503D01*
X105697319Y-101962503D02*
X105542557Y-101962503D01*
X105542557Y-101962503D02*
X105480652Y-101931550D01*
X105480652Y-101931550D02*
X105449700Y-101900598D01*
X105449700Y-101900598D02*
X105418747Y-101838693D01*
X105418747Y-101838693D02*
X105418747Y-101652979D01*
X105418747Y-101652979D02*
X105449700Y-101591074D01*
X105449700Y-101591074D02*
X105480652Y-101560122D01*
X106068747Y-102519646D02*
X106068747Y-102395836D01*
X106068747Y-102395836D02*
X106037795Y-102333932D01*
X106037795Y-102333932D02*
X106006842Y-102302979D01*
X106006842Y-102302979D02*
X105913985Y-102241074D01*
X105913985Y-102241074D02*
X105790176Y-102210122D01*
X105790176Y-102210122D02*
X105542557Y-102210122D01*
X105542557Y-102210122D02*
X105480652Y-102241074D01*
X105480652Y-102241074D02*
X105449700Y-102272027D01*
X105449700Y-102272027D02*
X105418747Y-102333932D01*
X105418747Y-102333932D02*
X105418747Y-102457741D01*
X105418747Y-102457741D02*
X105449700Y-102519646D01*
X105449700Y-102519646D02*
X105480652Y-102550598D01*
X105480652Y-102550598D02*
X105542557Y-102581551D01*
X105542557Y-102581551D02*
X105697319Y-102581551D01*
X105697319Y-102581551D02*
X105759223Y-102550598D01*
X105759223Y-102550598D02*
X105790176Y-102519646D01*
X105790176Y-102519646D02*
X105821128Y-102457741D01*
X105821128Y-102457741D02*
X105821128Y-102333932D01*
X105821128Y-102333932D02*
X105790176Y-102272027D01*
X105790176Y-102272027D02*
X105759223Y-102241074D01*
X105759223Y-102241074D02*
X105697319Y-102210122D01*
X110894747Y-106951550D02*
X110368557Y-106951550D01*
X110368557Y-106951550D02*
X110306652Y-106982503D01*
X110306652Y-106982503D02*
X110275700Y-107013455D01*
X110275700Y-107013455D02*
X110244747Y-107075360D01*
X110244747Y-107075360D02*
X110244747Y-107199169D01*
X110244747Y-107199169D02*
X110275700Y-107261074D01*
X110275700Y-107261074D02*
X110306652Y-107292027D01*
X110306652Y-107292027D02*
X110368557Y-107322979D01*
X110368557Y-107322979D02*
X110894747Y-107322979D01*
X110275700Y-107601550D02*
X110244747Y-107694407D01*
X110244747Y-107694407D02*
X110244747Y-107849169D01*
X110244747Y-107849169D02*
X110275700Y-107911074D01*
X110275700Y-107911074D02*
X110306652Y-107942026D01*
X110306652Y-107942026D02*
X110368557Y-107972979D01*
X110368557Y-107972979D02*
X110430461Y-107972979D01*
X110430461Y-107972979D02*
X110492366Y-107942026D01*
X110492366Y-107942026D02*
X110523319Y-107911074D01*
X110523319Y-107911074D02*
X110554271Y-107849169D01*
X110554271Y-107849169D02*
X110585223Y-107725360D01*
X110585223Y-107725360D02*
X110616176Y-107663455D01*
X110616176Y-107663455D02*
X110647128Y-107632502D01*
X110647128Y-107632502D02*
X110709033Y-107601550D01*
X110709033Y-107601550D02*
X110770938Y-107601550D01*
X110770938Y-107601550D02*
X110832842Y-107632502D01*
X110832842Y-107632502D02*
X110863795Y-107663455D01*
X110863795Y-107663455D02*
X110894747Y-107725360D01*
X110894747Y-107725360D02*
X110894747Y-107880121D01*
X110894747Y-107880121D02*
X110863795Y-107972979D01*
X110585223Y-108468217D02*
X110554271Y-108561074D01*
X110554271Y-108561074D02*
X110523319Y-108592027D01*
X110523319Y-108592027D02*
X110461414Y-108622979D01*
X110461414Y-108622979D02*
X110368557Y-108622979D01*
X110368557Y-108622979D02*
X110306652Y-108592027D01*
X110306652Y-108592027D02*
X110275700Y-108561074D01*
X110275700Y-108561074D02*
X110244747Y-108499169D01*
X110244747Y-108499169D02*
X110244747Y-108251550D01*
X110244747Y-108251550D02*
X110894747Y-108251550D01*
X110894747Y-108251550D02*
X110894747Y-108468217D01*
X110894747Y-108468217D02*
X110863795Y-108530122D01*
X110863795Y-108530122D02*
X110832842Y-108561074D01*
X110832842Y-108561074D02*
X110770938Y-108592027D01*
X110770938Y-108592027D02*
X110709033Y-108592027D01*
X110709033Y-108592027D02*
X110647128Y-108561074D01*
X110647128Y-108561074D02*
X110616176Y-108530122D01*
X110616176Y-108530122D02*
X110585223Y-108468217D01*
X110585223Y-108468217D02*
X110585223Y-108251550D01*
X110894747Y-108839646D02*
X110894747Y-109242027D01*
X110894747Y-109242027D02*
X110647128Y-109025360D01*
X110647128Y-109025360D02*
X110647128Y-109118217D01*
X110647128Y-109118217D02*
X110616176Y-109180122D01*
X110616176Y-109180122D02*
X110585223Y-109211074D01*
X110585223Y-109211074D02*
X110523319Y-109242027D01*
X110523319Y-109242027D02*
X110368557Y-109242027D01*
X110368557Y-109242027D02*
X110306652Y-109211074D01*
X110306652Y-109211074D02*
X110275700Y-109180122D01*
X110275700Y-109180122D02*
X110244747Y-109118217D01*
X110244747Y-109118217D02*
X110244747Y-108932503D01*
X110244747Y-108932503D02*
X110275700Y-108870598D01*
X110275700Y-108870598D02*
X110306652Y-108839646D01*
X110492366Y-109520598D02*
X110492366Y-110015837D01*
X110244747Y-110325360D02*
X110894747Y-110325360D01*
X110894747Y-110325360D02*
X110894747Y-110480122D01*
X110894747Y-110480122D02*
X110863795Y-110572979D01*
X110863795Y-110572979D02*
X110801890Y-110634884D01*
X110801890Y-110634884D02*
X110739985Y-110665837D01*
X110739985Y-110665837D02*
X110616176Y-110696789D01*
X110616176Y-110696789D02*
X110523319Y-110696789D01*
X110523319Y-110696789D02*
X110399509Y-110665837D01*
X110399509Y-110665837D02*
X110337604Y-110634884D01*
X110337604Y-110634884D02*
X110275700Y-110572979D01*
X110275700Y-110572979D02*
X110244747Y-110480122D01*
X110244747Y-110480122D02*
X110244747Y-110325360D01*
X110492366Y-110975360D02*
X110492366Y-111470599D01*
X110244747Y-111222979D02*
X110739985Y-111222979D01*
X106496652Y-87002979D02*
X106465700Y-86972027D01*
X106465700Y-86972027D02*
X106434747Y-86879169D01*
X106434747Y-86879169D02*
X106434747Y-86817265D01*
X106434747Y-86817265D02*
X106465700Y-86724408D01*
X106465700Y-86724408D02*
X106527604Y-86662503D01*
X106527604Y-86662503D02*
X106589509Y-86631550D01*
X106589509Y-86631550D02*
X106713319Y-86600598D01*
X106713319Y-86600598D02*
X106806176Y-86600598D01*
X106806176Y-86600598D02*
X106929985Y-86631550D01*
X106929985Y-86631550D02*
X106991890Y-86662503D01*
X106991890Y-86662503D02*
X107053795Y-86724408D01*
X107053795Y-86724408D02*
X107084747Y-86817265D01*
X107084747Y-86817265D02*
X107084747Y-86879169D01*
X107084747Y-86879169D02*
X107053795Y-86972027D01*
X107053795Y-86972027D02*
X107022842Y-87002979D01*
X106620461Y-87250598D02*
X106620461Y-87560122D01*
X106434747Y-87188693D02*
X107084747Y-87405360D01*
X107084747Y-87405360D02*
X106434747Y-87622027D01*
X106434747Y-87838693D02*
X107084747Y-87838693D01*
X107084747Y-87838693D02*
X106620461Y-88055360D01*
X106620461Y-88055360D02*
X107084747Y-88272027D01*
X107084747Y-88272027D02*
X106434747Y-88272027D01*
X106372842Y-88426789D02*
X106372842Y-88922027D01*
X106496652Y-89448217D02*
X106465700Y-89417265D01*
X106465700Y-89417265D02*
X106434747Y-89324407D01*
X106434747Y-89324407D02*
X106434747Y-89262503D01*
X106434747Y-89262503D02*
X106465700Y-89169646D01*
X106465700Y-89169646D02*
X106527604Y-89107741D01*
X106527604Y-89107741D02*
X106589509Y-89076788D01*
X106589509Y-89076788D02*
X106713319Y-89045836D01*
X106713319Y-89045836D02*
X106806176Y-89045836D01*
X106806176Y-89045836D02*
X106929985Y-89076788D01*
X106929985Y-89076788D02*
X106991890Y-89107741D01*
X106991890Y-89107741D02*
X107053795Y-89169646D01*
X107053795Y-89169646D02*
X107084747Y-89262503D01*
X107084747Y-89262503D02*
X107084747Y-89324407D01*
X107084747Y-89324407D02*
X107053795Y-89417265D01*
X107053795Y-89417265D02*
X107022842Y-89448217D01*
X106434747Y-89726788D02*
X107084747Y-89726788D01*
X107084747Y-89726788D02*
X106434747Y-90098217D01*
X106434747Y-90098217D02*
X107084747Y-90098217D01*
D11*
X98557616Y-90482668D02*
X98557616Y-90977907D01*
X98309997Y-90730287D02*
X98805235Y-90730287D01*
X98959997Y-91225526D02*
X98959997Y-91627907D01*
X98959997Y-91627907D02*
X98712378Y-91411240D01*
X98712378Y-91411240D02*
X98712378Y-91504097D01*
X98712378Y-91504097D02*
X98681426Y-91566002D01*
X98681426Y-91566002D02*
X98650473Y-91596954D01*
X98650473Y-91596954D02*
X98588569Y-91627907D01*
X98588569Y-91627907D02*
X98433807Y-91627907D01*
X98433807Y-91627907D02*
X98371902Y-91596954D01*
X98371902Y-91596954D02*
X98340950Y-91566002D01*
X98340950Y-91566002D02*
X98309997Y-91504097D01*
X98309997Y-91504097D02*
X98309997Y-91318383D01*
X98309997Y-91318383D02*
X98340950Y-91256478D01*
X98340950Y-91256478D02*
X98371902Y-91225526D01*
X98371902Y-91906478D02*
X98340950Y-91937431D01*
X98340950Y-91937431D02*
X98309997Y-91906478D01*
X98309997Y-91906478D02*
X98340950Y-91875526D01*
X98340950Y-91875526D02*
X98371902Y-91906478D01*
X98371902Y-91906478D02*
X98309997Y-91906478D01*
X98959997Y-92154098D02*
X98959997Y-92556479D01*
X98959997Y-92556479D02*
X98712378Y-92339812D01*
X98712378Y-92339812D02*
X98712378Y-92432669D01*
X98712378Y-92432669D02*
X98681426Y-92494574D01*
X98681426Y-92494574D02*
X98650473Y-92525526D01*
X98650473Y-92525526D02*
X98588569Y-92556479D01*
X98588569Y-92556479D02*
X98433807Y-92556479D01*
X98433807Y-92556479D02*
X98371902Y-92525526D01*
X98371902Y-92525526D02*
X98340950Y-92494574D01*
X98340950Y-92494574D02*
X98309997Y-92432669D01*
X98309997Y-92432669D02*
X98309997Y-92246955D01*
X98309997Y-92246955D02*
X98340950Y-92185050D01*
X98340950Y-92185050D02*
X98371902Y-92154098D01*
X98959997Y-92742193D02*
X98309997Y-92958860D01*
X98309997Y-92958860D02*
X98959997Y-93175527D01*
D10*
X107942795Y-99672027D02*
X107973747Y-99610122D01*
X107973747Y-99610122D02*
X107973747Y-99517265D01*
X107973747Y-99517265D02*
X107942795Y-99424408D01*
X107942795Y-99424408D02*
X107880890Y-99362503D01*
X107880890Y-99362503D02*
X107818985Y-99331550D01*
X107818985Y-99331550D02*
X107695176Y-99300598D01*
X107695176Y-99300598D02*
X107602319Y-99300598D01*
X107602319Y-99300598D02*
X107478509Y-99331550D01*
X107478509Y-99331550D02*
X107416604Y-99362503D01*
X107416604Y-99362503D02*
X107354700Y-99424408D01*
X107354700Y-99424408D02*
X107323747Y-99517265D01*
X107323747Y-99517265D02*
X107323747Y-99579169D01*
X107323747Y-99579169D02*
X107354700Y-99672027D01*
X107354700Y-99672027D02*
X107385652Y-99702979D01*
X107385652Y-99702979D02*
X107602319Y-99702979D01*
X107602319Y-99702979D02*
X107602319Y-99579169D01*
X107323747Y-99981550D02*
X107973747Y-99981550D01*
X107973747Y-99981550D02*
X107973747Y-100229169D01*
X107973747Y-100229169D02*
X107942795Y-100291074D01*
X107942795Y-100291074D02*
X107911842Y-100322027D01*
X107911842Y-100322027D02*
X107849938Y-100352979D01*
X107849938Y-100352979D02*
X107757080Y-100352979D01*
X107757080Y-100352979D02*
X107695176Y-100322027D01*
X107695176Y-100322027D02*
X107664223Y-100291074D01*
X107664223Y-100291074D02*
X107633271Y-100229169D01*
X107633271Y-100229169D02*
X107633271Y-99981550D01*
X107323747Y-100631550D02*
X107973747Y-100631550D01*
X107973747Y-101064884D02*
X107973747Y-101188693D01*
X107973747Y-101188693D02*
X107942795Y-101250598D01*
X107942795Y-101250598D02*
X107880890Y-101312503D01*
X107880890Y-101312503D02*
X107757080Y-101343455D01*
X107757080Y-101343455D02*
X107540414Y-101343455D01*
X107540414Y-101343455D02*
X107416604Y-101312503D01*
X107416604Y-101312503D02*
X107354700Y-101250598D01*
X107354700Y-101250598D02*
X107323747Y-101188693D01*
X107323747Y-101188693D02*
X107323747Y-101064884D01*
X107323747Y-101064884D02*
X107354700Y-101002979D01*
X107354700Y-101002979D02*
X107416604Y-100941074D01*
X107416604Y-100941074D02*
X107540414Y-100910122D01*
X107540414Y-100910122D02*
X107757080Y-100910122D01*
X107757080Y-100910122D02*
X107880890Y-100941074D01*
X107880890Y-100941074D02*
X107942795Y-101002979D01*
X107942795Y-101002979D02*
X107973747Y-101064884D01*
X107973747Y-101560122D02*
X107973747Y-101962503D01*
X107973747Y-101962503D02*
X107726128Y-101745836D01*
X107726128Y-101745836D02*
X107726128Y-101838693D01*
X107726128Y-101838693D02*
X107695176Y-101900598D01*
X107695176Y-101900598D02*
X107664223Y-101931550D01*
X107664223Y-101931550D02*
X107602319Y-101962503D01*
X107602319Y-101962503D02*
X107447557Y-101962503D01*
X107447557Y-101962503D02*
X107385652Y-101931550D01*
X107385652Y-101931550D02*
X107354700Y-101900598D01*
X107354700Y-101900598D02*
X107323747Y-101838693D01*
X107323747Y-101838693D02*
X107323747Y-101652979D01*
X107323747Y-101652979D02*
X107354700Y-101591074D01*
X107354700Y-101591074D02*
X107385652Y-101560122D01*
X107757080Y-102519646D02*
X107323747Y-102519646D01*
X108004700Y-102364884D02*
X107540414Y-102210122D01*
X107540414Y-102210122D02*
X107540414Y-102612503D01*
X109878747Y-107840550D02*
X109352557Y-107840550D01*
X109352557Y-107840550D02*
X109290652Y-107871503D01*
X109290652Y-107871503D02*
X109259700Y-107902455D01*
X109259700Y-107902455D02*
X109228747Y-107964360D01*
X109228747Y-107964360D02*
X109228747Y-108088169D01*
X109228747Y-108088169D02*
X109259700Y-108150074D01*
X109259700Y-108150074D02*
X109290652Y-108181027D01*
X109290652Y-108181027D02*
X109352557Y-108211979D01*
X109352557Y-108211979D02*
X109878747Y-108211979D01*
X109259700Y-108490550D02*
X109228747Y-108583407D01*
X109228747Y-108583407D02*
X109228747Y-108738169D01*
X109228747Y-108738169D02*
X109259700Y-108800074D01*
X109259700Y-108800074D02*
X109290652Y-108831026D01*
X109290652Y-108831026D02*
X109352557Y-108861979D01*
X109352557Y-108861979D02*
X109414461Y-108861979D01*
X109414461Y-108861979D02*
X109476366Y-108831026D01*
X109476366Y-108831026D02*
X109507319Y-108800074D01*
X109507319Y-108800074D02*
X109538271Y-108738169D01*
X109538271Y-108738169D02*
X109569223Y-108614360D01*
X109569223Y-108614360D02*
X109600176Y-108552455D01*
X109600176Y-108552455D02*
X109631128Y-108521502D01*
X109631128Y-108521502D02*
X109693033Y-108490550D01*
X109693033Y-108490550D02*
X109754938Y-108490550D01*
X109754938Y-108490550D02*
X109816842Y-108521502D01*
X109816842Y-108521502D02*
X109847795Y-108552455D01*
X109847795Y-108552455D02*
X109878747Y-108614360D01*
X109878747Y-108614360D02*
X109878747Y-108769121D01*
X109878747Y-108769121D02*
X109847795Y-108861979D01*
X109569223Y-109357217D02*
X109538271Y-109450074D01*
X109538271Y-109450074D02*
X109507319Y-109481027D01*
X109507319Y-109481027D02*
X109445414Y-109511979D01*
X109445414Y-109511979D02*
X109352557Y-109511979D01*
X109352557Y-109511979D02*
X109290652Y-109481027D01*
X109290652Y-109481027D02*
X109259700Y-109450074D01*
X109259700Y-109450074D02*
X109228747Y-109388169D01*
X109228747Y-109388169D02*
X109228747Y-109140550D01*
X109228747Y-109140550D02*
X109878747Y-109140550D01*
X109878747Y-109140550D02*
X109878747Y-109357217D01*
X109878747Y-109357217D02*
X109847795Y-109419122D01*
X109847795Y-109419122D02*
X109816842Y-109450074D01*
X109816842Y-109450074D02*
X109754938Y-109481027D01*
X109754938Y-109481027D02*
X109693033Y-109481027D01*
X109693033Y-109481027D02*
X109631128Y-109450074D01*
X109631128Y-109450074D02*
X109600176Y-109419122D01*
X109600176Y-109419122D02*
X109569223Y-109357217D01*
X109569223Y-109357217D02*
X109569223Y-109140550D01*
X109878747Y-109728646D02*
X109878747Y-110131027D01*
X109878747Y-110131027D02*
X109631128Y-109914360D01*
X109631128Y-109914360D02*
X109631128Y-110007217D01*
X109631128Y-110007217D02*
X109600176Y-110069122D01*
X109600176Y-110069122D02*
X109569223Y-110100074D01*
X109569223Y-110100074D02*
X109507319Y-110131027D01*
X109507319Y-110131027D02*
X109352557Y-110131027D01*
X109352557Y-110131027D02*
X109290652Y-110100074D01*
X109290652Y-110100074D02*
X109259700Y-110069122D01*
X109259700Y-110069122D02*
X109228747Y-110007217D01*
X109228747Y-110007217D02*
X109228747Y-109821503D01*
X109228747Y-109821503D02*
X109259700Y-109759598D01*
X109259700Y-109759598D02*
X109290652Y-109728646D01*
X109166842Y-110254837D02*
X109166842Y-110750075D01*
X109228747Y-110904836D02*
X109878747Y-110904836D01*
X109878747Y-110904836D02*
X109878747Y-111059598D01*
X109878747Y-111059598D02*
X109847795Y-111152455D01*
X109847795Y-111152455D02*
X109785890Y-111214360D01*
X109785890Y-111214360D02*
X109723985Y-111245313D01*
X109723985Y-111245313D02*
X109600176Y-111276265D01*
X109600176Y-111276265D02*
X109507319Y-111276265D01*
X109507319Y-111276265D02*
X109383509Y-111245313D01*
X109383509Y-111245313D02*
X109321604Y-111214360D01*
X109321604Y-111214360D02*
X109259700Y-111152455D01*
X109259700Y-111152455D02*
X109228747Y-111059598D01*
X109228747Y-111059598D02*
X109228747Y-110904836D01*
X109476366Y-111554836D02*
X109476366Y-112050075D01*
X99814795Y-86972027D02*
X99845747Y-86910122D01*
X99845747Y-86910122D02*
X99845747Y-86817265D01*
X99845747Y-86817265D02*
X99814795Y-86724408D01*
X99814795Y-86724408D02*
X99752890Y-86662503D01*
X99752890Y-86662503D02*
X99690985Y-86631550D01*
X99690985Y-86631550D02*
X99567176Y-86600598D01*
X99567176Y-86600598D02*
X99474319Y-86600598D01*
X99474319Y-86600598D02*
X99350509Y-86631550D01*
X99350509Y-86631550D02*
X99288604Y-86662503D01*
X99288604Y-86662503D02*
X99226700Y-86724408D01*
X99226700Y-86724408D02*
X99195747Y-86817265D01*
X99195747Y-86817265D02*
X99195747Y-86879169D01*
X99195747Y-86879169D02*
X99226700Y-86972027D01*
X99226700Y-86972027D02*
X99257652Y-87002979D01*
X99257652Y-87002979D02*
X99474319Y-87002979D01*
X99474319Y-87002979D02*
X99474319Y-86879169D01*
X99195747Y-87281550D02*
X99845747Y-87281550D01*
X99845747Y-87281550D02*
X99195747Y-87652979D01*
X99195747Y-87652979D02*
X99845747Y-87652979D01*
X99195747Y-87962502D02*
X99845747Y-87962502D01*
X99845747Y-87962502D02*
X99845747Y-88117264D01*
X99845747Y-88117264D02*
X99814795Y-88210121D01*
X99814795Y-88210121D02*
X99752890Y-88272026D01*
X99752890Y-88272026D02*
X99690985Y-88302979D01*
X99690985Y-88302979D02*
X99567176Y-88333931D01*
X99567176Y-88333931D02*
X99474319Y-88333931D01*
X99474319Y-88333931D02*
X99350509Y-88302979D01*
X99350509Y-88302979D02*
X99288604Y-88272026D01*
X99288604Y-88272026D02*
X99226700Y-88210121D01*
X99226700Y-88210121D02*
X99195747Y-88117264D01*
X99195747Y-88117264D02*
X99195747Y-87962502D01*
X109290652Y-88907979D02*
X109259700Y-88877027D01*
X109259700Y-88877027D02*
X109228747Y-88784169D01*
X109228747Y-88784169D02*
X109228747Y-88722265D01*
X109228747Y-88722265D02*
X109259700Y-88629408D01*
X109259700Y-88629408D02*
X109321604Y-88567503D01*
X109321604Y-88567503D02*
X109383509Y-88536550D01*
X109383509Y-88536550D02*
X109507319Y-88505598D01*
X109507319Y-88505598D02*
X109600176Y-88505598D01*
X109600176Y-88505598D02*
X109723985Y-88536550D01*
X109723985Y-88536550D02*
X109785890Y-88567503D01*
X109785890Y-88567503D02*
X109847795Y-88629408D01*
X109847795Y-88629408D02*
X109878747Y-88722265D01*
X109878747Y-88722265D02*
X109878747Y-88784169D01*
X109878747Y-88784169D02*
X109847795Y-88877027D01*
X109847795Y-88877027D02*
X109816842Y-88907979D01*
X109414461Y-89155598D02*
X109414461Y-89465122D01*
X109228747Y-89093693D02*
X109878747Y-89310360D01*
X109878747Y-89310360D02*
X109228747Y-89527027D01*
X109228747Y-89743693D02*
X109878747Y-89743693D01*
X109878747Y-89743693D02*
X109414461Y-89960360D01*
X109414461Y-89960360D02*
X109878747Y-90177027D01*
X109878747Y-90177027D02*
X109228747Y-90177027D01*
X109228747Y-90827027D02*
X109228747Y-90455598D01*
X109228747Y-90641312D02*
X109878747Y-90641312D01*
X109878747Y-90641312D02*
X109785890Y-90579408D01*
X109785890Y-90579408D02*
X109723985Y-90517503D01*
X109723985Y-90517503D02*
X109693033Y-90455598D01*
X109166842Y-90950837D02*
X109166842Y-91446075D01*
X109228747Y-91600836D02*
X109878747Y-91600836D01*
X109878747Y-91600836D02*
X109878747Y-91755598D01*
X109878747Y-91755598D02*
X109847795Y-91848455D01*
X109847795Y-91848455D02*
X109785890Y-91910360D01*
X109785890Y-91910360D02*
X109723985Y-91941313D01*
X109723985Y-91941313D02*
X109600176Y-91972265D01*
X109600176Y-91972265D02*
X109507319Y-91972265D01*
X109507319Y-91972265D02*
X109383509Y-91941313D01*
X109383509Y-91941313D02*
X109321604Y-91910360D01*
X109321604Y-91910360D02*
X109259700Y-91848455D01*
X109259700Y-91848455D02*
X109228747Y-91755598D01*
X109228747Y-91755598D02*
X109228747Y-91600836D01*
X109228747Y-92250836D02*
X109878747Y-92250836D01*
X109878747Y-92250836D02*
X109228747Y-92622265D01*
X109228747Y-92622265D02*
X109878747Y-92622265D01*
X109228747Y-93272265D02*
X109228747Y-92900836D01*
X109228747Y-93086550D02*
X109878747Y-93086550D01*
X109878747Y-93086550D02*
X109785890Y-93024646D01*
X109785890Y-93024646D02*
X109723985Y-92962741D01*
X109723985Y-92962741D02*
X109693033Y-92900836D01*
X102686652Y-87002979D02*
X102655700Y-86972027D01*
X102655700Y-86972027D02*
X102624747Y-86879169D01*
X102624747Y-86879169D02*
X102624747Y-86817265D01*
X102624747Y-86817265D02*
X102655700Y-86724408D01*
X102655700Y-86724408D02*
X102717604Y-86662503D01*
X102717604Y-86662503D02*
X102779509Y-86631550D01*
X102779509Y-86631550D02*
X102903319Y-86600598D01*
X102903319Y-86600598D02*
X102996176Y-86600598D01*
X102996176Y-86600598D02*
X103119985Y-86631550D01*
X103119985Y-86631550D02*
X103181890Y-86662503D01*
X103181890Y-86662503D02*
X103243795Y-86724408D01*
X103243795Y-86724408D02*
X103274747Y-86817265D01*
X103274747Y-86817265D02*
X103274747Y-86879169D01*
X103274747Y-86879169D02*
X103243795Y-86972027D01*
X103243795Y-86972027D02*
X103212842Y-87002979D01*
X102810461Y-87250598D02*
X102810461Y-87560122D01*
X102624747Y-87188693D02*
X103274747Y-87405360D01*
X103274747Y-87405360D02*
X102624747Y-87622027D01*
X102624747Y-87838693D02*
X103274747Y-87838693D01*
X103274747Y-87838693D02*
X102810461Y-88055360D01*
X102810461Y-88055360D02*
X103274747Y-88272027D01*
X103274747Y-88272027D02*
X102624747Y-88272027D01*
X102624747Y-88922027D02*
X102624747Y-88550598D01*
X102624747Y-88736312D02*
X103274747Y-88736312D01*
X103274747Y-88736312D02*
X103181890Y-88674408D01*
X103181890Y-88674408D02*
X103119985Y-88612503D01*
X103119985Y-88612503D02*
X103089033Y-88550598D01*
X102562842Y-89045837D02*
X102562842Y-89541075D01*
X102624747Y-89695836D02*
X103274747Y-89695836D01*
X103274747Y-89695836D02*
X103274747Y-89850598D01*
X103274747Y-89850598D02*
X103243795Y-89943455D01*
X103243795Y-89943455D02*
X103181890Y-90005360D01*
X103181890Y-90005360D02*
X103119985Y-90036313D01*
X103119985Y-90036313D02*
X102996176Y-90067265D01*
X102996176Y-90067265D02*
X102903319Y-90067265D01*
X102903319Y-90067265D02*
X102779509Y-90036313D01*
X102779509Y-90036313D02*
X102717604Y-90005360D01*
X102717604Y-90005360D02*
X102655700Y-89943455D01*
X102655700Y-89943455D02*
X102624747Y-89850598D01*
X102624747Y-89850598D02*
X102624747Y-89695836D01*
X102624747Y-90345836D02*
X103274747Y-90345836D01*
X103274747Y-90345836D02*
X103274747Y-90593455D01*
X103274747Y-90593455D02*
X103243795Y-90655360D01*
X103243795Y-90655360D02*
X103212842Y-90686313D01*
X103212842Y-90686313D02*
X103150938Y-90717265D01*
X103150938Y-90717265D02*
X103058080Y-90717265D01*
X103058080Y-90717265D02*
X102996176Y-90686313D01*
X102996176Y-90686313D02*
X102965223Y-90655360D01*
X102965223Y-90655360D02*
X102934271Y-90593455D01*
X102934271Y-90593455D02*
X102934271Y-90345836D01*
X103212842Y-90964884D02*
X103243795Y-90995836D01*
X103243795Y-90995836D02*
X103274747Y-91057741D01*
X103274747Y-91057741D02*
X103274747Y-91212503D01*
X103274747Y-91212503D02*
X103243795Y-91274408D01*
X103243795Y-91274408D02*
X103212842Y-91305360D01*
X103212842Y-91305360D02*
X103150938Y-91336313D01*
X103150938Y-91336313D02*
X103089033Y-91336313D01*
X103089033Y-91336313D02*
X102996176Y-91305360D01*
X102996176Y-91305360D02*
X102624747Y-90933932D01*
X102624747Y-90933932D02*
X102624747Y-91336313D01*
X105539366Y-110253550D02*
X105539366Y-110748789D01*
X105291747Y-110501169D02*
X105786985Y-110501169D01*
X105941747Y-111367836D02*
X105941747Y-111058312D01*
X105941747Y-111058312D02*
X105632223Y-111027360D01*
X105632223Y-111027360D02*
X105663176Y-111058312D01*
X105663176Y-111058312D02*
X105694128Y-111120217D01*
X105694128Y-111120217D02*
X105694128Y-111274979D01*
X105694128Y-111274979D02*
X105663176Y-111336884D01*
X105663176Y-111336884D02*
X105632223Y-111367836D01*
X105632223Y-111367836D02*
X105570319Y-111398789D01*
X105570319Y-111398789D02*
X105415557Y-111398789D01*
X105415557Y-111398789D02*
X105353652Y-111367836D01*
X105353652Y-111367836D02*
X105322700Y-111336884D01*
X105322700Y-111336884D02*
X105291747Y-111274979D01*
X105291747Y-111274979D02*
X105291747Y-111120217D01*
X105291747Y-111120217D02*
X105322700Y-111058312D01*
X105322700Y-111058312D02*
X105353652Y-111027360D01*
X105941747Y-111584503D02*
X105291747Y-111801170D01*
X105291747Y-111801170D02*
X105941747Y-112017837D01*
X107973747Y-107586550D02*
X107447557Y-107586550D01*
X107447557Y-107586550D02*
X107385652Y-107617503D01*
X107385652Y-107617503D02*
X107354700Y-107648455D01*
X107354700Y-107648455D02*
X107323747Y-107710360D01*
X107323747Y-107710360D02*
X107323747Y-107834169D01*
X107323747Y-107834169D02*
X107354700Y-107896074D01*
X107354700Y-107896074D02*
X107385652Y-107927027D01*
X107385652Y-107927027D02*
X107447557Y-107957979D01*
X107447557Y-107957979D02*
X107973747Y-107957979D01*
X107354700Y-108236550D02*
X107323747Y-108329407D01*
X107323747Y-108329407D02*
X107323747Y-108484169D01*
X107323747Y-108484169D02*
X107354700Y-108546074D01*
X107354700Y-108546074D02*
X107385652Y-108577026D01*
X107385652Y-108577026D02*
X107447557Y-108607979D01*
X107447557Y-108607979D02*
X107509461Y-108607979D01*
X107509461Y-108607979D02*
X107571366Y-108577026D01*
X107571366Y-108577026D02*
X107602319Y-108546074D01*
X107602319Y-108546074D02*
X107633271Y-108484169D01*
X107633271Y-108484169D02*
X107664223Y-108360360D01*
X107664223Y-108360360D02*
X107695176Y-108298455D01*
X107695176Y-108298455D02*
X107726128Y-108267502D01*
X107726128Y-108267502D02*
X107788033Y-108236550D01*
X107788033Y-108236550D02*
X107849938Y-108236550D01*
X107849938Y-108236550D02*
X107911842Y-108267502D01*
X107911842Y-108267502D02*
X107942795Y-108298455D01*
X107942795Y-108298455D02*
X107973747Y-108360360D01*
X107973747Y-108360360D02*
X107973747Y-108515121D01*
X107973747Y-108515121D02*
X107942795Y-108607979D01*
X107664223Y-109103217D02*
X107633271Y-109196074D01*
X107633271Y-109196074D02*
X107602319Y-109227027D01*
X107602319Y-109227027D02*
X107540414Y-109257979D01*
X107540414Y-109257979D02*
X107447557Y-109257979D01*
X107447557Y-109257979D02*
X107385652Y-109227027D01*
X107385652Y-109227027D02*
X107354700Y-109196074D01*
X107354700Y-109196074D02*
X107323747Y-109134169D01*
X107323747Y-109134169D02*
X107323747Y-108886550D01*
X107323747Y-108886550D02*
X107973747Y-108886550D01*
X107973747Y-108886550D02*
X107973747Y-109103217D01*
X107973747Y-109103217D02*
X107942795Y-109165122D01*
X107942795Y-109165122D02*
X107911842Y-109196074D01*
X107911842Y-109196074D02*
X107849938Y-109227027D01*
X107849938Y-109227027D02*
X107788033Y-109227027D01*
X107788033Y-109227027D02*
X107726128Y-109196074D01*
X107726128Y-109196074D02*
X107695176Y-109165122D01*
X107695176Y-109165122D02*
X107664223Y-109103217D01*
X107664223Y-109103217D02*
X107664223Y-108886550D01*
X107757080Y-109815122D02*
X107323747Y-109815122D01*
X108004700Y-109660360D02*
X107540414Y-109505598D01*
X107540414Y-109505598D02*
X107540414Y-109907979D01*
X107571366Y-110155598D02*
X107571366Y-110650837D01*
X107323747Y-110960360D02*
X107973747Y-110960360D01*
X107973747Y-110960360D02*
X107973747Y-111115122D01*
X107973747Y-111115122D02*
X107942795Y-111207979D01*
X107942795Y-111207979D02*
X107880890Y-111269884D01*
X107880890Y-111269884D02*
X107818985Y-111300837D01*
X107818985Y-111300837D02*
X107695176Y-111331789D01*
X107695176Y-111331789D02*
X107602319Y-111331789D01*
X107602319Y-111331789D02*
X107478509Y-111300837D01*
X107478509Y-111300837D02*
X107416604Y-111269884D01*
X107416604Y-111269884D02*
X107354700Y-111207979D01*
X107354700Y-111207979D02*
X107323747Y-111115122D01*
X107323747Y-111115122D02*
X107323747Y-110960360D01*
X107571366Y-111610360D02*
X107571366Y-112105599D01*
X107323747Y-111857979D02*
X107818985Y-111857979D01*
X105353652Y-90177979D02*
X105322700Y-90147027D01*
X105322700Y-90147027D02*
X105291747Y-90054169D01*
X105291747Y-90054169D02*
X105291747Y-89992265D01*
X105291747Y-89992265D02*
X105322700Y-89899408D01*
X105322700Y-89899408D02*
X105384604Y-89837503D01*
X105384604Y-89837503D02*
X105446509Y-89806550D01*
X105446509Y-89806550D02*
X105570319Y-89775598D01*
X105570319Y-89775598D02*
X105663176Y-89775598D01*
X105663176Y-89775598D02*
X105786985Y-89806550D01*
X105786985Y-89806550D02*
X105848890Y-89837503D01*
X105848890Y-89837503D02*
X105910795Y-89899408D01*
X105910795Y-89899408D02*
X105941747Y-89992265D01*
X105941747Y-89992265D02*
X105941747Y-90054169D01*
X105941747Y-90054169D02*
X105910795Y-90147027D01*
X105910795Y-90147027D02*
X105879842Y-90177979D01*
X105477461Y-90425598D02*
X105477461Y-90735122D01*
X105291747Y-90363693D02*
X105941747Y-90580360D01*
X105941747Y-90580360D02*
X105291747Y-90797027D01*
X105291747Y-91013693D02*
X105941747Y-91013693D01*
X105941747Y-91013693D02*
X105477461Y-91230360D01*
X105477461Y-91230360D02*
X105941747Y-91447027D01*
X105941747Y-91447027D02*
X105291747Y-91447027D01*
X105229842Y-91601789D02*
X105229842Y-92097027D01*
X105353652Y-92623217D02*
X105322700Y-92592265D01*
X105322700Y-92592265D02*
X105291747Y-92499407D01*
X105291747Y-92499407D02*
X105291747Y-92437503D01*
X105291747Y-92437503D02*
X105322700Y-92344646D01*
X105322700Y-92344646D02*
X105384604Y-92282741D01*
X105384604Y-92282741D02*
X105446509Y-92251788D01*
X105446509Y-92251788D02*
X105570319Y-92220836D01*
X105570319Y-92220836D02*
X105663176Y-92220836D01*
X105663176Y-92220836D02*
X105786985Y-92251788D01*
X105786985Y-92251788D02*
X105848890Y-92282741D01*
X105848890Y-92282741D02*
X105910795Y-92344646D01*
X105910795Y-92344646D02*
X105941747Y-92437503D01*
X105941747Y-92437503D02*
X105941747Y-92499407D01*
X105941747Y-92499407D02*
X105910795Y-92592265D01*
X105910795Y-92592265D02*
X105879842Y-92623217D01*
X105291747Y-92901788D02*
X105941747Y-92901788D01*
X105941747Y-92901788D02*
X105941747Y-93149407D01*
X105941747Y-93149407D02*
X105910795Y-93211312D01*
X105910795Y-93211312D02*
X105879842Y-93242265D01*
X105879842Y-93242265D02*
X105817938Y-93273217D01*
X105817938Y-93273217D02*
X105725080Y-93273217D01*
X105725080Y-93273217D02*
X105663176Y-93242265D01*
X105663176Y-93242265D02*
X105632223Y-93211312D01*
X105632223Y-93211312D02*
X105601271Y-93149407D01*
X105601271Y-93149407D02*
X105601271Y-92901788D01*
X108831795Y-98275027D02*
X108862747Y-98213122D01*
X108862747Y-98213122D02*
X108862747Y-98120265D01*
X108862747Y-98120265D02*
X108831795Y-98027408D01*
X108831795Y-98027408D02*
X108769890Y-97965503D01*
X108769890Y-97965503D02*
X108707985Y-97934550D01*
X108707985Y-97934550D02*
X108584176Y-97903598D01*
X108584176Y-97903598D02*
X108491319Y-97903598D01*
X108491319Y-97903598D02*
X108367509Y-97934550D01*
X108367509Y-97934550D02*
X108305604Y-97965503D01*
X108305604Y-97965503D02*
X108243700Y-98027408D01*
X108243700Y-98027408D02*
X108212747Y-98120265D01*
X108212747Y-98120265D02*
X108212747Y-98182169D01*
X108212747Y-98182169D02*
X108243700Y-98275027D01*
X108243700Y-98275027D02*
X108274652Y-98305979D01*
X108274652Y-98305979D02*
X108491319Y-98305979D01*
X108491319Y-98305979D02*
X108491319Y-98182169D01*
X108212747Y-98584550D02*
X108862747Y-98584550D01*
X108862747Y-98584550D02*
X108862747Y-98832169D01*
X108862747Y-98832169D02*
X108831795Y-98894074D01*
X108831795Y-98894074D02*
X108800842Y-98925027D01*
X108800842Y-98925027D02*
X108738938Y-98955979D01*
X108738938Y-98955979D02*
X108646080Y-98955979D01*
X108646080Y-98955979D02*
X108584176Y-98925027D01*
X108584176Y-98925027D02*
X108553223Y-98894074D01*
X108553223Y-98894074D02*
X108522271Y-98832169D01*
X108522271Y-98832169D02*
X108522271Y-98584550D01*
X108212747Y-99234550D02*
X108862747Y-99234550D01*
X108862747Y-99667884D02*
X108862747Y-99791693D01*
X108862747Y-99791693D02*
X108831795Y-99853598D01*
X108831795Y-99853598D02*
X108769890Y-99915503D01*
X108769890Y-99915503D02*
X108646080Y-99946455D01*
X108646080Y-99946455D02*
X108429414Y-99946455D01*
X108429414Y-99946455D02*
X108305604Y-99915503D01*
X108305604Y-99915503D02*
X108243700Y-99853598D01*
X108243700Y-99853598D02*
X108212747Y-99791693D01*
X108212747Y-99791693D02*
X108212747Y-99667884D01*
X108212747Y-99667884D02*
X108243700Y-99605979D01*
X108243700Y-99605979D02*
X108305604Y-99544074D01*
X108305604Y-99544074D02*
X108429414Y-99513122D01*
X108429414Y-99513122D02*
X108646080Y-99513122D01*
X108646080Y-99513122D02*
X108769890Y-99544074D01*
X108769890Y-99544074D02*
X108831795Y-99605979D01*
X108831795Y-99605979D02*
X108862747Y-99667884D01*
X108862747Y-100163122D02*
X108862747Y-100565503D01*
X108862747Y-100565503D02*
X108615128Y-100348836D01*
X108615128Y-100348836D02*
X108615128Y-100441693D01*
X108615128Y-100441693D02*
X108584176Y-100503598D01*
X108584176Y-100503598D02*
X108553223Y-100534550D01*
X108553223Y-100534550D02*
X108491319Y-100565503D01*
X108491319Y-100565503D02*
X108336557Y-100565503D01*
X108336557Y-100565503D02*
X108274652Y-100534550D01*
X108274652Y-100534550D02*
X108243700Y-100503598D01*
X108243700Y-100503598D02*
X108212747Y-100441693D01*
X108212747Y-100441693D02*
X108212747Y-100255979D01*
X108212747Y-100255979D02*
X108243700Y-100194074D01*
X108243700Y-100194074D02*
X108274652Y-100163122D01*
X108862747Y-100782170D02*
X108862747Y-101184551D01*
X108862747Y-101184551D02*
X108615128Y-100967884D01*
X108615128Y-100967884D02*
X108615128Y-101060741D01*
X108615128Y-101060741D02*
X108584176Y-101122646D01*
X108584176Y-101122646D02*
X108553223Y-101153598D01*
X108553223Y-101153598D02*
X108491319Y-101184551D01*
X108491319Y-101184551D02*
X108336557Y-101184551D01*
X108336557Y-101184551D02*
X108274652Y-101153598D01*
X108274652Y-101153598D02*
X108243700Y-101122646D01*
X108243700Y-101122646D02*
X108212747Y-101060741D01*
X108212747Y-101060741D02*
X108212747Y-100875027D01*
X108212747Y-100875027D02*
X108243700Y-100813122D01*
X108243700Y-100813122D02*
X108274652Y-100782170D01*
X102481795Y-91925027D02*
X102512747Y-91863122D01*
X102512747Y-91863122D02*
X102512747Y-91770265D01*
X102512747Y-91770265D02*
X102481795Y-91677408D01*
X102481795Y-91677408D02*
X102419890Y-91615503D01*
X102419890Y-91615503D02*
X102357985Y-91584550D01*
X102357985Y-91584550D02*
X102234176Y-91553598D01*
X102234176Y-91553598D02*
X102141319Y-91553598D01*
X102141319Y-91553598D02*
X102017509Y-91584550D01*
X102017509Y-91584550D02*
X101955604Y-91615503D01*
X101955604Y-91615503D02*
X101893700Y-91677408D01*
X101893700Y-91677408D02*
X101862747Y-91770265D01*
X101862747Y-91770265D02*
X101862747Y-91832169D01*
X101862747Y-91832169D02*
X101893700Y-91925027D01*
X101893700Y-91925027D02*
X101924652Y-91955979D01*
X101924652Y-91955979D02*
X102141319Y-91955979D01*
X102141319Y-91955979D02*
X102141319Y-91832169D01*
X101862747Y-92234550D02*
X102512747Y-92234550D01*
X102512747Y-92234550D02*
X101862747Y-92605979D01*
X101862747Y-92605979D02*
X102512747Y-92605979D01*
X101862747Y-92915502D02*
X102512747Y-92915502D01*
X102512747Y-92915502D02*
X102512747Y-93070264D01*
X102512747Y-93070264D02*
X102481795Y-93163121D01*
X102481795Y-93163121D02*
X102419890Y-93225026D01*
X102419890Y-93225026D02*
X102357985Y-93255979D01*
X102357985Y-93255979D02*
X102234176Y-93286931D01*
X102234176Y-93286931D02*
X102141319Y-93286931D01*
X102141319Y-93286931D02*
X102017509Y-93255979D01*
X102017509Y-93255979D02*
X101955604Y-93225026D01*
X101955604Y-93225026D02*
X101893700Y-93163121D01*
X101893700Y-93163121D02*
X101862747Y-93070264D01*
X101862747Y-93070264D02*
X101862747Y-92915502D01*
X98925795Y-99672027D02*
X98956747Y-99610122D01*
X98956747Y-99610122D02*
X98956747Y-99517265D01*
X98956747Y-99517265D02*
X98925795Y-99424408D01*
X98925795Y-99424408D02*
X98863890Y-99362503D01*
X98863890Y-99362503D02*
X98801985Y-99331550D01*
X98801985Y-99331550D02*
X98678176Y-99300598D01*
X98678176Y-99300598D02*
X98585319Y-99300598D01*
X98585319Y-99300598D02*
X98461509Y-99331550D01*
X98461509Y-99331550D02*
X98399604Y-99362503D01*
X98399604Y-99362503D02*
X98337700Y-99424408D01*
X98337700Y-99424408D02*
X98306747Y-99517265D01*
X98306747Y-99517265D02*
X98306747Y-99579169D01*
X98306747Y-99579169D02*
X98337700Y-99672027D01*
X98337700Y-99672027D02*
X98368652Y-99702979D01*
X98368652Y-99702979D02*
X98585319Y-99702979D01*
X98585319Y-99702979D02*
X98585319Y-99579169D01*
X98306747Y-99981550D02*
X98956747Y-99981550D01*
X98956747Y-99981550D02*
X98956747Y-100229169D01*
X98956747Y-100229169D02*
X98925795Y-100291074D01*
X98925795Y-100291074D02*
X98894842Y-100322027D01*
X98894842Y-100322027D02*
X98832938Y-100352979D01*
X98832938Y-100352979D02*
X98740080Y-100352979D01*
X98740080Y-100352979D02*
X98678176Y-100322027D01*
X98678176Y-100322027D02*
X98647223Y-100291074D01*
X98647223Y-100291074D02*
X98616271Y-100229169D01*
X98616271Y-100229169D02*
X98616271Y-99981550D01*
X98306747Y-100631550D02*
X98956747Y-100631550D01*
X98956747Y-101064884D02*
X98956747Y-101188693D01*
X98956747Y-101188693D02*
X98925795Y-101250598D01*
X98925795Y-101250598D02*
X98863890Y-101312503D01*
X98863890Y-101312503D02*
X98740080Y-101343455D01*
X98740080Y-101343455D02*
X98523414Y-101343455D01*
X98523414Y-101343455D02*
X98399604Y-101312503D01*
X98399604Y-101312503D02*
X98337700Y-101250598D01*
X98337700Y-101250598D02*
X98306747Y-101188693D01*
X98306747Y-101188693D02*
X98306747Y-101064884D01*
X98306747Y-101064884D02*
X98337700Y-101002979D01*
X98337700Y-101002979D02*
X98399604Y-100941074D01*
X98399604Y-100941074D02*
X98523414Y-100910122D01*
X98523414Y-100910122D02*
X98740080Y-100910122D01*
X98740080Y-100910122D02*
X98863890Y-100941074D01*
X98863890Y-100941074D02*
X98925795Y-101002979D01*
X98925795Y-101002979D02*
X98956747Y-101064884D01*
X98740080Y-101900598D02*
X98306747Y-101900598D01*
X98987700Y-101745836D02*
X98523414Y-101591074D01*
X98523414Y-101591074D02*
X98523414Y-101993455D01*
X98740080Y-102519646D02*
X98306747Y-102519646D01*
X98987700Y-102364884D02*
X98523414Y-102210122D01*
X98523414Y-102210122D02*
X98523414Y-102612503D01*
X110609795Y-86845027D02*
X110640747Y-86783122D01*
X110640747Y-86783122D02*
X110640747Y-86690265D01*
X110640747Y-86690265D02*
X110609795Y-86597408D01*
X110609795Y-86597408D02*
X110547890Y-86535503D01*
X110547890Y-86535503D02*
X110485985Y-86504550D01*
X110485985Y-86504550D02*
X110362176Y-86473598D01*
X110362176Y-86473598D02*
X110269319Y-86473598D01*
X110269319Y-86473598D02*
X110145509Y-86504550D01*
X110145509Y-86504550D02*
X110083604Y-86535503D01*
X110083604Y-86535503D02*
X110021700Y-86597408D01*
X110021700Y-86597408D02*
X109990747Y-86690265D01*
X109990747Y-86690265D02*
X109990747Y-86752169D01*
X109990747Y-86752169D02*
X110021700Y-86845027D01*
X110021700Y-86845027D02*
X110052652Y-86875979D01*
X110052652Y-86875979D02*
X110269319Y-86875979D01*
X110269319Y-86875979D02*
X110269319Y-86752169D01*
X109990747Y-87154550D02*
X110640747Y-87154550D01*
X110640747Y-87154550D02*
X109990747Y-87525979D01*
X109990747Y-87525979D02*
X110640747Y-87525979D01*
X109990747Y-87835502D02*
X110640747Y-87835502D01*
X110640747Y-87835502D02*
X110640747Y-87990264D01*
X110640747Y-87990264D02*
X110609795Y-88083121D01*
X110609795Y-88083121D02*
X110547890Y-88145026D01*
X110547890Y-88145026D02*
X110485985Y-88175979D01*
X110485985Y-88175979D02*
X110362176Y-88206931D01*
X110362176Y-88206931D02*
X110269319Y-88206931D01*
X110269319Y-88206931D02*
X110145509Y-88175979D01*
X110145509Y-88175979D02*
X110083604Y-88145026D01*
X110083604Y-88145026D02*
X110021700Y-88083121D01*
X110021700Y-88083121D02*
X109990747Y-87990264D01*
X109990747Y-87990264D02*
X109990747Y-87835502D01*
X99814795Y-98275027D02*
X99845747Y-98213122D01*
X99845747Y-98213122D02*
X99845747Y-98120265D01*
X99845747Y-98120265D02*
X99814795Y-98027408D01*
X99814795Y-98027408D02*
X99752890Y-97965503D01*
X99752890Y-97965503D02*
X99690985Y-97934550D01*
X99690985Y-97934550D02*
X99567176Y-97903598D01*
X99567176Y-97903598D02*
X99474319Y-97903598D01*
X99474319Y-97903598D02*
X99350509Y-97934550D01*
X99350509Y-97934550D02*
X99288604Y-97965503D01*
X99288604Y-97965503D02*
X99226700Y-98027408D01*
X99226700Y-98027408D02*
X99195747Y-98120265D01*
X99195747Y-98120265D02*
X99195747Y-98182169D01*
X99195747Y-98182169D02*
X99226700Y-98275027D01*
X99226700Y-98275027D02*
X99257652Y-98305979D01*
X99257652Y-98305979D02*
X99474319Y-98305979D01*
X99474319Y-98305979D02*
X99474319Y-98182169D01*
X99195747Y-98584550D02*
X99845747Y-98584550D01*
X99845747Y-98584550D02*
X99845747Y-98832169D01*
X99845747Y-98832169D02*
X99814795Y-98894074D01*
X99814795Y-98894074D02*
X99783842Y-98925027D01*
X99783842Y-98925027D02*
X99721938Y-98955979D01*
X99721938Y-98955979D02*
X99629080Y-98955979D01*
X99629080Y-98955979D02*
X99567176Y-98925027D01*
X99567176Y-98925027D02*
X99536223Y-98894074D01*
X99536223Y-98894074D02*
X99505271Y-98832169D01*
X99505271Y-98832169D02*
X99505271Y-98584550D01*
X99195747Y-99234550D02*
X99845747Y-99234550D01*
X99845747Y-99667884D02*
X99845747Y-99791693D01*
X99845747Y-99791693D02*
X99814795Y-99853598D01*
X99814795Y-99853598D02*
X99752890Y-99915503D01*
X99752890Y-99915503D02*
X99629080Y-99946455D01*
X99629080Y-99946455D02*
X99412414Y-99946455D01*
X99412414Y-99946455D02*
X99288604Y-99915503D01*
X99288604Y-99915503D02*
X99226700Y-99853598D01*
X99226700Y-99853598D02*
X99195747Y-99791693D01*
X99195747Y-99791693D02*
X99195747Y-99667884D01*
X99195747Y-99667884D02*
X99226700Y-99605979D01*
X99226700Y-99605979D02*
X99288604Y-99544074D01*
X99288604Y-99544074D02*
X99412414Y-99513122D01*
X99412414Y-99513122D02*
X99629080Y-99513122D01*
X99629080Y-99513122D02*
X99752890Y-99544074D01*
X99752890Y-99544074D02*
X99814795Y-99605979D01*
X99814795Y-99605979D02*
X99845747Y-99667884D01*
X99629080Y-100503598D02*
X99195747Y-100503598D01*
X99876700Y-100348836D02*
X99412414Y-100194074D01*
X99412414Y-100194074D02*
X99412414Y-100596455D01*
X99845747Y-100782170D02*
X99845747Y-101184551D01*
X99845747Y-101184551D02*
X99598128Y-100967884D01*
X99598128Y-100967884D02*
X99598128Y-101060741D01*
X99598128Y-101060741D02*
X99567176Y-101122646D01*
X99567176Y-101122646D02*
X99536223Y-101153598D01*
X99536223Y-101153598D02*
X99474319Y-101184551D01*
X99474319Y-101184551D02*
X99319557Y-101184551D01*
X99319557Y-101184551D02*
X99257652Y-101153598D01*
X99257652Y-101153598D02*
X99226700Y-101122646D01*
X99226700Y-101122646D02*
X99195747Y-101060741D01*
X99195747Y-101060741D02*
X99195747Y-100875027D01*
X99195747Y-100875027D02*
X99226700Y-100813122D01*
X99226700Y-100813122D02*
X99257652Y-100782170D01*
X113149795Y-91925027D02*
X113180747Y-91863122D01*
X113180747Y-91863122D02*
X113180747Y-91770265D01*
X113180747Y-91770265D02*
X113149795Y-91677408D01*
X113149795Y-91677408D02*
X113087890Y-91615503D01*
X113087890Y-91615503D02*
X113025985Y-91584550D01*
X113025985Y-91584550D02*
X112902176Y-91553598D01*
X112902176Y-91553598D02*
X112809319Y-91553598D01*
X112809319Y-91553598D02*
X112685509Y-91584550D01*
X112685509Y-91584550D02*
X112623604Y-91615503D01*
X112623604Y-91615503D02*
X112561700Y-91677408D01*
X112561700Y-91677408D02*
X112530747Y-91770265D01*
X112530747Y-91770265D02*
X112530747Y-91832169D01*
X112530747Y-91832169D02*
X112561700Y-91925027D01*
X112561700Y-91925027D02*
X112592652Y-91955979D01*
X112592652Y-91955979D02*
X112809319Y-91955979D01*
X112809319Y-91955979D02*
X112809319Y-91832169D01*
X112530747Y-92234550D02*
X113180747Y-92234550D01*
X113180747Y-92234550D02*
X112530747Y-92605979D01*
X112530747Y-92605979D02*
X113180747Y-92605979D01*
X112530747Y-92915502D02*
X113180747Y-92915502D01*
X113180747Y-92915502D02*
X113180747Y-93070264D01*
X113180747Y-93070264D02*
X113149795Y-93163121D01*
X113149795Y-93163121D02*
X113087890Y-93225026D01*
X113087890Y-93225026D02*
X113025985Y-93255979D01*
X113025985Y-93255979D02*
X112902176Y-93286931D01*
X112902176Y-93286931D02*
X112809319Y-93286931D01*
X112809319Y-93286931D02*
X112685509Y-93255979D01*
X112685509Y-93255979D02*
X112623604Y-93225026D01*
X112623604Y-93225026D02*
X112561700Y-93163121D01*
X112561700Y-93163121D02*
X112530747Y-93070264D01*
X112530747Y-93070264D02*
X112530747Y-92915502D01*
X110609795Y-98275027D02*
X110640747Y-98213122D01*
X110640747Y-98213122D02*
X110640747Y-98120265D01*
X110640747Y-98120265D02*
X110609795Y-98027408D01*
X110609795Y-98027408D02*
X110547890Y-97965503D01*
X110547890Y-97965503D02*
X110485985Y-97934550D01*
X110485985Y-97934550D02*
X110362176Y-97903598D01*
X110362176Y-97903598D02*
X110269319Y-97903598D01*
X110269319Y-97903598D02*
X110145509Y-97934550D01*
X110145509Y-97934550D02*
X110083604Y-97965503D01*
X110083604Y-97965503D02*
X110021700Y-98027408D01*
X110021700Y-98027408D02*
X109990747Y-98120265D01*
X109990747Y-98120265D02*
X109990747Y-98182169D01*
X109990747Y-98182169D02*
X110021700Y-98275027D01*
X110021700Y-98275027D02*
X110052652Y-98305979D01*
X110052652Y-98305979D02*
X110269319Y-98305979D01*
X110269319Y-98305979D02*
X110269319Y-98182169D01*
X109990747Y-98584550D02*
X110640747Y-98584550D01*
X110640747Y-98584550D02*
X110640747Y-98832169D01*
X110640747Y-98832169D02*
X110609795Y-98894074D01*
X110609795Y-98894074D02*
X110578842Y-98925027D01*
X110578842Y-98925027D02*
X110516938Y-98955979D01*
X110516938Y-98955979D02*
X110424080Y-98955979D01*
X110424080Y-98955979D02*
X110362176Y-98925027D01*
X110362176Y-98925027D02*
X110331223Y-98894074D01*
X110331223Y-98894074D02*
X110300271Y-98832169D01*
X110300271Y-98832169D02*
X110300271Y-98584550D01*
X109990747Y-99234550D02*
X110640747Y-99234550D01*
X110640747Y-99667884D02*
X110640747Y-99791693D01*
X110640747Y-99791693D02*
X110609795Y-99853598D01*
X110609795Y-99853598D02*
X110547890Y-99915503D01*
X110547890Y-99915503D02*
X110424080Y-99946455D01*
X110424080Y-99946455D02*
X110207414Y-99946455D01*
X110207414Y-99946455D02*
X110083604Y-99915503D01*
X110083604Y-99915503D02*
X110021700Y-99853598D01*
X110021700Y-99853598D02*
X109990747Y-99791693D01*
X109990747Y-99791693D02*
X109990747Y-99667884D01*
X109990747Y-99667884D02*
X110021700Y-99605979D01*
X110021700Y-99605979D02*
X110083604Y-99544074D01*
X110083604Y-99544074D02*
X110207414Y-99513122D01*
X110207414Y-99513122D02*
X110424080Y-99513122D01*
X110424080Y-99513122D02*
X110547890Y-99544074D01*
X110547890Y-99544074D02*
X110609795Y-99605979D01*
X110609795Y-99605979D02*
X110640747Y-99667884D01*
X110640747Y-100163122D02*
X110640747Y-100565503D01*
X110640747Y-100565503D02*
X110393128Y-100348836D01*
X110393128Y-100348836D02*
X110393128Y-100441693D01*
X110393128Y-100441693D02*
X110362176Y-100503598D01*
X110362176Y-100503598D02*
X110331223Y-100534550D01*
X110331223Y-100534550D02*
X110269319Y-100565503D01*
X110269319Y-100565503D02*
X110114557Y-100565503D01*
X110114557Y-100565503D02*
X110052652Y-100534550D01*
X110052652Y-100534550D02*
X110021700Y-100503598D01*
X110021700Y-100503598D02*
X109990747Y-100441693D01*
X109990747Y-100441693D02*
X109990747Y-100255979D01*
X109990747Y-100255979D02*
X110021700Y-100194074D01*
X110021700Y-100194074D02*
X110052652Y-100163122D01*
X109990747Y-101184551D02*
X109990747Y-100813122D01*
X109990747Y-100998836D02*
X110640747Y-100998836D01*
X110640747Y-100998836D02*
X110547890Y-100936932D01*
X110547890Y-100936932D02*
X110485985Y-100875027D01*
X110485985Y-100875027D02*
X110455033Y-100813122D01*
M02*
