%TF.GenerationSoftware,KiCad,Pcbnew,8.0.4*%
%TF.CreationDate,2025-01-31T00:42:38+01:00*%
%TF.ProjectId,uconsole-expansion-card-template,75636f6e-736f-46c6-952d-657870616e73,0.1*%
%TF.SameCoordinates,Original*%
%TF.FileFunction,Copper,L2,Bot*%
%TF.FilePolarity,Positive*%
%FSLAX46Y46*%
G04 Gerber Fmt 4.6, Leading zero omitted, Abs format (unit mm)*
G04 Created by KiCad (PCBNEW 8.0.4) date 2025-01-31 00:42:38*
%MOMM*%
%LPD*%
G01*
G04 APERTURE LIST*
G04 Aperture macros list*
%AMRoundRect*
0 Rectangle with rounded corners*
0 $1 Rounding radius*
0 $2 $3 $4 $5 $6 $7 $8 $9 X,Y pos of 4 corners*
0 Add a 4 corners polygon primitive as box body*
4,1,4,$2,$3,$4,$5,$6,$7,$8,$9,$2,$3,0*
0 Add four circle primitives for the rounded corners*
1,1,$1+$1,$2,$3*
1,1,$1+$1,$4,$5*
1,1,$1+$1,$6,$7*
1,1,$1+$1,$8,$9*
0 Add four rect primitives between the rounded corners*
20,1,$1+$1,$2,$3,$4,$5,0*
20,1,$1+$1,$4,$5,$6,$7,0*
20,1,$1+$1,$6,$7,$8,$9,0*
20,1,$1+$1,$8,$9,$2,$3,0*%
G04 Aperture macros list end*
%TA.AperFunction,ComponentPad*%
%ADD10R,1.000000X1.000000*%
%TD*%
%TA.AperFunction,ConnectorPad*%
%ADD11R,2.300000X0.600000*%
%TD*%
%TA.AperFunction,ConnectorPad*%
%ADD12RoundRect,0.250000X0.250000X0.750000X-0.250000X0.750000X-0.250000X-0.750000X0.250000X-0.750000X0*%
%TD*%
%TA.AperFunction,ViaPad*%
%ADD13C,0.800000*%
%TD*%
%TA.AperFunction,Conductor*%
%ADD14C,0.200000*%
%TD*%
%TA.AperFunction,Conductor*%
%ADD15C,0.420000*%
%TD*%
%TA.AperFunction,Conductor*%
%ADD16C,0.250000*%
%TD*%
G04 APERTURE END LIST*
D10*
%TO.P,,1*%
%TO.N,N/C*%
X100070000Y-125790000D03*
%TD*%
%TO.P,,1*%
%TO.N,N/C*%
X102810000Y-125790000D03*
%TD*%
%TO.P,,1*%
%TO.N,N/C*%
X98700000Y-125790000D03*
%TD*%
%TO.P,,1*%
%TO.N,N/C*%
X108290000Y-125790000D03*
%TD*%
%TO.P,,1*%
%TO.N,N/C*%
X106920000Y-125790000D03*
%TD*%
%TO.P,,1*%
%TO.N,N/C*%
X105550000Y-125790000D03*
%TD*%
%TO.P,,1*%
%TO.N,N/C*%
X104180000Y-125790000D03*
%TD*%
%TO.P,,1*%
%TO.N,N/C*%
X101440000Y-125790000D03*
%TD*%
%TO.P,,1*%
%TO.N,N/C*%
X112400000Y-124420000D03*
%TD*%
%TO.P,,1*%
%TO.N,N/C*%
X97330000Y-125790000D03*
%TD*%
%TO.P,,1*%
%TO.N,N/C*%
X95960000Y-125790000D03*
%TD*%
%TO.P,,1*%
%TO.N,N/C*%
X90480000Y-125790000D03*
%TD*%
%TO.P,,1*%
%TO.N,N/C*%
X86370000Y-125790000D03*
%TD*%
%TO.P,,1*%
%TO.N,N/C*%
X106920000Y-124420000D03*
%TD*%
%TO.P,,1*%
%TO.N,N/C*%
X111030000Y-124420000D03*
%TD*%
%TO.P,,1*%
%TO.N,N/C*%
X89110000Y-125790000D03*
%TD*%
%TO.P,,1*%
%TO.N,N/C*%
X87740000Y-125790000D03*
%TD*%
%TO.P,,1*%
%TO.N,N/C*%
X109660000Y-124420000D03*
%TD*%
%TO.P,,1*%
%TO.N,N/C*%
X105550000Y-124420000D03*
%TD*%
%TO.P,,1*%
%TO.N,N/C*%
X94590000Y-125790000D03*
%TD*%
%TO.P,,1*%
%TO.N,N/C*%
X104180000Y-124420000D03*
%TD*%
%TO.P,,1*%
%TO.N,N/C*%
X91850000Y-125790000D03*
%TD*%
%TO.P,,1*%
%TO.N,N/C*%
X108290000Y-124420000D03*
%TD*%
%TO.P,,1*%
%TO.N,N/C*%
X85000000Y-125790000D03*
%TD*%
%TO.P,,1*%
%TO.N,N/C*%
X83630000Y-125790000D03*
%TD*%
%TO.P,,1*%
%TO.N,N/C*%
X93220000Y-125790000D03*
%TD*%
%TO.P,,1*%
%TO.N,N/C*%
X101440000Y-124420000D03*
%TD*%
%TO.P,,1*%
%TO.N,N/C*%
X95960000Y-124420000D03*
%TD*%
%TO.P,,1*%
%TO.N,N/C*%
X91850000Y-124420000D03*
%TD*%
%TO.P,,1*%
%TO.N,N/C*%
X85000000Y-124420000D03*
%TD*%
%TO.P,,1*%
%TO.N,N/C*%
X106920000Y-123050000D03*
%TD*%
%TO.P,,1*%
%TO.N,N/C*%
X104180000Y-123050000D03*
%TD*%
%TO.P,,1*%
%TO.N,N/C*%
X90480000Y-124420000D03*
%TD*%
%TO.P,,1*%
%TO.N,N/C*%
X102810000Y-124420000D03*
%TD*%
%TO.P,,1*%
%TO.N,N/C*%
X98700000Y-124420000D03*
%TD*%
%TO.P,,1*%
%TO.N,N/C*%
X94590000Y-124420000D03*
%TD*%
%TO.P,,1*%
%TO.N,N/C*%
X89110000Y-124420000D03*
%TD*%
%TO.P,,1*%
%TO.N,N/C*%
X86370000Y-124420000D03*
%TD*%
%TO.P,,1*%
%TO.N,N/C*%
X83630000Y-124420000D03*
%TD*%
%TO.P,,1*%
%TO.N,N/C*%
X112400000Y-123050000D03*
%TD*%
%TO.P,,1*%
%TO.N,N/C*%
X108290000Y-123050000D03*
%TD*%
%TO.P,,1*%
%TO.N,N/C*%
X111030000Y-123050000D03*
%TD*%
%TO.P,,1*%
%TO.N,N/C*%
X105550000Y-123050000D03*
%TD*%
%TO.P,,1*%
%TO.N,N/C*%
X100070000Y-124420000D03*
%TD*%
%TO.P,,1*%
%TO.N,N/C*%
X97330000Y-124420000D03*
%TD*%
%TO.P,,1*%
%TO.N,N/C*%
X93220000Y-124420000D03*
%TD*%
%TO.P,,1*%
%TO.N,N/C*%
X87740000Y-124420000D03*
%TD*%
%TO.P,,1*%
%TO.N,N/C*%
X109660000Y-123050000D03*
%TD*%
%TO.P,,1*%
%TO.N,N/C*%
X101440000Y-123050000D03*
%TD*%
%TO.P,,1*%
%TO.N,N/C*%
X98700000Y-123050000D03*
%TD*%
%TO.P,,1*%
%TO.N,N/C*%
X94590000Y-123050000D03*
%TD*%
%TO.P,,1*%
%TO.N,N/C*%
X93220000Y-123050000D03*
%TD*%
%TO.P,,1*%
%TO.N,N/C*%
X91850000Y-123050000D03*
%TD*%
%TO.P,,1*%
%TO.N,N/C*%
X85000000Y-123050000D03*
%TD*%
%TO.P,,1*%
%TO.N,N/C*%
X102810000Y-121680000D03*
%TD*%
%TO.P,,1*%
%TO.N,N/C*%
X101440000Y-121680000D03*
%TD*%
%TO.P,,1*%
%TO.N,N/C*%
X86370000Y-123050000D03*
%TD*%
%TO.P,,1*%
%TO.N,N/C*%
X112400000Y-121680000D03*
%TD*%
%TO.P,,1*%
%TO.N,N/C*%
X104180000Y-121680000D03*
%TD*%
%TO.P,,1*%
%TO.N,N/C*%
X87740000Y-123050000D03*
%TD*%
%TO.P,,1*%
%TO.N,N/C*%
X106920000Y-121680000D03*
%TD*%
%TO.P,,1*%
%TO.N,N/C*%
X95960000Y-123050000D03*
%TD*%
%TO.P,,1*%
%TO.N,N/C*%
X89110000Y-123050000D03*
%TD*%
%TO.P,,1*%
%TO.N,N/C*%
X111030000Y-121680000D03*
%TD*%
%TO.P,,1*%
%TO.N,N/C*%
X109660000Y-121680000D03*
%TD*%
%TO.P,,1*%
%TO.N,N/C*%
X102810000Y-123050000D03*
%TD*%
%TO.P,,1*%
%TO.N,N/C*%
X100070000Y-123050000D03*
%TD*%
%TO.P,,1*%
%TO.N,N/C*%
X97330000Y-123050000D03*
%TD*%
%TO.P,,1*%
%TO.N,N/C*%
X108290000Y-121680000D03*
%TD*%
%TO.P,,1*%
%TO.N,N/C*%
X83630000Y-123050000D03*
%TD*%
%TO.P,,1*%
%TO.N,N/C*%
X90480000Y-123050000D03*
%TD*%
%TO.P,,1*%
%TO.N,N/C*%
X105550000Y-121680000D03*
%TD*%
%TO.P,,1*%
%TO.N,N/C*%
X109660000Y-125790000D03*
%TD*%
%TO.P,,1*%
%TO.N,N/C*%
X112400000Y-125790000D03*
%TD*%
%TO.P,,1*%
%TO.N,N/C*%
X111030000Y-125790000D03*
%TD*%
%TO.P,,1*%
%TO.N,N/C*%
X98700000Y-121680000D03*
%TD*%
%TO.P,,1*%
%TO.N,N/C*%
X91850000Y-121680000D03*
%TD*%
%TO.P,,1*%
%TO.N,N/C*%
X95960000Y-121680000D03*
%TD*%
%TO.P,,1*%
%TO.N,N/C*%
X94590000Y-121680000D03*
%TD*%
%TO.P,,1*%
%TO.N,N/C*%
X90480000Y-121680000D03*
%TD*%
%TO.P,,1*%
%TO.N,N/C*%
X100070000Y-121680000D03*
%TD*%
%TO.P,,1*%
%TO.N,N/C*%
X97330000Y-121680000D03*
%TD*%
%TO.P,,1*%
%TO.N,N/C*%
X93220000Y-121680000D03*
%TD*%
%TO.P,,1*%
%TO.N,N/C*%
X89110000Y-121680000D03*
%TD*%
%TO.P,,1*%
%TO.N,N/C*%
X87740000Y-121680000D03*
%TD*%
%TO.P,,1*%
%TO.N,N/C*%
X86370000Y-121680000D03*
%TD*%
%TO.P,,1*%
%TO.N,N/C*%
X112400000Y-120310000D03*
%TD*%
%TO.P,,1*%
%TO.N,N/C*%
X111030000Y-120310000D03*
%TD*%
%TO.P,,1*%
%TO.N,N/C*%
X108290000Y-120310000D03*
%TD*%
%TO.P,,1*%
%TO.N,N/C*%
X105550000Y-120310000D03*
%TD*%
%TO.P,,1*%
%TO.N,N/C*%
X90480000Y-120310000D03*
%TD*%
%TO.P,,1*%
%TO.N,N/C*%
X101440000Y-120310000D03*
%TD*%
%TO.P,,1*%
%TO.N,N/C*%
X104180000Y-120310000D03*
%TD*%
%TO.P,,1*%
%TO.N,N/C*%
X97330000Y-120310000D03*
%TD*%
%TO.P,,1*%
%TO.N,N/C*%
X89110000Y-120310000D03*
%TD*%
%TO.P,,1*%
%TO.N,N/C*%
X94590000Y-120310000D03*
%TD*%
%TO.P,,1*%
%TO.N,N/C*%
X109660000Y-120310000D03*
%TD*%
%TO.P,,1*%
%TO.N,N/C*%
X95960000Y-120310000D03*
%TD*%
%TO.P,,1*%
%TO.N,N/C*%
X86370000Y-120310000D03*
%TD*%
%TO.P,,1*%
%TO.N,N/C*%
X91850000Y-120310000D03*
%TD*%
%TO.P,,1*%
%TO.N,N/C*%
X85000000Y-121680000D03*
%TD*%
%TO.P,,1*%
%TO.N,N/C*%
X106920000Y-120310000D03*
%TD*%
%TO.P,,1*%
%TO.N,N/C*%
X100070000Y-120310000D03*
%TD*%
%TO.P,,1*%
%TO.N,N/C*%
X83630000Y-121680000D03*
%TD*%
%TO.P,,1*%
%TO.N,N/C*%
X102810000Y-120310000D03*
%TD*%
%TO.P,,1*%
%TO.N,N/C*%
X93220000Y-120310000D03*
%TD*%
%TO.P,,1*%
%TO.N,N/C*%
X87740000Y-120310000D03*
%TD*%
%TO.P,,1*%
%TO.N,N/C*%
X98700000Y-120310000D03*
%TD*%
%TO.P,,1*%
%TO.N,N/C*%
X108290000Y-118940000D03*
%TD*%
%TO.P,,1*%
%TO.N,N/C*%
X105550000Y-118940000D03*
%TD*%
%TO.P,,1*%
%TO.N,N/C*%
X98700000Y-118940000D03*
%TD*%
%TO.P,,1*%
%TO.N,N/C*%
X83630000Y-120310000D03*
%TD*%
%TO.P,,1*%
%TO.N,N/C*%
X90480000Y-118940000D03*
%TD*%
%TO.P,,1*%
%TO.N,N/C*%
X112400000Y-118940000D03*
%TD*%
%TO.P,,1*%
%TO.N,N/C*%
X111030000Y-118940000D03*
%TD*%
%TO.P,,1*%
%TO.N,N/C*%
X109660000Y-118940000D03*
%TD*%
%TO.P,,1*%
%TO.N,N/C*%
X104180000Y-118940000D03*
%TD*%
%TO.P,,1*%
%TO.N,N/C*%
X101440000Y-118940000D03*
%TD*%
%TO.P,,1*%
%TO.N,N/C*%
X94590000Y-118940000D03*
%TD*%
%TO.P,,1*%
%TO.N,N/C*%
X93220000Y-118940000D03*
%TD*%
%TO.P,,1*%
%TO.N,N/C*%
X87740000Y-118940000D03*
%TD*%
%TO.P,,1*%
%TO.N,N/C*%
X89110000Y-118940000D03*
%TD*%
%TO.P,,1*%
%TO.N,N/C*%
X106920000Y-118940000D03*
%TD*%
%TO.P,,1*%
%TO.N,N/C*%
X97330000Y-118940000D03*
%TD*%
%TO.P,,1*%
%TO.N,N/C*%
X85000000Y-120310000D03*
%TD*%
%TO.P,,1*%
%TO.N,N/C*%
X100070000Y-118940000D03*
%TD*%
%TO.P,,1*%
%TO.N,N/C*%
X91850000Y-118940000D03*
%TD*%
%TO.P,,1*%
%TO.N,N/C*%
X102810000Y-118940000D03*
%TD*%
%TO.P,,1*%
%TO.N,N/C*%
X95960000Y-118940000D03*
%TD*%
%TO.P,,1*%
%TO.N,N/C*%
X85000000Y-118940000D03*
%TD*%
%TO.P,,1*%
%TO.N,N/C*%
X100070000Y-117570000D03*
%TD*%
%TO.P,,1*%
%TO.N,N/C*%
X83630000Y-118940000D03*
%TD*%
%TO.P,,1*%
%TO.N,N/C*%
X109660000Y-117570000D03*
%TD*%
%TO.P,,1*%
%TO.N,N/C*%
X105550000Y-117570000D03*
%TD*%
%TO.P,,1*%
%TO.N,N/C*%
X101440000Y-117570000D03*
%TD*%
%TO.P,,1*%
%TO.N,N/C*%
X97330000Y-117570000D03*
%TD*%
%TO.P,,1*%
%TO.N,N/C*%
X112400000Y-117570000D03*
%TD*%
%TO.P,,1*%
%TO.N,N/C*%
X111030000Y-117570000D03*
%TD*%
%TO.P,,1*%
%TO.N,N/C*%
X108290000Y-117570000D03*
%TD*%
%TO.P,,1*%
%TO.N,N/C*%
X106920000Y-117570000D03*
%TD*%
%TO.P,,1*%
%TO.N,N/C*%
X104180000Y-117570000D03*
%TD*%
%TO.P,,1*%
%TO.N,N/C*%
X95960000Y-117570000D03*
%TD*%
%TO.P,,1*%
%TO.N,N/C*%
X102810000Y-117570000D03*
%TD*%
%TO.P,,1*%
%TO.N,N/C*%
X94590000Y-117570000D03*
%TD*%
%TO.P,,1*%
%TO.N,N/C*%
X98700000Y-117570000D03*
%TD*%
%TO.P,,1*%
%TO.N,N/C*%
X93220000Y-117570000D03*
%TD*%
%TO.P,,1*%
%TO.N,N/C*%
X86370000Y-118940000D03*
%TD*%
%TO.P,,1*%
%TO.N,N/C*%
X97330000Y-116200000D03*
%TD*%
%TO.P,,1*%
%TO.N,N/C*%
X91850000Y-116200000D03*
%TD*%
%TO.P,,1*%
%TO.N,N/C*%
X94590000Y-116200000D03*
%TD*%
%TO.P,,1*%
%TO.N,N/C*%
X86370000Y-116200000D03*
%TD*%
%TO.P,,1*%
%TO.N,N/C*%
X93220000Y-116200000D03*
%TD*%
%TO.P,,1*%
%TO.N,N/C*%
X89110000Y-116200000D03*
%TD*%
%TO.P,,1*%
%TO.N,N/C*%
X108290000Y-116200000D03*
%TD*%
%TO.P,,1*%
%TO.N,N/C*%
X106920000Y-116200000D03*
%TD*%
%TO.P,,1*%
%TO.N,N/C*%
X90480000Y-116200000D03*
%TD*%
%TO.P,,1*%
%TO.N,N/C*%
X100070000Y-116200000D03*
%TD*%
%TO.P,,1*%
%TO.N,N/C*%
X111030000Y-116200000D03*
%TD*%
%TO.P,,1*%
%TO.N,N/C*%
X105550000Y-116200000D03*
%TD*%
%TO.P,,1*%
%TO.N,N/C*%
X104180000Y-116200000D03*
%TD*%
%TO.P,,1*%
%TO.N,N/C*%
X101440000Y-116200000D03*
%TD*%
%TO.P,,1*%
%TO.N,N/C*%
X87740000Y-116200000D03*
%TD*%
%TO.P,,1*%
%TO.N,N/C*%
X109660000Y-116200000D03*
%TD*%
%TO.P,,1*%
%TO.N,N/C*%
X102810000Y-116200000D03*
%TD*%
%TO.P,,1*%
%TO.N,N/C*%
X98700000Y-116200000D03*
%TD*%
%TO.P,,1*%
%TO.N,N/C*%
X95960000Y-116200000D03*
%TD*%
%TO.P,,1*%
%TO.N,N/C*%
X85000000Y-116200000D03*
%TD*%
%TO.P,,1*%
%TO.N,N/C*%
X91850000Y-117570000D03*
%TD*%
%TO.P,,1*%
%TO.N,N/C*%
X90480000Y-117570000D03*
%TD*%
%TO.P,,1*%
%TO.N,N/C*%
X89110000Y-117570000D03*
%TD*%
%TO.P,,1*%
%TO.N,N/C*%
X87740000Y-117570000D03*
%TD*%
%TO.P,,1*%
%TO.N,N/C*%
X86370000Y-117570000D03*
%TD*%
%TO.P,,1*%
%TO.N,N/C*%
X83630000Y-117570000D03*
%TD*%
%TO.P,,1*%
%TO.N,N/C*%
X85000000Y-117570000D03*
%TD*%
%TO.P,,1*%
%TO.N,N/C*%
X112400000Y-116200000D03*
%TD*%
%TO.P,,1*%
%TO.N,N/C*%
X95930000Y-114810000D03*
%TD*%
%TO.P,,1*%
%TO.N,N/C*%
X94560000Y-114810000D03*
%TD*%
%TO.P,,1*%
%TO.N,N/C*%
X93190000Y-114810000D03*
%TD*%
%TO.P,,1*%
%TO.N,N/C*%
X91820000Y-114810000D03*
%TD*%
%TO.P,,1*%
%TO.N,N/C*%
X90450000Y-114810000D03*
%TD*%
%TO.P,,1*%
%TO.N,N/C*%
X89080000Y-114810000D03*
%TD*%
%TO.P,,1*%
%TO.N,N/C*%
X87710000Y-114810000D03*
%TD*%
%TO.P,,1*%
%TO.N,N/C*%
X86340000Y-114810000D03*
%TD*%
%TO.P,,1*%
%TO.N,N/C*%
X84970000Y-114810000D03*
%TD*%
%TO.P,,1*%
%TO.N,N/C*%
X83600000Y-114810000D03*
%TD*%
%TO.P,,1*%
%TO.N,N/C*%
X95930000Y-113440000D03*
%TD*%
%TO.P,,1*%
%TO.N,N/C*%
X94560000Y-113440000D03*
%TD*%
%TO.P,,1*%
%TO.N,N/C*%
X93190000Y-113440000D03*
%TD*%
%TO.P,,1*%
%TO.N,N/C*%
X91820000Y-113440000D03*
%TD*%
%TO.P,,1*%
%TO.N,N/C*%
X90450000Y-113440000D03*
%TD*%
%TO.P,,1*%
%TO.N,N/C*%
X89080000Y-113440000D03*
%TD*%
%TO.P,,1*%
%TO.N,N/C*%
X87710000Y-113440000D03*
%TD*%
%TO.P,,1*%
%TO.N,N/C*%
X86340000Y-113440000D03*
%TD*%
%TO.P,,1*%
%TO.N,N/C*%
X84970000Y-113440000D03*
%TD*%
%TO.P,,1*%
%TO.N,N/C*%
X83600000Y-113440000D03*
%TD*%
%TO.P,,1*%
%TO.N,N/C*%
X95930000Y-112070000D03*
%TD*%
%TO.P,,1*%
%TO.N,N/C*%
X94560000Y-112070000D03*
%TD*%
%TO.P,,1*%
%TO.N,N/C*%
X93190000Y-112070000D03*
%TD*%
%TO.P,,1*%
%TO.N,N/C*%
X91820000Y-112070000D03*
%TD*%
%TO.P,,1*%
%TO.N,N/C*%
X90450000Y-112070000D03*
%TD*%
%TO.P,,1*%
%TO.N,N/C*%
X89080000Y-112070000D03*
%TD*%
%TO.P,,1*%
%TO.N,N/C*%
X87710000Y-112070000D03*
%TD*%
%TO.P,,1*%
%TO.N,N/C*%
X86340000Y-112070000D03*
%TD*%
%TO.P,,1*%
%TO.N,N/C*%
X84970000Y-112070000D03*
%TD*%
%TO.P,,1*%
%TO.N,N/C*%
X83600000Y-112070000D03*
%TD*%
%TO.P,,1*%
%TO.N,N/C*%
X95930000Y-110700000D03*
%TD*%
%TO.P,,1*%
%TO.N,N/C*%
X94560000Y-110700000D03*
%TD*%
%TO.P,,1*%
%TO.N,N/C*%
X93190000Y-110700000D03*
%TD*%
%TO.P,,1*%
%TO.N,N/C*%
X91820000Y-110700000D03*
%TD*%
%TO.P,,1*%
%TO.N,N/C*%
X90450000Y-110700000D03*
%TD*%
%TO.P,,1*%
%TO.N,N/C*%
X89080000Y-110700000D03*
%TD*%
%TO.P,,1*%
%TO.N,N/C*%
X87710000Y-110700000D03*
%TD*%
%TO.P,,1*%
%TO.N,N/C*%
X86340000Y-110700000D03*
%TD*%
%TO.P,,1*%
%TO.N,N/C*%
X84970000Y-110700000D03*
%TD*%
%TO.P,,1*%
%TO.N,N/C*%
X83600000Y-110700000D03*
%TD*%
%TO.P,,1*%
%TO.N,N/C*%
X95930000Y-109330000D03*
%TD*%
%TO.P,,1*%
%TO.N,N/C*%
X94560000Y-109330000D03*
%TD*%
%TO.P,,1*%
%TO.N,N/C*%
X93190000Y-109330000D03*
%TD*%
%TO.P,,1*%
%TO.N,N/C*%
X91820000Y-109330000D03*
%TD*%
%TO.P,,1*%
%TO.N,N/C*%
X90450000Y-109330000D03*
%TD*%
%TO.P,,1*%
%TO.N,N/C*%
X89080000Y-109330000D03*
%TD*%
%TO.P,,1*%
%TO.N,N/C*%
X87710000Y-109330000D03*
%TD*%
%TO.P,,1*%
%TO.N,N/C*%
X86340000Y-109330000D03*
%TD*%
%TO.P,,1*%
%TO.N,N/C*%
X84970000Y-109330000D03*
%TD*%
%TO.P,,1*%
%TO.N,N/C*%
X83600000Y-109330000D03*
%TD*%
%TO.P,,1*%
%TO.N,N/C*%
X95930000Y-107960000D03*
%TD*%
%TO.P,,1*%
%TO.N,N/C*%
X94560000Y-107960000D03*
%TD*%
%TO.P,,1*%
%TO.N,N/C*%
X93190000Y-107960000D03*
%TD*%
%TO.P,,1*%
%TO.N,N/C*%
X91820000Y-107960000D03*
%TD*%
%TO.P,,1*%
%TO.N,N/C*%
X90450000Y-107960000D03*
%TD*%
%TO.P,,1*%
%TO.N,N/C*%
X89080000Y-107960000D03*
%TD*%
%TO.P,,1*%
%TO.N,N/C*%
X87710000Y-107960000D03*
%TD*%
%TO.P,,1*%
%TO.N,N/C*%
X86340000Y-107960000D03*
%TD*%
%TO.P,,1*%
%TO.N,N/C*%
X84970000Y-107960000D03*
%TD*%
%TO.P,,1*%
%TO.N,N/C*%
X83600000Y-107960000D03*
%TD*%
%TO.P,,1*%
%TO.N,N/C*%
X95930000Y-106590000D03*
%TD*%
%TO.P,,1*%
%TO.N,N/C*%
X94560000Y-106590000D03*
%TD*%
%TO.P,,1*%
%TO.N,N/C*%
X93190000Y-106590000D03*
%TD*%
%TO.P,,1*%
%TO.N,N/C*%
X91820000Y-106590000D03*
%TD*%
%TO.P,,1*%
%TO.N,N/C*%
X90450000Y-106590000D03*
%TD*%
%TO.P,,1*%
%TO.N,N/C*%
X89080000Y-106590000D03*
%TD*%
%TO.P,,1*%
%TO.N,N/C*%
X87710000Y-106590000D03*
%TD*%
%TO.P,,1*%
%TO.N,N/C*%
X86340000Y-106590000D03*
%TD*%
%TO.P,,1*%
%TO.N,N/C*%
X84970000Y-106590000D03*
%TD*%
%TO.P,,1*%
%TO.N,N/C*%
X83600000Y-106590000D03*
%TD*%
%TO.P,,1*%
%TO.N,N/C*%
X95930000Y-105220000D03*
%TD*%
%TO.P,,1*%
%TO.N,N/C*%
X94560000Y-105220000D03*
%TD*%
%TO.P,,1*%
%TO.N,N/C*%
X93190000Y-105220000D03*
%TD*%
%TO.P,,1*%
%TO.N,N/C*%
X91820000Y-105220000D03*
%TD*%
%TO.P,,1*%
%TO.N,N/C*%
X90450000Y-105220000D03*
%TD*%
%TO.P,,1*%
%TO.N,N/C*%
X89080000Y-105220000D03*
%TD*%
%TO.P,,1*%
%TO.N,N/C*%
X87710000Y-105220000D03*
%TD*%
%TO.P,,1*%
%TO.N,N/C*%
X86340000Y-105220000D03*
%TD*%
%TO.P,,1*%
%TO.N,N/C*%
X84970000Y-105220000D03*
%TD*%
%TO.P,,1*%
%TO.N,N/C*%
X83600000Y-105220000D03*
%TD*%
%TO.P,,1*%
%TO.N,N/C*%
X95930000Y-103850000D03*
%TD*%
%TO.P,,1*%
%TO.N,N/C*%
X94560000Y-103850000D03*
%TD*%
%TO.P,,1*%
%TO.N,N/C*%
X93190000Y-103850000D03*
%TD*%
%TO.P,,1*%
%TO.N,N/C*%
X91820000Y-103850000D03*
%TD*%
%TO.P,,1*%
%TO.N,N/C*%
X90450000Y-103850000D03*
%TD*%
%TO.P,,1*%
%TO.N,N/C*%
X89080000Y-103850000D03*
%TD*%
%TO.P,,1*%
%TO.N,N/C*%
X87710000Y-103850000D03*
%TD*%
%TO.P,,1*%
%TO.N,N/C*%
X86340000Y-103850000D03*
%TD*%
%TO.P,,1*%
%TO.N,N/C*%
X84970000Y-103850000D03*
%TD*%
%TO.P,,1*%
%TO.N,N/C*%
X83600000Y-103850000D03*
%TD*%
%TO.P,,1*%
%TO.N,N/C*%
X95930000Y-102480000D03*
%TD*%
%TO.P,,1*%
%TO.N,N/C*%
X94560000Y-102480000D03*
%TD*%
%TO.P,,1*%
%TO.N,N/C*%
X93190000Y-102480000D03*
%TD*%
%TO.P,,1*%
%TO.N,N/C*%
X91820000Y-102480000D03*
%TD*%
%TO.P,,1*%
%TO.N,N/C*%
X90450000Y-102480000D03*
%TD*%
%TO.P,,1*%
%TO.N,N/C*%
X89080000Y-102480000D03*
%TD*%
%TO.P,,1*%
%TO.N,N/C*%
X87710000Y-102480000D03*
%TD*%
%TO.P,,1*%
%TO.N,N/C*%
X86340000Y-102480000D03*
%TD*%
%TO.P,,1*%
%TO.N,N/C*%
X84970000Y-102480000D03*
%TD*%
%TO.P,,1*%
%TO.N,N/C*%
X83600000Y-102480000D03*
%TD*%
%TO.P,,1*%
%TO.N,N/C*%
X95930000Y-101110000D03*
%TD*%
%TO.P,,1*%
%TO.N,N/C*%
X94560000Y-101110000D03*
%TD*%
%TO.P,,1*%
%TO.N,N/C*%
X93190000Y-101110000D03*
%TD*%
%TO.P,,1*%
%TO.N,N/C*%
X91820000Y-101110000D03*
%TD*%
%TO.P,,1*%
%TO.N,N/C*%
X90450000Y-101110000D03*
%TD*%
%TO.P,,1*%
%TO.N,N/C*%
X89080000Y-101110000D03*
%TD*%
%TO.P,,1*%
%TO.N,N/C*%
X87710000Y-101110000D03*
%TD*%
%TO.P,,1*%
%TO.N,N/C*%
X86340000Y-101110000D03*
%TD*%
%TO.P,,1*%
%TO.N,N/C*%
X84970000Y-101110000D03*
%TD*%
%TO.P,,1*%
%TO.N,N/C*%
X83600000Y-101110000D03*
%TD*%
%TO.P,,1*%
%TO.N,N/C*%
X95930000Y-99740000D03*
%TD*%
%TO.P,,1*%
%TO.N,N/C*%
X94560000Y-99740000D03*
%TD*%
%TO.P,,1*%
%TO.N,N/C*%
X93190000Y-99740000D03*
%TD*%
%TO.P,,1*%
%TO.N,N/C*%
X91820000Y-99740000D03*
%TD*%
%TO.P,,1*%
%TO.N,N/C*%
X90450000Y-99740000D03*
%TD*%
%TO.P,,1*%
%TO.N,N/C*%
X89080000Y-99740000D03*
%TD*%
%TO.P,,1*%
%TO.N,N/C*%
X87710000Y-99740000D03*
%TD*%
%TO.P,,1*%
%TO.N,N/C*%
X86340000Y-99740000D03*
%TD*%
%TO.P,,1*%
%TO.N,N/C*%
X84970000Y-99740000D03*
%TD*%
%TO.P,,1*%
%TO.N,N/C*%
X83600000Y-99740000D03*
%TD*%
%TO.P,,1*%
%TO.N,N/C*%
X95930000Y-98370000D03*
%TD*%
%TO.P,,1*%
%TO.N,N/C*%
X94560000Y-98370000D03*
%TD*%
%TO.P,,1*%
%TO.N,N/C*%
X93190000Y-98370000D03*
%TD*%
%TO.P,,1*%
%TO.N,N/C*%
X91820000Y-98370000D03*
%TD*%
%TO.P,,1*%
%TO.N,N/C*%
X90450000Y-98370000D03*
%TD*%
%TO.P,,1*%
%TO.N,N/C*%
X89080000Y-98370000D03*
%TD*%
%TO.P,,1*%
%TO.N,N/C*%
X87710000Y-98370000D03*
%TD*%
%TO.P,,1*%
%TO.N,N/C*%
X86340000Y-98370000D03*
%TD*%
%TO.P,,1*%
%TO.N,N/C*%
X84970000Y-98370000D03*
%TD*%
%TO.P,,1*%
%TO.N,N/C*%
X83600000Y-98370000D03*
%TD*%
%TO.P,,1*%
%TO.N,N/C*%
X95930000Y-97000000D03*
%TD*%
%TO.P,,1*%
%TO.N,N/C*%
X94560000Y-97000000D03*
%TD*%
%TO.P,,1*%
%TO.N,N/C*%
X93190000Y-97000000D03*
%TD*%
%TO.P,,1*%
%TO.N,N/C*%
X91820000Y-97000000D03*
%TD*%
%TO.P,,1*%
%TO.N,N/C*%
X90450000Y-97000000D03*
%TD*%
%TO.P,,1*%
%TO.N,N/C*%
X89080000Y-97000000D03*
%TD*%
%TO.P,,1*%
%TO.N,N/C*%
X87710000Y-97000000D03*
%TD*%
%TO.P,,1*%
%TO.N,N/C*%
X86340000Y-97000000D03*
%TD*%
%TO.P,,1*%
%TO.N,N/C*%
X84970000Y-97000000D03*
%TD*%
%TO.P,,1*%
%TO.N,N/C*%
X83600000Y-97000000D03*
%TD*%
%TO.P,,1*%
%TO.N,N/C*%
X95930000Y-95630000D03*
%TD*%
%TO.P,,1*%
%TO.N,N/C*%
X94560000Y-95630000D03*
%TD*%
%TO.P,,1*%
%TO.N,N/C*%
X93190000Y-95630000D03*
%TD*%
%TO.P,,1*%
%TO.N,N/C*%
X91820000Y-95630000D03*
%TD*%
%TO.P,,1*%
%TO.N,N/C*%
X90450000Y-95630000D03*
%TD*%
%TO.P,,1*%
%TO.N,N/C*%
X89080000Y-95630000D03*
%TD*%
%TO.P,,1*%
%TO.N,N/C*%
X87710000Y-95630000D03*
%TD*%
%TO.P,,1*%
%TO.N,N/C*%
X86340000Y-95630000D03*
%TD*%
%TO.P,,1*%
%TO.N,N/C*%
X84970000Y-95630000D03*
%TD*%
%TO.P,,1*%
%TO.N,N/C*%
X83600000Y-95630000D03*
%TD*%
%TO.P,,1*%
%TO.N,N/C*%
X95930000Y-94260000D03*
%TD*%
%TO.P,,1*%
%TO.N,N/C*%
X94560000Y-94260000D03*
%TD*%
%TO.P,,1*%
%TO.N,N/C*%
X93190000Y-94260000D03*
%TD*%
%TO.P,,1*%
%TO.N,N/C*%
X91820000Y-94260000D03*
%TD*%
%TO.P,,1*%
%TO.N,N/C*%
X90450000Y-94260000D03*
%TD*%
%TO.P,,1*%
%TO.N,N/C*%
X89080000Y-94260000D03*
%TD*%
%TO.P,,1*%
%TO.N,N/C*%
X87710000Y-94260000D03*
%TD*%
%TO.P,,1*%
%TO.N,N/C*%
X86340000Y-94260000D03*
%TD*%
%TO.P,,1*%
%TO.N,N/C*%
X84970000Y-94260000D03*
%TD*%
%TO.P,,1*%
%TO.N,N/C*%
X83600000Y-94260000D03*
%TD*%
%TO.P,,1*%
%TO.N,N/C*%
X95930000Y-92890000D03*
%TD*%
%TO.P,,1*%
%TO.N,N/C*%
X94560000Y-92890000D03*
%TD*%
%TO.P,,1*%
%TO.N,N/C*%
X93190000Y-92890000D03*
%TD*%
%TO.P,,1*%
%TO.N,N/C*%
X91820000Y-92890000D03*
%TD*%
%TO.P,,1*%
%TO.N,N/C*%
X90450000Y-92890000D03*
%TD*%
%TO.P,,1*%
%TO.N,N/C*%
X89080000Y-92890000D03*
%TD*%
%TO.P,,1*%
%TO.N,N/C*%
X87710000Y-92890000D03*
%TD*%
%TO.P,,1*%
%TO.N,N/C*%
X86340000Y-92890000D03*
%TD*%
%TO.P,,1*%
%TO.N,N/C*%
X84970000Y-92890000D03*
%TD*%
%TO.P,,1*%
%TO.N,N/C*%
X83600000Y-92890000D03*
%TD*%
%TO.P,,1*%
%TO.N,N/C*%
X95930000Y-91520000D03*
%TD*%
%TO.P,,1*%
%TO.N,N/C*%
X94560000Y-91520000D03*
%TD*%
%TO.P,,1*%
%TO.N,N/C*%
X93190000Y-91520000D03*
%TD*%
%TO.P,,1*%
%TO.N,N/C*%
X91820000Y-91520000D03*
%TD*%
%TO.P,,1*%
%TO.N,N/C*%
X90450000Y-91520000D03*
%TD*%
%TO.P,,1*%
%TO.N,N/C*%
X89080000Y-91520000D03*
%TD*%
%TO.P,,1*%
%TO.N,N/C*%
X87710000Y-91520000D03*
%TD*%
%TO.P,,1*%
%TO.N,N/C*%
X86340000Y-91520000D03*
%TD*%
%TO.P,,1*%
%TO.N,N/C*%
X84970000Y-91520000D03*
%TD*%
%TO.P,,1*%
%TO.N,N/C*%
X83600000Y-91520000D03*
%TD*%
%TO.P,,1*%
%TO.N,N/C*%
X95930000Y-90150000D03*
%TD*%
%TO.P,,1*%
%TO.N,N/C*%
X94560000Y-90150000D03*
%TD*%
%TO.P,,1*%
%TO.N,N/C*%
X93190000Y-90150000D03*
%TD*%
%TO.P,,1*%
%TO.N,N/C*%
X91820000Y-90150000D03*
%TD*%
%TO.P,,1*%
%TO.N,N/C*%
X90450000Y-90150000D03*
%TD*%
%TO.P,,1*%
%TO.N,N/C*%
X89080000Y-90150000D03*
%TD*%
%TO.P,,1*%
%TO.N,N/C*%
X87710000Y-90150000D03*
%TD*%
%TO.P,,1*%
%TO.N,N/C*%
X86340000Y-90150000D03*
%TD*%
%TO.P,,1*%
%TO.N,N/C*%
X84970000Y-90150000D03*
%TD*%
%TO.P,,1*%
%TO.N,N/C*%
X83600000Y-90150000D03*
%TD*%
%TO.P,,1*%
%TO.N,N/C*%
X95930000Y-88780000D03*
%TD*%
%TO.P,,1*%
%TO.N,N/C*%
X94560000Y-88780000D03*
%TD*%
%TO.P,,1*%
%TO.N,N/C*%
X93190000Y-88780000D03*
%TD*%
%TO.P,,1*%
%TO.N,N/C*%
X91820000Y-88780000D03*
%TD*%
%TO.P,,1*%
%TO.N,N/C*%
X90450000Y-88780000D03*
%TD*%
%TO.P,,1*%
%TO.N,N/C*%
X89080000Y-88780000D03*
%TD*%
%TO.P,,1*%
%TO.N,N/C*%
X87710000Y-88780000D03*
%TD*%
%TO.P,,1*%
%TO.N,N/C*%
X86340000Y-88780000D03*
%TD*%
%TO.P,,1*%
%TO.N,N/C*%
X84970000Y-88780000D03*
%TD*%
%TO.P,,1*%
%TO.N,N/C*%
X83600000Y-88780000D03*
%TD*%
%TO.P,,1*%
%TO.N,N/C*%
X95930000Y-87410000D03*
%TD*%
%TO.P,,1*%
%TO.N,N/C*%
X94560000Y-87410000D03*
%TD*%
%TO.P,,1*%
%TO.N,N/C*%
X93190000Y-87410000D03*
%TD*%
%TO.P,,1*%
%TO.N,N/C*%
X91820000Y-87410000D03*
%TD*%
%TO.P,,1*%
%TO.N,N/C*%
X90450000Y-87410000D03*
%TD*%
%TO.P,,1*%
%TO.N,N/C*%
X89080000Y-87410000D03*
%TD*%
%TO.P,,1*%
%TO.N,N/C*%
X87710000Y-87410000D03*
%TD*%
%TO.P,,1*%
%TO.N,N/C*%
X86340000Y-87410000D03*
%TD*%
%TO.P,,1*%
%TO.N,N/C*%
X84970000Y-87410000D03*
%TD*%
%TO.P,,1*%
%TO.N,N/C*%
X83600000Y-87410000D03*
%TD*%
%TO.P,,1*%
%TO.N,N/C*%
X95930000Y-86040000D03*
%TD*%
%TO.P,,1*%
%TO.N,N/C*%
X94560000Y-86040000D03*
%TD*%
%TO.P,,1*%
%TO.N,N/C*%
X93190000Y-86040000D03*
%TD*%
%TO.P,,1*%
%TO.N,N/C*%
X91820000Y-86040000D03*
%TD*%
%TO.P,,1*%
%TO.N,N/C*%
X90450000Y-86040000D03*
%TD*%
%TO.P,,1*%
%TO.N,N/C*%
X89080000Y-86040000D03*
%TD*%
%TO.P,,1*%
%TO.N,N/C*%
X87710000Y-86040000D03*
%TD*%
%TO.P,,1*%
%TO.N,N/C*%
X86340000Y-86040000D03*
%TD*%
%TO.P,,1*%
%TO.N,N/C*%
X84970000Y-86040000D03*
%TD*%
%TO.P,,1*%
%TO.N,N/C*%
X83600000Y-86040000D03*
%TD*%
%TO.P,,1*%
%TO.N,N/C*%
X95930000Y-84670000D03*
%TD*%
%TO.P,,1*%
%TO.N,N/C*%
X94560000Y-84670000D03*
%TD*%
%TO.P,,1*%
%TO.N,N/C*%
X93190000Y-84670000D03*
%TD*%
%TO.P,,1*%
%TO.N,N/C*%
X91820000Y-84670000D03*
%TD*%
%TO.P,,1*%
%TO.N,N/C*%
X90450000Y-84670000D03*
%TD*%
%TO.P,,1*%
%TO.N,N/C*%
X89080000Y-84670000D03*
%TD*%
%TO.P,,1*%
%TO.N,N/C*%
X87710000Y-84670000D03*
%TD*%
%TO.P,,1*%
%TO.N,N/C*%
X86340000Y-84670000D03*
%TD*%
%TO.P,,1*%
%TO.N,N/C*%
X84970000Y-84670000D03*
%TD*%
%TO.P,,1*%
%TO.N,N/C*%
X83600000Y-84670000D03*
%TD*%
%TO.P,,1*%
%TO.N,N/C*%
X95930000Y-83300000D03*
%TD*%
%TO.P,,1*%
%TO.N,N/C*%
X94560000Y-83300000D03*
%TD*%
%TO.P,,1*%
%TO.N,N/C*%
X93190000Y-83300000D03*
%TD*%
%TO.P,,1*%
%TO.N,N/C*%
X91820000Y-83300000D03*
%TD*%
%TO.P,,1*%
%TO.N,N/C*%
X90450000Y-83300000D03*
%TD*%
%TO.P,,1*%
%TO.N,N/C*%
X89080000Y-83300000D03*
%TD*%
%TO.P,,1*%
%TO.N,N/C*%
X87710000Y-83300000D03*
%TD*%
%TO.P,,1*%
%TO.N,N/C*%
X86340000Y-83300000D03*
%TD*%
%TO.P,,1*%
%TO.N,N/C*%
X84970000Y-83300000D03*
%TD*%
%TO.P,,1*%
%TO.N,N/C*%
X83600000Y-83300000D03*
%TD*%
%TO.P,,1*%
%TO.N,N/C*%
X112387000Y-81931000D03*
%TD*%
%TO.P,,1*%
%TO.N,N/C*%
X111017000Y-81931000D03*
%TD*%
%TO.P,,1*%
%TO.N,N/C*%
X109647000Y-81931000D03*
%TD*%
%TO.P,,1*%
%TO.N,N/C*%
X108277000Y-81931000D03*
%TD*%
%TO.P,,1*%
%TO.N,N/C*%
X106907000Y-81931000D03*
%TD*%
%TO.P,,1*%
%TO.N,N/C*%
X105537000Y-81931000D03*
%TD*%
%TO.P,,1*%
%TO.N,N/C*%
X104167000Y-81931000D03*
%TD*%
%TO.P,,1*%
%TO.N,N/C*%
X102797000Y-81931000D03*
%TD*%
%TO.P,,1*%
%TO.N,N/C*%
X101427000Y-81931000D03*
%TD*%
%TO.P,,1*%
%TO.N,N/C*%
X100057000Y-81931000D03*
%TD*%
%TO.P,,1*%
%TO.N,N/C*%
X98687000Y-81931000D03*
%TD*%
%TO.P,,1*%
%TO.N,N/C*%
X97317000Y-81931000D03*
%TD*%
%TO.P,,1*%
%TO.N,N/C*%
X95947000Y-81931000D03*
%TD*%
%TO.P,,1*%
%TO.N,N/C*%
X94577000Y-81931000D03*
%TD*%
%TO.P,,1*%
%TO.N,N/C*%
X93207000Y-81931000D03*
%TD*%
%TO.P,,1*%
%TO.N,N/C*%
X91837000Y-81931000D03*
%TD*%
%TO.P,,1*%
%TO.N,N/C*%
X90467000Y-81931000D03*
%TD*%
%TO.P,,1*%
%TO.N,N/C*%
X89097000Y-81931000D03*
%TD*%
%TO.P,,1*%
%TO.N,N/C*%
X87727000Y-81931000D03*
%TD*%
%TO.P,,1*%
%TO.N,N/C*%
X86357000Y-81931000D03*
%TD*%
%TO.P,,1*%
%TO.N,N/C*%
X84987000Y-81931000D03*
%TD*%
%TO.P,,1*%
%TO.N,N/C*%
X83617000Y-81931000D03*
%TD*%
%TO.P,,1*%
%TO.N,N/C*%
X112387000Y-80561000D03*
%TD*%
%TO.P,,1*%
%TO.N,N/C*%
X111017000Y-80561000D03*
%TD*%
%TO.P,,1*%
%TO.N,N/C*%
X109647000Y-80561000D03*
%TD*%
%TO.P,,1*%
%TO.N,N/C*%
X108277000Y-80561000D03*
%TD*%
%TO.P,,1*%
%TO.N,N/C*%
X106907000Y-80561000D03*
%TD*%
%TO.P,,1*%
%TO.N,N/C*%
X105537000Y-80561000D03*
%TD*%
%TO.P,,1*%
%TO.N,N/C*%
X104167000Y-80561000D03*
%TD*%
%TO.P,,1*%
%TO.N,N/C*%
X102797000Y-80561000D03*
%TD*%
%TO.P,,1*%
%TO.N,N/C*%
X101427000Y-80561000D03*
%TD*%
%TO.P,,1*%
%TO.N,N/C*%
X100057000Y-80561000D03*
%TD*%
%TO.P,,1*%
%TO.N,N/C*%
X98687000Y-80561000D03*
%TD*%
%TO.P,,1*%
%TO.N,N/C*%
X97317000Y-80561000D03*
%TD*%
%TO.P,,1*%
%TO.N,N/C*%
X95947000Y-80561000D03*
%TD*%
%TO.P,,1*%
%TO.N,N/C*%
X94577000Y-80561000D03*
%TD*%
%TO.P,,1*%
%TO.N,N/C*%
X93207000Y-80561000D03*
%TD*%
%TO.P,,1*%
%TO.N,N/C*%
X91837000Y-80561000D03*
%TD*%
%TO.P,,1*%
%TO.N,N/C*%
X90467000Y-80561000D03*
%TD*%
%TO.P,,1*%
%TO.N,N/C*%
X89097000Y-80561000D03*
%TD*%
%TO.P,,1*%
%TO.N,N/C*%
X87727000Y-80561000D03*
%TD*%
%TO.P,,1*%
%TO.N,N/C*%
X86357000Y-80561000D03*
%TD*%
%TO.P,,1*%
%TO.N,N/C*%
X84987000Y-80561000D03*
%TD*%
%TO.P,,1*%
%TO.N,N/C*%
X83617000Y-80561000D03*
%TD*%
%TO.P,,1*%
%TO.N,N/C*%
X112387000Y-79191000D03*
%TD*%
%TO.P,,1*%
%TO.N,N/C*%
X111017000Y-79191000D03*
%TD*%
%TO.P,,1*%
%TO.N,N/C*%
X109647000Y-79191000D03*
%TD*%
%TO.P,,1*%
%TO.N,N/C*%
X108277000Y-79191000D03*
%TD*%
%TO.P,,1*%
%TO.N,N/C*%
X106907000Y-79191000D03*
%TD*%
%TO.P,,1*%
%TO.N,N/C*%
X105537000Y-79191000D03*
%TD*%
%TO.P,,1*%
%TO.N,N/C*%
X104167000Y-79191000D03*
%TD*%
%TO.P,,1*%
%TO.N,N/C*%
X102797000Y-79191000D03*
%TD*%
%TO.P,,1*%
%TO.N,N/C*%
X101427000Y-79191000D03*
%TD*%
%TO.P,,1*%
%TO.N,N/C*%
X100057000Y-79191000D03*
%TD*%
%TO.P,,1*%
%TO.N,N/C*%
X98687000Y-79191000D03*
%TD*%
%TO.P,,1*%
%TO.N,N/C*%
X97317000Y-79191000D03*
%TD*%
%TO.P,,1*%
%TO.N,N/C*%
X95947000Y-79191000D03*
%TD*%
%TO.P,,1*%
%TO.N,N/C*%
X94577000Y-79191000D03*
%TD*%
%TO.P,,1*%
%TO.N,N/C*%
X93207000Y-79191000D03*
%TD*%
%TO.P,,1*%
%TO.N,N/C*%
X91837000Y-79191000D03*
%TD*%
%TO.P,,1*%
%TO.N,N/C*%
X90467000Y-79191000D03*
%TD*%
%TO.P,,1*%
%TO.N,N/C*%
X89097000Y-79191000D03*
%TD*%
%TO.P,,1*%
%TO.N,N/C*%
X87727000Y-79191000D03*
%TD*%
%TO.P,,1*%
%TO.N,N/C*%
X86357000Y-79191000D03*
%TD*%
%TO.P,,1*%
%TO.N,N/C*%
X84987000Y-79191000D03*
%TD*%
%TO.P,,1*%
%TO.N,N/C*%
X83617000Y-79191000D03*
%TD*%
%TO.P,,1*%
%TO.N,N/C*%
X112387000Y-77821000D03*
%TD*%
%TO.P,,1*%
%TO.N,N/C*%
X111017000Y-77821000D03*
%TD*%
%TO.P,,1*%
%TO.N,N/C*%
X109647000Y-77821000D03*
%TD*%
%TO.P,,1*%
%TO.N,N/C*%
X108277000Y-77821000D03*
%TD*%
%TO.P,,1*%
%TO.N,N/C*%
X106907000Y-77821000D03*
%TD*%
%TO.P,,1*%
%TO.N,N/C*%
X105537000Y-77821000D03*
%TD*%
%TO.P,,1*%
%TO.N,N/C*%
X104167000Y-77821000D03*
%TD*%
%TO.P,,1*%
%TO.N,N/C*%
X102797000Y-77821000D03*
%TD*%
%TO.P,,1*%
%TO.N,N/C*%
X101427000Y-77821000D03*
%TD*%
%TO.P,,1*%
%TO.N,N/C*%
X100057000Y-77821000D03*
%TD*%
%TO.P,,1*%
%TO.N,N/C*%
X98687000Y-77821000D03*
%TD*%
%TO.P,,1*%
%TO.N,N/C*%
X97317000Y-77821000D03*
%TD*%
%TO.P,,1*%
%TO.N,N/C*%
X95947000Y-77821000D03*
%TD*%
%TO.P,,1*%
%TO.N,N/C*%
X94577000Y-77821000D03*
%TD*%
%TO.P,,1*%
%TO.N,N/C*%
X93207000Y-77821000D03*
%TD*%
%TO.P,,1*%
%TO.N,N/C*%
X91837000Y-77821000D03*
%TD*%
%TO.P,,1*%
%TO.N,N/C*%
X90467000Y-77821000D03*
%TD*%
%TO.P,,1*%
%TO.N,N/C*%
X89097000Y-77821000D03*
%TD*%
%TO.P,,1*%
%TO.N,N/C*%
X87727000Y-77821000D03*
%TD*%
%TO.P,,1*%
%TO.N,N/C*%
X86357000Y-77821000D03*
%TD*%
%TO.P,,1*%
%TO.N,N/C*%
X84987000Y-77821000D03*
%TD*%
%TO.P,,1*%
%TO.N,N/C*%
X83617000Y-77821000D03*
%TD*%
%TO.P,,1*%
%TO.N,N/C*%
X112387000Y-76451000D03*
%TD*%
%TO.P,,1*%
%TO.N,N/C*%
X111017000Y-76451000D03*
%TD*%
%TO.P,,1*%
%TO.N,N/C*%
X109647000Y-76451000D03*
%TD*%
%TO.P,,1*%
%TO.N,N/C*%
X108277000Y-76451000D03*
%TD*%
%TO.P,,1*%
%TO.N,N/C*%
X106907000Y-76451000D03*
%TD*%
%TO.P,,1*%
%TO.N,N/C*%
X105537000Y-76451000D03*
%TD*%
%TO.P,,1*%
%TO.N,N/C*%
X104167000Y-76451000D03*
%TD*%
%TO.P,,1*%
%TO.N,N/C*%
X102797000Y-76451000D03*
%TD*%
%TO.P,,1*%
%TO.N,N/C*%
X101427000Y-76451000D03*
%TD*%
%TO.P,,1*%
%TO.N,N/C*%
X100057000Y-76451000D03*
%TD*%
%TO.P,,1*%
%TO.N,N/C*%
X98687000Y-76451000D03*
%TD*%
%TO.P,,1*%
%TO.N,N/C*%
X97317000Y-76451000D03*
%TD*%
%TO.P,,1*%
%TO.N,N/C*%
X95947000Y-76451000D03*
%TD*%
%TO.P,,1*%
%TO.N,N/C*%
X94577000Y-76451000D03*
%TD*%
%TO.P,,1*%
%TO.N,N/C*%
X93207000Y-76451000D03*
%TD*%
%TO.P,,1*%
%TO.N,N/C*%
X91837000Y-76451000D03*
%TD*%
%TO.P,,1*%
%TO.N,N/C*%
X90467000Y-76451000D03*
%TD*%
%TO.P,,1*%
%TO.N,N/C*%
X89097000Y-76451000D03*
%TD*%
%TO.P,,1*%
%TO.N,N/C*%
X87727000Y-76451000D03*
%TD*%
%TO.P,,1*%
%TO.N,N/C*%
X86357000Y-76451000D03*
%TD*%
%TO.P,,1*%
%TO.N,N/C*%
X84987000Y-76451000D03*
%TD*%
%TO.P,,1*%
%TO.N,N/C*%
X83617000Y-76451000D03*
%TD*%
%TO.P,,1*%
%TO.N,N/C*%
X112387000Y-75081000D03*
%TD*%
%TO.P,,1*%
%TO.N,N/C*%
X111017000Y-75081000D03*
%TD*%
%TO.P,,1*%
%TO.N,N/C*%
X109647000Y-75081000D03*
%TD*%
%TO.P,,1*%
%TO.N,N/C*%
X108277000Y-75081000D03*
%TD*%
%TO.P,,1*%
%TO.N,N/C*%
X106907000Y-75081000D03*
%TD*%
%TO.P,,1*%
%TO.N,N/C*%
X105537000Y-75081000D03*
%TD*%
%TO.P,,1*%
%TO.N,N/C*%
X104167000Y-75081000D03*
%TD*%
%TO.P,,1*%
%TO.N,N/C*%
X102797000Y-75081000D03*
%TD*%
%TO.P,,1*%
%TO.N,N/C*%
X101427000Y-75081000D03*
%TD*%
%TO.P,,1*%
%TO.N,N/C*%
X100057000Y-75081000D03*
%TD*%
%TO.P,,1*%
%TO.N,N/C*%
X98687000Y-75081000D03*
%TD*%
%TO.P,,1*%
%TO.N,N/C*%
X97317000Y-75081000D03*
%TD*%
%TO.P,,1*%
%TO.N,N/C*%
X95947000Y-75081000D03*
%TD*%
%TO.P,,1*%
%TO.N,N/C*%
X94577000Y-75081000D03*
%TD*%
%TO.P,,1*%
%TO.N,N/C*%
X93207000Y-75081000D03*
%TD*%
%TO.P,,1*%
%TO.N,N/C*%
X91837000Y-75081000D03*
%TD*%
%TO.P,,1*%
%TO.N,N/C*%
X90467000Y-75081000D03*
%TD*%
%TO.P,,1*%
%TO.N,N/C*%
X89097000Y-75081000D03*
%TD*%
%TO.P,,1*%
%TO.N,N/C*%
X87727000Y-75081000D03*
%TD*%
%TO.P,,1*%
%TO.N,N/C*%
X86357000Y-75081000D03*
%TD*%
%TO.P,,1*%
%TO.N,N/C*%
X84987000Y-75081000D03*
%TD*%
%TO.P,,1*%
%TO.N,N/C*%
X83617000Y-75081000D03*
%TD*%
%TO.P,,1*%
%TO.N,N/C*%
X112387000Y-73711000D03*
%TD*%
%TO.P,,1*%
%TO.N,N/C*%
X111017000Y-73711000D03*
%TD*%
%TO.P,,1*%
%TO.N,N/C*%
X109647000Y-73711000D03*
%TD*%
%TO.P,,1*%
%TO.N,N/C*%
X108277000Y-73711000D03*
%TD*%
%TO.P,,1*%
%TO.N,N/C*%
X106907000Y-73711000D03*
%TD*%
%TO.P,,1*%
%TO.N,N/C*%
X105537000Y-73711000D03*
%TD*%
%TO.P,,1*%
%TO.N,N/C*%
X104167000Y-73711000D03*
%TD*%
%TO.P,,1*%
%TO.N,N/C*%
X102797000Y-73711000D03*
%TD*%
%TO.P,,1*%
%TO.N,N/C*%
X101427000Y-73711000D03*
%TD*%
%TO.P,,1*%
%TO.N,N/C*%
X100057000Y-73711000D03*
%TD*%
%TO.P,,1*%
%TO.N,N/C*%
X98687000Y-73711000D03*
%TD*%
%TO.P,,1*%
%TO.N,N/C*%
X97317000Y-73711000D03*
%TD*%
%TO.P,,1*%
%TO.N,N/C*%
X95947000Y-73711000D03*
%TD*%
%TO.P,,1*%
%TO.N,N/C*%
X94577000Y-73711000D03*
%TD*%
%TO.P,,1*%
%TO.N,N/C*%
X93207000Y-73711000D03*
%TD*%
%TO.P,,1*%
%TO.N,N/C*%
X91837000Y-73711000D03*
%TD*%
%TO.P,,1*%
%TO.N,N/C*%
X90467000Y-73711000D03*
%TD*%
%TO.P,,1*%
%TO.N,N/C*%
X89097000Y-73711000D03*
%TD*%
%TO.P,,1*%
%TO.N,N/C*%
X87727000Y-73711000D03*
%TD*%
%TO.P,,1*%
%TO.N,N/C*%
X86357000Y-73711000D03*
%TD*%
%TO.P,,1*%
%TO.N,N/C*%
X84987000Y-73711000D03*
%TD*%
%TO.P,,1*%
%TO.N,N/C*%
X83617000Y-73711000D03*
%TD*%
D11*
%TO.P,U1,2,5V*%
%TO.N,+5V*%
X116485000Y-111380000D03*
%TO.P,U1,4,5V*%
X116485000Y-110580000D03*
%TO.P,U1,6,5V*%
X116485000Y-109780000D03*
%TO.P,U1,8,5V*%
X116485000Y-108980000D03*
%TO.P,U1,10,5V*%
X116485000Y-108180000D03*
%TO.P,U1,12,GND*%
%TO.N,GND*%
X116485000Y-107380000D03*
%TO.P,U1,14,SPK_RP*%
%TO.N,/SPEAKER_RP*%
X116485000Y-106580000D03*
%TO.P,U1,16,SPK_RN*%
%TO.N,/SPEAKER_RN*%
X116485000Y-105780000D03*
%TO.P,U1,18,GPIO28*%
%TO.N,/GPIO28*%
X116485000Y-101780000D03*
%TO.P,U1,20,GPIO29*%
%TO.N,/GPIO29*%
X116485000Y-100980000D03*
%TO.P,U1,22,GPIO30*%
%TO.N,/GPIO30*%
X116485000Y-100180000D03*
%TO.P,U1,24,GPIO31*%
%TO.N,/GPIO31*%
X116485000Y-99380000D03*
%TO.P,U1,26,GPIO32*%
%TO.N,/GPIO32*%
X116485000Y-98580000D03*
%TO.P,U1,28,GPIO33*%
%TO.N,/GPIO33*%
X116485000Y-97780000D03*
%TO.P,U1,30,GPIO34*%
%TO.N,/GPIO34*%
X116485000Y-96980000D03*
%TO.P,U1,32,GPIO35*%
%TO.N,/GPIO35*%
X116485000Y-96180000D03*
%TO.P,U1,34,GPIO36*%
%TO.N,/GPIO36*%
X116485000Y-95380000D03*
%TO.P,U1,36,GPIO37*%
%TO.N,/GPIO37*%
X116485000Y-94580000D03*
%TO.P,U1,38,GPIO38*%
%TO.N,/GPIO38*%
X116485000Y-93780000D03*
%TO.P,U1,40,GPIO39*%
%TO.N,/GPIO39*%
X116485000Y-92980000D03*
%TO.P,U1,42,GPIO40*%
%TO.N,/GPIO40*%
X116485000Y-92180000D03*
%TO.P,U1,44,GPIO41*%
%TO.N,/GPIO41*%
X116485000Y-91380000D03*
%TO.P,U1,46,GPIO42*%
%TO.N,/GPIO42*%
X116485000Y-90580000D03*
%TO.P,U1,48,GPIO43*%
%TO.N,/GPIO43*%
X116485000Y-89780000D03*
%TO.P,U1,50,GPIO44*%
%TO.N,/GPIO44*%
X116485000Y-88980000D03*
%TO.P,U1,52,GPIO45*%
%TO.N,/GPIO45*%
X116485000Y-88180000D03*
%TD*%
D12*
%TO.P,U3,1,P1*%
%TO.N,/SPEAKER_LP*%
X109965000Y-131000000D03*
%TO.P,U3,2,N1*%
%TO.N,/SPEAKER_LN*%
X109965000Y-134000000D03*
%TO.P,U3,3,P2*%
%TO.N,/SPEAKER_LP*%
X95195000Y-134000000D03*
%TO.P,U3,4,N2*%
%TO.N,/SPEAKER_LN*%
X95195000Y-131000000D03*
%TD*%
%TO.P,U2,1,P1*%
%TO.N,/SPEAKER_RP*%
X109965000Y-66000000D03*
%TO.P,U2,2,N1*%
%TO.N,/SPEAKER_RN*%
X109965000Y-69000000D03*
%TO.P,U2,3,P2*%
%TO.N,/SPEAKER_RP*%
X95195000Y-69000000D03*
%TO.P,U2,4,N2*%
%TO.N,/SPEAKER_RN*%
X95195000Y-66000000D03*
%TD*%
D10*
%TO.P,,1*%
%TO.N,N/C*%
X83600000Y-116200000D03*
%TD*%
D13*
%TO.N,/SPEAKER_LP*%
X113159620Y-112494380D03*
%TO.N,/SPEAKER_LN*%
X111981963Y-112235963D03*
%TO.N,+5V*%
X103656998Y-110820998D03*
X104457002Y-111746999D03*
X102857001Y-110148001D03*
X102056996Y-109348002D03*
X101261157Y-108424901D03*
%TO.N,GND*%
X100568601Y-107774616D03*
%TO.N,/GPIO28*%
X112446000Y-104572000D03*
%TO.N,/GPIO29*%
X111684000Y-100888990D03*
%TO.N,/GPIO30*%
X110795000Y-100127002D03*
%TO.N,/GPIO31*%
X110082749Y-99261501D03*
%TO.N,/GPIO32*%
X109270999Y-98475999D03*
%TO.N,/GPIO33*%
X108446400Y-97710197D03*
%TO.N,/GPIO34*%
X107705664Y-96999917D03*
%TO.N,/GPIO35*%
X106858000Y-96189998D03*
%TO.N,/GPIO36*%
X106096000Y-95428000D03*
%TO.N,/GPIO37*%
X105276442Y-94730658D03*
%TO.N,/GPIO38*%
X104445004Y-93777000D03*
%TO.N,/GPIO39*%
X103646247Y-93105247D03*
%TO.N,/GPIO40*%
X102794000Y-92253000D03*
%TO.N,/GPIO41*%
X102032000Y-91491000D03*
%TO.N,/GPIO42*%
X101270000Y-90602000D03*
%TO.N,/GPIO43*%
X100508000Y-89967000D03*
%TO.N,/GPIO44*%
X99876193Y-89175492D03*
%TO.N,/GPIO45*%
X99132000Y-88585000D03*
%TO.N,/SPEAKER_RN*%
X99238000Y-105842000D03*
%TO.N,/SPEAKER_RP*%
X99873000Y-106858000D03*
%TD*%
D14*
%TO.N,/SPEAKER_LN*%
X110720026Y-129750000D02*
X109500966Y-129750000D01*
X113300000Y-113554000D02*
X113300000Y-127170026D01*
X113300000Y-127170026D02*
X110720026Y-129750000D01*
X109500966Y-129750000D02*
X109215000Y-130035966D01*
X111981963Y-112235963D02*
X113300000Y-113554000D01*
X109215000Y-130035966D02*
X109215000Y-133250000D01*
X109215000Y-133250000D02*
X109965000Y-134000000D01*
%TO.N,/SPEAKER_LP*%
X113700000Y-113034760D02*
X113462000Y-112796760D01*
X109965000Y-131000000D02*
X113700000Y-127265000D01*
X113700000Y-127265000D02*
X113700000Y-113034760D01*
%TO.N,/SPEAKER_RP*%
X98870026Y-106858000D02*
X99873000Y-106858000D01*
X97745000Y-83500000D02*
X97745000Y-105732974D01*
X113335000Y-83500000D02*
X97745000Y-83500000D01*
X110827000Y-70250000D02*
X113335000Y-72758000D01*
X109215000Y-69964034D02*
X109500966Y-70250000D01*
X113335000Y-72758000D02*
X113335000Y-83500000D01*
X109215000Y-66750000D02*
X109215000Y-69964034D01*
X109965000Y-66000000D02*
X109215000Y-66750000D01*
X109500966Y-70250000D02*
X110827000Y-70250000D01*
%TO.N,/SPEAKER_RN*%
X113716000Y-72187000D02*
X110529000Y-69000000D01*
X113685000Y-83013000D02*
X113716000Y-82982000D01*
X98095000Y-83850000D02*
X113479975Y-83850000D01*
X98095000Y-105588000D02*
X98095000Y-83850000D01*
X113479975Y-83850000D02*
X113685000Y-83644975D01*
X113685000Y-83644975D02*
X113685000Y-83013000D01*
X113716000Y-82982000D02*
X113716000Y-72187000D01*
X99238000Y-105842000D02*
X98349000Y-105842000D01*
%TO.N,/SPEAKER_RP*%
X97745000Y-105732974D02*
X98870026Y-106858000D01*
%TO.N,/SPEAKER_RN*%
X98349000Y-105842000D02*
X98095000Y-105588000D01*
X110529000Y-69000000D02*
X109965000Y-69000000D01*
%TO.N,/SPEAKER_LP*%
X96445000Y-135250000D02*
X95195000Y-134000000D01*
X110715000Y-131750000D02*
X110715000Y-135005000D01*
X110715000Y-135005000D02*
X110470000Y-135250000D01*
X110470000Y-135250000D02*
X96445000Y-135250000D01*
X109965000Y-131000000D02*
X110715000Y-131750000D01*
%TO.N,/SPEAKER_LN*%
X109965000Y-134000000D02*
X106965000Y-131000000D01*
X106965000Y-131000000D02*
X95195000Y-131000000D01*
D15*
%TO.N,+5V*%
X116485000Y-111380000D02*
X104824001Y-111380000D01*
X116485000Y-108180000D02*
X101506058Y-108180000D01*
X104824001Y-111380000D02*
X104457002Y-111746999D01*
X116485000Y-110580000D02*
X103897996Y-110580000D01*
X103897996Y-110580000D02*
X103656998Y-110820998D01*
X101506058Y-108180000D02*
X101261157Y-108424901D01*
X116485000Y-108980000D02*
X102424998Y-108980000D01*
X116485000Y-109780000D02*
X103225002Y-109780000D01*
X102424998Y-108980000D02*
X102056996Y-109348002D01*
X103225002Y-109780000D02*
X102857001Y-110148001D01*
D16*
%TO.N,GND*%
X116485000Y-107380000D02*
X100963217Y-107380000D01*
X100963217Y-107380000D02*
X100568601Y-107774616D01*
%TO.N,/GPIO28*%
X115238000Y-101780000D02*
X112446000Y-104572000D01*
X116485000Y-101780000D02*
X115238000Y-101780000D01*
%TO.N,/GPIO29*%
X111775010Y-100980000D02*
X111684000Y-100888990D01*
X116485000Y-100980000D02*
X111775010Y-100980000D01*
%TO.N,/GPIO30*%
X116485000Y-100180000D02*
X110847998Y-100180000D01*
X110847998Y-100180000D02*
X110795000Y-100127002D01*
%TO.N,/GPIO31*%
X116485000Y-99380000D02*
X110201248Y-99380000D01*
X110201248Y-99380000D02*
X110082749Y-99261501D01*
%TO.N,/GPIO32*%
X116485000Y-98580000D02*
X109375000Y-98580000D01*
X109375000Y-98580000D02*
X109270999Y-98475999D01*
%TO.N,/GPIO33*%
X116485000Y-97780000D02*
X108516203Y-97780000D01*
X108516203Y-97780000D02*
X108446400Y-97710197D01*
%TO.N,/GPIO34*%
X107725581Y-96980000D02*
X107705664Y-96999917D01*
X116485000Y-96980000D02*
X107725581Y-96980000D01*
%TO.N,/GPIO35*%
X106867998Y-96180000D02*
X106858000Y-96189998D01*
X116485000Y-96180000D02*
X106867998Y-96180000D01*
%TO.N,/GPIO36*%
X116485000Y-95380000D02*
X106144000Y-95380000D01*
X106144000Y-95380000D02*
X106096000Y-95428000D01*
%TO.N,/GPIO37*%
X116485000Y-94580000D02*
X105427100Y-94580000D01*
X105427100Y-94580000D02*
X105276442Y-94730658D01*
%TO.N,/GPIO38*%
X104448004Y-93780000D02*
X104445004Y-93777000D01*
X116485000Y-93780000D02*
X104448004Y-93780000D01*
%TO.N,/GPIO39*%
X116485000Y-92980000D02*
X103771494Y-92980000D01*
X103771494Y-92980000D02*
X103646247Y-93105247D01*
%TO.N,/GPIO40*%
X102867000Y-92180000D02*
X102794000Y-92253000D01*
X116485000Y-92180000D02*
X102867000Y-92180000D01*
%TO.N,/GPIO41*%
X116485000Y-91380000D02*
X102143000Y-91380000D01*
X102143000Y-91380000D02*
X102032000Y-91491000D01*
%TO.N,/GPIO42*%
X101292000Y-90580000D02*
X101270000Y-90602000D01*
X116485000Y-90580000D02*
X101292000Y-90580000D01*
%TO.N,/GPIO43*%
X100695000Y-89780000D02*
X100508000Y-89967000D01*
X116485000Y-89780000D02*
X100695000Y-89780000D01*
%TO.N,/GPIO44*%
X100071685Y-88980000D02*
X99876193Y-89175492D01*
X116485000Y-88980000D02*
X100071685Y-88980000D01*
%TO.N,/GPIO45*%
X99537000Y-88180000D02*
X99132000Y-88585000D01*
X116485000Y-88180000D02*
X99537000Y-88180000D01*
D14*
%TO.N,/SPEAKER_RN*%
X110470000Y-64750000D02*
X96445000Y-64750000D01*
X110715000Y-68250000D02*
X110715000Y-64995000D01*
D16*
X99300000Y-105780000D02*
X99238000Y-105842000D01*
D14*
X109965000Y-69000000D02*
X110715000Y-68250000D01*
X96445000Y-64750000D02*
X95195000Y-66000000D01*
X110715000Y-64995000D02*
X110470000Y-64750000D01*
D16*
X116485000Y-105780000D02*
X99300000Y-105780000D01*
D14*
%TO.N,/SPEAKER_RP*%
X106965000Y-69000000D02*
X95195000Y-69000000D01*
X116485000Y-106580000D02*
X100151000Y-106580000D01*
X100151000Y-106580000D02*
X99873000Y-106858000D01*
X109965000Y-66000000D02*
X106965000Y-69000000D01*
%TD*%
M02*
