%TF.GenerationSoftware,KiCad,Pcbnew,8.0.4*%
%TF.CreationDate,2025-01-31T00:42:41+01:00*%
%TF.ProjectId,uconsole-expansion-card-template,75636f6e-736f-46c6-952d-657870616e73,0.1*%
%TF.SameCoordinates,Original*%
%TF.FileFunction,Drillmap*%
%TF.FilePolarity,Positive*%
%FSLAX45Y45*%
G04 Gerber Fmt 4.5, Leading zero omitted, Abs format (unit mm)*
G04 Created by KiCad (PCBNEW 8.0.4) date 2025-01-31 00:42:41*
%MOMM*%
%LPD*%
G01*
G04 APERTURE LIST*
%ADD10C,0.200000*%
%ADD11C,0.100000*%
G04 APERTURE END LIST*
D10*
X11688500Y-8715000D02*
G75*
G02*
X11788500Y-8815000I0J-100000D01*
G01*
X8361500Y-6150000D02*
X11261500Y-6150000D01*
X8361500Y-13850000D02*
G75*
G02*
X8211500Y-13700000I0J150000D01*
G01*
X11788500Y-11185000D02*
G75*
G02*
X11688500Y-11285000I-100000J0D01*
G01*
X11688500Y-11285000D02*
X11461500Y-11285000D01*
X11411500Y-6300000D02*
X11411500Y-8665000D01*
X11411500Y-11335000D02*
X11411500Y-13700000D01*
X11788500Y-8815000D02*
X11788500Y-10258000D01*
X11261500Y-13850000D02*
X8361500Y-13850000D01*
X8211500Y-13700000D02*
X8211500Y-6300000D01*
X11788500Y-10258000D02*
G75*
G02*
X11738500Y-10308000I-50000J0D01*
G01*
X11488500Y-10458000D02*
G75*
G02*
X11488500Y-10308000I0J75000D01*
G01*
X11411500Y-11335000D02*
G75*
G02*
X11461500Y-11285000I50000J0D01*
G01*
X11488500Y-10308000D02*
X11738500Y-10308000D01*
X11738500Y-10458000D02*
G75*
G02*
X11788500Y-10508000I0J-50000D01*
G01*
X11411500Y-13700000D02*
G75*
G02*
X11261500Y-13850000I-150000J0D01*
G01*
X11788500Y-10508000D02*
X11788500Y-11185000D01*
X11461500Y-8715000D02*
G75*
G02*
X11411500Y-8665000I0J50000D01*
G01*
X11461500Y-8715000D02*
X11688500Y-8715000D01*
X11738500Y-10458000D02*
X11488500Y-10458000D01*
X11261500Y-6150000D02*
G75*
G02*
X11411500Y-6300000I0J-150000D01*
G01*
X8211500Y-6300000D02*
G75*
G02*
X8361500Y-6150000I150000J0D01*
G01*
D11*
X9893200Y-8838500D02*
X9933200Y-8878500D01*
X9933200Y-8838500D02*
X9893200Y-8878500D01*
X9903800Y-10564200D02*
X9943800Y-10604200D01*
X9943800Y-10564200D02*
X9903800Y-10604200D01*
X9967300Y-10665800D02*
X10007300Y-10705800D01*
X10007300Y-10665800D02*
X9967300Y-10705800D01*
X9967619Y-8897549D02*
X10007619Y-8937549D01*
X10007619Y-8897549D02*
X9967619Y-8937549D01*
X10030800Y-8976700D02*
X10070800Y-9016700D01*
X10070800Y-8976700D02*
X10030800Y-9016700D01*
X10036860Y-10757462D02*
X10076860Y-10797462D01*
X10076860Y-10757462D02*
X10036860Y-10797462D01*
X10106116Y-10822490D02*
X10146116Y-10862490D01*
X10146116Y-10822490D02*
X10106116Y-10862490D01*
X10107000Y-9040200D02*
X10147000Y-9080200D01*
X10147000Y-9040200D02*
X10107000Y-9080200D01*
X10183200Y-9129100D02*
X10223200Y-9169100D01*
X10223200Y-9129100D02*
X10183200Y-9169100D01*
X10185700Y-10914800D02*
X10225700Y-10954800D01*
X10225700Y-10914800D02*
X10185700Y-10954800D01*
X10259400Y-9205300D02*
X10299400Y-9245300D01*
X10299400Y-9205300D02*
X10259400Y-9245300D01*
X10265700Y-10994800D02*
X10305700Y-11034800D01*
X10305700Y-10994800D02*
X10265700Y-11034800D01*
X10344625Y-9290525D02*
X10384625Y-9330525D01*
X10384625Y-9290525D02*
X10344625Y-9330525D01*
X10345700Y-11062100D02*
X10385700Y-11102100D01*
X10385700Y-11062100D02*
X10345700Y-11102100D01*
X10424500Y-9357700D02*
X10464500Y-9397700D01*
X10464500Y-9357700D02*
X10424500Y-9397700D01*
X10425700Y-11154700D02*
X10465700Y-11194700D01*
X10465700Y-11154700D02*
X10425700Y-11194700D01*
X10507644Y-9453066D02*
X10547644Y-9493066D01*
X10547644Y-9453066D02*
X10507644Y-9493066D01*
X10589600Y-9522800D02*
X10629600Y-9562800D01*
X10629600Y-9522800D02*
X10589600Y-9562800D01*
X10665800Y-9599000D02*
X10705800Y-9639000D01*
X10705800Y-9599000D02*
X10665800Y-9639000D01*
X10750566Y-9679992D02*
X10790566Y-9719992D01*
X10790566Y-9679992D02*
X10750566Y-9719992D01*
X10824640Y-9751020D02*
X10864640Y-9791020D01*
X10864640Y-9751020D02*
X10824640Y-9791020D01*
X10907100Y-9827600D02*
X10947100Y-9867600D01*
X10947100Y-9827600D02*
X10907100Y-9867600D01*
X10988275Y-9906150D02*
X11028275Y-9946150D01*
X11028275Y-9906150D02*
X10988275Y-9946150D01*
X11059500Y-9992700D02*
X11099500Y-10032700D01*
X11099500Y-9992700D02*
X11059500Y-10032700D01*
X11148400Y-10068899D02*
X11188400Y-10108899D01*
X11188400Y-10068899D02*
X11148400Y-10108899D01*
X11178196Y-11203596D02*
X11218196Y-11243596D01*
X11218196Y-11203596D02*
X11178196Y-11243596D01*
X11224600Y-10437200D02*
X11264600Y-10477200D01*
X11264600Y-10437200D02*
X11224600Y-10477200D01*
X11295962Y-11229438D02*
X11335962Y-11269438D01*
X11335962Y-11229438D02*
X11295962Y-11269438D01*
X8392500Y-8330000D02*
G75*
G02*
X8327500Y-8330000I-32500J0D01*
G01*
X8327500Y-8330000D02*
G75*
G02*
X8392500Y-8330000I32500J0D01*
G01*
X8392500Y-8467000D02*
G75*
G02*
X8327500Y-8467000I-32500J0D01*
G01*
X8327500Y-8467000D02*
G75*
G02*
X8392500Y-8467000I32500J0D01*
G01*
X8392500Y-8604000D02*
G75*
G02*
X8327500Y-8604000I-32500J0D01*
G01*
X8327500Y-8604000D02*
G75*
G02*
X8392500Y-8604000I32500J0D01*
G01*
X8392500Y-8741000D02*
G75*
G02*
X8327500Y-8741000I-32500J0D01*
G01*
X8327500Y-8741000D02*
G75*
G02*
X8392500Y-8741000I32500J0D01*
G01*
X8392500Y-8878000D02*
G75*
G02*
X8327500Y-8878000I-32500J0D01*
G01*
X8327500Y-8878000D02*
G75*
G02*
X8392500Y-8878000I32500J0D01*
G01*
X8392500Y-9015000D02*
G75*
G02*
X8327500Y-9015000I-32500J0D01*
G01*
X8327500Y-9015000D02*
G75*
G02*
X8392500Y-9015000I32500J0D01*
G01*
X8392500Y-9152000D02*
G75*
G02*
X8327500Y-9152000I-32500J0D01*
G01*
X8327500Y-9152000D02*
G75*
G02*
X8392500Y-9152000I32500J0D01*
G01*
X8392500Y-9289000D02*
G75*
G02*
X8327500Y-9289000I-32500J0D01*
G01*
X8327500Y-9289000D02*
G75*
G02*
X8392500Y-9289000I32500J0D01*
G01*
X8392500Y-9426000D02*
G75*
G02*
X8327500Y-9426000I-32500J0D01*
G01*
X8327500Y-9426000D02*
G75*
G02*
X8392500Y-9426000I32500J0D01*
G01*
X8392500Y-9563000D02*
G75*
G02*
X8327500Y-9563000I-32500J0D01*
G01*
X8327500Y-9563000D02*
G75*
G02*
X8392500Y-9563000I32500J0D01*
G01*
X8392500Y-9700000D02*
G75*
G02*
X8327500Y-9700000I-32500J0D01*
G01*
X8327500Y-9700000D02*
G75*
G02*
X8392500Y-9700000I32500J0D01*
G01*
X8392500Y-9837000D02*
G75*
G02*
X8327500Y-9837000I-32500J0D01*
G01*
X8327500Y-9837000D02*
G75*
G02*
X8392500Y-9837000I32500J0D01*
G01*
X8392500Y-9974000D02*
G75*
G02*
X8327500Y-9974000I-32500J0D01*
G01*
X8327500Y-9974000D02*
G75*
G02*
X8392500Y-9974000I32500J0D01*
G01*
X8392500Y-10111000D02*
G75*
G02*
X8327500Y-10111000I-32500J0D01*
G01*
X8327500Y-10111000D02*
G75*
G02*
X8392500Y-10111000I32500J0D01*
G01*
X8392500Y-10248000D02*
G75*
G02*
X8327500Y-10248000I-32500J0D01*
G01*
X8327500Y-10248000D02*
G75*
G02*
X8392500Y-10248000I32500J0D01*
G01*
X8392500Y-10385000D02*
G75*
G02*
X8327500Y-10385000I-32500J0D01*
G01*
X8327500Y-10385000D02*
G75*
G02*
X8392500Y-10385000I32500J0D01*
G01*
X8392500Y-10522000D02*
G75*
G02*
X8327500Y-10522000I-32500J0D01*
G01*
X8327500Y-10522000D02*
G75*
G02*
X8392500Y-10522000I32500J0D01*
G01*
X8392500Y-10659000D02*
G75*
G02*
X8327500Y-10659000I-32500J0D01*
G01*
X8327500Y-10659000D02*
G75*
G02*
X8392500Y-10659000I32500J0D01*
G01*
X8392500Y-10796000D02*
G75*
G02*
X8327500Y-10796000I-32500J0D01*
G01*
X8327500Y-10796000D02*
G75*
G02*
X8392500Y-10796000I32500J0D01*
G01*
X8392500Y-10933000D02*
G75*
G02*
X8327500Y-10933000I-32500J0D01*
G01*
X8327500Y-10933000D02*
G75*
G02*
X8392500Y-10933000I32500J0D01*
G01*
X8392500Y-11070000D02*
G75*
G02*
X8327500Y-11070000I-32500J0D01*
G01*
X8327500Y-11070000D02*
G75*
G02*
X8392500Y-11070000I32500J0D01*
G01*
X8392500Y-11207000D02*
G75*
G02*
X8327500Y-11207000I-32500J0D01*
G01*
X8327500Y-11207000D02*
G75*
G02*
X8392500Y-11207000I32500J0D01*
G01*
X8392500Y-11344000D02*
G75*
G02*
X8327500Y-11344000I-32500J0D01*
G01*
X8327500Y-11344000D02*
G75*
G02*
X8392500Y-11344000I32500J0D01*
G01*
X8392500Y-11481000D02*
G75*
G02*
X8327500Y-11481000I-32500J0D01*
G01*
X8327500Y-11481000D02*
G75*
G02*
X8392500Y-11481000I32500J0D01*
G01*
X8392500Y-11620000D02*
G75*
G02*
X8327500Y-11620000I-32500J0D01*
G01*
X8327500Y-11620000D02*
G75*
G02*
X8392500Y-11620000I32500J0D01*
G01*
X8394200Y-7371100D02*
G75*
G02*
X8329200Y-7371100I-32500J0D01*
G01*
X8329200Y-7371100D02*
G75*
G02*
X8394200Y-7371100I32500J0D01*
G01*
X8394200Y-7508100D02*
G75*
G02*
X8329200Y-7508100I-32500J0D01*
G01*
X8329200Y-7508100D02*
G75*
G02*
X8394200Y-7508100I32500J0D01*
G01*
X8394200Y-7645100D02*
G75*
G02*
X8329200Y-7645100I-32500J0D01*
G01*
X8329200Y-7645100D02*
G75*
G02*
X8394200Y-7645100I32500J0D01*
G01*
X8394200Y-7782100D02*
G75*
G02*
X8329200Y-7782100I-32500J0D01*
G01*
X8329200Y-7782100D02*
G75*
G02*
X8394200Y-7782100I32500J0D01*
G01*
X8394200Y-7919100D02*
G75*
G02*
X8329200Y-7919100I-32500J0D01*
G01*
X8329200Y-7919100D02*
G75*
G02*
X8394200Y-7919100I32500J0D01*
G01*
X8394200Y-8056100D02*
G75*
G02*
X8329200Y-8056100I-32500J0D01*
G01*
X8329200Y-8056100D02*
G75*
G02*
X8394200Y-8056100I32500J0D01*
G01*
X8394200Y-8193100D02*
G75*
G02*
X8329200Y-8193100I-32500J0D01*
G01*
X8329200Y-8193100D02*
G75*
G02*
X8394200Y-8193100I32500J0D01*
G01*
X8395500Y-11757000D02*
G75*
G02*
X8330500Y-11757000I-32500J0D01*
G01*
X8330500Y-11757000D02*
G75*
G02*
X8395500Y-11757000I32500J0D01*
G01*
X8395500Y-11894000D02*
G75*
G02*
X8330500Y-11894000I-32500J0D01*
G01*
X8330500Y-11894000D02*
G75*
G02*
X8395500Y-11894000I32500J0D01*
G01*
X8395500Y-12031000D02*
G75*
G02*
X8330500Y-12031000I-32500J0D01*
G01*
X8330500Y-12031000D02*
G75*
G02*
X8395500Y-12031000I32500J0D01*
G01*
X8395500Y-12168000D02*
G75*
G02*
X8330500Y-12168000I-32500J0D01*
G01*
X8330500Y-12168000D02*
G75*
G02*
X8395500Y-12168000I32500J0D01*
G01*
X8395500Y-12305000D02*
G75*
G02*
X8330500Y-12305000I-32500J0D01*
G01*
X8330500Y-12305000D02*
G75*
G02*
X8395500Y-12305000I32500J0D01*
G01*
X8395500Y-12442000D02*
G75*
G02*
X8330500Y-12442000I-32500J0D01*
G01*
X8330500Y-12442000D02*
G75*
G02*
X8395500Y-12442000I32500J0D01*
G01*
X8395500Y-12579000D02*
G75*
G02*
X8330500Y-12579000I-32500J0D01*
G01*
X8330500Y-12579000D02*
G75*
G02*
X8395500Y-12579000I32500J0D01*
G01*
X8529500Y-8330000D02*
G75*
G02*
X8464500Y-8330000I-32500J0D01*
G01*
X8464500Y-8330000D02*
G75*
G02*
X8529500Y-8330000I32500J0D01*
G01*
X8529500Y-8467000D02*
G75*
G02*
X8464500Y-8467000I-32500J0D01*
G01*
X8464500Y-8467000D02*
G75*
G02*
X8529500Y-8467000I32500J0D01*
G01*
X8529500Y-8604000D02*
G75*
G02*
X8464500Y-8604000I-32500J0D01*
G01*
X8464500Y-8604000D02*
G75*
G02*
X8529500Y-8604000I32500J0D01*
G01*
X8529500Y-8741000D02*
G75*
G02*
X8464500Y-8741000I-32500J0D01*
G01*
X8464500Y-8741000D02*
G75*
G02*
X8529500Y-8741000I32500J0D01*
G01*
X8529500Y-8878000D02*
G75*
G02*
X8464500Y-8878000I-32500J0D01*
G01*
X8464500Y-8878000D02*
G75*
G02*
X8529500Y-8878000I32500J0D01*
G01*
X8529500Y-9015000D02*
G75*
G02*
X8464500Y-9015000I-32500J0D01*
G01*
X8464500Y-9015000D02*
G75*
G02*
X8529500Y-9015000I32500J0D01*
G01*
X8529500Y-9152000D02*
G75*
G02*
X8464500Y-9152000I-32500J0D01*
G01*
X8464500Y-9152000D02*
G75*
G02*
X8529500Y-9152000I32500J0D01*
G01*
X8529500Y-9289000D02*
G75*
G02*
X8464500Y-9289000I-32500J0D01*
G01*
X8464500Y-9289000D02*
G75*
G02*
X8529500Y-9289000I32500J0D01*
G01*
X8529500Y-9426000D02*
G75*
G02*
X8464500Y-9426000I-32500J0D01*
G01*
X8464500Y-9426000D02*
G75*
G02*
X8529500Y-9426000I32500J0D01*
G01*
X8529500Y-9563000D02*
G75*
G02*
X8464500Y-9563000I-32500J0D01*
G01*
X8464500Y-9563000D02*
G75*
G02*
X8529500Y-9563000I32500J0D01*
G01*
X8529500Y-9700000D02*
G75*
G02*
X8464500Y-9700000I-32500J0D01*
G01*
X8464500Y-9700000D02*
G75*
G02*
X8529500Y-9700000I32500J0D01*
G01*
X8529500Y-9837000D02*
G75*
G02*
X8464500Y-9837000I-32500J0D01*
G01*
X8464500Y-9837000D02*
G75*
G02*
X8529500Y-9837000I32500J0D01*
G01*
X8529500Y-9974000D02*
G75*
G02*
X8464500Y-9974000I-32500J0D01*
G01*
X8464500Y-9974000D02*
G75*
G02*
X8529500Y-9974000I32500J0D01*
G01*
X8529500Y-10111000D02*
G75*
G02*
X8464500Y-10111000I-32500J0D01*
G01*
X8464500Y-10111000D02*
G75*
G02*
X8529500Y-10111000I32500J0D01*
G01*
X8529500Y-10248000D02*
G75*
G02*
X8464500Y-10248000I-32500J0D01*
G01*
X8464500Y-10248000D02*
G75*
G02*
X8529500Y-10248000I32500J0D01*
G01*
X8529500Y-10385000D02*
G75*
G02*
X8464500Y-10385000I-32500J0D01*
G01*
X8464500Y-10385000D02*
G75*
G02*
X8529500Y-10385000I32500J0D01*
G01*
X8529500Y-10522000D02*
G75*
G02*
X8464500Y-10522000I-32500J0D01*
G01*
X8464500Y-10522000D02*
G75*
G02*
X8529500Y-10522000I32500J0D01*
G01*
X8529500Y-10659000D02*
G75*
G02*
X8464500Y-10659000I-32500J0D01*
G01*
X8464500Y-10659000D02*
G75*
G02*
X8529500Y-10659000I32500J0D01*
G01*
X8529500Y-10796000D02*
G75*
G02*
X8464500Y-10796000I-32500J0D01*
G01*
X8464500Y-10796000D02*
G75*
G02*
X8529500Y-10796000I32500J0D01*
G01*
X8529500Y-10933000D02*
G75*
G02*
X8464500Y-10933000I-32500J0D01*
G01*
X8464500Y-10933000D02*
G75*
G02*
X8529500Y-10933000I32500J0D01*
G01*
X8529500Y-11070000D02*
G75*
G02*
X8464500Y-11070000I-32500J0D01*
G01*
X8464500Y-11070000D02*
G75*
G02*
X8529500Y-11070000I32500J0D01*
G01*
X8529500Y-11207000D02*
G75*
G02*
X8464500Y-11207000I-32500J0D01*
G01*
X8464500Y-11207000D02*
G75*
G02*
X8529500Y-11207000I32500J0D01*
G01*
X8529500Y-11344000D02*
G75*
G02*
X8464500Y-11344000I-32500J0D01*
G01*
X8464500Y-11344000D02*
G75*
G02*
X8529500Y-11344000I32500J0D01*
G01*
X8529500Y-11481000D02*
G75*
G02*
X8464500Y-11481000I-32500J0D01*
G01*
X8464500Y-11481000D02*
G75*
G02*
X8529500Y-11481000I32500J0D01*
G01*
X8531200Y-7371100D02*
G75*
G02*
X8466200Y-7371100I-32500J0D01*
G01*
X8466200Y-7371100D02*
G75*
G02*
X8531200Y-7371100I32500J0D01*
G01*
X8531200Y-7508100D02*
G75*
G02*
X8466200Y-7508100I-32500J0D01*
G01*
X8466200Y-7508100D02*
G75*
G02*
X8531200Y-7508100I32500J0D01*
G01*
X8531200Y-7645100D02*
G75*
G02*
X8466200Y-7645100I-32500J0D01*
G01*
X8466200Y-7645100D02*
G75*
G02*
X8531200Y-7645100I32500J0D01*
G01*
X8531200Y-7782100D02*
G75*
G02*
X8466200Y-7782100I-32500J0D01*
G01*
X8466200Y-7782100D02*
G75*
G02*
X8531200Y-7782100I32500J0D01*
G01*
X8531200Y-7919100D02*
G75*
G02*
X8466200Y-7919100I-32500J0D01*
G01*
X8466200Y-7919100D02*
G75*
G02*
X8531200Y-7919100I32500J0D01*
G01*
X8531200Y-8056100D02*
G75*
G02*
X8466200Y-8056100I-32500J0D01*
G01*
X8466200Y-8056100D02*
G75*
G02*
X8531200Y-8056100I32500J0D01*
G01*
X8531200Y-8193100D02*
G75*
G02*
X8466200Y-8193100I-32500J0D01*
G01*
X8466200Y-8193100D02*
G75*
G02*
X8531200Y-8193100I32500J0D01*
G01*
X8532500Y-11620000D02*
G75*
G02*
X8467500Y-11620000I-32500J0D01*
G01*
X8467500Y-11620000D02*
G75*
G02*
X8532500Y-11620000I32500J0D01*
G01*
X8532500Y-11757000D02*
G75*
G02*
X8467500Y-11757000I-32500J0D01*
G01*
X8467500Y-11757000D02*
G75*
G02*
X8532500Y-11757000I32500J0D01*
G01*
X8532500Y-11894000D02*
G75*
G02*
X8467500Y-11894000I-32500J0D01*
G01*
X8467500Y-11894000D02*
G75*
G02*
X8532500Y-11894000I32500J0D01*
G01*
X8532500Y-12031000D02*
G75*
G02*
X8467500Y-12031000I-32500J0D01*
G01*
X8467500Y-12031000D02*
G75*
G02*
X8532500Y-12031000I32500J0D01*
G01*
X8532500Y-12168000D02*
G75*
G02*
X8467500Y-12168000I-32500J0D01*
G01*
X8467500Y-12168000D02*
G75*
G02*
X8532500Y-12168000I32500J0D01*
G01*
X8532500Y-12305000D02*
G75*
G02*
X8467500Y-12305000I-32500J0D01*
G01*
X8467500Y-12305000D02*
G75*
G02*
X8532500Y-12305000I32500J0D01*
G01*
X8532500Y-12442000D02*
G75*
G02*
X8467500Y-12442000I-32500J0D01*
G01*
X8467500Y-12442000D02*
G75*
G02*
X8532500Y-12442000I32500J0D01*
G01*
X8532500Y-12579000D02*
G75*
G02*
X8467500Y-12579000I-32500J0D01*
G01*
X8467500Y-12579000D02*
G75*
G02*
X8532500Y-12579000I32500J0D01*
G01*
X8666500Y-8330000D02*
G75*
G02*
X8601500Y-8330000I-32500J0D01*
G01*
X8601500Y-8330000D02*
G75*
G02*
X8666500Y-8330000I32500J0D01*
G01*
X8666500Y-8467000D02*
G75*
G02*
X8601500Y-8467000I-32500J0D01*
G01*
X8601500Y-8467000D02*
G75*
G02*
X8666500Y-8467000I32500J0D01*
G01*
X8666500Y-8604000D02*
G75*
G02*
X8601500Y-8604000I-32500J0D01*
G01*
X8601500Y-8604000D02*
G75*
G02*
X8666500Y-8604000I32500J0D01*
G01*
X8666500Y-8741000D02*
G75*
G02*
X8601500Y-8741000I-32500J0D01*
G01*
X8601500Y-8741000D02*
G75*
G02*
X8666500Y-8741000I32500J0D01*
G01*
X8666500Y-8878000D02*
G75*
G02*
X8601500Y-8878000I-32500J0D01*
G01*
X8601500Y-8878000D02*
G75*
G02*
X8666500Y-8878000I32500J0D01*
G01*
X8666500Y-9015000D02*
G75*
G02*
X8601500Y-9015000I-32500J0D01*
G01*
X8601500Y-9015000D02*
G75*
G02*
X8666500Y-9015000I32500J0D01*
G01*
X8666500Y-9152000D02*
G75*
G02*
X8601500Y-9152000I-32500J0D01*
G01*
X8601500Y-9152000D02*
G75*
G02*
X8666500Y-9152000I32500J0D01*
G01*
X8666500Y-9289000D02*
G75*
G02*
X8601500Y-9289000I-32500J0D01*
G01*
X8601500Y-9289000D02*
G75*
G02*
X8666500Y-9289000I32500J0D01*
G01*
X8666500Y-9426000D02*
G75*
G02*
X8601500Y-9426000I-32500J0D01*
G01*
X8601500Y-9426000D02*
G75*
G02*
X8666500Y-9426000I32500J0D01*
G01*
X8666500Y-9563000D02*
G75*
G02*
X8601500Y-9563000I-32500J0D01*
G01*
X8601500Y-9563000D02*
G75*
G02*
X8666500Y-9563000I32500J0D01*
G01*
X8666500Y-9700000D02*
G75*
G02*
X8601500Y-9700000I-32500J0D01*
G01*
X8601500Y-9700000D02*
G75*
G02*
X8666500Y-9700000I32500J0D01*
G01*
X8666500Y-9837000D02*
G75*
G02*
X8601500Y-9837000I-32500J0D01*
G01*
X8601500Y-9837000D02*
G75*
G02*
X8666500Y-9837000I32500J0D01*
G01*
X8666500Y-9974000D02*
G75*
G02*
X8601500Y-9974000I-32500J0D01*
G01*
X8601500Y-9974000D02*
G75*
G02*
X8666500Y-9974000I32500J0D01*
G01*
X8666500Y-10111000D02*
G75*
G02*
X8601500Y-10111000I-32500J0D01*
G01*
X8601500Y-10111000D02*
G75*
G02*
X8666500Y-10111000I32500J0D01*
G01*
X8666500Y-10248000D02*
G75*
G02*
X8601500Y-10248000I-32500J0D01*
G01*
X8601500Y-10248000D02*
G75*
G02*
X8666500Y-10248000I32500J0D01*
G01*
X8666500Y-10385000D02*
G75*
G02*
X8601500Y-10385000I-32500J0D01*
G01*
X8601500Y-10385000D02*
G75*
G02*
X8666500Y-10385000I32500J0D01*
G01*
X8666500Y-10522000D02*
G75*
G02*
X8601500Y-10522000I-32500J0D01*
G01*
X8601500Y-10522000D02*
G75*
G02*
X8666500Y-10522000I32500J0D01*
G01*
X8666500Y-10659000D02*
G75*
G02*
X8601500Y-10659000I-32500J0D01*
G01*
X8601500Y-10659000D02*
G75*
G02*
X8666500Y-10659000I32500J0D01*
G01*
X8666500Y-10796000D02*
G75*
G02*
X8601500Y-10796000I-32500J0D01*
G01*
X8601500Y-10796000D02*
G75*
G02*
X8666500Y-10796000I32500J0D01*
G01*
X8666500Y-10933000D02*
G75*
G02*
X8601500Y-10933000I-32500J0D01*
G01*
X8601500Y-10933000D02*
G75*
G02*
X8666500Y-10933000I32500J0D01*
G01*
X8666500Y-11070000D02*
G75*
G02*
X8601500Y-11070000I-32500J0D01*
G01*
X8601500Y-11070000D02*
G75*
G02*
X8666500Y-11070000I32500J0D01*
G01*
X8666500Y-11207000D02*
G75*
G02*
X8601500Y-11207000I-32500J0D01*
G01*
X8601500Y-11207000D02*
G75*
G02*
X8666500Y-11207000I32500J0D01*
G01*
X8666500Y-11344000D02*
G75*
G02*
X8601500Y-11344000I-32500J0D01*
G01*
X8601500Y-11344000D02*
G75*
G02*
X8666500Y-11344000I32500J0D01*
G01*
X8666500Y-11481000D02*
G75*
G02*
X8601500Y-11481000I-32500J0D01*
G01*
X8601500Y-11481000D02*
G75*
G02*
X8666500Y-11481000I32500J0D01*
G01*
X8668200Y-7371100D02*
G75*
G02*
X8603200Y-7371100I-32500J0D01*
G01*
X8603200Y-7371100D02*
G75*
G02*
X8668200Y-7371100I32500J0D01*
G01*
X8668200Y-7508100D02*
G75*
G02*
X8603200Y-7508100I-32500J0D01*
G01*
X8603200Y-7508100D02*
G75*
G02*
X8668200Y-7508100I32500J0D01*
G01*
X8668200Y-7645100D02*
G75*
G02*
X8603200Y-7645100I-32500J0D01*
G01*
X8603200Y-7645100D02*
G75*
G02*
X8668200Y-7645100I32500J0D01*
G01*
X8668200Y-7782100D02*
G75*
G02*
X8603200Y-7782100I-32500J0D01*
G01*
X8603200Y-7782100D02*
G75*
G02*
X8668200Y-7782100I32500J0D01*
G01*
X8668200Y-7919100D02*
G75*
G02*
X8603200Y-7919100I-32500J0D01*
G01*
X8603200Y-7919100D02*
G75*
G02*
X8668200Y-7919100I32500J0D01*
G01*
X8668200Y-8056100D02*
G75*
G02*
X8603200Y-8056100I-32500J0D01*
G01*
X8603200Y-8056100D02*
G75*
G02*
X8668200Y-8056100I32500J0D01*
G01*
X8668200Y-8193100D02*
G75*
G02*
X8603200Y-8193100I-32500J0D01*
G01*
X8603200Y-8193100D02*
G75*
G02*
X8668200Y-8193100I32500J0D01*
G01*
X8669500Y-11620000D02*
G75*
G02*
X8604500Y-11620000I-32500J0D01*
G01*
X8604500Y-11620000D02*
G75*
G02*
X8669500Y-11620000I32500J0D01*
G01*
X8669500Y-11757000D02*
G75*
G02*
X8604500Y-11757000I-32500J0D01*
G01*
X8604500Y-11757000D02*
G75*
G02*
X8669500Y-11757000I32500J0D01*
G01*
X8669500Y-11894000D02*
G75*
G02*
X8604500Y-11894000I-32500J0D01*
G01*
X8604500Y-11894000D02*
G75*
G02*
X8669500Y-11894000I32500J0D01*
G01*
X8669500Y-12031000D02*
G75*
G02*
X8604500Y-12031000I-32500J0D01*
G01*
X8604500Y-12031000D02*
G75*
G02*
X8669500Y-12031000I32500J0D01*
G01*
X8669500Y-12168000D02*
G75*
G02*
X8604500Y-12168000I-32500J0D01*
G01*
X8604500Y-12168000D02*
G75*
G02*
X8669500Y-12168000I32500J0D01*
G01*
X8669500Y-12305000D02*
G75*
G02*
X8604500Y-12305000I-32500J0D01*
G01*
X8604500Y-12305000D02*
G75*
G02*
X8669500Y-12305000I32500J0D01*
G01*
X8669500Y-12442000D02*
G75*
G02*
X8604500Y-12442000I-32500J0D01*
G01*
X8604500Y-12442000D02*
G75*
G02*
X8669500Y-12442000I32500J0D01*
G01*
X8669500Y-12579000D02*
G75*
G02*
X8604500Y-12579000I-32500J0D01*
G01*
X8604500Y-12579000D02*
G75*
G02*
X8669500Y-12579000I32500J0D01*
G01*
X8803500Y-8330000D02*
G75*
G02*
X8738500Y-8330000I-32500J0D01*
G01*
X8738500Y-8330000D02*
G75*
G02*
X8803500Y-8330000I32500J0D01*
G01*
X8803500Y-8467000D02*
G75*
G02*
X8738500Y-8467000I-32500J0D01*
G01*
X8738500Y-8467000D02*
G75*
G02*
X8803500Y-8467000I32500J0D01*
G01*
X8803500Y-8604000D02*
G75*
G02*
X8738500Y-8604000I-32500J0D01*
G01*
X8738500Y-8604000D02*
G75*
G02*
X8803500Y-8604000I32500J0D01*
G01*
X8803500Y-8741000D02*
G75*
G02*
X8738500Y-8741000I-32500J0D01*
G01*
X8738500Y-8741000D02*
G75*
G02*
X8803500Y-8741000I32500J0D01*
G01*
X8803500Y-8878000D02*
G75*
G02*
X8738500Y-8878000I-32500J0D01*
G01*
X8738500Y-8878000D02*
G75*
G02*
X8803500Y-8878000I32500J0D01*
G01*
X8803500Y-9015000D02*
G75*
G02*
X8738500Y-9015000I-32500J0D01*
G01*
X8738500Y-9015000D02*
G75*
G02*
X8803500Y-9015000I32500J0D01*
G01*
X8803500Y-9152000D02*
G75*
G02*
X8738500Y-9152000I-32500J0D01*
G01*
X8738500Y-9152000D02*
G75*
G02*
X8803500Y-9152000I32500J0D01*
G01*
X8803500Y-9289000D02*
G75*
G02*
X8738500Y-9289000I-32500J0D01*
G01*
X8738500Y-9289000D02*
G75*
G02*
X8803500Y-9289000I32500J0D01*
G01*
X8803500Y-9426000D02*
G75*
G02*
X8738500Y-9426000I-32500J0D01*
G01*
X8738500Y-9426000D02*
G75*
G02*
X8803500Y-9426000I32500J0D01*
G01*
X8803500Y-9563000D02*
G75*
G02*
X8738500Y-9563000I-32500J0D01*
G01*
X8738500Y-9563000D02*
G75*
G02*
X8803500Y-9563000I32500J0D01*
G01*
X8803500Y-9700000D02*
G75*
G02*
X8738500Y-9700000I-32500J0D01*
G01*
X8738500Y-9700000D02*
G75*
G02*
X8803500Y-9700000I32500J0D01*
G01*
X8803500Y-9837000D02*
G75*
G02*
X8738500Y-9837000I-32500J0D01*
G01*
X8738500Y-9837000D02*
G75*
G02*
X8803500Y-9837000I32500J0D01*
G01*
X8803500Y-9974000D02*
G75*
G02*
X8738500Y-9974000I-32500J0D01*
G01*
X8738500Y-9974000D02*
G75*
G02*
X8803500Y-9974000I32500J0D01*
G01*
X8803500Y-10111000D02*
G75*
G02*
X8738500Y-10111000I-32500J0D01*
G01*
X8738500Y-10111000D02*
G75*
G02*
X8803500Y-10111000I32500J0D01*
G01*
X8803500Y-10248000D02*
G75*
G02*
X8738500Y-10248000I-32500J0D01*
G01*
X8738500Y-10248000D02*
G75*
G02*
X8803500Y-10248000I32500J0D01*
G01*
X8803500Y-10385000D02*
G75*
G02*
X8738500Y-10385000I-32500J0D01*
G01*
X8738500Y-10385000D02*
G75*
G02*
X8803500Y-10385000I32500J0D01*
G01*
X8803500Y-10522000D02*
G75*
G02*
X8738500Y-10522000I-32500J0D01*
G01*
X8738500Y-10522000D02*
G75*
G02*
X8803500Y-10522000I32500J0D01*
G01*
X8803500Y-10659000D02*
G75*
G02*
X8738500Y-10659000I-32500J0D01*
G01*
X8738500Y-10659000D02*
G75*
G02*
X8803500Y-10659000I32500J0D01*
G01*
X8803500Y-10796000D02*
G75*
G02*
X8738500Y-10796000I-32500J0D01*
G01*
X8738500Y-10796000D02*
G75*
G02*
X8803500Y-10796000I32500J0D01*
G01*
X8803500Y-10933000D02*
G75*
G02*
X8738500Y-10933000I-32500J0D01*
G01*
X8738500Y-10933000D02*
G75*
G02*
X8803500Y-10933000I32500J0D01*
G01*
X8803500Y-11070000D02*
G75*
G02*
X8738500Y-11070000I-32500J0D01*
G01*
X8738500Y-11070000D02*
G75*
G02*
X8803500Y-11070000I32500J0D01*
G01*
X8803500Y-11207000D02*
G75*
G02*
X8738500Y-11207000I-32500J0D01*
G01*
X8738500Y-11207000D02*
G75*
G02*
X8803500Y-11207000I32500J0D01*
G01*
X8803500Y-11344000D02*
G75*
G02*
X8738500Y-11344000I-32500J0D01*
G01*
X8738500Y-11344000D02*
G75*
G02*
X8803500Y-11344000I32500J0D01*
G01*
X8803500Y-11481000D02*
G75*
G02*
X8738500Y-11481000I-32500J0D01*
G01*
X8738500Y-11481000D02*
G75*
G02*
X8803500Y-11481000I32500J0D01*
G01*
X8805200Y-7371100D02*
G75*
G02*
X8740200Y-7371100I-32500J0D01*
G01*
X8740200Y-7371100D02*
G75*
G02*
X8805200Y-7371100I32500J0D01*
G01*
X8805200Y-7508100D02*
G75*
G02*
X8740200Y-7508100I-32500J0D01*
G01*
X8740200Y-7508100D02*
G75*
G02*
X8805200Y-7508100I32500J0D01*
G01*
X8805200Y-7645100D02*
G75*
G02*
X8740200Y-7645100I-32500J0D01*
G01*
X8740200Y-7645100D02*
G75*
G02*
X8805200Y-7645100I32500J0D01*
G01*
X8805200Y-7782100D02*
G75*
G02*
X8740200Y-7782100I-32500J0D01*
G01*
X8740200Y-7782100D02*
G75*
G02*
X8805200Y-7782100I32500J0D01*
G01*
X8805200Y-7919100D02*
G75*
G02*
X8740200Y-7919100I-32500J0D01*
G01*
X8740200Y-7919100D02*
G75*
G02*
X8805200Y-7919100I32500J0D01*
G01*
X8805200Y-8056100D02*
G75*
G02*
X8740200Y-8056100I-32500J0D01*
G01*
X8740200Y-8056100D02*
G75*
G02*
X8805200Y-8056100I32500J0D01*
G01*
X8805200Y-8193100D02*
G75*
G02*
X8740200Y-8193100I-32500J0D01*
G01*
X8740200Y-8193100D02*
G75*
G02*
X8805200Y-8193100I32500J0D01*
G01*
X8806500Y-11620000D02*
G75*
G02*
X8741500Y-11620000I-32500J0D01*
G01*
X8741500Y-11620000D02*
G75*
G02*
X8806500Y-11620000I32500J0D01*
G01*
X8806500Y-11757000D02*
G75*
G02*
X8741500Y-11757000I-32500J0D01*
G01*
X8741500Y-11757000D02*
G75*
G02*
X8806500Y-11757000I32500J0D01*
G01*
X8806500Y-11894000D02*
G75*
G02*
X8741500Y-11894000I-32500J0D01*
G01*
X8741500Y-11894000D02*
G75*
G02*
X8806500Y-11894000I32500J0D01*
G01*
X8806500Y-12031000D02*
G75*
G02*
X8741500Y-12031000I-32500J0D01*
G01*
X8741500Y-12031000D02*
G75*
G02*
X8806500Y-12031000I32500J0D01*
G01*
X8806500Y-12168000D02*
G75*
G02*
X8741500Y-12168000I-32500J0D01*
G01*
X8741500Y-12168000D02*
G75*
G02*
X8806500Y-12168000I32500J0D01*
G01*
X8806500Y-12305000D02*
G75*
G02*
X8741500Y-12305000I-32500J0D01*
G01*
X8741500Y-12305000D02*
G75*
G02*
X8806500Y-12305000I32500J0D01*
G01*
X8806500Y-12442000D02*
G75*
G02*
X8741500Y-12442000I-32500J0D01*
G01*
X8741500Y-12442000D02*
G75*
G02*
X8806500Y-12442000I32500J0D01*
G01*
X8806500Y-12579000D02*
G75*
G02*
X8741500Y-12579000I-32500J0D01*
G01*
X8741500Y-12579000D02*
G75*
G02*
X8806500Y-12579000I32500J0D01*
G01*
X8940500Y-8330000D02*
G75*
G02*
X8875500Y-8330000I-32500J0D01*
G01*
X8875500Y-8330000D02*
G75*
G02*
X8940500Y-8330000I32500J0D01*
G01*
X8940500Y-8467000D02*
G75*
G02*
X8875500Y-8467000I-32500J0D01*
G01*
X8875500Y-8467000D02*
G75*
G02*
X8940500Y-8467000I32500J0D01*
G01*
X8940500Y-8604000D02*
G75*
G02*
X8875500Y-8604000I-32500J0D01*
G01*
X8875500Y-8604000D02*
G75*
G02*
X8940500Y-8604000I32500J0D01*
G01*
X8940500Y-8741000D02*
G75*
G02*
X8875500Y-8741000I-32500J0D01*
G01*
X8875500Y-8741000D02*
G75*
G02*
X8940500Y-8741000I32500J0D01*
G01*
X8940500Y-8878000D02*
G75*
G02*
X8875500Y-8878000I-32500J0D01*
G01*
X8875500Y-8878000D02*
G75*
G02*
X8940500Y-8878000I32500J0D01*
G01*
X8940500Y-9015000D02*
G75*
G02*
X8875500Y-9015000I-32500J0D01*
G01*
X8875500Y-9015000D02*
G75*
G02*
X8940500Y-9015000I32500J0D01*
G01*
X8940500Y-9152000D02*
G75*
G02*
X8875500Y-9152000I-32500J0D01*
G01*
X8875500Y-9152000D02*
G75*
G02*
X8940500Y-9152000I32500J0D01*
G01*
X8940500Y-9289000D02*
G75*
G02*
X8875500Y-9289000I-32500J0D01*
G01*
X8875500Y-9289000D02*
G75*
G02*
X8940500Y-9289000I32500J0D01*
G01*
X8940500Y-9426000D02*
G75*
G02*
X8875500Y-9426000I-32500J0D01*
G01*
X8875500Y-9426000D02*
G75*
G02*
X8940500Y-9426000I32500J0D01*
G01*
X8940500Y-9563000D02*
G75*
G02*
X8875500Y-9563000I-32500J0D01*
G01*
X8875500Y-9563000D02*
G75*
G02*
X8940500Y-9563000I32500J0D01*
G01*
X8940500Y-9700000D02*
G75*
G02*
X8875500Y-9700000I-32500J0D01*
G01*
X8875500Y-9700000D02*
G75*
G02*
X8940500Y-9700000I32500J0D01*
G01*
X8940500Y-9837000D02*
G75*
G02*
X8875500Y-9837000I-32500J0D01*
G01*
X8875500Y-9837000D02*
G75*
G02*
X8940500Y-9837000I32500J0D01*
G01*
X8940500Y-9974000D02*
G75*
G02*
X8875500Y-9974000I-32500J0D01*
G01*
X8875500Y-9974000D02*
G75*
G02*
X8940500Y-9974000I32500J0D01*
G01*
X8940500Y-10111000D02*
G75*
G02*
X8875500Y-10111000I-32500J0D01*
G01*
X8875500Y-10111000D02*
G75*
G02*
X8940500Y-10111000I32500J0D01*
G01*
X8940500Y-10248000D02*
G75*
G02*
X8875500Y-10248000I-32500J0D01*
G01*
X8875500Y-10248000D02*
G75*
G02*
X8940500Y-10248000I32500J0D01*
G01*
X8940500Y-10385000D02*
G75*
G02*
X8875500Y-10385000I-32500J0D01*
G01*
X8875500Y-10385000D02*
G75*
G02*
X8940500Y-10385000I32500J0D01*
G01*
X8940500Y-10522000D02*
G75*
G02*
X8875500Y-10522000I-32500J0D01*
G01*
X8875500Y-10522000D02*
G75*
G02*
X8940500Y-10522000I32500J0D01*
G01*
X8940500Y-10659000D02*
G75*
G02*
X8875500Y-10659000I-32500J0D01*
G01*
X8875500Y-10659000D02*
G75*
G02*
X8940500Y-10659000I32500J0D01*
G01*
X8940500Y-10796000D02*
G75*
G02*
X8875500Y-10796000I-32500J0D01*
G01*
X8875500Y-10796000D02*
G75*
G02*
X8940500Y-10796000I32500J0D01*
G01*
X8940500Y-10933000D02*
G75*
G02*
X8875500Y-10933000I-32500J0D01*
G01*
X8875500Y-10933000D02*
G75*
G02*
X8940500Y-10933000I32500J0D01*
G01*
X8940500Y-11070000D02*
G75*
G02*
X8875500Y-11070000I-32500J0D01*
G01*
X8875500Y-11070000D02*
G75*
G02*
X8940500Y-11070000I32500J0D01*
G01*
X8940500Y-11207000D02*
G75*
G02*
X8875500Y-11207000I-32500J0D01*
G01*
X8875500Y-11207000D02*
G75*
G02*
X8940500Y-11207000I32500J0D01*
G01*
X8940500Y-11344000D02*
G75*
G02*
X8875500Y-11344000I-32500J0D01*
G01*
X8875500Y-11344000D02*
G75*
G02*
X8940500Y-11344000I32500J0D01*
G01*
X8940500Y-11481000D02*
G75*
G02*
X8875500Y-11481000I-32500J0D01*
G01*
X8875500Y-11481000D02*
G75*
G02*
X8940500Y-11481000I32500J0D01*
G01*
X8942200Y-7371100D02*
G75*
G02*
X8877200Y-7371100I-32500J0D01*
G01*
X8877200Y-7371100D02*
G75*
G02*
X8942200Y-7371100I32500J0D01*
G01*
X8942200Y-7508100D02*
G75*
G02*
X8877200Y-7508100I-32500J0D01*
G01*
X8877200Y-7508100D02*
G75*
G02*
X8942200Y-7508100I32500J0D01*
G01*
X8942200Y-7645100D02*
G75*
G02*
X8877200Y-7645100I-32500J0D01*
G01*
X8877200Y-7645100D02*
G75*
G02*
X8942200Y-7645100I32500J0D01*
G01*
X8942200Y-7782100D02*
G75*
G02*
X8877200Y-7782100I-32500J0D01*
G01*
X8877200Y-7782100D02*
G75*
G02*
X8942200Y-7782100I32500J0D01*
G01*
X8942200Y-7919100D02*
G75*
G02*
X8877200Y-7919100I-32500J0D01*
G01*
X8877200Y-7919100D02*
G75*
G02*
X8942200Y-7919100I32500J0D01*
G01*
X8942200Y-8056100D02*
G75*
G02*
X8877200Y-8056100I-32500J0D01*
G01*
X8877200Y-8056100D02*
G75*
G02*
X8942200Y-8056100I32500J0D01*
G01*
X8942200Y-8193100D02*
G75*
G02*
X8877200Y-8193100I-32500J0D01*
G01*
X8877200Y-8193100D02*
G75*
G02*
X8942200Y-8193100I32500J0D01*
G01*
X8943500Y-11620000D02*
G75*
G02*
X8878500Y-11620000I-32500J0D01*
G01*
X8878500Y-11620000D02*
G75*
G02*
X8943500Y-11620000I32500J0D01*
G01*
X8943500Y-11757000D02*
G75*
G02*
X8878500Y-11757000I-32500J0D01*
G01*
X8878500Y-11757000D02*
G75*
G02*
X8943500Y-11757000I32500J0D01*
G01*
X8943500Y-11894000D02*
G75*
G02*
X8878500Y-11894000I-32500J0D01*
G01*
X8878500Y-11894000D02*
G75*
G02*
X8943500Y-11894000I32500J0D01*
G01*
X8943500Y-12031000D02*
G75*
G02*
X8878500Y-12031000I-32500J0D01*
G01*
X8878500Y-12031000D02*
G75*
G02*
X8943500Y-12031000I32500J0D01*
G01*
X8943500Y-12168000D02*
G75*
G02*
X8878500Y-12168000I-32500J0D01*
G01*
X8878500Y-12168000D02*
G75*
G02*
X8943500Y-12168000I32500J0D01*
G01*
X8943500Y-12305000D02*
G75*
G02*
X8878500Y-12305000I-32500J0D01*
G01*
X8878500Y-12305000D02*
G75*
G02*
X8943500Y-12305000I32500J0D01*
G01*
X8943500Y-12442000D02*
G75*
G02*
X8878500Y-12442000I-32500J0D01*
G01*
X8878500Y-12442000D02*
G75*
G02*
X8943500Y-12442000I32500J0D01*
G01*
X8943500Y-12579000D02*
G75*
G02*
X8878500Y-12579000I-32500J0D01*
G01*
X8878500Y-12579000D02*
G75*
G02*
X8943500Y-12579000I32500J0D01*
G01*
X9077500Y-8330000D02*
G75*
G02*
X9012500Y-8330000I-32500J0D01*
G01*
X9012500Y-8330000D02*
G75*
G02*
X9077500Y-8330000I32500J0D01*
G01*
X9077500Y-8467000D02*
G75*
G02*
X9012500Y-8467000I-32500J0D01*
G01*
X9012500Y-8467000D02*
G75*
G02*
X9077500Y-8467000I32500J0D01*
G01*
X9077500Y-8604000D02*
G75*
G02*
X9012500Y-8604000I-32500J0D01*
G01*
X9012500Y-8604000D02*
G75*
G02*
X9077500Y-8604000I32500J0D01*
G01*
X9077500Y-8741000D02*
G75*
G02*
X9012500Y-8741000I-32500J0D01*
G01*
X9012500Y-8741000D02*
G75*
G02*
X9077500Y-8741000I32500J0D01*
G01*
X9077500Y-8878000D02*
G75*
G02*
X9012500Y-8878000I-32500J0D01*
G01*
X9012500Y-8878000D02*
G75*
G02*
X9077500Y-8878000I32500J0D01*
G01*
X9077500Y-9015000D02*
G75*
G02*
X9012500Y-9015000I-32500J0D01*
G01*
X9012500Y-9015000D02*
G75*
G02*
X9077500Y-9015000I32500J0D01*
G01*
X9077500Y-9152000D02*
G75*
G02*
X9012500Y-9152000I-32500J0D01*
G01*
X9012500Y-9152000D02*
G75*
G02*
X9077500Y-9152000I32500J0D01*
G01*
X9077500Y-9289000D02*
G75*
G02*
X9012500Y-9289000I-32500J0D01*
G01*
X9012500Y-9289000D02*
G75*
G02*
X9077500Y-9289000I32500J0D01*
G01*
X9077500Y-9426000D02*
G75*
G02*
X9012500Y-9426000I-32500J0D01*
G01*
X9012500Y-9426000D02*
G75*
G02*
X9077500Y-9426000I32500J0D01*
G01*
X9077500Y-9563000D02*
G75*
G02*
X9012500Y-9563000I-32500J0D01*
G01*
X9012500Y-9563000D02*
G75*
G02*
X9077500Y-9563000I32500J0D01*
G01*
X9077500Y-9700000D02*
G75*
G02*
X9012500Y-9700000I-32500J0D01*
G01*
X9012500Y-9700000D02*
G75*
G02*
X9077500Y-9700000I32500J0D01*
G01*
X9077500Y-9837000D02*
G75*
G02*
X9012500Y-9837000I-32500J0D01*
G01*
X9012500Y-9837000D02*
G75*
G02*
X9077500Y-9837000I32500J0D01*
G01*
X9077500Y-9974000D02*
G75*
G02*
X9012500Y-9974000I-32500J0D01*
G01*
X9012500Y-9974000D02*
G75*
G02*
X9077500Y-9974000I32500J0D01*
G01*
X9077500Y-10111000D02*
G75*
G02*
X9012500Y-10111000I-32500J0D01*
G01*
X9012500Y-10111000D02*
G75*
G02*
X9077500Y-10111000I32500J0D01*
G01*
X9077500Y-10248000D02*
G75*
G02*
X9012500Y-10248000I-32500J0D01*
G01*
X9012500Y-10248000D02*
G75*
G02*
X9077500Y-10248000I32500J0D01*
G01*
X9077500Y-10385000D02*
G75*
G02*
X9012500Y-10385000I-32500J0D01*
G01*
X9012500Y-10385000D02*
G75*
G02*
X9077500Y-10385000I32500J0D01*
G01*
X9077500Y-10522000D02*
G75*
G02*
X9012500Y-10522000I-32500J0D01*
G01*
X9012500Y-10522000D02*
G75*
G02*
X9077500Y-10522000I32500J0D01*
G01*
X9077500Y-10659000D02*
G75*
G02*
X9012500Y-10659000I-32500J0D01*
G01*
X9012500Y-10659000D02*
G75*
G02*
X9077500Y-10659000I32500J0D01*
G01*
X9077500Y-10796000D02*
G75*
G02*
X9012500Y-10796000I-32500J0D01*
G01*
X9012500Y-10796000D02*
G75*
G02*
X9077500Y-10796000I32500J0D01*
G01*
X9077500Y-10933000D02*
G75*
G02*
X9012500Y-10933000I-32500J0D01*
G01*
X9012500Y-10933000D02*
G75*
G02*
X9077500Y-10933000I32500J0D01*
G01*
X9077500Y-11070000D02*
G75*
G02*
X9012500Y-11070000I-32500J0D01*
G01*
X9012500Y-11070000D02*
G75*
G02*
X9077500Y-11070000I32500J0D01*
G01*
X9077500Y-11207000D02*
G75*
G02*
X9012500Y-11207000I-32500J0D01*
G01*
X9012500Y-11207000D02*
G75*
G02*
X9077500Y-11207000I32500J0D01*
G01*
X9077500Y-11344000D02*
G75*
G02*
X9012500Y-11344000I-32500J0D01*
G01*
X9012500Y-11344000D02*
G75*
G02*
X9077500Y-11344000I32500J0D01*
G01*
X9077500Y-11481000D02*
G75*
G02*
X9012500Y-11481000I-32500J0D01*
G01*
X9012500Y-11481000D02*
G75*
G02*
X9077500Y-11481000I32500J0D01*
G01*
X9079200Y-7371100D02*
G75*
G02*
X9014200Y-7371100I-32500J0D01*
G01*
X9014200Y-7371100D02*
G75*
G02*
X9079200Y-7371100I32500J0D01*
G01*
X9079200Y-7508100D02*
G75*
G02*
X9014200Y-7508100I-32500J0D01*
G01*
X9014200Y-7508100D02*
G75*
G02*
X9079200Y-7508100I32500J0D01*
G01*
X9079200Y-7645100D02*
G75*
G02*
X9014200Y-7645100I-32500J0D01*
G01*
X9014200Y-7645100D02*
G75*
G02*
X9079200Y-7645100I32500J0D01*
G01*
X9079200Y-7782100D02*
G75*
G02*
X9014200Y-7782100I-32500J0D01*
G01*
X9014200Y-7782100D02*
G75*
G02*
X9079200Y-7782100I32500J0D01*
G01*
X9079200Y-7919100D02*
G75*
G02*
X9014200Y-7919100I-32500J0D01*
G01*
X9014200Y-7919100D02*
G75*
G02*
X9079200Y-7919100I32500J0D01*
G01*
X9079200Y-8056100D02*
G75*
G02*
X9014200Y-8056100I-32500J0D01*
G01*
X9014200Y-8056100D02*
G75*
G02*
X9079200Y-8056100I32500J0D01*
G01*
X9079200Y-8193100D02*
G75*
G02*
X9014200Y-8193100I-32500J0D01*
G01*
X9014200Y-8193100D02*
G75*
G02*
X9079200Y-8193100I32500J0D01*
G01*
X9080500Y-11620000D02*
G75*
G02*
X9015500Y-11620000I-32500J0D01*
G01*
X9015500Y-11620000D02*
G75*
G02*
X9080500Y-11620000I32500J0D01*
G01*
X9080500Y-11757000D02*
G75*
G02*
X9015500Y-11757000I-32500J0D01*
G01*
X9015500Y-11757000D02*
G75*
G02*
X9080500Y-11757000I32500J0D01*
G01*
X9080500Y-11894000D02*
G75*
G02*
X9015500Y-11894000I-32500J0D01*
G01*
X9015500Y-11894000D02*
G75*
G02*
X9080500Y-11894000I32500J0D01*
G01*
X9080500Y-12031000D02*
G75*
G02*
X9015500Y-12031000I-32500J0D01*
G01*
X9015500Y-12031000D02*
G75*
G02*
X9080500Y-12031000I32500J0D01*
G01*
X9080500Y-12168000D02*
G75*
G02*
X9015500Y-12168000I-32500J0D01*
G01*
X9015500Y-12168000D02*
G75*
G02*
X9080500Y-12168000I32500J0D01*
G01*
X9080500Y-12305000D02*
G75*
G02*
X9015500Y-12305000I-32500J0D01*
G01*
X9015500Y-12305000D02*
G75*
G02*
X9080500Y-12305000I32500J0D01*
G01*
X9080500Y-12442000D02*
G75*
G02*
X9015500Y-12442000I-32500J0D01*
G01*
X9015500Y-12442000D02*
G75*
G02*
X9080500Y-12442000I32500J0D01*
G01*
X9080500Y-12579000D02*
G75*
G02*
X9015500Y-12579000I-32500J0D01*
G01*
X9015500Y-12579000D02*
G75*
G02*
X9080500Y-12579000I32500J0D01*
G01*
X9214500Y-8330000D02*
G75*
G02*
X9149500Y-8330000I-32500J0D01*
G01*
X9149500Y-8330000D02*
G75*
G02*
X9214500Y-8330000I32500J0D01*
G01*
X9214500Y-8467000D02*
G75*
G02*
X9149500Y-8467000I-32500J0D01*
G01*
X9149500Y-8467000D02*
G75*
G02*
X9214500Y-8467000I32500J0D01*
G01*
X9214500Y-8604000D02*
G75*
G02*
X9149500Y-8604000I-32500J0D01*
G01*
X9149500Y-8604000D02*
G75*
G02*
X9214500Y-8604000I32500J0D01*
G01*
X9214500Y-8741000D02*
G75*
G02*
X9149500Y-8741000I-32500J0D01*
G01*
X9149500Y-8741000D02*
G75*
G02*
X9214500Y-8741000I32500J0D01*
G01*
X9214500Y-8878000D02*
G75*
G02*
X9149500Y-8878000I-32500J0D01*
G01*
X9149500Y-8878000D02*
G75*
G02*
X9214500Y-8878000I32500J0D01*
G01*
X9214500Y-9015000D02*
G75*
G02*
X9149500Y-9015000I-32500J0D01*
G01*
X9149500Y-9015000D02*
G75*
G02*
X9214500Y-9015000I32500J0D01*
G01*
X9214500Y-9152000D02*
G75*
G02*
X9149500Y-9152000I-32500J0D01*
G01*
X9149500Y-9152000D02*
G75*
G02*
X9214500Y-9152000I32500J0D01*
G01*
X9214500Y-9289000D02*
G75*
G02*
X9149500Y-9289000I-32500J0D01*
G01*
X9149500Y-9289000D02*
G75*
G02*
X9214500Y-9289000I32500J0D01*
G01*
X9214500Y-9426000D02*
G75*
G02*
X9149500Y-9426000I-32500J0D01*
G01*
X9149500Y-9426000D02*
G75*
G02*
X9214500Y-9426000I32500J0D01*
G01*
X9214500Y-9563000D02*
G75*
G02*
X9149500Y-9563000I-32500J0D01*
G01*
X9149500Y-9563000D02*
G75*
G02*
X9214500Y-9563000I32500J0D01*
G01*
X9214500Y-9700000D02*
G75*
G02*
X9149500Y-9700000I-32500J0D01*
G01*
X9149500Y-9700000D02*
G75*
G02*
X9214500Y-9700000I32500J0D01*
G01*
X9214500Y-9837000D02*
G75*
G02*
X9149500Y-9837000I-32500J0D01*
G01*
X9149500Y-9837000D02*
G75*
G02*
X9214500Y-9837000I32500J0D01*
G01*
X9214500Y-9974000D02*
G75*
G02*
X9149500Y-9974000I-32500J0D01*
G01*
X9149500Y-9974000D02*
G75*
G02*
X9214500Y-9974000I32500J0D01*
G01*
X9214500Y-10111000D02*
G75*
G02*
X9149500Y-10111000I-32500J0D01*
G01*
X9149500Y-10111000D02*
G75*
G02*
X9214500Y-10111000I32500J0D01*
G01*
X9214500Y-10248000D02*
G75*
G02*
X9149500Y-10248000I-32500J0D01*
G01*
X9149500Y-10248000D02*
G75*
G02*
X9214500Y-10248000I32500J0D01*
G01*
X9214500Y-10385000D02*
G75*
G02*
X9149500Y-10385000I-32500J0D01*
G01*
X9149500Y-10385000D02*
G75*
G02*
X9214500Y-10385000I32500J0D01*
G01*
X9214500Y-10522000D02*
G75*
G02*
X9149500Y-10522000I-32500J0D01*
G01*
X9149500Y-10522000D02*
G75*
G02*
X9214500Y-10522000I32500J0D01*
G01*
X9214500Y-10659000D02*
G75*
G02*
X9149500Y-10659000I-32500J0D01*
G01*
X9149500Y-10659000D02*
G75*
G02*
X9214500Y-10659000I32500J0D01*
G01*
X9214500Y-10796000D02*
G75*
G02*
X9149500Y-10796000I-32500J0D01*
G01*
X9149500Y-10796000D02*
G75*
G02*
X9214500Y-10796000I32500J0D01*
G01*
X9214500Y-10933000D02*
G75*
G02*
X9149500Y-10933000I-32500J0D01*
G01*
X9149500Y-10933000D02*
G75*
G02*
X9214500Y-10933000I32500J0D01*
G01*
X9214500Y-11070000D02*
G75*
G02*
X9149500Y-11070000I-32500J0D01*
G01*
X9149500Y-11070000D02*
G75*
G02*
X9214500Y-11070000I32500J0D01*
G01*
X9214500Y-11207000D02*
G75*
G02*
X9149500Y-11207000I-32500J0D01*
G01*
X9149500Y-11207000D02*
G75*
G02*
X9214500Y-11207000I32500J0D01*
G01*
X9214500Y-11344000D02*
G75*
G02*
X9149500Y-11344000I-32500J0D01*
G01*
X9149500Y-11344000D02*
G75*
G02*
X9214500Y-11344000I32500J0D01*
G01*
X9214500Y-11481000D02*
G75*
G02*
X9149500Y-11481000I-32500J0D01*
G01*
X9149500Y-11481000D02*
G75*
G02*
X9214500Y-11481000I32500J0D01*
G01*
X9216200Y-7371100D02*
G75*
G02*
X9151200Y-7371100I-32500J0D01*
G01*
X9151200Y-7371100D02*
G75*
G02*
X9216200Y-7371100I32500J0D01*
G01*
X9216200Y-7508100D02*
G75*
G02*
X9151200Y-7508100I-32500J0D01*
G01*
X9151200Y-7508100D02*
G75*
G02*
X9216200Y-7508100I32500J0D01*
G01*
X9216200Y-7645100D02*
G75*
G02*
X9151200Y-7645100I-32500J0D01*
G01*
X9151200Y-7645100D02*
G75*
G02*
X9216200Y-7645100I32500J0D01*
G01*
X9216200Y-7782100D02*
G75*
G02*
X9151200Y-7782100I-32500J0D01*
G01*
X9151200Y-7782100D02*
G75*
G02*
X9216200Y-7782100I32500J0D01*
G01*
X9216200Y-7919100D02*
G75*
G02*
X9151200Y-7919100I-32500J0D01*
G01*
X9151200Y-7919100D02*
G75*
G02*
X9216200Y-7919100I32500J0D01*
G01*
X9216200Y-8056100D02*
G75*
G02*
X9151200Y-8056100I-32500J0D01*
G01*
X9151200Y-8056100D02*
G75*
G02*
X9216200Y-8056100I32500J0D01*
G01*
X9216200Y-8193100D02*
G75*
G02*
X9151200Y-8193100I-32500J0D01*
G01*
X9151200Y-8193100D02*
G75*
G02*
X9216200Y-8193100I32500J0D01*
G01*
X9217500Y-11620000D02*
G75*
G02*
X9152500Y-11620000I-32500J0D01*
G01*
X9152500Y-11620000D02*
G75*
G02*
X9217500Y-11620000I32500J0D01*
G01*
X9217500Y-11757000D02*
G75*
G02*
X9152500Y-11757000I-32500J0D01*
G01*
X9152500Y-11757000D02*
G75*
G02*
X9217500Y-11757000I32500J0D01*
G01*
X9217500Y-11894000D02*
G75*
G02*
X9152500Y-11894000I-32500J0D01*
G01*
X9152500Y-11894000D02*
G75*
G02*
X9217500Y-11894000I32500J0D01*
G01*
X9217500Y-12031000D02*
G75*
G02*
X9152500Y-12031000I-32500J0D01*
G01*
X9152500Y-12031000D02*
G75*
G02*
X9217500Y-12031000I32500J0D01*
G01*
X9217500Y-12168000D02*
G75*
G02*
X9152500Y-12168000I-32500J0D01*
G01*
X9152500Y-12168000D02*
G75*
G02*
X9217500Y-12168000I32500J0D01*
G01*
X9217500Y-12305000D02*
G75*
G02*
X9152500Y-12305000I-32500J0D01*
G01*
X9152500Y-12305000D02*
G75*
G02*
X9217500Y-12305000I32500J0D01*
G01*
X9217500Y-12442000D02*
G75*
G02*
X9152500Y-12442000I-32500J0D01*
G01*
X9152500Y-12442000D02*
G75*
G02*
X9217500Y-12442000I32500J0D01*
G01*
X9217500Y-12579000D02*
G75*
G02*
X9152500Y-12579000I-32500J0D01*
G01*
X9152500Y-12579000D02*
G75*
G02*
X9217500Y-12579000I32500J0D01*
G01*
X9351500Y-8330000D02*
G75*
G02*
X9286500Y-8330000I-32500J0D01*
G01*
X9286500Y-8330000D02*
G75*
G02*
X9351500Y-8330000I32500J0D01*
G01*
X9351500Y-8467000D02*
G75*
G02*
X9286500Y-8467000I-32500J0D01*
G01*
X9286500Y-8467000D02*
G75*
G02*
X9351500Y-8467000I32500J0D01*
G01*
X9351500Y-8604000D02*
G75*
G02*
X9286500Y-8604000I-32500J0D01*
G01*
X9286500Y-8604000D02*
G75*
G02*
X9351500Y-8604000I32500J0D01*
G01*
X9351500Y-8741000D02*
G75*
G02*
X9286500Y-8741000I-32500J0D01*
G01*
X9286500Y-8741000D02*
G75*
G02*
X9351500Y-8741000I32500J0D01*
G01*
X9351500Y-8878000D02*
G75*
G02*
X9286500Y-8878000I-32500J0D01*
G01*
X9286500Y-8878000D02*
G75*
G02*
X9351500Y-8878000I32500J0D01*
G01*
X9351500Y-9015000D02*
G75*
G02*
X9286500Y-9015000I-32500J0D01*
G01*
X9286500Y-9015000D02*
G75*
G02*
X9351500Y-9015000I32500J0D01*
G01*
X9351500Y-9152000D02*
G75*
G02*
X9286500Y-9152000I-32500J0D01*
G01*
X9286500Y-9152000D02*
G75*
G02*
X9351500Y-9152000I32500J0D01*
G01*
X9351500Y-9289000D02*
G75*
G02*
X9286500Y-9289000I-32500J0D01*
G01*
X9286500Y-9289000D02*
G75*
G02*
X9351500Y-9289000I32500J0D01*
G01*
X9351500Y-9426000D02*
G75*
G02*
X9286500Y-9426000I-32500J0D01*
G01*
X9286500Y-9426000D02*
G75*
G02*
X9351500Y-9426000I32500J0D01*
G01*
X9351500Y-9563000D02*
G75*
G02*
X9286500Y-9563000I-32500J0D01*
G01*
X9286500Y-9563000D02*
G75*
G02*
X9351500Y-9563000I32500J0D01*
G01*
X9351500Y-9700000D02*
G75*
G02*
X9286500Y-9700000I-32500J0D01*
G01*
X9286500Y-9700000D02*
G75*
G02*
X9351500Y-9700000I32500J0D01*
G01*
X9351500Y-9837000D02*
G75*
G02*
X9286500Y-9837000I-32500J0D01*
G01*
X9286500Y-9837000D02*
G75*
G02*
X9351500Y-9837000I32500J0D01*
G01*
X9351500Y-9974000D02*
G75*
G02*
X9286500Y-9974000I-32500J0D01*
G01*
X9286500Y-9974000D02*
G75*
G02*
X9351500Y-9974000I32500J0D01*
G01*
X9351500Y-10111000D02*
G75*
G02*
X9286500Y-10111000I-32500J0D01*
G01*
X9286500Y-10111000D02*
G75*
G02*
X9351500Y-10111000I32500J0D01*
G01*
X9351500Y-10248000D02*
G75*
G02*
X9286500Y-10248000I-32500J0D01*
G01*
X9286500Y-10248000D02*
G75*
G02*
X9351500Y-10248000I32500J0D01*
G01*
X9351500Y-10385000D02*
G75*
G02*
X9286500Y-10385000I-32500J0D01*
G01*
X9286500Y-10385000D02*
G75*
G02*
X9351500Y-10385000I32500J0D01*
G01*
X9351500Y-10522000D02*
G75*
G02*
X9286500Y-10522000I-32500J0D01*
G01*
X9286500Y-10522000D02*
G75*
G02*
X9351500Y-10522000I32500J0D01*
G01*
X9351500Y-10659000D02*
G75*
G02*
X9286500Y-10659000I-32500J0D01*
G01*
X9286500Y-10659000D02*
G75*
G02*
X9351500Y-10659000I32500J0D01*
G01*
X9351500Y-10796000D02*
G75*
G02*
X9286500Y-10796000I-32500J0D01*
G01*
X9286500Y-10796000D02*
G75*
G02*
X9351500Y-10796000I32500J0D01*
G01*
X9351500Y-10933000D02*
G75*
G02*
X9286500Y-10933000I-32500J0D01*
G01*
X9286500Y-10933000D02*
G75*
G02*
X9351500Y-10933000I32500J0D01*
G01*
X9351500Y-11070000D02*
G75*
G02*
X9286500Y-11070000I-32500J0D01*
G01*
X9286500Y-11070000D02*
G75*
G02*
X9351500Y-11070000I32500J0D01*
G01*
X9351500Y-11207000D02*
G75*
G02*
X9286500Y-11207000I-32500J0D01*
G01*
X9286500Y-11207000D02*
G75*
G02*
X9351500Y-11207000I32500J0D01*
G01*
X9351500Y-11344000D02*
G75*
G02*
X9286500Y-11344000I-32500J0D01*
G01*
X9286500Y-11344000D02*
G75*
G02*
X9351500Y-11344000I32500J0D01*
G01*
X9351500Y-11481000D02*
G75*
G02*
X9286500Y-11481000I-32500J0D01*
G01*
X9286500Y-11481000D02*
G75*
G02*
X9351500Y-11481000I32500J0D01*
G01*
X9353200Y-7371100D02*
G75*
G02*
X9288200Y-7371100I-32500J0D01*
G01*
X9288200Y-7371100D02*
G75*
G02*
X9353200Y-7371100I32500J0D01*
G01*
X9353200Y-7508100D02*
G75*
G02*
X9288200Y-7508100I-32500J0D01*
G01*
X9288200Y-7508100D02*
G75*
G02*
X9353200Y-7508100I32500J0D01*
G01*
X9353200Y-7645100D02*
G75*
G02*
X9288200Y-7645100I-32500J0D01*
G01*
X9288200Y-7645100D02*
G75*
G02*
X9353200Y-7645100I32500J0D01*
G01*
X9353200Y-7782100D02*
G75*
G02*
X9288200Y-7782100I-32500J0D01*
G01*
X9288200Y-7782100D02*
G75*
G02*
X9353200Y-7782100I32500J0D01*
G01*
X9353200Y-7919100D02*
G75*
G02*
X9288200Y-7919100I-32500J0D01*
G01*
X9288200Y-7919100D02*
G75*
G02*
X9353200Y-7919100I32500J0D01*
G01*
X9353200Y-8056100D02*
G75*
G02*
X9288200Y-8056100I-32500J0D01*
G01*
X9288200Y-8056100D02*
G75*
G02*
X9353200Y-8056100I32500J0D01*
G01*
X9353200Y-8193100D02*
G75*
G02*
X9288200Y-8193100I-32500J0D01*
G01*
X9288200Y-8193100D02*
G75*
G02*
X9353200Y-8193100I32500J0D01*
G01*
X9354500Y-11620000D02*
G75*
G02*
X9289500Y-11620000I-32500J0D01*
G01*
X9289500Y-11620000D02*
G75*
G02*
X9354500Y-11620000I32500J0D01*
G01*
X9354500Y-11757000D02*
G75*
G02*
X9289500Y-11757000I-32500J0D01*
G01*
X9289500Y-11757000D02*
G75*
G02*
X9354500Y-11757000I32500J0D01*
G01*
X9354500Y-11894000D02*
G75*
G02*
X9289500Y-11894000I-32500J0D01*
G01*
X9289500Y-11894000D02*
G75*
G02*
X9354500Y-11894000I32500J0D01*
G01*
X9354500Y-12031000D02*
G75*
G02*
X9289500Y-12031000I-32500J0D01*
G01*
X9289500Y-12031000D02*
G75*
G02*
X9354500Y-12031000I32500J0D01*
G01*
X9354500Y-12168000D02*
G75*
G02*
X9289500Y-12168000I-32500J0D01*
G01*
X9289500Y-12168000D02*
G75*
G02*
X9354500Y-12168000I32500J0D01*
G01*
X9354500Y-12305000D02*
G75*
G02*
X9289500Y-12305000I-32500J0D01*
G01*
X9289500Y-12305000D02*
G75*
G02*
X9354500Y-12305000I32500J0D01*
G01*
X9354500Y-12442000D02*
G75*
G02*
X9289500Y-12442000I-32500J0D01*
G01*
X9289500Y-12442000D02*
G75*
G02*
X9354500Y-12442000I32500J0D01*
G01*
X9354500Y-12579000D02*
G75*
G02*
X9289500Y-12579000I-32500J0D01*
G01*
X9289500Y-12579000D02*
G75*
G02*
X9354500Y-12579000I32500J0D01*
G01*
X9488500Y-8330000D02*
G75*
G02*
X9423500Y-8330000I-32500J0D01*
G01*
X9423500Y-8330000D02*
G75*
G02*
X9488500Y-8330000I32500J0D01*
G01*
X9488500Y-8467000D02*
G75*
G02*
X9423500Y-8467000I-32500J0D01*
G01*
X9423500Y-8467000D02*
G75*
G02*
X9488500Y-8467000I32500J0D01*
G01*
X9488500Y-8604000D02*
G75*
G02*
X9423500Y-8604000I-32500J0D01*
G01*
X9423500Y-8604000D02*
G75*
G02*
X9488500Y-8604000I32500J0D01*
G01*
X9488500Y-8741000D02*
G75*
G02*
X9423500Y-8741000I-32500J0D01*
G01*
X9423500Y-8741000D02*
G75*
G02*
X9488500Y-8741000I32500J0D01*
G01*
X9488500Y-8878000D02*
G75*
G02*
X9423500Y-8878000I-32500J0D01*
G01*
X9423500Y-8878000D02*
G75*
G02*
X9488500Y-8878000I32500J0D01*
G01*
X9488500Y-9015000D02*
G75*
G02*
X9423500Y-9015000I-32500J0D01*
G01*
X9423500Y-9015000D02*
G75*
G02*
X9488500Y-9015000I32500J0D01*
G01*
X9488500Y-9152000D02*
G75*
G02*
X9423500Y-9152000I-32500J0D01*
G01*
X9423500Y-9152000D02*
G75*
G02*
X9488500Y-9152000I32500J0D01*
G01*
X9488500Y-9289000D02*
G75*
G02*
X9423500Y-9289000I-32500J0D01*
G01*
X9423500Y-9289000D02*
G75*
G02*
X9488500Y-9289000I32500J0D01*
G01*
X9488500Y-9426000D02*
G75*
G02*
X9423500Y-9426000I-32500J0D01*
G01*
X9423500Y-9426000D02*
G75*
G02*
X9488500Y-9426000I32500J0D01*
G01*
X9488500Y-9563000D02*
G75*
G02*
X9423500Y-9563000I-32500J0D01*
G01*
X9423500Y-9563000D02*
G75*
G02*
X9488500Y-9563000I32500J0D01*
G01*
X9488500Y-9700000D02*
G75*
G02*
X9423500Y-9700000I-32500J0D01*
G01*
X9423500Y-9700000D02*
G75*
G02*
X9488500Y-9700000I32500J0D01*
G01*
X9488500Y-9837000D02*
G75*
G02*
X9423500Y-9837000I-32500J0D01*
G01*
X9423500Y-9837000D02*
G75*
G02*
X9488500Y-9837000I32500J0D01*
G01*
X9488500Y-9974000D02*
G75*
G02*
X9423500Y-9974000I-32500J0D01*
G01*
X9423500Y-9974000D02*
G75*
G02*
X9488500Y-9974000I32500J0D01*
G01*
X9488500Y-10111000D02*
G75*
G02*
X9423500Y-10111000I-32500J0D01*
G01*
X9423500Y-10111000D02*
G75*
G02*
X9488500Y-10111000I32500J0D01*
G01*
X9488500Y-10248000D02*
G75*
G02*
X9423500Y-10248000I-32500J0D01*
G01*
X9423500Y-10248000D02*
G75*
G02*
X9488500Y-10248000I32500J0D01*
G01*
X9488500Y-10385000D02*
G75*
G02*
X9423500Y-10385000I-32500J0D01*
G01*
X9423500Y-10385000D02*
G75*
G02*
X9488500Y-10385000I32500J0D01*
G01*
X9488500Y-10522000D02*
G75*
G02*
X9423500Y-10522000I-32500J0D01*
G01*
X9423500Y-10522000D02*
G75*
G02*
X9488500Y-10522000I32500J0D01*
G01*
X9488500Y-10659000D02*
G75*
G02*
X9423500Y-10659000I-32500J0D01*
G01*
X9423500Y-10659000D02*
G75*
G02*
X9488500Y-10659000I32500J0D01*
G01*
X9488500Y-10796000D02*
G75*
G02*
X9423500Y-10796000I-32500J0D01*
G01*
X9423500Y-10796000D02*
G75*
G02*
X9488500Y-10796000I32500J0D01*
G01*
X9488500Y-10933000D02*
G75*
G02*
X9423500Y-10933000I-32500J0D01*
G01*
X9423500Y-10933000D02*
G75*
G02*
X9488500Y-10933000I32500J0D01*
G01*
X9488500Y-11070000D02*
G75*
G02*
X9423500Y-11070000I-32500J0D01*
G01*
X9423500Y-11070000D02*
G75*
G02*
X9488500Y-11070000I32500J0D01*
G01*
X9488500Y-11207000D02*
G75*
G02*
X9423500Y-11207000I-32500J0D01*
G01*
X9423500Y-11207000D02*
G75*
G02*
X9488500Y-11207000I32500J0D01*
G01*
X9488500Y-11344000D02*
G75*
G02*
X9423500Y-11344000I-32500J0D01*
G01*
X9423500Y-11344000D02*
G75*
G02*
X9488500Y-11344000I32500J0D01*
G01*
X9488500Y-11481000D02*
G75*
G02*
X9423500Y-11481000I-32500J0D01*
G01*
X9423500Y-11481000D02*
G75*
G02*
X9488500Y-11481000I32500J0D01*
G01*
X9490200Y-7371100D02*
G75*
G02*
X9425200Y-7371100I-32500J0D01*
G01*
X9425200Y-7371100D02*
G75*
G02*
X9490200Y-7371100I32500J0D01*
G01*
X9490200Y-7508100D02*
G75*
G02*
X9425200Y-7508100I-32500J0D01*
G01*
X9425200Y-7508100D02*
G75*
G02*
X9490200Y-7508100I32500J0D01*
G01*
X9490200Y-7645100D02*
G75*
G02*
X9425200Y-7645100I-32500J0D01*
G01*
X9425200Y-7645100D02*
G75*
G02*
X9490200Y-7645100I32500J0D01*
G01*
X9490200Y-7782100D02*
G75*
G02*
X9425200Y-7782100I-32500J0D01*
G01*
X9425200Y-7782100D02*
G75*
G02*
X9490200Y-7782100I32500J0D01*
G01*
X9490200Y-7919100D02*
G75*
G02*
X9425200Y-7919100I-32500J0D01*
G01*
X9425200Y-7919100D02*
G75*
G02*
X9490200Y-7919100I32500J0D01*
G01*
X9490200Y-8056100D02*
G75*
G02*
X9425200Y-8056100I-32500J0D01*
G01*
X9425200Y-8056100D02*
G75*
G02*
X9490200Y-8056100I32500J0D01*
G01*
X9490200Y-8193100D02*
G75*
G02*
X9425200Y-8193100I-32500J0D01*
G01*
X9425200Y-8193100D02*
G75*
G02*
X9490200Y-8193100I32500J0D01*
G01*
X9491500Y-11620000D02*
G75*
G02*
X9426500Y-11620000I-32500J0D01*
G01*
X9426500Y-11620000D02*
G75*
G02*
X9491500Y-11620000I32500J0D01*
G01*
X9491500Y-11757000D02*
G75*
G02*
X9426500Y-11757000I-32500J0D01*
G01*
X9426500Y-11757000D02*
G75*
G02*
X9491500Y-11757000I32500J0D01*
G01*
X9491500Y-11894000D02*
G75*
G02*
X9426500Y-11894000I-32500J0D01*
G01*
X9426500Y-11894000D02*
G75*
G02*
X9491500Y-11894000I32500J0D01*
G01*
X9491500Y-12031000D02*
G75*
G02*
X9426500Y-12031000I-32500J0D01*
G01*
X9426500Y-12031000D02*
G75*
G02*
X9491500Y-12031000I32500J0D01*
G01*
X9491500Y-12168000D02*
G75*
G02*
X9426500Y-12168000I-32500J0D01*
G01*
X9426500Y-12168000D02*
G75*
G02*
X9491500Y-12168000I32500J0D01*
G01*
X9491500Y-12305000D02*
G75*
G02*
X9426500Y-12305000I-32500J0D01*
G01*
X9426500Y-12305000D02*
G75*
G02*
X9491500Y-12305000I32500J0D01*
G01*
X9491500Y-12442000D02*
G75*
G02*
X9426500Y-12442000I-32500J0D01*
G01*
X9426500Y-12442000D02*
G75*
G02*
X9491500Y-12442000I32500J0D01*
G01*
X9491500Y-12579000D02*
G75*
G02*
X9426500Y-12579000I-32500J0D01*
G01*
X9426500Y-12579000D02*
G75*
G02*
X9491500Y-12579000I32500J0D01*
G01*
X9625500Y-8330000D02*
G75*
G02*
X9560500Y-8330000I-32500J0D01*
G01*
X9560500Y-8330000D02*
G75*
G02*
X9625500Y-8330000I32500J0D01*
G01*
X9625500Y-8467000D02*
G75*
G02*
X9560500Y-8467000I-32500J0D01*
G01*
X9560500Y-8467000D02*
G75*
G02*
X9625500Y-8467000I32500J0D01*
G01*
X9625500Y-8604000D02*
G75*
G02*
X9560500Y-8604000I-32500J0D01*
G01*
X9560500Y-8604000D02*
G75*
G02*
X9625500Y-8604000I32500J0D01*
G01*
X9625500Y-8741000D02*
G75*
G02*
X9560500Y-8741000I-32500J0D01*
G01*
X9560500Y-8741000D02*
G75*
G02*
X9625500Y-8741000I32500J0D01*
G01*
X9625500Y-8878000D02*
G75*
G02*
X9560500Y-8878000I-32500J0D01*
G01*
X9560500Y-8878000D02*
G75*
G02*
X9625500Y-8878000I32500J0D01*
G01*
X9625500Y-9015000D02*
G75*
G02*
X9560500Y-9015000I-32500J0D01*
G01*
X9560500Y-9015000D02*
G75*
G02*
X9625500Y-9015000I32500J0D01*
G01*
X9625500Y-9152000D02*
G75*
G02*
X9560500Y-9152000I-32500J0D01*
G01*
X9560500Y-9152000D02*
G75*
G02*
X9625500Y-9152000I32500J0D01*
G01*
X9625500Y-9289000D02*
G75*
G02*
X9560500Y-9289000I-32500J0D01*
G01*
X9560500Y-9289000D02*
G75*
G02*
X9625500Y-9289000I32500J0D01*
G01*
X9625500Y-9426000D02*
G75*
G02*
X9560500Y-9426000I-32500J0D01*
G01*
X9560500Y-9426000D02*
G75*
G02*
X9625500Y-9426000I32500J0D01*
G01*
X9625500Y-9563000D02*
G75*
G02*
X9560500Y-9563000I-32500J0D01*
G01*
X9560500Y-9563000D02*
G75*
G02*
X9625500Y-9563000I32500J0D01*
G01*
X9625500Y-9700000D02*
G75*
G02*
X9560500Y-9700000I-32500J0D01*
G01*
X9560500Y-9700000D02*
G75*
G02*
X9625500Y-9700000I32500J0D01*
G01*
X9625500Y-9837000D02*
G75*
G02*
X9560500Y-9837000I-32500J0D01*
G01*
X9560500Y-9837000D02*
G75*
G02*
X9625500Y-9837000I32500J0D01*
G01*
X9625500Y-9974000D02*
G75*
G02*
X9560500Y-9974000I-32500J0D01*
G01*
X9560500Y-9974000D02*
G75*
G02*
X9625500Y-9974000I32500J0D01*
G01*
X9625500Y-10111000D02*
G75*
G02*
X9560500Y-10111000I-32500J0D01*
G01*
X9560500Y-10111000D02*
G75*
G02*
X9625500Y-10111000I32500J0D01*
G01*
X9625500Y-10248000D02*
G75*
G02*
X9560500Y-10248000I-32500J0D01*
G01*
X9560500Y-10248000D02*
G75*
G02*
X9625500Y-10248000I32500J0D01*
G01*
X9625500Y-10385000D02*
G75*
G02*
X9560500Y-10385000I-32500J0D01*
G01*
X9560500Y-10385000D02*
G75*
G02*
X9625500Y-10385000I32500J0D01*
G01*
X9625500Y-10522000D02*
G75*
G02*
X9560500Y-10522000I-32500J0D01*
G01*
X9560500Y-10522000D02*
G75*
G02*
X9625500Y-10522000I32500J0D01*
G01*
X9625500Y-10659000D02*
G75*
G02*
X9560500Y-10659000I-32500J0D01*
G01*
X9560500Y-10659000D02*
G75*
G02*
X9625500Y-10659000I32500J0D01*
G01*
X9625500Y-10796000D02*
G75*
G02*
X9560500Y-10796000I-32500J0D01*
G01*
X9560500Y-10796000D02*
G75*
G02*
X9625500Y-10796000I32500J0D01*
G01*
X9625500Y-10933000D02*
G75*
G02*
X9560500Y-10933000I-32500J0D01*
G01*
X9560500Y-10933000D02*
G75*
G02*
X9625500Y-10933000I32500J0D01*
G01*
X9625500Y-11070000D02*
G75*
G02*
X9560500Y-11070000I-32500J0D01*
G01*
X9560500Y-11070000D02*
G75*
G02*
X9625500Y-11070000I32500J0D01*
G01*
X9625500Y-11207000D02*
G75*
G02*
X9560500Y-11207000I-32500J0D01*
G01*
X9560500Y-11207000D02*
G75*
G02*
X9625500Y-11207000I32500J0D01*
G01*
X9625500Y-11344000D02*
G75*
G02*
X9560500Y-11344000I-32500J0D01*
G01*
X9560500Y-11344000D02*
G75*
G02*
X9625500Y-11344000I32500J0D01*
G01*
X9625500Y-11481000D02*
G75*
G02*
X9560500Y-11481000I-32500J0D01*
G01*
X9560500Y-11481000D02*
G75*
G02*
X9625500Y-11481000I32500J0D01*
G01*
X9627200Y-7371100D02*
G75*
G02*
X9562200Y-7371100I-32500J0D01*
G01*
X9562200Y-7371100D02*
G75*
G02*
X9627200Y-7371100I32500J0D01*
G01*
X9627200Y-7508100D02*
G75*
G02*
X9562200Y-7508100I-32500J0D01*
G01*
X9562200Y-7508100D02*
G75*
G02*
X9627200Y-7508100I32500J0D01*
G01*
X9627200Y-7645100D02*
G75*
G02*
X9562200Y-7645100I-32500J0D01*
G01*
X9562200Y-7645100D02*
G75*
G02*
X9627200Y-7645100I32500J0D01*
G01*
X9627200Y-7782100D02*
G75*
G02*
X9562200Y-7782100I-32500J0D01*
G01*
X9562200Y-7782100D02*
G75*
G02*
X9627200Y-7782100I32500J0D01*
G01*
X9627200Y-7919100D02*
G75*
G02*
X9562200Y-7919100I-32500J0D01*
G01*
X9562200Y-7919100D02*
G75*
G02*
X9627200Y-7919100I32500J0D01*
G01*
X9627200Y-8056100D02*
G75*
G02*
X9562200Y-8056100I-32500J0D01*
G01*
X9562200Y-8056100D02*
G75*
G02*
X9627200Y-8056100I32500J0D01*
G01*
X9627200Y-8193100D02*
G75*
G02*
X9562200Y-8193100I-32500J0D01*
G01*
X9562200Y-8193100D02*
G75*
G02*
X9627200Y-8193100I32500J0D01*
G01*
X9628500Y-11620000D02*
G75*
G02*
X9563500Y-11620000I-32500J0D01*
G01*
X9563500Y-11620000D02*
G75*
G02*
X9628500Y-11620000I32500J0D01*
G01*
X9628500Y-11757000D02*
G75*
G02*
X9563500Y-11757000I-32500J0D01*
G01*
X9563500Y-11757000D02*
G75*
G02*
X9628500Y-11757000I32500J0D01*
G01*
X9628500Y-11894000D02*
G75*
G02*
X9563500Y-11894000I-32500J0D01*
G01*
X9563500Y-11894000D02*
G75*
G02*
X9628500Y-11894000I32500J0D01*
G01*
X9628500Y-12031000D02*
G75*
G02*
X9563500Y-12031000I-32500J0D01*
G01*
X9563500Y-12031000D02*
G75*
G02*
X9628500Y-12031000I32500J0D01*
G01*
X9628500Y-12168000D02*
G75*
G02*
X9563500Y-12168000I-32500J0D01*
G01*
X9563500Y-12168000D02*
G75*
G02*
X9628500Y-12168000I32500J0D01*
G01*
X9628500Y-12305000D02*
G75*
G02*
X9563500Y-12305000I-32500J0D01*
G01*
X9563500Y-12305000D02*
G75*
G02*
X9628500Y-12305000I32500J0D01*
G01*
X9628500Y-12442000D02*
G75*
G02*
X9563500Y-12442000I-32500J0D01*
G01*
X9563500Y-12442000D02*
G75*
G02*
X9628500Y-12442000I32500J0D01*
G01*
X9628500Y-12579000D02*
G75*
G02*
X9563500Y-12579000I-32500J0D01*
G01*
X9563500Y-12579000D02*
G75*
G02*
X9628500Y-12579000I32500J0D01*
G01*
X9764200Y-7371100D02*
G75*
G02*
X9699200Y-7371100I-32500J0D01*
G01*
X9699200Y-7371100D02*
G75*
G02*
X9764200Y-7371100I32500J0D01*
G01*
X9764200Y-7508100D02*
G75*
G02*
X9699200Y-7508100I-32500J0D01*
G01*
X9699200Y-7508100D02*
G75*
G02*
X9764200Y-7508100I32500J0D01*
G01*
X9764200Y-7645100D02*
G75*
G02*
X9699200Y-7645100I-32500J0D01*
G01*
X9699200Y-7645100D02*
G75*
G02*
X9764200Y-7645100I32500J0D01*
G01*
X9764200Y-7782100D02*
G75*
G02*
X9699200Y-7782100I-32500J0D01*
G01*
X9699200Y-7782100D02*
G75*
G02*
X9764200Y-7782100I32500J0D01*
G01*
X9764200Y-7919100D02*
G75*
G02*
X9699200Y-7919100I-32500J0D01*
G01*
X9699200Y-7919100D02*
G75*
G02*
X9764200Y-7919100I32500J0D01*
G01*
X9764200Y-8056100D02*
G75*
G02*
X9699200Y-8056100I-32500J0D01*
G01*
X9699200Y-8056100D02*
G75*
G02*
X9764200Y-8056100I32500J0D01*
G01*
X9764200Y-8193100D02*
G75*
G02*
X9699200Y-8193100I-32500J0D01*
G01*
X9699200Y-8193100D02*
G75*
G02*
X9764200Y-8193100I32500J0D01*
G01*
X9765500Y-11620000D02*
G75*
G02*
X9700500Y-11620000I-32500J0D01*
G01*
X9700500Y-11620000D02*
G75*
G02*
X9765500Y-11620000I32500J0D01*
G01*
X9765500Y-11757000D02*
G75*
G02*
X9700500Y-11757000I-32500J0D01*
G01*
X9700500Y-11757000D02*
G75*
G02*
X9765500Y-11757000I32500J0D01*
G01*
X9765500Y-11894000D02*
G75*
G02*
X9700500Y-11894000I-32500J0D01*
G01*
X9700500Y-11894000D02*
G75*
G02*
X9765500Y-11894000I32500J0D01*
G01*
X9765500Y-12031000D02*
G75*
G02*
X9700500Y-12031000I-32500J0D01*
G01*
X9700500Y-12031000D02*
G75*
G02*
X9765500Y-12031000I32500J0D01*
G01*
X9765500Y-12168000D02*
G75*
G02*
X9700500Y-12168000I-32500J0D01*
G01*
X9700500Y-12168000D02*
G75*
G02*
X9765500Y-12168000I32500J0D01*
G01*
X9765500Y-12305000D02*
G75*
G02*
X9700500Y-12305000I-32500J0D01*
G01*
X9700500Y-12305000D02*
G75*
G02*
X9765500Y-12305000I32500J0D01*
G01*
X9765500Y-12442000D02*
G75*
G02*
X9700500Y-12442000I-32500J0D01*
G01*
X9700500Y-12442000D02*
G75*
G02*
X9765500Y-12442000I32500J0D01*
G01*
X9765500Y-12579000D02*
G75*
G02*
X9700500Y-12579000I-32500J0D01*
G01*
X9700500Y-12579000D02*
G75*
G02*
X9765500Y-12579000I32500J0D01*
G01*
X9901200Y-7371100D02*
G75*
G02*
X9836200Y-7371100I-32500J0D01*
G01*
X9836200Y-7371100D02*
G75*
G02*
X9901200Y-7371100I32500J0D01*
G01*
X9901200Y-7508100D02*
G75*
G02*
X9836200Y-7508100I-32500J0D01*
G01*
X9836200Y-7508100D02*
G75*
G02*
X9901200Y-7508100I32500J0D01*
G01*
X9901200Y-7645100D02*
G75*
G02*
X9836200Y-7645100I-32500J0D01*
G01*
X9836200Y-7645100D02*
G75*
G02*
X9901200Y-7645100I32500J0D01*
G01*
X9901200Y-7782100D02*
G75*
G02*
X9836200Y-7782100I-32500J0D01*
G01*
X9836200Y-7782100D02*
G75*
G02*
X9901200Y-7782100I32500J0D01*
G01*
X9901200Y-7919100D02*
G75*
G02*
X9836200Y-7919100I-32500J0D01*
G01*
X9836200Y-7919100D02*
G75*
G02*
X9901200Y-7919100I32500J0D01*
G01*
X9901200Y-8056100D02*
G75*
G02*
X9836200Y-8056100I-32500J0D01*
G01*
X9836200Y-8056100D02*
G75*
G02*
X9901200Y-8056100I32500J0D01*
G01*
X9901200Y-8193100D02*
G75*
G02*
X9836200Y-8193100I-32500J0D01*
G01*
X9836200Y-8193100D02*
G75*
G02*
X9901200Y-8193100I32500J0D01*
G01*
X9902500Y-11620000D02*
G75*
G02*
X9837500Y-11620000I-32500J0D01*
G01*
X9837500Y-11620000D02*
G75*
G02*
X9902500Y-11620000I32500J0D01*
G01*
X9902500Y-11757000D02*
G75*
G02*
X9837500Y-11757000I-32500J0D01*
G01*
X9837500Y-11757000D02*
G75*
G02*
X9902500Y-11757000I32500J0D01*
G01*
X9902500Y-11894000D02*
G75*
G02*
X9837500Y-11894000I-32500J0D01*
G01*
X9837500Y-11894000D02*
G75*
G02*
X9902500Y-11894000I32500J0D01*
G01*
X9902500Y-12031000D02*
G75*
G02*
X9837500Y-12031000I-32500J0D01*
G01*
X9837500Y-12031000D02*
G75*
G02*
X9902500Y-12031000I32500J0D01*
G01*
X9902500Y-12168000D02*
G75*
G02*
X9837500Y-12168000I-32500J0D01*
G01*
X9837500Y-12168000D02*
G75*
G02*
X9902500Y-12168000I32500J0D01*
G01*
X9902500Y-12305000D02*
G75*
G02*
X9837500Y-12305000I-32500J0D01*
G01*
X9837500Y-12305000D02*
G75*
G02*
X9902500Y-12305000I32500J0D01*
G01*
X9902500Y-12442000D02*
G75*
G02*
X9837500Y-12442000I-32500J0D01*
G01*
X9837500Y-12442000D02*
G75*
G02*
X9902500Y-12442000I32500J0D01*
G01*
X9902500Y-12579000D02*
G75*
G02*
X9837500Y-12579000I-32500J0D01*
G01*
X9837500Y-12579000D02*
G75*
G02*
X9902500Y-12579000I32500J0D01*
G01*
X10038200Y-7371100D02*
G75*
G02*
X9973200Y-7371100I-32500J0D01*
G01*
X9973200Y-7371100D02*
G75*
G02*
X10038200Y-7371100I32500J0D01*
G01*
X10038200Y-7508100D02*
G75*
G02*
X9973200Y-7508100I-32500J0D01*
G01*
X9973200Y-7508100D02*
G75*
G02*
X10038200Y-7508100I32500J0D01*
G01*
X10038200Y-7645100D02*
G75*
G02*
X9973200Y-7645100I-32500J0D01*
G01*
X9973200Y-7645100D02*
G75*
G02*
X10038200Y-7645100I32500J0D01*
G01*
X10038200Y-7782100D02*
G75*
G02*
X9973200Y-7782100I-32500J0D01*
G01*
X9973200Y-7782100D02*
G75*
G02*
X10038200Y-7782100I32500J0D01*
G01*
X10038200Y-7919100D02*
G75*
G02*
X9973200Y-7919100I-32500J0D01*
G01*
X9973200Y-7919100D02*
G75*
G02*
X10038200Y-7919100I32500J0D01*
G01*
X10038200Y-8056100D02*
G75*
G02*
X9973200Y-8056100I-32500J0D01*
G01*
X9973200Y-8056100D02*
G75*
G02*
X10038200Y-8056100I32500J0D01*
G01*
X10038200Y-8193100D02*
G75*
G02*
X9973200Y-8193100I-32500J0D01*
G01*
X9973200Y-8193100D02*
G75*
G02*
X10038200Y-8193100I32500J0D01*
G01*
X10039500Y-11620000D02*
G75*
G02*
X9974500Y-11620000I-32500J0D01*
G01*
X9974500Y-11620000D02*
G75*
G02*
X10039500Y-11620000I32500J0D01*
G01*
X10039500Y-11757000D02*
G75*
G02*
X9974500Y-11757000I-32500J0D01*
G01*
X9974500Y-11757000D02*
G75*
G02*
X10039500Y-11757000I32500J0D01*
G01*
X10039500Y-11894000D02*
G75*
G02*
X9974500Y-11894000I-32500J0D01*
G01*
X9974500Y-11894000D02*
G75*
G02*
X10039500Y-11894000I32500J0D01*
G01*
X10039500Y-12031000D02*
G75*
G02*
X9974500Y-12031000I-32500J0D01*
G01*
X9974500Y-12031000D02*
G75*
G02*
X10039500Y-12031000I32500J0D01*
G01*
X10039500Y-12168000D02*
G75*
G02*
X9974500Y-12168000I-32500J0D01*
G01*
X9974500Y-12168000D02*
G75*
G02*
X10039500Y-12168000I32500J0D01*
G01*
X10039500Y-12305000D02*
G75*
G02*
X9974500Y-12305000I-32500J0D01*
G01*
X9974500Y-12305000D02*
G75*
G02*
X10039500Y-12305000I32500J0D01*
G01*
X10039500Y-12442000D02*
G75*
G02*
X9974500Y-12442000I-32500J0D01*
G01*
X9974500Y-12442000D02*
G75*
G02*
X10039500Y-12442000I32500J0D01*
G01*
X10039500Y-12579000D02*
G75*
G02*
X9974500Y-12579000I-32500J0D01*
G01*
X9974500Y-12579000D02*
G75*
G02*
X10039500Y-12579000I32500J0D01*
G01*
X10175200Y-7371100D02*
G75*
G02*
X10110200Y-7371100I-32500J0D01*
G01*
X10110200Y-7371100D02*
G75*
G02*
X10175200Y-7371100I32500J0D01*
G01*
X10175200Y-7508100D02*
G75*
G02*
X10110200Y-7508100I-32500J0D01*
G01*
X10110200Y-7508100D02*
G75*
G02*
X10175200Y-7508100I32500J0D01*
G01*
X10175200Y-7645100D02*
G75*
G02*
X10110200Y-7645100I-32500J0D01*
G01*
X10110200Y-7645100D02*
G75*
G02*
X10175200Y-7645100I32500J0D01*
G01*
X10175200Y-7782100D02*
G75*
G02*
X10110200Y-7782100I-32500J0D01*
G01*
X10110200Y-7782100D02*
G75*
G02*
X10175200Y-7782100I32500J0D01*
G01*
X10175200Y-7919100D02*
G75*
G02*
X10110200Y-7919100I-32500J0D01*
G01*
X10110200Y-7919100D02*
G75*
G02*
X10175200Y-7919100I32500J0D01*
G01*
X10175200Y-8056100D02*
G75*
G02*
X10110200Y-8056100I-32500J0D01*
G01*
X10110200Y-8056100D02*
G75*
G02*
X10175200Y-8056100I32500J0D01*
G01*
X10175200Y-8193100D02*
G75*
G02*
X10110200Y-8193100I-32500J0D01*
G01*
X10110200Y-8193100D02*
G75*
G02*
X10175200Y-8193100I32500J0D01*
G01*
X10176500Y-11620000D02*
G75*
G02*
X10111500Y-11620000I-32500J0D01*
G01*
X10111500Y-11620000D02*
G75*
G02*
X10176500Y-11620000I32500J0D01*
G01*
X10176500Y-11757000D02*
G75*
G02*
X10111500Y-11757000I-32500J0D01*
G01*
X10111500Y-11757000D02*
G75*
G02*
X10176500Y-11757000I32500J0D01*
G01*
X10176500Y-11894000D02*
G75*
G02*
X10111500Y-11894000I-32500J0D01*
G01*
X10111500Y-11894000D02*
G75*
G02*
X10176500Y-11894000I32500J0D01*
G01*
X10176500Y-12031000D02*
G75*
G02*
X10111500Y-12031000I-32500J0D01*
G01*
X10111500Y-12031000D02*
G75*
G02*
X10176500Y-12031000I32500J0D01*
G01*
X10176500Y-12168000D02*
G75*
G02*
X10111500Y-12168000I-32500J0D01*
G01*
X10111500Y-12168000D02*
G75*
G02*
X10176500Y-12168000I32500J0D01*
G01*
X10176500Y-12305000D02*
G75*
G02*
X10111500Y-12305000I-32500J0D01*
G01*
X10111500Y-12305000D02*
G75*
G02*
X10176500Y-12305000I32500J0D01*
G01*
X10176500Y-12442000D02*
G75*
G02*
X10111500Y-12442000I-32500J0D01*
G01*
X10111500Y-12442000D02*
G75*
G02*
X10176500Y-12442000I32500J0D01*
G01*
X10176500Y-12579000D02*
G75*
G02*
X10111500Y-12579000I-32500J0D01*
G01*
X10111500Y-12579000D02*
G75*
G02*
X10176500Y-12579000I32500J0D01*
G01*
X10312200Y-7371100D02*
G75*
G02*
X10247200Y-7371100I-32500J0D01*
G01*
X10247200Y-7371100D02*
G75*
G02*
X10312200Y-7371100I32500J0D01*
G01*
X10312200Y-7508100D02*
G75*
G02*
X10247200Y-7508100I-32500J0D01*
G01*
X10247200Y-7508100D02*
G75*
G02*
X10312200Y-7508100I32500J0D01*
G01*
X10312200Y-7645100D02*
G75*
G02*
X10247200Y-7645100I-32500J0D01*
G01*
X10247200Y-7645100D02*
G75*
G02*
X10312200Y-7645100I32500J0D01*
G01*
X10312200Y-7782100D02*
G75*
G02*
X10247200Y-7782100I-32500J0D01*
G01*
X10247200Y-7782100D02*
G75*
G02*
X10312200Y-7782100I32500J0D01*
G01*
X10312200Y-7919100D02*
G75*
G02*
X10247200Y-7919100I-32500J0D01*
G01*
X10247200Y-7919100D02*
G75*
G02*
X10312200Y-7919100I32500J0D01*
G01*
X10312200Y-8056100D02*
G75*
G02*
X10247200Y-8056100I-32500J0D01*
G01*
X10247200Y-8056100D02*
G75*
G02*
X10312200Y-8056100I32500J0D01*
G01*
X10312200Y-8193100D02*
G75*
G02*
X10247200Y-8193100I-32500J0D01*
G01*
X10247200Y-8193100D02*
G75*
G02*
X10312200Y-8193100I32500J0D01*
G01*
X10313500Y-11620000D02*
G75*
G02*
X10248500Y-11620000I-32500J0D01*
G01*
X10248500Y-11620000D02*
G75*
G02*
X10313500Y-11620000I32500J0D01*
G01*
X10313500Y-11757000D02*
G75*
G02*
X10248500Y-11757000I-32500J0D01*
G01*
X10248500Y-11757000D02*
G75*
G02*
X10313500Y-11757000I32500J0D01*
G01*
X10313500Y-11894000D02*
G75*
G02*
X10248500Y-11894000I-32500J0D01*
G01*
X10248500Y-11894000D02*
G75*
G02*
X10313500Y-11894000I32500J0D01*
G01*
X10313500Y-12031000D02*
G75*
G02*
X10248500Y-12031000I-32500J0D01*
G01*
X10248500Y-12031000D02*
G75*
G02*
X10313500Y-12031000I32500J0D01*
G01*
X10313500Y-12168000D02*
G75*
G02*
X10248500Y-12168000I-32500J0D01*
G01*
X10248500Y-12168000D02*
G75*
G02*
X10313500Y-12168000I32500J0D01*
G01*
X10313500Y-12305000D02*
G75*
G02*
X10248500Y-12305000I-32500J0D01*
G01*
X10248500Y-12305000D02*
G75*
G02*
X10313500Y-12305000I32500J0D01*
G01*
X10313500Y-12442000D02*
G75*
G02*
X10248500Y-12442000I-32500J0D01*
G01*
X10248500Y-12442000D02*
G75*
G02*
X10313500Y-12442000I32500J0D01*
G01*
X10313500Y-12579000D02*
G75*
G02*
X10248500Y-12579000I-32500J0D01*
G01*
X10248500Y-12579000D02*
G75*
G02*
X10313500Y-12579000I32500J0D01*
G01*
X10449200Y-7371100D02*
G75*
G02*
X10384200Y-7371100I-32500J0D01*
G01*
X10384200Y-7371100D02*
G75*
G02*
X10449200Y-7371100I32500J0D01*
G01*
X10449200Y-7508100D02*
G75*
G02*
X10384200Y-7508100I-32500J0D01*
G01*
X10384200Y-7508100D02*
G75*
G02*
X10449200Y-7508100I32500J0D01*
G01*
X10449200Y-7645100D02*
G75*
G02*
X10384200Y-7645100I-32500J0D01*
G01*
X10384200Y-7645100D02*
G75*
G02*
X10449200Y-7645100I32500J0D01*
G01*
X10449200Y-7782100D02*
G75*
G02*
X10384200Y-7782100I-32500J0D01*
G01*
X10384200Y-7782100D02*
G75*
G02*
X10449200Y-7782100I32500J0D01*
G01*
X10449200Y-7919100D02*
G75*
G02*
X10384200Y-7919100I-32500J0D01*
G01*
X10384200Y-7919100D02*
G75*
G02*
X10449200Y-7919100I32500J0D01*
G01*
X10449200Y-8056100D02*
G75*
G02*
X10384200Y-8056100I-32500J0D01*
G01*
X10384200Y-8056100D02*
G75*
G02*
X10449200Y-8056100I32500J0D01*
G01*
X10449200Y-8193100D02*
G75*
G02*
X10384200Y-8193100I-32500J0D01*
G01*
X10384200Y-8193100D02*
G75*
G02*
X10449200Y-8193100I32500J0D01*
G01*
X10450500Y-11620000D02*
G75*
G02*
X10385500Y-11620000I-32500J0D01*
G01*
X10385500Y-11620000D02*
G75*
G02*
X10450500Y-11620000I32500J0D01*
G01*
X10450500Y-11757000D02*
G75*
G02*
X10385500Y-11757000I-32500J0D01*
G01*
X10385500Y-11757000D02*
G75*
G02*
X10450500Y-11757000I32500J0D01*
G01*
X10450500Y-11894000D02*
G75*
G02*
X10385500Y-11894000I-32500J0D01*
G01*
X10385500Y-11894000D02*
G75*
G02*
X10450500Y-11894000I32500J0D01*
G01*
X10450500Y-12031000D02*
G75*
G02*
X10385500Y-12031000I-32500J0D01*
G01*
X10385500Y-12031000D02*
G75*
G02*
X10450500Y-12031000I32500J0D01*
G01*
X10450500Y-12168000D02*
G75*
G02*
X10385500Y-12168000I-32500J0D01*
G01*
X10385500Y-12168000D02*
G75*
G02*
X10450500Y-12168000I32500J0D01*
G01*
X10450500Y-12305000D02*
G75*
G02*
X10385500Y-12305000I-32500J0D01*
G01*
X10385500Y-12305000D02*
G75*
G02*
X10450500Y-12305000I32500J0D01*
G01*
X10450500Y-12442000D02*
G75*
G02*
X10385500Y-12442000I-32500J0D01*
G01*
X10385500Y-12442000D02*
G75*
G02*
X10450500Y-12442000I32500J0D01*
G01*
X10450500Y-12579000D02*
G75*
G02*
X10385500Y-12579000I-32500J0D01*
G01*
X10385500Y-12579000D02*
G75*
G02*
X10450500Y-12579000I32500J0D01*
G01*
X10586200Y-7371100D02*
G75*
G02*
X10521200Y-7371100I-32500J0D01*
G01*
X10521200Y-7371100D02*
G75*
G02*
X10586200Y-7371100I32500J0D01*
G01*
X10586200Y-7508100D02*
G75*
G02*
X10521200Y-7508100I-32500J0D01*
G01*
X10521200Y-7508100D02*
G75*
G02*
X10586200Y-7508100I32500J0D01*
G01*
X10586200Y-7645100D02*
G75*
G02*
X10521200Y-7645100I-32500J0D01*
G01*
X10521200Y-7645100D02*
G75*
G02*
X10586200Y-7645100I32500J0D01*
G01*
X10586200Y-7782100D02*
G75*
G02*
X10521200Y-7782100I-32500J0D01*
G01*
X10521200Y-7782100D02*
G75*
G02*
X10586200Y-7782100I32500J0D01*
G01*
X10586200Y-7919100D02*
G75*
G02*
X10521200Y-7919100I-32500J0D01*
G01*
X10521200Y-7919100D02*
G75*
G02*
X10586200Y-7919100I32500J0D01*
G01*
X10586200Y-8056100D02*
G75*
G02*
X10521200Y-8056100I-32500J0D01*
G01*
X10521200Y-8056100D02*
G75*
G02*
X10586200Y-8056100I32500J0D01*
G01*
X10586200Y-8193100D02*
G75*
G02*
X10521200Y-8193100I-32500J0D01*
G01*
X10521200Y-8193100D02*
G75*
G02*
X10586200Y-8193100I32500J0D01*
G01*
X10587500Y-11620000D02*
G75*
G02*
X10522500Y-11620000I-32500J0D01*
G01*
X10522500Y-11620000D02*
G75*
G02*
X10587500Y-11620000I32500J0D01*
G01*
X10587500Y-11757000D02*
G75*
G02*
X10522500Y-11757000I-32500J0D01*
G01*
X10522500Y-11757000D02*
G75*
G02*
X10587500Y-11757000I32500J0D01*
G01*
X10587500Y-11894000D02*
G75*
G02*
X10522500Y-11894000I-32500J0D01*
G01*
X10522500Y-11894000D02*
G75*
G02*
X10587500Y-11894000I32500J0D01*
G01*
X10587500Y-12031000D02*
G75*
G02*
X10522500Y-12031000I-32500J0D01*
G01*
X10522500Y-12031000D02*
G75*
G02*
X10587500Y-12031000I32500J0D01*
G01*
X10587500Y-12168000D02*
G75*
G02*
X10522500Y-12168000I-32500J0D01*
G01*
X10522500Y-12168000D02*
G75*
G02*
X10587500Y-12168000I32500J0D01*
G01*
X10587500Y-12305000D02*
G75*
G02*
X10522500Y-12305000I-32500J0D01*
G01*
X10522500Y-12305000D02*
G75*
G02*
X10587500Y-12305000I32500J0D01*
G01*
X10587500Y-12442000D02*
G75*
G02*
X10522500Y-12442000I-32500J0D01*
G01*
X10522500Y-12442000D02*
G75*
G02*
X10587500Y-12442000I32500J0D01*
G01*
X10587500Y-12579000D02*
G75*
G02*
X10522500Y-12579000I-32500J0D01*
G01*
X10522500Y-12579000D02*
G75*
G02*
X10587500Y-12579000I32500J0D01*
G01*
X10723200Y-7371100D02*
G75*
G02*
X10658200Y-7371100I-32500J0D01*
G01*
X10658200Y-7371100D02*
G75*
G02*
X10723200Y-7371100I32500J0D01*
G01*
X10723200Y-7508100D02*
G75*
G02*
X10658200Y-7508100I-32500J0D01*
G01*
X10658200Y-7508100D02*
G75*
G02*
X10723200Y-7508100I32500J0D01*
G01*
X10723200Y-7645100D02*
G75*
G02*
X10658200Y-7645100I-32500J0D01*
G01*
X10658200Y-7645100D02*
G75*
G02*
X10723200Y-7645100I32500J0D01*
G01*
X10723200Y-7782100D02*
G75*
G02*
X10658200Y-7782100I-32500J0D01*
G01*
X10658200Y-7782100D02*
G75*
G02*
X10723200Y-7782100I32500J0D01*
G01*
X10723200Y-7919100D02*
G75*
G02*
X10658200Y-7919100I-32500J0D01*
G01*
X10658200Y-7919100D02*
G75*
G02*
X10723200Y-7919100I32500J0D01*
G01*
X10723200Y-8056100D02*
G75*
G02*
X10658200Y-8056100I-32500J0D01*
G01*
X10658200Y-8056100D02*
G75*
G02*
X10723200Y-8056100I32500J0D01*
G01*
X10723200Y-8193100D02*
G75*
G02*
X10658200Y-8193100I-32500J0D01*
G01*
X10658200Y-8193100D02*
G75*
G02*
X10723200Y-8193100I32500J0D01*
G01*
X10724500Y-11620000D02*
G75*
G02*
X10659500Y-11620000I-32500J0D01*
G01*
X10659500Y-11620000D02*
G75*
G02*
X10724500Y-11620000I32500J0D01*
G01*
X10724500Y-11757000D02*
G75*
G02*
X10659500Y-11757000I-32500J0D01*
G01*
X10659500Y-11757000D02*
G75*
G02*
X10724500Y-11757000I32500J0D01*
G01*
X10724500Y-11894000D02*
G75*
G02*
X10659500Y-11894000I-32500J0D01*
G01*
X10659500Y-11894000D02*
G75*
G02*
X10724500Y-11894000I32500J0D01*
G01*
X10724500Y-12031000D02*
G75*
G02*
X10659500Y-12031000I-32500J0D01*
G01*
X10659500Y-12031000D02*
G75*
G02*
X10724500Y-12031000I32500J0D01*
G01*
X10724500Y-12168000D02*
G75*
G02*
X10659500Y-12168000I-32500J0D01*
G01*
X10659500Y-12168000D02*
G75*
G02*
X10724500Y-12168000I32500J0D01*
G01*
X10724500Y-12305000D02*
G75*
G02*
X10659500Y-12305000I-32500J0D01*
G01*
X10659500Y-12305000D02*
G75*
G02*
X10724500Y-12305000I32500J0D01*
G01*
X10724500Y-12442000D02*
G75*
G02*
X10659500Y-12442000I-32500J0D01*
G01*
X10659500Y-12442000D02*
G75*
G02*
X10724500Y-12442000I32500J0D01*
G01*
X10724500Y-12579000D02*
G75*
G02*
X10659500Y-12579000I-32500J0D01*
G01*
X10659500Y-12579000D02*
G75*
G02*
X10724500Y-12579000I32500J0D01*
G01*
X10860200Y-7371100D02*
G75*
G02*
X10795200Y-7371100I-32500J0D01*
G01*
X10795200Y-7371100D02*
G75*
G02*
X10860200Y-7371100I32500J0D01*
G01*
X10860200Y-7508100D02*
G75*
G02*
X10795200Y-7508100I-32500J0D01*
G01*
X10795200Y-7508100D02*
G75*
G02*
X10860200Y-7508100I32500J0D01*
G01*
X10860200Y-7645100D02*
G75*
G02*
X10795200Y-7645100I-32500J0D01*
G01*
X10795200Y-7645100D02*
G75*
G02*
X10860200Y-7645100I32500J0D01*
G01*
X10860200Y-7782100D02*
G75*
G02*
X10795200Y-7782100I-32500J0D01*
G01*
X10795200Y-7782100D02*
G75*
G02*
X10860200Y-7782100I32500J0D01*
G01*
X10860200Y-7919100D02*
G75*
G02*
X10795200Y-7919100I-32500J0D01*
G01*
X10795200Y-7919100D02*
G75*
G02*
X10860200Y-7919100I32500J0D01*
G01*
X10860200Y-8056100D02*
G75*
G02*
X10795200Y-8056100I-32500J0D01*
G01*
X10795200Y-8056100D02*
G75*
G02*
X10860200Y-8056100I32500J0D01*
G01*
X10860200Y-8193100D02*
G75*
G02*
X10795200Y-8193100I-32500J0D01*
G01*
X10795200Y-8193100D02*
G75*
G02*
X10860200Y-8193100I32500J0D01*
G01*
X10861500Y-11620000D02*
G75*
G02*
X10796500Y-11620000I-32500J0D01*
G01*
X10796500Y-11620000D02*
G75*
G02*
X10861500Y-11620000I32500J0D01*
G01*
X10861500Y-11757000D02*
G75*
G02*
X10796500Y-11757000I-32500J0D01*
G01*
X10796500Y-11757000D02*
G75*
G02*
X10861500Y-11757000I32500J0D01*
G01*
X10861500Y-11894000D02*
G75*
G02*
X10796500Y-11894000I-32500J0D01*
G01*
X10796500Y-11894000D02*
G75*
G02*
X10861500Y-11894000I32500J0D01*
G01*
X10861500Y-12031000D02*
G75*
G02*
X10796500Y-12031000I-32500J0D01*
G01*
X10796500Y-12031000D02*
G75*
G02*
X10861500Y-12031000I32500J0D01*
G01*
X10861500Y-12168000D02*
G75*
G02*
X10796500Y-12168000I-32500J0D01*
G01*
X10796500Y-12168000D02*
G75*
G02*
X10861500Y-12168000I32500J0D01*
G01*
X10861500Y-12305000D02*
G75*
G02*
X10796500Y-12305000I-32500J0D01*
G01*
X10796500Y-12305000D02*
G75*
G02*
X10861500Y-12305000I32500J0D01*
G01*
X10861500Y-12442000D02*
G75*
G02*
X10796500Y-12442000I-32500J0D01*
G01*
X10796500Y-12442000D02*
G75*
G02*
X10861500Y-12442000I32500J0D01*
G01*
X10861500Y-12579000D02*
G75*
G02*
X10796500Y-12579000I-32500J0D01*
G01*
X10796500Y-12579000D02*
G75*
G02*
X10861500Y-12579000I32500J0D01*
G01*
X10997200Y-7371100D02*
G75*
G02*
X10932200Y-7371100I-32500J0D01*
G01*
X10932200Y-7371100D02*
G75*
G02*
X10997200Y-7371100I32500J0D01*
G01*
X10997200Y-7508100D02*
G75*
G02*
X10932200Y-7508100I-32500J0D01*
G01*
X10932200Y-7508100D02*
G75*
G02*
X10997200Y-7508100I32500J0D01*
G01*
X10997200Y-7645100D02*
G75*
G02*
X10932200Y-7645100I-32500J0D01*
G01*
X10932200Y-7645100D02*
G75*
G02*
X10997200Y-7645100I32500J0D01*
G01*
X10997200Y-7782100D02*
G75*
G02*
X10932200Y-7782100I-32500J0D01*
G01*
X10932200Y-7782100D02*
G75*
G02*
X10997200Y-7782100I32500J0D01*
G01*
X10997200Y-7919100D02*
G75*
G02*
X10932200Y-7919100I-32500J0D01*
G01*
X10932200Y-7919100D02*
G75*
G02*
X10997200Y-7919100I32500J0D01*
G01*
X10997200Y-8056100D02*
G75*
G02*
X10932200Y-8056100I-32500J0D01*
G01*
X10932200Y-8056100D02*
G75*
G02*
X10997200Y-8056100I32500J0D01*
G01*
X10997200Y-8193100D02*
G75*
G02*
X10932200Y-8193100I-32500J0D01*
G01*
X10932200Y-8193100D02*
G75*
G02*
X10997200Y-8193100I32500J0D01*
G01*
X10998500Y-11620000D02*
G75*
G02*
X10933500Y-11620000I-32500J0D01*
G01*
X10933500Y-11620000D02*
G75*
G02*
X10998500Y-11620000I32500J0D01*
G01*
X10998500Y-11757000D02*
G75*
G02*
X10933500Y-11757000I-32500J0D01*
G01*
X10933500Y-11757000D02*
G75*
G02*
X10998500Y-11757000I32500J0D01*
G01*
X10998500Y-11894000D02*
G75*
G02*
X10933500Y-11894000I-32500J0D01*
G01*
X10933500Y-11894000D02*
G75*
G02*
X10998500Y-11894000I32500J0D01*
G01*
X10998500Y-12031000D02*
G75*
G02*
X10933500Y-12031000I-32500J0D01*
G01*
X10933500Y-12031000D02*
G75*
G02*
X10998500Y-12031000I32500J0D01*
G01*
X10998500Y-12168000D02*
G75*
G02*
X10933500Y-12168000I-32500J0D01*
G01*
X10933500Y-12168000D02*
G75*
G02*
X10998500Y-12168000I32500J0D01*
G01*
X10998500Y-12305000D02*
G75*
G02*
X10933500Y-12305000I-32500J0D01*
G01*
X10933500Y-12305000D02*
G75*
G02*
X10998500Y-12305000I32500J0D01*
G01*
X10998500Y-12442000D02*
G75*
G02*
X10933500Y-12442000I-32500J0D01*
G01*
X10933500Y-12442000D02*
G75*
G02*
X10998500Y-12442000I32500J0D01*
G01*
X10998500Y-12579000D02*
G75*
G02*
X10933500Y-12579000I-32500J0D01*
G01*
X10933500Y-12579000D02*
G75*
G02*
X10998500Y-12579000I32500J0D01*
G01*
X11134200Y-7371100D02*
G75*
G02*
X11069200Y-7371100I-32500J0D01*
G01*
X11069200Y-7371100D02*
G75*
G02*
X11134200Y-7371100I32500J0D01*
G01*
X11134200Y-7508100D02*
G75*
G02*
X11069200Y-7508100I-32500J0D01*
G01*
X11069200Y-7508100D02*
G75*
G02*
X11134200Y-7508100I32500J0D01*
G01*
X11134200Y-7645100D02*
G75*
G02*
X11069200Y-7645100I-32500J0D01*
G01*
X11069200Y-7645100D02*
G75*
G02*
X11134200Y-7645100I32500J0D01*
G01*
X11134200Y-7782100D02*
G75*
G02*
X11069200Y-7782100I-32500J0D01*
G01*
X11069200Y-7782100D02*
G75*
G02*
X11134200Y-7782100I32500J0D01*
G01*
X11134200Y-7919100D02*
G75*
G02*
X11069200Y-7919100I-32500J0D01*
G01*
X11069200Y-7919100D02*
G75*
G02*
X11134200Y-7919100I32500J0D01*
G01*
X11134200Y-8056100D02*
G75*
G02*
X11069200Y-8056100I-32500J0D01*
G01*
X11069200Y-8056100D02*
G75*
G02*
X11134200Y-8056100I32500J0D01*
G01*
X11134200Y-8193100D02*
G75*
G02*
X11069200Y-8193100I-32500J0D01*
G01*
X11069200Y-8193100D02*
G75*
G02*
X11134200Y-8193100I32500J0D01*
G01*
X11135500Y-11620000D02*
G75*
G02*
X11070500Y-11620000I-32500J0D01*
G01*
X11070500Y-11620000D02*
G75*
G02*
X11135500Y-11620000I32500J0D01*
G01*
X11135500Y-11757000D02*
G75*
G02*
X11070500Y-11757000I-32500J0D01*
G01*
X11070500Y-11757000D02*
G75*
G02*
X11135500Y-11757000I32500J0D01*
G01*
X11135500Y-11894000D02*
G75*
G02*
X11070500Y-11894000I-32500J0D01*
G01*
X11070500Y-11894000D02*
G75*
G02*
X11135500Y-11894000I32500J0D01*
G01*
X11135500Y-12031000D02*
G75*
G02*
X11070500Y-12031000I-32500J0D01*
G01*
X11070500Y-12031000D02*
G75*
G02*
X11135500Y-12031000I32500J0D01*
G01*
X11135500Y-12168000D02*
G75*
G02*
X11070500Y-12168000I-32500J0D01*
G01*
X11070500Y-12168000D02*
G75*
G02*
X11135500Y-12168000I32500J0D01*
G01*
X11135500Y-12305000D02*
G75*
G02*
X11070500Y-12305000I-32500J0D01*
G01*
X11070500Y-12305000D02*
G75*
G02*
X11135500Y-12305000I32500J0D01*
G01*
X11135500Y-12442000D02*
G75*
G02*
X11070500Y-12442000I-32500J0D01*
G01*
X11070500Y-12442000D02*
G75*
G02*
X11135500Y-12442000I32500J0D01*
G01*
X11135500Y-12579000D02*
G75*
G02*
X11070500Y-12579000I-32500J0D01*
G01*
X11070500Y-12579000D02*
G75*
G02*
X11135500Y-12579000I32500J0D01*
G01*
X11271200Y-7371100D02*
G75*
G02*
X11206200Y-7371100I-32500J0D01*
G01*
X11206200Y-7371100D02*
G75*
G02*
X11271200Y-7371100I32500J0D01*
G01*
X11271200Y-7508100D02*
G75*
G02*
X11206200Y-7508100I-32500J0D01*
G01*
X11206200Y-7508100D02*
G75*
G02*
X11271200Y-7508100I32500J0D01*
G01*
X11271200Y-7645100D02*
G75*
G02*
X11206200Y-7645100I-32500J0D01*
G01*
X11206200Y-7645100D02*
G75*
G02*
X11271200Y-7645100I32500J0D01*
G01*
X11271200Y-7782100D02*
G75*
G02*
X11206200Y-7782100I-32500J0D01*
G01*
X11206200Y-7782100D02*
G75*
G02*
X11271200Y-7782100I32500J0D01*
G01*
X11271200Y-7919100D02*
G75*
G02*
X11206200Y-7919100I-32500J0D01*
G01*
X11206200Y-7919100D02*
G75*
G02*
X11271200Y-7919100I32500J0D01*
G01*
X11271200Y-8056100D02*
G75*
G02*
X11206200Y-8056100I-32500J0D01*
G01*
X11206200Y-8056100D02*
G75*
G02*
X11271200Y-8056100I32500J0D01*
G01*
X11271200Y-8193100D02*
G75*
G02*
X11206200Y-8193100I-32500J0D01*
G01*
X11206200Y-8193100D02*
G75*
G02*
X11271200Y-8193100I32500J0D01*
G01*
X11272500Y-11620000D02*
G75*
G02*
X11207500Y-11620000I-32500J0D01*
G01*
X11207500Y-11620000D02*
G75*
G02*
X11272500Y-11620000I32500J0D01*
G01*
X11272500Y-11757000D02*
G75*
G02*
X11207500Y-11757000I-32500J0D01*
G01*
X11207500Y-11757000D02*
G75*
G02*
X11272500Y-11757000I32500J0D01*
G01*
X11272500Y-11894000D02*
G75*
G02*
X11207500Y-11894000I-32500J0D01*
G01*
X11207500Y-11894000D02*
G75*
G02*
X11272500Y-11894000I32500J0D01*
G01*
X11272500Y-12031000D02*
G75*
G02*
X11207500Y-12031000I-32500J0D01*
G01*
X11207500Y-12031000D02*
G75*
G02*
X11272500Y-12031000I32500J0D01*
G01*
X11272500Y-12168000D02*
G75*
G02*
X11207500Y-12168000I-32500J0D01*
G01*
X11207500Y-12168000D02*
G75*
G02*
X11272500Y-12168000I32500J0D01*
G01*
X11272500Y-12305000D02*
G75*
G02*
X11207500Y-12305000I-32500J0D01*
G01*
X11207500Y-12305000D02*
G75*
G02*
X11272500Y-12305000I32500J0D01*
G01*
X11272500Y-12442000D02*
G75*
G02*
X11207500Y-12442000I-32500J0D01*
G01*
X11207500Y-12442000D02*
G75*
G02*
X11272500Y-12442000I32500J0D01*
G01*
X11272500Y-12579000D02*
G75*
G02*
X11207500Y-12579000I-32500J0D01*
G01*
X11207500Y-12579000D02*
G75*
G02*
X11272500Y-12579000I32500J0D01*
G01*
D10*
X8462277Y-14171484D02*
X8462277Y-13971484D01*
X8462277Y-13971484D02*
X8509896Y-13971484D01*
X8509896Y-13971484D02*
X8538467Y-13981008D01*
X8538467Y-13981008D02*
X8557515Y-14000055D01*
X8557515Y-14000055D02*
X8567039Y-14019103D01*
X8567039Y-14019103D02*
X8576563Y-14057198D01*
X8576563Y-14057198D02*
X8576563Y-14085769D01*
X8576563Y-14085769D02*
X8567039Y-14123865D01*
X8567039Y-14123865D02*
X8557515Y-14142912D01*
X8557515Y-14142912D02*
X8538467Y-14161960D01*
X8538467Y-14161960D02*
X8509896Y-14171484D01*
X8509896Y-14171484D02*
X8462277Y-14171484D01*
X8662277Y-14171484D02*
X8662277Y-14038150D01*
X8662277Y-14076246D02*
X8671801Y-14057198D01*
X8671801Y-14057198D02*
X8681324Y-14047674D01*
X8681324Y-14047674D02*
X8700372Y-14038150D01*
X8700372Y-14038150D02*
X8719420Y-14038150D01*
X8786086Y-14171484D02*
X8786086Y-14038150D01*
X8786086Y-13971484D02*
X8776563Y-13981008D01*
X8776563Y-13981008D02*
X8786086Y-13990531D01*
X8786086Y-13990531D02*
X8795610Y-13981008D01*
X8795610Y-13981008D02*
X8786086Y-13971484D01*
X8786086Y-13971484D02*
X8786086Y-13990531D01*
X8909896Y-14171484D02*
X8890848Y-14161960D01*
X8890848Y-14161960D02*
X8881324Y-14142912D01*
X8881324Y-14142912D02*
X8881324Y-13971484D01*
X9014658Y-14171484D02*
X8995610Y-14161960D01*
X8995610Y-14161960D02*
X8986086Y-14142912D01*
X8986086Y-14142912D02*
X8986086Y-13971484D01*
X9243229Y-14171484D02*
X9243229Y-13971484D01*
X9243229Y-13971484D02*
X9309896Y-14114341D01*
X9309896Y-14114341D02*
X9376563Y-13971484D01*
X9376563Y-13971484D02*
X9376563Y-14171484D01*
X9557515Y-14171484D02*
X9557515Y-14066722D01*
X9557515Y-14066722D02*
X9547991Y-14047674D01*
X9547991Y-14047674D02*
X9528944Y-14038150D01*
X9528944Y-14038150D02*
X9490848Y-14038150D01*
X9490848Y-14038150D02*
X9471801Y-14047674D01*
X9557515Y-14161960D02*
X9538467Y-14171484D01*
X9538467Y-14171484D02*
X9490848Y-14171484D01*
X9490848Y-14171484D02*
X9471801Y-14161960D01*
X9471801Y-14161960D02*
X9462277Y-14142912D01*
X9462277Y-14142912D02*
X9462277Y-14123865D01*
X9462277Y-14123865D02*
X9471801Y-14104817D01*
X9471801Y-14104817D02*
X9490848Y-14095293D01*
X9490848Y-14095293D02*
X9538467Y-14095293D01*
X9538467Y-14095293D02*
X9557515Y-14085769D01*
X9652753Y-14038150D02*
X9652753Y-14238150D01*
X9652753Y-14047674D02*
X9671801Y-14038150D01*
X9671801Y-14038150D02*
X9709896Y-14038150D01*
X9709896Y-14038150D02*
X9728944Y-14047674D01*
X9728944Y-14047674D02*
X9738467Y-14057198D01*
X9738467Y-14057198D02*
X9747991Y-14076246D01*
X9747991Y-14076246D02*
X9747991Y-14133388D01*
X9747991Y-14133388D02*
X9738467Y-14152436D01*
X9738467Y-14152436D02*
X9728944Y-14161960D01*
X9728944Y-14161960D02*
X9709896Y-14171484D01*
X9709896Y-14171484D02*
X9671801Y-14171484D01*
X9671801Y-14171484D02*
X9652753Y-14161960D01*
X9833705Y-14152436D02*
X9843229Y-14161960D01*
X9843229Y-14161960D02*
X9833705Y-14171484D01*
X9833705Y-14171484D02*
X9824182Y-14161960D01*
X9824182Y-14161960D02*
X9833705Y-14152436D01*
X9833705Y-14152436D02*
X9833705Y-14171484D01*
X9833705Y-14047674D02*
X9843229Y-14057198D01*
X9843229Y-14057198D02*
X9833705Y-14066722D01*
X9833705Y-14066722D02*
X9824182Y-14057198D01*
X9824182Y-14057198D02*
X9833705Y-14047674D01*
X9833705Y-14047674D02*
X9833705Y-14066722D01*
D11*
X8161500Y-14480000D02*
X8201500Y-14520000D01*
X8201500Y-14480000D02*
X8161500Y-14520000D01*
D10*
X8500372Y-14391484D02*
X8519420Y-14391484D01*
X8519420Y-14391484D02*
X8538467Y-14401008D01*
X8538467Y-14401008D02*
X8547991Y-14410531D01*
X8547991Y-14410531D02*
X8557515Y-14429579D01*
X8557515Y-14429579D02*
X8567039Y-14467674D01*
X8567039Y-14467674D02*
X8567039Y-14515293D01*
X8567039Y-14515293D02*
X8557515Y-14553388D01*
X8557515Y-14553388D02*
X8547991Y-14572436D01*
X8547991Y-14572436D02*
X8538467Y-14581960D01*
X8538467Y-14581960D02*
X8519420Y-14591484D01*
X8519420Y-14591484D02*
X8500372Y-14591484D01*
X8500372Y-14591484D02*
X8481324Y-14581960D01*
X8481324Y-14581960D02*
X8471801Y-14572436D01*
X8471801Y-14572436D02*
X8462277Y-14553388D01*
X8462277Y-14553388D02*
X8452753Y-14515293D01*
X8452753Y-14515293D02*
X8452753Y-14467674D01*
X8452753Y-14467674D02*
X8462277Y-14429579D01*
X8462277Y-14429579D02*
X8471801Y-14410531D01*
X8471801Y-14410531D02*
X8481324Y-14401008D01*
X8481324Y-14401008D02*
X8500372Y-14391484D01*
X8652753Y-14572436D02*
X8662277Y-14581960D01*
X8662277Y-14581960D02*
X8652753Y-14591484D01*
X8652753Y-14591484D02*
X8643229Y-14581960D01*
X8643229Y-14581960D02*
X8652753Y-14572436D01*
X8652753Y-14572436D02*
X8652753Y-14591484D01*
X8833705Y-14458150D02*
X8833705Y-14591484D01*
X8786086Y-14381960D02*
X8738467Y-14524817D01*
X8738467Y-14524817D02*
X8862277Y-14524817D01*
X8976563Y-14391484D02*
X8995610Y-14391484D01*
X8995610Y-14391484D02*
X9014658Y-14401008D01*
X9014658Y-14401008D02*
X9024182Y-14410531D01*
X9024182Y-14410531D02*
X9033705Y-14429579D01*
X9033705Y-14429579D02*
X9043229Y-14467674D01*
X9043229Y-14467674D02*
X9043229Y-14515293D01*
X9043229Y-14515293D02*
X9033705Y-14553388D01*
X9033705Y-14553388D02*
X9024182Y-14572436D01*
X9024182Y-14572436D02*
X9014658Y-14581960D01*
X9014658Y-14581960D02*
X8995610Y-14591484D01*
X8995610Y-14591484D02*
X8976563Y-14591484D01*
X8976563Y-14591484D02*
X8957515Y-14581960D01*
X8957515Y-14581960D02*
X8947991Y-14572436D01*
X8947991Y-14572436D02*
X8938467Y-14553388D01*
X8938467Y-14553388D02*
X8928944Y-14515293D01*
X8928944Y-14515293D02*
X8928944Y-14467674D01*
X8928944Y-14467674D02*
X8938467Y-14429579D01*
X8938467Y-14429579D02*
X8947991Y-14410531D01*
X8947991Y-14410531D02*
X8957515Y-14401008D01*
X8957515Y-14401008D02*
X8976563Y-14391484D01*
X9167039Y-14391484D02*
X9186086Y-14391484D01*
X9186086Y-14391484D02*
X9205134Y-14401008D01*
X9205134Y-14401008D02*
X9214658Y-14410531D01*
X9214658Y-14410531D02*
X9224182Y-14429579D01*
X9224182Y-14429579D02*
X9233705Y-14467674D01*
X9233705Y-14467674D02*
X9233705Y-14515293D01*
X9233705Y-14515293D02*
X9224182Y-14553388D01*
X9224182Y-14553388D02*
X9214658Y-14572436D01*
X9214658Y-14572436D02*
X9205134Y-14581960D01*
X9205134Y-14581960D02*
X9186086Y-14591484D01*
X9186086Y-14591484D02*
X9167039Y-14591484D01*
X9167039Y-14591484D02*
X9147991Y-14581960D01*
X9147991Y-14581960D02*
X9138467Y-14572436D01*
X9138467Y-14572436D02*
X9128944Y-14553388D01*
X9128944Y-14553388D02*
X9119420Y-14515293D01*
X9119420Y-14515293D02*
X9119420Y-14467674D01*
X9119420Y-14467674D02*
X9128944Y-14429579D01*
X9128944Y-14429579D02*
X9138467Y-14410531D01*
X9138467Y-14410531D02*
X9147991Y-14401008D01*
X9147991Y-14401008D02*
X9167039Y-14391484D01*
X9319420Y-14591484D02*
X9319420Y-14458150D01*
X9319420Y-14477198D02*
X9328944Y-14467674D01*
X9328944Y-14467674D02*
X9347991Y-14458150D01*
X9347991Y-14458150D02*
X9376563Y-14458150D01*
X9376563Y-14458150D02*
X9395610Y-14467674D01*
X9395610Y-14467674D02*
X9405134Y-14486722D01*
X9405134Y-14486722D02*
X9405134Y-14591484D01*
X9405134Y-14486722D02*
X9414658Y-14467674D01*
X9414658Y-14467674D02*
X9433705Y-14458150D01*
X9433705Y-14458150D02*
X9462277Y-14458150D01*
X9462277Y-14458150D02*
X9481325Y-14467674D01*
X9481325Y-14467674D02*
X9490848Y-14486722D01*
X9490848Y-14486722D02*
X9490848Y-14591484D01*
X9586086Y-14591484D02*
X9586086Y-14458150D01*
X9586086Y-14477198D02*
X9595610Y-14467674D01*
X9595610Y-14467674D02*
X9614658Y-14458150D01*
X9614658Y-14458150D02*
X9643229Y-14458150D01*
X9643229Y-14458150D02*
X9662277Y-14467674D01*
X9662277Y-14467674D02*
X9671801Y-14486722D01*
X9671801Y-14486722D02*
X9671801Y-14591484D01*
X9671801Y-14486722D02*
X9681325Y-14467674D01*
X9681325Y-14467674D02*
X9700372Y-14458150D01*
X9700372Y-14458150D02*
X9728944Y-14458150D01*
X9728944Y-14458150D02*
X9747991Y-14467674D01*
X9747991Y-14467674D02*
X9757515Y-14486722D01*
X9757515Y-14486722D02*
X9757515Y-14591484D01*
X10147991Y-14381960D02*
X9976563Y-14639103D01*
X10405134Y-14391484D02*
X10424182Y-14391484D01*
X10424182Y-14391484D02*
X10443229Y-14401008D01*
X10443229Y-14401008D02*
X10452753Y-14410531D01*
X10452753Y-14410531D02*
X10462277Y-14429579D01*
X10462277Y-14429579D02*
X10471801Y-14467674D01*
X10471801Y-14467674D02*
X10471801Y-14515293D01*
X10471801Y-14515293D02*
X10462277Y-14553388D01*
X10462277Y-14553388D02*
X10452753Y-14572436D01*
X10452753Y-14572436D02*
X10443229Y-14581960D01*
X10443229Y-14581960D02*
X10424182Y-14591484D01*
X10424182Y-14591484D02*
X10405134Y-14591484D01*
X10405134Y-14591484D02*
X10386087Y-14581960D01*
X10386087Y-14581960D02*
X10376563Y-14572436D01*
X10376563Y-14572436D02*
X10367039Y-14553388D01*
X10367039Y-14553388D02*
X10357515Y-14515293D01*
X10357515Y-14515293D02*
X10357515Y-14467674D01*
X10357515Y-14467674D02*
X10367039Y-14429579D01*
X10367039Y-14429579D02*
X10376563Y-14410531D01*
X10376563Y-14410531D02*
X10386087Y-14401008D01*
X10386087Y-14401008D02*
X10405134Y-14391484D01*
X10557515Y-14572436D02*
X10567039Y-14581960D01*
X10567039Y-14581960D02*
X10557515Y-14591484D01*
X10557515Y-14591484D02*
X10547991Y-14581960D01*
X10547991Y-14581960D02*
X10557515Y-14572436D01*
X10557515Y-14572436D02*
X10557515Y-14591484D01*
X10690848Y-14391484D02*
X10709896Y-14391484D01*
X10709896Y-14391484D02*
X10728944Y-14401008D01*
X10728944Y-14401008D02*
X10738468Y-14410531D01*
X10738468Y-14410531D02*
X10747991Y-14429579D01*
X10747991Y-14429579D02*
X10757515Y-14467674D01*
X10757515Y-14467674D02*
X10757515Y-14515293D01*
X10757515Y-14515293D02*
X10747991Y-14553388D01*
X10747991Y-14553388D02*
X10738468Y-14572436D01*
X10738468Y-14572436D02*
X10728944Y-14581960D01*
X10728944Y-14581960D02*
X10709896Y-14591484D01*
X10709896Y-14591484D02*
X10690848Y-14591484D01*
X10690848Y-14591484D02*
X10671801Y-14581960D01*
X10671801Y-14581960D02*
X10662277Y-14572436D01*
X10662277Y-14572436D02*
X10652753Y-14553388D01*
X10652753Y-14553388D02*
X10643229Y-14515293D01*
X10643229Y-14515293D02*
X10643229Y-14467674D01*
X10643229Y-14467674D02*
X10652753Y-14429579D01*
X10652753Y-14429579D02*
X10662277Y-14410531D01*
X10662277Y-14410531D02*
X10671801Y-14401008D01*
X10671801Y-14401008D02*
X10690848Y-14391484D01*
X10947991Y-14591484D02*
X10833706Y-14591484D01*
X10890848Y-14591484D02*
X10890848Y-14391484D01*
X10890848Y-14391484D02*
X10871801Y-14420055D01*
X10871801Y-14420055D02*
X10852753Y-14439103D01*
X10852753Y-14439103D02*
X10833706Y-14448627D01*
X11128944Y-14391484D02*
X11033706Y-14391484D01*
X11033706Y-14391484D02*
X11024182Y-14486722D01*
X11024182Y-14486722D02*
X11033706Y-14477198D01*
X11033706Y-14477198D02*
X11052753Y-14467674D01*
X11052753Y-14467674D02*
X11100372Y-14467674D01*
X11100372Y-14467674D02*
X11119420Y-14477198D01*
X11119420Y-14477198D02*
X11128944Y-14486722D01*
X11128944Y-14486722D02*
X11138468Y-14505769D01*
X11138468Y-14505769D02*
X11138468Y-14553388D01*
X11138468Y-14553388D02*
X11128944Y-14572436D01*
X11128944Y-14572436D02*
X11119420Y-14581960D01*
X11119420Y-14581960D02*
X11100372Y-14591484D01*
X11100372Y-14591484D02*
X11052753Y-14591484D01*
X11052753Y-14591484D02*
X11033706Y-14581960D01*
X11033706Y-14581960D02*
X11024182Y-14572436D01*
X11205134Y-14391484D02*
X11338467Y-14391484D01*
X11338467Y-14391484D02*
X11252753Y-14591484D01*
X11405134Y-14391484D02*
X11405134Y-14429579D01*
X11481325Y-14391484D02*
X11481325Y-14429579D01*
X11776563Y-14667674D02*
X11767039Y-14658150D01*
X11767039Y-14658150D02*
X11747991Y-14629579D01*
X11747991Y-14629579D02*
X11738468Y-14610531D01*
X11738468Y-14610531D02*
X11728944Y-14581960D01*
X11728944Y-14581960D02*
X11719420Y-14534341D01*
X11719420Y-14534341D02*
X11719420Y-14496246D01*
X11719420Y-14496246D02*
X11728944Y-14448627D01*
X11728944Y-14448627D02*
X11738468Y-14420055D01*
X11738468Y-14420055D02*
X11747991Y-14401008D01*
X11747991Y-14401008D02*
X11767039Y-14372436D01*
X11767039Y-14372436D02*
X11776563Y-14362912D01*
X11843229Y-14410531D02*
X11852753Y-14401008D01*
X11852753Y-14401008D02*
X11871801Y-14391484D01*
X11871801Y-14391484D02*
X11919420Y-14391484D01*
X11919420Y-14391484D02*
X11938468Y-14401008D01*
X11938468Y-14401008D02*
X11947991Y-14410531D01*
X11947991Y-14410531D02*
X11957515Y-14429579D01*
X11957515Y-14429579D02*
X11957515Y-14448627D01*
X11957515Y-14448627D02*
X11947991Y-14477198D01*
X11947991Y-14477198D02*
X11833706Y-14591484D01*
X11833706Y-14591484D02*
X11957515Y-14591484D01*
X12071801Y-14477198D02*
X12052753Y-14467674D01*
X12052753Y-14467674D02*
X12043229Y-14458150D01*
X12043229Y-14458150D02*
X12033706Y-14439103D01*
X12033706Y-14439103D02*
X12033706Y-14429579D01*
X12033706Y-14429579D02*
X12043229Y-14410531D01*
X12043229Y-14410531D02*
X12052753Y-14401008D01*
X12052753Y-14401008D02*
X12071801Y-14391484D01*
X12071801Y-14391484D02*
X12109896Y-14391484D01*
X12109896Y-14391484D02*
X12128944Y-14401008D01*
X12128944Y-14401008D02*
X12138468Y-14410531D01*
X12138468Y-14410531D02*
X12147991Y-14429579D01*
X12147991Y-14429579D02*
X12147991Y-14439103D01*
X12147991Y-14439103D02*
X12138468Y-14458150D01*
X12138468Y-14458150D02*
X12128944Y-14467674D01*
X12128944Y-14467674D02*
X12109896Y-14477198D01*
X12109896Y-14477198D02*
X12071801Y-14477198D01*
X12071801Y-14477198D02*
X12052753Y-14486722D01*
X12052753Y-14486722D02*
X12043229Y-14496246D01*
X12043229Y-14496246D02*
X12033706Y-14515293D01*
X12033706Y-14515293D02*
X12033706Y-14553388D01*
X12033706Y-14553388D02*
X12043229Y-14572436D01*
X12043229Y-14572436D02*
X12052753Y-14581960D01*
X12052753Y-14581960D02*
X12071801Y-14591484D01*
X12071801Y-14591484D02*
X12109896Y-14591484D01*
X12109896Y-14591484D02*
X12128944Y-14581960D01*
X12128944Y-14581960D02*
X12138468Y-14572436D01*
X12138468Y-14572436D02*
X12147991Y-14553388D01*
X12147991Y-14553388D02*
X12147991Y-14515293D01*
X12147991Y-14515293D02*
X12138468Y-14496246D01*
X12138468Y-14496246D02*
X12128944Y-14486722D01*
X12128944Y-14486722D02*
X12109896Y-14477198D01*
X12386087Y-14591484D02*
X12386087Y-14391484D01*
X12471801Y-14591484D02*
X12471801Y-14486722D01*
X12471801Y-14486722D02*
X12462277Y-14467674D01*
X12462277Y-14467674D02*
X12443230Y-14458150D01*
X12443230Y-14458150D02*
X12414658Y-14458150D01*
X12414658Y-14458150D02*
X12395610Y-14467674D01*
X12395610Y-14467674D02*
X12386087Y-14477198D01*
X12595610Y-14591484D02*
X12576563Y-14581960D01*
X12576563Y-14581960D02*
X12567039Y-14572436D01*
X12567039Y-14572436D02*
X12557515Y-14553388D01*
X12557515Y-14553388D02*
X12557515Y-14496246D01*
X12557515Y-14496246D02*
X12567039Y-14477198D01*
X12567039Y-14477198D02*
X12576563Y-14467674D01*
X12576563Y-14467674D02*
X12595610Y-14458150D01*
X12595610Y-14458150D02*
X12624182Y-14458150D01*
X12624182Y-14458150D02*
X12643230Y-14467674D01*
X12643230Y-14467674D02*
X12652753Y-14477198D01*
X12652753Y-14477198D02*
X12662277Y-14496246D01*
X12662277Y-14496246D02*
X12662277Y-14553388D01*
X12662277Y-14553388D02*
X12652753Y-14572436D01*
X12652753Y-14572436D02*
X12643230Y-14581960D01*
X12643230Y-14581960D02*
X12624182Y-14591484D01*
X12624182Y-14591484D02*
X12595610Y-14591484D01*
X12776563Y-14591484D02*
X12757515Y-14581960D01*
X12757515Y-14581960D02*
X12747991Y-14562912D01*
X12747991Y-14562912D02*
X12747991Y-14391484D01*
X12928944Y-14581960D02*
X12909896Y-14591484D01*
X12909896Y-14591484D02*
X12871801Y-14591484D01*
X12871801Y-14591484D02*
X12852753Y-14581960D01*
X12852753Y-14581960D02*
X12843230Y-14562912D01*
X12843230Y-14562912D02*
X12843230Y-14486722D01*
X12843230Y-14486722D02*
X12852753Y-14467674D01*
X12852753Y-14467674D02*
X12871801Y-14458150D01*
X12871801Y-14458150D02*
X12909896Y-14458150D01*
X12909896Y-14458150D02*
X12928944Y-14467674D01*
X12928944Y-14467674D02*
X12938468Y-14486722D01*
X12938468Y-14486722D02*
X12938468Y-14505769D01*
X12938468Y-14505769D02*
X12843230Y-14524817D01*
X13014658Y-14581960D02*
X13033706Y-14591484D01*
X13033706Y-14591484D02*
X13071801Y-14591484D01*
X13071801Y-14591484D02*
X13090849Y-14581960D01*
X13090849Y-14581960D02*
X13100372Y-14562912D01*
X13100372Y-14562912D02*
X13100372Y-14553388D01*
X13100372Y-14553388D02*
X13090849Y-14534341D01*
X13090849Y-14534341D02*
X13071801Y-14524817D01*
X13071801Y-14524817D02*
X13043230Y-14524817D01*
X13043230Y-14524817D02*
X13024182Y-14515293D01*
X13024182Y-14515293D02*
X13014658Y-14496246D01*
X13014658Y-14496246D02*
X13014658Y-14486722D01*
X13014658Y-14486722D02*
X13024182Y-14467674D01*
X13024182Y-14467674D02*
X13043230Y-14458150D01*
X13043230Y-14458150D02*
X13071801Y-14458150D01*
X13071801Y-14458150D02*
X13090849Y-14467674D01*
X13167039Y-14667674D02*
X13176563Y-14658150D01*
X13176563Y-14658150D02*
X13195611Y-14629579D01*
X13195611Y-14629579D02*
X13205134Y-14610531D01*
X13205134Y-14610531D02*
X13214658Y-14581960D01*
X13214658Y-14581960D02*
X13224182Y-14534341D01*
X13224182Y-14534341D02*
X13224182Y-14496246D01*
X13224182Y-14496246D02*
X13214658Y-14448627D01*
X13214658Y-14448627D02*
X13205134Y-14420055D01*
X13205134Y-14420055D02*
X13195611Y-14401008D01*
X13195611Y-14401008D02*
X13176563Y-14372436D01*
X13176563Y-14372436D02*
X13167039Y-14362912D01*
D11*
X8201500Y-14764000D02*
G75*
G02*
X8136500Y-14764000I-32500J0D01*
G01*
X8136500Y-14764000D02*
G75*
G02*
X8201500Y-14764000I32500J0D01*
G01*
D10*
X8500372Y-14655484D02*
X8519420Y-14655484D01*
X8519420Y-14655484D02*
X8538467Y-14665008D01*
X8538467Y-14665008D02*
X8547991Y-14674531D01*
X8547991Y-14674531D02*
X8557515Y-14693579D01*
X8557515Y-14693579D02*
X8567039Y-14731674D01*
X8567039Y-14731674D02*
X8567039Y-14779293D01*
X8567039Y-14779293D02*
X8557515Y-14817388D01*
X8557515Y-14817388D02*
X8547991Y-14836436D01*
X8547991Y-14836436D02*
X8538467Y-14845960D01*
X8538467Y-14845960D02*
X8519420Y-14855484D01*
X8519420Y-14855484D02*
X8500372Y-14855484D01*
X8500372Y-14855484D02*
X8481324Y-14845960D01*
X8481324Y-14845960D02*
X8471801Y-14836436D01*
X8471801Y-14836436D02*
X8462277Y-14817388D01*
X8462277Y-14817388D02*
X8452753Y-14779293D01*
X8452753Y-14779293D02*
X8452753Y-14731674D01*
X8452753Y-14731674D02*
X8462277Y-14693579D01*
X8462277Y-14693579D02*
X8471801Y-14674531D01*
X8471801Y-14674531D02*
X8481324Y-14665008D01*
X8481324Y-14665008D02*
X8500372Y-14655484D01*
X8652753Y-14836436D02*
X8662277Y-14845960D01*
X8662277Y-14845960D02*
X8652753Y-14855484D01*
X8652753Y-14855484D02*
X8643229Y-14845960D01*
X8643229Y-14845960D02*
X8652753Y-14836436D01*
X8652753Y-14836436D02*
X8652753Y-14855484D01*
X8833705Y-14655484D02*
X8795610Y-14655484D01*
X8795610Y-14655484D02*
X8776563Y-14665008D01*
X8776563Y-14665008D02*
X8767039Y-14674531D01*
X8767039Y-14674531D02*
X8747991Y-14703103D01*
X8747991Y-14703103D02*
X8738467Y-14741198D01*
X8738467Y-14741198D02*
X8738467Y-14817388D01*
X8738467Y-14817388D02*
X8747991Y-14836436D01*
X8747991Y-14836436D02*
X8757515Y-14845960D01*
X8757515Y-14845960D02*
X8776563Y-14855484D01*
X8776563Y-14855484D02*
X8814658Y-14855484D01*
X8814658Y-14855484D02*
X8833705Y-14845960D01*
X8833705Y-14845960D02*
X8843229Y-14836436D01*
X8843229Y-14836436D02*
X8852753Y-14817388D01*
X8852753Y-14817388D02*
X8852753Y-14769769D01*
X8852753Y-14769769D02*
X8843229Y-14750722D01*
X8843229Y-14750722D02*
X8833705Y-14741198D01*
X8833705Y-14741198D02*
X8814658Y-14731674D01*
X8814658Y-14731674D02*
X8776563Y-14731674D01*
X8776563Y-14731674D02*
X8757515Y-14741198D01*
X8757515Y-14741198D02*
X8747991Y-14750722D01*
X8747991Y-14750722D02*
X8738467Y-14769769D01*
X9033705Y-14655484D02*
X8938467Y-14655484D01*
X8938467Y-14655484D02*
X8928944Y-14750722D01*
X8928944Y-14750722D02*
X8938467Y-14741198D01*
X8938467Y-14741198D02*
X8957515Y-14731674D01*
X8957515Y-14731674D02*
X9005134Y-14731674D01*
X9005134Y-14731674D02*
X9024182Y-14741198D01*
X9024182Y-14741198D02*
X9033705Y-14750722D01*
X9033705Y-14750722D02*
X9043229Y-14769769D01*
X9043229Y-14769769D02*
X9043229Y-14817388D01*
X9043229Y-14817388D02*
X9033705Y-14836436D01*
X9033705Y-14836436D02*
X9024182Y-14845960D01*
X9024182Y-14845960D02*
X9005134Y-14855484D01*
X9005134Y-14855484D02*
X8957515Y-14855484D01*
X8957515Y-14855484D02*
X8938467Y-14845960D01*
X8938467Y-14845960D02*
X8928944Y-14836436D01*
X9167039Y-14655484D02*
X9186086Y-14655484D01*
X9186086Y-14655484D02*
X9205134Y-14665008D01*
X9205134Y-14665008D02*
X9214658Y-14674531D01*
X9214658Y-14674531D02*
X9224182Y-14693579D01*
X9224182Y-14693579D02*
X9233705Y-14731674D01*
X9233705Y-14731674D02*
X9233705Y-14779293D01*
X9233705Y-14779293D02*
X9224182Y-14817388D01*
X9224182Y-14817388D02*
X9214658Y-14836436D01*
X9214658Y-14836436D02*
X9205134Y-14845960D01*
X9205134Y-14845960D02*
X9186086Y-14855484D01*
X9186086Y-14855484D02*
X9167039Y-14855484D01*
X9167039Y-14855484D02*
X9147991Y-14845960D01*
X9147991Y-14845960D02*
X9138467Y-14836436D01*
X9138467Y-14836436D02*
X9128944Y-14817388D01*
X9128944Y-14817388D02*
X9119420Y-14779293D01*
X9119420Y-14779293D02*
X9119420Y-14731674D01*
X9119420Y-14731674D02*
X9128944Y-14693579D01*
X9128944Y-14693579D02*
X9138467Y-14674531D01*
X9138467Y-14674531D02*
X9147991Y-14665008D01*
X9147991Y-14665008D02*
X9167039Y-14655484D01*
X9319420Y-14855484D02*
X9319420Y-14722150D01*
X9319420Y-14741198D02*
X9328944Y-14731674D01*
X9328944Y-14731674D02*
X9347991Y-14722150D01*
X9347991Y-14722150D02*
X9376563Y-14722150D01*
X9376563Y-14722150D02*
X9395610Y-14731674D01*
X9395610Y-14731674D02*
X9405134Y-14750722D01*
X9405134Y-14750722D02*
X9405134Y-14855484D01*
X9405134Y-14750722D02*
X9414658Y-14731674D01*
X9414658Y-14731674D02*
X9433705Y-14722150D01*
X9433705Y-14722150D02*
X9462277Y-14722150D01*
X9462277Y-14722150D02*
X9481325Y-14731674D01*
X9481325Y-14731674D02*
X9490848Y-14750722D01*
X9490848Y-14750722D02*
X9490848Y-14855484D01*
X9586086Y-14855484D02*
X9586086Y-14722150D01*
X9586086Y-14741198D02*
X9595610Y-14731674D01*
X9595610Y-14731674D02*
X9614658Y-14722150D01*
X9614658Y-14722150D02*
X9643229Y-14722150D01*
X9643229Y-14722150D02*
X9662277Y-14731674D01*
X9662277Y-14731674D02*
X9671801Y-14750722D01*
X9671801Y-14750722D02*
X9671801Y-14855484D01*
X9671801Y-14750722D02*
X9681325Y-14731674D01*
X9681325Y-14731674D02*
X9700372Y-14722150D01*
X9700372Y-14722150D02*
X9728944Y-14722150D01*
X9728944Y-14722150D02*
X9747991Y-14731674D01*
X9747991Y-14731674D02*
X9757515Y-14750722D01*
X9757515Y-14750722D02*
X9757515Y-14855484D01*
X10147991Y-14645960D02*
X9976563Y-14903103D01*
X10405134Y-14655484D02*
X10424182Y-14655484D01*
X10424182Y-14655484D02*
X10443229Y-14665008D01*
X10443229Y-14665008D02*
X10452753Y-14674531D01*
X10452753Y-14674531D02*
X10462277Y-14693579D01*
X10462277Y-14693579D02*
X10471801Y-14731674D01*
X10471801Y-14731674D02*
X10471801Y-14779293D01*
X10471801Y-14779293D02*
X10462277Y-14817388D01*
X10462277Y-14817388D02*
X10452753Y-14836436D01*
X10452753Y-14836436D02*
X10443229Y-14845960D01*
X10443229Y-14845960D02*
X10424182Y-14855484D01*
X10424182Y-14855484D02*
X10405134Y-14855484D01*
X10405134Y-14855484D02*
X10386087Y-14845960D01*
X10386087Y-14845960D02*
X10376563Y-14836436D01*
X10376563Y-14836436D02*
X10367039Y-14817388D01*
X10367039Y-14817388D02*
X10357515Y-14779293D01*
X10357515Y-14779293D02*
X10357515Y-14731674D01*
X10357515Y-14731674D02*
X10367039Y-14693579D01*
X10367039Y-14693579D02*
X10376563Y-14674531D01*
X10376563Y-14674531D02*
X10386087Y-14665008D01*
X10386087Y-14665008D02*
X10405134Y-14655484D01*
X10557515Y-14836436D02*
X10567039Y-14845960D01*
X10567039Y-14845960D02*
X10557515Y-14855484D01*
X10557515Y-14855484D02*
X10547991Y-14845960D01*
X10547991Y-14845960D02*
X10557515Y-14836436D01*
X10557515Y-14836436D02*
X10557515Y-14855484D01*
X10690848Y-14655484D02*
X10709896Y-14655484D01*
X10709896Y-14655484D02*
X10728944Y-14665008D01*
X10728944Y-14665008D02*
X10738468Y-14674531D01*
X10738468Y-14674531D02*
X10747991Y-14693579D01*
X10747991Y-14693579D02*
X10757515Y-14731674D01*
X10757515Y-14731674D02*
X10757515Y-14779293D01*
X10757515Y-14779293D02*
X10747991Y-14817388D01*
X10747991Y-14817388D02*
X10738468Y-14836436D01*
X10738468Y-14836436D02*
X10728944Y-14845960D01*
X10728944Y-14845960D02*
X10709896Y-14855484D01*
X10709896Y-14855484D02*
X10690848Y-14855484D01*
X10690848Y-14855484D02*
X10671801Y-14845960D01*
X10671801Y-14845960D02*
X10662277Y-14836436D01*
X10662277Y-14836436D02*
X10652753Y-14817388D01*
X10652753Y-14817388D02*
X10643229Y-14779293D01*
X10643229Y-14779293D02*
X10643229Y-14731674D01*
X10643229Y-14731674D02*
X10652753Y-14693579D01*
X10652753Y-14693579D02*
X10662277Y-14674531D01*
X10662277Y-14674531D02*
X10671801Y-14665008D01*
X10671801Y-14665008D02*
X10690848Y-14655484D01*
X10833706Y-14674531D02*
X10843229Y-14665008D01*
X10843229Y-14665008D02*
X10862277Y-14655484D01*
X10862277Y-14655484D02*
X10909896Y-14655484D01*
X10909896Y-14655484D02*
X10928944Y-14665008D01*
X10928944Y-14665008D02*
X10938468Y-14674531D01*
X10938468Y-14674531D02*
X10947991Y-14693579D01*
X10947991Y-14693579D02*
X10947991Y-14712627D01*
X10947991Y-14712627D02*
X10938468Y-14741198D01*
X10938468Y-14741198D02*
X10824182Y-14855484D01*
X10824182Y-14855484D02*
X10947991Y-14855484D01*
X11128944Y-14655484D02*
X11033706Y-14655484D01*
X11033706Y-14655484D02*
X11024182Y-14750722D01*
X11024182Y-14750722D02*
X11033706Y-14741198D01*
X11033706Y-14741198D02*
X11052753Y-14731674D01*
X11052753Y-14731674D02*
X11100372Y-14731674D01*
X11100372Y-14731674D02*
X11119420Y-14741198D01*
X11119420Y-14741198D02*
X11128944Y-14750722D01*
X11128944Y-14750722D02*
X11138468Y-14769769D01*
X11138468Y-14769769D02*
X11138468Y-14817388D01*
X11138468Y-14817388D02*
X11128944Y-14836436D01*
X11128944Y-14836436D02*
X11119420Y-14845960D01*
X11119420Y-14845960D02*
X11100372Y-14855484D01*
X11100372Y-14855484D02*
X11052753Y-14855484D01*
X11052753Y-14855484D02*
X11033706Y-14845960D01*
X11033706Y-14845960D02*
X11024182Y-14836436D01*
X11309896Y-14655484D02*
X11271801Y-14655484D01*
X11271801Y-14655484D02*
X11252753Y-14665008D01*
X11252753Y-14665008D02*
X11243229Y-14674531D01*
X11243229Y-14674531D02*
X11224182Y-14703103D01*
X11224182Y-14703103D02*
X11214658Y-14741198D01*
X11214658Y-14741198D02*
X11214658Y-14817388D01*
X11214658Y-14817388D02*
X11224182Y-14836436D01*
X11224182Y-14836436D02*
X11233706Y-14845960D01*
X11233706Y-14845960D02*
X11252753Y-14855484D01*
X11252753Y-14855484D02*
X11290848Y-14855484D01*
X11290848Y-14855484D02*
X11309896Y-14845960D01*
X11309896Y-14845960D02*
X11319420Y-14836436D01*
X11319420Y-14836436D02*
X11328944Y-14817388D01*
X11328944Y-14817388D02*
X11328944Y-14769769D01*
X11328944Y-14769769D02*
X11319420Y-14750722D01*
X11319420Y-14750722D02*
X11309896Y-14741198D01*
X11309896Y-14741198D02*
X11290848Y-14731674D01*
X11290848Y-14731674D02*
X11252753Y-14731674D01*
X11252753Y-14731674D02*
X11233706Y-14741198D01*
X11233706Y-14741198D02*
X11224182Y-14750722D01*
X11224182Y-14750722D02*
X11214658Y-14769769D01*
X11405134Y-14655484D02*
X11405134Y-14693579D01*
X11481325Y-14655484D02*
X11481325Y-14693579D01*
X11776563Y-14931674D02*
X11767039Y-14922150D01*
X11767039Y-14922150D02*
X11747991Y-14893579D01*
X11747991Y-14893579D02*
X11738468Y-14874531D01*
X11738468Y-14874531D02*
X11728944Y-14845960D01*
X11728944Y-14845960D02*
X11719420Y-14798341D01*
X11719420Y-14798341D02*
X11719420Y-14760246D01*
X11719420Y-14760246D02*
X11728944Y-14712627D01*
X11728944Y-14712627D02*
X11738468Y-14684055D01*
X11738468Y-14684055D02*
X11747991Y-14665008D01*
X11747991Y-14665008D02*
X11767039Y-14636436D01*
X11767039Y-14636436D02*
X11776563Y-14626912D01*
X11947991Y-14655484D02*
X11852753Y-14655484D01*
X11852753Y-14655484D02*
X11843229Y-14750722D01*
X11843229Y-14750722D02*
X11852753Y-14741198D01*
X11852753Y-14741198D02*
X11871801Y-14731674D01*
X11871801Y-14731674D02*
X11919420Y-14731674D01*
X11919420Y-14731674D02*
X11938468Y-14741198D01*
X11938468Y-14741198D02*
X11947991Y-14750722D01*
X11947991Y-14750722D02*
X11957515Y-14769769D01*
X11957515Y-14769769D02*
X11957515Y-14817388D01*
X11957515Y-14817388D02*
X11947991Y-14836436D01*
X11947991Y-14836436D02*
X11938468Y-14845960D01*
X11938468Y-14845960D02*
X11919420Y-14855484D01*
X11919420Y-14855484D02*
X11871801Y-14855484D01*
X11871801Y-14855484D02*
X11852753Y-14845960D01*
X11852753Y-14845960D02*
X11843229Y-14836436D01*
X12024182Y-14655484D02*
X12157515Y-14655484D01*
X12157515Y-14655484D02*
X12071801Y-14855484D01*
X12271801Y-14655484D02*
X12290849Y-14655484D01*
X12290849Y-14655484D02*
X12309896Y-14665008D01*
X12309896Y-14665008D02*
X12319420Y-14674531D01*
X12319420Y-14674531D02*
X12328944Y-14693579D01*
X12328944Y-14693579D02*
X12338468Y-14731674D01*
X12338468Y-14731674D02*
X12338468Y-14779293D01*
X12338468Y-14779293D02*
X12328944Y-14817388D01*
X12328944Y-14817388D02*
X12319420Y-14836436D01*
X12319420Y-14836436D02*
X12309896Y-14845960D01*
X12309896Y-14845960D02*
X12290849Y-14855484D01*
X12290849Y-14855484D02*
X12271801Y-14855484D01*
X12271801Y-14855484D02*
X12252753Y-14845960D01*
X12252753Y-14845960D02*
X12243229Y-14836436D01*
X12243229Y-14836436D02*
X12233706Y-14817388D01*
X12233706Y-14817388D02*
X12224182Y-14779293D01*
X12224182Y-14779293D02*
X12224182Y-14731674D01*
X12224182Y-14731674D02*
X12233706Y-14693579D01*
X12233706Y-14693579D02*
X12243229Y-14674531D01*
X12243229Y-14674531D02*
X12252753Y-14665008D01*
X12252753Y-14665008D02*
X12271801Y-14655484D01*
X12576563Y-14855484D02*
X12576563Y-14655484D01*
X12662277Y-14855484D02*
X12662277Y-14750722D01*
X12662277Y-14750722D02*
X12652753Y-14731674D01*
X12652753Y-14731674D02*
X12633706Y-14722150D01*
X12633706Y-14722150D02*
X12605134Y-14722150D01*
X12605134Y-14722150D02*
X12586087Y-14731674D01*
X12586087Y-14731674D02*
X12576563Y-14741198D01*
X12786087Y-14855484D02*
X12767039Y-14845960D01*
X12767039Y-14845960D02*
X12757515Y-14836436D01*
X12757515Y-14836436D02*
X12747991Y-14817388D01*
X12747991Y-14817388D02*
X12747991Y-14760246D01*
X12747991Y-14760246D02*
X12757515Y-14741198D01*
X12757515Y-14741198D02*
X12767039Y-14731674D01*
X12767039Y-14731674D02*
X12786087Y-14722150D01*
X12786087Y-14722150D02*
X12814658Y-14722150D01*
X12814658Y-14722150D02*
X12833706Y-14731674D01*
X12833706Y-14731674D02*
X12843230Y-14741198D01*
X12843230Y-14741198D02*
X12852753Y-14760246D01*
X12852753Y-14760246D02*
X12852753Y-14817388D01*
X12852753Y-14817388D02*
X12843230Y-14836436D01*
X12843230Y-14836436D02*
X12833706Y-14845960D01*
X12833706Y-14845960D02*
X12814658Y-14855484D01*
X12814658Y-14855484D02*
X12786087Y-14855484D01*
X12967039Y-14855484D02*
X12947991Y-14845960D01*
X12947991Y-14845960D02*
X12938468Y-14826912D01*
X12938468Y-14826912D02*
X12938468Y-14655484D01*
X13119420Y-14845960D02*
X13100372Y-14855484D01*
X13100372Y-14855484D02*
X13062277Y-14855484D01*
X13062277Y-14855484D02*
X13043230Y-14845960D01*
X13043230Y-14845960D02*
X13033706Y-14826912D01*
X13033706Y-14826912D02*
X13033706Y-14750722D01*
X13033706Y-14750722D02*
X13043230Y-14731674D01*
X13043230Y-14731674D02*
X13062277Y-14722150D01*
X13062277Y-14722150D02*
X13100372Y-14722150D01*
X13100372Y-14722150D02*
X13119420Y-14731674D01*
X13119420Y-14731674D02*
X13128944Y-14750722D01*
X13128944Y-14750722D02*
X13128944Y-14769769D01*
X13128944Y-14769769D02*
X13033706Y-14788817D01*
X13205134Y-14845960D02*
X13224182Y-14855484D01*
X13224182Y-14855484D02*
X13262277Y-14855484D01*
X13262277Y-14855484D02*
X13281325Y-14845960D01*
X13281325Y-14845960D02*
X13290849Y-14826912D01*
X13290849Y-14826912D02*
X13290849Y-14817388D01*
X13290849Y-14817388D02*
X13281325Y-14798341D01*
X13281325Y-14798341D02*
X13262277Y-14788817D01*
X13262277Y-14788817D02*
X13233706Y-14788817D01*
X13233706Y-14788817D02*
X13214658Y-14779293D01*
X13214658Y-14779293D02*
X13205134Y-14760246D01*
X13205134Y-14760246D02*
X13205134Y-14750722D01*
X13205134Y-14750722D02*
X13214658Y-14731674D01*
X13214658Y-14731674D02*
X13233706Y-14722150D01*
X13233706Y-14722150D02*
X13262277Y-14722150D01*
X13262277Y-14722150D02*
X13281325Y-14731674D01*
X13357515Y-14931674D02*
X13367039Y-14922150D01*
X13367039Y-14922150D02*
X13386087Y-14893579D01*
X13386087Y-14893579D02*
X13395611Y-14874531D01*
X13395611Y-14874531D02*
X13405134Y-14845960D01*
X13405134Y-14845960D02*
X13414658Y-14798341D01*
X13414658Y-14798341D02*
X13414658Y-14760246D01*
X13414658Y-14760246D02*
X13405134Y-14712627D01*
X13405134Y-14712627D02*
X13395611Y-14684055D01*
X13395611Y-14684055D02*
X13386087Y-14665008D01*
X13386087Y-14665008D02*
X13367039Y-14636436D01*
X13367039Y-14636436D02*
X13357515Y-14626912D01*
M02*
