M48
; DRILL file {KiCad 8.0.4} date 2025-01-31T11:06:41+0100
; FORMAT={-:-/ absolute / metric / decimal}
; #@! TF.CreationDate,2025-01-31T11:06:41+01:00
; #@! TF.GenerationSoftware,Kicad,Pcbnew,8.0.4
; #@! TF.FileFunction,Plated,1,2,PTH
FMAT,2
METRIC
; #@! TA.AperFunction,Plated,PTH,ViaDrill
T1C0.400
; #@! TA.AperFunction,Plated,PTH,ComponentDrill
T2C1.000
%
G90
G05
T1
X99.132Y-88.585
X99.238Y-105.842
X99.873Y-106.858
X99.876Y-89.175
X100.508Y-89.967
X100.569Y-107.775
X101.261Y-108.425
X101.27Y-90.602
X102.032Y-91.491
X102.057Y-109.348
X102.794Y-92.253
X102.857Y-110.148
X103.646Y-93.105
X103.657Y-110.821
X104.445Y-93.777
X104.457Y-111.747
X105.276Y-94.731
X106.096Y-95.428
X106.858Y-96.19
X107.706Y-97.0
X108.446Y-97.71
X109.271Y-98.476
X110.083Y-99.262
X110.795Y-100.127
X111.684Y-100.889
X111.982Y-112.236
X112.446Y-104.572
X113.16Y-112.494
T2
X83.871Y-73.965
X83.871Y-76.505
X83.871Y-79.045
X83.871Y-81.585
X83.871Y-84.252
X83.871Y-86.792
X83.871Y-89.332
X83.871Y-91.872
X83.871Y-94.412
X83.871Y-96.952
X83.871Y-99.492
X83.871Y-102.032
X83.871Y-104.572
X83.871Y-107.112
X83.871Y-109.652
X83.871Y-112.192
X83.871Y-114.732
X83.871Y-117.272
X83.871Y-119.939
X83.871Y-122.479
X83.871Y-125.019
X86.411Y-73.965
X86.411Y-76.505
X86.411Y-79.045
X86.411Y-81.585
X86.411Y-84.252
X86.411Y-86.792
X86.411Y-89.332
X86.411Y-91.872
X86.411Y-94.412
X86.411Y-96.952
X86.411Y-99.492
X86.411Y-102.032
X86.411Y-104.572
X86.411Y-107.112
X86.411Y-109.652
X86.411Y-112.192
X86.411Y-114.732
X86.411Y-117.272
X86.411Y-119.939
X86.411Y-122.479
X86.411Y-125.019
X88.951Y-73.965
X88.951Y-76.505
X88.951Y-79.045
X88.951Y-81.585
X88.951Y-84.252
X88.951Y-86.792
X88.951Y-89.332
X88.951Y-91.872
X88.951Y-94.412
X88.951Y-96.952
X88.951Y-99.492
X88.951Y-102.032
X88.951Y-104.572
X88.951Y-107.112
X88.951Y-109.652
X88.951Y-112.192
X88.951Y-114.732
X88.951Y-117.272
X88.951Y-119.939
X88.951Y-122.479
X88.951Y-125.019
X91.491Y-73.965
X91.491Y-76.505
X91.491Y-79.045
X91.491Y-81.585
X91.491Y-84.252
X91.491Y-86.792
X91.491Y-89.332
X91.491Y-91.872
X91.491Y-94.412
X91.491Y-96.952
X91.491Y-99.492
X91.491Y-102.032
X91.491Y-104.572
X91.491Y-107.112
X91.491Y-109.652
X91.491Y-112.192
X91.491Y-114.732
X91.491Y-117.272
X91.491Y-119.939
X91.491Y-122.479
X91.491Y-125.019
X94.031Y-73.965
X94.031Y-76.505
X94.031Y-79.045
X94.031Y-81.585
X94.031Y-84.252
X94.031Y-86.792
X94.031Y-89.332
X94.031Y-91.872
X94.031Y-94.412
X94.031Y-96.952
X94.031Y-99.492
X94.031Y-102.032
X94.031Y-104.572
X94.031Y-107.112
X94.031Y-109.652
X94.031Y-112.192
X94.031Y-114.732
X94.031Y-117.272
X94.031Y-119.939
X94.031Y-122.479
X94.031Y-125.019
X96.571Y-73.965
X96.571Y-76.505
X96.571Y-79.045
X96.571Y-81.585
X96.571Y-84.252
X96.571Y-86.792
X96.571Y-89.332
X96.571Y-91.872
X96.571Y-94.412
X96.571Y-96.952
X96.571Y-99.492
X96.571Y-102.032
X96.571Y-104.572
X96.571Y-107.112
X96.571Y-109.652
X96.571Y-112.192
X96.571Y-114.732
X96.571Y-117.272
X96.571Y-119.939
X96.571Y-122.479
X96.571Y-125.019
X99.111Y-73.965
X99.111Y-76.505
X99.111Y-79.045
X99.111Y-81.585
X99.111Y-117.399
X99.111Y-119.939
X99.111Y-122.479
X99.111Y-125.019
X101.651Y-73.965
X101.651Y-76.505
X101.651Y-79.045
X101.651Y-81.585
X101.651Y-117.399
X101.651Y-119.939
X101.651Y-122.479
X101.651Y-125.019
X104.191Y-73.965
X104.191Y-76.505
X104.191Y-79.045
X104.191Y-81.585
X104.191Y-117.399
X104.191Y-119.939
X104.191Y-122.479
X104.191Y-125.019
X106.731Y-73.965
X106.731Y-76.505
X106.731Y-79.045
X106.731Y-81.585
X106.731Y-117.399
X106.731Y-119.939
X106.731Y-122.479
X106.731Y-125.019
X109.271Y-73.965
X109.271Y-76.505
X109.271Y-79.045
X109.271Y-81.585
X109.271Y-117.399
X109.271Y-119.939
X109.271Y-122.479
X109.271Y-125.019
X111.811Y-73.965
X111.811Y-76.505
X111.811Y-79.045
X111.811Y-81.585
X111.811Y-117.399
X111.811Y-119.939
X111.811Y-122.479
X111.811Y-125.019
M30
