%TF.GenerationSoftware,KiCad,Pcbnew,8.0.4*%
%TF.CreationDate,2025-03-13T20:49:44+01:00*%
%TF.ProjectId,uconsole-expansion-card-template.kicad_pcb_2.54,75636f6e-736f-46c6-952d-657870616e73,0.1*%
%TF.SameCoordinates,Original*%
%TF.FileFunction,Soldermask,Bot*%
%TF.FilePolarity,Negative*%
%FSLAX46Y46*%
G04 Gerber Fmt 4.6, Leading zero omitted, Abs format (unit mm)*
G04 Created by KiCad (PCBNEW 8.0.4) date 2025-03-13 20:49:44*
%MOMM*%
%LPD*%
G01*
G04 APERTURE LIST*
G04 Aperture macros list*
%AMRoundRect*
0 Rectangle with rounded corners*
0 $1 Rounding radius*
0 $2 $3 $4 $5 $6 $7 $8 $9 X,Y pos of 4 corners*
0 Add a 4 corners polygon primitive as box body*
4,1,4,$2,$3,$4,$5,$6,$7,$8,$9,$2,$3,0*
0 Add four circle primitives for the rounded corners*
1,1,$1+$1,$2,$3*
1,1,$1+$1,$4,$5*
1,1,$1+$1,$6,$7*
1,1,$1+$1,$8,$9*
0 Add four rect primitives between the rounded corners*
20,1,$1+$1,$2,$3,$4,$5,0*
20,1,$1+$1,$4,$5,$6,$7,0*
20,1,$1+$1,$6,$7,$8,$9,0*
20,1,$1+$1,$8,$9,$2,$3,0*%
G04 Aperture macros list end*
%ADD10C,0.100000*%
%ADD11R,1.700000X1.700000*%
%ADD12C,5.000000*%
%ADD13R,2.300000X0.600000*%
%ADD14RoundRect,0.250000X0.250000X0.750000X-0.250000X0.750000X-0.250000X-0.750000X0.250000X-0.750000X0*%
G04 APERTURE END LIST*
%TO.C,U1*%
D10*
X115380400Y-86284000D02*
X118530000Y-86284000D01*
X118530000Y-113462000D01*
X115380400Y-113462000D01*
X115380400Y-86284000D01*
G36*
X115380400Y-86284000D02*
G01*
X118530000Y-86284000D01*
X118530000Y-113462000D01*
X115380400Y-113462000D01*
X115380400Y-86284000D01*
G37*
%TD*%
D11*
%TO.C,111*%
X83810000Y-112065000D03*
%TD*%
%TO.C,180*%
X111750000Y-117145000D03*
%TD*%
%TO.C,51*%
X101590000Y-81585000D03*
%TD*%
%TO.C,53*%
X106670000Y-81585000D03*
%TD*%
%TO.C,64*%
X91430000Y-86665000D03*
%TD*%
%TO.C,48*%
X93970000Y-81585000D03*
%TD*%
%TO.C,*%
X83810000Y-73965000D03*
%TD*%
%TO.C,147*%
X96510000Y-109525000D03*
%TD*%
%TO.C,81*%
X83810000Y-96825000D03*
%TD*%
%TO.C,50*%
X99050000Y-81585000D03*
%TD*%
%TO.C,12*%
X93970000Y-73965000D03*
%TD*%
%TO.C,171*%
X106670000Y-119685000D03*
%TD*%
%TO.C,102*%
X86350000Y-106985000D03*
%TD*%
D12*
%TO.C,H1*%
X89128800Y-67488000D03*
%TD*%
D11*
%TO.C,33*%
X86350000Y-79045000D03*
%TD*%
%TO.C,88*%
X88890000Y-99365000D03*
%TD*%
%TO.C,43*%
X111750000Y-79045000D03*
%TD*%
%TO.C,95*%
X93970000Y-101905000D03*
%TD*%
%TO.C,19*%
X111750000Y-73965000D03*
%TD*%
%TO.C,10*%
X88890000Y-73965000D03*
%TD*%
%TO.C,16*%
X104130000Y-73965000D03*
%TD*%
%TO.C,97*%
X86350000Y-104445000D03*
%TD*%
%TO.C,126*%
X83810000Y-119685000D03*
%TD*%
%TO.C,113*%
X88890000Y-112065000D03*
%TD*%
%TO.C,116*%
X83810000Y-114605000D03*
%TD*%
%TO.C,58*%
X88890000Y-84125000D03*
%TD*%
%TO.C,57*%
X86350000Y-84125000D03*
%TD*%
%TO.C,139*%
X91430000Y-124765000D03*
%TD*%
%TO.C,44*%
X83810000Y-81585000D03*
%TD*%
%TO.C,117*%
X86350000Y-114605000D03*
%TD*%
%TO.C,61*%
X83810000Y-86665000D03*
%TD*%
%TO.C,56*%
X83810000Y-84125000D03*
%TD*%
%TO.C,86*%
X83810000Y-99365000D03*
%TD*%
%TO.C,173*%
X106670000Y-124765000D03*
%TD*%
%TO.C,156*%
X99050000Y-119685000D03*
%TD*%
%TO.C,118*%
X88890000Y-114605000D03*
%TD*%
%TO.C,138*%
X88890000Y-124765000D03*
%TD*%
%TO.C,85*%
X93970000Y-96825000D03*
%TD*%
%TO.C,62*%
X86350000Y-86665000D03*
%TD*%
%TO.C,93*%
X88890000Y-101905000D03*
%TD*%
%TO.C,136*%
X83810000Y-124765000D03*
%TD*%
%TO.C,176*%
X109210000Y-119685000D03*
%TD*%
%TO.C,23*%
X91430000Y-76505000D03*
%TD*%
%TO.C,108*%
X88890000Y-109525000D03*
%TD*%
%TO.C,63*%
X88890000Y-86665000D03*
%TD*%
%TO.C,182*%
X111750000Y-122225000D03*
%TD*%
%TO.C,67*%
X86350000Y-89205000D03*
%TD*%
%TO.C,177*%
X109210000Y-122225000D03*
%TD*%
%TO.C,168*%
X104130000Y-124765000D03*
%TD*%
%TO.C,89*%
X91430000Y-99365000D03*
%TD*%
%TO.C,30*%
X109210000Y-76505000D03*
%TD*%
%TO.C,165*%
X104130000Y-117145000D03*
%TD*%
%TO.C,148*%
X96510000Y-112065000D03*
%TD*%
%TO.C,119*%
X91430000Y-114605000D03*
%TD*%
%TO.C,153*%
X96510000Y-124765000D03*
%TD*%
%TO.C,20*%
X83810000Y-76505000D03*
%TD*%
%TO.C,42*%
X109210000Y-79045000D03*
%TD*%
%TO.C,79*%
X91430000Y-94285000D03*
%TD*%
%TO.C,65*%
X93970000Y-86665000D03*
%TD*%
%TO.C,13*%
X96510000Y-73965000D03*
%TD*%
%TO.C,144*%
X96510000Y-91745000D03*
%TD*%
%TO.C,106*%
X83810000Y-109525000D03*
%TD*%
%TO.C,36*%
X93970000Y-79045000D03*
%TD*%
%TO.C,99*%
X91430000Y-104445000D03*
%TD*%
%TO.C,137*%
X86350000Y-124765000D03*
%TD*%
%TO.C,71*%
X83810000Y-91745000D03*
%TD*%
%TO.C,123*%
X88890000Y-117145000D03*
%TD*%
%TO.C,14*%
X99050000Y-73965000D03*
%TD*%
%TO.C,105*%
X93970000Y-106985000D03*
%TD*%
%TO.C,46*%
X88890000Y-81585000D03*
%TD*%
%TO.C,15*%
X101590000Y-73965000D03*
%TD*%
%TO.C,68*%
X88890000Y-89205000D03*
%TD*%
%TO.C,167*%
X104130000Y-122225000D03*
%TD*%
%TO.C,76*%
X83810000Y-94285000D03*
%TD*%
%TO.C,80*%
X93970000Y-94285000D03*
%TD*%
%TO.C,91*%
X83810000Y-101905000D03*
%TD*%
%TO.C,160*%
X101590000Y-117145000D03*
%TD*%
%TO.C,98*%
X88890000Y-104445000D03*
%TD*%
%TO.C,154*%
X96510000Y-96825000D03*
%TD*%
%TO.C,155*%
X99050000Y-117145000D03*
%TD*%
%TO.C,129*%
X91430000Y-119685000D03*
%TD*%
%TO.C,151*%
X96510000Y-119685000D03*
%TD*%
%TO.C,115*%
X93970000Y-112065000D03*
%TD*%
%TO.C,130*%
X93970000Y-119685000D03*
%TD*%
%TO.C,125*%
X93970000Y-117145000D03*
%TD*%
%TO.C,159*%
X96510000Y-99365000D03*
%TD*%
%TO.C,22*%
X88890000Y-76505000D03*
%TD*%
%TO.C,84*%
X91430000Y-96825000D03*
%TD*%
%TO.C,87*%
X86350000Y-99365000D03*
%TD*%
%TO.C,134*%
X91430000Y-122225000D03*
%TD*%
%TO.C,128*%
X88890000Y-119685000D03*
%TD*%
%TO.C,21*%
X86350000Y-76505000D03*
%TD*%
%TO.C,158*%
X99050000Y-124765000D03*
%TD*%
%TO.C,183*%
X111750000Y-124765000D03*
%TD*%
%TO.C,100*%
X93970000Y-104445000D03*
%TD*%
%TO.C,133*%
X88890000Y-122225000D03*
%TD*%
%TO.C,181*%
X111750000Y-119685000D03*
%TD*%
%TO.C,131*%
X83810000Y-122225000D03*
%TD*%
%TO.C,9*%
X86350000Y-73965000D03*
%TD*%
%TO.C,132*%
X86350000Y-122225000D03*
%TD*%
%TO.C,35*%
X91430000Y-79045000D03*
%TD*%
D13*
%TO.C,U1*%
X116485000Y-111380000D03*
X116485000Y-110580000D03*
X116485000Y-109780000D03*
X116485000Y-108980000D03*
X116485000Y-108180000D03*
X116485000Y-107380000D03*
X116485000Y-106580000D03*
X116485000Y-105780000D03*
X116485000Y-101780000D03*
X116485000Y-100980000D03*
X116485000Y-100180000D03*
X116485000Y-99380000D03*
X116485000Y-98580000D03*
X116485000Y-97780000D03*
X116485000Y-96980000D03*
X116485000Y-96180000D03*
X116485000Y-95380000D03*
X116485000Y-94580000D03*
X116485000Y-93780000D03*
X116485000Y-92980000D03*
X116485000Y-92180000D03*
X116485000Y-91380000D03*
X116485000Y-90580000D03*
X116485000Y-89780000D03*
X116485000Y-88980000D03*
X116485000Y-88180000D03*
%TD*%
D11*
%TO.C,55*%
X111750000Y-81585000D03*
%TD*%
D12*
%TO.C,H2*%
X89205000Y-132385000D03*
%TD*%
D11*
%TO.C,127*%
X86350000Y-119685000D03*
%TD*%
%TO.C,78*%
X88890000Y-94285000D03*
%TD*%
%TO.C,59*%
X91430000Y-84125000D03*
%TD*%
%TO.C,40*%
X104130000Y-79045000D03*
%TD*%
%TO.C,54*%
X109210000Y-81585000D03*
%TD*%
%TO.C,25*%
X96510000Y-76505000D03*
%TD*%
%TO.C,24*%
X93970000Y-76505000D03*
%TD*%
%TO.C,28*%
X104130000Y-76505000D03*
%TD*%
%TO.C,109*%
X91430000Y-109525000D03*
%TD*%
%TO.C,152*%
X96510000Y-122225000D03*
%TD*%
%TO.C,92*%
X86350000Y-101905000D03*
%TD*%
%TO.C,11*%
X91430000Y-73965000D03*
%TD*%
%TO.C,77*%
X86350000Y-94285000D03*
%TD*%
%TO.C,114*%
X91430000Y-112065000D03*
%TD*%
%TO.C,94*%
X91430000Y-101905000D03*
%TD*%
%TO.C,143*%
X96510000Y-89205000D03*
%TD*%
%TO.C,170*%
X106670000Y-117145000D03*
%TD*%
%TO.C,66*%
X83810000Y-89205000D03*
%TD*%
%TO.C,175*%
X109210000Y-117145000D03*
%TD*%
%TO.C,178*%
X109210000Y-124765000D03*
%TD*%
%TO.C,90*%
X93970000Y-99365000D03*
%TD*%
%TO.C,32*%
X83810000Y-79045000D03*
%TD*%
%TO.C,107*%
X86350000Y-109525000D03*
%TD*%
%TO.C,83*%
X88890000Y-96825000D03*
%TD*%
%TO.C,112*%
X86350000Y-112065000D03*
%TD*%
%TO.C,146*%
X96510000Y-106985000D03*
%TD*%
%TO.C,122*%
X86350000Y-117145000D03*
%TD*%
%TO.C,166*%
X104130000Y-119685000D03*
%TD*%
%TO.C,49*%
X96510000Y-81585000D03*
%TD*%
%TO.C,38*%
X99050000Y-79045000D03*
%TD*%
%TO.C,124*%
X91430000Y-117145000D03*
%TD*%
%TO.C,162*%
X101590000Y-122225000D03*
%TD*%
%TO.C,145*%
X96510000Y-94285000D03*
%TD*%
%TO.C,110*%
X93970000Y-109525000D03*
%TD*%
%TO.C,140*%
X93970000Y-124765000D03*
%TD*%
%TO.C,82*%
X86350000Y-96825000D03*
%TD*%
%TO.C,73*%
X88890000Y-91745000D03*
%TD*%
%TO.C,74*%
X91430000Y-91745000D03*
%TD*%
%TO.C,101*%
X83810000Y-106985000D03*
%TD*%
%TO.C,75*%
X93970000Y-91745000D03*
%TD*%
%TO.C,34*%
X88890000Y-79045000D03*
%TD*%
%TO.C,41*%
X106670000Y-79045000D03*
%TD*%
%TO.C,135*%
X93970000Y-122225000D03*
%TD*%
%TO.C,157*%
X99050000Y-122225000D03*
%TD*%
%TO.C,96*%
X83810000Y-104445000D03*
%TD*%
%TO.C,26*%
X99050000Y-76505000D03*
%TD*%
%TO.C,52*%
X104130000Y-81585000D03*
%TD*%
%TO.C,161*%
X101590000Y-119685000D03*
%TD*%
%TO.C,47*%
X91430000Y-81585000D03*
%TD*%
%TO.C,69*%
X91430000Y-89205000D03*
%TD*%
%TO.C,31*%
X111750000Y-76505000D03*
%TD*%
%TO.C,150*%
X96510000Y-117145000D03*
%TD*%
%TO.C,149*%
X96510000Y-114605000D03*
%TD*%
%TO.C,27*%
X101590000Y-76505000D03*
%TD*%
%TO.C,45*%
X86350000Y-81585000D03*
%TD*%
%TO.C,70*%
X93970000Y-89205000D03*
%TD*%
%TO.C,60*%
X93970000Y-84125000D03*
%TD*%
%TO.C,39*%
X101590000Y-79045000D03*
%TD*%
%TO.C,37*%
X96510000Y-79045000D03*
%TD*%
%TO.C,121*%
X83810000Y-117145000D03*
%TD*%
%TO.C,18*%
X109210000Y-73965000D03*
%TD*%
%TO.C,104*%
X91430000Y-106985000D03*
%TD*%
%TO.C,72*%
X86350000Y-91745000D03*
%TD*%
%TO.C,163*%
X101590000Y-124765000D03*
%TD*%
%TO.C,29*%
X106670000Y-76505000D03*
%TD*%
%TO.C,172*%
X106670000Y-122225000D03*
%TD*%
%TO.C,103*%
X88890000Y-106985000D03*
%TD*%
%TO.C,17*%
X106670000Y-73965000D03*
%TD*%
%TO.C,120*%
X93970000Y-114605000D03*
%TD*%
D14*
%TO.C,U3*%
X109965000Y-131000000D03*
X109965000Y-134000000D03*
X95195000Y-134000000D03*
X95195000Y-131000000D03*
%TD*%
%TO.C,U2*%
X109965000Y-66000000D03*
X109965000Y-69000000D03*
X95195000Y-69000000D03*
X95195000Y-66000000D03*
%TD*%
M02*
