%TF.GenerationSoftware,KiCad,Pcbnew,8.0.4*%
%TF.CreationDate,2025-01-31T11:06:39+01:00*%
%TF.ProjectId,uconsole-expansion-card-template.kicad_pcb_2.54,75636f6e-736f-46c6-952d-657870616e73,0.1*%
%TF.SameCoordinates,Original*%
%TF.FileFunction,Soldermask,Bot*%
%TF.FilePolarity,Negative*%
%FSLAX46Y46*%
G04 Gerber Fmt 4.6, Leading zero omitted, Abs format (unit mm)*
G04 Created by KiCad (PCBNEW 8.0.4) date 2025-01-31 11:06:39*
%MOMM*%
%LPD*%
G01*
G04 APERTURE LIST*
G04 Aperture macros list*
%AMRoundRect*
0 Rectangle with rounded corners*
0 $1 Rounding radius*
0 $2 $3 $4 $5 $6 $7 $8 $9 X,Y pos of 4 corners*
0 Add a 4 corners polygon primitive as box body*
4,1,4,$2,$3,$4,$5,$6,$7,$8,$9,$2,$3,0*
0 Add four circle primitives for the rounded corners*
1,1,$1+$1,$2,$3*
1,1,$1+$1,$4,$5*
1,1,$1+$1,$6,$7*
1,1,$1+$1,$8,$9*
0 Add four rect primitives between the rounded corners*
20,1,$1+$1,$2,$3,$4,$5,0*
20,1,$1+$1,$4,$5,$6,$7,0*
20,1,$1+$1,$6,$7,$8,$9,0*
20,1,$1+$1,$8,$9,$2,$3,0*%
G04 Aperture macros list end*
%ADD10C,0.100000*%
%ADD11R,1.700000X1.700000*%
%ADD12C,5.000000*%
%ADD13R,2.300000X0.600000*%
%ADD14RoundRect,0.250000X0.250000X0.750000X-0.250000X0.750000X-0.250000X-0.750000X0.250000X-0.750000X0*%
G04 APERTURE END LIST*
%TO.C,U1*%
D10*
X115380400Y-86284000D02*
X118530000Y-86284000D01*
X118530000Y-113462000D01*
X115380400Y-113462000D01*
X115380400Y-86284000D01*
G36*
X115380400Y-86284000D02*
G01*
X118530000Y-86284000D01*
X118530000Y-113462000D01*
X115380400Y-113462000D01*
X115380400Y-86284000D01*
G37*
%TD*%
D11*
%TO.C,111*%
X94031000Y-125019000D03*
%TD*%
%TO.C,63*%
X91491000Y-109652000D03*
%TD*%
%TO.C,83*%
X96571000Y-117272000D03*
%TD*%
%TO.C,117*%
X109271000Y-125019000D03*
%TD*%
%TO.C,119*%
X83871000Y-81585000D03*
%TD*%
%TO.C,85*%
X88951000Y-73965000D03*
%TD*%
%TO.C,70*%
X94031000Y-112192000D03*
%TD*%
%TO.C,101*%
X99111000Y-76505000D03*
%TD*%
%TO.C,25*%
X86411000Y-94412000D03*
%TD*%
%TO.C,74*%
X88951000Y-114732000D03*
%TD*%
%TO.C,29*%
X96571000Y-94412000D03*
%TD*%
%TO.C,96*%
X86411000Y-122479000D03*
%TD*%
%TO.C,116*%
X106731000Y-125019000D03*
%TD*%
%TO.C,101*%
X99111000Y-122479000D03*
%TD*%
D12*
%TO.C,H1*%
X89128800Y-67488000D03*
%TD*%
D11*
%TO.C,69*%
X91491000Y-112192000D03*
%TD*%
%TO.C,81*%
X91491000Y-117272000D03*
%TD*%
%TO.C,91*%
X104191000Y-119939000D03*
%TD*%
%TO.C,111*%
X94031000Y-79045000D03*
%TD*%
%TO.C,93*%
X109271000Y-73965000D03*
%TD*%
%TO.C,39*%
X91491000Y-99492000D03*
%TD*%
%TO.C,3*%
X91491000Y-84252000D03*
%TD*%
%TO.C,23*%
X96571000Y-91872000D03*
%TD*%
%TO.C,122*%
X106731000Y-117399000D03*
%TD*%
%TO.C,95*%
X83871000Y-122479000D03*
%TD*%
%TO.C,5*%
X83871000Y-73965000D03*
%TD*%
%TO.C,114*%
X101651000Y-125019000D03*
%TD*%
%TO.C,13*%
X86411000Y-89332000D03*
%TD*%
%TO.C,100*%
X96571000Y-122479000D03*
%TD*%
%TO.C,30*%
X83871000Y-96952000D03*
%TD*%
%TO.C,20*%
X88951000Y-91872000D03*
%TD*%
%TO.C,52*%
X94031000Y-104572000D03*
%TD*%
%TO.C,108*%
X86411000Y-125019000D03*
%TD*%
%TO.C,128*%
X106731000Y-81585000D03*
%TD*%
%TO.C,109*%
X88951000Y-125019000D03*
%TD*%
%TO.C,68*%
X88951000Y-112192000D03*
%TD*%
%TO.C,113*%
X99111000Y-79045000D03*
%TD*%
%TO.C,36*%
X83871000Y-99492000D03*
%TD*%
%TO.C,11*%
X96571000Y-86792000D03*
%TD*%
%TO.C,112*%
X96571000Y-79045000D03*
%TD*%
%TO.C,99*%
X94031000Y-122479000D03*
%TD*%
%TO.C,86*%
X91491000Y-119939000D03*
%TD*%
%TO.C,79*%
X86411000Y-117272000D03*
%TD*%
%TO.C,82*%
X94031000Y-117272000D03*
%TD*%
%TO.C,107*%
X83871000Y-125019000D03*
%TD*%
%TO.C,*%
X83871000Y-84252000D03*
%TD*%
%TO.C,28*%
X94031000Y-94412000D03*
%TD*%
%TO.C,99*%
X94031000Y-76505000D03*
%TD*%
%TO.C,112*%
X96571000Y-125019000D03*
%TD*%
%TO.C,87*%
X94031000Y-73965000D03*
%TD*%
%TO.C,98*%
X91491000Y-76505000D03*
%TD*%
%TO.C,110*%
X91491000Y-125019000D03*
%TD*%
%TO.C,118*%
X111811000Y-125019000D03*
%TD*%
%TO.C,54*%
X83871000Y-107112000D03*
%TD*%
%TO.C,55*%
X86411000Y-107112000D03*
%TD*%
%TO.C,109*%
X88951000Y-79045000D03*
%TD*%
%TO.C,58*%
X94031000Y-107112000D03*
%TD*%
%TO.C,87*%
X94031000Y-119939000D03*
%TD*%
%TO.C,76*%
X94031000Y-114732000D03*
%TD*%
%TO.C,21*%
X91491000Y-91872000D03*
%TD*%
%TO.C,65*%
X96571000Y-109652000D03*
%TD*%
%TO.C,78*%
X83871000Y-117272000D03*
%TD*%
%TO.C,115*%
X104191000Y-125019000D03*
%TD*%
%TO.C,35*%
X96571000Y-96952000D03*
%TD*%
%TO.C,90*%
X101651000Y-73965000D03*
%TD*%
%TO.C,26*%
X88951000Y-94412000D03*
%TD*%
%TO.C,43*%
X86411000Y-102032000D03*
%TD*%
%TO.C,71*%
X96571000Y-112192000D03*
%TD*%
%TO.C,124*%
X111811000Y-117399000D03*
%TD*%
%TO.C,93*%
X109271000Y-119939000D03*
%TD*%
%TO.C,44*%
X88951000Y-102032000D03*
%TD*%
%TO.C,120*%
X101651000Y-117399000D03*
%TD*%
%TO.C,80*%
X88951000Y-117272000D03*
%TD*%
%TO.C,84*%
X86411000Y-73965000D03*
%TD*%
%TO.C,94*%
X111811000Y-73965000D03*
%TD*%
%TO.C,96*%
X86411000Y-76505000D03*
%TD*%
%TO.C,119*%
X99111000Y-117399000D03*
%TD*%
%TO.C,57*%
X91491000Y-107112000D03*
%TD*%
%TO.C,14*%
X88951000Y-89332000D03*
%TD*%
%TO.C,97*%
X88951000Y-76505000D03*
%TD*%
%TO.C,97*%
X88951000Y-122479000D03*
%TD*%
%TO.C,84*%
X86411000Y-119939000D03*
%TD*%
%TO.C,94*%
X111811000Y-119939000D03*
%TD*%
%TO.C,108*%
X86411000Y-79045000D03*
%TD*%
%TO.C,53*%
X96571000Y-104572000D03*
%TD*%
%TO.C,59*%
X96571000Y-107112000D03*
%TD*%
%TO.C,12*%
X83871000Y-89332000D03*
%TD*%
%TO.C,1*%
X86411000Y-84252000D03*
%TD*%
%TO.C,115*%
X104191000Y-79045000D03*
%TD*%
%TO.C,17*%
X96571000Y-89332000D03*
%TD*%
%TO.C,127*%
X104191000Y-81585000D03*
%TD*%
%TO.C,50*%
X88951000Y-104572000D03*
%TD*%
%TO.C,60*%
X83871000Y-109652000D03*
%TD*%
%TO.C,9*%
X91491000Y-86792000D03*
%TD*%
%TO.C,125*%
X99111000Y-81585000D03*
%TD*%
%TO.C,31*%
X86411000Y-96952000D03*
%TD*%
%TO.C,16*%
X94031000Y-89332000D03*
%TD*%
%TO.C,110*%
X91491000Y-79045000D03*
%TD*%
%TO.C,121*%
X104191000Y-117399000D03*
%TD*%
%TO.C,15*%
X91491000Y-89332000D03*
%TD*%
%TO.C,103*%
X104191000Y-76505000D03*
%TD*%
%TO.C,77*%
X96571000Y-114732000D03*
%TD*%
%TO.C,5*%
X83871000Y-119939000D03*
%TD*%
%TO.C,41*%
X96571000Y-99492000D03*
%TD*%
%TO.C,105*%
X109271000Y-122479000D03*
%TD*%
%TO.C,120*%
X86411000Y-81585000D03*
%TD*%
%TO.C,61*%
X86411000Y-109652000D03*
%TD*%
%TO.C,104*%
X106731000Y-122479000D03*
%TD*%
%TO.C,89*%
X99111000Y-73965000D03*
%TD*%
%TO.C,7*%
X86411000Y-86792000D03*
%TD*%
%TO.C,113*%
X99111000Y-125019000D03*
%TD*%
D13*
%TO.C,U1*%
X116485000Y-111380000D03*
X116485000Y-110580000D03*
X116485000Y-109780000D03*
X116485000Y-108980000D03*
X116485000Y-108180000D03*
X116485000Y-107380000D03*
X116485000Y-106580000D03*
X116485000Y-105780000D03*
X116485000Y-101780000D03*
X116485000Y-100980000D03*
X116485000Y-100180000D03*
X116485000Y-99380000D03*
X116485000Y-98580000D03*
X116485000Y-97780000D03*
X116485000Y-96980000D03*
X116485000Y-96180000D03*
X116485000Y-95380000D03*
X116485000Y-94580000D03*
X116485000Y-93780000D03*
X116485000Y-92980000D03*
X116485000Y-92180000D03*
X116485000Y-91380000D03*
X116485000Y-90580000D03*
X116485000Y-89780000D03*
X116485000Y-88980000D03*
X116485000Y-88180000D03*
%TD*%
D11*
%TO.C,85*%
X88951000Y-119939000D03*
%TD*%
%TO.C,103*%
X104191000Y-122479000D03*
%TD*%
%TO.C,34*%
X94031000Y-96952000D03*
%TD*%
%TO.C,104*%
X106731000Y-76505000D03*
%TD*%
%TO.C,124*%
X96571000Y-81585000D03*
%TD*%
%TO.C,49*%
X86411000Y-104572000D03*
%TD*%
%TO.C,106*%
X111811000Y-76505000D03*
%TD*%
%TO.C,88*%
X96571000Y-73965000D03*
%TD*%
%TO.C,32*%
X88951000Y-96952000D03*
%TD*%
%TO.C,46*%
X94031000Y-102032000D03*
%TD*%
%TO.C,105*%
X109271000Y-76505000D03*
%TD*%
%TO.C,130*%
X111811000Y-81585000D03*
%TD*%
%TO.C,118*%
X111811000Y-79045000D03*
%TD*%
%TO.C,22*%
X94031000Y-91872000D03*
%TD*%
%TO.C,107*%
X83871000Y-79045000D03*
%TD*%
%TO.C,66*%
X83871000Y-112192000D03*
%TD*%
%TO.C,4*%
X94031000Y-84252000D03*
%TD*%
%TO.C,27*%
X91491000Y-94412000D03*
%TD*%
%TO.C,37*%
X86411000Y-99492000D03*
%TD*%
%TO.C,88*%
X96571000Y-119939000D03*
%TD*%
%TO.C,122*%
X91491000Y-81585000D03*
%TD*%
%TO.C,91*%
X104191000Y-73965000D03*
%TD*%
%TO.C,42*%
X83871000Y-102032000D03*
%TD*%
%TO.C,126*%
X101651000Y-81585000D03*
%TD*%
%TO.C,95*%
X83871000Y-76505000D03*
%TD*%
%TO.C,106*%
X111811000Y-122479000D03*
%TD*%
%TO.C,47*%
X96571000Y-102032000D03*
%TD*%
%TO.C,38*%
X88951000Y-99492000D03*
%TD*%
%TO.C,90*%
X101651000Y-119939000D03*
%TD*%
%TO.C,67*%
X86411000Y-112192000D03*
%TD*%
%TO.C,48*%
X83871000Y-104572000D03*
%TD*%
%TO.C,86*%
X91491000Y-73965000D03*
%TD*%
%TO.C,10*%
X94031000Y-86792000D03*
%TD*%
%TO.C,5*%
X96571000Y-84252000D03*
%TD*%
%TO.C,33*%
X91491000Y-96952000D03*
%TD*%
%TO.C,92*%
X106731000Y-73965000D03*
%TD*%
%TO.C,18*%
X83871000Y-91872000D03*
%TD*%
%TO.C,24*%
X83871000Y-94412000D03*
%TD*%
%TO.C,123*%
X94031000Y-81585000D03*
%TD*%
%TO.C,98*%
X91491000Y-122479000D03*
%TD*%
%TO.C,56*%
X88951000Y-107112000D03*
%TD*%
%TO.C,117*%
X109271000Y-79045000D03*
%TD*%
%TO.C,19*%
X86411000Y-91872000D03*
%TD*%
%TO.C,8*%
X88951000Y-86792000D03*
%TD*%
%TO.C,100*%
X96571000Y-76505000D03*
%TD*%
%TO.C,72*%
X83871000Y-114732000D03*
%TD*%
%TO.C,92*%
X106731000Y-119939000D03*
%TD*%
%TO.C,114*%
X101651000Y-79045000D03*
%TD*%
%TO.C,45*%
X91491000Y-102032000D03*
%TD*%
%TO.C,129*%
X109271000Y-81585000D03*
%TD*%
%TO.C,102*%
X101651000Y-122479000D03*
%TD*%
%TO.C,51*%
X91491000Y-104572000D03*
%TD*%
%TO.C,116*%
X106731000Y-79045000D03*
%TD*%
D12*
%TO.C,H2*%
X89115000Y-132500000D03*
%TD*%
D11*
%TO.C,102*%
X101651000Y-76505000D03*
%TD*%
%TO.C,6*%
X83871000Y-86792000D03*
%TD*%
%TO.C,40*%
X94031000Y-99492000D03*
%TD*%
%TO.C,89*%
X99111000Y-119939000D03*
%TD*%
%TO.C,75*%
X91491000Y-114732000D03*
%TD*%
%TO.C,123*%
X109271000Y-117399000D03*
%TD*%
%TO.C,121*%
X88951000Y-81585000D03*
%TD*%
%TO.C,62*%
X88951000Y-109652000D03*
%TD*%
%TO.C,2*%
X88951000Y-84252000D03*
%TD*%
%TO.C,73*%
X86411000Y-114732000D03*
%TD*%
%TO.C,64*%
X94031000Y-109652000D03*
%TD*%
D14*
%TO.C,U3*%
X109965000Y-131000000D03*
X109965000Y-134000000D03*
X95195000Y-134000000D03*
X95195000Y-131000000D03*
%TD*%
%TO.C,U2*%
X109965000Y-66000000D03*
X109965000Y-69000000D03*
X95195000Y-69000000D03*
X95195000Y-66000000D03*
%TD*%
M02*
