%TF.GenerationSoftware,KiCad,Pcbnew,8.0.4*%
%TF.CreationDate,2025-01-31T11:06:39+01:00*%
%TF.ProjectId,uconsole-expansion-card-template.kicad_pcb_2.54,75636f6e-736f-46c6-952d-657870616e73,0.1*%
%TF.SameCoordinates,Original*%
%TF.FileFunction,Legend,Top*%
%TF.FilePolarity,Positive*%
%FSLAX46Y46*%
G04 Gerber Fmt 4.6, Leading zero omitted, Abs format (unit mm)*
G04 Created by KiCad (PCBNEW 8.0.4) date 2025-01-31 11:06:39*
%MOMM*%
%LPD*%
G01*
G04 APERTURE LIST*
%ADD10C,0.100000*%
G04 APERTURE END LIST*
D10*
X110976104Y-111800550D02*
X110995152Y-111762455D01*
X110995152Y-111762455D02*
X110995152Y-111705312D01*
X110995152Y-111705312D02*
X110976104Y-111648169D01*
X110976104Y-111648169D02*
X110938009Y-111610074D01*
X110938009Y-111610074D02*
X110899914Y-111591027D01*
X110899914Y-111591027D02*
X110823723Y-111571979D01*
X110823723Y-111571979D02*
X110766580Y-111571979D01*
X110766580Y-111571979D02*
X110690390Y-111591027D01*
X110690390Y-111591027D02*
X110652295Y-111610074D01*
X110652295Y-111610074D02*
X110614200Y-111648169D01*
X110614200Y-111648169D02*
X110595152Y-111705312D01*
X110595152Y-111705312D02*
X110595152Y-111743408D01*
X110595152Y-111743408D02*
X110614200Y-111800550D01*
X110614200Y-111800550D02*
X110633247Y-111819598D01*
X110633247Y-111819598D02*
X110766580Y-111819598D01*
X110766580Y-111819598D02*
X110766580Y-111743408D01*
X110595152Y-111991027D02*
X110995152Y-111991027D01*
X110995152Y-111991027D02*
X110595152Y-112219598D01*
X110595152Y-112219598D02*
X110995152Y-112219598D01*
X110595152Y-112410075D02*
X110995152Y-112410075D01*
X110995152Y-112410075D02*
X110995152Y-112505313D01*
X110995152Y-112505313D02*
X110976104Y-112562456D01*
X110976104Y-112562456D02*
X110938009Y-112600551D01*
X110938009Y-112600551D02*
X110899914Y-112619598D01*
X110899914Y-112619598D02*
X110823723Y-112638646D01*
X110823723Y-112638646D02*
X110766580Y-112638646D01*
X110766580Y-112638646D02*
X110690390Y-112619598D01*
X110690390Y-112619598D02*
X110652295Y-112600551D01*
X110652295Y-112600551D02*
X110614200Y-112562456D01*
X110614200Y-112562456D02*
X110595152Y-112505313D01*
X110595152Y-112505313D02*
X110595152Y-112410075D01*
X112265200Y-110555979D02*
X112246152Y-110613122D01*
X112246152Y-110613122D02*
X112246152Y-110708360D01*
X112246152Y-110708360D02*
X112265200Y-110746455D01*
X112265200Y-110746455D02*
X112284247Y-110765503D01*
X112284247Y-110765503D02*
X112322342Y-110784550D01*
X112322342Y-110784550D02*
X112360438Y-110784550D01*
X112360438Y-110784550D02*
X112398533Y-110765503D01*
X112398533Y-110765503D02*
X112417580Y-110746455D01*
X112417580Y-110746455D02*
X112436628Y-110708360D01*
X112436628Y-110708360D02*
X112455676Y-110632169D01*
X112455676Y-110632169D02*
X112474723Y-110594074D01*
X112474723Y-110594074D02*
X112493771Y-110575027D01*
X112493771Y-110575027D02*
X112531866Y-110555979D01*
X112531866Y-110555979D02*
X112569961Y-110555979D01*
X112569961Y-110555979D02*
X112608057Y-110575027D01*
X112608057Y-110575027D02*
X112627104Y-110594074D01*
X112627104Y-110594074D02*
X112646152Y-110632169D01*
X112646152Y-110632169D02*
X112646152Y-110727408D01*
X112646152Y-110727408D02*
X112627104Y-110784550D01*
X112246152Y-110955979D02*
X112646152Y-110955979D01*
X112646152Y-110955979D02*
X112646152Y-111108360D01*
X112646152Y-111108360D02*
X112627104Y-111146455D01*
X112627104Y-111146455D02*
X112608057Y-111165502D01*
X112608057Y-111165502D02*
X112569961Y-111184550D01*
X112569961Y-111184550D02*
X112512819Y-111184550D01*
X112512819Y-111184550D02*
X112474723Y-111165502D01*
X112474723Y-111165502D02*
X112455676Y-111146455D01*
X112455676Y-111146455D02*
X112436628Y-111108360D01*
X112436628Y-111108360D02*
X112436628Y-110955979D01*
X112246152Y-111355979D02*
X112646152Y-111355979D01*
X112246152Y-111584550D02*
X112474723Y-111413121D01*
X112646152Y-111584550D02*
X112417580Y-111355979D01*
X112208057Y-111660741D02*
X112208057Y-111965502D01*
X112246152Y-112251217D02*
X112246152Y-112060741D01*
X112246152Y-112060741D02*
X112646152Y-112060741D01*
X112246152Y-112384551D02*
X112646152Y-112384551D01*
X112646152Y-112384551D02*
X112646152Y-112536932D01*
X112646152Y-112536932D02*
X112627104Y-112575027D01*
X112627104Y-112575027D02*
X112608057Y-112594074D01*
X112608057Y-112594074D02*
X112569961Y-112613122D01*
X112569961Y-112613122D02*
X112512819Y-112613122D01*
X112512819Y-112613122D02*
X112474723Y-112594074D01*
X112474723Y-112594074D02*
X112455676Y-112575027D01*
X112455676Y-112575027D02*
X112436628Y-112536932D01*
X112436628Y-112536932D02*
X112436628Y-112384551D01*
X98676200Y-110555979D02*
X98657152Y-110613122D01*
X98657152Y-110613122D02*
X98657152Y-110708360D01*
X98657152Y-110708360D02*
X98676200Y-110746455D01*
X98676200Y-110746455D02*
X98695247Y-110765503D01*
X98695247Y-110765503D02*
X98733342Y-110784550D01*
X98733342Y-110784550D02*
X98771438Y-110784550D01*
X98771438Y-110784550D02*
X98809533Y-110765503D01*
X98809533Y-110765503D02*
X98828580Y-110746455D01*
X98828580Y-110746455D02*
X98847628Y-110708360D01*
X98847628Y-110708360D02*
X98866676Y-110632169D01*
X98866676Y-110632169D02*
X98885723Y-110594074D01*
X98885723Y-110594074D02*
X98904771Y-110575027D01*
X98904771Y-110575027D02*
X98942866Y-110555979D01*
X98942866Y-110555979D02*
X98980961Y-110555979D01*
X98980961Y-110555979D02*
X99019057Y-110575027D01*
X99019057Y-110575027D02*
X99038104Y-110594074D01*
X99038104Y-110594074D02*
X99057152Y-110632169D01*
X99057152Y-110632169D02*
X99057152Y-110727408D01*
X99057152Y-110727408D02*
X99038104Y-110784550D01*
X98657152Y-110955979D02*
X99057152Y-110955979D01*
X99057152Y-110955979D02*
X99057152Y-111108360D01*
X99057152Y-111108360D02*
X99038104Y-111146455D01*
X99038104Y-111146455D02*
X99019057Y-111165502D01*
X99019057Y-111165502D02*
X98980961Y-111184550D01*
X98980961Y-111184550D02*
X98923819Y-111184550D01*
X98923819Y-111184550D02*
X98885723Y-111165502D01*
X98885723Y-111165502D02*
X98866676Y-111146455D01*
X98866676Y-111146455D02*
X98847628Y-111108360D01*
X98847628Y-111108360D02*
X98847628Y-110955979D01*
X98657152Y-111355979D02*
X99057152Y-111355979D01*
X98657152Y-111584550D02*
X98885723Y-111413121D01*
X99057152Y-111584550D02*
X98828580Y-111355979D01*
X98619057Y-111660741D02*
X98619057Y-111965502D01*
X98657152Y-112289312D02*
X98847628Y-112155979D01*
X98657152Y-112060741D02*
X99057152Y-112060741D01*
X99057152Y-112060741D02*
X99057152Y-112213122D01*
X99057152Y-112213122D02*
X99038104Y-112251217D01*
X99038104Y-112251217D02*
X99019057Y-112270264D01*
X99019057Y-112270264D02*
X98980961Y-112289312D01*
X98980961Y-112289312D02*
X98923819Y-112289312D01*
X98923819Y-112289312D02*
X98885723Y-112270264D01*
X98885723Y-112270264D02*
X98866676Y-112251217D01*
X98866676Y-112251217D02*
X98847628Y-112213122D01*
X98847628Y-112213122D02*
X98847628Y-112060741D01*
X98657152Y-112460741D02*
X99057152Y-112460741D01*
X99057152Y-112460741D02*
X98657152Y-112689312D01*
X98657152Y-112689312D02*
X99057152Y-112689312D01*
X102009533Y-111591027D02*
X102009533Y-111895789D01*
X101857152Y-111743408D02*
X102161914Y-111743408D01*
X102257152Y-112276741D02*
X102257152Y-112086265D01*
X102257152Y-112086265D02*
X102066676Y-112067217D01*
X102066676Y-112067217D02*
X102085723Y-112086265D01*
X102085723Y-112086265D02*
X102104771Y-112124360D01*
X102104771Y-112124360D02*
X102104771Y-112219598D01*
X102104771Y-112219598D02*
X102085723Y-112257693D01*
X102085723Y-112257693D02*
X102066676Y-112276741D01*
X102066676Y-112276741D02*
X102028580Y-112295788D01*
X102028580Y-112295788D02*
X101933342Y-112295788D01*
X101933342Y-112295788D02*
X101895247Y-112276741D01*
X101895247Y-112276741D02*
X101876200Y-112257693D01*
X101876200Y-112257693D02*
X101857152Y-112219598D01*
X101857152Y-112219598D02*
X101857152Y-112124360D01*
X101857152Y-112124360D02*
X101876200Y-112086265D01*
X101876200Y-112086265D02*
X101895247Y-112067217D01*
X102257152Y-112410074D02*
X101857152Y-112543407D01*
X101857152Y-112543407D02*
X102257152Y-112676740D01*
X107838104Y-87035550D02*
X107857152Y-86997455D01*
X107857152Y-86997455D02*
X107857152Y-86940312D01*
X107857152Y-86940312D02*
X107838104Y-86883169D01*
X107838104Y-86883169D02*
X107800009Y-86845074D01*
X107800009Y-86845074D02*
X107761914Y-86826027D01*
X107761914Y-86826027D02*
X107685723Y-86806979D01*
X107685723Y-86806979D02*
X107628580Y-86806979D01*
X107628580Y-86806979D02*
X107552390Y-86826027D01*
X107552390Y-86826027D02*
X107514295Y-86845074D01*
X107514295Y-86845074D02*
X107476200Y-86883169D01*
X107476200Y-86883169D02*
X107457152Y-86940312D01*
X107457152Y-86940312D02*
X107457152Y-86978408D01*
X107457152Y-86978408D02*
X107476200Y-87035550D01*
X107476200Y-87035550D02*
X107495247Y-87054598D01*
X107495247Y-87054598D02*
X107628580Y-87054598D01*
X107628580Y-87054598D02*
X107628580Y-86978408D01*
X107457152Y-87226027D02*
X107857152Y-87226027D01*
X107857152Y-87226027D02*
X107457152Y-87454598D01*
X107457152Y-87454598D02*
X107857152Y-87454598D01*
X107457152Y-87645075D02*
X107857152Y-87645075D01*
X107857152Y-87645075D02*
X107857152Y-87740313D01*
X107857152Y-87740313D02*
X107838104Y-87797456D01*
X107838104Y-87797456D02*
X107800009Y-87835551D01*
X107800009Y-87835551D02*
X107761914Y-87854598D01*
X107761914Y-87854598D02*
X107685723Y-87873646D01*
X107685723Y-87873646D02*
X107628580Y-87873646D01*
X107628580Y-87873646D02*
X107552390Y-87854598D01*
X107552390Y-87854598D02*
X107514295Y-87835551D01*
X107514295Y-87835551D02*
X107476200Y-87797456D01*
X107476200Y-87797456D02*
X107457152Y-87740313D01*
X107457152Y-87740313D02*
X107457152Y-87645075D01*
X100638104Y-111800550D02*
X100657152Y-111762455D01*
X100657152Y-111762455D02*
X100657152Y-111705312D01*
X100657152Y-111705312D02*
X100638104Y-111648169D01*
X100638104Y-111648169D02*
X100600009Y-111610074D01*
X100600009Y-111610074D02*
X100561914Y-111591027D01*
X100561914Y-111591027D02*
X100485723Y-111571979D01*
X100485723Y-111571979D02*
X100428580Y-111571979D01*
X100428580Y-111571979D02*
X100352390Y-111591027D01*
X100352390Y-111591027D02*
X100314295Y-111610074D01*
X100314295Y-111610074D02*
X100276200Y-111648169D01*
X100276200Y-111648169D02*
X100257152Y-111705312D01*
X100257152Y-111705312D02*
X100257152Y-111743408D01*
X100257152Y-111743408D02*
X100276200Y-111800550D01*
X100276200Y-111800550D02*
X100295247Y-111819598D01*
X100295247Y-111819598D02*
X100428580Y-111819598D01*
X100428580Y-111819598D02*
X100428580Y-111743408D01*
X100257152Y-111991027D02*
X100657152Y-111991027D01*
X100657152Y-111991027D02*
X100257152Y-112219598D01*
X100257152Y-112219598D02*
X100657152Y-112219598D01*
X100257152Y-112410075D02*
X100657152Y-112410075D01*
X100657152Y-112410075D02*
X100657152Y-112505313D01*
X100657152Y-112505313D02*
X100638104Y-112562456D01*
X100638104Y-112562456D02*
X100600009Y-112600551D01*
X100600009Y-112600551D02*
X100561914Y-112619598D01*
X100561914Y-112619598D02*
X100485723Y-112638646D01*
X100485723Y-112638646D02*
X100428580Y-112638646D01*
X100428580Y-112638646D02*
X100352390Y-112619598D01*
X100352390Y-112619598D02*
X100314295Y-112600551D01*
X100314295Y-112600551D02*
X100276200Y-112562456D01*
X100276200Y-112562456D02*
X100257152Y-112505313D01*
X100257152Y-112505313D02*
X100257152Y-112410075D01*
X112627104Y-99481550D02*
X112646152Y-99443455D01*
X112646152Y-99443455D02*
X112646152Y-99386312D01*
X112646152Y-99386312D02*
X112627104Y-99329169D01*
X112627104Y-99329169D02*
X112589009Y-99291074D01*
X112589009Y-99291074D02*
X112550914Y-99272027D01*
X112550914Y-99272027D02*
X112474723Y-99252979D01*
X112474723Y-99252979D02*
X112417580Y-99252979D01*
X112417580Y-99252979D02*
X112341390Y-99272027D01*
X112341390Y-99272027D02*
X112303295Y-99291074D01*
X112303295Y-99291074D02*
X112265200Y-99329169D01*
X112265200Y-99329169D02*
X112246152Y-99386312D01*
X112246152Y-99386312D02*
X112246152Y-99424408D01*
X112246152Y-99424408D02*
X112265200Y-99481550D01*
X112265200Y-99481550D02*
X112284247Y-99500598D01*
X112284247Y-99500598D02*
X112417580Y-99500598D01*
X112417580Y-99500598D02*
X112417580Y-99424408D01*
X112246152Y-99672027D02*
X112646152Y-99672027D01*
X112646152Y-99672027D02*
X112646152Y-99824408D01*
X112646152Y-99824408D02*
X112627104Y-99862503D01*
X112627104Y-99862503D02*
X112608057Y-99881550D01*
X112608057Y-99881550D02*
X112569961Y-99900598D01*
X112569961Y-99900598D02*
X112512819Y-99900598D01*
X112512819Y-99900598D02*
X112474723Y-99881550D01*
X112474723Y-99881550D02*
X112455676Y-99862503D01*
X112455676Y-99862503D02*
X112436628Y-99824408D01*
X112436628Y-99824408D02*
X112436628Y-99672027D01*
X112246152Y-100072027D02*
X112646152Y-100072027D01*
X112646152Y-100338693D02*
X112646152Y-100414884D01*
X112646152Y-100414884D02*
X112627104Y-100452979D01*
X112627104Y-100452979D02*
X112589009Y-100491074D01*
X112589009Y-100491074D02*
X112512819Y-100510122D01*
X112512819Y-100510122D02*
X112379485Y-100510122D01*
X112379485Y-100510122D02*
X112303295Y-100491074D01*
X112303295Y-100491074D02*
X112265200Y-100452979D01*
X112265200Y-100452979D02*
X112246152Y-100414884D01*
X112246152Y-100414884D02*
X112246152Y-100338693D01*
X112246152Y-100338693D02*
X112265200Y-100300598D01*
X112265200Y-100300598D02*
X112303295Y-100262503D01*
X112303295Y-100262503D02*
X112379485Y-100243455D01*
X112379485Y-100243455D02*
X112512819Y-100243455D01*
X112512819Y-100243455D02*
X112589009Y-100262503D01*
X112589009Y-100262503D02*
X112627104Y-100300598D01*
X112627104Y-100300598D02*
X112646152Y-100338693D01*
X112608057Y-100662503D02*
X112627104Y-100681551D01*
X112627104Y-100681551D02*
X112646152Y-100719646D01*
X112646152Y-100719646D02*
X112646152Y-100814884D01*
X112646152Y-100814884D02*
X112627104Y-100852979D01*
X112627104Y-100852979D02*
X112608057Y-100872027D01*
X112608057Y-100872027D02*
X112569961Y-100891074D01*
X112569961Y-100891074D02*
X112531866Y-100891074D01*
X112531866Y-100891074D02*
X112474723Y-100872027D01*
X112474723Y-100872027D02*
X112246152Y-100643455D01*
X112246152Y-100643455D02*
X112246152Y-100891074D01*
X112474723Y-101119645D02*
X112493771Y-101081550D01*
X112493771Y-101081550D02*
X112512819Y-101062503D01*
X112512819Y-101062503D02*
X112550914Y-101043455D01*
X112550914Y-101043455D02*
X112569961Y-101043455D01*
X112569961Y-101043455D02*
X112608057Y-101062503D01*
X112608057Y-101062503D02*
X112627104Y-101081550D01*
X112627104Y-101081550D02*
X112646152Y-101119645D01*
X112646152Y-101119645D02*
X112646152Y-101195836D01*
X112646152Y-101195836D02*
X112627104Y-101233931D01*
X112627104Y-101233931D02*
X112608057Y-101252979D01*
X112608057Y-101252979D02*
X112569961Y-101272026D01*
X112569961Y-101272026D02*
X112550914Y-101272026D01*
X112550914Y-101272026D02*
X112512819Y-101252979D01*
X112512819Y-101252979D02*
X112493771Y-101233931D01*
X112493771Y-101233931D02*
X112474723Y-101195836D01*
X112474723Y-101195836D02*
X112474723Y-101119645D01*
X112474723Y-101119645D02*
X112455676Y-101081550D01*
X112455676Y-101081550D02*
X112436628Y-101062503D01*
X112436628Y-101062503D02*
X112398533Y-101043455D01*
X112398533Y-101043455D02*
X112322342Y-101043455D01*
X112322342Y-101043455D02*
X112284247Y-101062503D01*
X112284247Y-101062503D02*
X112265200Y-101081550D01*
X112265200Y-101081550D02*
X112246152Y-101119645D01*
X112246152Y-101119645D02*
X112246152Y-101195836D01*
X112246152Y-101195836D02*
X112265200Y-101233931D01*
X112265200Y-101233931D02*
X112284247Y-101252979D01*
X112284247Y-101252979D02*
X112322342Y-101272026D01*
X112322342Y-101272026D02*
X112398533Y-101272026D01*
X112398533Y-101272026D02*
X112436628Y-101252979D01*
X112436628Y-101252979D02*
X112455676Y-101233931D01*
X112455676Y-101233931D02*
X112474723Y-101195836D01*
X107058152Y-109940027D02*
X106734342Y-109940027D01*
X106734342Y-109940027D02*
X106696247Y-109959074D01*
X106696247Y-109959074D02*
X106677200Y-109978122D01*
X106677200Y-109978122D02*
X106658152Y-110016217D01*
X106658152Y-110016217D02*
X106658152Y-110092408D01*
X106658152Y-110092408D02*
X106677200Y-110130503D01*
X106677200Y-110130503D02*
X106696247Y-110149550D01*
X106696247Y-110149550D02*
X106734342Y-110168598D01*
X106734342Y-110168598D02*
X107058152Y-110168598D01*
X106677200Y-110340027D02*
X106658152Y-110397170D01*
X106658152Y-110397170D02*
X106658152Y-110492408D01*
X106658152Y-110492408D02*
X106677200Y-110530503D01*
X106677200Y-110530503D02*
X106696247Y-110549551D01*
X106696247Y-110549551D02*
X106734342Y-110568598D01*
X106734342Y-110568598D02*
X106772438Y-110568598D01*
X106772438Y-110568598D02*
X106810533Y-110549551D01*
X106810533Y-110549551D02*
X106829580Y-110530503D01*
X106829580Y-110530503D02*
X106848628Y-110492408D01*
X106848628Y-110492408D02*
X106867676Y-110416217D01*
X106867676Y-110416217D02*
X106886723Y-110378122D01*
X106886723Y-110378122D02*
X106905771Y-110359075D01*
X106905771Y-110359075D02*
X106943866Y-110340027D01*
X106943866Y-110340027D02*
X106981961Y-110340027D01*
X106981961Y-110340027D02*
X107020057Y-110359075D01*
X107020057Y-110359075D02*
X107039104Y-110378122D01*
X107039104Y-110378122D02*
X107058152Y-110416217D01*
X107058152Y-110416217D02*
X107058152Y-110511456D01*
X107058152Y-110511456D02*
X107039104Y-110568598D01*
X106867676Y-110873360D02*
X106848628Y-110930503D01*
X106848628Y-110930503D02*
X106829580Y-110949550D01*
X106829580Y-110949550D02*
X106791485Y-110968598D01*
X106791485Y-110968598D02*
X106734342Y-110968598D01*
X106734342Y-110968598D02*
X106696247Y-110949550D01*
X106696247Y-110949550D02*
X106677200Y-110930503D01*
X106677200Y-110930503D02*
X106658152Y-110892408D01*
X106658152Y-110892408D02*
X106658152Y-110740027D01*
X106658152Y-110740027D02*
X107058152Y-110740027D01*
X107058152Y-110740027D02*
X107058152Y-110873360D01*
X107058152Y-110873360D02*
X107039104Y-110911455D01*
X107039104Y-110911455D02*
X107020057Y-110930503D01*
X107020057Y-110930503D02*
X106981961Y-110949550D01*
X106981961Y-110949550D02*
X106943866Y-110949550D01*
X106943866Y-110949550D02*
X106905771Y-110930503D01*
X106905771Y-110930503D02*
X106886723Y-110911455D01*
X106886723Y-110911455D02*
X106867676Y-110873360D01*
X106867676Y-110873360D02*
X106867676Y-110740027D01*
X106924819Y-111311455D02*
X106658152Y-111311455D01*
X107077200Y-111216217D02*
X106791485Y-111120979D01*
X106791485Y-111120979D02*
X106791485Y-111368598D01*
X106620057Y-111425741D02*
X106620057Y-111730502D01*
X106658152Y-111825741D02*
X107058152Y-111825741D01*
X107058152Y-111825741D02*
X107058152Y-111920979D01*
X107058152Y-111920979D02*
X107039104Y-111978122D01*
X107039104Y-111978122D02*
X107001009Y-112016217D01*
X107001009Y-112016217D02*
X106962914Y-112035264D01*
X106962914Y-112035264D02*
X106886723Y-112054312D01*
X106886723Y-112054312D02*
X106829580Y-112054312D01*
X106829580Y-112054312D02*
X106753390Y-112035264D01*
X106753390Y-112035264D02*
X106715295Y-112016217D01*
X106715295Y-112016217D02*
X106677200Y-111978122D01*
X106677200Y-111978122D02*
X106658152Y-111920979D01*
X106658152Y-111920979D02*
X106658152Y-111825741D01*
X106810533Y-112225741D02*
X106810533Y-112530503D01*
X101427104Y-99481550D02*
X101446152Y-99443455D01*
X101446152Y-99443455D02*
X101446152Y-99386312D01*
X101446152Y-99386312D02*
X101427104Y-99329169D01*
X101427104Y-99329169D02*
X101389009Y-99291074D01*
X101389009Y-99291074D02*
X101350914Y-99272027D01*
X101350914Y-99272027D02*
X101274723Y-99252979D01*
X101274723Y-99252979D02*
X101217580Y-99252979D01*
X101217580Y-99252979D02*
X101141390Y-99272027D01*
X101141390Y-99272027D02*
X101103295Y-99291074D01*
X101103295Y-99291074D02*
X101065200Y-99329169D01*
X101065200Y-99329169D02*
X101046152Y-99386312D01*
X101046152Y-99386312D02*
X101046152Y-99424408D01*
X101046152Y-99424408D02*
X101065200Y-99481550D01*
X101065200Y-99481550D02*
X101084247Y-99500598D01*
X101084247Y-99500598D02*
X101217580Y-99500598D01*
X101217580Y-99500598D02*
X101217580Y-99424408D01*
X101046152Y-99672027D02*
X101446152Y-99672027D01*
X101446152Y-99672027D02*
X101446152Y-99824408D01*
X101446152Y-99824408D02*
X101427104Y-99862503D01*
X101427104Y-99862503D02*
X101408057Y-99881550D01*
X101408057Y-99881550D02*
X101369961Y-99900598D01*
X101369961Y-99900598D02*
X101312819Y-99900598D01*
X101312819Y-99900598D02*
X101274723Y-99881550D01*
X101274723Y-99881550D02*
X101255676Y-99862503D01*
X101255676Y-99862503D02*
X101236628Y-99824408D01*
X101236628Y-99824408D02*
X101236628Y-99672027D01*
X101046152Y-100072027D02*
X101446152Y-100072027D01*
X101446152Y-100338693D02*
X101446152Y-100414884D01*
X101446152Y-100414884D02*
X101427104Y-100452979D01*
X101427104Y-100452979D02*
X101389009Y-100491074D01*
X101389009Y-100491074D02*
X101312819Y-100510122D01*
X101312819Y-100510122D02*
X101179485Y-100510122D01*
X101179485Y-100510122D02*
X101103295Y-100491074D01*
X101103295Y-100491074D02*
X101065200Y-100452979D01*
X101065200Y-100452979D02*
X101046152Y-100414884D01*
X101046152Y-100414884D02*
X101046152Y-100338693D01*
X101046152Y-100338693D02*
X101065200Y-100300598D01*
X101065200Y-100300598D02*
X101103295Y-100262503D01*
X101103295Y-100262503D02*
X101179485Y-100243455D01*
X101179485Y-100243455D02*
X101312819Y-100243455D01*
X101312819Y-100243455D02*
X101389009Y-100262503D01*
X101389009Y-100262503D02*
X101427104Y-100300598D01*
X101427104Y-100300598D02*
X101446152Y-100338693D01*
X101312819Y-100852979D02*
X101046152Y-100852979D01*
X101465200Y-100757741D02*
X101179485Y-100662503D01*
X101179485Y-100662503D02*
X101179485Y-100910122D01*
X101408057Y-101043455D02*
X101427104Y-101062503D01*
X101427104Y-101062503D02*
X101446152Y-101100598D01*
X101446152Y-101100598D02*
X101446152Y-101195836D01*
X101446152Y-101195836D02*
X101427104Y-101233931D01*
X101427104Y-101233931D02*
X101408057Y-101252979D01*
X101408057Y-101252979D02*
X101369961Y-101272026D01*
X101369961Y-101272026D02*
X101331866Y-101272026D01*
X101331866Y-101272026D02*
X101274723Y-101252979D01*
X101274723Y-101252979D02*
X101046152Y-101024407D01*
X101046152Y-101024407D02*
X101046152Y-101272026D01*
X102227104Y-99481550D02*
X102246152Y-99443455D01*
X102246152Y-99443455D02*
X102246152Y-99386312D01*
X102246152Y-99386312D02*
X102227104Y-99329169D01*
X102227104Y-99329169D02*
X102189009Y-99291074D01*
X102189009Y-99291074D02*
X102150914Y-99272027D01*
X102150914Y-99272027D02*
X102074723Y-99252979D01*
X102074723Y-99252979D02*
X102017580Y-99252979D01*
X102017580Y-99252979D02*
X101941390Y-99272027D01*
X101941390Y-99272027D02*
X101903295Y-99291074D01*
X101903295Y-99291074D02*
X101865200Y-99329169D01*
X101865200Y-99329169D02*
X101846152Y-99386312D01*
X101846152Y-99386312D02*
X101846152Y-99424408D01*
X101846152Y-99424408D02*
X101865200Y-99481550D01*
X101865200Y-99481550D02*
X101884247Y-99500598D01*
X101884247Y-99500598D02*
X102017580Y-99500598D01*
X102017580Y-99500598D02*
X102017580Y-99424408D01*
X101846152Y-99672027D02*
X102246152Y-99672027D01*
X102246152Y-99672027D02*
X102246152Y-99824408D01*
X102246152Y-99824408D02*
X102227104Y-99862503D01*
X102227104Y-99862503D02*
X102208057Y-99881550D01*
X102208057Y-99881550D02*
X102169961Y-99900598D01*
X102169961Y-99900598D02*
X102112819Y-99900598D01*
X102112819Y-99900598D02*
X102074723Y-99881550D01*
X102074723Y-99881550D02*
X102055676Y-99862503D01*
X102055676Y-99862503D02*
X102036628Y-99824408D01*
X102036628Y-99824408D02*
X102036628Y-99672027D01*
X101846152Y-100072027D02*
X102246152Y-100072027D01*
X102246152Y-100338693D02*
X102246152Y-100414884D01*
X102246152Y-100414884D02*
X102227104Y-100452979D01*
X102227104Y-100452979D02*
X102189009Y-100491074D01*
X102189009Y-100491074D02*
X102112819Y-100510122D01*
X102112819Y-100510122D02*
X101979485Y-100510122D01*
X101979485Y-100510122D02*
X101903295Y-100491074D01*
X101903295Y-100491074D02*
X101865200Y-100452979D01*
X101865200Y-100452979D02*
X101846152Y-100414884D01*
X101846152Y-100414884D02*
X101846152Y-100338693D01*
X101846152Y-100338693D02*
X101865200Y-100300598D01*
X101865200Y-100300598D02*
X101903295Y-100262503D01*
X101903295Y-100262503D02*
X101979485Y-100243455D01*
X101979485Y-100243455D02*
X102112819Y-100243455D01*
X102112819Y-100243455D02*
X102189009Y-100262503D01*
X102189009Y-100262503D02*
X102227104Y-100300598D01*
X102227104Y-100300598D02*
X102246152Y-100338693D01*
X102112819Y-100852979D02*
X101846152Y-100852979D01*
X102265200Y-100757741D02*
X101979485Y-100662503D01*
X101979485Y-100662503D02*
X101979485Y-100910122D01*
X101846152Y-101272026D02*
X101846152Y-101043455D01*
X101846152Y-101157741D02*
X102246152Y-101157741D01*
X102246152Y-101157741D02*
X102189009Y-101119645D01*
X102189009Y-101119645D02*
X102150914Y-101081550D01*
X102150914Y-101081550D02*
X102131866Y-101043455D01*
X111027104Y-99481550D02*
X111046152Y-99443455D01*
X111046152Y-99443455D02*
X111046152Y-99386312D01*
X111046152Y-99386312D02*
X111027104Y-99329169D01*
X111027104Y-99329169D02*
X110989009Y-99291074D01*
X110989009Y-99291074D02*
X110950914Y-99272027D01*
X110950914Y-99272027D02*
X110874723Y-99252979D01*
X110874723Y-99252979D02*
X110817580Y-99252979D01*
X110817580Y-99252979D02*
X110741390Y-99272027D01*
X110741390Y-99272027D02*
X110703295Y-99291074D01*
X110703295Y-99291074D02*
X110665200Y-99329169D01*
X110665200Y-99329169D02*
X110646152Y-99386312D01*
X110646152Y-99386312D02*
X110646152Y-99424408D01*
X110646152Y-99424408D02*
X110665200Y-99481550D01*
X110665200Y-99481550D02*
X110684247Y-99500598D01*
X110684247Y-99500598D02*
X110817580Y-99500598D01*
X110817580Y-99500598D02*
X110817580Y-99424408D01*
X110646152Y-99672027D02*
X111046152Y-99672027D01*
X111046152Y-99672027D02*
X111046152Y-99824408D01*
X111046152Y-99824408D02*
X111027104Y-99862503D01*
X111027104Y-99862503D02*
X111008057Y-99881550D01*
X111008057Y-99881550D02*
X110969961Y-99900598D01*
X110969961Y-99900598D02*
X110912819Y-99900598D01*
X110912819Y-99900598D02*
X110874723Y-99881550D01*
X110874723Y-99881550D02*
X110855676Y-99862503D01*
X110855676Y-99862503D02*
X110836628Y-99824408D01*
X110836628Y-99824408D02*
X110836628Y-99672027D01*
X110646152Y-100072027D02*
X111046152Y-100072027D01*
X111046152Y-100338693D02*
X111046152Y-100414884D01*
X111046152Y-100414884D02*
X111027104Y-100452979D01*
X111027104Y-100452979D02*
X110989009Y-100491074D01*
X110989009Y-100491074D02*
X110912819Y-100510122D01*
X110912819Y-100510122D02*
X110779485Y-100510122D01*
X110779485Y-100510122D02*
X110703295Y-100491074D01*
X110703295Y-100491074D02*
X110665200Y-100452979D01*
X110665200Y-100452979D02*
X110646152Y-100414884D01*
X110646152Y-100414884D02*
X110646152Y-100338693D01*
X110646152Y-100338693D02*
X110665200Y-100300598D01*
X110665200Y-100300598D02*
X110703295Y-100262503D01*
X110703295Y-100262503D02*
X110779485Y-100243455D01*
X110779485Y-100243455D02*
X110912819Y-100243455D01*
X110912819Y-100243455D02*
X110989009Y-100262503D01*
X110989009Y-100262503D02*
X111027104Y-100300598D01*
X111027104Y-100300598D02*
X111046152Y-100338693D01*
X111046152Y-100643455D02*
X111046152Y-100891074D01*
X111046152Y-100891074D02*
X110893771Y-100757741D01*
X110893771Y-100757741D02*
X110893771Y-100814884D01*
X110893771Y-100814884D02*
X110874723Y-100852979D01*
X110874723Y-100852979D02*
X110855676Y-100872027D01*
X110855676Y-100872027D02*
X110817580Y-100891074D01*
X110817580Y-100891074D02*
X110722342Y-100891074D01*
X110722342Y-100891074D02*
X110684247Y-100872027D01*
X110684247Y-100872027D02*
X110665200Y-100852979D01*
X110665200Y-100852979D02*
X110646152Y-100814884D01*
X110646152Y-100814884D02*
X110646152Y-100700598D01*
X110646152Y-100700598D02*
X110665200Y-100662503D01*
X110665200Y-100662503D02*
X110684247Y-100643455D01*
X111046152Y-101138693D02*
X111046152Y-101176788D01*
X111046152Y-101176788D02*
X111027104Y-101214884D01*
X111027104Y-101214884D02*
X111008057Y-101233931D01*
X111008057Y-101233931D02*
X110969961Y-101252979D01*
X110969961Y-101252979D02*
X110893771Y-101272026D01*
X110893771Y-101272026D02*
X110798533Y-101272026D01*
X110798533Y-101272026D02*
X110722342Y-101252979D01*
X110722342Y-101252979D02*
X110684247Y-101233931D01*
X110684247Y-101233931D02*
X110665200Y-101214884D01*
X110665200Y-101214884D02*
X110646152Y-101176788D01*
X110646152Y-101176788D02*
X110646152Y-101138693D01*
X110646152Y-101138693D02*
X110665200Y-101100598D01*
X110665200Y-101100598D02*
X110684247Y-101081550D01*
X110684247Y-101081550D02*
X110722342Y-101062503D01*
X110722342Y-101062503D02*
X110798533Y-101043455D01*
X110798533Y-101043455D02*
X110893771Y-101043455D01*
X110893771Y-101043455D02*
X110969961Y-101062503D01*
X110969961Y-101062503D02*
X111008057Y-101081550D01*
X111008057Y-101081550D02*
X111027104Y-101100598D01*
X111027104Y-101100598D02*
X111046152Y-101138693D01*
X111495247Y-87054598D02*
X111476200Y-87035550D01*
X111476200Y-87035550D02*
X111457152Y-86978408D01*
X111457152Y-86978408D02*
X111457152Y-86940312D01*
X111457152Y-86940312D02*
X111476200Y-86883169D01*
X111476200Y-86883169D02*
X111514295Y-86845074D01*
X111514295Y-86845074D02*
X111552390Y-86826027D01*
X111552390Y-86826027D02*
X111628580Y-86806979D01*
X111628580Y-86806979D02*
X111685723Y-86806979D01*
X111685723Y-86806979D02*
X111761914Y-86826027D01*
X111761914Y-86826027D02*
X111800009Y-86845074D01*
X111800009Y-86845074D02*
X111838104Y-86883169D01*
X111838104Y-86883169D02*
X111857152Y-86940312D01*
X111857152Y-86940312D02*
X111857152Y-86978408D01*
X111857152Y-86978408D02*
X111838104Y-87035550D01*
X111838104Y-87035550D02*
X111819057Y-87054598D01*
X111571438Y-87206979D02*
X111571438Y-87397455D01*
X111457152Y-87168884D02*
X111857152Y-87302217D01*
X111857152Y-87302217D02*
X111457152Y-87435550D01*
X111457152Y-87568884D02*
X111857152Y-87568884D01*
X111857152Y-87568884D02*
X111571438Y-87702217D01*
X111571438Y-87702217D02*
X111857152Y-87835550D01*
X111857152Y-87835550D02*
X111457152Y-87835550D01*
X111457152Y-88235550D02*
X111457152Y-88006979D01*
X111457152Y-88121265D02*
X111857152Y-88121265D01*
X111857152Y-88121265D02*
X111800009Y-88083169D01*
X111800009Y-88083169D02*
X111761914Y-88045074D01*
X111761914Y-88045074D02*
X111742866Y-88006979D01*
X111419057Y-88311741D02*
X111419057Y-88616502D01*
X111457152Y-88711741D02*
X111857152Y-88711741D01*
X111857152Y-88711741D02*
X111857152Y-88806979D01*
X111857152Y-88806979D02*
X111838104Y-88864122D01*
X111838104Y-88864122D02*
X111800009Y-88902217D01*
X111800009Y-88902217D02*
X111761914Y-88921264D01*
X111761914Y-88921264D02*
X111685723Y-88940312D01*
X111685723Y-88940312D02*
X111628580Y-88940312D01*
X111628580Y-88940312D02*
X111552390Y-88921264D01*
X111552390Y-88921264D02*
X111514295Y-88902217D01*
X111514295Y-88902217D02*
X111476200Y-88864122D01*
X111476200Y-88864122D02*
X111457152Y-88806979D01*
X111457152Y-88806979D02*
X111457152Y-88711741D01*
X111457152Y-89111741D02*
X111857152Y-89111741D01*
X111857152Y-89111741D02*
X111457152Y-89340312D01*
X111457152Y-89340312D02*
X111857152Y-89340312D01*
X111857152Y-89606979D02*
X111857152Y-89645074D01*
X111857152Y-89645074D02*
X111838104Y-89683170D01*
X111838104Y-89683170D02*
X111819057Y-89702217D01*
X111819057Y-89702217D02*
X111780961Y-89721265D01*
X111780961Y-89721265D02*
X111704771Y-89740312D01*
X111704771Y-89740312D02*
X111609533Y-89740312D01*
X111609533Y-89740312D02*
X111533342Y-89721265D01*
X111533342Y-89721265D02*
X111495247Y-89702217D01*
X111495247Y-89702217D02*
X111476200Y-89683170D01*
X111476200Y-89683170D02*
X111457152Y-89645074D01*
X111457152Y-89645074D02*
X111457152Y-89606979D01*
X111457152Y-89606979D02*
X111476200Y-89568884D01*
X111476200Y-89568884D02*
X111495247Y-89549836D01*
X111495247Y-89549836D02*
X111533342Y-89530789D01*
X111533342Y-89530789D02*
X111609533Y-89511741D01*
X111609533Y-89511741D02*
X111704771Y-89511741D01*
X111704771Y-89511741D02*
X111780961Y-89530789D01*
X111780961Y-89530789D02*
X111819057Y-89549836D01*
X111819057Y-89549836D02*
X111838104Y-89568884D01*
X111838104Y-89568884D02*
X111857152Y-89606979D01*
X103609533Y-111591027D02*
X103609533Y-111895789D01*
X103457152Y-111743408D02*
X103761914Y-111743408D01*
X103857152Y-112276741D02*
X103857152Y-112086265D01*
X103857152Y-112086265D02*
X103666676Y-112067217D01*
X103666676Y-112067217D02*
X103685723Y-112086265D01*
X103685723Y-112086265D02*
X103704771Y-112124360D01*
X103704771Y-112124360D02*
X103704771Y-112219598D01*
X103704771Y-112219598D02*
X103685723Y-112257693D01*
X103685723Y-112257693D02*
X103666676Y-112276741D01*
X103666676Y-112276741D02*
X103628580Y-112295788D01*
X103628580Y-112295788D02*
X103533342Y-112295788D01*
X103533342Y-112295788D02*
X103495247Y-112276741D01*
X103495247Y-112276741D02*
X103476200Y-112257693D01*
X103476200Y-112257693D02*
X103457152Y-112219598D01*
X103457152Y-112219598D02*
X103457152Y-112124360D01*
X103457152Y-112124360D02*
X103476200Y-112086265D01*
X103476200Y-112086265D02*
X103495247Y-112067217D01*
X103857152Y-112410074D02*
X103457152Y-112543407D01*
X103457152Y-112543407D02*
X103857152Y-112676740D01*
X101209533Y-111591027D02*
X101209533Y-111895789D01*
X101057152Y-111743408D02*
X101361914Y-111743408D01*
X101457152Y-112276741D02*
X101457152Y-112086265D01*
X101457152Y-112086265D02*
X101266676Y-112067217D01*
X101266676Y-112067217D02*
X101285723Y-112086265D01*
X101285723Y-112086265D02*
X101304771Y-112124360D01*
X101304771Y-112124360D02*
X101304771Y-112219598D01*
X101304771Y-112219598D02*
X101285723Y-112257693D01*
X101285723Y-112257693D02*
X101266676Y-112276741D01*
X101266676Y-112276741D02*
X101228580Y-112295788D01*
X101228580Y-112295788D02*
X101133342Y-112295788D01*
X101133342Y-112295788D02*
X101095247Y-112276741D01*
X101095247Y-112276741D02*
X101076200Y-112257693D01*
X101076200Y-112257693D02*
X101057152Y-112219598D01*
X101057152Y-112219598D02*
X101057152Y-112124360D01*
X101057152Y-112124360D02*
X101076200Y-112086265D01*
X101076200Y-112086265D02*
X101095247Y-112067217D01*
X101457152Y-112410074D02*
X101057152Y-112543407D01*
X101057152Y-112543407D02*
X101457152Y-112676740D01*
X103027104Y-99481550D02*
X103046152Y-99443455D01*
X103046152Y-99443455D02*
X103046152Y-99386312D01*
X103046152Y-99386312D02*
X103027104Y-99329169D01*
X103027104Y-99329169D02*
X102989009Y-99291074D01*
X102989009Y-99291074D02*
X102950914Y-99272027D01*
X102950914Y-99272027D02*
X102874723Y-99252979D01*
X102874723Y-99252979D02*
X102817580Y-99252979D01*
X102817580Y-99252979D02*
X102741390Y-99272027D01*
X102741390Y-99272027D02*
X102703295Y-99291074D01*
X102703295Y-99291074D02*
X102665200Y-99329169D01*
X102665200Y-99329169D02*
X102646152Y-99386312D01*
X102646152Y-99386312D02*
X102646152Y-99424408D01*
X102646152Y-99424408D02*
X102665200Y-99481550D01*
X102665200Y-99481550D02*
X102684247Y-99500598D01*
X102684247Y-99500598D02*
X102817580Y-99500598D01*
X102817580Y-99500598D02*
X102817580Y-99424408D01*
X102646152Y-99672027D02*
X103046152Y-99672027D01*
X103046152Y-99672027D02*
X103046152Y-99824408D01*
X103046152Y-99824408D02*
X103027104Y-99862503D01*
X103027104Y-99862503D02*
X103008057Y-99881550D01*
X103008057Y-99881550D02*
X102969961Y-99900598D01*
X102969961Y-99900598D02*
X102912819Y-99900598D01*
X102912819Y-99900598D02*
X102874723Y-99881550D01*
X102874723Y-99881550D02*
X102855676Y-99862503D01*
X102855676Y-99862503D02*
X102836628Y-99824408D01*
X102836628Y-99824408D02*
X102836628Y-99672027D01*
X102646152Y-100072027D02*
X103046152Y-100072027D01*
X103046152Y-100338693D02*
X103046152Y-100414884D01*
X103046152Y-100414884D02*
X103027104Y-100452979D01*
X103027104Y-100452979D02*
X102989009Y-100491074D01*
X102989009Y-100491074D02*
X102912819Y-100510122D01*
X102912819Y-100510122D02*
X102779485Y-100510122D01*
X102779485Y-100510122D02*
X102703295Y-100491074D01*
X102703295Y-100491074D02*
X102665200Y-100452979D01*
X102665200Y-100452979D02*
X102646152Y-100414884D01*
X102646152Y-100414884D02*
X102646152Y-100338693D01*
X102646152Y-100338693D02*
X102665200Y-100300598D01*
X102665200Y-100300598D02*
X102703295Y-100262503D01*
X102703295Y-100262503D02*
X102779485Y-100243455D01*
X102779485Y-100243455D02*
X102912819Y-100243455D01*
X102912819Y-100243455D02*
X102989009Y-100262503D01*
X102989009Y-100262503D02*
X103027104Y-100300598D01*
X103027104Y-100300598D02*
X103046152Y-100338693D01*
X102912819Y-100852979D02*
X102646152Y-100852979D01*
X103065200Y-100757741D02*
X102779485Y-100662503D01*
X102779485Y-100662503D02*
X102779485Y-100910122D01*
X103046152Y-101138693D02*
X103046152Y-101176788D01*
X103046152Y-101176788D02*
X103027104Y-101214884D01*
X103027104Y-101214884D02*
X103008057Y-101233931D01*
X103008057Y-101233931D02*
X102969961Y-101252979D01*
X102969961Y-101252979D02*
X102893771Y-101272026D01*
X102893771Y-101272026D02*
X102798533Y-101272026D01*
X102798533Y-101272026D02*
X102722342Y-101252979D01*
X102722342Y-101252979D02*
X102684247Y-101233931D01*
X102684247Y-101233931D02*
X102665200Y-101214884D01*
X102665200Y-101214884D02*
X102646152Y-101176788D01*
X102646152Y-101176788D02*
X102646152Y-101138693D01*
X102646152Y-101138693D02*
X102665200Y-101100598D01*
X102665200Y-101100598D02*
X102684247Y-101081550D01*
X102684247Y-101081550D02*
X102722342Y-101062503D01*
X102722342Y-101062503D02*
X102798533Y-101043455D01*
X102798533Y-101043455D02*
X102893771Y-101043455D01*
X102893771Y-101043455D02*
X102969961Y-101062503D01*
X102969961Y-101062503D02*
X103008057Y-101081550D01*
X103008057Y-101081550D02*
X103027104Y-101100598D01*
X103027104Y-101100598D02*
X103046152Y-101138693D01*
X108295247Y-87054598D02*
X108276200Y-87035550D01*
X108276200Y-87035550D02*
X108257152Y-86978408D01*
X108257152Y-86978408D02*
X108257152Y-86940312D01*
X108257152Y-86940312D02*
X108276200Y-86883169D01*
X108276200Y-86883169D02*
X108314295Y-86845074D01*
X108314295Y-86845074D02*
X108352390Y-86826027D01*
X108352390Y-86826027D02*
X108428580Y-86806979D01*
X108428580Y-86806979D02*
X108485723Y-86806979D01*
X108485723Y-86806979D02*
X108561914Y-86826027D01*
X108561914Y-86826027D02*
X108600009Y-86845074D01*
X108600009Y-86845074D02*
X108638104Y-86883169D01*
X108638104Y-86883169D02*
X108657152Y-86940312D01*
X108657152Y-86940312D02*
X108657152Y-86978408D01*
X108657152Y-86978408D02*
X108638104Y-87035550D01*
X108638104Y-87035550D02*
X108619057Y-87054598D01*
X108371438Y-87206979D02*
X108371438Y-87397455D01*
X108257152Y-87168884D02*
X108657152Y-87302217D01*
X108657152Y-87302217D02*
X108257152Y-87435550D01*
X108257152Y-87568884D02*
X108657152Y-87568884D01*
X108657152Y-87568884D02*
X108371438Y-87702217D01*
X108371438Y-87702217D02*
X108657152Y-87835550D01*
X108657152Y-87835550D02*
X108257152Y-87835550D01*
X108257152Y-88235550D02*
X108257152Y-88006979D01*
X108257152Y-88121265D02*
X108657152Y-88121265D01*
X108657152Y-88121265D02*
X108600009Y-88083169D01*
X108600009Y-88083169D02*
X108561914Y-88045074D01*
X108561914Y-88045074D02*
X108542866Y-88006979D01*
X108219057Y-88311741D02*
X108219057Y-88616502D01*
X108257152Y-88711741D02*
X108657152Y-88711741D01*
X108657152Y-88711741D02*
X108657152Y-88806979D01*
X108657152Y-88806979D02*
X108638104Y-88864122D01*
X108638104Y-88864122D02*
X108600009Y-88902217D01*
X108600009Y-88902217D02*
X108561914Y-88921264D01*
X108561914Y-88921264D02*
X108485723Y-88940312D01*
X108485723Y-88940312D02*
X108428580Y-88940312D01*
X108428580Y-88940312D02*
X108352390Y-88921264D01*
X108352390Y-88921264D02*
X108314295Y-88902217D01*
X108314295Y-88902217D02*
X108276200Y-88864122D01*
X108276200Y-88864122D02*
X108257152Y-88806979D01*
X108257152Y-88806979D02*
X108257152Y-88711741D01*
X108257152Y-89111741D02*
X108657152Y-89111741D01*
X108657152Y-89111741D02*
X108657152Y-89264122D01*
X108657152Y-89264122D02*
X108638104Y-89302217D01*
X108638104Y-89302217D02*
X108619057Y-89321264D01*
X108619057Y-89321264D02*
X108580961Y-89340312D01*
X108580961Y-89340312D02*
X108523819Y-89340312D01*
X108523819Y-89340312D02*
X108485723Y-89321264D01*
X108485723Y-89321264D02*
X108466676Y-89302217D01*
X108466676Y-89302217D02*
X108447628Y-89264122D01*
X108447628Y-89264122D02*
X108447628Y-89111741D01*
X108257152Y-89721264D02*
X108257152Y-89492693D01*
X108257152Y-89606979D02*
X108657152Y-89606979D01*
X108657152Y-89606979D02*
X108600009Y-89568883D01*
X108600009Y-89568883D02*
X108561914Y-89530788D01*
X108561914Y-89530788D02*
X108542866Y-89492693D01*
X103827104Y-99481550D02*
X103846152Y-99443455D01*
X103846152Y-99443455D02*
X103846152Y-99386312D01*
X103846152Y-99386312D02*
X103827104Y-99329169D01*
X103827104Y-99329169D02*
X103789009Y-99291074D01*
X103789009Y-99291074D02*
X103750914Y-99272027D01*
X103750914Y-99272027D02*
X103674723Y-99252979D01*
X103674723Y-99252979D02*
X103617580Y-99252979D01*
X103617580Y-99252979D02*
X103541390Y-99272027D01*
X103541390Y-99272027D02*
X103503295Y-99291074D01*
X103503295Y-99291074D02*
X103465200Y-99329169D01*
X103465200Y-99329169D02*
X103446152Y-99386312D01*
X103446152Y-99386312D02*
X103446152Y-99424408D01*
X103446152Y-99424408D02*
X103465200Y-99481550D01*
X103465200Y-99481550D02*
X103484247Y-99500598D01*
X103484247Y-99500598D02*
X103617580Y-99500598D01*
X103617580Y-99500598D02*
X103617580Y-99424408D01*
X103446152Y-99672027D02*
X103846152Y-99672027D01*
X103846152Y-99672027D02*
X103846152Y-99824408D01*
X103846152Y-99824408D02*
X103827104Y-99862503D01*
X103827104Y-99862503D02*
X103808057Y-99881550D01*
X103808057Y-99881550D02*
X103769961Y-99900598D01*
X103769961Y-99900598D02*
X103712819Y-99900598D01*
X103712819Y-99900598D02*
X103674723Y-99881550D01*
X103674723Y-99881550D02*
X103655676Y-99862503D01*
X103655676Y-99862503D02*
X103636628Y-99824408D01*
X103636628Y-99824408D02*
X103636628Y-99672027D01*
X103446152Y-100072027D02*
X103846152Y-100072027D01*
X103846152Y-100338693D02*
X103846152Y-100414884D01*
X103846152Y-100414884D02*
X103827104Y-100452979D01*
X103827104Y-100452979D02*
X103789009Y-100491074D01*
X103789009Y-100491074D02*
X103712819Y-100510122D01*
X103712819Y-100510122D02*
X103579485Y-100510122D01*
X103579485Y-100510122D02*
X103503295Y-100491074D01*
X103503295Y-100491074D02*
X103465200Y-100452979D01*
X103465200Y-100452979D02*
X103446152Y-100414884D01*
X103446152Y-100414884D02*
X103446152Y-100338693D01*
X103446152Y-100338693D02*
X103465200Y-100300598D01*
X103465200Y-100300598D02*
X103503295Y-100262503D01*
X103503295Y-100262503D02*
X103579485Y-100243455D01*
X103579485Y-100243455D02*
X103712819Y-100243455D01*
X103712819Y-100243455D02*
X103789009Y-100262503D01*
X103789009Y-100262503D02*
X103827104Y-100300598D01*
X103827104Y-100300598D02*
X103846152Y-100338693D01*
X103846152Y-100643455D02*
X103846152Y-100891074D01*
X103846152Y-100891074D02*
X103693771Y-100757741D01*
X103693771Y-100757741D02*
X103693771Y-100814884D01*
X103693771Y-100814884D02*
X103674723Y-100852979D01*
X103674723Y-100852979D02*
X103655676Y-100872027D01*
X103655676Y-100872027D02*
X103617580Y-100891074D01*
X103617580Y-100891074D02*
X103522342Y-100891074D01*
X103522342Y-100891074D02*
X103484247Y-100872027D01*
X103484247Y-100872027D02*
X103465200Y-100852979D01*
X103465200Y-100852979D02*
X103446152Y-100814884D01*
X103446152Y-100814884D02*
X103446152Y-100700598D01*
X103446152Y-100700598D02*
X103465200Y-100662503D01*
X103465200Y-100662503D02*
X103484247Y-100643455D01*
X103446152Y-101081550D02*
X103446152Y-101157741D01*
X103446152Y-101157741D02*
X103465200Y-101195836D01*
X103465200Y-101195836D02*
X103484247Y-101214884D01*
X103484247Y-101214884D02*
X103541390Y-101252979D01*
X103541390Y-101252979D02*
X103617580Y-101272026D01*
X103617580Y-101272026D02*
X103769961Y-101272026D01*
X103769961Y-101272026D02*
X103808057Y-101252979D01*
X103808057Y-101252979D02*
X103827104Y-101233931D01*
X103827104Y-101233931D02*
X103846152Y-101195836D01*
X103846152Y-101195836D02*
X103846152Y-101119645D01*
X103846152Y-101119645D02*
X103827104Y-101081550D01*
X103827104Y-101081550D02*
X103808057Y-101062503D01*
X103808057Y-101062503D02*
X103769961Y-101043455D01*
X103769961Y-101043455D02*
X103674723Y-101043455D01*
X103674723Y-101043455D02*
X103636628Y-101062503D01*
X103636628Y-101062503D02*
X103617580Y-101081550D01*
X103617580Y-101081550D02*
X103598533Y-101119645D01*
X103598533Y-101119645D02*
X103598533Y-101195836D01*
X103598533Y-101195836D02*
X103617580Y-101233931D01*
X103617580Y-101233931D02*
X103636628Y-101252979D01*
X103636628Y-101252979D02*
X103674723Y-101272026D01*
X99438200Y-110555979D02*
X99419152Y-110613122D01*
X99419152Y-110613122D02*
X99419152Y-110708360D01*
X99419152Y-110708360D02*
X99438200Y-110746455D01*
X99438200Y-110746455D02*
X99457247Y-110765503D01*
X99457247Y-110765503D02*
X99495342Y-110784550D01*
X99495342Y-110784550D02*
X99533438Y-110784550D01*
X99533438Y-110784550D02*
X99571533Y-110765503D01*
X99571533Y-110765503D02*
X99590580Y-110746455D01*
X99590580Y-110746455D02*
X99609628Y-110708360D01*
X99609628Y-110708360D02*
X99628676Y-110632169D01*
X99628676Y-110632169D02*
X99647723Y-110594074D01*
X99647723Y-110594074D02*
X99666771Y-110575027D01*
X99666771Y-110575027D02*
X99704866Y-110555979D01*
X99704866Y-110555979D02*
X99742961Y-110555979D01*
X99742961Y-110555979D02*
X99781057Y-110575027D01*
X99781057Y-110575027D02*
X99800104Y-110594074D01*
X99800104Y-110594074D02*
X99819152Y-110632169D01*
X99819152Y-110632169D02*
X99819152Y-110727408D01*
X99819152Y-110727408D02*
X99800104Y-110784550D01*
X99419152Y-110955979D02*
X99819152Y-110955979D01*
X99819152Y-110955979D02*
X99819152Y-111108360D01*
X99819152Y-111108360D02*
X99800104Y-111146455D01*
X99800104Y-111146455D02*
X99781057Y-111165502D01*
X99781057Y-111165502D02*
X99742961Y-111184550D01*
X99742961Y-111184550D02*
X99685819Y-111184550D01*
X99685819Y-111184550D02*
X99647723Y-111165502D01*
X99647723Y-111165502D02*
X99628676Y-111146455D01*
X99628676Y-111146455D02*
X99609628Y-111108360D01*
X99609628Y-111108360D02*
X99609628Y-110955979D01*
X99419152Y-111355979D02*
X99819152Y-111355979D01*
X99419152Y-111584550D02*
X99647723Y-111413121D01*
X99819152Y-111584550D02*
X99590580Y-111355979D01*
X99381057Y-111660741D02*
X99381057Y-111965502D01*
X99419152Y-112289312D02*
X99609628Y-112155979D01*
X99419152Y-112060741D02*
X99819152Y-112060741D01*
X99819152Y-112060741D02*
X99819152Y-112213122D01*
X99819152Y-112213122D02*
X99800104Y-112251217D01*
X99800104Y-112251217D02*
X99781057Y-112270264D01*
X99781057Y-112270264D02*
X99742961Y-112289312D01*
X99742961Y-112289312D02*
X99685819Y-112289312D01*
X99685819Y-112289312D02*
X99647723Y-112270264D01*
X99647723Y-112270264D02*
X99628676Y-112251217D01*
X99628676Y-112251217D02*
X99609628Y-112213122D01*
X99609628Y-112213122D02*
X99609628Y-112060741D01*
X99419152Y-112460741D02*
X99819152Y-112460741D01*
X99819152Y-112460741D02*
X99819152Y-112613122D01*
X99819152Y-112613122D02*
X99800104Y-112651217D01*
X99800104Y-112651217D02*
X99781057Y-112670264D01*
X99781057Y-112670264D02*
X99742961Y-112689312D01*
X99742961Y-112689312D02*
X99685819Y-112689312D01*
X99685819Y-112689312D02*
X99647723Y-112670264D01*
X99647723Y-112670264D02*
X99628676Y-112651217D01*
X99628676Y-112651217D02*
X99609628Y-112613122D01*
X99609628Y-112613122D02*
X99609628Y-112460741D01*
X109427104Y-99481550D02*
X109446152Y-99443455D01*
X109446152Y-99443455D02*
X109446152Y-99386312D01*
X109446152Y-99386312D02*
X109427104Y-99329169D01*
X109427104Y-99329169D02*
X109389009Y-99291074D01*
X109389009Y-99291074D02*
X109350914Y-99272027D01*
X109350914Y-99272027D02*
X109274723Y-99252979D01*
X109274723Y-99252979D02*
X109217580Y-99252979D01*
X109217580Y-99252979D02*
X109141390Y-99272027D01*
X109141390Y-99272027D02*
X109103295Y-99291074D01*
X109103295Y-99291074D02*
X109065200Y-99329169D01*
X109065200Y-99329169D02*
X109046152Y-99386312D01*
X109046152Y-99386312D02*
X109046152Y-99424408D01*
X109046152Y-99424408D02*
X109065200Y-99481550D01*
X109065200Y-99481550D02*
X109084247Y-99500598D01*
X109084247Y-99500598D02*
X109217580Y-99500598D01*
X109217580Y-99500598D02*
X109217580Y-99424408D01*
X109046152Y-99672027D02*
X109446152Y-99672027D01*
X109446152Y-99672027D02*
X109446152Y-99824408D01*
X109446152Y-99824408D02*
X109427104Y-99862503D01*
X109427104Y-99862503D02*
X109408057Y-99881550D01*
X109408057Y-99881550D02*
X109369961Y-99900598D01*
X109369961Y-99900598D02*
X109312819Y-99900598D01*
X109312819Y-99900598D02*
X109274723Y-99881550D01*
X109274723Y-99881550D02*
X109255676Y-99862503D01*
X109255676Y-99862503D02*
X109236628Y-99824408D01*
X109236628Y-99824408D02*
X109236628Y-99672027D01*
X109046152Y-100072027D02*
X109446152Y-100072027D01*
X109446152Y-100338693D02*
X109446152Y-100414884D01*
X109446152Y-100414884D02*
X109427104Y-100452979D01*
X109427104Y-100452979D02*
X109389009Y-100491074D01*
X109389009Y-100491074D02*
X109312819Y-100510122D01*
X109312819Y-100510122D02*
X109179485Y-100510122D01*
X109179485Y-100510122D02*
X109103295Y-100491074D01*
X109103295Y-100491074D02*
X109065200Y-100452979D01*
X109065200Y-100452979D02*
X109046152Y-100414884D01*
X109046152Y-100414884D02*
X109046152Y-100338693D01*
X109046152Y-100338693D02*
X109065200Y-100300598D01*
X109065200Y-100300598D02*
X109103295Y-100262503D01*
X109103295Y-100262503D02*
X109179485Y-100243455D01*
X109179485Y-100243455D02*
X109312819Y-100243455D01*
X109312819Y-100243455D02*
X109389009Y-100262503D01*
X109389009Y-100262503D02*
X109427104Y-100300598D01*
X109427104Y-100300598D02*
X109446152Y-100338693D01*
X109446152Y-100643455D02*
X109446152Y-100891074D01*
X109446152Y-100891074D02*
X109293771Y-100757741D01*
X109293771Y-100757741D02*
X109293771Y-100814884D01*
X109293771Y-100814884D02*
X109274723Y-100852979D01*
X109274723Y-100852979D02*
X109255676Y-100872027D01*
X109255676Y-100872027D02*
X109217580Y-100891074D01*
X109217580Y-100891074D02*
X109122342Y-100891074D01*
X109122342Y-100891074D02*
X109084247Y-100872027D01*
X109084247Y-100872027D02*
X109065200Y-100852979D01*
X109065200Y-100852979D02*
X109046152Y-100814884D01*
X109046152Y-100814884D02*
X109046152Y-100700598D01*
X109046152Y-100700598D02*
X109065200Y-100662503D01*
X109065200Y-100662503D02*
X109084247Y-100643455D01*
X109408057Y-101043455D02*
X109427104Y-101062503D01*
X109427104Y-101062503D02*
X109446152Y-101100598D01*
X109446152Y-101100598D02*
X109446152Y-101195836D01*
X109446152Y-101195836D02*
X109427104Y-101233931D01*
X109427104Y-101233931D02*
X109408057Y-101252979D01*
X109408057Y-101252979D02*
X109369961Y-101272026D01*
X109369961Y-101272026D02*
X109331866Y-101272026D01*
X109331866Y-101272026D02*
X109274723Y-101252979D01*
X109274723Y-101252979D02*
X109046152Y-101024407D01*
X109046152Y-101024407D02*
X109046152Y-101272026D01*
X101895247Y-87054598D02*
X101876200Y-87035550D01*
X101876200Y-87035550D02*
X101857152Y-86978408D01*
X101857152Y-86978408D02*
X101857152Y-86940312D01*
X101857152Y-86940312D02*
X101876200Y-86883169D01*
X101876200Y-86883169D02*
X101914295Y-86845074D01*
X101914295Y-86845074D02*
X101952390Y-86826027D01*
X101952390Y-86826027D02*
X102028580Y-86806979D01*
X102028580Y-86806979D02*
X102085723Y-86806979D01*
X102085723Y-86806979D02*
X102161914Y-86826027D01*
X102161914Y-86826027D02*
X102200009Y-86845074D01*
X102200009Y-86845074D02*
X102238104Y-86883169D01*
X102238104Y-86883169D02*
X102257152Y-86940312D01*
X102257152Y-86940312D02*
X102257152Y-86978408D01*
X102257152Y-86978408D02*
X102238104Y-87035550D01*
X102238104Y-87035550D02*
X102219057Y-87054598D01*
X101971438Y-87206979D02*
X101971438Y-87397455D01*
X101857152Y-87168884D02*
X102257152Y-87302217D01*
X102257152Y-87302217D02*
X101857152Y-87435550D01*
X101857152Y-87568884D02*
X102257152Y-87568884D01*
X102257152Y-87568884D02*
X101971438Y-87702217D01*
X101971438Y-87702217D02*
X102257152Y-87835550D01*
X102257152Y-87835550D02*
X101857152Y-87835550D01*
X101857152Y-88235550D02*
X101857152Y-88006979D01*
X101857152Y-88121265D02*
X102257152Y-88121265D01*
X102257152Y-88121265D02*
X102200009Y-88083169D01*
X102200009Y-88083169D02*
X102161914Y-88045074D01*
X102161914Y-88045074D02*
X102142866Y-88006979D01*
X101819057Y-88311741D02*
X101819057Y-88616502D01*
X101857152Y-88711741D02*
X102257152Y-88711741D01*
X102257152Y-88711741D02*
X102257152Y-88806979D01*
X102257152Y-88806979D02*
X102238104Y-88864122D01*
X102238104Y-88864122D02*
X102200009Y-88902217D01*
X102200009Y-88902217D02*
X102161914Y-88921264D01*
X102161914Y-88921264D02*
X102085723Y-88940312D01*
X102085723Y-88940312D02*
X102028580Y-88940312D01*
X102028580Y-88940312D02*
X101952390Y-88921264D01*
X101952390Y-88921264D02*
X101914295Y-88902217D01*
X101914295Y-88902217D02*
X101876200Y-88864122D01*
X101876200Y-88864122D02*
X101857152Y-88806979D01*
X101857152Y-88806979D02*
X101857152Y-88711741D01*
X101857152Y-89111741D02*
X102257152Y-89111741D01*
X102257152Y-89111741D02*
X101857152Y-89340312D01*
X101857152Y-89340312D02*
X102257152Y-89340312D01*
X102257152Y-89492693D02*
X102257152Y-89740312D01*
X102257152Y-89740312D02*
X102104771Y-89606979D01*
X102104771Y-89606979D02*
X102104771Y-89664122D01*
X102104771Y-89664122D02*
X102085723Y-89702217D01*
X102085723Y-89702217D02*
X102066676Y-89721265D01*
X102066676Y-89721265D02*
X102028580Y-89740312D01*
X102028580Y-89740312D02*
X101933342Y-89740312D01*
X101933342Y-89740312D02*
X101895247Y-89721265D01*
X101895247Y-89721265D02*
X101876200Y-89702217D01*
X101876200Y-89702217D02*
X101857152Y-89664122D01*
X101857152Y-89664122D02*
X101857152Y-89549836D01*
X101857152Y-89549836D02*
X101876200Y-89511741D01*
X101876200Y-89511741D02*
X101895247Y-89492693D01*
X101095247Y-87054598D02*
X101076200Y-87035550D01*
X101076200Y-87035550D02*
X101057152Y-86978408D01*
X101057152Y-86978408D02*
X101057152Y-86940312D01*
X101057152Y-86940312D02*
X101076200Y-86883169D01*
X101076200Y-86883169D02*
X101114295Y-86845074D01*
X101114295Y-86845074D02*
X101152390Y-86826027D01*
X101152390Y-86826027D02*
X101228580Y-86806979D01*
X101228580Y-86806979D02*
X101285723Y-86806979D01*
X101285723Y-86806979D02*
X101361914Y-86826027D01*
X101361914Y-86826027D02*
X101400009Y-86845074D01*
X101400009Y-86845074D02*
X101438104Y-86883169D01*
X101438104Y-86883169D02*
X101457152Y-86940312D01*
X101457152Y-86940312D02*
X101457152Y-86978408D01*
X101457152Y-86978408D02*
X101438104Y-87035550D01*
X101438104Y-87035550D02*
X101419057Y-87054598D01*
X101171438Y-87206979D02*
X101171438Y-87397455D01*
X101057152Y-87168884D02*
X101457152Y-87302217D01*
X101457152Y-87302217D02*
X101057152Y-87435550D01*
X101057152Y-87568884D02*
X101457152Y-87568884D01*
X101457152Y-87568884D02*
X101171438Y-87702217D01*
X101171438Y-87702217D02*
X101457152Y-87835550D01*
X101457152Y-87835550D02*
X101057152Y-87835550D01*
X101057152Y-88235550D02*
X101057152Y-88006979D01*
X101057152Y-88121265D02*
X101457152Y-88121265D01*
X101457152Y-88121265D02*
X101400009Y-88083169D01*
X101400009Y-88083169D02*
X101361914Y-88045074D01*
X101361914Y-88045074D02*
X101342866Y-88006979D01*
X101019057Y-88311741D02*
X101019057Y-88616502D01*
X101057152Y-88711741D02*
X101457152Y-88711741D01*
X101457152Y-88711741D02*
X101457152Y-88806979D01*
X101457152Y-88806979D02*
X101438104Y-88864122D01*
X101438104Y-88864122D02*
X101400009Y-88902217D01*
X101400009Y-88902217D02*
X101361914Y-88921264D01*
X101361914Y-88921264D02*
X101285723Y-88940312D01*
X101285723Y-88940312D02*
X101228580Y-88940312D01*
X101228580Y-88940312D02*
X101152390Y-88921264D01*
X101152390Y-88921264D02*
X101114295Y-88902217D01*
X101114295Y-88902217D02*
X101076200Y-88864122D01*
X101076200Y-88864122D02*
X101057152Y-88806979D01*
X101057152Y-88806979D02*
X101057152Y-88711741D01*
X101057152Y-89111741D02*
X101457152Y-89111741D01*
X101457152Y-89111741D02*
X101457152Y-89264122D01*
X101457152Y-89264122D02*
X101438104Y-89302217D01*
X101438104Y-89302217D02*
X101419057Y-89321264D01*
X101419057Y-89321264D02*
X101380961Y-89340312D01*
X101380961Y-89340312D02*
X101323819Y-89340312D01*
X101323819Y-89340312D02*
X101285723Y-89321264D01*
X101285723Y-89321264D02*
X101266676Y-89302217D01*
X101266676Y-89302217D02*
X101247628Y-89264122D01*
X101247628Y-89264122D02*
X101247628Y-89111741D01*
X101457152Y-89473645D02*
X101457152Y-89721264D01*
X101457152Y-89721264D02*
X101304771Y-89587931D01*
X101304771Y-89587931D02*
X101304771Y-89645074D01*
X101304771Y-89645074D02*
X101285723Y-89683169D01*
X101285723Y-89683169D02*
X101266676Y-89702217D01*
X101266676Y-89702217D02*
X101228580Y-89721264D01*
X101228580Y-89721264D02*
X101133342Y-89721264D01*
X101133342Y-89721264D02*
X101095247Y-89702217D01*
X101095247Y-89702217D02*
X101076200Y-89683169D01*
X101076200Y-89683169D02*
X101057152Y-89645074D01*
X101057152Y-89645074D02*
X101057152Y-89530788D01*
X101057152Y-89530788D02*
X101076200Y-89492693D01*
X101076200Y-89492693D02*
X101095247Y-89473645D01*
X104627104Y-99481550D02*
X104646152Y-99443455D01*
X104646152Y-99443455D02*
X104646152Y-99386312D01*
X104646152Y-99386312D02*
X104627104Y-99329169D01*
X104627104Y-99329169D02*
X104589009Y-99291074D01*
X104589009Y-99291074D02*
X104550914Y-99272027D01*
X104550914Y-99272027D02*
X104474723Y-99252979D01*
X104474723Y-99252979D02*
X104417580Y-99252979D01*
X104417580Y-99252979D02*
X104341390Y-99272027D01*
X104341390Y-99272027D02*
X104303295Y-99291074D01*
X104303295Y-99291074D02*
X104265200Y-99329169D01*
X104265200Y-99329169D02*
X104246152Y-99386312D01*
X104246152Y-99386312D02*
X104246152Y-99424408D01*
X104246152Y-99424408D02*
X104265200Y-99481550D01*
X104265200Y-99481550D02*
X104284247Y-99500598D01*
X104284247Y-99500598D02*
X104417580Y-99500598D01*
X104417580Y-99500598D02*
X104417580Y-99424408D01*
X104246152Y-99672027D02*
X104646152Y-99672027D01*
X104646152Y-99672027D02*
X104646152Y-99824408D01*
X104646152Y-99824408D02*
X104627104Y-99862503D01*
X104627104Y-99862503D02*
X104608057Y-99881550D01*
X104608057Y-99881550D02*
X104569961Y-99900598D01*
X104569961Y-99900598D02*
X104512819Y-99900598D01*
X104512819Y-99900598D02*
X104474723Y-99881550D01*
X104474723Y-99881550D02*
X104455676Y-99862503D01*
X104455676Y-99862503D02*
X104436628Y-99824408D01*
X104436628Y-99824408D02*
X104436628Y-99672027D01*
X104246152Y-100072027D02*
X104646152Y-100072027D01*
X104646152Y-100338693D02*
X104646152Y-100414884D01*
X104646152Y-100414884D02*
X104627104Y-100452979D01*
X104627104Y-100452979D02*
X104589009Y-100491074D01*
X104589009Y-100491074D02*
X104512819Y-100510122D01*
X104512819Y-100510122D02*
X104379485Y-100510122D01*
X104379485Y-100510122D02*
X104303295Y-100491074D01*
X104303295Y-100491074D02*
X104265200Y-100452979D01*
X104265200Y-100452979D02*
X104246152Y-100414884D01*
X104246152Y-100414884D02*
X104246152Y-100338693D01*
X104246152Y-100338693D02*
X104265200Y-100300598D01*
X104265200Y-100300598D02*
X104303295Y-100262503D01*
X104303295Y-100262503D02*
X104379485Y-100243455D01*
X104379485Y-100243455D02*
X104512819Y-100243455D01*
X104512819Y-100243455D02*
X104589009Y-100262503D01*
X104589009Y-100262503D02*
X104627104Y-100300598D01*
X104627104Y-100300598D02*
X104646152Y-100338693D01*
X104646152Y-100643455D02*
X104646152Y-100891074D01*
X104646152Y-100891074D02*
X104493771Y-100757741D01*
X104493771Y-100757741D02*
X104493771Y-100814884D01*
X104493771Y-100814884D02*
X104474723Y-100852979D01*
X104474723Y-100852979D02*
X104455676Y-100872027D01*
X104455676Y-100872027D02*
X104417580Y-100891074D01*
X104417580Y-100891074D02*
X104322342Y-100891074D01*
X104322342Y-100891074D02*
X104284247Y-100872027D01*
X104284247Y-100872027D02*
X104265200Y-100852979D01*
X104265200Y-100852979D02*
X104246152Y-100814884D01*
X104246152Y-100814884D02*
X104246152Y-100700598D01*
X104246152Y-100700598D02*
X104265200Y-100662503D01*
X104265200Y-100662503D02*
X104284247Y-100643455D01*
X104474723Y-101119645D02*
X104493771Y-101081550D01*
X104493771Y-101081550D02*
X104512819Y-101062503D01*
X104512819Y-101062503D02*
X104550914Y-101043455D01*
X104550914Y-101043455D02*
X104569961Y-101043455D01*
X104569961Y-101043455D02*
X104608057Y-101062503D01*
X104608057Y-101062503D02*
X104627104Y-101081550D01*
X104627104Y-101081550D02*
X104646152Y-101119645D01*
X104646152Y-101119645D02*
X104646152Y-101195836D01*
X104646152Y-101195836D02*
X104627104Y-101233931D01*
X104627104Y-101233931D02*
X104608057Y-101252979D01*
X104608057Y-101252979D02*
X104569961Y-101272026D01*
X104569961Y-101272026D02*
X104550914Y-101272026D01*
X104550914Y-101272026D02*
X104512819Y-101252979D01*
X104512819Y-101252979D02*
X104493771Y-101233931D01*
X104493771Y-101233931D02*
X104474723Y-101195836D01*
X104474723Y-101195836D02*
X104474723Y-101119645D01*
X104474723Y-101119645D02*
X104455676Y-101081550D01*
X104455676Y-101081550D02*
X104436628Y-101062503D01*
X104436628Y-101062503D02*
X104398533Y-101043455D01*
X104398533Y-101043455D02*
X104322342Y-101043455D01*
X104322342Y-101043455D02*
X104284247Y-101062503D01*
X104284247Y-101062503D02*
X104265200Y-101081550D01*
X104265200Y-101081550D02*
X104246152Y-101119645D01*
X104246152Y-101119645D02*
X104246152Y-101195836D01*
X104246152Y-101195836D02*
X104265200Y-101233931D01*
X104265200Y-101233931D02*
X104284247Y-101252979D01*
X104284247Y-101252979D02*
X104322342Y-101272026D01*
X104322342Y-101272026D02*
X104398533Y-101272026D01*
X104398533Y-101272026D02*
X104436628Y-101252979D01*
X104436628Y-101252979D02*
X104455676Y-101233931D01*
X104455676Y-101233931D02*
X104474723Y-101195836D01*
X110695247Y-87054598D02*
X110676200Y-87035550D01*
X110676200Y-87035550D02*
X110657152Y-86978408D01*
X110657152Y-86978408D02*
X110657152Y-86940312D01*
X110657152Y-86940312D02*
X110676200Y-86883169D01*
X110676200Y-86883169D02*
X110714295Y-86845074D01*
X110714295Y-86845074D02*
X110752390Y-86826027D01*
X110752390Y-86826027D02*
X110828580Y-86806979D01*
X110828580Y-86806979D02*
X110885723Y-86806979D01*
X110885723Y-86806979D02*
X110961914Y-86826027D01*
X110961914Y-86826027D02*
X111000009Y-86845074D01*
X111000009Y-86845074D02*
X111038104Y-86883169D01*
X111038104Y-86883169D02*
X111057152Y-86940312D01*
X111057152Y-86940312D02*
X111057152Y-86978408D01*
X111057152Y-86978408D02*
X111038104Y-87035550D01*
X111038104Y-87035550D02*
X111019057Y-87054598D01*
X110771438Y-87206979D02*
X110771438Y-87397455D01*
X110657152Y-87168884D02*
X111057152Y-87302217D01*
X111057152Y-87302217D02*
X110657152Y-87435550D01*
X110657152Y-87568884D02*
X111057152Y-87568884D01*
X111057152Y-87568884D02*
X110771438Y-87702217D01*
X110771438Y-87702217D02*
X111057152Y-87835550D01*
X111057152Y-87835550D02*
X110657152Y-87835550D01*
X110657152Y-88235550D02*
X110657152Y-88006979D01*
X110657152Y-88121265D02*
X111057152Y-88121265D01*
X111057152Y-88121265D02*
X111000009Y-88083169D01*
X111000009Y-88083169D02*
X110961914Y-88045074D01*
X110961914Y-88045074D02*
X110942866Y-88006979D01*
X110619057Y-88311741D02*
X110619057Y-88616502D01*
X110657152Y-88711741D02*
X111057152Y-88711741D01*
X111057152Y-88711741D02*
X111057152Y-88806979D01*
X111057152Y-88806979D02*
X111038104Y-88864122D01*
X111038104Y-88864122D02*
X111000009Y-88902217D01*
X111000009Y-88902217D02*
X110961914Y-88921264D01*
X110961914Y-88921264D02*
X110885723Y-88940312D01*
X110885723Y-88940312D02*
X110828580Y-88940312D01*
X110828580Y-88940312D02*
X110752390Y-88921264D01*
X110752390Y-88921264D02*
X110714295Y-88902217D01*
X110714295Y-88902217D02*
X110676200Y-88864122D01*
X110676200Y-88864122D02*
X110657152Y-88806979D01*
X110657152Y-88806979D02*
X110657152Y-88711741D01*
X110657152Y-89111741D02*
X111057152Y-89111741D01*
X111057152Y-89111741D02*
X111057152Y-89264122D01*
X111057152Y-89264122D02*
X111038104Y-89302217D01*
X111038104Y-89302217D02*
X111019057Y-89321264D01*
X111019057Y-89321264D02*
X110980961Y-89340312D01*
X110980961Y-89340312D02*
X110923819Y-89340312D01*
X110923819Y-89340312D02*
X110885723Y-89321264D01*
X110885723Y-89321264D02*
X110866676Y-89302217D01*
X110866676Y-89302217D02*
X110847628Y-89264122D01*
X110847628Y-89264122D02*
X110847628Y-89111741D01*
X111057152Y-89587931D02*
X111057152Y-89626026D01*
X111057152Y-89626026D02*
X111038104Y-89664122D01*
X111038104Y-89664122D02*
X111019057Y-89683169D01*
X111019057Y-89683169D02*
X110980961Y-89702217D01*
X110980961Y-89702217D02*
X110904771Y-89721264D01*
X110904771Y-89721264D02*
X110809533Y-89721264D01*
X110809533Y-89721264D02*
X110733342Y-89702217D01*
X110733342Y-89702217D02*
X110695247Y-89683169D01*
X110695247Y-89683169D02*
X110676200Y-89664122D01*
X110676200Y-89664122D02*
X110657152Y-89626026D01*
X110657152Y-89626026D02*
X110657152Y-89587931D01*
X110657152Y-89587931D02*
X110676200Y-89549836D01*
X110676200Y-89549836D02*
X110695247Y-89530788D01*
X110695247Y-89530788D02*
X110733342Y-89511741D01*
X110733342Y-89511741D02*
X110809533Y-89492693D01*
X110809533Y-89492693D02*
X110904771Y-89492693D01*
X110904771Y-89492693D02*
X110980961Y-89511741D01*
X110980961Y-89511741D02*
X111019057Y-89530788D01*
X111019057Y-89530788D02*
X111038104Y-89549836D01*
X111038104Y-89549836D02*
X111057152Y-89587931D01*
X102809533Y-111591027D02*
X102809533Y-111895789D01*
X102657152Y-111743408D02*
X102961914Y-111743408D01*
X103057152Y-112276741D02*
X103057152Y-112086265D01*
X103057152Y-112086265D02*
X102866676Y-112067217D01*
X102866676Y-112067217D02*
X102885723Y-112086265D01*
X102885723Y-112086265D02*
X102904771Y-112124360D01*
X102904771Y-112124360D02*
X102904771Y-112219598D01*
X102904771Y-112219598D02*
X102885723Y-112257693D01*
X102885723Y-112257693D02*
X102866676Y-112276741D01*
X102866676Y-112276741D02*
X102828580Y-112295788D01*
X102828580Y-112295788D02*
X102733342Y-112295788D01*
X102733342Y-112295788D02*
X102695247Y-112276741D01*
X102695247Y-112276741D02*
X102676200Y-112257693D01*
X102676200Y-112257693D02*
X102657152Y-112219598D01*
X102657152Y-112219598D02*
X102657152Y-112124360D01*
X102657152Y-112124360D02*
X102676200Y-112086265D01*
X102676200Y-112086265D02*
X102695247Y-112067217D01*
X103057152Y-112410074D02*
X102657152Y-112543407D01*
X102657152Y-112543407D02*
X103057152Y-112676740D01*
X99027104Y-99481550D02*
X99046152Y-99443455D01*
X99046152Y-99443455D02*
X99046152Y-99386312D01*
X99046152Y-99386312D02*
X99027104Y-99329169D01*
X99027104Y-99329169D02*
X98989009Y-99291074D01*
X98989009Y-99291074D02*
X98950914Y-99272027D01*
X98950914Y-99272027D02*
X98874723Y-99252979D01*
X98874723Y-99252979D02*
X98817580Y-99252979D01*
X98817580Y-99252979D02*
X98741390Y-99272027D01*
X98741390Y-99272027D02*
X98703295Y-99291074D01*
X98703295Y-99291074D02*
X98665200Y-99329169D01*
X98665200Y-99329169D02*
X98646152Y-99386312D01*
X98646152Y-99386312D02*
X98646152Y-99424408D01*
X98646152Y-99424408D02*
X98665200Y-99481550D01*
X98665200Y-99481550D02*
X98684247Y-99500598D01*
X98684247Y-99500598D02*
X98817580Y-99500598D01*
X98817580Y-99500598D02*
X98817580Y-99424408D01*
X98646152Y-99672027D02*
X99046152Y-99672027D01*
X99046152Y-99672027D02*
X99046152Y-99824408D01*
X99046152Y-99824408D02*
X99027104Y-99862503D01*
X99027104Y-99862503D02*
X99008057Y-99881550D01*
X99008057Y-99881550D02*
X98969961Y-99900598D01*
X98969961Y-99900598D02*
X98912819Y-99900598D01*
X98912819Y-99900598D02*
X98874723Y-99881550D01*
X98874723Y-99881550D02*
X98855676Y-99862503D01*
X98855676Y-99862503D02*
X98836628Y-99824408D01*
X98836628Y-99824408D02*
X98836628Y-99672027D01*
X98646152Y-100072027D02*
X99046152Y-100072027D01*
X99046152Y-100338693D02*
X99046152Y-100414884D01*
X99046152Y-100414884D02*
X99027104Y-100452979D01*
X99027104Y-100452979D02*
X98989009Y-100491074D01*
X98989009Y-100491074D02*
X98912819Y-100510122D01*
X98912819Y-100510122D02*
X98779485Y-100510122D01*
X98779485Y-100510122D02*
X98703295Y-100491074D01*
X98703295Y-100491074D02*
X98665200Y-100452979D01*
X98665200Y-100452979D02*
X98646152Y-100414884D01*
X98646152Y-100414884D02*
X98646152Y-100338693D01*
X98646152Y-100338693D02*
X98665200Y-100300598D01*
X98665200Y-100300598D02*
X98703295Y-100262503D01*
X98703295Y-100262503D02*
X98779485Y-100243455D01*
X98779485Y-100243455D02*
X98912819Y-100243455D01*
X98912819Y-100243455D02*
X98989009Y-100262503D01*
X98989009Y-100262503D02*
X99027104Y-100300598D01*
X99027104Y-100300598D02*
X99046152Y-100338693D01*
X98912819Y-100852979D02*
X98646152Y-100852979D01*
X99065200Y-100757741D02*
X98779485Y-100662503D01*
X98779485Y-100662503D02*
X98779485Y-100910122D01*
X99046152Y-101252979D02*
X99046152Y-101062503D01*
X99046152Y-101062503D02*
X98855676Y-101043455D01*
X98855676Y-101043455D02*
X98874723Y-101062503D01*
X98874723Y-101062503D02*
X98893771Y-101100598D01*
X98893771Y-101100598D02*
X98893771Y-101195836D01*
X98893771Y-101195836D02*
X98874723Y-101233931D01*
X98874723Y-101233931D02*
X98855676Y-101252979D01*
X98855676Y-101252979D02*
X98817580Y-101272026D01*
X98817580Y-101272026D02*
X98722342Y-101272026D01*
X98722342Y-101272026D02*
X98684247Y-101252979D01*
X98684247Y-101252979D02*
X98665200Y-101233931D01*
X98665200Y-101233931D02*
X98646152Y-101195836D01*
X98646152Y-101195836D02*
X98646152Y-101100598D01*
X98646152Y-101100598D02*
X98665200Y-101062503D01*
X98665200Y-101062503D02*
X98684247Y-101043455D01*
X105438104Y-87035550D02*
X105457152Y-86997455D01*
X105457152Y-86997455D02*
X105457152Y-86940312D01*
X105457152Y-86940312D02*
X105438104Y-86883169D01*
X105438104Y-86883169D02*
X105400009Y-86845074D01*
X105400009Y-86845074D02*
X105361914Y-86826027D01*
X105361914Y-86826027D02*
X105285723Y-86806979D01*
X105285723Y-86806979D02*
X105228580Y-86806979D01*
X105228580Y-86806979D02*
X105152390Y-86826027D01*
X105152390Y-86826027D02*
X105114295Y-86845074D01*
X105114295Y-86845074D02*
X105076200Y-86883169D01*
X105076200Y-86883169D02*
X105057152Y-86940312D01*
X105057152Y-86940312D02*
X105057152Y-86978408D01*
X105057152Y-86978408D02*
X105076200Y-87035550D01*
X105076200Y-87035550D02*
X105095247Y-87054598D01*
X105095247Y-87054598D02*
X105228580Y-87054598D01*
X105228580Y-87054598D02*
X105228580Y-86978408D01*
X105057152Y-87226027D02*
X105457152Y-87226027D01*
X105457152Y-87226027D02*
X105057152Y-87454598D01*
X105057152Y-87454598D02*
X105457152Y-87454598D01*
X105057152Y-87645075D02*
X105457152Y-87645075D01*
X105457152Y-87645075D02*
X105457152Y-87740313D01*
X105457152Y-87740313D02*
X105438104Y-87797456D01*
X105438104Y-87797456D02*
X105400009Y-87835551D01*
X105400009Y-87835551D02*
X105361914Y-87854598D01*
X105361914Y-87854598D02*
X105285723Y-87873646D01*
X105285723Y-87873646D02*
X105228580Y-87873646D01*
X105228580Y-87873646D02*
X105152390Y-87854598D01*
X105152390Y-87854598D02*
X105114295Y-87835551D01*
X105114295Y-87835551D02*
X105076200Y-87797456D01*
X105076200Y-87797456D02*
X105057152Y-87740313D01*
X105057152Y-87740313D02*
X105057152Y-87645075D01*
X104295247Y-87054598D02*
X104276200Y-87035550D01*
X104276200Y-87035550D02*
X104257152Y-86978408D01*
X104257152Y-86978408D02*
X104257152Y-86940312D01*
X104257152Y-86940312D02*
X104276200Y-86883169D01*
X104276200Y-86883169D02*
X104314295Y-86845074D01*
X104314295Y-86845074D02*
X104352390Y-86826027D01*
X104352390Y-86826027D02*
X104428580Y-86806979D01*
X104428580Y-86806979D02*
X104485723Y-86806979D01*
X104485723Y-86806979D02*
X104561914Y-86826027D01*
X104561914Y-86826027D02*
X104600009Y-86845074D01*
X104600009Y-86845074D02*
X104638104Y-86883169D01*
X104638104Y-86883169D02*
X104657152Y-86940312D01*
X104657152Y-86940312D02*
X104657152Y-86978408D01*
X104657152Y-86978408D02*
X104638104Y-87035550D01*
X104638104Y-87035550D02*
X104619057Y-87054598D01*
X104371438Y-87206979D02*
X104371438Y-87397455D01*
X104257152Y-87168884D02*
X104657152Y-87302217D01*
X104657152Y-87302217D02*
X104257152Y-87435550D01*
X104257152Y-87568884D02*
X104657152Y-87568884D01*
X104657152Y-87568884D02*
X104371438Y-87702217D01*
X104371438Y-87702217D02*
X104657152Y-87835550D01*
X104657152Y-87835550D02*
X104257152Y-87835550D01*
X104257152Y-88235550D02*
X104257152Y-88006979D01*
X104257152Y-88121265D02*
X104657152Y-88121265D01*
X104657152Y-88121265D02*
X104600009Y-88083169D01*
X104600009Y-88083169D02*
X104561914Y-88045074D01*
X104561914Y-88045074D02*
X104542866Y-88006979D01*
X104219057Y-88311741D02*
X104219057Y-88616502D01*
X104257152Y-88711741D02*
X104657152Y-88711741D01*
X104657152Y-88711741D02*
X104657152Y-88806979D01*
X104657152Y-88806979D02*
X104638104Y-88864122D01*
X104638104Y-88864122D02*
X104600009Y-88902217D01*
X104600009Y-88902217D02*
X104561914Y-88921264D01*
X104561914Y-88921264D02*
X104485723Y-88940312D01*
X104485723Y-88940312D02*
X104428580Y-88940312D01*
X104428580Y-88940312D02*
X104352390Y-88921264D01*
X104352390Y-88921264D02*
X104314295Y-88902217D01*
X104314295Y-88902217D02*
X104276200Y-88864122D01*
X104276200Y-88864122D02*
X104257152Y-88806979D01*
X104257152Y-88806979D02*
X104257152Y-88711741D01*
X104257152Y-89111741D02*
X104657152Y-89111741D01*
X104657152Y-89111741D02*
X104257152Y-89340312D01*
X104257152Y-89340312D02*
X104657152Y-89340312D01*
X104619057Y-89511741D02*
X104638104Y-89530789D01*
X104638104Y-89530789D02*
X104657152Y-89568884D01*
X104657152Y-89568884D02*
X104657152Y-89664122D01*
X104657152Y-89664122D02*
X104638104Y-89702217D01*
X104638104Y-89702217D02*
X104619057Y-89721265D01*
X104619057Y-89721265D02*
X104580961Y-89740312D01*
X104580961Y-89740312D02*
X104542866Y-89740312D01*
X104542866Y-89740312D02*
X104485723Y-89721265D01*
X104485723Y-89721265D02*
X104257152Y-89492693D01*
X104257152Y-89492693D02*
X104257152Y-89740312D01*
X108627104Y-111800550D02*
X108646152Y-111762455D01*
X108646152Y-111762455D02*
X108646152Y-111705312D01*
X108646152Y-111705312D02*
X108627104Y-111648169D01*
X108627104Y-111648169D02*
X108589009Y-111610074D01*
X108589009Y-111610074D02*
X108550914Y-111591027D01*
X108550914Y-111591027D02*
X108474723Y-111571979D01*
X108474723Y-111571979D02*
X108417580Y-111571979D01*
X108417580Y-111571979D02*
X108341390Y-111591027D01*
X108341390Y-111591027D02*
X108303295Y-111610074D01*
X108303295Y-111610074D02*
X108265200Y-111648169D01*
X108265200Y-111648169D02*
X108246152Y-111705312D01*
X108246152Y-111705312D02*
X108246152Y-111743408D01*
X108246152Y-111743408D02*
X108265200Y-111800550D01*
X108265200Y-111800550D02*
X108284247Y-111819598D01*
X108284247Y-111819598D02*
X108417580Y-111819598D01*
X108417580Y-111819598D02*
X108417580Y-111743408D01*
X108246152Y-111991027D02*
X108646152Y-111991027D01*
X108646152Y-111991027D02*
X108246152Y-112219598D01*
X108246152Y-112219598D02*
X108646152Y-112219598D01*
X108246152Y-112410075D02*
X108646152Y-112410075D01*
X108646152Y-112410075D02*
X108646152Y-112505313D01*
X108646152Y-112505313D02*
X108627104Y-112562456D01*
X108627104Y-112562456D02*
X108589009Y-112600551D01*
X108589009Y-112600551D02*
X108550914Y-112619598D01*
X108550914Y-112619598D02*
X108474723Y-112638646D01*
X108474723Y-112638646D02*
X108417580Y-112638646D01*
X108417580Y-112638646D02*
X108341390Y-112619598D01*
X108341390Y-112619598D02*
X108303295Y-112600551D01*
X108303295Y-112600551D02*
X108265200Y-112562456D01*
X108265200Y-112562456D02*
X108246152Y-112505313D01*
X108246152Y-112505313D02*
X108246152Y-112410075D01*
X111465200Y-110555979D02*
X111446152Y-110613122D01*
X111446152Y-110613122D02*
X111446152Y-110708360D01*
X111446152Y-110708360D02*
X111465200Y-110746455D01*
X111465200Y-110746455D02*
X111484247Y-110765503D01*
X111484247Y-110765503D02*
X111522342Y-110784550D01*
X111522342Y-110784550D02*
X111560438Y-110784550D01*
X111560438Y-110784550D02*
X111598533Y-110765503D01*
X111598533Y-110765503D02*
X111617580Y-110746455D01*
X111617580Y-110746455D02*
X111636628Y-110708360D01*
X111636628Y-110708360D02*
X111655676Y-110632169D01*
X111655676Y-110632169D02*
X111674723Y-110594074D01*
X111674723Y-110594074D02*
X111693771Y-110575027D01*
X111693771Y-110575027D02*
X111731866Y-110555979D01*
X111731866Y-110555979D02*
X111769961Y-110555979D01*
X111769961Y-110555979D02*
X111808057Y-110575027D01*
X111808057Y-110575027D02*
X111827104Y-110594074D01*
X111827104Y-110594074D02*
X111846152Y-110632169D01*
X111846152Y-110632169D02*
X111846152Y-110727408D01*
X111846152Y-110727408D02*
X111827104Y-110784550D01*
X111446152Y-110955979D02*
X111846152Y-110955979D01*
X111846152Y-110955979D02*
X111846152Y-111108360D01*
X111846152Y-111108360D02*
X111827104Y-111146455D01*
X111827104Y-111146455D02*
X111808057Y-111165502D01*
X111808057Y-111165502D02*
X111769961Y-111184550D01*
X111769961Y-111184550D02*
X111712819Y-111184550D01*
X111712819Y-111184550D02*
X111674723Y-111165502D01*
X111674723Y-111165502D02*
X111655676Y-111146455D01*
X111655676Y-111146455D02*
X111636628Y-111108360D01*
X111636628Y-111108360D02*
X111636628Y-110955979D01*
X111446152Y-111355979D02*
X111846152Y-111355979D01*
X111446152Y-111584550D02*
X111674723Y-111413121D01*
X111846152Y-111584550D02*
X111617580Y-111355979D01*
X111408057Y-111660741D02*
X111408057Y-111965502D01*
X111446152Y-112251217D02*
X111446152Y-112060741D01*
X111446152Y-112060741D02*
X111846152Y-112060741D01*
X111446152Y-112384551D02*
X111846152Y-112384551D01*
X111846152Y-112384551D02*
X111446152Y-112613122D01*
X111446152Y-112613122D02*
X111846152Y-112613122D01*
X111827104Y-99481550D02*
X111846152Y-99443455D01*
X111846152Y-99443455D02*
X111846152Y-99386312D01*
X111846152Y-99386312D02*
X111827104Y-99329169D01*
X111827104Y-99329169D02*
X111789009Y-99291074D01*
X111789009Y-99291074D02*
X111750914Y-99272027D01*
X111750914Y-99272027D02*
X111674723Y-99252979D01*
X111674723Y-99252979D02*
X111617580Y-99252979D01*
X111617580Y-99252979D02*
X111541390Y-99272027D01*
X111541390Y-99272027D02*
X111503295Y-99291074D01*
X111503295Y-99291074D02*
X111465200Y-99329169D01*
X111465200Y-99329169D02*
X111446152Y-99386312D01*
X111446152Y-99386312D02*
X111446152Y-99424408D01*
X111446152Y-99424408D02*
X111465200Y-99481550D01*
X111465200Y-99481550D02*
X111484247Y-99500598D01*
X111484247Y-99500598D02*
X111617580Y-99500598D01*
X111617580Y-99500598D02*
X111617580Y-99424408D01*
X111446152Y-99672027D02*
X111846152Y-99672027D01*
X111846152Y-99672027D02*
X111846152Y-99824408D01*
X111846152Y-99824408D02*
X111827104Y-99862503D01*
X111827104Y-99862503D02*
X111808057Y-99881550D01*
X111808057Y-99881550D02*
X111769961Y-99900598D01*
X111769961Y-99900598D02*
X111712819Y-99900598D01*
X111712819Y-99900598D02*
X111674723Y-99881550D01*
X111674723Y-99881550D02*
X111655676Y-99862503D01*
X111655676Y-99862503D02*
X111636628Y-99824408D01*
X111636628Y-99824408D02*
X111636628Y-99672027D01*
X111446152Y-100072027D02*
X111846152Y-100072027D01*
X111846152Y-100338693D02*
X111846152Y-100414884D01*
X111846152Y-100414884D02*
X111827104Y-100452979D01*
X111827104Y-100452979D02*
X111789009Y-100491074D01*
X111789009Y-100491074D02*
X111712819Y-100510122D01*
X111712819Y-100510122D02*
X111579485Y-100510122D01*
X111579485Y-100510122D02*
X111503295Y-100491074D01*
X111503295Y-100491074D02*
X111465200Y-100452979D01*
X111465200Y-100452979D02*
X111446152Y-100414884D01*
X111446152Y-100414884D02*
X111446152Y-100338693D01*
X111446152Y-100338693D02*
X111465200Y-100300598D01*
X111465200Y-100300598D02*
X111503295Y-100262503D01*
X111503295Y-100262503D02*
X111579485Y-100243455D01*
X111579485Y-100243455D02*
X111712819Y-100243455D01*
X111712819Y-100243455D02*
X111789009Y-100262503D01*
X111789009Y-100262503D02*
X111827104Y-100300598D01*
X111827104Y-100300598D02*
X111846152Y-100338693D01*
X111808057Y-100662503D02*
X111827104Y-100681551D01*
X111827104Y-100681551D02*
X111846152Y-100719646D01*
X111846152Y-100719646D02*
X111846152Y-100814884D01*
X111846152Y-100814884D02*
X111827104Y-100852979D01*
X111827104Y-100852979D02*
X111808057Y-100872027D01*
X111808057Y-100872027D02*
X111769961Y-100891074D01*
X111769961Y-100891074D02*
X111731866Y-100891074D01*
X111731866Y-100891074D02*
X111674723Y-100872027D01*
X111674723Y-100872027D02*
X111446152Y-100643455D01*
X111446152Y-100643455D02*
X111446152Y-100891074D01*
X111446152Y-101081550D02*
X111446152Y-101157741D01*
X111446152Y-101157741D02*
X111465200Y-101195836D01*
X111465200Y-101195836D02*
X111484247Y-101214884D01*
X111484247Y-101214884D02*
X111541390Y-101252979D01*
X111541390Y-101252979D02*
X111617580Y-101272026D01*
X111617580Y-101272026D02*
X111769961Y-101272026D01*
X111769961Y-101272026D02*
X111808057Y-101252979D01*
X111808057Y-101252979D02*
X111827104Y-101233931D01*
X111827104Y-101233931D02*
X111846152Y-101195836D01*
X111846152Y-101195836D02*
X111846152Y-101119645D01*
X111846152Y-101119645D02*
X111827104Y-101081550D01*
X111827104Y-101081550D02*
X111808057Y-101062503D01*
X111808057Y-101062503D02*
X111769961Y-101043455D01*
X111769961Y-101043455D02*
X111674723Y-101043455D01*
X111674723Y-101043455D02*
X111636628Y-101062503D01*
X111636628Y-101062503D02*
X111617580Y-101081550D01*
X111617580Y-101081550D02*
X111598533Y-101119645D01*
X111598533Y-101119645D02*
X111598533Y-101195836D01*
X111598533Y-101195836D02*
X111617580Y-101233931D01*
X111617580Y-101233931D02*
X111636628Y-101252979D01*
X111636628Y-101252979D02*
X111674723Y-101272026D01*
X98809533Y-86826027D02*
X98809533Y-87130789D01*
X98657152Y-86978408D02*
X98961914Y-86978408D01*
X99057152Y-87283169D02*
X99057152Y-87530788D01*
X99057152Y-87530788D02*
X98904771Y-87397455D01*
X98904771Y-87397455D02*
X98904771Y-87454598D01*
X98904771Y-87454598D02*
X98885723Y-87492693D01*
X98885723Y-87492693D02*
X98866676Y-87511741D01*
X98866676Y-87511741D02*
X98828580Y-87530788D01*
X98828580Y-87530788D02*
X98733342Y-87530788D01*
X98733342Y-87530788D02*
X98695247Y-87511741D01*
X98695247Y-87511741D02*
X98676200Y-87492693D01*
X98676200Y-87492693D02*
X98657152Y-87454598D01*
X98657152Y-87454598D02*
X98657152Y-87340312D01*
X98657152Y-87340312D02*
X98676200Y-87302217D01*
X98676200Y-87302217D02*
X98695247Y-87283169D01*
X98695247Y-87702217D02*
X98676200Y-87721264D01*
X98676200Y-87721264D02*
X98657152Y-87702217D01*
X98657152Y-87702217D02*
X98676200Y-87683169D01*
X98676200Y-87683169D02*
X98695247Y-87702217D01*
X98695247Y-87702217D02*
X98657152Y-87702217D01*
X99057152Y-87854597D02*
X99057152Y-88102216D01*
X99057152Y-88102216D02*
X98904771Y-87968883D01*
X98904771Y-87968883D02*
X98904771Y-88026026D01*
X98904771Y-88026026D02*
X98885723Y-88064121D01*
X98885723Y-88064121D02*
X98866676Y-88083169D01*
X98866676Y-88083169D02*
X98828580Y-88102216D01*
X98828580Y-88102216D02*
X98733342Y-88102216D01*
X98733342Y-88102216D02*
X98695247Y-88083169D01*
X98695247Y-88083169D02*
X98676200Y-88064121D01*
X98676200Y-88064121D02*
X98657152Y-88026026D01*
X98657152Y-88026026D02*
X98657152Y-87911740D01*
X98657152Y-87911740D02*
X98676200Y-87873645D01*
X98676200Y-87873645D02*
X98695247Y-87854597D01*
X99057152Y-88216502D02*
X98657152Y-88349835D01*
X98657152Y-88349835D02*
X99057152Y-88483168D01*
X107027104Y-99481550D02*
X107046152Y-99443455D01*
X107046152Y-99443455D02*
X107046152Y-99386312D01*
X107046152Y-99386312D02*
X107027104Y-99329169D01*
X107027104Y-99329169D02*
X106989009Y-99291074D01*
X106989009Y-99291074D02*
X106950914Y-99272027D01*
X106950914Y-99272027D02*
X106874723Y-99252979D01*
X106874723Y-99252979D02*
X106817580Y-99252979D01*
X106817580Y-99252979D02*
X106741390Y-99272027D01*
X106741390Y-99272027D02*
X106703295Y-99291074D01*
X106703295Y-99291074D02*
X106665200Y-99329169D01*
X106665200Y-99329169D02*
X106646152Y-99386312D01*
X106646152Y-99386312D02*
X106646152Y-99424408D01*
X106646152Y-99424408D02*
X106665200Y-99481550D01*
X106665200Y-99481550D02*
X106684247Y-99500598D01*
X106684247Y-99500598D02*
X106817580Y-99500598D01*
X106817580Y-99500598D02*
X106817580Y-99424408D01*
X106646152Y-99672027D02*
X107046152Y-99672027D01*
X107046152Y-99672027D02*
X107046152Y-99824408D01*
X107046152Y-99824408D02*
X107027104Y-99862503D01*
X107027104Y-99862503D02*
X107008057Y-99881550D01*
X107008057Y-99881550D02*
X106969961Y-99900598D01*
X106969961Y-99900598D02*
X106912819Y-99900598D01*
X106912819Y-99900598D02*
X106874723Y-99881550D01*
X106874723Y-99881550D02*
X106855676Y-99862503D01*
X106855676Y-99862503D02*
X106836628Y-99824408D01*
X106836628Y-99824408D02*
X106836628Y-99672027D01*
X106646152Y-100072027D02*
X107046152Y-100072027D01*
X107046152Y-100338693D02*
X107046152Y-100414884D01*
X107046152Y-100414884D02*
X107027104Y-100452979D01*
X107027104Y-100452979D02*
X106989009Y-100491074D01*
X106989009Y-100491074D02*
X106912819Y-100510122D01*
X106912819Y-100510122D02*
X106779485Y-100510122D01*
X106779485Y-100510122D02*
X106703295Y-100491074D01*
X106703295Y-100491074D02*
X106665200Y-100452979D01*
X106665200Y-100452979D02*
X106646152Y-100414884D01*
X106646152Y-100414884D02*
X106646152Y-100338693D01*
X106646152Y-100338693D02*
X106665200Y-100300598D01*
X106665200Y-100300598D02*
X106703295Y-100262503D01*
X106703295Y-100262503D02*
X106779485Y-100243455D01*
X106779485Y-100243455D02*
X106912819Y-100243455D01*
X106912819Y-100243455D02*
X106989009Y-100262503D01*
X106989009Y-100262503D02*
X107027104Y-100300598D01*
X107027104Y-100300598D02*
X107046152Y-100338693D01*
X107046152Y-100643455D02*
X107046152Y-100891074D01*
X107046152Y-100891074D02*
X106893771Y-100757741D01*
X106893771Y-100757741D02*
X106893771Y-100814884D01*
X106893771Y-100814884D02*
X106874723Y-100852979D01*
X106874723Y-100852979D02*
X106855676Y-100872027D01*
X106855676Y-100872027D02*
X106817580Y-100891074D01*
X106817580Y-100891074D02*
X106722342Y-100891074D01*
X106722342Y-100891074D02*
X106684247Y-100872027D01*
X106684247Y-100872027D02*
X106665200Y-100852979D01*
X106665200Y-100852979D02*
X106646152Y-100814884D01*
X106646152Y-100814884D02*
X106646152Y-100700598D01*
X106646152Y-100700598D02*
X106665200Y-100662503D01*
X106665200Y-100662503D02*
X106684247Y-100643455D01*
X107046152Y-101252979D02*
X107046152Y-101062503D01*
X107046152Y-101062503D02*
X106855676Y-101043455D01*
X106855676Y-101043455D02*
X106874723Y-101062503D01*
X106874723Y-101062503D02*
X106893771Y-101100598D01*
X106893771Y-101100598D02*
X106893771Y-101195836D01*
X106893771Y-101195836D02*
X106874723Y-101233931D01*
X106874723Y-101233931D02*
X106855676Y-101252979D01*
X106855676Y-101252979D02*
X106817580Y-101272026D01*
X106817580Y-101272026D02*
X106722342Y-101272026D01*
X106722342Y-101272026D02*
X106684247Y-101252979D01*
X106684247Y-101252979D02*
X106665200Y-101233931D01*
X106665200Y-101233931D02*
X106646152Y-101195836D01*
X106646152Y-101195836D02*
X106646152Y-101100598D01*
X106646152Y-101100598D02*
X106665200Y-101062503D01*
X106665200Y-101062503D02*
X106684247Y-101043455D01*
X105427104Y-99481550D02*
X105446152Y-99443455D01*
X105446152Y-99443455D02*
X105446152Y-99386312D01*
X105446152Y-99386312D02*
X105427104Y-99329169D01*
X105427104Y-99329169D02*
X105389009Y-99291074D01*
X105389009Y-99291074D02*
X105350914Y-99272027D01*
X105350914Y-99272027D02*
X105274723Y-99252979D01*
X105274723Y-99252979D02*
X105217580Y-99252979D01*
X105217580Y-99252979D02*
X105141390Y-99272027D01*
X105141390Y-99272027D02*
X105103295Y-99291074D01*
X105103295Y-99291074D02*
X105065200Y-99329169D01*
X105065200Y-99329169D02*
X105046152Y-99386312D01*
X105046152Y-99386312D02*
X105046152Y-99424408D01*
X105046152Y-99424408D02*
X105065200Y-99481550D01*
X105065200Y-99481550D02*
X105084247Y-99500598D01*
X105084247Y-99500598D02*
X105217580Y-99500598D01*
X105217580Y-99500598D02*
X105217580Y-99424408D01*
X105046152Y-99672027D02*
X105446152Y-99672027D01*
X105446152Y-99672027D02*
X105446152Y-99824408D01*
X105446152Y-99824408D02*
X105427104Y-99862503D01*
X105427104Y-99862503D02*
X105408057Y-99881550D01*
X105408057Y-99881550D02*
X105369961Y-99900598D01*
X105369961Y-99900598D02*
X105312819Y-99900598D01*
X105312819Y-99900598D02*
X105274723Y-99881550D01*
X105274723Y-99881550D02*
X105255676Y-99862503D01*
X105255676Y-99862503D02*
X105236628Y-99824408D01*
X105236628Y-99824408D02*
X105236628Y-99672027D01*
X105046152Y-100072027D02*
X105446152Y-100072027D01*
X105446152Y-100338693D02*
X105446152Y-100414884D01*
X105446152Y-100414884D02*
X105427104Y-100452979D01*
X105427104Y-100452979D02*
X105389009Y-100491074D01*
X105389009Y-100491074D02*
X105312819Y-100510122D01*
X105312819Y-100510122D02*
X105179485Y-100510122D01*
X105179485Y-100510122D02*
X105103295Y-100491074D01*
X105103295Y-100491074D02*
X105065200Y-100452979D01*
X105065200Y-100452979D02*
X105046152Y-100414884D01*
X105046152Y-100414884D02*
X105046152Y-100338693D01*
X105046152Y-100338693D02*
X105065200Y-100300598D01*
X105065200Y-100300598D02*
X105103295Y-100262503D01*
X105103295Y-100262503D02*
X105179485Y-100243455D01*
X105179485Y-100243455D02*
X105312819Y-100243455D01*
X105312819Y-100243455D02*
X105389009Y-100262503D01*
X105389009Y-100262503D02*
X105427104Y-100300598D01*
X105427104Y-100300598D02*
X105446152Y-100338693D01*
X105446152Y-100643455D02*
X105446152Y-100891074D01*
X105446152Y-100891074D02*
X105293771Y-100757741D01*
X105293771Y-100757741D02*
X105293771Y-100814884D01*
X105293771Y-100814884D02*
X105274723Y-100852979D01*
X105274723Y-100852979D02*
X105255676Y-100872027D01*
X105255676Y-100872027D02*
X105217580Y-100891074D01*
X105217580Y-100891074D02*
X105122342Y-100891074D01*
X105122342Y-100891074D02*
X105084247Y-100872027D01*
X105084247Y-100872027D02*
X105065200Y-100852979D01*
X105065200Y-100852979D02*
X105046152Y-100814884D01*
X105046152Y-100814884D02*
X105046152Y-100700598D01*
X105046152Y-100700598D02*
X105065200Y-100662503D01*
X105065200Y-100662503D02*
X105084247Y-100643455D01*
X105446152Y-101024407D02*
X105446152Y-101291074D01*
X105446152Y-101291074D02*
X105046152Y-101119645D01*
X106227104Y-99481550D02*
X106246152Y-99443455D01*
X106246152Y-99443455D02*
X106246152Y-99386312D01*
X106246152Y-99386312D02*
X106227104Y-99329169D01*
X106227104Y-99329169D02*
X106189009Y-99291074D01*
X106189009Y-99291074D02*
X106150914Y-99272027D01*
X106150914Y-99272027D02*
X106074723Y-99252979D01*
X106074723Y-99252979D02*
X106017580Y-99252979D01*
X106017580Y-99252979D02*
X105941390Y-99272027D01*
X105941390Y-99272027D02*
X105903295Y-99291074D01*
X105903295Y-99291074D02*
X105865200Y-99329169D01*
X105865200Y-99329169D02*
X105846152Y-99386312D01*
X105846152Y-99386312D02*
X105846152Y-99424408D01*
X105846152Y-99424408D02*
X105865200Y-99481550D01*
X105865200Y-99481550D02*
X105884247Y-99500598D01*
X105884247Y-99500598D02*
X106017580Y-99500598D01*
X106017580Y-99500598D02*
X106017580Y-99424408D01*
X105846152Y-99672027D02*
X106246152Y-99672027D01*
X106246152Y-99672027D02*
X106246152Y-99824408D01*
X106246152Y-99824408D02*
X106227104Y-99862503D01*
X106227104Y-99862503D02*
X106208057Y-99881550D01*
X106208057Y-99881550D02*
X106169961Y-99900598D01*
X106169961Y-99900598D02*
X106112819Y-99900598D01*
X106112819Y-99900598D02*
X106074723Y-99881550D01*
X106074723Y-99881550D02*
X106055676Y-99862503D01*
X106055676Y-99862503D02*
X106036628Y-99824408D01*
X106036628Y-99824408D02*
X106036628Y-99672027D01*
X105846152Y-100072027D02*
X106246152Y-100072027D01*
X106246152Y-100338693D02*
X106246152Y-100414884D01*
X106246152Y-100414884D02*
X106227104Y-100452979D01*
X106227104Y-100452979D02*
X106189009Y-100491074D01*
X106189009Y-100491074D02*
X106112819Y-100510122D01*
X106112819Y-100510122D02*
X105979485Y-100510122D01*
X105979485Y-100510122D02*
X105903295Y-100491074D01*
X105903295Y-100491074D02*
X105865200Y-100452979D01*
X105865200Y-100452979D02*
X105846152Y-100414884D01*
X105846152Y-100414884D02*
X105846152Y-100338693D01*
X105846152Y-100338693D02*
X105865200Y-100300598D01*
X105865200Y-100300598D02*
X105903295Y-100262503D01*
X105903295Y-100262503D02*
X105979485Y-100243455D01*
X105979485Y-100243455D02*
X106112819Y-100243455D01*
X106112819Y-100243455D02*
X106189009Y-100262503D01*
X106189009Y-100262503D02*
X106227104Y-100300598D01*
X106227104Y-100300598D02*
X106246152Y-100338693D01*
X106246152Y-100643455D02*
X106246152Y-100891074D01*
X106246152Y-100891074D02*
X106093771Y-100757741D01*
X106093771Y-100757741D02*
X106093771Y-100814884D01*
X106093771Y-100814884D02*
X106074723Y-100852979D01*
X106074723Y-100852979D02*
X106055676Y-100872027D01*
X106055676Y-100872027D02*
X106017580Y-100891074D01*
X106017580Y-100891074D02*
X105922342Y-100891074D01*
X105922342Y-100891074D02*
X105884247Y-100872027D01*
X105884247Y-100872027D02*
X105865200Y-100852979D01*
X105865200Y-100852979D02*
X105846152Y-100814884D01*
X105846152Y-100814884D02*
X105846152Y-100700598D01*
X105846152Y-100700598D02*
X105865200Y-100662503D01*
X105865200Y-100662503D02*
X105884247Y-100643455D01*
X106246152Y-101233931D02*
X106246152Y-101157741D01*
X106246152Y-101157741D02*
X106227104Y-101119645D01*
X106227104Y-101119645D02*
X106208057Y-101100598D01*
X106208057Y-101100598D02*
X106150914Y-101062503D01*
X106150914Y-101062503D02*
X106074723Y-101043455D01*
X106074723Y-101043455D02*
X105922342Y-101043455D01*
X105922342Y-101043455D02*
X105884247Y-101062503D01*
X105884247Y-101062503D02*
X105865200Y-101081550D01*
X105865200Y-101081550D02*
X105846152Y-101119645D01*
X105846152Y-101119645D02*
X105846152Y-101195836D01*
X105846152Y-101195836D02*
X105865200Y-101233931D01*
X105865200Y-101233931D02*
X105884247Y-101252979D01*
X105884247Y-101252979D02*
X105922342Y-101272026D01*
X105922342Y-101272026D02*
X106017580Y-101272026D01*
X106017580Y-101272026D02*
X106055676Y-101252979D01*
X106055676Y-101252979D02*
X106074723Y-101233931D01*
X106074723Y-101233931D02*
X106093771Y-101195836D01*
X106093771Y-101195836D02*
X106093771Y-101119645D01*
X106093771Y-101119645D02*
X106074723Y-101081550D01*
X106074723Y-101081550D02*
X106055676Y-101062503D01*
X106055676Y-101062503D02*
X106017580Y-101043455D01*
X110246152Y-109940027D02*
X109922342Y-109940027D01*
X109922342Y-109940027D02*
X109884247Y-109959074D01*
X109884247Y-109959074D02*
X109865200Y-109978122D01*
X109865200Y-109978122D02*
X109846152Y-110016217D01*
X109846152Y-110016217D02*
X109846152Y-110092408D01*
X109846152Y-110092408D02*
X109865200Y-110130503D01*
X109865200Y-110130503D02*
X109884247Y-110149550D01*
X109884247Y-110149550D02*
X109922342Y-110168598D01*
X109922342Y-110168598D02*
X110246152Y-110168598D01*
X109865200Y-110340027D02*
X109846152Y-110397170D01*
X109846152Y-110397170D02*
X109846152Y-110492408D01*
X109846152Y-110492408D02*
X109865200Y-110530503D01*
X109865200Y-110530503D02*
X109884247Y-110549551D01*
X109884247Y-110549551D02*
X109922342Y-110568598D01*
X109922342Y-110568598D02*
X109960438Y-110568598D01*
X109960438Y-110568598D02*
X109998533Y-110549551D01*
X109998533Y-110549551D02*
X110017580Y-110530503D01*
X110017580Y-110530503D02*
X110036628Y-110492408D01*
X110036628Y-110492408D02*
X110055676Y-110416217D01*
X110055676Y-110416217D02*
X110074723Y-110378122D01*
X110074723Y-110378122D02*
X110093771Y-110359075D01*
X110093771Y-110359075D02*
X110131866Y-110340027D01*
X110131866Y-110340027D02*
X110169961Y-110340027D01*
X110169961Y-110340027D02*
X110208057Y-110359075D01*
X110208057Y-110359075D02*
X110227104Y-110378122D01*
X110227104Y-110378122D02*
X110246152Y-110416217D01*
X110246152Y-110416217D02*
X110246152Y-110511456D01*
X110246152Y-110511456D02*
X110227104Y-110568598D01*
X110055676Y-110873360D02*
X110036628Y-110930503D01*
X110036628Y-110930503D02*
X110017580Y-110949550D01*
X110017580Y-110949550D02*
X109979485Y-110968598D01*
X109979485Y-110968598D02*
X109922342Y-110968598D01*
X109922342Y-110968598D02*
X109884247Y-110949550D01*
X109884247Y-110949550D02*
X109865200Y-110930503D01*
X109865200Y-110930503D02*
X109846152Y-110892408D01*
X109846152Y-110892408D02*
X109846152Y-110740027D01*
X109846152Y-110740027D02*
X110246152Y-110740027D01*
X110246152Y-110740027D02*
X110246152Y-110873360D01*
X110246152Y-110873360D02*
X110227104Y-110911455D01*
X110227104Y-110911455D02*
X110208057Y-110930503D01*
X110208057Y-110930503D02*
X110169961Y-110949550D01*
X110169961Y-110949550D02*
X110131866Y-110949550D01*
X110131866Y-110949550D02*
X110093771Y-110930503D01*
X110093771Y-110930503D02*
X110074723Y-110911455D01*
X110074723Y-110911455D02*
X110055676Y-110873360D01*
X110055676Y-110873360D02*
X110055676Y-110740027D01*
X110246152Y-111101931D02*
X110246152Y-111349550D01*
X110246152Y-111349550D02*
X110093771Y-111216217D01*
X110093771Y-111216217D02*
X110093771Y-111273360D01*
X110093771Y-111273360D02*
X110074723Y-111311455D01*
X110074723Y-111311455D02*
X110055676Y-111330503D01*
X110055676Y-111330503D02*
X110017580Y-111349550D01*
X110017580Y-111349550D02*
X109922342Y-111349550D01*
X109922342Y-111349550D02*
X109884247Y-111330503D01*
X109884247Y-111330503D02*
X109865200Y-111311455D01*
X109865200Y-111311455D02*
X109846152Y-111273360D01*
X109846152Y-111273360D02*
X109846152Y-111159074D01*
X109846152Y-111159074D02*
X109865200Y-111120979D01*
X109865200Y-111120979D02*
X109884247Y-111101931D01*
X109998533Y-111520979D02*
X109998533Y-111825741D01*
X109846152Y-112016217D02*
X110246152Y-112016217D01*
X110246152Y-112016217D02*
X110246152Y-112111455D01*
X110246152Y-112111455D02*
X110227104Y-112168598D01*
X110227104Y-112168598D02*
X110189009Y-112206693D01*
X110189009Y-112206693D02*
X110150914Y-112225740D01*
X110150914Y-112225740D02*
X110074723Y-112244788D01*
X110074723Y-112244788D02*
X110017580Y-112244788D01*
X110017580Y-112244788D02*
X109941390Y-112225740D01*
X109941390Y-112225740D02*
X109903295Y-112206693D01*
X109903295Y-112206693D02*
X109865200Y-112168598D01*
X109865200Y-112168598D02*
X109846152Y-112111455D01*
X109846152Y-112111455D02*
X109846152Y-112016217D01*
X109998533Y-112416217D02*
X109998533Y-112720979D01*
X109846152Y-112568598D02*
X110150914Y-112568598D01*
X106695247Y-87054598D02*
X106676200Y-87035550D01*
X106676200Y-87035550D02*
X106657152Y-86978408D01*
X106657152Y-86978408D02*
X106657152Y-86940312D01*
X106657152Y-86940312D02*
X106676200Y-86883169D01*
X106676200Y-86883169D02*
X106714295Y-86845074D01*
X106714295Y-86845074D02*
X106752390Y-86826027D01*
X106752390Y-86826027D02*
X106828580Y-86806979D01*
X106828580Y-86806979D02*
X106885723Y-86806979D01*
X106885723Y-86806979D02*
X106961914Y-86826027D01*
X106961914Y-86826027D02*
X107000009Y-86845074D01*
X107000009Y-86845074D02*
X107038104Y-86883169D01*
X107038104Y-86883169D02*
X107057152Y-86940312D01*
X107057152Y-86940312D02*
X107057152Y-86978408D01*
X107057152Y-86978408D02*
X107038104Y-87035550D01*
X107038104Y-87035550D02*
X107019057Y-87054598D01*
X106771438Y-87206979D02*
X106771438Y-87397455D01*
X106657152Y-87168884D02*
X107057152Y-87302217D01*
X107057152Y-87302217D02*
X106657152Y-87435550D01*
X106657152Y-87568884D02*
X107057152Y-87568884D01*
X107057152Y-87568884D02*
X106771438Y-87702217D01*
X106771438Y-87702217D02*
X107057152Y-87835550D01*
X107057152Y-87835550D02*
X106657152Y-87835550D01*
X106619057Y-87930789D02*
X106619057Y-88235550D01*
X106695247Y-88559360D02*
X106676200Y-88540312D01*
X106676200Y-88540312D02*
X106657152Y-88483170D01*
X106657152Y-88483170D02*
X106657152Y-88445074D01*
X106657152Y-88445074D02*
X106676200Y-88387931D01*
X106676200Y-88387931D02*
X106714295Y-88349836D01*
X106714295Y-88349836D02*
X106752390Y-88330789D01*
X106752390Y-88330789D02*
X106828580Y-88311741D01*
X106828580Y-88311741D02*
X106885723Y-88311741D01*
X106885723Y-88311741D02*
X106961914Y-88330789D01*
X106961914Y-88330789D02*
X107000009Y-88349836D01*
X107000009Y-88349836D02*
X107038104Y-88387931D01*
X107038104Y-88387931D02*
X107057152Y-88445074D01*
X107057152Y-88445074D02*
X107057152Y-88483170D01*
X107057152Y-88483170D02*
X107038104Y-88540312D01*
X107038104Y-88540312D02*
X107019057Y-88559360D01*
X106657152Y-88730789D02*
X107057152Y-88730789D01*
X107057152Y-88730789D02*
X106657152Y-88959360D01*
X106657152Y-88959360D02*
X107057152Y-88959360D01*
X99609533Y-86826027D02*
X99609533Y-87130789D01*
X99457152Y-86978408D02*
X99761914Y-86978408D01*
X99857152Y-87283169D02*
X99857152Y-87530788D01*
X99857152Y-87530788D02*
X99704771Y-87397455D01*
X99704771Y-87397455D02*
X99704771Y-87454598D01*
X99704771Y-87454598D02*
X99685723Y-87492693D01*
X99685723Y-87492693D02*
X99666676Y-87511741D01*
X99666676Y-87511741D02*
X99628580Y-87530788D01*
X99628580Y-87530788D02*
X99533342Y-87530788D01*
X99533342Y-87530788D02*
X99495247Y-87511741D01*
X99495247Y-87511741D02*
X99476200Y-87492693D01*
X99476200Y-87492693D02*
X99457152Y-87454598D01*
X99457152Y-87454598D02*
X99457152Y-87340312D01*
X99457152Y-87340312D02*
X99476200Y-87302217D01*
X99476200Y-87302217D02*
X99495247Y-87283169D01*
X99495247Y-87702217D02*
X99476200Y-87721264D01*
X99476200Y-87721264D02*
X99457152Y-87702217D01*
X99457152Y-87702217D02*
X99476200Y-87683169D01*
X99476200Y-87683169D02*
X99495247Y-87702217D01*
X99495247Y-87702217D02*
X99457152Y-87702217D01*
X99857152Y-87854597D02*
X99857152Y-88102216D01*
X99857152Y-88102216D02*
X99704771Y-87968883D01*
X99704771Y-87968883D02*
X99704771Y-88026026D01*
X99704771Y-88026026D02*
X99685723Y-88064121D01*
X99685723Y-88064121D02*
X99666676Y-88083169D01*
X99666676Y-88083169D02*
X99628580Y-88102216D01*
X99628580Y-88102216D02*
X99533342Y-88102216D01*
X99533342Y-88102216D02*
X99495247Y-88083169D01*
X99495247Y-88083169D02*
X99476200Y-88064121D01*
X99476200Y-88064121D02*
X99457152Y-88026026D01*
X99457152Y-88026026D02*
X99457152Y-87911740D01*
X99457152Y-87911740D02*
X99476200Y-87873645D01*
X99476200Y-87873645D02*
X99495247Y-87854597D01*
X99857152Y-88216502D02*
X99457152Y-88349835D01*
X99457152Y-88349835D02*
X99857152Y-88483168D01*
X107827104Y-99481550D02*
X107846152Y-99443455D01*
X107846152Y-99443455D02*
X107846152Y-99386312D01*
X107846152Y-99386312D02*
X107827104Y-99329169D01*
X107827104Y-99329169D02*
X107789009Y-99291074D01*
X107789009Y-99291074D02*
X107750914Y-99272027D01*
X107750914Y-99272027D02*
X107674723Y-99252979D01*
X107674723Y-99252979D02*
X107617580Y-99252979D01*
X107617580Y-99252979D02*
X107541390Y-99272027D01*
X107541390Y-99272027D02*
X107503295Y-99291074D01*
X107503295Y-99291074D02*
X107465200Y-99329169D01*
X107465200Y-99329169D02*
X107446152Y-99386312D01*
X107446152Y-99386312D02*
X107446152Y-99424408D01*
X107446152Y-99424408D02*
X107465200Y-99481550D01*
X107465200Y-99481550D02*
X107484247Y-99500598D01*
X107484247Y-99500598D02*
X107617580Y-99500598D01*
X107617580Y-99500598D02*
X107617580Y-99424408D01*
X107446152Y-99672027D02*
X107846152Y-99672027D01*
X107846152Y-99672027D02*
X107846152Y-99824408D01*
X107846152Y-99824408D02*
X107827104Y-99862503D01*
X107827104Y-99862503D02*
X107808057Y-99881550D01*
X107808057Y-99881550D02*
X107769961Y-99900598D01*
X107769961Y-99900598D02*
X107712819Y-99900598D01*
X107712819Y-99900598D02*
X107674723Y-99881550D01*
X107674723Y-99881550D02*
X107655676Y-99862503D01*
X107655676Y-99862503D02*
X107636628Y-99824408D01*
X107636628Y-99824408D02*
X107636628Y-99672027D01*
X107446152Y-100072027D02*
X107846152Y-100072027D01*
X107846152Y-100338693D02*
X107846152Y-100414884D01*
X107846152Y-100414884D02*
X107827104Y-100452979D01*
X107827104Y-100452979D02*
X107789009Y-100491074D01*
X107789009Y-100491074D02*
X107712819Y-100510122D01*
X107712819Y-100510122D02*
X107579485Y-100510122D01*
X107579485Y-100510122D02*
X107503295Y-100491074D01*
X107503295Y-100491074D02*
X107465200Y-100452979D01*
X107465200Y-100452979D02*
X107446152Y-100414884D01*
X107446152Y-100414884D02*
X107446152Y-100338693D01*
X107446152Y-100338693D02*
X107465200Y-100300598D01*
X107465200Y-100300598D02*
X107503295Y-100262503D01*
X107503295Y-100262503D02*
X107579485Y-100243455D01*
X107579485Y-100243455D02*
X107712819Y-100243455D01*
X107712819Y-100243455D02*
X107789009Y-100262503D01*
X107789009Y-100262503D02*
X107827104Y-100300598D01*
X107827104Y-100300598D02*
X107846152Y-100338693D01*
X107846152Y-100643455D02*
X107846152Y-100891074D01*
X107846152Y-100891074D02*
X107693771Y-100757741D01*
X107693771Y-100757741D02*
X107693771Y-100814884D01*
X107693771Y-100814884D02*
X107674723Y-100852979D01*
X107674723Y-100852979D02*
X107655676Y-100872027D01*
X107655676Y-100872027D02*
X107617580Y-100891074D01*
X107617580Y-100891074D02*
X107522342Y-100891074D01*
X107522342Y-100891074D02*
X107484247Y-100872027D01*
X107484247Y-100872027D02*
X107465200Y-100852979D01*
X107465200Y-100852979D02*
X107446152Y-100814884D01*
X107446152Y-100814884D02*
X107446152Y-100700598D01*
X107446152Y-100700598D02*
X107465200Y-100662503D01*
X107465200Y-100662503D02*
X107484247Y-100643455D01*
X107712819Y-101233931D02*
X107446152Y-101233931D01*
X107865200Y-101138693D02*
X107579485Y-101043455D01*
X107579485Y-101043455D02*
X107579485Y-101291074D01*
X109471152Y-109940027D02*
X109147342Y-109940027D01*
X109147342Y-109940027D02*
X109109247Y-109959074D01*
X109109247Y-109959074D02*
X109090200Y-109978122D01*
X109090200Y-109978122D02*
X109071152Y-110016217D01*
X109071152Y-110016217D02*
X109071152Y-110092408D01*
X109071152Y-110092408D02*
X109090200Y-110130503D01*
X109090200Y-110130503D02*
X109109247Y-110149550D01*
X109109247Y-110149550D02*
X109147342Y-110168598D01*
X109147342Y-110168598D02*
X109471152Y-110168598D01*
X109090200Y-110340027D02*
X109071152Y-110397170D01*
X109071152Y-110397170D02*
X109071152Y-110492408D01*
X109071152Y-110492408D02*
X109090200Y-110530503D01*
X109090200Y-110530503D02*
X109109247Y-110549551D01*
X109109247Y-110549551D02*
X109147342Y-110568598D01*
X109147342Y-110568598D02*
X109185438Y-110568598D01*
X109185438Y-110568598D02*
X109223533Y-110549551D01*
X109223533Y-110549551D02*
X109242580Y-110530503D01*
X109242580Y-110530503D02*
X109261628Y-110492408D01*
X109261628Y-110492408D02*
X109280676Y-110416217D01*
X109280676Y-110416217D02*
X109299723Y-110378122D01*
X109299723Y-110378122D02*
X109318771Y-110359075D01*
X109318771Y-110359075D02*
X109356866Y-110340027D01*
X109356866Y-110340027D02*
X109394961Y-110340027D01*
X109394961Y-110340027D02*
X109433057Y-110359075D01*
X109433057Y-110359075D02*
X109452104Y-110378122D01*
X109452104Y-110378122D02*
X109471152Y-110416217D01*
X109471152Y-110416217D02*
X109471152Y-110511456D01*
X109471152Y-110511456D02*
X109452104Y-110568598D01*
X109280676Y-110873360D02*
X109261628Y-110930503D01*
X109261628Y-110930503D02*
X109242580Y-110949550D01*
X109242580Y-110949550D02*
X109204485Y-110968598D01*
X109204485Y-110968598D02*
X109147342Y-110968598D01*
X109147342Y-110968598D02*
X109109247Y-110949550D01*
X109109247Y-110949550D02*
X109090200Y-110930503D01*
X109090200Y-110930503D02*
X109071152Y-110892408D01*
X109071152Y-110892408D02*
X109071152Y-110740027D01*
X109071152Y-110740027D02*
X109471152Y-110740027D01*
X109471152Y-110740027D02*
X109471152Y-110873360D01*
X109471152Y-110873360D02*
X109452104Y-110911455D01*
X109452104Y-110911455D02*
X109433057Y-110930503D01*
X109433057Y-110930503D02*
X109394961Y-110949550D01*
X109394961Y-110949550D02*
X109356866Y-110949550D01*
X109356866Y-110949550D02*
X109318771Y-110930503D01*
X109318771Y-110930503D02*
X109299723Y-110911455D01*
X109299723Y-110911455D02*
X109280676Y-110873360D01*
X109280676Y-110873360D02*
X109280676Y-110740027D01*
X109471152Y-111101931D02*
X109471152Y-111349550D01*
X109471152Y-111349550D02*
X109318771Y-111216217D01*
X109318771Y-111216217D02*
X109318771Y-111273360D01*
X109318771Y-111273360D02*
X109299723Y-111311455D01*
X109299723Y-111311455D02*
X109280676Y-111330503D01*
X109280676Y-111330503D02*
X109242580Y-111349550D01*
X109242580Y-111349550D02*
X109147342Y-111349550D01*
X109147342Y-111349550D02*
X109109247Y-111330503D01*
X109109247Y-111330503D02*
X109090200Y-111311455D01*
X109090200Y-111311455D02*
X109071152Y-111273360D01*
X109071152Y-111273360D02*
X109071152Y-111159074D01*
X109071152Y-111159074D02*
X109090200Y-111120979D01*
X109090200Y-111120979D02*
X109109247Y-111101931D01*
X109033057Y-111425741D02*
X109033057Y-111730502D01*
X109071152Y-111825741D02*
X109471152Y-111825741D01*
X109471152Y-111825741D02*
X109471152Y-111920979D01*
X109471152Y-111920979D02*
X109452104Y-111978122D01*
X109452104Y-111978122D02*
X109414009Y-112016217D01*
X109414009Y-112016217D02*
X109375914Y-112035264D01*
X109375914Y-112035264D02*
X109299723Y-112054312D01*
X109299723Y-112054312D02*
X109242580Y-112054312D01*
X109242580Y-112054312D02*
X109166390Y-112035264D01*
X109166390Y-112035264D02*
X109128295Y-112016217D01*
X109128295Y-112016217D02*
X109090200Y-111978122D01*
X109090200Y-111978122D02*
X109071152Y-111920979D01*
X109071152Y-111920979D02*
X109071152Y-111825741D01*
X109223533Y-112225741D02*
X109223533Y-112530503D01*
X100638104Y-87035550D02*
X100657152Y-86997455D01*
X100657152Y-86997455D02*
X100657152Y-86940312D01*
X100657152Y-86940312D02*
X100638104Y-86883169D01*
X100638104Y-86883169D02*
X100600009Y-86845074D01*
X100600009Y-86845074D02*
X100561914Y-86826027D01*
X100561914Y-86826027D02*
X100485723Y-86806979D01*
X100485723Y-86806979D02*
X100428580Y-86806979D01*
X100428580Y-86806979D02*
X100352390Y-86826027D01*
X100352390Y-86826027D02*
X100314295Y-86845074D01*
X100314295Y-86845074D02*
X100276200Y-86883169D01*
X100276200Y-86883169D02*
X100257152Y-86940312D01*
X100257152Y-86940312D02*
X100257152Y-86978408D01*
X100257152Y-86978408D02*
X100276200Y-87035550D01*
X100276200Y-87035550D02*
X100295247Y-87054598D01*
X100295247Y-87054598D02*
X100428580Y-87054598D01*
X100428580Y-87054598D02*
X100428580Y-86978408D01*
X100257152Y-87226027D02*
X100657152Y-87226027D01*
X100657152Y-87226027D02*
X100257152Y-87454598D01*
X100257152Y-87454598D02*
X100657152Y-87454598D01*
X100257152Y-87645075D02*
X100657152Y-87645075D01*
X100657152Y-87645075D02*
X100657152Y-87740313D01*
X100657152Y-87740313D02*
X100638104Y-87797456D01*
X100638104Y-87797456D02*
X100600009Y-87835551D01*
X100600009Y-87835551D02*
X100561914Y-87854598D01*
X100561914Y-87854598D02*
X100485723Y-87873646D01*
X100485723Y-87873646D02*
X100428580Y-87873646D01*
X100428580Y-87873646D02*
X100352390Y-87854598D01*
X100352390Y-87854598D02*
X100314295Y-87835551D01*
X100314295Y-87835551D02*
X100276200Y-87797456D01*
X100276200Y-87797456D02*
X100257152Y-87740313D01*
X100257152Y-87740313D02*
X100257152Y-87645075D01*
X109095247Y-87054598D02*
X109076200Y-87035550D01*
X109076200Y-87035550D02*
X109057152Y-86978408D01*
X109057152Y-86978408D02*
X109057152Y-86940312D01*
X109057152Y-86940312D02*
X109076200Y-86883169D01*
X109076200Y-86883169D02*
X109114295Y-86845074D01*
X109114295Y-86845074D02*
X109152390Y-86826027D01*
X109152390Y-86826027D02*
X109228580Y-86806979D01*
X109228580Y-86806979D02*
X109285723Y-86806979D01*
X109285723Y-86806979D02*
X109361914Y-86826027D01*
X109361914Y-86826027D02*
X109400009Y-86845074D01*
X109400009Y-86845074D02*
X109438104Y-86883169D01*
X109438104Y-86883169D02*
X109457152Y-86940312D01*
X109457152Y-86940312D02*
X109457152Y-86978408D01*
X109457152Y-86978408D02*
X109438104Y-87035550D01*
X109438104Y-87035550D02*
X109419057Y-87054598D01*
X109171438Y-87206979D02*
X109171438Y-87397455D01*
X109057152Y-87168884D02*
X109457152Y-87302217D01*
X109457152Y-87302217D02*
X109057152Y-87435550D01*
X109057152Y-87568884D02*
X109457152Y-87568884D01*
X109457152Y-87568884D02*
X109171438Y-87702217D01*
X109171438Y-87702217D02*
X109457152Y-87835550D01*
X109457152Y-87835550D02*
X109057152Y-87835550D01*
X109057152Y-88235550D02*
X109057152Y-88006979D01*
X109057152Y-88121265D02*
X109457152Y-88121265D01*
X109457152Y-88121265D02*
X109400009Y-88083169D01*
X109400009Y-88083169D02*
X109361914Y-88045074D01*
X109361914Y-88045074D02*
X109342866Y-88006979D01*
X109019057Y-88311741D02*
X109019057Y-88616502D01*
X109057152Y-88711741D02*
X109457152Y-88711741D01*
X109457152Y-88711741D02*
X109457152Y-88806979D01*
X109457152Y-88806979D02*
X109438104Y-88864122D01*
X109438104Y-88864122D02*
X109400009Y-88902217D01*
X109400009Y-88902217D02*
X109361914Y-88921264D01*
X109361914Y-88921264D02*
X109285723Y-88940312D01*
X109285723Y-88940312D02*
X109228580Y-88940312D01*
X109228580Y-88940312D02*
X109152390Y-88921264D01*
X109152390Y-88921264D02*
X109114295Y-88902217D01*
X109114295Y-88902217D02*
X109076200Y-88864122D01*
X109076200Y-88864122D02*
X109057152Y-88806979D01*
X109057152Y-88806979D02*
X109057152Y-88711741D01*
X109057152Y-89111741D02*
X109457152Y-89111741D01*
X109457152Y-89111741D02*
X109057152Y-89340312D01*
X109057152Y-89340312D02*
X109457152Y-89340312D01*
X109057152Y-89740312D02*
X109057152Y-89511741D01*
X109057152Y-89626027D02*
X109457152Y-89626027D01*
X109457152Y-89626027D02*
X109400009Y-89587931D01*
X109400009Y-89587931D02*
X109361914Y-89549836D01*
X109361914Y-89549836D02*
X109342866Y-89511741D01*
X103495247Y-87054598D02*
X103476200Y-87035550D01*
X103476200Y-87035550D02*
X103457152Y-86978408D01*
X103457152Y-86978408D02*
X103457152Y-86940312D01*
X103457152Y-86940312D02*
X103476200Y-86883169D01*
X103476200Y-86883169D02*
X103514295Y-86845074D01*
X103514295Y-86845074D02*
X103552390Y-86826027D01*
X103552390Y-86826027D02*
X103628580Y-86806979D01*
X103628580Y-86806979D02*
X103685723Y-86806979D01*
X103685723Y-86806979D02*
X103761914Y-86826027D01*
X103761914Y-86826027D02*
X103800009Y-86845074D01*
X103800009Y-86845074D02*
X103838104Y-86883169D01*
X103838104Y-86883169D02*
X103857152Y-86940312D01*
X103857152Y-86940312D02*
X103857152Y-86978408D01*
X103857152Y-86978408D02*
X103838104Y-87035550D01*
X103838104Y-87035550D02*
X103819057Y-87054598D01*
X103571438Y-87206979D02*
X103571438Y-87397455D01*
X103457152Y-87168884D02*
X103857152Y-87302217D01*
X103857152Y-87302217D02*
X103457152Y-87435550D01*
X103457152Y-87568884D02*
X103857152Y-87568884D01*
X103857152Y-87568884D02*
X103571438Y-87702217D01*
X103571438Y-87702217D02*
X103857152Y-87835550D01*
X103857152Y-87835550D02*
X103457152Y-87835550D01*
X103457152Y-88235550D02*
X103457152Y-88006979D01*
X103457152Y-88121265D02*
X103857152Y-88121265D01*
X103857152Y-88121265D02*
X103800009Y-88083169D01*
X103800009Y-88083169D02*
X103761914Y-88045074D01*
X103761914Y-88045074D02*
X103742866Y-88006979D01*
X103419057Y-88311741D02*
X103419057Y-88616502D01*
X103457152Y-88711741D02*
X103857152Y-88711741D01*
X103857152Y-88711741D02*
X103857152Y-88806979D01*
X103857152Y-88806979D02*
X103838104Y-88864122D01*
X103838104Y-88864122D02*
X103800009Y-88902217D01*
X103800009Y-88902217D02*
X103761914Y-88921264D01*
X103761914Y-88921264D02*
X103685723Y-88940312D01*
X103685723Y-88940312D02*
X103628580Y-88940312D01*
X103628580Y-88940312D02*
X103552390Y-88921264D01*
X103552390Y-88921264D02*
X103514295Y-88902217D01*
X103514295Y-88902217D02*
X103476200Y-88864122D01*
X103476200Y-88864122D02*
X103457152Y-88806979D01*
X103457152Y-88806979D02*
X103457152Y-88711741D01*
X103457152Y-89111741D02*
X103857152Y-89111741D01*
X103857152Y-89111741D02*
X103857152Y-89264122D01*
X103857152Y-89264122D02*
X103838104Y-89302217D01*
X103838104Y-89302217D02*
X103819057Y-89321264D01*
X103819057Y-89321264D02*
X103780961Y-89340312D01*
X103780961Y-89340312D02*
X103723819Y-89340312D01*
X103723819Y-89340312D02*
X103685723Y-89321264D01*
X103685723Y-89321264D02*
X103666676Y-89302217D01*
X103666676Y-89302217D02*
X103647628Y-89264122D01*
X103647628Y-89264122D02*
X103647628Y-89111741D01*
X103819057Y-89492693D02*
X103838104Y-89511741D01*
X103838104Y-89511741D02*
X103857152Y-89549836D01*
X103857152Y-89549836D02*
X103857152Y-89645074D01*
X103857152Y-89645074D02*
X103838104Y-89683169D01*
X103838104Y-89683169D02*
X103819057Y-89702217D01*
X103819057Y-89702217D02*
X103780961Y-89721264D01*
X103780961Y-89721264D02*
X103742866Y-89721264D01*
X103742866Y-89721264D02*
X103685723Y-89702217D01*
X103685723Y-89702217D02*
X103457152Y-89473645D01*
X103457152Y-89473645D02*
X103457152Y-89721264D01*
X104409533Y-111591027D02*
X104409533Y-111895789D01*
X104257152Y-111743408D02*
X104561914Y-111743408D01*
X104657152Y-112276741D02*
X104657152Y-112086265D01*
X104657152Y-112086265D02*
X104466676Y-112067217D01*
X104466676Y-112067217D02*
X104485723Y-112086265D01*
X104485723Y-112086265D02*
X104504771Y-112124360D01*
X104504771Y-112124360D02*
X104504771Y-112219598D01*
X104504771Y-112219598D02*
X104485723Y-112257693D01*
X104485723Y-112257693D02*
X104466676Y-112276741D01*
X104466676Y-112276741D02*
X104428580Y-112295788D01*
X104428580Y-112295788D02*
X104333342Y-112295788D01*
X104333342Y-112295788D02*
X104295247Y-112276741D01*
X104295247Y-112276741D02*
X104276200Y-112257693D01*
X104276200Y-112257693D02*
X104257152Y-112219598D01*
X104257152Y-112219598D02*
X104257152Y-112124360D01*
X104257152Y-112124360D02*
X104276200Y-112086265D01*
X104276200Y-112086265D02*
X104295247Y-112067217D01*
X104657152Y-112410074D02*
X104257152Y-112543407D01*
X104257152Y-112543407D02*
X104657152Y-112676740D01*
X107846152Y-109940027D02*
X107522342Y-109940027D01*
X107522342Y-109940027D02*
X107484247Y-109959074D01*
X107484247Y-109959074D02*
X107465200Y-109978122D01*
X107465200Y-109978122D02*
X107446152Y-110016217D01*
X107446152Y-110016217D02*
X107446152Y-110092408D01*
X107446152Y-110092408D02*
X107465200Y-110130503D01*
X107465200Y-110130503D02*
X107484247Y-110149550D01*
X107484247Y-110149550D02*
X107522342Y-110168598D01*
X107522342Y-110168598D02*
X107846152Y-110168598D01*
X107465200Y-110340027D02*
X107446152Y-110397170D01*
X107446152Y-110397170D02*
X107446152Y-110492408D01*
X107446152Y-110492408D02*
X107465200Y-110530503D01*
X107465200Y-110530503D02*
X107484247Y-110549551D01*
X107484247Y-110549551D02*
X107522342Y-110568598D01*
X107522342Y-110568598D02*
X107560438Y-110568598D01*
X107560438Y-110568598D02*
X107598533Y-110549551D01*
X107598533Y-110549551D02*
X107617580Y-110530503D01*
X107617580Y-110530503D02*
X107636628Y-110492408D01*
X107636628Y-110492408D02*
X107655676Y-110416217D01*
X107655676Y-110416217D02*
X107674723Y-110378122D01*
X107674723Y-110378122D02*
X107693771Y-110359075D01*
X107693771Y-110359075D02*
X107731866Y-110340027D01*
X107731866Y-110340027D02*
X107769961Y-110340027D01*
X107769961Y-110340027D02*
X107808057Y-110359075D01*
X107808057Y-110359075D02*
X107827104Y-110378122D01*
X107827104Y-110378122D02*
X107846152Y-110416217D01*
X107846152Y-110416217D02*
X107846152Y-110511456D01*
X107846152Y-110511456D02*
X107827104Y-110568598D01*
X107655676Y-110873360D02*
X107636628Y-110930503D01*
X107636628Y-110930503D02*
X107617580Y-110949550D01*
X107617580Y-110949550D02*
X107579485Y-110968598D01*
X107579485Y-110968598D02*
X107522342Y-110968598D01*
X107522342Y-110968598D02*
X107484247Y-110949550D01*
X107484247Y-110949550D02*
X107465200Y-110930503D01*
X107465200Y-110930503D02*
X107446152Y-110892408D01*
X107446152Y-110892408D02*
X107446152Y-110740027D01*
X107446152Y-110740027D02*
X107846152Y-110740027D01*
X107846152Y-110740027D02*
X107846152Y-110873360D01*
X107846152Y-110873360D02*
X107827104Y-110911455D01*
X107827104Y-110911455D02*
X107808057Y-110930503D01*
X107808057Y-110930503D02*
X107769961Y-110949550D01*
X107769961Y-110949550D02*
X107731866Y-110949550D01*
X107731866Y-110949550D02*
X107693771Y-110930503D01*
X107693771Y-110930503D02*
X107674723Y-110911455D01*
X107674723Y-110911455D02*
X107655676Y-110873360D01*
X107655676Y-110873360D02*
X107655676Y-110740027D01*
X107712819Y-111311455D02*
X107446152Y-111311455D01*
X107865200Y-111216217D02*
X107579485Y-111120979D01*
X107579485Y-111120979D02*
X107579485Y-111368598D01*
X107598533Y-111520979D02*
X107598533Y-111825741D01*
X107446152Y-112016217D02*
X107846152Y-112016217D01*
X107846152Y-112016217D02*
X107846152Y-112111455D01*
X107846152Y-112111455D02*
X107827104Y-112168598D01*
X107827104Y-112168598D02*
X107789009Y-112206693D01*
X107789009Y-112206693D02*
X107750914Y-112225740D01*
X107750914Y-112225740D02*
X107674723Y-112244788D01*
X107674723Y-112244788D02*
X107617580Y-112244788D01*
X107617580Y-112244788D02*
X107541390Y-112225740D01*
X107541390Y-112225740D02*
X107503295Y-112206693D01*
X107503295Y-112206693D02*
X107465200Y-112168598D01*
X107465200Y-112168598D02*
X107446152Y-112111455D01*
X107446152Y-112111455D02*
X107446152Y-112016217D01*
X107598533Y-112416217D02*
X107598533Y-112720979D01*
X107446152Y-112568598D02*
X107750914Y-112568598D01*
X105895247Y-87054598D02*
X105876200Y-87035550D01*
X105876200Y-87035550D02*
X105857152Y-86978408D01*
X105857152Y-86978408D02*
X105857152Y-86940312D01*
X105857152Y-86940312D02*
X105876200Y-86883169D01*
X105876200Y-86883169D02*
X105914295Y-86845074D01*
X105914295Y-86845074D02*
X105952390Y-86826027D01*
X105952390Y-86826027D02*
X106028580Y-86806979D01*
X106028580Y-86806979D02*
X106085723Y-86806979D01*
X106085723Y-86806979D02*
X106161914Y-86826027D01*
X106161914Y-86826027D02*
X106200009Y-86845074D01*
X106200009Y-86845074D02*
X106238104Y-86883169D01*
X106238104Y-86883169D02*
X106257152Y-86940312D01*
X106257152Y-86940312D02*
X106257152Y-86978408D01*
X106257152Y-86978408D02*
X106238104Y-87035550D01*
X106238104Y-87035550D02*
X106219057Y-87054598D01*
X105971438Y-87206979D02*
X105971438Y-87397455D01*
X105857152Y-87168884D02*
X106257152Y-87302217D01*
X106257152Y-87302217D02*
X105857152Y-87435550D01*
X105857152Y-87568884D02*
X106257152Y-87568884D01*
X106257152Y-87568884D02*
X105971438Y-87702217D01*
X105971438Y-87702217D02*
X106257152Y-87835550D01*
X106257152Y-87835550D02*
X105857152Y-87835550D01*
X105819057Y-87930789D02*
X105819057Y-88235550D01*
X105895247Y-88559360D02*
X105876200Y-88540312D01*
X105876200Y-88540312D02*
X105857152Y-88483170D01*
X105857152Y-88483170D02*
X105857152Y-88445074D01*
X105857152Y-88445074D02*
X105876200Y-88387931D01*
X105876200Y-88387931D02*
X105914295Y-88349836D01*
X105914295Y-88349836D02*
X105952390Y-88330789D01*
X105952390Y-88330789D02*
X106028580Y-88311741D01*
X106028580Y-88311741D02*
X106085723Y-88311741D01*
X106085723Y-88311741D02*
X106161914Y-88330789D01*
X106161914Y-88330789D02*
X106200009Y-88349836D01*
X106200009Y-88349836D02*
X106238104Y-88387931D01*
X106238104Y-88387931D02*
X106257152Y-88445074D01*
X106257152Y-88445074D02*
X106257152Y-88483170D01*
X106257152Y-88483170D02*
X106238104Y-88540312D01*
X106238104Y-88540312D02*
X106219057Y-88559360D01*
X105857152Y-88730789D02*
X106257152Y-88730789D01*
X106257152Y-88730789D02*
X106257152Y-88883170D01*
X106257152Y-88883170D02*
X106238104Y-88921265D01*
X106238104Y-88921265D02*
X106219057Y-88940312D01*
X106219057Y-88940312D02*
X106180961Y-88959360D01*
X106180961Y-88959360D02*
X106123819Y-88959360D01*
X106123819Y-88959360D02*
X106085723Y-88940312D01*
X106085723Y-88940312D02*
X106066676Y-88921265D01*
X106066676Y-88921265D02*
X106047628Y-88883170D01*
X106047628Y-88883170D02*
X106047628Y-88730789D01*
X108627104Y-99481550D02*
X108646152Y-99443455D01*
X108646152Y-99443455D02*
X108646152Y-99386312D01*
X108646152Y-99386312D02*
X108627104Y-99329169D01*
X108627104Y-99329169D02*
X108589009Y-99291074D01*
X108589009Y-99291074D02*
X108550914Y-99272027D01*
X108550914Y-99272027D02*
X108474723Y-99252979D01*
X108474723Y-99252979D02*
X108417580Y-99252979D01*
X108417580Y-99252979D02*
X108341390Y-99272027D01*
X108341390Y-99272027D02*
X108303295Y-99291074D01*
X108303295Y-99291074D02*
X108265200Y-99329169D01*
X108265200Y-99329169D02*
X108246152Y-99386312D01*
X108246152Y-99386312D02*
X108246152Y-99424408D01*
X108246152Y-99424408D02*
X108265200Y-99481550D01*
X108265200Y-99481550D02*
X108284247Y-99500598D01*
X108284247Y-99500598D02*
X108417580Y-99500598D01*
X108417580Y-99500598D02*
X108417580Y-99424408D01*
X108246152Y-99672027D02*
X108646152Y-99672027D01*
X108646152Y-99672027D02*
X108646152Y-99824408D01*
X108646152Y-99824408D02*
X108627104Y-99862503D01*
X108627104Y-99862503D02*
X108608057Y-99881550D01*
X108608057Y-99881550D02*
X108569961Y-99900598D01*
X108569961Y-99900598D02*
X108512819Y-99900598D01*
X108512819Y-99900598D02*
X108474723Y-99881550D01*
X108474723Y-99881550D02*
X108455676Y-99862503D01*
X108455676Y-99862503D02*
X108436628Y-99824408D01*
X108436628Y-99824408D02*
X108436628Y-99672027D01*
X108246152Y-100072027D02*
X108646152Y-100072027D01*
X108646152Y-100338693D02*
X108646152Y-100414884D01*
X108646152Y-100414884D02*
X108627104Y-100452979D01*
X108627104Y-100452979D02*
X108589009Y-100491074D01*
X108589009Y-100491074D02*
X108512819Y-100510122D01*
X108512819Y-100510122D02*
X108379485Y-100510122D01*
X108379485Y-100510122D02*
X108303295Y-100491074D01*
X108303295Y-100491074D02*
X108265200Y-100452979D01*
X108265200Y-100452979D02*
X108246152Y-100414884D01*
X108246152Y-100414884D02*
X108246152Y-100338693D01*
X108246152Y-100338693D02*
X108265200Y-100300598D01*
X108265200Y-100300598D02*
X108303295Y-100262503D01*
X108303295Y-100262503D02*
X108379485Y-100243455D01*
X108379485Y-100243455D02*
X108512819Y-100243455D01*
X108512819Y-100243455D02*
X108589009Y-100262503D01*
X108589009Y-100262503D02*
X108627104Y-100300598D01*
X108627104Y-100300598D02*
X108646152Y-100338693D01*
X108646152Y-100643455D02*
X108646152Y-100891074D01*
X108646152Y-100891074D02*
X108493771Y-100757741D01*
X108493771Y-100757741D02*
X108493771Y-100814884D01*
X108493771Y-100814884D02*
X108474723Y-100852979D01*
X108474723Y-100852979D02*
X108455676Y-100872027D01*
X108455676Y-100872027D02*
X108417580Y-100891074D01*
X108417580Y-100891074D02*
X108322342Y-100891074D01*
X108322342Y-100891074D02*
X108284247Y-100872027D01*
X108284247Y-100872027D02*
X108265200Y-100852979D01*
X108265200Y-100852979D02*
X108246152Y-100814884D01*
X108246152Y-100814884D02*
X108246152Y-100700598D01*
X108246152Y-100700598D02*
X108265200Y-100662503D01*
X108265200Y-100662503D02*
X108284247Y-100643455D01*
X108646152Y-101024407D02*
X108646152Y-101272026D01*
X108646152Y-101272026D02*
X108493771Y-101138693D01*
X108493771Y-101138693D02*
X108493771Y-101195836D01*
X108493771Y-101195836D02*
X108474723Y-101233931D01*
X108474723Y-101233931D02*
X108455676Y-101252979D01*
X108455676Y-101252979D02*
X108417580Y-101272026D01*
X108417580Y-101272026D02*
X108322342Y-101272026D01*
X108322342Y-101272026D02*
X108284247Y-101252979D01*
X108284247Y-101252979D02*
X108265200Y-101233931D01*
X108265200Y-101233931D02*
X108246152Y-101195836D01*
X108246152Y-101195836D02*
X108246152Y-101081550D01*
X108246152Y-101081550D02*
X108265200Y-101043455D01*
X108265200Y-101043455D02*
X108284247Y-101024407D01*
X103038104Y-87035550D02*
X103057152Y-86997455D01*
X103057152Y-86997455D02*
X103057152Y-86940312D01*
X103057152Y-86940312D02*
X103038104Y-86883169D01*
X103038104Y-86883169D02*
X103000009Y-86845074D01*
X103000009Y-86845074D02*
X102961914Y-86826027D01*
X102961914Y-86826027D02*
X102885723Y-86806979D01*
X102885723Y-86806979D02*
X102828580Y-86806979D01*
X102828580Y-86806979D02*
X102752390Y-86826027D01*
X102752390Y-86826027D02*
X102714295Y-86845074D01*
X102714295Y-86845074D02*
X102676200Y-86883169D01*
X102676200Y-86883169D02*
X102657152Y-86940312D01*
X102657152Y-86940312D02*
X102657152Y-86978408D01*
X102657152Y-86978408D02*
X102676200Y-87035550D01*
X102676200Y-87035550D02*
X102695247Y-87054598D01*
X102695247Y-87054598D02*
X102828580Y-87054598D01*
X102828580Y-87054598D02*
X102828580Y-86978408D01*
X102657152Y-87226027D02*
X103057152Y-87226027D01*
X103057152Y-87226027D02*
X102657152Y-87454598D01*
X102657152Y-87454598D02*
X103057152Y-87454598D01*
X102657152Y-87645075D02*
X103057152Y-87645075D01*
X103057152Y-87645075D02*
X103057152Y-87740313D01*
X103057152Y-87740313D02*
X103038104Y-87797456D01*
X103038104Y-87797456D02*
X103000009Y-87835551D01*
X103000009Y-87835551D02*
X102961914Y-87854598D01*
X102961914Y-87854598D02*
X102885723Y-87873646D01*
X102885723Y-87873646D02*
X102828580Y-87873646D01*
X102828580Y-87873646D02*
X102752390Y-87854598D01*
X102752390Y-87854598D02*
X102714295Y-87835551D01*
X102714295Y-87835551D02*
X102676200Y-87797456D01*
X102676200Y-87797456D02*
X102657152Y-87740313D01*
X102657152Y-87740313D02*
X102657152Y-87645075D01*
X99827104Y-99481550D02*
X99846152Y-99443455D01*
X99846152Y-99443455D02*
X99846152Y-99386312D01*
X99846152Y-99386312D02*
X99827104Y-99329169D01*
X99827104Y-99329169D02*
X99789009Y-99291074D01*
X99789009Y-99291074D02*
X99750914Y-99272027D01*
X99750914Y-99272027D02*
X99674723Y-99252979D01*
X99674723Y-99252979D02*
X99617580Y-99252979D01*
X99617580Y-99252979D02*
X99541390Y-99272027D01*
X99541390Y-99272027D02*
X99503295Y-99291074D01*
X99503295Y-99291074D02*
X99465200Y-99329169D01*
X99465200Y-99329169D02*
X99446152Y-99386312D01*
X99446152Y-99386312D02*
X99446152Y-99424408D01*
X99446152Y-99424408D02*
X99465200Y-99481550D01*
X99465200Y-99481550D02*
X99484247Y-99500598D01*
X99484247Y-99500598D02*
X99617580Y-99500598D01*
X99617580Y-99500598D02*
X99617580Y-99424408D01*
X99446152Y-99672027D02*
X99846152Y-99672027D01*
X99846152Y-99672027D02*
X99846152Y-99824408D01*
X99846152Y-99824408D02*
X99827104Y-99862503D01*
X99827104Y-99862503D02*
X99808057Y-99881550D01*
X99808057Y-99881550D02*
X99769961Y-99900598D01*
X99769961Y-99900598D02*
X99712819Y-99900598D01*
X99712819Y-99900598D02*
X99674723Y-99881550D01*
X99674723Y-99881550D02*
X99655676Y-99862503D01*
X99655676Y-99862503D02*
X99636628Y-99824408D01*
X99636628Y-99824408D02*
X99636628Y-99672027D01*
X99446152Y-100072027D02*
X99846152Y-100072027D01*
X99846152Y-100338693D02*
X99846152Y-100414884D01*
X99846152Y-100414884D02*
X99827104Y-100452979D01*
X99827104Y-100452979D02*
X99789009Y-100491074D01*
X99789009Y-100491074D02*
X99712819Y-100510122D01*
X99712819Y-100510122D02*
X99579485Y-100510122D01*
X99579485Y-100510122D02*
X99503295Y-100491074D01*
X99503295Y-100491074D02*
X99465200Y-100452979D01*
X99465200Y-100452979D02*
X99446152Y-100414884D01*
X99446152Y-100414884D02*
X99446152Y-100338693D01*
X99446152Y-100338693D02*
X99465200Y-100300598D01*
X99465200Y-100300598D02*
X99503295Y-100262503D01*
X99503295Y-100262503D02*
X99579485Y-100243455D01*
X99579485Y-100243455D02*
X99712819Y-100243455D01*
X99712819Y-100243455D02*
X99789009Y-100262503D01*
X99789009Y-100262503D02*
X99827104Y-100300598D01*
X99827104Y-100300598D02*
X99846152Y-100338693D01*
X99712819Y-100852979D02*
X99446152Y-100852979D01*
X99865200Y-100757741D02*
X99579485Y-100662503D01*
X99579485Y-100662503D02*
X99579485Y-100910122D01*
X99712819Y-101233931D02*
X99446152Y-101233931D01*
X99865200Y-101138693D02*
X99579485Y-101043455D01*
X99579485Y-101043455D02*
X99579485Y-101291074D01*
X110238104Y-87035550D02*
X110257152Y-86997455D01*
X110257152Y-86997455D02*
X110257152Y-86940312D01*
X110257152Y-86940312D02*
X110238104Y-86883169D01*
X110238104Y-86883169D02*
X110200009Y-86845074D01*
X110200009Y-86845074D02*
X110161914Y-86826027D01*
X110161914Y-86826027D02*
X110085723Y-86806979D01*
X110085723Y-86806979D02*
X110028580Y-86806979D01*
X110028580Y-86806979D02*
X109952390Y-86826027D01*
X109952390Y-86826027D02*
X109914295Y-86845074D01*
X109914295Y-86845074D02*
X109876200Y-86883169D01*
X109876200Y-86883169D02*
X109857152Y-86940312D01*
X109857152Y-86940312D02*
X109857152Y-86978408D01*
X109857152Y-86978408D02*
X109876200Y-87035550D01*
X109876200Y-87035550D02*
X109895247Y-87054598D01*
X109895247Y-87054598D02*
X110028580Y-87054598D01*
X110028580Y-87054598D02*
X110028580Y-86978408D01*
X109857152Y-87226027D02*
X110257152Y-87226027D01*
X110257152Y-87226027D02*
X109857152Y-87454598D01*
X109857152Y-87454598D02*
X110257152Y-87454598D01*
X109857152Y-87645075D02*
X110257152Y-87645075D01*
X110257152Y-87645075D02*
X110257152Y-87740313D01*
X110257152Y-87740313D02*
X110238104Y-87797456D01*
X110238104Y-87797456D02*
X110200009Y-87835551D01*
X110200009Y-87835551D02*
X110161914Y-87854598D01*
X110161914Y-87854598D02*
X110085723Y-87873646D01*
X110085723Y-87873646D02*
X110028580Y-87873646D01*
X110028580Y-87873646D02*
X109952390Y-87854598D01*
X109952390Y-87854598D02*
X109914295Y-87835551D01*
X109914295Y-87835551D02*
X109876200Y-87797456D01*
X109876200Y-87797456D02*
X109857152Y-87740313D01*
X109857152Y-87740313D02*
X109857152Y-87645075D01*
X100627104Y-99481550D02*
X100646152Y-99443455D01*
X100646152Y-99443455D02*
X100646152Y-99386312D01*
X100646152Y-99386312D02*
X100627104Y-99329169D01*
X100627104Y-99329169D02*
X100589009Y-99291074D01*
X100589009Y-99291074D02*
X100550914Y-99272027D01*
X100550914Y-99272027D02*
X100474723Y-99252979D01*
X100474723Y-99252979D02*
X100417580Y-99252979D01*
X100417580Y-99252979D02*
X100341390Y-99272027D01*
X100341390Y-99272027D02*
X100303295Y-99291074D01*
X100303295Y-99291074D02*
X100265200Y-99329169D01*
X100265200Y-99329169D02*
X100246152Y-99386312D01*
X100246152Y-99386312D02*
X100246152Y-99424408D01*
X100246152Y-99424408D02*
X100265200Y-99481550D01*
X100265200Y-99481550D02*
X100284247Y-99500598D01*
X100284247Y-99500598D02*
X100417580Y-99500598D01*
X100417580Y-99500598D02*
X100417580Y-99424408D01*
X100246152Y-99672027D02*
X100646152Y-99672027D01*
X100646152Y-99672027D02*
X100646152Y-99824408D01*
X100646152Y-99824408D02*
X100627104Y-99862503D01*
X100627104Y-99862503D02*
X100608057Y-99881550D01*
X100608057Y-99881550D02*
X100569961Y-99900598D01*
X100569961Y-99900598D02*
X100512819Y-99900598D01*
X100512819Y-99900598D02*
X100474723Y-99881550D01*
X100474723Y-99881550D02*
X100455676Y-99862503D01*
X100455676Y-99862503D02*
X100436628Y-99824408D01*
X100436628Y-99824408D02*
X100436628Y-99672027D01*
X100246152Y-100072027D02*
X100646152Y-100072027D01*
X100646152Y-100338693D02*
X100646152Y-100414884D01*
X100646152Y-100414884D02*
X100627104Y-100452979D01*
X100627104Y-100452979D02*
X100589009Y-100491074D01*
X100589009Y-100491074D02*
X100512819Y-100510122D01*
X100512819Y-100510122D02*
X100379485Y-100510122D01*
X100379485Y-100510122D02*
X100303295Y-100491074D01*
X100303295Y-100491074D02*
X100265200Y-100452979D01*
X100265200Y-100452979D02*
X100246152Y-100414884D01*
X100246152Y-100414884D02*
X100246152Y-100338693D01*
X100246152Y-100338693D02*
X100265200Y-100300598D01*
X100265200Y-100300598D02*
X100303295Y-100262503D01*
X100303295Y-100262503D02*
X100379485Y-100243455D01*
X100379485Y-100243455D02*
X100512819Y-100243455D01*
X100512819Y-100243455D02*
X100589009Y-100262503D01*
X100589009Y-100262503D02*
X100627104Y-100300598D01*
X100627104Y-100300598D02*
X100646152Y-100338693D01*
X100512819Y-100852979D02*
X100246152Y-100852979D01*
X100665200Y-100757741D02*
X100379485Y-100662503D01*
X100379485Y-100662503D02*
X100379485Y-100910122D01*
X100646152Y-101024407D02*
X100646152Y-101272026D01*
X100646152Y-101272026D02*
X100493771Y-101138693D01*
X100493771Y-101138693D02*
X100493771Y-101195836D01*
X100493771Y-101195836D02*
X100474723Y-101233931D01*
X100474723Y-101233931D02*
X100455676Y-101252979D01*
X100455676Y-101252979D02*
X100417580Y-101272026D01*
X100417580Y-101272026D02*
X100322342Y-101272026D01*
X100322342Y-101272026D02*
X100284247Y-101252979D01*
X100284247Y-101252979D02*
X100265200Y-101233931D01*
X100265200Y-101233931D02*
X100246152Y-101195836D01*
X100246152Y-101195836D02*
X100246152Y-101081550D01*
X100246152Y-101081550D02*
X100265200Y-101043455D01*
X100265200Y-101043455D02*
X100284247Y-101024407D01*
X112638104Y-87035550D02*
X112657152Y-86997455D01*
X112657152Y-86997455D02*
X112657152Y-86940312D01*
X112657152Y-86940312D02*
X112638104Y-86883169D01*
X112638104Y-86883169D02*
X112600009Y-86845074D01*
X112600009Y-86845074D02*
X112561914Y-86826027D01*
X112561914Y-86826027D02*
X112485723Y-86806979D01*
X112485723Y-86806979D02*
X112428580Y-86806979D01*
X112428580Y-86806979D02*
X112352390Y-86826027D01*
X112352390Y-86826027D02*
X112314295Y-86845074D01*
X112314295Y-86845074D02*
X112276200Y-86883169D01*
X112276200Y-86883169D02*
X112257152Y-86940312D01*
X112257152Y-86940312D02*
X112257152Y-86978408D01*
X112257152Y-86978408D02*
X112276200Y-87035550D01*
X112276200Y-87035550D02*
X112295247Y-87054598D01*
X112295247Y-87054598D02*
X112428580Y-87054598D01*
X112428580Y-87054598D02*
X112428580Y-86978408D01*
X112257152Y-87226027D02*
X112657152Y-87226027D01*
X112657152Y-87226027D02*
X112257152Y-87454598D01*
X112257152Y-87454598D02*
X112657152Y-87454598D01*
X112257152Y-87645075D02*
X112657152Y-87645075D01*
X112657152Y-87645075D02*
X112657152Y-87740313D01*
X112657152Y-87740313D02*
X112638104Y-87797456D01*
X112638104Y-87797456D02*
X112600009Y-87835551D01*
X112600009Y-87835551D02*
X112561914Y-87854598D01*
X112561914Y-87854598D02*
X112485723Y-87873646D01*
X112485723Y-87873646D02*
X112428580Y-87873646D01*
X112428580Y-87873646D02*
X112352390Y-87854598D01*
X112352390Y-87854598D02*
X112314295Y-87835551D01*
X112314295Y-87835551D02*
X112276200Y-87797456D01*
X112276200Y-87797456D02*
X112257152Y-87740313D01*
X112257152Y-87740313D02*
X112257152Y-87645075D01*
X110227104Y-99481550D02*
X110246152Y-99443455D01*
X110246152Y-99443455D02*
X110246152Y-99386312D01*
X110246152Y-99386312D02*
X110227104Y-99329169D01*
X110227104Y-99329169D02*
X110189009Y-99291074D01*
X110189009Y-99291074D02*
X110150914Y-99272027D01*
X110150914Y-99272027D02*
X110074723Y-99252979D01*
X110074723Y-99252979D02*
X110017580Y-99252979D01*
X110017580Y-99252979D02*
X109941390Y-99272027D01*
X109941390Y-99272027D02*
X109903295Y-99291074D01*
X109903295Y-99291074D02*
X109865200Y-99329169D01*
X109865200Y-99329169D02*
X109846152Y-99386312D01*
X109846152Y-99386312D02*
X109846152Y-99424408D01*
X109846152Y-99424408D02*
X109865200Y-99481550D01*
X109865200Y-99481550D02*
X109884247Y-99500598D01*
X109884247Y-99500598D02*
X110017580Y-99500598D01*
X110017580Y-99500598D02*
X110017580Y-99424408D01*
X109846152Y-99672027D02*
X110246152Y-99672027D01*
X110246152Y-99672027D02*
X110246152Y-99824408D01*
X110246152Y-99824408D02*
X110227104Y-99862503D01*
X110227104Y-99862503D02*
X110208057Y-99881550D01*
X110208057Y-99881550D02*
X110169961Y-99900598D01*
X110169961Y-99900598D02*
X110112819Y-99900598D01*
X110112819Y-99900598D02*
X110074723Y-99881550D01*
X110074723Y-99881550D02*
X110055676Y-99862503D01*
X110055676Y-99862503D02*
X110036628Y-99824408D01*
X110036628Y-99824408D02*
X110036628Y-99672027D01*
X109846152Y-100072027D02*
X110246152Y-100072027D01*
X110246152Y-100338693D02*
X110246152Y-100414884D01*
X110246152Y-100414884D02*
X110227104Y-100452979D01*
X110227104Y-100452979D02*
X110189009Y-100491074D01*
X110189009Y-100491074D02*
X110112819Y-100510122D01*
X110112819Y-100510122D02*
X109979485Y-100510122D01*
X109979485Y-100510122D02*
X109903295Y-100491074D01*
X109903295Y-100491074D02*
X109865200Y-100452979D01*
X109865200Y-100452979D02*
X109846152Y-100414884D01*
X109846152Y-100414884D02*
X109846152Y-100338693D01*
X109846152Y-100338693D02*
X109865200Y-100300598D01*
X109865200Y-100300598D02*
X109903295Y-100262503D01*
X109903295Y-100262503D02*
X109979485Y-100243455D01*
X109979485Y-100243455D02*
X110112819Y-100243455D01*
X110112819Y-100243455D02*
X110189009Y-100262503D01*
X110189009Y-100262503D02*
X110227104Y-100300598D01*
X110227104Y-100300598D02*
X110246152Y-100338693D01*
X110246152Y-100643455D02*
X110246152Y-100891074D01*
X110246152Y-100891074D02*
X110093771Y-100757741D01*
X110093771Y-100757741D02*
X110093771Y-100814884D01*
X110093771Y-100814884D02*
X110074723Y-100852979D01*
X110074723Y-100852979D02*
X110055676Y-100872027D01*
X110055676Y-100872027D02*
X110017580Y-100891074D01*
X110017580Y-100891074D02*
X109922342Y-100891074D01*
X109922342Y-100891074D02*
X109884247Y-100872027D01*
X109884247Y-100872027D02*
X109865200Y-100852979D01*
X109865200Y-100852979D02*
X109846152Y-100814884D01*
X109846152Y-100814884D02*
X109846152Y-100700598D01*
X109846152Y-100700598D02*
X109865200Y-100662503D01*
X109865200Y-100662503D02*
X109884247Y-100643455D01*
X109846152Y-101272026D02*
X109846152Y-101043455D01*
X109846152Y-101157741D02*
X110246152Y-101157741D01*
X110246152Y-101157741D02*
X110189009Y-101119645D01*
X110189009Y-101119645D02*
X110150914Y-101081550D01*
X110150914Y-101081550D02*
X110131866Y-101043455D01*
M02*
