M48
; DRILL file {KiCad 8.0.4} date 2025-03-13T20:49:46+0100
; FORMAT={-:-/ absolute / metric / decimal}
; #@! TF.CreationDate,2025-03-13T20:49:46+01:00
; #@! TF.GenerationSoftware,Kicad,Pcbnew,8.0.4
; #@! TF.FileFunction,Plated,1,2,PTH
FMAT,2
METRIC
; #@! TA.AperFunction,Plated,PTH,ViaDrill
T1C0.400
; #@! TA.AperFunction,Plated,PTH,ComponentDrill
T2C1.000
%
G90
G05
T1
X99.21Y-88.852
X100.0Y-89.84
X100.182Y-106.046
X100.762Y-90.602
X101.07Y-106.61
X101.424Y-107.62
X101.524Y-91.364
X102.186Y-108.382
X102.286Y-92.126
X102.948Y-109.144
X103.048Y-92.888
X103.81Y-93.65
X103.937Y-109.906
X104.572Y-94.412
X104.953Y-110.795
X105.334Y-95.174
X105.742Y-111.43
X106.096Y-95.936
X106.858Y-96.698
X107.62Y-97.46
X108.382Y-98.222
X109.172Y-99.003
X110.042Y-99.802
X110.706Y-100.52
X111.377Y-101.191
X112.446Y-111.557
X113.208Y-103.302
X113.687Y-112.281
T2
X83.81Y-73.965
X83.81Y-76.505
X83.81Y-79.045
X83.81Y-81.585
X83.81Y-84.125
X83.81Y-86.665
X83.81Y-89.205
X83.81Y-91.745
X83.81Y-94.285
X83.81Y-96.825
X83.81Y-99.365
X83.81Y-101.905
X83.81Y-104.445
X83.81Y-106.985
X83.81Y-109.525
X83.81Y-112.065
X83.81Y-114.605
X83.81Y-117.145
X83.81Y-119.685
X83.81Y-122.225
X83.81Y-124.765
X86.35Y-73.965
X86.35Y-76.505
X86.35Y-79.045
X86.35Y-81.585
X86.35Y-84.125
X86.35Y-86.665
X86.35Y-89.205
X86.35Y-91.745
X86.35Y-94.285
X86.35Y-96.825
X86.35Y-99.365
X86.35Y-101.905
X86.35Y-104.445
X86.35Y-106.985
X86.35Y-109.525
X86.35Y-112.065
X86.35Y-114.605
X86.35Y-117.145
X86.35Y-119.685
X86.35Y-122.225
X86.35Y-124.765
X88.89Y-73.965
X88.89Y-76.505
X88.89Y-79.045
X88.89Y-81.585
X88.89Y-84.125
X88.89Y-86.665
X88.89Y-89.205
X88.89Y-91.745
X88.89Y-94.285
X88.89Y-96.825
X88.89Y-99.365
X88.89Y-101.905
X88.89Y-104.445
X88.89Y-106.985
X88.89Y-109.525
X88.89Y-112.065
X88.89Y-114.605
X88.89Y-117.145
X88.89Y-119.685
X88.89Y-122.225
X88.89Y-124.765
X91.43Y-73.965
X91.43Y-76.505
X91.43Y-79.045
X91.43Y-81.585
X91.43Y-84.125
X91.43Y-86.665
X91.43Y-89.205
X91.43Y-91.745
X91.43Y-94.285
X91.43Y-96.825
X91.43Y-99.365
X91.43Y-101.905
X91.43Y-104.445
X91.43Y-106.985
X91.43Y-109.525
X91.43Y-112.065
X91.43Y-114.605
X91.43Y-117.145
X91.43Y-119.685
X91.43Y-122.225
X91.43Y-124.765
X93.97Y-73.965
X93.97Y-76.505
X93.97Y-79.045
X93.97Y-81.585
X93.97Y-84.125
X93.97Y-86.665
X93.97Y-89.205
X93.97Y-91.745
X93.97Y-94.285
X93.97Y-96.825
X93.97Y-99.365
X93.97Y-101.905
X93.97Y-104.445
X93.97Y-106.985
X93.97Y-109.525
X93.97Y-112.065
X93.97Y-114.605
X93.97Y-117.145
X93.97Y-119.685
X93.97Y-122.225
X93.97Y-124.765
X96.51Y-73.965
X96.51Y-76.505
X96.51Y-79.045
X96.51Y-81.585
X96.51Y-89.205
X96.51Y-91.745
X96.51Y-94.285
X96.51Y-96.825
X96.51Y-99.365
X96.51Y-106.985
X96.51Y-109.525
X96.51Y-112.065
X96.51Y-114.605
X96.51Y-117.145
X96.51Y-119.685
X96.51Y-122.225
X96.51Y-124.765
X99.05Y-73.965
X99.05Y-76.505
X99.05Y-79.045
X99.05Y-81.585
X99.05Y-117.145
X99.05Y-119.685
X99.05Y-122.225
X99.05Y-124.765
X101.59Y-73.965
X101.59Y-76.505
X101.59Y-79.045
X101.59Y-81.585
X101.59Y-117.145
X101.59Y-119.685
X101.59Y-122.225
X101.59Y-124.765
X104.13Y-73.965
X104.13Y-76.505
X104.13Y-79.045
X104.13Y-81.585
X104.13Y-117.145
X104.13Y-119.685
X104.13Y-122.225
X104.13Y-124.765
X106.67Y-73.965
X106.67Y-76.505
X106.67Y-79.045
X106.67Y-81.585
X106.67Y-117.145
X106.67Y-119.685
X106.67Y-122.225
X106.67Y-124.765
X109.21Y-73.965
X109.21Y-76.505
X109.21Y-79.045
X109.21Y-81.585
X109.21Y-117.145
X109.21Y-119.685
X109.21Y-122.225
X109.21Y-124.765
X111.75Y-73.965
X111.75Y-76.505
X111.75Y-79.045
X111.75Y-81.585
X111.75Y-117.145
X111.75Y-119.685
X111.75Y-122.225
X111.75Y-124.765
M30
