%TF.GenerationSoftware,KiCad,Pcbnew,8.0.4*%
%TF.CreationDate,2025-01-31T11:06:39+01:00*%
%TF.ProjectId,uconsole-expansion-card-template.kicad_pcb_2.54,75636f6e-736f-46c6-952d-657870616e73,0.1*%
%TF.SameCoordinates,Original*%
%TF.FileFunction,Copper,L2,Bot*%
%TF.FilePolarity,Positive*%
%FSLAX46Y46*%
G04 Gerber Fmt 4.6, Leading zero omitted, Abs format (unit mm)*
G04 Created by KiCad (PCBNEW 8.0.4) date 2025-01-31 11:06:39*
%MOMM*%
%LPD*%
G01*
G04 APERTURE LIST*
G04 Aperture macros list*
%AMRoundRect*
0 Rectangle with rounded corners*
0 $1 Rounding radius*
0 $2 $3 $4 $5 $6 $7 $8 $9 X,Y pos of 4 corners*
0 Add a 4 corners polygon primitive as box body*
4,1,4,$2,$3,$4,$5,$6,$7,$8,$9,$2,$3,0*
0 Add four circle primitives for the rounded corners*
1,1,$1+$1,$2,$3*
1,1,$1+$1,$4,$5*
1,1,$1+$1,$6,$7*
1,1,$1+$1,$8,$9*
0 Add four rect primitives between the rounded corners*
20,1,$1+$1,$2,$3,$4,$5,0*
20,1,$1+$1,$4,$5,$6,$7,0*
20,1,$1+$1,$6,$7,$8,$9,0*
20,1,$1+$1,$8,$9,$2,$3,0*%
G04 Aperture macros list end*
%TA.AperFunction,ComponentPad*%
%ADD10R,1.700000X1.700000*%
%TD*%
%TA.AperFunction,ConnectorPad*%
%ADD11R,2.300000X0.600000*%
%TD*%
%TA.AperFunction,ConnectorPad*%
%ADD12RoundRect,0.250000X0.250000X0.750000X-0.250000X0.750000X-0.250000X-0.750000X0.250000X-0.750000X0*%
%TD*%
%TA.AperFunction,ViaPad*%
%ADD13C,0.800000*%
%TD*%
%TA.AperFunction,Conductor*%
%ADD14C,0.200000*%
%TD*%
%TA.AperFunction,Conductor*%
%ADD15C,0.420000*%
%TD*%
%TA.AperFunction,Conductor*%
%ADD16C,0.250000*%
%TD*%
G04 APERTURE END LIST*
D10*
%TO.P,111,1*%
%TO.N,N/C*%
X94031000Y-125019000D03*
%TD*%
%TO.P,63,1*%
%TO.N,N/C*%
X91491000Y-109652000D03*
%TD*%
%TO.P,83,1*%
%TO.N,N/C*%
X96571000Y-117272000D03*
%TD*%
%TO.P,117,1*%
%TO.N,N/C*%
X109271000Y-125019000D03*
%TD*%
%TO.P,119,1*%
%TO.N,N/C*%
X83871000Y-81585000D03*
%TD*%
%TO.P,85,1*%
%TO.N,N/C*%
X88951000Y-73965000D03*
%TD*%
%TO.P,70,1*%
%TO.N,N/C*%
X94031000Y-112192000D03*
%TD*%
%TO.P,101,1*%
%TO.N,N/C*%
X99111000Y-76505000D03*
%TD*%
%TO.P,25,1*%
%TO.N,N/C*%
X86411000Y-94412000D03*
%TD*%
%TO.P,74,1*%
%TO.N,N/C*%
X88951000Y-114732000D03*
%TD*%
%TO.P,29,1*%
%TO.N,N/C*%
X96571000Y-94412000D03*
%TD*%
%TO.P,96,1*%
%TO.N,N/C*%
X86411000Y-122479000D03*
%TD*%
%TO.P,116,1*%
%TO.N,N/C*%
X106731000Y-125019000D03*
%TD*%
%TO.P,101,1*%
%TO.N,N/C*%
X99111000Y-122479000D03*
%TD*%
%TO.P,69,1*%
%TO.N,N/C*%
X91491000Y-112192000D03*
%TD*%
%TO.P,81,1*%
%TO.N,N/C*%
X91491000Y-117272000D03*
%TD*%
%TO.P,91,1*%
%TO.N,N/C*%
X104191000Y-119939000D03*
%TD*%
%TO.P,111,1*%
%TO.N,N/C*%
X94031000Y-79045000D03*
%TD*%
%TO.P,93,1*%
%TO.N,N/C*%
X109271000Y-73965000D03*
%TD*%
%TO.P,39,1*%
%TO.N,N/C*%
X91491000Y-99492000D03*
%TD*%
%TO.P,3,1*%
%TO.N,N/C*%
X91491000Y-84252000D03*
%TD*%
%TO.P,23,1*%
%TO.N,N/C*%
X96571000Y-91872000D03*
%TD*%
%TO.P,122,1*%
%TO.N,N/C*%
X106731000Y-117399000D03*
%TD*%
%TO.P,95,1*%
%TO.N,N/C*%
X83871000Y-122479000D03*
%TD*%
%TO.P,5,1*%
%TO.N,N/C*%
X83871000Y-73965000D03*
%TD*%
%TO.P,114,1*%
%TO.N,N/C*%
X101651000Y-125019000D03*
%TD*%
%TO.P,13,1*%
%TO.N,N/C*%
X86411000Y-89332000D03*
%TD*%
%TO.P,100,1*%
%TO.N,N/C*%
X96571000Y-122479000D03*
%TD*%
%TO.P,30,1*%
%TO.N,N/C*%
X83871000Y-96952000D03*
%TD*%
%TO.P,20,1*%
%TO.N,N/C*%
X88951000Y-91872000D03*
%TD*%
%TO.P,52,1*%
%TO.N,N/C*%
X94031000Y-104572000D03*
%TD*%
%TO.P,108,1*%
%TO.N,N/C*%
X86411000Y-125019000D03*
%TD*%
%TO.P,128,1*%
%TO.N,N/C*%
X106731000Y-81585000D03*
%TD*%
%TO.P,109,1*%
%TO.N,N/C*%
X88951000Y-125019000D03*
%TD*%
%TO.P,68,1*%
%TO.N,N/C*%
X88951000Y-112192000D03*
%TD*%
%TO.P,113,1*%
%TO.N,N/C*%
X99111000Y-79045000D03*
%TD*%
%TO.P,36,1*%
%TO.N,N/C*%
X83871000Y-99492000D03*
%TD*%
%TO.P,11,1*%
%TO.N,N/C*%
X96571000Y-86792000D03*
%TD*%
%TO.P,112,1*%
%TO.N,N/C*%
X96571000Y-79045000D03*
%TD*%
%TO.P,99,1*%
%TO.N,N/C*%
X94031000Y-122479000D03*
%TD*%
%TO.P,86,1*%
%TO.N,N/C*%
X91491000Y-119939000D03*
%TD*%
%TO.P,79,1*%
%TO.N,N/C*%
X86411000Y-117272000D03*
%TD*%
%TO.P,82,1*%
%TO.N,N/C*%
X94031000Y-117272000D03*
%TD*%
%TO.P,107,1*%
%TO.N,N/C*%
X83871000Y-125019000D03*
%TD*%
%TO.P,,1*%
%TO.N,N/C*%
X83871000Y-84252000D03*
%TD*%
%TO.P,28,1*%
%TO.N,N/C*%
X94031000Y-94412000D03*
%TD*%
%TO.P,99,1*%
%TO.N,N/C*%
X94031000Y-76505000D03*
%TD*%
%TO.P,112,1*%
%TO.N,N/C*%
X96571000Y-125019000D03*
%TD*%
%TO.P,87,1*%
%TO.N,N/C*%
X94031000Y-73965000D03*
%TD*%
%TO.P,98,1*%
%TO.N,N/C*%
X91491000Y-76505000D03*
%TD*%
%TO.P,110,1*%
%TO.N,N/C*%
X91491000Y-125019000D03*
%TD*%
%TO.P,118,1*%
%TO.N,N/C*%
X111811000Y-125019000D03*
%TD*%
%TO.P,54,1*%
%TO.N,N/C*%
X83871000Y-107112000D03*
%TD*%
%TO.P,55,1*%
%TO.N,N/C*%
X86411000Y-107112000D03*
%TD*%
%TO.P,109,1*%
%TO.N,N/C*%
X88951000Y-79045000D03*
%TD*%
%TO.P,58,1*%
%TO.N,N/C*%
X94031000Y-107112000D03*
%TD*%
%TO.P,87,1*%
%TO.N,N/C*%
X94031000Y-119939000D03*
%TD*%
%TO.P,76,1*%
%TO.N,N/C*%
X94031000Y-114732000D03*
%TD*%
%TO.P,21,1*%
%TO.N,N/C*%
X91491000Y-91872000D03*
%TD*%
%TO.P,65,1*%
%TO.N,N/C*%
X96571000Y-109652000D03*
%TD*%
%TO.P,78,1*%
%TO.N,N/C*%
X83871000Y-117272000D03*
%TD*%
%TO.P,115,1*%
%TO.N,N/C*%
X104191000Y-125019000D03*
%TD*%
%TO.P,35,1*%
%TO.N,N/C*%
X96571000Y-96952000D03*
%TD*%
%TO.P,90,1*%
%TO.N,N/C*%
X101651000Y-73965000D03*
%TD*%
%TO.P,26,1*%
%TO.N,N/C*%
X88951000Y-94412000D03*
%TD*%
%TO.P,43,1*%
%TO.N,N/C*%
X86411000Y-102032000D03*
%TD*%
%TO.P,71,1*%
%TO.N,N/C*%
X96571000Y-112192000D03*
%TD*%
%TO.P,124,1*%
%TO.N,N/C*%
X111811000Y-117399000D03*
%TD*%
%TO.P,93,1*%
%TO.N,N/C*%
X109271000Y-119939000D03*
%TD*%
%TO.P,44,1*%
%TO.N,N/C*%
X88951000Y-102032000D03*
%TD*%
%TO.P,120,1*%
%TO.N,N/C*%
X101651000Y-117399000D03*
%TD*%
%TO.P,80,1*%
%TO.N,N/C*%
X88951000Y-117272000D03*
%TD*%
%TO.P,84,1*%
%TO.N,N/C*%
X86411000Y-73965000D03*
%TD*%
%TO.P,94,1*%
%TO.N,N/C*%
X111811000Y-73965000D03*
%TD*%
%TO.P,96,1*%
%TO.N,N/C*%
X86411000Y-76505000D03*
%TD*%
%TO.P,119,1*%
%TO.N,N/C*%
X99111000Y-117399000D03*
%TD*%
%TO.P,57,1*%
%TO.N,N/C*%
X91491000Y-107112000D03*
%TD*%
%TO.P,14,1*%
%TO.N,N/C*%
X88951000Y-89332000D03*
%TD*%
%TO.P,97,1*%
%TO.N,N/C*%
X88951000Y-76505000D03*
%TD*%
%TO.P,97,1*%
%TO.N,N/C*%
X88951000Y-122479000D03*
%TD*%
%TO.P,84,1*%
%TO.N,N/C*%
X86411000Y-119939000D03*
%TD*%
%TO.P,94,1*%
%TO.N,N/C*%
X111811000Y-119939000D03*
%TD*%
%TO.P,108,1*%
%TO.N,N/C*%
X86411000Y-79045000D03*
%TD*%
%TO.P,53,1*%
%TO.N,N/C*%
X96571000Y-104572000D03*
%TD*%
%TO.P,59,1*%
%TO.N,N/C*%
X96571000Y-107112000D03*
%TD*%
%TO.P,12,1*%
%TO.N,N/C*%
X83871000Y-89332000D03*
%TD*%
%TO.P,1,1*%
%TO.N,N/C*%
X86411000Y-84252000D03*
%TD*%
%TO.P,115,1*%
%TO.N,N/C*%
X104191000Y-79045000D03*
%TD*%
%TO.P,17,1*%
%TO.N,N/C*%
X96571000Y-89332000D03*
%TD*%
%TO.P,127,1*%
%TO.N,N/C*%
X104191000Y-81585000D03*
%TD*%
%TO.P,50,1*%
%TO.N,N/C*%
X88951000Y-104572000D03*
%TD*%
%TO.P,60,1*%
%TO.N,N/C*%
X83871000Y-109652000D03*
%TD*%
%TO.P,9,1*%
%TO.N,N/C*%
X91491000Y-86792000D03*
%TD*%
%TO.P,125,1*%
%TO.N,N/C*%
X99111000Y-81585000D03*
%TD*%
%TO.P,31,1*%
%TO.N,N/C*%
X86411000Y-96952000D03*
%TD*%
%TO.P,16,1*%
%TO.N,N/C*%
X94031000Y-89332000D03*
%TD*%
%TO.P,110,1*%
%TO.N,N/C*%
X91491000Y-79045000D03*
%TD*%
%TO.P,121,1*%
%TO.N,N/C*%
X104191000Y-117399000D03*
%TD*%
%TO.P,15,1*%
%TO.N,N/C*%
X91491000Y-89332000D03*
%TD*%
%TO.P,103,1*%
%TO.N,N/C*%
X104191000Y-76505000D03*
%TD*%
%TO.P,77,1*%
%TO.N,N/C*%
X96571000Y-114732000D03*
%TD*%
%TO.P,5,1*%
%TO.N,N/C*%
X83871000Y-119939000D03*
%TD*%
%TO.P,41,1*%
%TO.N,N/C*%
X96571000Y-99492000D03*
%TD*%
%TO.P,105,1*%
%TO.N,N/C*%
X109271000Y-122479000D03*
%TD*%
%TO.P,120,1*%
%TO.N,N/C*%
X86411000Y-81585000D03*
%TD*%
%TO.P,61,1*%
%TO.N,N/C*%
X86411000Y-109652000D03*
%TD*%
%TO.P,104,1*%
%TO.N,N/C*%
X106731000Y-122479000D03*
%TD*%
%TO.P,89,1*%
%TO.N,N/C*%
X99111000Y-73965000D03*
%TD*%
%TO.P,7,1*%
%TO.N,N/C*%
X86411000Y-86792000D03*
%TD*%
%TO.P,113,1*%
%TO.N,N/C*%
X99111000Y-125019000D03*
%TD*%
D11*
%TO.P,U1,2,5V*%
%TO.N,+5V*%
X116485000Y-111380000D03*
%TO.P,U1,4,5V*%
X116485000Y-110580000D03*
%TO.P,U1,6,5V*%
X116485000Y-109780000D03*
%TO.P,U1,8,5V*%
X116485000Y-108980000D03*
%TO.P,U1,10,5V*%
X116485000Y-108180000D03*
%TO.P,U1,12,GND*%
%TO.N,GND*%
X116485000Y-107380000D03*
%TO.P,U1,14,SPK_RP*%
%TO.N,/SPEAKER_RP*%
X116485000Y-106580000D03*
%TO.P,U1,16,SPK_RN*%
%TO.N,/SPEAKER_RN*%
X116485000Y-105780000D03*
%TO.P,U1,18,GPIO28*%
%TO.N,/GPIO28*%
X116485000Y-101780000D03*
%TO.P,U1,20,GPIO29*%
%TO.N,/GPIO29*%
X116485000Y-100980000D03*
%TO.P,U1,22,GPIO30*%
%TO.N,/GPIO30*%
X116485000Y-100180000D03*
%TO.P,U1,24,GPIO31*%
%TO.N,/GPIO31*%
X116485000Y-99380000D03*
%TO.P,U1,26,GPIO32*%
%TO.N,/GPIO32*%
X116485000Y-98580000D03*
%TO.P,U1,28,GPIO33*%
%TO.N,/GPIO33*%
X116485000Y-97780000D03*
%TO.P,U1,30,GPIO34*%
%TO.N,/GPIO34*%
X116485000Y-96980000D03*
%TO.P,U1,32,GPIO35*%
%TO.N,/GPIO35*%
X116485000Y-96180000D03*
%TO.P,U1,34,GPIO36*%
%TO.N,/GPIO36*%
X116485000Y-95380000D03*
%TO.P,U1,36,GPIO37*%
%TO.N,/GPIO37*%
X116485000Y-94580000D03*
%TO.P,U1,38,GPIO38*%
%TO.N,/GPIO38*%
X116485000Y-93780000D03*
%TO.P,U1,40,GPIO39*%
%TO.N,/GPIO39*%
X116485000Y-92980000D03*
%TO.P,U1,42,GPIO40*%
%TO.N,/GPIO40*%
X116485000Y-92180000D03*
%TO.P,U1,44,GPIO41*%
%TO.N,/GPIO41*%
X116485000Y-91380000D03*
%TO.P,U1,46,GPIO42*%
%TO.N,/GPIO42*%
X116485000Y-90580000D03*
%TO.P,U1,48,GPIO43*%
%TO.N,/GPIO43*%
X116485000Y-89780000D03*
%TO.P,U1,50,GPIO44*%
%TO.N,/GPIO44*%
X116485000Y-88980000D03*
%TO.P,U1,52,GPIO45*%
%TO.N,/GPIO45*%
X116485000Y-88180000D03*
%TD*%
D10*
%TO.P,85,1*%
%TO.N,N/C*%
X88951000Y-119939000D03*
%TD*%
%TO.P,103,1*%
%TO.N,N/C*%
X104191000Y-122479000D03*
%TD*%
%TO.P,34,1*%
%TO.N,N/C*%
X94031000Y-96952000D03*
%TD*%
%TO.P,104,1*%
%TO.N,N/C*%
X106731000Y-76505000D03*
%TD*%
%TO.P,124,1*%
%TO.N,N/C*%
X96571000Y-81585000D03*
%TD*%
%TO.P,49,1*%
%TO.N,N/C*%
X86411000Y-104572000D03*
%TD*%
%TO.P,106,1*%
%TO.N,N/C*%
X111811000Y-76505000D03*
%TD*%
%TO.P,88,1*%
%TO.N,N/C*%
X96571000Y-73965000D03*
%TD*%
%TO.P,32,1*%
%TO.N,N/C*%
X88951000Y-96952000D03*
%TD*%
%TO.P,46,1*%
%TO.N,N/C*%
X94031000Y-102032000D03*
%TD*%
%TO.P,105,1*%
%TO.N,N/C*%
X109271000Y-76505000D03*
%TD*%
%TO.P,130,1*%
%TO.N,N/C*%
X111811000Y-81585000D03*
%TD*%
%TO.P,118,1*%
%TO.N,N/C*%
X111811000Y-79045000D03*
%TD*%
%TO.P,22,1*%
%TO.N,N/C*%
X94031000Y-91872000D03*
%TD*%
%TO.P,107,1*%
%TO.N,N/C*%
X83871000Y-79045000D03*
%TD*%
%TO.P,66,1*%
%TO.N,N/C*%
X83871000Y-112192000D03*
%TD*%
%TO.P,4,1*%
%TO.N,N/C*%
X94031000Y-84252000D03*
%TD*%
%TO.P,27,1*%
%TO.N,N/C*%
X91491000Y-94412000D03*
%TD*%
%TO.P,37,1*%
%TO.N,N/C*%
X86411000Y-99492000D03*
%TD*%
%TO.P,88,1*%
%TO.N,N/C*%
X96571000Y-119939000D03*
%TD*%
%TO.P,122,1*%
%TO.N,N/C*%
X91491000Y-81585000D03*
%TD*%
%TO.P,91,1*%
%TO.N,N/C*%
X104191000Y-73965000D03*
%TD*%
%TO.P,42,1*%
%TO.N,N/C*%
X83871000Y-102032000D03*
%TD*%
%TO.P,126,1*%
%TO.N,N/C*%
X101651000Y-81585000D03*
%TD*%
%TO.P,95,1*%
%TO.N,N/C*%
X83871000Y-76505000D03*
%TD*%
%TO.P,106,1*%
%TO.N,N/C*%
X111811000Y-122479000D03*
%TD*%
%TO.P,47,1*%
%TO.N,N/C*%
X96571000Y-102032000D03*
%TD*%
%TO.P,38,1*%
%TO.N,N/C*%
X88951000Y-99492000D03*
%TD*%
%TO.P,90,1*%
%TO.N,N/C*%
X101651000Y-119939000D03*
%TD*%
%TO.P,67,1*%
%TO.N,N/C*%
X86411000Y-112192000D03*
%TD*%
%TO.P,48,1*%
%TO.N,N/C*%
X83871000Y-104572000D03*
%TD*%
%TO.P,86,1*%
%TO.N,N/C*%
X91491000Y-73965000D03*
%TD*%
%TO.P,10,1*%
%TO.N,N/C*%
X94031000Y-86792000D03*
%TD*%
%TO.P,5,1*%
%TO.N,N/C*%
X96571000Y-84252000D03*
%TD*%
%TO.P,33,1*%
%TO.N,N/C*%
X91491000Y-96952000D03*
%TD*%
%TO.P,92,1*%
%TO.N,N/C*%
X106731000Y-73965000D03*
%TD*%
%TO.P,18,1*%
%TO.N,N/C*%
X83871000Y-91872000D03*
%TD*%
%TO.P,24,1*%
%TO.N,N/C*%
X83871000Y-94412000D03*
%TD*%
%TO.P,123,1*%
%TO.N,N/C*%
X94031000Y-81585000D03*
%TD*%
%TO.P,98,1*%
%TO.N,N/C*%
X91491000Y-122479000D03*
%TD*%
%TO.P,56,1*%
%TO.N,N/C*%
X88951000Y-107112000D03*
%TD*%
%TO.P,117,1*%
%TO.N,N/C*%
X109271000Y-79045000D03*
%TD*%
%TO.P,19,1*%
%TO.N,N/C*%
X86411000Y-91872000D03*
%TD*%
%TO.P,8,1*%
%TO.N,N/C*%
X88951000Y-86792000D03*
%TD*%
%TO.P,100,1*%
%TO.N,N/C*%
X96571000Y-76505000D03*
%TD*%
%TO.P,72,1*%
%TO.N,N/C*%
X83871000Y-114732000D03*
%TD*%
%TO.P,92,1*%
%TO.N,N/C*%
X106731000Y-119939000D03*
%TD*%
%TO.P,114,1*%
%TO.N,N/C*%
X101651000Y-79045000D03*
%TD*%
%TO.P,45,1*%
%TO.N,N/C*%
X91491000Y-102032000D03*
%TD*%
%TO.P,129,1*%
%TO.N,N/C*%
X109271000Y-81585000D03*
%TD*%
%TO.P,102,1*%
%TO.N,N/C*%
X101651000Y-122479000D03*
%TD*%
%TO.P,51,1*%
%TO.N,N/C*%
X91491000Y-104572000D03*
%TD*%
%TO.P,116,1*%
%TO.N,N/C*%
X106731000Y-79045000D03*
%TD*%
%TO.P,102,1*%
%TO.N,N/C*%
X101651000Y-76505000D03*
%TD*%
%TO.P,6,1*%
%TO.N,N/C*%
X83871000Y-86792000D03*
%TD*%
%TO.P,40,1*%
%TO.N,N/C*%
X94031000Y-99492000D03*
%TD*%
%TO.P,89,1*%
%TO.N,N/C*%
X99111000Y-119939000D03*
%TD*%
%TO.P,75,1*%
%TO.N,N/C*%
X91491000Y-114732000D03*
%TD*%
%TO.P,123,1*%
%TO.N,N/C*%
X109271000Y-117399000D03*
%TD*%
%TO.P,121,1*%
%TO.N,N/C*%
X88951000Y-81585000D03*
%TD*%
%TO.P,62,1*%
%TO.N,N/C*%
X88951000Y-109652000D03*
%TD*%
%TO.P,2,1*%
%TO.N,N/C*%
X88951000Y-84252000D03*
%TD*%
%TO.P,73,1*%
%TO.N,N/C*%
X86411000Y-114732000D03*
%TD*%
%TO.P,64,1*%
%TO.N,N/C*%
X94031000Y-109652000D03*
%TD*%
D12*
%TO.P,U3,1,P1*%
%TO.N,/SPEAKER_LP*%
X109965000Y-131000000D03*
%TO.P,U3,2,N1*%
%TO.N,/SPEAKER_LN*%
X109965000Y-134000000D03*
%TO.P,U3,3,P2*%
%TO.N,/SPEAKER_LP*%
X95195000Y-134000000D03*
%TO.P,U3,4,N2*%
%TO.N,/SPEAKER_LN*%
X95195000Y-131000000D03*
%TD*%
%TO.P,U2,1,P1*%
%TO.N,/SPEAKER_RP*%
X109965000Y-66000000D03*
%TO.P,U2,2,N1*%
%TO.N,/SPEAKER_RN*%
X109965000Y-69000000D03*
%TO.P,U2,3,P2*%
%TO.N,/SPEAKER_RP*%
X95195000Y-69000000D03*
%TO.P,U2,4,N2*%
%TO.N,/SPEAKER_RN*%
X95195000Y-66000000D03*
%TD*%
D13*
%TO.N,/SPEAKER_LP*%
X113159620Y-112494380D03*
%TO.N,/SPEAKER_LN*%
X111981963Y-112235963D03*
%TO.N,+5V*%
X103656998Y-110820998D03*
X104457002Y-111746999D03*
X102857001Y-110148001D03*
X102056996Y-109348002D03*
X101261157Y-108424901D03*
%TO.N,GND*%
X100568601Y-107774616D03*
%TO.N,/GPIO28*%
X112446000Y-104572000D03*
%TO.N,/GPIO29*%
X111684000Y-100888990D03*
%TO.N,/GPIO30*%
X110795000Y-100127002D03*
%TO.N,/GPIO31*%
X110082749Y-99261501D03*
%TO.N,/GPIO32*%
X109270999Y-98475999D03*
%TO.N,/GPIO33*%
X108446400Y-97710197D03*
%TO.N,/GPIO34*%
X107705664Y-96999917D03*
%TO.N,/GPIO35*%
X106858000Y-96189998D03*
%TO.N,/GPIO36*%
X106096000Y-95428000D03*
%TO.N,/GPIO37*%
X105276442Y-94730658D03*
%TO.N,/GPIO38*%
X104445004Y-93777000D03*
%TO.N,/GPIO39*%
X103646247Y-93105247D03*
%TO.N,/GPIO40*%
X102794000Y-92253000D03*
%TO.N,/GPIO41*%
X102032000Y-91491000D03*
%TO.N,/GPIO42*%
X101270000Y-90602000D03*
%TO.N,/GPIO43*%
X100508000Y-89967000D03*
%TO.N,/GPIO44*%
X99876193Y-89175492D03*
%TO.N,/GPIO45*%
X99132000Y-88585000D03*
%TO.N,/SPEAKER_RN*%
X99238000Y-105842000D03*
%TO.N,/SPEAKER_RP*%
X99873000Y-106858000D03*
%TD*%
D14*
%TO.N,/SPEAKER_LP*%
X109965000Y-131000000D02*
X113462000Y-127503000D01*
X96445000Y-135250000D02*
X95195000Y-134000000D01*
X113462000Y-127503000D02*
X113462000Y-112796760D01*
X110715000Y-131750000D02*
X110715000Y-135005000D01*
X110715000Y-135005000D02*
X110470000Y-135250000D01*
X110470000Y-135250000D02*
X96445000Y-135250000D01*
X109965000Y-131000000D02*
X110715000Y-131750000D01*
%TO.N,/SPEAKER_LN*%
X113081000Y-113335000D02*
X111981963Y-112235963D01*
X109215000Y-130035966D02*
X109215000Y-133250000D01*
X109215000Y-133250000D02*
X109965000Y-134000000D01*
X113081000Y-113335000D02*
X113081000Y-126169966D01*
X113081000Y-126169966D02*
X109215000Y-130035966D01*
X109965000Y-134000000D02*
X106965000Y-131000000D01*
X106965000Y-131000000D02*
X95195000Y-131000000D01*
D15*
%TO.N,+5V*%
X116485000Y-111380000D02*
X104824001Y-111380000D01*
X116485000Y-108180000D02*
X101506058Y-108180000D01*
X104824001Y-111380000D02*
X104457002Y-111746999D01*
X116485000Y-110580000D02*
X103897996Y-110580000D01*
X103897996Y-110580000D02*
X103656998Y-110820998D01*
X101506058Y-108180000D02*
X101261157Y-108424901D01*
X116485000Y-108980000D02*
X102424998Y-108980000D01*
X116485000Y-109780000D02*
X103225002Y-109780000D01*
X102424998Y-108980000D02*
X102056996Y-109348002D01*
X103225002Y-109780000D02*
X102857001Y-110148001D01*
D16*
%TO.N,GND*%
X116485000Y-107380000D02*
X100963217Y-107380000D01*
X100963217Y-107380000D02*
X100568601Y-107774616D01*
%TO.N,/GPIO28*%
X115238000Y-101780000D02*
X112446000Y-104572000D01*
X116485000Y-101780000D02*
X115238000Y-101780000D01*
%TO.N,/GPIO29*%
X111775010Y-100980000D02*
X111684000Y-100888990D01*
X116485000Y-100980000D02*
X111775010Y-100980000D01*
%TO.N,/GPIO30*%
X116485000Y-100180000D02*
X110847998Y-100180000D01*
X110847998Y-100180000D02*
X110795000Y-100127002D01*
%TO.N,/GPIO31*%
X116485000Y-99380000D02*
X110201248Y-99380000D01*
X110201248Y-99380000D02*
X110082749Y-99261501D01*
%TO.N,/GPIO32*%
X116485000Y-98580000D02*
X109375000Y-98580000D01*
X109375000Y-98580000D02*
X109270999Y-98475999D01*
%TO.N,/GPIO33*%
X116485000Y-97780000D02*
X108516203Y-97780000D01*
X108516203Y-97780000D02*
X108446400Y-97710197D01*
%TO.N,/GPIO34*%
X107725581Y-96980000D02*
X107705664Y-96999917D01*
X116485000Y-96980000D02*
X107725581Y-96980000D01*
%TO.N,/GPIO35*%
X106867998Y-96180000D02*
X106858000Y-96189998D01*
X116485000Y-96180000D02*
X106867998Y-96180000D01*
%TO.N,/GPIO36*%
X116485000Y-95380000D02*
X106144000Y-95380000D01*
X106144000Y-95380000D02*
X106096000Y-95428000D01*
%TO.N,/GPIO37*%
X116485000Y-94580000D02*
X105427100Y-94580000D01*
X105427100Y-94580000D02*
X105276442Y-94730658D01*
%TO.N,/GPIO38*%
X104448004Y-93780000D02*
X104445004Y-93777000D01*
X116485000Y-93780000D02*
X104448004Y-93780000D01*
%TO.N,/GPIO39*%
X116485000Y-92980000D02*
X103771494Y-92980000D01*
X103771494Y-92980000D02*
X103646247Y-93105247D01*
%TO.N,/GPIO40*%
X102867000Y-92180000D02*
X102794000Y-92253000D01*
X116485000Y-92180000D02*
X102867000Y-92180000D01*
%TO.N,/GPIO41*%
X116485000Y-91380000D02*
X102143000Y-91380000D01*
X102143000Y-91380000D02*
X102032000Y-91491000D01*
%TO.N,/GPIO42*%
X101292000Y-90580000D02*
X101270000Y-90602000D01*
X116485000Y-90580000D02*
X101292000Y-90580000D01*
%TO.N,/GPIO43*%
X100695000Y-89780000D02*
X100508000Y-89967000D01*
X116485000Y-89780000D02*
X100695000Y-89780000D01*
%TO.N,/GPIO44*%
X100071685Y-88980000D02*
X99876193Y-89175492D01*
X116485000Y-88980000D02*
X100071685Y-88980000D01*
%TO.N,/GPIO45*%
X99537000Y-88180000D02*
X99132000Y-88585000D01*
X116485000Y-88180000D02*
X99537000Y-88180000D01*
D14*
%TO.N,/SPEAKER_RN*%
X110470000Y-64750000D02*
X96445000Y-64750000D01*
X98349000Y-105842000D02*
X98095000Y-105588000D01*
X99238000Y-105842000D02*
X98349000Y-105842000D01*
X110715000Y-68250000D02*
X110715000Y-64995000D01*
X113055975Y-83035000D02*
X113462000Y-82628975D01*
X113462000Y-82628975D02*
X113462000Y-80950000D01*
X113462000Y-80950000D02*
X113462000Y-71933000D01*
D16*
X99300000Y-105780000D02*
X99238000Y-105842000D01*
D14*
X98095000Y-83236000D02*
X98296000Y-83035000D01*
X109965000Y-69000000D02*
X110715000Y-68250000D01*
X96445000Y-64750000D02*
X95195000Y-66000000D01*
X110529000Y-69000000D02*
X109965000Y-69000000D01*
X110715000Y-64995000D02*
X110470000Y-64750000D01*
D16*
X116485000Y-105780000D02*
X99300000Y-105780000D01*
D14*
X98095000Y-105588000D02*
X98095000Y-83236000D01*
X98296000Y-83035000D02*
X113055975Y-83035000D01*
X113462000Y-71933000D02*
X110529000Y-69000000D01*
%TO.N,/SPEAKER_RP*%
X109965000Y-66000000D02*
X109215000Y-66750000D01*
X97745000Y-82951000D02*
X97745000Y-105732974D01*
X97745000Y-105732974D02*
X98870026Y-106858000D01*
X109215000Y-69964034D02*
X109500966Y-70250000D01*
X109500966Y-70250000D02*
X110827000Y-70250000D01*
X110827000Y-70250000D02*
X112911000Y-72334000D01*
X106965000Y-69000000D02*
X95195000Y-69000000D01*
X116485000Y-106580000D02*
X100151000Y-106580000D01*
X98870026Y-106858000D02*
X99873000Y-106858000D01*
X112911000Y-82685000D02*
X98011000Y-82685000D01*
X112911000Y-72334000D02*
X112911000Y-82685000D01*
X100151000Y-106580000D02*
X99873000Y-106858000D01*
X109215000Y-66750000D02*
X109215000Y-69964034D01*
X98011000Y-82685000D02*
X97745000Y-82951000D01*
X109965000Y-66000000D02*
X106965000Y-69000000D01*
%TD*%
M02*
