%TF.GenerationSoftware,KiCad,Pcbnew,8.0.4*%
%TF.CreationDate,2025-03-13T20:49:47+01:00*%
%TF.ProjectId,uconsole-expansion-card-template.kicad_pcb_2.54,75636f6e-736f-46c6-952d-657870616e73,0.1*%
%TF.SameCoordinates,Original*%
%TF.FileFunction,Drillmap*%
%TF.FilePolarity,Positive*%
%FSLAX45Y45*%
G04 Gerber Fmt 4.5, Leading zero omitted, Abs format (unit mm)*
G04 Created by KiCad (PCBNEW 8.0.4) date 2025-03-13 20:49:47*
%MOMM*%
%LPD*%
G01*
G04 APERTURE LIST*
%ADD10C,0.200000*%
%ADD11C,0.100000*%
G04 APERTURE END LIST*
D10*
X11688500Y-8715000D02*
G75*
G02*
X11788500Y-8815000I0J-100000D01*
G01*
X8361500Y-6150000D02*
X11261500Y-6150000D01*
X8361500Y-13850000D02*
G75*
G02*
X8211500Y-13700000I0J150000D01*
G01*
X11788500Y-11185000D02*
G75*
G02*
X11688500Y-11285000I-100000J0D01*
G01*
X11688500Y-11285000D02*
X11461500Y-11285000D01*
X11411500Y-6300000D02*
X11411500Y-8665000D01*
X11411500Y-11335000D02*
X11411500Y-13700000D01*
X11788500Y-8815000D02*
X11788500Y-10258000D01*
X11261500Y-13850000D02*
X8361500Y-13850000D01*
X8211500Y-13700000D02*
X8211500Y-6300000D01*
X11788500Y-10258000D02*
G75*
G02*
X11738500Y-10308000I-50000J0D01*
G01*
X11488500Y-10458000D02*
G75*
G02*
X11488500Y-10308000I0J75000D01*
G01*
X11411500Y-11335000D02*
G75*
G02*
X11461500Y-11285000I50000J0D01*
G01*
X11488500Y-10308000D02*
X11738500Y-10308000D01*
X11738500Y-10458000D02*
G75*
G02*
X11788500Y-10508000I0J-50000D01*
G01*
X11411500Y-13700000D02*
G75*
G02*
X11261500Y-13850000I-150000J0D01*
G01*
X11788500Y-10508000D02*
X11788500Y-11185000D01*
X11461500Y-8715000D02*
G75*
G02*
X11411500Y-8665000I0J50000D01*
G01*
X11461500Y-8715000D02*
X11688500Y-8715000D01*
X11738500Y-10458000D02*
X11488500Y-10458000D01*
X11261500Y-6150000D02*
G75*
G02*
X11411500Y-6300000I0J-150000D01*
G01*
X8211500Y-6300000D02*
G75*
G02*
X8361500Y-6150000I150000J0D01*
G01*
D11*
X9901046Y-8865154D02*
X9941046Y-8905154D01*
X9941046Y-8865154D02*
X9901046Y-8905154D01*
X9980000Y-8964000D02*
X10020000Y-9004000D01*
X10020000Y-8964000D02*
X9980000Y-9004000D01*
X9998182Y-10584618D02*
X10038182Y-10624618D01*
X10038182Y-10584618D02*
X9998182Y-10624618D01*
X10056200Y-9040200D02*
X10096200Y-9080200D01*
X10096200Y-9040200D02*
X10056200Y-9080200D01*
X10087001Y-10641046D02*
X10127001Y-10681046D01*
X10127001Y-10641046D02*
X10087001Y-10681046D01*
X10122400Y-10742000D02*
X10162400Y-10782000D01*
X10162400Y-10742000D02*
X10122400Y-10782000D01*
X10132400Y-9116400D02*
X10172400Y-9156400D01*
X10172400Y-9116400D02*
X10132400Y-9156400D01*
X10198599Y-10818201D02*
X10238599Y-10858201D01*
X10238599Y-10818201D02*
X10198599Y-10858201D01*
X10208600Y-9192600D02*
X10248600Y-9232600D01*
X10248600Y-9192600D02*
X10208600Y-9232600D01*
X10274801Y-10894400D02*
X10314801Y-10934400D01*
X10314801Y-10894400D02*
X10274801Y-10934400D01*
X10284800Y-9268800D02*
X10324800Y-9308800D01*
X10324800Y-9268800D02*
X10284800Y-9308800D01*
X10361000Y-9345000D02*
X10401000Y-9385000D01*
X10401000Y-9345000D02*
X10361000Y-9385000D01*
X10373700Y-10970600D02*
X10413700Y-11010600D01*
X10413700Y-10970600D02*
X10373700Y-11010600D01*
X10437200Y-9421200D02*
X10477200Y-9461200D01*
X10477200Y-9421200D02*
X10437200Y-9461200D01*
X10475300Y-11059500D02*
X10515300Y-11099500D01*
X10515300Y-11059500D02*
X10475300Y-11099500D01*
X10513400Y-9497400D02*
X10553400Y-9537400D01*
X10553400Y-9497400D02*
X10513400Y-9537400D01*
X10554201Y-11122999D02*
X10594201Y-11162999D01*
X10594201Y-11122999D02*
X10554201Y-11162999D01*
X10589600Y-9573600D02*
X10629600Y-9613600D01*
X10629600Y-9573600D02*
X10589600Y-9613600D01*
X10665800Y-9649800D02*
X10705800Y-9689800D01*
X10705800Y-9649800D02*
X10665800Y-9689800D01*
X10742000Y-9726000D02*
X10782000Y-9766000D01*
X10782000Y-9726000D02*
X10742000Y-9766000D01*
X10818200Y-9802199D02*
X10858200Y-9842199D01*
X10858200Y-9802199D02*
X10818200Y-9842199D01*
X10897246Y-9880296D02*
X10937246Y-9920296D01*
X10937246Y-9880296D02*
X10897246Y-9920296D01*
X10984197Y-9960210D02*
X11024197Y-10000210D01*
X11024197Y-9960210D02*
X10984197Y-10000210D01*
X11050575Y-10031970D02*
X11090575Y-10071970D01*
X11090575Y-10031970D02*
X11050575Y-10071970D01*
X11117750Y-10099145D02*
X11157750Y-10139145D01*
X11157750Y-10099145D02*
X11117750Y-10139145D01*
X11224600Y-11135700D02*
X11264600Y-11175700D01*
X11264600Y-11135700D02*
X11224600Y-11175700D01*
X11300800Y-10310200D02*
X11340800Y-10350200D01*
X11340800Y-10310200D02*
X11300800Y-10350200D01*
X11348691Y-11208147D02*
X11388691Y-11248147D01*
X11388691Y-11208147D02*
X11348691Y-11248147D01*
X8431000Y-7396500D02*
G75*
G02*
X8331000Y-7396500I-50000J0D01*
G01*
X8331000Y-7396500D02*
G75*
G02*
X8431000Y-7396500I50000J0D01*
G01*
X8431000Y-7650500D02*
G75*
G02*
X8331000Y-7650500I-50000J0D01*
G01*
X8331000Y-7650500D02*
G75*
G02*
X8431000Y-7650500I50000J0D01*
G01*
X8431000Y-7904500D02*
G75*
G02*
X8331000Y-7904500I-50000J0D01*
G01*
X8331000Y-7904500D02*
G75*
G02*
X8431000Y-7904500I50000J0D01*
G01*
X8431000Y-8158500D02*
G75*
G02*
X8331000Y-8158500I-50000J0D01*
G01*
X8331000Y-8158500D02*
G75*
G02*
X8431000Y-8158500I50000J0D01*
G01*
X8431000Y-8412500D02*
G75*
G02*
X8331000Y-8412500I-50000J0D01*
G01*
X8331000Y-8412500D02*
G75*
G02*
X8431000Y-8412500I50000J0D01*
G01*
X8431000Y-8666500D02*
G75*
G02*
X8331000Y-8666500I-50000J0D01*
G01*
X8331000Y-8666500D02*
G75*
G02*
X8431000Y-8666500I50000J0D01*
G01*
X8431000Y-8920500D02*
G75*
G02*
X8331000Y-8920500I-50000J0D01*
G01*
X8331000Y-8920500D02*
G75*
G02*
X8431000Y-8920500I50000J0D01*
G01*
X8431000Y-9174500D02*
G75*
G02*
X8331000Y-9174500I-50000J0D01*
G01*
X8331000Y-9174500D02*
G75*
G02*
X8431000Y-9174500I50000J0D01*
G01*
X8431000Y-9428500D02*
G75*
G02*
X8331000Y-9428500I-50000J0D01*
G01*
X8331000Y-9428500D02*
G75*
G02*
X8431000Y-9428500I50000J0D01*
G01*
X8431000Y-9682500D02*
G75*
G02*
X8331000Y-9682500I-50000J0D01*
G01*
X8331000Y-9682500D02*
G75*
G02*
X8431000Y-9682500I50000J0D01*
G01*
X8431000Y-9936500D02*
G75*
G02*
X8331000Y-9936500I-50000J0D01*
G01*
X8331000Y-9936500D02*
G75*
G02*
X8431000Y-9936500I50000J0D01*
G01*
X8431000Y-10190500D02*
G75*
G02*
X8331000Y-10190500I-50000J0D01*
G01*
X8331000Y-10190500D02*
G75*
G02*
X8431000Y-10190500I50000J0D01*
G01*
X8431000Y-10444500D02*
G75*
G02*
X8331000Y-10444500I-50000J0D01*
G01*
X8331000Y-10444500D02*
G75*
G02*
X8431000Y-10444500I50000J0D01*
G01*
X8431000Y-10698500D02*
G75*
G02*
X8331000Y-10698500I-50000J0D01*
G01*
X8331000Y-10698500D02*
G75*
G02*
X8431000Y-10698500I50000J0D01*
G01*
X8431000Y-10952500D02*
G75*
G02*
X8331000Y-10952500I-50000J0D01*
G01*
X8331000Y-10952500D02*
G75*
G02*
X8431000Y-10952500I50000J0D01*
G01*
X8431000Y-11206500D02*
G75*
G02*
X8331000Y-11206500I-50000J0D01*
G01*
X8331000Y-11206500D02*
G75*
G02*
X8431000Y-11206500I50000J0D01*
G01*
X8431000Y-11460500D02*
G75*
G02*
X8331000Y-11460500I-50000J0D01*
G01*
X8331000Y-11460500D02*
G75*
G02*
X8431000Y-11460500I50000J0D01*
G01*
X8431000Y-11714500D02*
G75*
G02*
X8331000Y-11714500I-50000J0D01*
G01*
X8331000Y-11714500D02*
G75*
G02*
X8431000Y-11714500I50000J0D01*
G01*
X8431000Y-11968500D02*
G75*
G02*
X8331000Y-11968500I-50000J0D01*
G01*
X8331000Y-11968500D02*
G75*
G02*
X8431000Y-11968500I50000J0D01*
G01*
X8431000Y-12222500D02*
G75*
G02*
X8331000Y-12222500I-50000J0D01*
G01*
X8331000Y-12222500D02*
G75*
G02*
X8431000Y-12222500I50000J0D01*
G01*
X8431000Y-12476500D02*
G75*
G02*
X8331000Y-12476500I-50000J0D01*
G01*
X8331000Y-12476500D02*
G75*
G02*
X8431000Y-12476500I50000J0D01*
G01*
X8685000Y-7396500D02*
G75*
G02*
X8585000Y-7396500I-50000J0D01*
G01*
X8585000Y-7396500D02*
G75*
G02*
X8685000Y-7396500I50000J0D01*
G01*
X8685000Y-7650500D02*
G75*
G02*
X8585000Y-7650500I-50000J0D01*
G01*
X8585000Y-7650500D02*
G75*
G02*
X8685000Y-7650500I50000J0D01*
G01*
X8685000Y-7904500D02*
G75*
G02*
X8585000Y-7904500I-50000J0D01*
G01*
X8585000Y-7904500D02*
G75*
G02*
X8685000Y-7904500I50000J0D01*
G01*
X8685000Y-8158500D02*
G75*
G02*
X8585000Y-8158500I-50000J0D01*
G01*
X8585000Y-8158500D02*
G75*
G02*
X8685000Y-8158500I50000J0D01*
G01*
X8685000Y-8412500D02*
G75*
G02*
X8585000Y-8412500I-50000J0D01*
G01*
X8585000Y-8412500D02*
G75*
G02*
X8685000Y-8412500I50000J0D01*
G01*
X8685000Y-8666500D02*
G75*
G02*
X8585000Y-8666500I-50000J0D01*
G01*
X8585000Y-8666500D02*
G75*
G02*
X8685000Y-8666500I50000J0D01*
G01*
X8685000Y-8920500D02*
G75*
G02*
X8585000Y-8920500I-50000J0D01*
G01*
X8585000Y-8920500D02*
G75*
G02*
X8685000Y-8920500I50000J0D01*
G01*
X8685000Y-9174500D02*
G75*
G02*
X8585000Y-9174500I-50000J0D01*
G01*
X8585000Y-9174500D02*
G75*
G02*
X8685000Y-9174500I50000J0D01*
G01*
X8685000Y-9428500D02*
G75*
G02*
X8585000Y-9428500I-50000J0D01*
G01*
X8585000Y-9428500D02*
G75*
G02*
X8685000Y-9428500I50000J0D01*
G01*
X8685000Y-9682500D02*
G75*
G02*
X8585000Y-9682500I-50000J0D01*
G01*
X8585000Y-9682500D02*
G75*
G02*
X8685000Y-9682500I50000J0D01*
G01*
X8685000Y-9936500D02*
G75*
G02*
X8585000Y-9936500I-50000J0D01*
G01*
X8585000Y-9936500D02*
G75*
G02*
X8685000Y-9936500I50000J0D01*
G01*
X8685000Y-10190500D02*
G75*
G02*
X8585000Y-10190500I-50000J0D01*
G01*
X8585000Y-10190500D02*
G75*
G02*
X8685000Y-10190500I50000J0D01*
G01*
X8685000Y-10444500D02*
G75*
G02*
X8585000Y-10444500I-50000J0D01*
G01*
X8585000Y-10444500D02*
G75*
G02*
X8685000Y-10444500I50000J0D01*
G01*
X8685000Y-10698500D02*
G75*
G02*
X8585000Y-10698500I-50000J0D01*
G01*
X8585000Y-10698500D02*
G75*
G02*
X8685000Y-10698500I50000J0D01*
G01*
X8685000Y-10952500D02*
G75*
G02*
X8585000Y-10952500I-50000J0D01*
G01*
X8585000Y-10952500D02*
G75*
G02*
X8685000Y-10952500I50000J0D01*
G01*
X8685000Y-11206500D02*
G75*
G02*
X8585000Y-11206500I-50000J0D01*
G01*
X8585000Y-11206500D02*
G75*
G02*
X8685000Y-11206500I50000J0D01*
G01*
X8685000Y-11460500D02*
G75*
G02*
X8585000Y-11460500I-50000J0D01*
G01*
X8585000Y-11460500D02*
G75*
G02*
X8685000Y-11460500I50000J0D01*
G01*
X8685000Y-11714500D02*
G75*
G02*
X8585000Y-11714500I-50000J0D01*
G01*
X8585000Y-11714500D02*
G75*
G02*
X8685000Y-11714500I50000J0D01*
G01*
X8685000Y-11968500D02*
G75*
G02*
X8585000Y-11968500I-50000J0D01*
G01*
X8585000Y-11968500D02*
G75*
G02*
X8685000Y-11968500I50000J0D01*
G01*
X8685000Y-12222500D02*
G75*
G02*
X8585000Y-12222500I-50000J0D01*
G01*
X8585000Y-12222500D02*
G75*
G02*
X8685000Y-12222500I50000J0D01*
G01*
X8685000Y-12476500D02*
G75*
G02*
X8585000Y-12476500I-50000J0D01*
G01*
X8585000Y-12476500D02*
G75*
G02*
X8685000Y-12476500I50000J0D01*
G01*
X8939000Y-7396500D02*
G75*
G02*
X8839000Y-7396500I-50000J0D01*
G01*
X8839000Y-7396500D02*
G75*
G02*
X8939000Y-7396500I50000J0D01*
G01*
X8939000Y-7650500D02*
G75*
G02*
X8839000Y-7650500I-50000J0D01*
G01*
X8839000Y-7650500D02*
G75*
G02*
X8939000Y-7650500I50000J0D01*
G01*
X8939000Y-7904500D02*
G75*
G02*
X8839000Y-7904500I-50000J0D01*
G01*
X8839000Y-7904500D02*
G75*
G02*
X8939000Y-7904500I50000J0D01*
G01*
X8939000Y-8158500D02*
G75*
G02*
X8839000Y-8158500I-50000J0D01*
G01*
X8839000Y-8158500D02*
G75*
G02*
X8939000Y-8158500I50000J0D01*
G01*
X8939000Y-8412500D02*
G75*
G02*
X8839000Y-8412500I-50000J0D01*
G01*
X8839000Y-8412500D02*
G75*
G02*
X8939000Y-8412500I50000J0D01*
G01*
X8939000Y-8666500D02*
G75*
G02*
X8839000Y-8666500I-50000J0D01*
G01*
X8839000Y-8666500D02*
G75*
G02*
X8939000Y-8666500I50000J0D01*
G01*
X8939000Y-8920500D02*
G75*
G02*
X8839000Y-8920500I-50000J0D01*
G01*
X8839000Y-8920500D02*
G75*
G02*
X8939000Y-8920500I50000J0D01*
G01*
X8939000Y-9174500D02*
G75*
G02*
X8839000Y-9174500I-50000J0D01*
G01*
X8839000Y-9174500D02*
G75*
G02*
X8939000Y-9174500I50000J0D01*
G01*
X8939000Y-9428500D02*
G75*
G02*
X8839000Y-9428500I-50000J0D01*
G01*
X8839000Y-9428500D02*
G75*
G02*
X8939000Y-9428500I50000J0D01*
G01*
X8939000Y-9682500D02*
G75*
G02*
X8839000Y-9682500I-50000J0D01*
G01*
X8839000Y-9682500D02*
G75*
G02*
X8939000Y-9682500I50000J0D01*
G01*
X8939000Y-9936500D02*
G75*
G02*
X8839000Y-9936500I-50000J0D01*
G01*
X8839000Y-9936500D02*
G75*
G02*
X8939000Y-9936500I50000J0D01*
G01*
X8939000Y-10190500D02*
G75*
G02*
X8839000Y-10190500I-50000J0D01*
G01*
X8839000Y-10190500D02*
G75*
G02*
X8939000Y-10190500I50000J0D01*
G01*
X8939000Y-10444500D02*
G75*
G02*
X8839000Y-10444500I-50000J0D01*
G01*
X8839000Y-10444500D02*
G75*
G02*
X8939000Y-10444500I50000J0D01*
G01*
X8939000Y-10698500D02*
G75*
G02*
X8839000Y-10698500I-50000J0D01*
G01*
X8839000Y-10698500D02*
G75*
G02*
X8939000Y-10698500I50000J0D01*
G01*
X8939000Y-10952500D02*
G75*
G02*
X8839000Y-10952500I-50000J0D01*
G01*
X8839000Y-10952500D02*
G75*
G02*
X8939000Y-10952500I50000J0D01*
G01*
X8939000Y-11206500D02*
G75*
G02*
X8839000Y-11206500I-50000J0D01*
G01*
X8839000Y-11206500D02*
G75*
G02*
X8939000Y-11206500I50000J0D01*
G01*
X8939000Y-11460500D02*
G75*
G02*
X8839000Y-11460500I-50000J0D01*
G01*
X8839000Y-11460500D02*
G75*
G02*
X8939000Y-11460500I50000J0D01*
G01*
X8939000Y-11714500D02*
G75*
G02*
X8839000Y-11714500I-50000J0D01*
G01*
X8839000Y-11714500D02*
G75*
G02*
X8939000Y-11714500I50000J0D01*
G01*
X8939000Y-11968500D02*
G75*
G02*
X8839000Y-11968500I-50000J0D01*
G01*
X8839000Y-11968500D02*
G75*
G02*
X8939000Y-11968500I50000J0D01*
G01*
X8939000Y-12222500D02*
G75*
G02*
X8839000Y-12222500I-50000J0D01*
G01*
X8839000Y-12222500D02*
G75*
G02*
X8939000Y-12222500I50000J0D01*
G01*
X8939000Y-12476500D02*
G75*
G02*
X8839000Y-12476500I-50000J0D01*
G01*
X8839000Y-12476500D02*
G75*
G02*
X8939000Y-12476500I50000J0D01*
G01*
X9193000Y-7396500D02*
G75*
G02*
X9093000Y-7396500I-50000J0D01*
G01*
X9093000Y-7396500D02*
G75*
G02*
X9193000Y-7396500I50000J0D01*
G01*
X9193000Y-7650500D02*
G75*
G02*
X9093000Y-7650500I-50000J0D01*
G01*
X9093000Y-7650500D02*
G75*
G02*
X9193000Y-7650500I50000J0D01*
G01*
X9193000Y-7904500D02*
G75*
G02*
X9093000Y-7904500I-50000J0D01*
G01*
X9093000Y-7904500D02*
G75*
G02*
X9193000Y-7904500I50000J0D01*
G01*
X9193000Y-8158500D02*
G75*
G02*
X9093000Y-8158500I-50000J0D01*
G01*
X9093000Y-8158500D02*
G75*
G02*
X9193000Y-8158500I50000J0D01*
G01*
X9193000Y-8412500D02*
G75*
G02*
X9093000Y-8412500I-50000J0D01*
G01*
X9093000Y-8412500D02*
G75*
G02*
X9193000Y-8412500I50000J0D01*
G01*
X9193000Y-8666500D02*
G75*
G02*
X9093000Y-8666500I-50000J0D01*
G01*
X9093000Y-8666500D02*
G75*
G02*
X9193000Y-8666500I50000J0D01*
G01*
X9193000Y-8920500D02*
G75*
G02*
X9093000Y-8920500I-50000J0D01*
G01*
X9093000Y-8920500D02*
G75*
G02*
X9193000Y-8920500I50000J0D01*
G01*
X9193000Y-9174500D02*
G75*
G02*
X9093000Y-9174500I-50000J0D01*
G01*
X9093000Y-9174500D02*
G75*
G02*
X9193000Y-9174500I50000J0D01*
G01*
X9193000Y-9428500D02*
G75*
G02*
X9093000Y-9428500I-50000J0D01*
G01*
X9093000Y-9428500D02*
G75*
G02*
X9193000Y-9428500I50000J0D01*
G01*
X9193000Y-9682500D02*
G75*
G02*
X9093000Y-9682500I-50000J0D01*
G01*
X9093000Y-9682500D02*
G75*
G02*
X9193000Y-9682500I50000J0D01*
G01*
X9193000Y-9936500D02*
G75*
G02*
X9093000Y-9936500I-50000J0D01*
G01*
X9093000Y-9936500D02*
G75*
G02*
X9193000Y-9936500I50000J0D01*
G01*
X9193000Y-10190500D02*
G75*
G02*
X9093000Y-10190500I-50000J0D01*
G01*
X9093000Y-10190500D02*
G75*
G02*
X9193000Y-10190500I50000J0D01*
G01*
X9193000Y-10444500D02*
G75*
G02*
X9093000Y-10444500I-50000J0D01*
G01*
X9093000Y-10444500D02*
G75*
G02*
X9193000Y-10444500I50000J0D01*
G01*
X9193000Y-10698500D02*
G75*
G02*
X9093000Y-10698500I-50000J0D01*
G01*
X9093000Y-10698500D02*
G75*
G02*
X9193000Y-10698500I50000J0D01*
G01*
X9193000Y-10952500D02*
G75*
G02*
X9093000Y-10952500I-50000J0D01*
G01*
X9093000Y-10952500D02*
G75*
G02*
X9193000Y-10952500I50000J0D01*
G01*
X9193000Y-11206500D02*
G75*
G02*
X9093000Y-11206500I-50000J0D01*
G01*
X9093000Y-11206500D02*
G75*
G02*
X9193000Y-11206500I50000J0D01*
G01*
X9193000Y-11460500D02*
G75*
G02*
X9093000Y-11460500I-50000J0D01*
G01*
X9093000Y-11460500D02*
G75*
G02*
X9193000Y-11460500I50000J0D01*
G01*
X9193000Y-11714500D02*
G75*
G02*
X9093000Y-11714500I-50000J0D01*
G01*
X9093000Y-11714500D02*
G75*
G02*
X9193000Y-11714500I50000J0D01*
G01*
X9193000Y-11968500D02*
G75*
G02*
X9093000Y-11968500I-50000J0D01*
G01*
X9093000Y-11968500D02*
G75*
G02*
X9193000Y-11968500I50000J0D01*
G01*
X9193000Y-12222500D02*
G75*
G02*
X9093000Y-12222500I-50000J0D01*
G01*
X9093000Y-12222500D02*
G75*
G02*
X9193000Y-12222500I50000J0D01*
G01*
X9193000Y-12476500D02*
G75*
G02*
X9093000Y-12476500I-50000J0D01*
G01*
X9093000Y-12476500D02*
G75*
G02*
X9193000Y-12476500I50000J0D01*
G01*
X9447000Y-7396500D02*
G75*
G02*
X9347000Y-7396500I-50000J0D01*
G01*
X9347000Y-7396500D02*
G75*
G02*
X9447000Y-7396500I50000J0D01*
G01*
X9447000Y-7650500D02*
G75*
G02*
X9347000Y-7650500I-50000J0D01*
G01*
X9347000Y-7650500D02*
G75*
G02*
X9447000Y-7650500I50000J0D01*
G01*
X9447000Y-7904500D02*
G75*
G02*
X9347000Y-7904500I-50000J0D01*
G01*
X9347000Y-7904500D02*
G75*
G02*
X9447000Y-7904500I50000J0D01*
G01*
X9447000Y-8158500D02*
G75*
G02*
X9347000Y-8158500I-50000J0D01*
G01*
X9347000Y-8158500D02*
G75*
G02*
X9447000Y-8158500I50000J0D01*
G01*
X9447000Y-8412500D02*
G75*
G02*
X9347000Y-8412500I-50000J0D01*
G01*
X9347000Y-8412500D02*
G75*
G02*
X9447000Y-8412500I50000J0D01*
G01*
X9447000Y-8666500D02*
G75*
G02*
X9347000Y-8666500I-50000J0D01*
G01*
X9347000Y-8666500D02*
G75*
G02*
X9447000Y-8666500I50000J0D01*
G01*
X9447000Y-8920500D02*
G75*
G02*
X9347000Y-8920500I-50000J0D01*
G01*
X9347000Y-8920500D02*
G75*
G02*
X9447000Y-8920500I50000J0D01*
G01*
X9447000Y-9174500D02*
G75*
G02*
X9347000Y-9174500I-50000J0D01*
G01*
X9347000Y-9174500D02*
G75*
G02*
X9447000Y-9174500I50000J0D01*
G01*
X9447000Y-9428500D02*
G75*
G02*
X9347000Y-9428500I-50000J0D01*
G01*
X9347000Y-9428500D02*
G75*
G02*
X9447000Y-9428500I50000J0D01*
G01*
X9447000Y-9682500D02*
G75*
G02*
X9347000Y-9682500I-50000J0D01*
G01*
X9347000Y-9682500D02*
G75*
G02*
X9447000Y-9682500I50000J0D01*
G01*
X9447000Y-9936500D02*
G75*
G02*
X9347000Y-9936500I-50000J0D01*
G01*
X9347000Y-9936500D02*
G75*
G02*
X9447000Y-9936500I50000J0D01*
G01*
X9447000Y-10190500D02*
G75*
G02*
X9347000Y-10190500I-50000J0D01*
G01*
X9347000Y-10190500D02*
G75*
G02*
X9447000Y-10190500I50000J0D01*
G01*
X9447000Y-10444500D02*
G75*
G02*
X9347000Y-10444500I-50000J0D01*
G01*
X9347000Y-10444500D02*
G75*
G02*
X9447000Y-10444500I50000J0D01*
G01*
X9447000Y-10698500D02*
G75*
G02*
X9347000Y-10698500I-50000J0D01*
G01*
X9347000Y-10698500D02*
G75*
G02*
X9447000Y-10698500I50000J0D01*
G01*
X9447000Y-10952500D02*
G75*
G02*
X9347000Y-10952500I-50000J0D01*
G01*
X9347000Y-10952500D02*
G75*
G02*
X9447000Y-10952500I50000J0D01*
G01*
X9447000Y-11206500D02*
G75*
G02*
X9347000Y-11206500I-50000J0D01*
G01*
X9347000Y-11206500D02*
G75*
G02*
X9447000Y-11206500I50000J0D01*
G01*
X9447000Y-11460500D02*
G75*
G02*
X9347000Y-11460500I-50000J0D01*
G01*
X9347000Y-11460500D02*
G75*
G02*
X9447000Y-11460500I50000J0D01*
G01*
X9447000Y-11714500D02*
G75*
G02*
X9347000Y-11714500I-50000J0D01*
G01*
X9347000Y-11714500D02*
G75*
G02*
X9447000Y-11714500I50000J0D01*
G01*
X9447000Y-11968500D02*
G75*
G02*
X9347000Y-11968500I-50000J0D01*
G01*
X9347000Y-11968500D02*
G75*
G02*
X9447000Y-11968500I50000J0D01*
G01*
X9447000Y-12222500D02*
G75*
G02*
X9347000Y-12222500I-50000J0D01*
G01*
X9347000Y-12222500D02*
G75*
G02*
X9447000Y-12222500I50000J0D01*
G01*
X9447000Y-12476500D02*
G75*
G02*
X9347000Y-12476500I-50000J0D01*
G01*
X9347000Y-12476500D02*
G75*
G02*
X9447000Y-12476500I50000J0D01*
G01*
X9701000Y-7396500D02*
G75*
G02*
X9601000Y-7396500I-50000J0D01*
G01*
X9601000Y-7396500D02*
G75*
G02*
X9701000Y-7396500I50000J0D01*
G01*
X9701000Y-7650500D02*
G75*
G02*
X9601000Y-7650500I-50000J0D01*
G01*
X9601000Y-7650500D02*
G75*
G02*
X9701000Y-7650500I50000J0D01*
G01*
X9701000Y-7904500D02*
G75*
G02*
X9601000Y-7904500I-50000J0D01*
G01*
X9601000Y-7904500D02*
G75*
G02*
X9701000Y-7904500I50000J0D01*
G01*
X9701000Y-8158500D02*
G75*
G02*
X9601000Y-8158500I-50000J0D01*
G01*
X9601000Y-8158500D02*
G75*
G02*
X9701000Y-8158500I50000J0D01*
G01*
X9701000Y-8920500D02*
G75*
G02*
X9601000Y-8920500I-50000J0D01*
G01*
X9601000Y-8920500D02*
G75*
G02*
X9701000Y-8920500I50000J0D01*
G01*
X9701000Y-9174500D02*
G75*
G02*
X9601000Y-9174500I-50000J0D01*
G01*
X9601000Y-9174500D02*
G75*
G02*
X9701000Y-9174500I50000J0D01*
G01*
X9701000Y-9428500D02*
G75*
G02*
X9601000Y-9428500I-50000J0D01*
G01*
X9601000Y-9428500D02*
G75*
G02*
X9701000Y-9428500I50000J0D01*
G01*
X9701000Y-9682500D02*
G75*
G02*
X9601000Y-9682500I-50000J0D01*
G01*
X9601000Y-9682500D02*
G75*
G02*
X9701000Y-9682500I50000J0D01*
G01*
X9701000Y-9936500D02*
G75*
G02*
X9601000Y-9936500I-50000J0D01*
G01*
X9601000Y-9936500D02*
G75*
G02*
X9701000Y-9936500I50000J0D01*
G01*
X9701000Y-10698500D02*
G75*
G02*
X9601000Y-10698500I-50000J0D01*
G01*
X9601000Y-10698500D02*
G75*
G02*
X9701000Y-10698500I50000J0D01*
G01*
X9701000Y-10952500D02*
G75*
G02*
X9601000Y-10952500I-50000J0D01*
G01*
X9601000Y-10952500D02*
G75*
G02*
X9701000Y-10952500I50000J0D01*
G01*
X9701000Y-11206500D02*
G75*
G02*
X9601000Y-11206500I-50000J0D01*
G01*
X9601000Y-11206500D02*
G75*
G02*
X9701000Y-11206500I50000J0D01*
G01*
X9701000Y-11460500D02*
G75*
G02*
X9601000Y-11460500I-50000J0D01*
G01*
X9601000Y-11460500D02*
G75*
G02*
X9701000Y-11460500I50000J0D01*
G01*
X9701000Y-11714500D02*
G75*
G02*
X9601000Y-11714500I-50000J0D01*
G01*
X9601000Y-11714500D02*
G75*
G02*
X9701000Y-11714500I50000J0D01*
G01*
X9701000Y-11968500D02*
G75*
G02*
X9601000Y-11968500I-50000J0D01*
G01*
X9601000Y-11968500D02*
G75*
G02*
X9701000Y-11968500I50000J0D01*
G01*
X9701000Y-12222500D02*
G75*
G02*
X9601000Y-12222500I-50000J0D01*
G01*
X9601000Y-12222500D02*
G75*
G02*
X9701000Y-12222500I50000J0D01*
G01*
X9701000Y-12476500D02*
G75*
G02*
X9601000Y-12476500I-50000J0D01*
G01*
X9601000Y-12476500D02*
G75*
G02*
X9701000Y-12476500I50000J0D01*
G01*
X9955000Y-7396500D02*
G75*
G02*
X9855000Y-7396500I-50000J0D01*
G01*
X9855000Y-7396500D02*
G75*
G02*
X9955000Y-7396500I50000J0D01*
G01*
X9955000Y-7650500D02*
G75*
G02*
X9855000Y-7650500I-50000J0D01*
G01*
X9855000Y-7650500D02*
G75*
G02*
X9955000Y-7650500I50000J0D01*
G01*
X9955000Y-7904500D02*
G75*
G02*
X9855000Y-7904500I-50000J0D01*
G01*
X9855000Y-7904500D02*
G75*
G02*
X9955000Y-7904500I50000J0D01*
G01*
X9955000Y-8158500D02*
G75*
G02*
X9855000Y-8158500I-50000J0D01*
G01*
X9855000Y-8158500D02*
G75*
G02*
X9955000Y-8158500I50000J0D01*
G01*
X9955000Y-11714500D02*
G75*
G02*
X9855000Y-11714500I-50000J0D01*
G01*
X9855000Y-11714500D02*
G75*
G02*
X9955000Y-11714500I50000J0D01*
G01*
X9955000Y-11968500D02*
G75*
G02*
X9855000Y-11968500I-50000J0D01*
G01*
X9855000Y-11968500D02*
G75*
G02*
X9955000Y-11968500I50000J0D01*
G01*
X9955000Y-12222500D02*
G75*
G02*
X9855000Y-12222500I-50000J0D01*
G01*
X9855000Y-12222500D02*
G75*
G02*
X9955000Y-12222500I50000J0D01*
G01*
X9955000Y-12476500D02*
G75*
G02*
X9855000Y-12476500I-50000J0D01*
G01*
X9855000Y-12476500D02*
G75*
G02*
X9955000Y-12476500I50000J0D01*
G01*
X10209000Y-7396500D02*
G75*
G02*
X10109000Y-7396500I-50000J0D01*
G01*
X10109000Y-7396500D02*
G75*
G02*
X10209000Y-7396500I50000J0D01*
G01*
X10209000Y-7650500D02*
G75*
G02*
X10109000Y-7650500I-50000J0D01*
G01*
X10109000Y-7650500D02*
G75*
G02*
X10209000Y-7650500I50000J0D01*
G01*
X10209000Y-7904500D02*
G75*
G02*
X10109000Y-7904500I-50000J0D01*
G01*
X10109000Y-7904500D02*
G75*
G02*
X10209000Y-7904500I50000J0D01*
G01*
X10209000Y-8158500D02*
G75*
G02*
X10109000Y-8158500I-50000J0D01*
G01*
X10109000Y-8158500D02*
G75*
G02*
X10209000Y-8158500I50000J0D01*
G01*
X10209000Y-11714500D02*
G75*
G02*
X10109000Y-11714500I-50000J0D01*
G01*
X10109000Y-11714500D02*
G75*
G02*
X10209000Y-11714500I50000J0D01*
G01*
X10209000Y-11968500D02*
G75*
G02*
X10109000Y-11968500I-50000J0D01*
G01*
X10109000Y-11968500D02*
G75*
G02*
X10209000Y-11968500I50000J0D01*
G01*
X10209000Y-12222500D02*
G75*
G02*
X10109000Y-12222500I-50000J0D01*
G01*
X10109000Y-12222500D02*
G75*
G02*
X10209000Y-12222500I50000J0D01*
G01*
X10209000Y-12476500D02*
G75*
G02*
X10109000Y-12476500I-50000J0D01*
G01*
X10109000Y-12476500D02*
G75*
G02*
X10209000Y-12476500I50000J0D01*
G01*
X10463000Y-7396500D02*
G75*
G02*
X10363000Y-7396500I-50000J0D01*
G01*
X10363000Y-7396500D02*
G75*
G02*
X10463000Y-7396500I50000J0D01*
G01*
X10463000Y-7650500D02*
G75*
G02*
X10363000Y-7650500I-50000J0D01*
G01*
X10363000Y-7650500D02*
G75*
G02*
X10463000Y-7650500I50000J0D01*
G01*
X10463000Y-7904500D02*
G75*
G02*
X10363000Y-7904500I-50000J0D01*
G01*
X10363000Y-7904500D02*
G75*
G02*
X10463000Y-7904500I50000J0D01*
G01*
X10463000Y-8158500D02*
G75*
G02*
X10363000Y-8158500I-50000J0D01*
G01*
X10363000Y-8158500D02*
G75*
G02*
X10463000Y-8158500I50000J0D01*
G01*
X10463000Y-11714500D02*
G75*
G02*
X10363000Y-11714500I-50000J0D01*
G01*
X10363000Y-11714500D02*
G75*
G02*
X10463000Y-11714500I50000J0D01*
G01*
X10463000Y-11968500D02*
G75*
G02*
X10363000Y-11968500I-50000J0D01*
G01*
X10363000Y-11968500D02*
G75*
G02*
X10463000Y-11968500I50000J0D01*
G01*
X10463000Y-12222500D02*
G75*
G02*
X10363000Y-12222500I-50000J0D01*
G01*
X10363000Y-12222500D02*
G75*
G02*
X10463000Y-12222500I50000J0D01*
G01*
X10463000Y-12476500D02*
G75*
G02*
X10363000Y-12476500I-50000J0D01*
G01*
X10363000Y-12476500D02*
G75*
G02*
X10463000Y-12476500I50000J0D01*
G01*
X10717000Y-7396500D02*
G75*
G02*
X10617000Y-7396500I-50000J0D01*
G01*
X10617000Y-7396500D02*
G75*
G02*
X10717000Y-7396500I50000J0D01*
G01*
X10717000Y-7650500D02*
G75*
G02*
X10617000Y-7650500I-50000J0D01*
G01*
X10617000Y-7650500D02*
G75*
G02*
X10717000Y-7650500I50000J0D01*
G01*
X10717000Y-7904500D02*
G75*
G02*
X10617000Y-7904500I-50000J0D01*
G01*
X10617000Y-7904500D02*
G75*
G02*
X10717000Y-7904500I50000J0D01*
G01*
X10717000Y-8158500D02*
G75*
G02*
X10617000Y-8158500I-50000J0D01*
G01*
X10617000Y-8158500D02*
G75*
G02*
X10717000Y-8158500I50000J0D01*
G01*
X10717000Y-11714500D02*
G75*
G02*
X10617000Y-11714500I-50000J0D01*
G01*
X10617000Y-11714500D02*
G75*
G02*
X10717000Y-11714500I50000J0D01*
G01*
X10717000Y-11968500D02*
G75*
G02*
X10617000Y-11968500I-50000J0D01*
G01*
X10617000Y-11968500D02*
G75*
G02*
X10717000Y-11968500I50000J0D01*
G01*
X10717000Y-12222500D02*
G75*
G02*
X10617000Y-12222500I-50000J0D01*
G01*
X10617000Y-12222500D02*
G75*
G02*
X10717000Y-12222500I50000J0D01*
G01*
X10717000Y-12476500D02*
G75*
G02*
X10617000Y-12476500I-50000J0D01*
G01*
X10617000Y-12476500D02*
G75*
G02*
X10717000Y-12476500I50000J0D01*
G01*
X10971000Y-7396500D02*
G75*
G02*
X10871000Y-7396500I-50000J0D01*
G01*
X10871000Y-7396500D02*
G75*
G02*
X10971000Y-7396500I50000J0D01*
G01*
X10971000Y-7650500D02*
G75*
G02*
X10871000Y-7650500I-50000J0D01*
G01*
X10871000Y-7650500D02*
G75*
G02*
X10971000Y-7650500I50000J0D01*
G01*
X10971000Y-7904500D02*
G75*
G02*
X10871000Y-7904500I-50000J0D01*
G01*
X10871000Y-7904500D02*
G75*
G02*
X10971000Y-7904500I50000J0D01*
G01*
X10971000Y-8158500D02*
G75*
G02*
X10871000Y-8158500I-50000J0D01*
G01*
X10871000Y-8158500D02*
G75*
G02*
X10971000Y-8158500I50000J0D01*
G01*
X10971000Y-11714500D02*
G75*
G02*
X10871000Y-11714500I-50000J0D01*
G01*
X10871000Y-11714500D02*
G75*
G02*
X10971000Y-11714500I50000J0D01*
G01*
X10971000Y-11968500D02*
G75*
G02*
X10871000Y-11968500I-50000J0D01*
G01*
X10871000Y-11968500D02*
G75*
G02*
X10971000Y-11968500I50000J0D01*
G01*
X10971000Y-12222500D02*
G75*
G02*
X10871000Y-12222500I-50000J0D01*
G01*
X10871000Y-12222500D02*
G75*
G02*
X10971000Y-12222500I50000J0D01*
G01*
X10971000Y-12476500D02*
G75*
G02*
X10871000Y-12476500I-50000J0D01*
G01*
X10871000Y-12476500D02*
G75*
G02*
X10971000Y-12476500I50000J0D01*
G01*
X11225000Y-7396500D02*
G75*
G02*
X11125000Y-7396500I-50000J0D01*
G01*
X11125000Y-7396500D02*
G75*
G02*
X11225000Y-7396500I50000J0D01*
G01*
X11225000Y-7650500D02*
G75*
G02*
X11125000Y-7650500I-50000J0D01*
G01*
X11125000Y-7650500D02*
G75*
G02*
X11225000Y-7650500I50000J0D01*
G01*
X11225000Y-7904500D02*
G75*
G02*
X11125000Y-7904500I-50000J0D01*
G01*
X11125000Y-7904500D02*
G75*
G02*
X11225000Y-7904500I50000J0D01*
G01*
X11225000Y-8158500D02*
G75*
G02*
X11125000Y-8158500I-50000J0D01*
G01*
X11125000Y-8158500D02*
G75*
G02*
X11225000Y-8158500I50000J0D01*
G01*
X11225000Y-11714500D02*
G75*
G02*
X11125000Y-11714500I-50000J0D01*
G01*
X11125000Y-11714500D02*
G75*
G02*
X11225000Y-11714500I50000J0D01*
G01*
X11225000Y-11968500D02*
G75*
G02*
X11125000Y-11968500I-50000J0D01*
G01*
X11125000Y-11968500D02*
G75*
G02*
X11225000Y-11968500I50000J0D01*
G01*
X11225000Y-12222500D02*
G75*
G02*
X11125000Y-12222500I-50000J0D01*
G01*
X11125000Y-12222500D02*
G75*
G02*
X11225000Y-12222500I50000J0D01*
G01*
X11225000Y-12476500D02*
G75*
G02*
X11125000Y-12476500I-50000J0D01*
G01*
X11125000Y-12476500D02*
G75*
G02*
X11225000Y-12476500I50000J0D01*
G01*
D10*
X8462277Y-14171484D02*
X8462277Y-13971484D01*
X8462277Y-13971484D02*
X8509896Y-13971484D01*
X8509896Y-13971484D02*
X8538467Y-13981008D01*
X8538467Y-13981008D02*
X8557515Y-14000055D01*
X8557515Y-14000055D02*
X8567039Y-14019103D01*
X8567039Y-14019103D02*
X8576563Y-14057198D01*
X8576563Y-14057198D02*
X8576563Y-14085769D01*
X8576563Y-14085769D02*
X8567039Y-14123865D01*
X8567039Y-14123865D02*
X8557515Y-14142912D01*
X8557515Y-14142912D02*
X8538467Y-14161960D01*
X8538467Y-14161960D02*
X8509896Y-14171484D01*
X8509896Y-14171484D02*
X8462277Y-14171484D01*
X8662277Y-14171484D02*
X8662277Y-14038150D01*
X8662277Y-14076246D02*
X8671801Y-14057198D01*
X8671801Y-14057198D02*
X8681324Y-14047674D01*
X8681324Y-14047674D02*
X8700372Y-14038150D01*
X8700372Y-14038150D02*
X8719420Y-14038150D01*
X8786086Y-14171484D02*
X8786086Y-14038150D01*
X8786086Y-13971484D02*
X8776563Y-13981008D01*
X8776563Y-13981008D02*
X8786086Y-13990531D01*
X8786086Y-13990531D02*
X8795610Y-13981008D01*
X8795610Y-13981008D02*
X8786086Y-13971484D01*
X8786086Y-13971484D02*
X8786086Y-13990531D01*
X8909896Y-14171484D02*
X8890848Y-14161960D01*
X8890848Y-14161960D02*
X8881324Y-14142912D01*
X8881324Y-14142912D02*
X8881324Y-13971484D01*
X9014658Y-14171484D02*
X8995610Y-14161960D01*
X8995610Y-14161960D02*
X8986086Y-14142912D01*
X8986086Y-14142912D02*
X8986086Y-13971484D01*
X9243229Y-14171484D02*
X9243229Y-13971484D01*
X9243229Y-13971484D02*
X9309896Y-14114341D01*
X9309896Y-14114341D02*
X9376563Y-13971484D01*
X9376563Y-13971484D02*
X9376563Y-14171484D01*
X9557515Y-14171484D02*
X9557515Y-14066722D01*
X9557515Y-14066722D02*
X9547991Y-14047674D01*
X9547991Y-14047674D02*
X9528944Y-14038150D01*
X9528944Y-14038150D02*
X9490848Y-14038150D01*
X9490848Y-14038150D02*
X9471801Y-14047674D01*
X9557515Y-14161960D02*
X9538467Y-14171484D01*
X9538467Y-14171484D02*
X9490848Y-14171484D01*
X9490848Y-14171484D02*
X9471801Y-14161960D01*
X9471801Y-14161960D02*
X9462277Y-14142912D01*
X9462277Y-14142912D02*
X9462277Y-14123865D01*
X9462277Y-14123865D02*
X9471801Y-14104817D01*
X9471801Y-14104817D02*
X9490848Y-14095293D01*
X9490848Y-14095293D02*
X9538467Y-14095293D01*
X9538467Y-14095293D02*
X9557515Y-14085769D01*
X9652753Y-14038150D02*
X9652753Y-14238150D01*
X9652753Y-14047674D02*
X9671801Y-14038150D01*
X9671801Y-14038150D02*
X9709896Y-14038150D01*
X9709896Y-14038150D02*
X9728944Y-14047674D01*
X9728944Y-14047674D02*
X9738467Y-14057198D01*
X9738467Y-14057198D02*
X9747991Y-14076246D01*
X9747991Y-14076246D02*
X9747991Y-14133388D01*
X9747991Y-14133388D02*
X9738467Y-14152436D01*
X9738467Y-14152436D02*
X9728944Y-14161960D01*
X9728944Y-14161960D02*
X9709896Y-14171484D01*
X9709896Y-14171484D02*
X9671801Y-14171484D01*
X9671801Y-14171484D02*
X9652753Y-14161960D01*
X9833705Y-14152436D02*
X9843229Y-14161960D01*
X9843229Y-14161960D02*
X9833705Y-14171484D01*
X9833705Y-14171484D02*
X9824182Y-14161960D01*
X9824182Y-14161960D02*
X9833705Y-14152436D01*
X9833705Y-14152436D02*
X9833705Y-14171484D01*
X9833705Y-14047674D02*
X9843229Y-14057198D01*
X9843229Y-14057198D02*
X9833705Y-14066722D01*
X9833705Y-14066722D02*
X9824182Y-14057198D01*
X9824182Y-14057198D02*
X9833705Y-14047674D01*
X9833705Y-14047674D02*
X9833705Y-14066722D01*
D11*
X8161500Y-14480000D02*
X8201500Y-14520000D01*
X8201500Y-14480000D02*
X8161500Y-14520000D01*
D10*
X8500372Y-14391484D02*
X8519420Y-14391484D01*
X8519420Y-14391484D02*
X8538467Y-14401008D01*
X8538467Y-14401008D02*
X8547991Y-14410531D01*
X8547991Y-14410531D02*
X8557515Y-14429579D01*
X8557515Y-14429579D02*
X8567039Y-14467674D01*
X8567039Y-14467674D02*
X8567039Y-14515293D01*
X8567039Y-14515293D02*
X8557515Y-14553388D01*
X8557515Y-14553388D02*
X8547991Y-14572436D01*
X8547991Y-14572436D02*
X8538467Y-14581960D01*
X8538467Y-14581960D02*
X8519420Y-14591484D01*
X8519420Y-14591484D02*
X8500372Y-14591484D01*
X8500372Y-14591484D02*
X8481324Y-14581960D01*
X8481324Y-14581960D02*
X8471801Y-14572436D01*
X8471801Y-14572436D02*
X8462277Y-14553388D01*
X8462277Y-14553388D02*
X8452753Y-14515293D01*
X8452753Y-14515293D02*
X8452753Y-14467674D01*
X8452753Y-14467674D02*
X8462277Y-14429579D01*
X8462277Y-14429579D02*
X8471801Y-14410531D01*
X8471801Y-14410531D02*
X8481324Y-14401008D01*
X8481324Y-14401008D02*
X8500372Y-14391484D01*
X8652753Y-14572436D02*
X8662277Y-14581960D01*
X8662277Y-14581960D02*
X8652753Y-14591484D01*
X8652753Y-14591484D02*
X8643229Y-14581960D01*
X8643229Y-14581960D02*
X8652753Y-14572436D01*
X8652753Y-14572436D02*
X8652753Y-14591484D01*
X8833705Y-14458150D02*
X8833705Y-14591484D01*
X8786086Y-14381960D02*
X8738467Y-14524817D01*
X8738467Y-14524817D02*
X8862277Y-14524817D01*
X8976563Y-14391484D02*
X8995610Y-14391484D01*
X8995610Y-14391484D02*
X9014658Y-14401008D01*
X9014658Y-14401008D02*
X9024182Y-14410531D01*
X9024182Y-14410531D02*
X9033705Y-14429579D01*
X9033705Y-14429579D02*
X9043229Y-14467674D01*
X9043229Y-14467674D02*
X9043229Y-14515293D01*
X9043229Y-14515293D02*
X9033705Y-14553388D01*
X9033705Y-14553388D02*
X9024182Y-14572436D01*
X9024182Y-14572436D02*
X9014658Y-14581960D01*
X9014658Y-14581960D02*
X8995610Y-14591484D01*
X8995610Y-14591484D02*
X8976563Y-14591484D01*
X8976563Y-14591484D02*
X8957515Y-14581960D01*
X8957515Y-14581960D02*
X8947991Y-14572436D01*
X8947991Y-14572436D02*
X8938467Y-14553388D01*
X8938467Y-14553388D02*
X8928944Y-14515293D01*
X8928944Y-14515293D02*
X8928944Y-14467674D01*
X8928944Y-14467674D02*
X8938467Y-14429579D01*
X8938467Y-14429579D02*
X8947991Y-14410531D01*
X8947991Y-14410531D02*
X8957515Y-14401008D01*
X8957515Y-14401008D02*
X8976563Y-14391484D01*
X9167039Y-14391484D02*
X9186086Y-14391484D01*
X9186086Y-14391484D02*
X9205134Y-14401008D01*
X9205134Y-14401008D02*
X9214658Y-14410531D01*
X9214658Y-14410531D02*
X9224182Y-14429579D01*
X9224182Y-14429579D02*
X9233705Y-14467674D01*
X9233705Y-14467674D02*
X9233705Y-14515293D01*
X9233705Y-14515293D02*
X9224182Y-14553388D01*
X9224182Y-14553388D02*
X9214658Y-14572436D01*
X9214658Y-14572436D02*
X9205134Y-14581960D01*
X9205134Y-14581960D02*
X9186086Y-14591484D01*
X9186086Y-14591484D02*
X9167039Y-14591484D01*
X9167039Y-14591484D02*
X9147991Y-14581960D01*
X9147991Y-14581960D02*
X9138467Y-14572436D01*
X9138467Y-14572436D02*
X9128944Y-14553388D01*
X9128944Y-14553388D02*
X9119420Y-14515293D01*
X9119420Y-14515293D02*
X9119420Y-14467674D01*
X9119420Y-14467674D02*
X9128944Y-14429579D01*
X9128944Y-14429579D02*
X9138467Y-14410531D01*
X9138467Y-14410531D02*
X9147991Y-14401008D01*
X9147991Y-14401008D02*
X9167039Y-14391484D01*
X9319420Y-14591484D02*
X9319420Y-14458150D01*
X9319420Y-14477198D02*
X9328944Y-14467674D01*
X9328944Y-14467674D02*
X9347991Y-14458150D01*
X9347991Y-14458150D02*
X9376563Y-14458150D01*
X9376563Y-14458150D02*
X9395610Y-14467674D01*
X9395610Y-14467674D02*
X9405134Y-14486722D01*
X9405134Y-14486722D02*
X9405134Y-14591484D01*
X9405134Y-14486722D02*
X9414658Y-14467674D01*
X9414658Y-14467674D02*
X9433705Y-14458150D01*
X9433705Y-14458150D02*
X9462277Y-14458150D01*
X9462277Y-14458150D02*
X9481325Y-14467674D01*
X9481325Y-14467674D02*
X9490848Y-14486722D01*
X9490848Y-14486722D02*
X9490848Y-14591484D01*
X9586086Y-14591484D02*
X9586086Y-14458150D01*
X9586086Y-14477198D02*
X9595610Y-14467674D01*
X9595610Y-14467674D02*
X9614658Y-14458150D01*
X9614658Y-14458150D02*
X9643229Y-14458150D01*
X9643229Y-14458150D02*
X9662277Y-14467674D01*
X9662277Y-14467674D02*
X9671801Y-14486722D01*
X9671801Y-14486722D02*
X9671801Y-14591484D01*
X9671801Y-14486722D02*
X9681325Y-14467674D01*
X9681325Y-14467674D02*
X9700372Y-14458150D01*
X9700372Y-14458150D02*
X9728944Y-14458150D01*
X9728944Y-14458150D02*
X9747991Y-14467674D01*
X9747991Y-14467674D02*
X9757515Y-14486722D01*
X9757515Y-14486722D02*
X9757515Y-14591484D01*
X10147991Y-14381960D02*
X9976563Y-14639103D01*
X10405134Y-14391484D02*
X10424182Y-14391484D01*
X10424182Y-14391484D02*
X10443229Y-14401008D01*
X10443229Y-14401008D02*
X10452753Y-14410531D01*
X10452753Y-14410531D02*
X10462277Y-14429579D01*
X10462277Y-14429579D02*
X10471801Y-14467674D01*
X10471801Y-14467674D02*
X10471801Y-14515293D01*
X10471801Y-14515293D02*
X10462277Y-14553388D01*
X10462277Y-14553388D02*
X10452753Y-14572436D01*
X10452753Y-14572436D02*
X10443229Y-14581960D01*
X10443229Y-14581960D02*
X10424182Y-14591484D01*
X10424182Y-14591484D02*
X10405134Y-14591484D01*
X10405134Y-14591484D02*
X10386087Y-14581960D01*
X10386087Y-14581960D02*
X10376563Y-14572436D01*
X10376563Y-14572436D02*
X10367039Y-14553388D01*
X10367039Y-14553388D02*
X10357515Y-14515293D01*
X10357515Y-14515293D02*
X10357515Y-14467674D01*
X10357515Y-14467674D02*
X10367039Y-14429579D01*
X10367039Y-14429579D02*
X10376563Y-14410531D01*
X10376563Y-14410531D02*
X10386087Y-14401008D01*
X10386087Y-14401008D02*
X10405134Y-14391484D01*
X10557515Y-14572436D02*
X10567039Y-14581960D01*
X10567039Y-14581960D02*
X10557515Y-14591484D01*
X10557515Y-14591484D02*
X10547991Y-14581960D01*
X10547991Y-14581960D02*
X10557515Y-14572436D01*
X10557515Y-14572436D02*
X10557515Y-14591484D01*
X10690848Y-14391484D02*
X10709896Y-14391484D01*
X10709896Y-14391484D02*
X10728944Y-14401008D01*
X10728944Y-14401008D02*
X10738468Y-14410531D01*
X10738468Y-14410531D02*
X10747991Y-14429579D01*
X10747991Y-14429579D02*
X10757515Y-14467674D01*
X10757515Y-14467674D02*
X10757515Y-14515293D01*
X10757515Y-14515293D02*
X10747991Y-14553388D01*
X10747991Y-14553388D02*
X10738468Y-14572436D01*
X10738468Y-14572436D02*
X10728944Y-14581960D01*
X10728944Y-14581960D02*
X10709896Y-14591484D01*
X10709896Y-14591484D02*
X10690848Y-14591484D01*
X10690848Y-14591484D02*
X10671801Y-14581960D01*
X10671801Y-14581960D02*
X10662277Y-14572436D01*
X10662277Y-14572436D02*
X10652753Y-14553388D01*
X10652753Y-14553388D02*
X10643229Y-14515293D01*
X10643229Y-14515293D02*
X10643229Y-14467674D01*
X10643229Y-14467674D02*
X10652753Y-14429579D01*
X10652753Y-14429579D02*
X10662277Y-14410531D01*
X10662277Y-14410531D02*
X10671801Y-14401008D01*
X10671801Y-14401008D02*
X10690848Y-14391484D01*
X10947991Y-14591484D02*
X10833706Y-14591484D01*
X10890848Y-14591484D02*
X10890848Y-14391484D01*
X10890848Y-14391484D02*
X10871801Y-14420055D01*
X10871801Y-14420055D02*
X10852753Y-14439103D01*
X10852753Y-14439103D02*
X10833706Y-14448627D01*
X11128944Y-14391484D02*
X11033706Y-14391484D01*
X11033706Y-14391484D02*
X11024182Y-14486722D01*
X11024182Y-14486722D02*
X11033706Y-14477198D01*
X11033706Y-14477198D02*
X11052753Y-14467674D01*
X11052753Y-14467674D02*
X11100372Y-14467674D01*
X11100372Y-14467674D02*
X11119420Y-14477198D01*
X11119420Y-14477198D02*
X11128944Y-14486722D01*
X11128944Y-14486722D02*
X11138468Y-14505769D01*
X11138468Y-14505769D02*
X11138468Y-14553388D01*
X11138468Y-14553388D02*
X11128944Y-14572436D01*
X11128944Y-14572436D02*
X11119420Y-14581960D01*
X11119420Y-14581960D02*
X11100372Y-14591484D01*
X11100372Y-14591484D02*
X11052753Y-14591484D01*
X11052753Y-14591484D02*
X11033706Y-14581960D01*
X11033706Y-14581960D02*
X11024182Y-14572436D01*
X11205134Y-14391484D02*
X11338467Y-14391484D01*
X11338467Y-14391484D02*
X11252753Y-14591484D01*
X11405134Y-14391484D02*
X11405134Y-14429579D01*
X11481325Y-14391484D02*
X11481325Y-14429579D01*
X11776563Y-14667674D02*
X11767039Y-14658150D01*
X11767039Y-14658150D02*
X11747991Y-14629579D01*
X11747991Y-14629579D02*
X11738468Y-14610531D01*
X11738468Y-14610531D02*
X11728944Y-14581960D01*
X11728944Y-14581960D02*
X11719420Y-14534341D01*
X11719420Y-14534341D02*
X11719420Y-14496246D01*
X11719420Y-14496246D02*
X11728944Y-14448627D01*
X11728944Y-14448627D02*
X11738468Y-14420055D01*
X11738468Y-14420055D02*
X11747991Y-14401008D01*
X11747991Y-14401008D02*
X11767039Y-14372436D01*
X11767039Y-14372436D02*
X11776563Y-14362912D01*
X11843229Y-14410531D02*
X11852753Y-14401008D01*
X11852753Y-14401008D02*
X11871801Y-14391484D01*
X11871801Y-14391484D02*
X11919420Y-14391484D01*
X11919420Y-14391484D02*
X11938468Y-14401008D01*
X11938468Y-14401008D02*
X11947991Y-14410531D01*
X11947991Y-14410531D02*
X11957515Y-14429579D01*
X11957515Y-14429579D02*
X11957515Y-14448627D01*
X11957515Y-14448627D02*
X11947991Y-14477198D01*
X11947991Y-14477198D02*
X11833706Y-14591484D01*
X11833706Y-14591484D02*
X11957515Y-14591484D01*
X12071801Y-14477198D02*
X12052753Y-14467674D01*
X12052753Y-14467674D02*
X12043229Y-14458150D01*
X12043229Y-14458150D02*
X12033706Y-14439103D01*
X12033706Y-14439103D02*
X12033706Y-14429579D01*
X12033706Y-14429579D02*
X12043229Y-14410531D01*
X12043229Y-14410531D02*
X12052753Y-14401008D01*
X12052753Y-14401008D02*
X12071801Y-14391484D01*
X12071801Y-14391484D02*
X12109896Y-14391484D01*
X12109896Y-14391484D02*
X12128944Y-14401008D01*
X12128944Y-14401008D02*
X12138468Y-14410531D01*
X12138468Y-14410531D02*
X12147991Y-14429579D01*
X12147991Y-14429579D02*
X12147991Y-14439103D01*
X12147991Y-14439103D02*
X12138468Y-14458150D01*
X12138468Y-14458150D02*
X12128944Y-14467674D01*
X12128944Y-14467674D02*
X12109896Y-14477198D01*
X12109896Y-14477198D02*
X12071801Y-14477198D01*
X12071801Y-14477198D02*
X12052753Y-14486722D01*
X12052753Y-14486722D02*
X12043229Y-14496246D01*
X12043229Y-14496246D02*
X12033706Y-14515293D01*
X12033706Y-14515293D02*
X12033706Y-14553388D01*
X12033706Y-14553388D02*
X12043229Y-14572436D01*
X12043229Y-14572436D02*
X12052753Y-14581960D01*
X12052753Y-14581960D02*
X12071801Y-14591484D01*
X12071801Y-14591484D02*
X12109896Y-14591484D01*
X12109896Y-14591484D02*
X12128944Y-14581960D01*
X12128944Y-14581960D02*
X12138468Y-14572436D01*
X12138468Y-14572436D02*
X12147991Y-14553388D01*
X12147991Y-14553388D02*
X12147991Y-14515293D01*
X12147991Y-14515293D02*
X12138468Y-14496246D01*
X12138468Y-14496246D02*
X12128944Y-14486722D01*
X12128944Y-14486722D02*
X12109896Y-14477198D01*
X12386087Y-14591484D02*
X12386087Y-14391484D01*
X12471801Y-14591484D02*
X12471801Y-14486722D01*
X12471801Y-14486722D02*
X12462277Y-14467674D01*
X12462277Y-14467674D02*
X12443230Y-14458150D01*
X12443230Y-14458150D02*
X12414658Y-14458150D01*
X12414658Y-14458150D02*
X12395610Y-14467674D01*
X12395610Y-14467674D02*
X12386087Y-14477198D01*
X12595610Y-14591484D02*
X12576563Y-14581960D01*
X12576563Y-14581960D02*
X12567039Y-14572436D01*
X12567039Y-14572436D02*
X12557515Y-14553388D01*
X12557515Y-14553388D02*
X12557515Y-14496246D01*
X12557515Y-14496246D02*
X12567039Y-14477198D01*
X12567039Y-14477198D02*
X12576563Y-14467674D01*
X12576563Y-14467674D02*
X12595610Y-14458150D01*
X12595610Y-14458150D02*
X12624182Y-14458150D01*
X12624182Y-14458150D02*
X12643230Y-14467674D01*
X12643230Y-14467674D02*
X12652753Y-14477198D01*
X12652753Y-14477198D02*
X12662277Y-14496246D01*
X12662277Y-14496246D02*
X12662277Y-14553388D01*
X12662277Y-14553388D02*
X12652753Y-14572436D01*
X12652753Y-14572436D02*
X12643230Y-14581960D01*
X12643230Y-14581960D02*
X12624182Y-14591484D01*
X12624182Y-14591484D02*
X12595610Y-14591484D01*
X12776563Y-14591484D02*
X12757515Y-14581960D01*
X12757515Y-14581960D02*
X12747991Y-14562912D01*
X12747991Y-14562912D02*
X12747991Y-14391484D01*
X12928944Y-14581960D02*
X12909896Y-14591484D01*
X12909896Y-14591484D02*
X12871801Y-14591484D01*
X12871801Y-14591484D02*
X12852753Y-14581960D01*
X12852753Y-14581960D02*
X12843230Y-14562912D01*
X12843230Y-14562912D02*
X12843230Y-14486722D01*
X12843230Y-14486722D02*
X12852753Y-14467674D01*
X12852753Y-14467674D02*
X12871801Y-14458150D01*
X12871801Y-14458150D02*
X12909896Y-14458150D01*
X12909896Y-14458150D02*
X12928944Y-14467674D01*
X12928944Y-14467674D02*
X12938468Y-14486722D01*
X12938468Y-14486722D02*
X12938468Y-14505769D01*
X12938468Y-14505769D02*
X12843230Y-14524817D01*
X13014658Y-14581960D02*
X13033706Y-14591484D01*
X13033706Y-14591484D02*
X13071801Y-14591484D01*
X13071801Y-14591484D02*
X13090849Y-14581960D01*
X13090849Y-14581960D02*
X13100372Y-14562912D01*
X13100372Y-14562912D02*
X13100372Y-14553388D01*
X13100372Y-14553388D02*
X13090849Y-14534341D01*
X13090849Y-14534341D02*
X13071801Y-14524817D01*
X13071801Y-14524817D02*
X13043230Y-14524817D01*
X13043230Y-14524817D02*
X13024182Y-14515293D01*
X13024182Y-14515293D02*
X13014658Y-14496246D01*
X13014658Y-14496246D02*
X13014658Y-14486722D01*
X13014658Y-14486722D02*
X13024182Y-14467674D01*
X13024182Y-14467674D02*
X13043230Y-14458150D01*
X13043230Y-14458150D02*
X13071801Y-14458150D01*
X13071801Y-14458150D02*
X13090849Y-14467674D01*
X13167039Y-14667674D02*
X13176563Y-14658150D01*
X13176563Y-14658150D02*
X13195611Y-14629579D01*
X13195611Y-14629579D02*
X13205134Y-14610531D01*
X13205134Y-14610531D02*
X13214658Y-14581960D01*
X13214658Y-14581960D02*
X13224182Y-14534341D01*
X13224182Y-14534341D02*
X13224182Y-14496246D01*
X13224182Y-14496246D02*
X13214658Y-14448627D01*
X13214658Y-14448627D02*
X13205134Y-14420055D01*
X13205134Y-14420055D02*
X13195611Y-14401008D01*
X13195611Y-14401008D02*
X13176563Y-14372436D01*
X13176563Y-14372436D02*
X13167039Y-14362912D01*
D11*
X8201500Y-14764000D02*
G75*
G02*
X8101500Y-14764000I-50000J0D01*
G01*
X8101500Y-14764000D02*
G75*
G02*
X8201500Y-14764000I50000J0D01*
G01*
D10*
X8567039Y-14855484D02*
X8452753Y-14855484D01*
X8509896Y-14855484D02*
X8509896Y-14655484D01*
X8509896Y-14655484D02*
X8490848Y-14684055D01*
X8490848Y-14684055D02*
X8471801Y-14703103D01*
X8471801Y-14703103D02*
X8452753Y-14712627D01*
X8652753Y-14836436D02*
X8662277Y-14845960D01*
X8662277Y-14845960D02*
X8652753Y-14855484D01*
X8652753Y-14855484D02*
X8643229Y-14845960D01*
X8643229Y-14845960D02*
X8652753Y-14836436D01*
X8652753Y-14836436D02*
X8652753Y-14855484D01*
X8786086Y-14655484D02*
X8805134Y-14655484D01*
X8805134Y-14655484D02*
X8824182Y-14665008D01*
X8824182Y-14665008D02*
X8833705Y-14674531D01*
X8833705Y-14674531D02*
X8843229Y-14693579D01*
X8843229Y-14693579D02*
X8852753Y-14731674D01*
X8852753Y-14731674D02*
X8852753Y-14779293D01*
X8852753Y-14779293D02*
X8843229Y-14817388D01*
X8843229Y-14817388D02*
X8833705Y-14836436D01*
X8833705Y-14836436D02*
X8824182Y-14845960D01*
X8824182Y-14845960D02*
X8805134Y-14855484D01*
X8805134Y-14855484D02*
X8786086Y-14855484D01*
X8786086Y-14855484D02*
X8767039Y-14845960D01*
X8767039Y-14845960D02*
X8757515Y-14836436D01*
X8757515Y-14836436D02*
X8747991Y-14817388D01*
X8747991Y-14817388D02*
X8738467Y-14779293D01*
X8738467Y-14779293D02*
X8738467Y-14731674D01*
X8738467Y-14731674D02*
X8747991Y-14693579D01*
X8747991Y-14693579D02*
X8757515Y-14674531D01*
X8757515Y-14674531D02*
X8767039Y-14665008D01*
X8767039Y-14665008D02*
X8786086Y-14655484D01*
X8976563Y-14655484D02*
X8995610Y-14655484D01*
X8995610Y-14655484D02*
X9014658Y-14665008D01*
X9014658Y-14665008D02*
X9024182Y-14674531D01*
X9024182Y-14674531D02*
X9033705Y-14693579D01*
X9033705Y-14693579D02*
X9043229Y-14731674D01*
X9043229Y-14731674D02*
X9043229Y-14779293D01*
X9043229Y-14779293D02*
X9033705Y-14817388D01*
X9033705Y-14817388D02*
X9024182Y-14836436D01*
X9024182Y-14836436D02*
X9014658Y-14845960D01*
X9014658Y-14845960D02*
X8995610Y-14855484D01*
X8995610Y-14855484D02*
X8976563Y-14855484D01*
X8976563Y-14855484D02*
X8957515Y-14845960D01*
X8957515Y-14845960D02*
X8947991Y-14836436D01*
X8947991Y-14836436D02*
X8938467Y-14817388D01*
X8938467Y-14817388D02*
X8928944Y-14779293D01*
X8928944Y-14779293D02*
X8928944Y-14731674D01*
X8928944Y-14731674D02*
X8938467Y-14693579D01*
X8938467Y-14693579D02*
X8947991Y-14674531D01*
X8947991Y-14674531D02*
X8957515Y-14665008D01*
X8957515Y-14665008D02*
X8976563Y-14655484D01*
X9167039Y-14655484D02*
X9186086Y-14655484D01*
X9186086Y-14655484D02*
X9205134Y-14665008D01*
X9205134Y-14665008D02*
X9214658Y-14674531D01*
X9214658Y-14674531D02*
X9224182Y-14693579D01*
X9224182Y-14693579D02*
X9233705Y-14731674D01*
X9233705Y-14731674D02*
X9233705Y-14779293D01*
X9233705Y-14779293D02*
X9224182Y-14817388D01*
X9224182Y-14817388D02*
X9214658Y-14836436D01*
X9214658Y-14836436D02*
X9205134Y-14845960D01*
X9205134Y-14845960D02*
X9186086Y-14855484D01*
X9186086Y-14855484D02*
X9167039Y-14855484D01*
X9167039Y-14855484D02*
X9147991Y-14845960D01*
X9147991Y-14845960D02*
X9138467Y-14836436D01*
X9138467Y-14836436D02*
X9128944Y-14817388D01*
X9128944Y-14817388D02*
X9119420Y-14779293D01*
X9119420Y-14779293D02*
X9119420Y-14731674D01*
X9119420Y-14731674D02*
X9128944Y-14693579D01*
X9128944Y-14693579D02*
X9138467Y-14674531D01*
X9138467Y-14674531D02*
X9147991Y-14665008D01*
X9147991Y-14665008D02*
X9167039Y-14655484D01*
X9319420Y-14855484D02*
X9319420Y-14722150D01*
X9319420Y-14741198D02*
X9328944Y-14731674D01*
X9328944Y-14731674D02*
X9347991Y-14722150D01*
X9347991Y-14722150D02*
X9376563Y-14722150D01*
X9376563Y-14722150D02*
X9395610Y-14731674D01*
X9395610Y-14731674D02*
X9405134Y-14750722D01*
X9405134Y-14750722D02*
X9405134Y-14855484D01*
X9405134Y-14750722D02*
X9414658Y-14731674D01*
X9414658Y-14731674D02*
X9433705Y-14722150D01*
X9433705Y-14722150D02*
X9462277Y-14722150D01*
X9462277Y-14722150D02*
X9481325Y-14731674D01*
X9481325Y-14731674D02*
X9490848Y-14750722D01*
X9490848Y-14750722D02*
X9490848Y-14855484D01*
X9586086Y-14855484D02*
X9586086Y-14722150D01*
X9586086Y-14741198D02*
X9595610Y-14731674D01*
X9595610Y-14731674D02*
X9614658Y-14722150D01*
X9614658Y-14722150D02*
X9643229Y-14722150D01*
X9643229Y-14722150D02*
X9662277Y-14731674D01*
X9662277Y-14731674D02*
X9671801Y-14750722D01*
X9671801Y-14750722D02*
X9671801Y-14855484D01*
X9671801Y-14750722D02*
X9681325Y-14731674D01*
X9681325Y-14731674D02*
X9700372Y-14722150D01*
X9700372Y-14722150D02*
X9728944Y-14722150D01*
X9728944Y-14722150D02*
X9747991Y-14731674D01*
X9747991Y-14731674D02*
X9757515Y-14750722D01*
X9757515Y-14750722D02*
X9757515Y-14855484D01*
X10147991Y-14645960D02*
X9976563Y-14903103D01*
X10405134Y-14655484D02*
X10424182Y-14655484D01*
X10424182Y-14655484D02*
X10443229Y-14665008D01*
X10443229Y-14665008D02*
X10452753Y-14674531D01*
X10452753Y-14674531D02*
X10462277Y-14693579D01*
X10462277Y-14693579D02*
X10471801Y-14731674D01*
X10471801Y-14731674D02*
X10471801Y-14779293D01*
X10471801Y-14779293D02*
X10462277Y-14817388D01*
X10462277Y-14817388D02*
X10452753Y-14836436D01*
X10452753Y-14836436D02*
X10443229Y-14845960D01*
X10443229Y-14845960D02*
X10424182Y-14855484D01*
X10424182Y-14855484D02*
X10405134Y-14855484D01*
X10405134Y-14855484D02*
X10386087Y-14845960D01*
X10386087Y-14845960D02*
X10376563Y-14836436D01*
X10376563Y-14836436D02*
X10367039Y-14817388D01*
X10367039Y-14817388D02*
X10357515Y-14779293D01*
X10357515Y-14779293D02*
X10357515Y-14731674D01*
X10357515Y-14731674D02*
X10367039Y-14693579D01*
X10367039Y-14693579D02*
X10376563Y-14674531D01*
X10376563Y-14674531D02*
X10386087Y-14665008D01*
X10386087Y-14665008D02*
X10405134Y-14655484D01*
X10557515Y-14836436D02*
X10567039Y-14845960D01*
X10567039Y-14845960D02*
X10557515Y-14855484D01*
X10557515Y-14855484D02*
X10547991Y-14845960D01*
X10547991Y-14845960D02*
X10557515Y-14836436D01*
X10557515Y-14836436D02*
X10557515Y-14855484D01*
X10690848Y-14655484D02*
X10709896Y-14655484D01*
X10709896Y-14655484D02*
X10728944Y-14665008D01*
X10728944Y-14665008D02*
X10738468Y-14674531D01*
X10738468Y-14674531D02*
X10747991Y-14693579D01*
X10747991Y-14693579D02*
X10757515Y-14731674D01*
X10757515Y-14731674D02*
X10757515Y-14779293D01*
X10757515Y-14779293D02*
X10747991Y-14817388D01*
X10747991Y-14817388D02*
X10738468Y-14836436D01*
X10738468Y-14836436D02*
X10728944Y-14845960D01*
X10728944Y-14845960D02*
X10709896Y-14855484D01*
X10709896Y-14855484D02*
X10690848Y-14855484D01*
X10690848Y-14855484D02*
X10671801Y-14845960D01*
X10671801Y-14845960D02*
X10662277Y-14836436D01*
X10662277Y-14836436D02*
X10652753Y-14817388D01*
X10652753Y-14817388D02*
X10643229Y-14779293D01*
X10643229Y-14779293D02*
X10643229Y-14731674D01*
X10643229Y-14731674D02*
X10652753Y-14693579D01*
X10652753Y-14693579D02*
X10662277Y-14674531D01*
X10662277Y-14674531D02*
X10671801Y-14665008D01*
X10671801Y-14665008D02*
X10690848Y-14655484D01*
X10824182Y-14655484D02*
X10947991Y-14655484D01*
X10947991Y-14655484D02*
X10881325Y-14731674D01*
X10881325Y-14731674D02*
X10909896Y-14731674D01*
X10909896Y-14731674D02*
X10928944Y-14741198D01*
X10928944Y-14741198D02*
X10938468Y-14750722D01*
X10938468Y-14750722D02*
X10947991Y-14769769D01*
X10947991Y-14769769D02*
X10947991Y-14817388D01*
X10947991Y-14817388D02*
X10938468Y-14836436D01*
X10938468Y-14836436D02*
X10928944Y-14845960D01*
X10928944Y-14845960D02*
X10909896Y-14855484D01*
X10909896Y-14855484D02*
X10852753Y-14855484D01*
X10852753Y-14855484D02*
X10833706Y-14845960D01*
X10833706Y-14845960D02*
X10824182Y-14836436D01*
X11043229Y-14855484D02*
X11081325Y-14855484D01*
X11081325Y-14855484D02*
X11100372Y-14845960D01*
X11100372Y-14845960D02*
X11109896Y-14836436D01*
X11109896Y-14836436D02*
X11128944Y-14807865D01*
X11128944Y-14807865D02*
X11138468Y-14769769D01*
X11138468Y-14769769D02*
X11138468Y-14693579D01*
X11138468Y-14693579D02*
X11128944Y-14674531D01*
X11128944Y-14674531D02*
X11119420Y-14665008D01*
X11119420Y-14665008D02*
X11100372Y-14655484D01*
X11100372Y-14655484D02*
X11062277Y-14655484D01*
X11062277Y-14655484D02*
X11043229Y-14665008D01*
X11043229Y-14665008D02*
X11033706Y-14674531D01*
X11033706Y-14674531D02*
X11024182Y-14693579D01*
X11024182Y-14693579D02*
X11024182Y-14741198D01*
X11024182Y-14741198D02*
X11033706Y-14760246D01*
X11033706Y-14760246D02*
X11043229Y-14769769D01*
X11043229Y-14769769D02*
X11062277Y-14779293D01*
X11062277Y-14779293D02*
X11100372Y-14779293D01*
X11100372Y-14779293D02*
X11119420Y-14769769D01*
X11119420Y-14769769D02*
X11128944Y-14760246D01*
X11128944Y-14760246D02*
X11138468Y-14741198D01*
X11309896Y-14722150D02*
X11309896Y-14855484D01*
X11262277Y-14645960D02*
X11214658Y-14788817D01*
X11214658Y-14788817D02*
X11338467Y-14788817D01*
X11405134Y-14655484D02*
X11405134Y-14693579D01*
X11481325Y-14655484D02*
X11481325Y-14693579D01*
X11776563Y-14931674D02*
X11767039Y-14922150D01*
X11767039Y-14922150D02*
X11747991Y-14893579D01*
X11747991Y-14893579D02*
X11738468Y-14874531D01*
X11738468Y-14874531D02*
X11728944Y-14845960D01*
X11728944Y-14845960D02*
X11719420Y-14798341D01*
X11719420Y-14798341D02*
X11719420Y-14760246D01*
X11719420Y-14760246D02*
X11728944Y-14712627D01*
X11728944Y-14712627D02*
X11738468Y-14684055D01*
X11738468Y-14684055D02*
X11747991Y-14665008D01*
X11747991Y-14665008D02*
X11767039Y-14636436D01*
X11767039Y-14636436D02*
X11776563Y-14626912D01*
X11957515Y-14855484D02*
X11843229Y-14855484D01*
X11900372Y-14855484D02*
X11900372Y-14655484D01*
X11900372Y-14655484D02*
X11881325Y-14684055D01*
X11881325Y-14684055D02*
X11862277Y-14703103D01*
X11862277Y-14703103D02*
X11843229Y-14712627D01*
X12024182Y-14655484D02*
X12157515Y-14655484D01*
X12157515Y-14655484D02*
X12071801Y-14855484D01*
X12271801Y-14655484D02*
X12290849Y-14655484D01*
X12290849Y-14655484D02*
X12309896Y-14665008D01*
X12309896Y-14665008D02*
X12319420Y-14674531D01*
X12319420Y-14674531D02*
X12328944Y-14693579D01*
X12328944Y-14693579D02*
X12338468Y-14731674D01*
X12338468Y-14731674D02*
X12338468Y-14779293D01*
X12338468Y-14779293D02*
X12328944Y-14817388D01*
X12328944Y-14817388D02*
X12319420Y-14836436D01*
X12319420Y-14836436D02*
X12309896Y-14845960D01*
X12309896Y-14845960D02*
X12290849Y-14855484D01*
X12290849Y-14855484D02*
X12271801Y-14855484D01*
X12271801Y-14855484D02*
X12252753Y-14845960D01*
X12252753Y-14845960D02*
X12243229Y-14836436D01*
X12243229Y-14836436D02*
X12233706Y-14817388D01*
X12233706Y-14817388D02*
X12224182Y-14779293D01*
X12224182Y-14779293D02*
X12224182Y-14731674D01*
X12224182Y-14731674D02*
X12233706Y-14693579D01*
X12233706Y-14693579D02*
X12243229Y-14674531D01*
X12243229Y-14674531D02*
X12252753Y-14665008D01*
X12252753Y-14665008D02*
X12271801Y-14655484D01*
X12576563Y-14855484D02*
X12576563Y-14655484D01*
X12662277Y-14855484D02*
X12662277Y-14750722D01*
X12662277Y-14750722D02*
X12652753Y-14731674D01*
X12652753Y-14731674D02*
X12633706Y-14722150D01*
X12633706Y-14722150D02*
X12605134Y-14722150D01*
X12605134Y-14722150D02*
X12586087Y-14731674D01*
X12586087Y-14731674D02*
X12576563Y-14741198D01*
X12786087Y-14855484D02*
X12767039Y-14845960D01*
X12767039Y-14845960D02*
X12757515Y-14836436D01*
X12757515Y-14836436D02*
X12747991Y-14817388D01*
X12747991Y-14817388D02*
X12747991Y-14760246D01*
X12747991Y-14760246D02*
X12757515Y-14741198D01*
X12757515Y-14741198D02*
X12767039Y-14731674D01*
X12767039Y-14731674D02*
X12786087Y-14722150D01*
X12786087Y-14722150D02*
X12814658Y-14722150D01*
X12814658Y-14722150D02*
X12833706Y-14731674D01*
X12833706Y-14731674D02*
X12843230Y-14741198D01*
X12843230Y-14741198D02*
X12852753Y-14760246D01*
X12852753Y-14760246D02*
X12852753Y-14817388D01*
X12852753Y-14817388D02*
X12843230Y-14836436D01*
X12843230Y-14836436D02*
X12833706Y-14845960D01*
X12833706Y-14845960D02*
X12814658Y-14855484D01*
X12814658Y-14855484D02*
X12786087Y-14855484D01*
X12967039Y-14855484D02*
X12947991Y-14845960D01*
X12947991Y-14845960D02*
X12938468Y-14826912D01*
X12938468Y-14826912D02*
X12938468Y-14655484D01*
X13119420Y-14845960D02*
X13100372Y-14855484D01*
X13100372Y-14855484D02*
X13062277Y-14855484D01*
X13062277Y-14855484D02*
X13043230Y-14845960D01*
X13043230Y-14845960D02*
X13033706Y-14826912D01*
X13033706Y-14826912D02*
X13033706Y-14750722D01*
X13033706Y-14750722D02*
X13043230Y-14731674D01*
X13043230Y-14731674D02*
X13062277Y-14722150D01*
X13062277Y-14722150D02*
X13100372Y-14722150D01*
X13100372Y-14722150D02*
X13119420Y-14731674D01*
X13119420Y-14731674D02*
X13128944Y-14750722D01*
X13128944Y-14750722D02*
X13128944Y-14769769D01*
X13128944Y-14769769D02*
X13033706Y-14788817D01*
X13205134Y-14845960D02*
X13224182Y-14855484D01*
X13224182Y-14855484D02*
X13262277Y-14855484D01*
X13262277Y-14855484D02*
X13281325Y-14845960D01*
X13281325Y-14845960D02*
X13290849Y-14826912D01*
X13290849Y-14826912D02*
X13290849Y-14817388D01*
X13290849Y-14817388D02*
X13281325Y-14798341D01*
X13281325Y-14798341D02*
X13262277Y-14788817D01*
X13262277Y-14788817D02*
X13233706Y-14788817D01*
X13233706Y-14788817D02*
X13214658Y-14779293D01*
X13214658Y-14779293D02*
X13205134Y-14760246D01*
X13205134Y-14760246D02*
X13205134Y-14750722D01*
X13205134Y-14750722D02*
X13214658Y-14731674D01*
X13214658Y-14731674D02*
X13233706Y-14722150D01*
X13233706Y-14722150D02*
X13262277Y-14722150D01*
X13262277Y-14722150D02*
X13281325Y-14731674D01*
X13357515Y-14931674D02*
X13367039Y-14922150D01*
X13367039Y-14922150D02*
X13386087Y-14893579D01*
X13386087Y-14893579D02*
X13395611Y-14874531D01*
X13395611Y-14874531D02*
X13405134Y-14845960D01*
X13405134Y-14845960D02*
X13414658Y-14798341D01*
X13414658Y-14798341D02*
X13414658Y-14760246D01*
X13414658Y-14760246D02*
X13405134Y-14712627D01*
X13405134Y-14712627D02*
X13395611Y-14684055D01*
X13395611Y-14684055D02*
X13386087Y-14665008D01*
X13386087Y-14665008D02*
X13367039Y-14636436D01*
X13367039Y-14636436D02*
X13357515Y-14626912D01*
M02*
